<svg width="105" height="52" viewBox="0 0 105 52" fill="none" xmlns="http://www.w3.org/2000/svg">
<path d="M52 3H95C98.866 3 102 6.13401 102 10V42C102 45.866 98.866 49 95 49H52V3Z" fill="white"/>
<path d="M59.211 26.3494V31.5684C59.211 32.0503 59.3248 32.4245 59.5462 32.6908C59.7676 32.9572 60.1092 33.084 60.5709 33.084C61.0326 33.084 61.3742 32.9508 61.6083 32.6845C61.8423 32.4182 61.9561 32.044 61.9561 31.5684V26.3494H64.4483V31.5684C64.4483 32.3928 64.2712 33.0967 63.9296 33.6801C63.5817 34.2635 63.1073 34.7011 62.5128 34.9928C61.9119 35.2845 61.254 35.4303 60.5203 35.4303C59.7866 35.4303 59.1414 35.2845 58.5658 34.9928C57.9902 34.7011 57.5411 34.2635 57.2185 33.6864C56.8896 33.1094 56.7314 32.4055 56.7314 31.5684V26.3494H59.211ZM61.798 26.0957L59.2869 26.4889V25.1508L61.798 24.6055V26.0957Z" fill="#E30238"/>
<path d="M74.1391 35.3418H71.6469L68.3261 30.313V35.3418H65.834V26.3496H68.3261L71.6469 31.4418V26.3496H74.1391V35.3418Z" fill="#E30238"/>
<path d="M78.0605 26.3496V35.3418H75.5684V26.3496H78.0605Z" fill="#E30238"/>
<path d="M79.7305 28.4603C80.0973 27.769 80.6223 27.23 81.2991 26.8432C81.9759 26.4564 82.7603 26.2598 83.6395 26.2598C84.7591 26.2598 85.7015 26.5578 86.4669 27.1603C87.2323 27.7627 87.7193 28.5744 87.9407 29.6017H85.2588C85.1006 29.2593 84.8729 28.9993 84.5883 28.8217C84.3036 28.6442 83.9747 28.5554 83.6015 28.5554C83.0259 28.5554 82.5642 28.7646 82.2226 29.1768C81.8811 29.589 81.7103 30.1407 81.7103 30.832C81.7103 31.5232 81.8811 32.0812 82.2226 32.4934C82.5642 32.9056 83.0259 33.1149 83.6015 33.1149C83.9747 33.1149 84.3036 33.0261 84.5883 32.8485C84.8729 32.671 85.0943 32.411 85.2588 32.0685H87.9407C87.7193 33.0959 87.2259 33.9139 86.4669 34.51C85.7015 35.1124 84.7591 35.4105 83.6395 35.4105C82.7539 35.4105 81.9759 35.2203 81.2991 34.8271C80.6223 34.4403 80.0973 33.9012 79.7305 33.21C79.3636 32.5188 79.1738 31.7261 79.1738 30.832C79.1738 29.9378 79.3573 29.1578 79.7305 28.4666V28.4603Z" fill="#E30238"/>
<path d="M94.8035 33.8769H91.6219L91.1411 35.3418H88.5225L91.7926 26.3496H94.6707L97.9282 35.3418H95.2969L94.8161 33.8769H94.8035ZM94.1773 31.9618L93.2095 29.0511L92.2544 31.9618H94.1773Z" fill="#E30238"/>
<path d="M57.6556 19.5325C57.877 19.1457 58.1743 18.8476 58.5538 18.632C58.9333 18.4164 59.3634 18.3086 59.8315 18.3086C60.3818 18.3086 60.8689 18.4481 61.2863 18.7335C61.7038 19.0188 61.9948 19.412 62.1592 19.913H61.0207C60.9068 19.6783 60.7487 19.5008 60.5399 19.3803C60.3312 19.2598 60.0972 19.2027 59.8252 19.2027C59.5342 19.2027 59.2812 19.2725 59.0535 19.4057C58.8258 19.5388 58.655 19.7291 58.5285 19.9764C58.402 20.2237 58.3387 20.5091 58.3387 20.8452C58.3387 21.1813 58.402 21.4603 58.5285 21.7076C58.655 21.9549 58.8258 22.1452 59.0535 22.2847C59.2812 22.4242 59.5342 22.4876 59.8252 22.4876C60.0972 22.4876 60.3312 22.4242 60.5399 22.3037C60.7423 22.1832 60.9068 22.0057 61.0207 21.7647H62.1592C61.9948 22.272 61.7038 22.6652 61.2926 22.9505C60.8815 23.2359 60.3945 23.3754 59.8378 23.3754C59.3634 23.3754 58.9396 23.2676 58.5601 23.052C58.1806 22.8364 57.877 22.5383 57.6619 22.1515C57.4405 21.7647 57.333 21.3335 57.333 20.8452C57.333 20.3569 57.4405 19.9193 57.6619 19.5325H57.6556Z" fill="#003876"/>
<path d="M66.119 18.3711V21.4404C66.119 21.7765 66.2076 22.0365 66.3847 22.214C66.5618 22.3916 66.8022 22.4804 67.1184 22.4804C67.4347 22.4804 67.6877 22.3916 67.8648 22.214C68.0419 22.0365 68.1242 21.7765 68.1242 21.4404V18.3711H69.1236V21.434C69.1236 21.8589 69.035 22.214 68.8516 22.5057C68.6681 22.7974 68.4278 23.0194 68.1242 23.1652C67.8206 23.3111 67.479 23.3872 67.1058 23.3872C66.7326 23.3872 66.4037 23.3111 66.1001 23.1652C65.8028 23.0194 65.5624 22.7974 65.3853 22.5057C65.2082 22.214 65.126 21.8589 65.126 21.434V18.3711H66.119Z" fill="#003876"/>
<path d="M73.1972 19.1769V20.4199H74.8607V21.2062H73.1972V22.5189H75.0758V23.3306H72.2041V18.3652H75.0758V19.1769H73.1972Z" fill="#003876"/>
<path d="M82.3303 23.3306H81.3372L79.0917 19.9252V23.3306H78.0986V18.3652H79.0917L81.3372 21.7769V18.3652H82.3303V23.3306Z" fill="#003876"/>
<path d="M88.8012 18.3711V19.1765H87.4855V23.3301H86.4924V19.1765H85.1768V18.3711H88.8075H88.8012Z" fill="#003876"/>
<path d="M94.6834 22.3857H92.7162L92.3873 23.3306H91.3438L93.1211 18.3652H94.2786L96.056 23.3306H95.0061L94.6771 22.3857H94.6834ZM94.4114 21.593L93.6967 19.5194L92.9819 21.593H94.4114Z" fill="#003876"/>
<path d="M95.1895 0H7.47651C4.55422 2.92341 2.91596 4.56585 0 7.49561V52H95.1895C100.604 52 105 47.5927 105 42.1644V9.83561C105 4.40098 100.604 0 95.1895 0ZM101.837 42.1644C101.837 45.8361 98.8518 48.8293 95.1895 48.8293H51.8675V3.17073H95.1895C98.8518 3.17073 101.837 6.15756 101.837 9.83561V42.1644Z" fill="#003876"/>
<path d="M25.0421 42.9808C16.737 42.6637 10.2852 35.5613 10.2852 27.2223V23.0242C10.2852 21.5403 11.4806 20.3418 12.9608 20.3418H38.3126C39.7927 20.3418 40.9882 21.5403 40.9882 23.0242V27.5964C40.9882 36.2779 33.7773 43.3042 25.0421 42.9745V42.9808ZM15.63 25.7067V27.3111C15.63 32.7013 19.7541 37.3496 25.1243 37.6159C30.8677 37.9013 35.6306 33.2974 35.6306 27.6028V25.7067H15.63Z" fill="white"/>
<path d="M23.9731 15.726H14.2068C12.48 15.726 10.943 14.464 10.7785 12.7391C10.5887 10.7669 12.1321 9.10547 14.0677 9.10547H23.8339C25.5607 9.10547 27.0978 10.3674 27.2622 12.0923C27.452 14.0645 25.9086 15.726 23.9731 15.726Z" fill="white"/>
<path d="M35.1182 16.1382C37.1688 16.1382 38.8312 14.4716 38.8312 12.4158C38.8312 10.36 37.1688 8.69336 35.1182 8.69336C33.0676 8.69336 31.4053 10.36 31.4053 12.4158C31.4053 14.4716 33.0676 16.1382 35.1182 16.1382Z" fill="#73B5E3"/>
</svg>
