<svg width="240" height="98" viewBox="0 0 240 98" fill="none" xmlns="http://www.w3.org/2000/svg">
<path d="M11.763 85.0454C11.2052 85.2561 10.5946 85.2824 10.0208 85.1204C9.44694 84.9584 8.94023 84.6166 8.57502 84.1453L6.237 81.1444C5.94048 80.7816 5.55621 80.5006 5.12061 80.328C4.685 80.1555 4.2125 80.0971 3.74799 80.1583V83.1063C3.74799 84.1693 4.476 84.3514 5.448 84.4734C5.554 84.4884 5.47802 84.9893 5.35602 84.9893H0.755985C0.633985 84.9893 0.543005 84.4894 0.664005 84.4734C1.43901 84.3664 1.92401 84.0623 1.92401 83.1063V76.3374C1.92401 75.3374 1.39301 75.0463 0.664005 74.8493C0.543005 74.8193 0.618985 74.3183 0.755985 74.3333C1.33528 74.3989 1.91801 74.4293 2.50098 74.4243C3.62398 74.4243 4.671 74.3333 5.401 74.3333C7.693 74.3333 9.22602 75.2743 9.22602 77.1413C9.22312 77.8565 8.93773 78.5416 8.43201 79.0473C7.92629 79.553 7.2412 79.8384 6.526 79.8413V79.9184C7.133 79.9184 7.57401 80.1764 8.24201 81.0114L10.503 83.8493C10.6409 84.0639 10.8262 84.2439 11.0446 84.3755C11.2631 84.5071 11.5089 84.5868 11.763 84.6084C11.884 84.6064 11.854 85.0154 11.763 85.0454ZM7.31598 77.5454C7.34596 77.2228 7.30523 76.8976 7.19666 76.5924C7.08808 76.2872 6.91427 76.0094 6.68732 75.7782C6.46037 75.5471 6.18573 75.3682 5.88257 75.2541C5.57941 75.1399 5.25505 75.0933 4.93201 75.1173C4.03201 75.1173 3.74903 75.4813 3.74903 76.3313V79.4574H4.18903C6.45003 79.4594 7.31598 79.0653 7.31598 77.5473V77.5454Z" fill="white"/>
<path d="M14.2115 84.4695C15.0925 84.2415 15.7755 84.1046 15.7755 82.9806V76.2425C15.7755 75.2705 15.1535 75.0126 14.5005 74.8426C14.3785 74.8126 14.4545 74.3115 14.5765 74.3265C15.6845 74.4475 17.5965 74.4175 18.5225 74.4175C19.9035 74.4175 20.9055 74.3565 22.1505 74.3265C22.5145 74.3265 22.5145 74.5695 22.4385 74.9185L22.0745 76.3606C22.0285 76.5736 21.6495 76.5736 21.5885 76.3606C21.3605 75.6176 20.9055 75.1916 19.0085 75.1916C17.9455 75.1916 17.5965 75.4645 17.5965 76.2545V78.7285C17.5965 79.1285 17.7965 79.1985 18.0965 79.1985H18.4305C19.4515 79.3158 20.4815 79.0747 21.3445 78.5165C21.4965 78.3785 21.8305 78.4095 21.6935 78.7165L20.8285 80.6295C20.7075 80.9025 20.4795 80.8726 20.3125 80.6446C20.0511 80.3889 19.7358 80.1949 19.3898 80.0767C19.0437 79.9585 18.6757 79.9192 18.3125 79.9615H18.0995C17.7995 79.9615 17.5995 80.0375 17.5995 80.4315V82.9815C17.5995 83.8475 17.9635 84.1665 19.2235 84.1665C21.5155 84.1665 22.4235 83.1185 22.7905 82.5425C22.8965 82.3745 23.3065 82.4515 23.3065 82.7085C23.3065 83.4825 22.6535 85.0165 21.6975 85.0165C20.8475 84.9705 20.0135 84.9245 18.7385 84.9245C17.3385 84.9245 15.6875 84.8795 14.3065 85.0165C14.1515 85.0305 14.0905 84.4995 14.2115 84.4695Z" fill="white"/>
<path d="M29.3643 80.9163V83.1063C29.3643 84.1693 30.0923 84.3514 31.0643 84.4734C31.1703 84.4884 31.0943 84.9893 30.9733 84.9893H26.3732C26.2522 84.9893 26.1612 84.4894 26.2822 84.4734C27.0572 84.3664 27.5422 84.0623 27.5422 83.1063V76.3374C27.5422 75.3374 27.0112 75.0463 26.2822 74.8493C26.1612 74.8193 26.2372 74.3183 26.3732 74.3333C26.9529 74.3989 27.536 74.4292 28.1193 74.4243C29.2423 74.4243 30.1832 74.3333 30.9572 74.3333C33.3102 74.3333 35.2573 75.1983 35.2573 77.5813C35.2533 80.2793 32.7183 81.4173 29.3643 80.9163ZM29.3643 76.3333V80.1734C31.9443 80.5374 33.2952 79.9153 33.2952 77.9273C33.3283 77.5581 33.2814 77.1861 33.1578 76.8366C33.0343 76.4871 32.8369 76.1682 32.5791 75.9018C32.3213 75.6354 32.0092 75.4276 31.6639 75.2926C31.3187 75.1576 30.9484 75.0985 30.5782 75.1193C29.6222 75.1193 29.3643 75.4523 29.3643 76.3333Z" fill="white"/>
<path d="M39.5378 81.0064V76.2404C39.5621 76.067 39.5482 75.8904 39.497 75.7229C39.4458 75.5555 39.3586 75.4012 39.2415 75.2711C39.1244 75.1409 38.9802 75.038 38.8191 74.9694C38.6579 74.9009 38.4837 74.8685 38.3087 74.8744C38.1867 74.8584 38.2778 74.3574 38.3988 74.3574H42.5428C42.6638 74.3574 42.7558 74.8574 42.6338 74.8744C42.46 74.8707 42.2876 74.9047 42.1283 74.9742C41.969 75.0438 41.8267 75.1471 41.7112 75.277C41.5958 75.4069 41.51 75.5603 41.4596 75.7266C41.4093 75.893 41.3957 76.0682 41.4198 76.2404V81.0824C41.4198 83.2064 42.6488 84.1934 44.2578 84.1934C44.6673 84.2204 45.0778 84.1576 45.4605 84.009C45.8431 83.8605 46.1885 83.6299 46.4726 83.3336C46.7566 83.0373 46.9723 82.6824 47.1045 82.2938C47.2367 81.9052 47.2822 81.4925 47.2378 81.0844V76.2424C47.2378 75.2554 46.6758 74.9814 45.9378 74.8764C45.8318 74.8604 45.9078 74.3594 46.0288 74.3594H49.4378C49.5448 74.3594 49.6378 74.8594 49.5138 74.8764C49.34 74.8727 49.1676 74.9068 49.0083 74.9763C48.849 75.0458 48.7067 75.149 48.5912 75.2789C48.4758 75.4088 48.3899 75.5623 48.3396 75.7286C48.2892 75.895 48.2757 76.0703 48.2998 76.2424V80.9924C48.3466 81.5591 48.2697 82.1292 48.0744 82.6633C47.8791 83.1973 47.5701 83.6825 47.1687 84.0853C46.7674 84.4881 46.2832 84.7989 45.7498 84.9961C45.2165 85.1933 44.6466 85.2722 44.0797 85.2274C41.9377 85.2274 39.5378 84.0884 39.5378 81.0064ZM43.9998 70.5784C44.2738 70.1784 45.5487 71.3524 45.1837 71.6254L43.1958 73.1254C42.9958 73.2764 42.4667 72.7914 42.6187 72.5794L43.9998 70.5784Z" fill="white"/>
<path d="M61.6734 81.9194C61.6734 83.8004 59.9574 85.0194 57.4234 85.0194C56.6944 85.0194 55.8444 84.9274 54.7234 84.9274C53.928 84.9143 53.1325 84.9451 52.3404 85.0194C52.2044 85.0344 52.1274 84.5034 52.2494 84.4734C53.1294 84.2454 53.8124 84.1084 53.8124 82.9844V76.2464C53.8124 75.2744 53.1904 75.0164 52.5374 74.8464C52.4164 74.8164 52.4924 74.3154 52.6134 74.3304C53.2235 74.3954 53.8369 74.4258 54.4504 74.4214C55.6644 74.4214 56.5594 74.3304 57.2274 74.3304C59.1854 74.3304 60.7944 75.1504 60.8094 76.8204C60.8186 77.3681 60.6305 77.9009 60.2795 78.3215C59.9285 78.7421 59.4379 79.0225 58.8974 79.1114V79.2024C59.2597 79.1922 59.6205 79.2551 59.958 79.3872C60.2955 79.5194 60.603 79.7182 60.8621 79.9718C61.1211 80.2253 61.3265 80.5284 61.4659 80.8631C61.6053 81.1977 61.6758 81.5569 61.6734 81.9194ZM55.6324 76.2424V78.9424H57.1954C57.4287 78.974 57.6662 78.9516 57.8895 78.8768C58.1127 78.802 58.3158 78.6769 58.483 78.5111C58.6502 78.3454 58.777 78.1434 58.8538 77.9208C58.9305 77.6982 58.955 77.461 58.9254 77.2274C58.943 76.9366 58.8969 76.6456 58.7903 76.3745C58.6837 76.1034 58.5192 75.8589 58.3082 75.658C58.0973 75.4571 57.845 75.3048 57.569 75.2116C57.293 75.1184 57 75.0866 56.7104 75.1184C55.9054 75.1194 55.6374 75.3924 55.6374 76.2424H55.6324ZM59.7154 82.2524C59.7414 81.9135 59.6941 81.573 59.5771 81.2539C59.46 80.9348 59.2758 80.6446 59.0369 80.4028C58.798 80.161 58.51 79.9734 58.1923 79.8526C57.8746 79.7317 57.5346 79.6805 57.1954 79.7024H55.6374V82.9804C55.6374 83.8154 56.0624 84.2264 57.3824 84.2264C58.7134 84.2264 59.7154 83.8304 59.7154 82.2524Z" fill="white"/>
<path d="M64.5769 84.4694C65.4579 84.2414 66.1409 84.1044 66.1409 82.9804V76.2424C66.1409 75.1794 65.5189 74.9664 64.8659 74.8764C64.7449 74.8604 64.8359 74.3594 64.9419 74.3594H69.1309C69.2369 74.3594 69.3129 74.8594 69.2069 74.8764C69.0306 74.8681 68.8546 74.8987 68.6915 74.9662C68.5284 75.0337 68.3822 75.1363 68.2633 75.2667C68.1444 75.3972 68.0557 75.5522 68.0036 75.7209C67.9515 75.8895 67.9373 76.0676 67.9619 76.2424V82.9804C67.9619 83.8464 68.3269 84.1654 69.5869 84.1654C71.8789 84.1654 72.7869 83.1174 73.1529 82.5414C73.2599 82.3734 73.6689 82.4504 73.6689 82.7074C73.6689 83.4814 73.0169 85.0154 72.0599 85.0154C71.2099 84.9694 70.3758 84.9234 69.1008 84.9234C67.7008 84.9234 66.0499 84.8784 64.6689 85.0154C64.5169 85.0304 64.4559 84.4994 64.5769 84.4694Z" fill="white"/>
<path d="M76.3439 84.4694C77.1179 84.3624 77.6039 84.0584 77.6039 83.1024V76.2424C77.6039 75.2854 77.1179 74.9814 76.3439 74.8764C76.2219 74.8604 76.3129 74.3594 76.4339 74.3594H80.5939C80.7149 74.3594 80.8059 74.8594 80.6839 74.8764C80.0319 74.9664 79.4249 75.1764 79.4249 76.2424V83.1024C79.4249 84.1654 80.0319 84.3774 80.6839 84.4694C80.8059 84.4844 80.7149 84.9854 80.5939 84.9854H76.4369C76.3129 84.9854 76.2219 84.4844 76.3439 84.4694Z" fill="white"/>
<path d="M83.8908 79.8702C83.8544 79.0959 83.9819 78.3227 84.2649 77.6011C84.5479 76.8795 84.9801 76.2258 85.5331 75.6827C86.0862 75.1397 86.7477 74.7196 87.4743 74.4498C88.201 74.18 88.9764 74.0666 89.7499 74.1172C91.5099 74.1172 93.0278 74.6642 92.8498 75.1952L92.6498 75.7872C92.1028 77.4112 91.5109 75.3322 88.8099 75.3322C86.6389 75.3322 85.5758 76.7432 85.5758 78.9322C85.5425 79.5628 85.6394 80.1935 85.8604 80.785C86.0814 81.3765 86.4219 81.9162 86.8605 82.3704C87.2992 82.8247 87.8266 83.1837 88.4101 83.4252C88.9935 83.6667 89.6205 83.7855 90.2518 83.7742C91.1066 83.7057 91.9383 83.463 92.6958 83.0612C92.8168 82.9842 93.1358 83.3342 93.0448 83.4702C92.2035 84.3741 91.099 84.9903 89.8879 85.2312C87.3379 85.2282 83.8908 83.7412 83.8908 79.8702Z" fill="white"/>
<path d="M106.905 84.9858H102.898C102.698 84.9858 102.685 84.4997 102.853 84.4697C103.414 84.3627 104.021 84.1697 103.46 82.8597L103.293 82.4808C103.141 82.1158 102.883 82.0807 102.428 82.0807H99.3283C98.8733 82.0807 98.6153 82.1108 98.4633 82.4808L98.3113 82.8597C97.7803 84.1657 98.3573 84.3597 99.0853 84.4697C99.2853 84.4997 99.2373 84.9858 99.0403 84.9858H95.7613C95.5793 84.9858 95.5333 84.4997 95.7153 84.4697C96.3383 84.3627 96.7023 84.1507 97.2643 82.8597L99.8293 76.9708C100.261 76.1887 100.524 75.3253 100.603 74.4357C100.946 74.2619 101.328 74.1835 101.711 74.2087L105.411 82.8447C105.957 84.1357 106.321 84.3777 106.928 84.4697C107.148 84.4997 107.087 84.9858 106.905 84.9858ZM102.67 80.9927L100.894 76.7427L99.1033 80.9927C99.0123 81.2057 99.2403 81.2358 99.4533 81.2358H102.321C102.537 81.2358 102.761 81.2067 102.67 80.9927Z" fill="white"/>
<path d="M114.259 84.4695C115.139 84.2415 115.822 84.1046 115.822 82.9806V76.2425C115.822 75.2705 115.2 75.0126 114.547 74.8426C114.426 74.8126 114.502 74.3115 114.623 74.3265C115.254 74.3952 115.888 74.4256 116.523 74.4175C117.706 74.4175 118.769 74.3265 119.543 74.3265C123.216 74.3265 125.204 76.5126 125.204 79.4416C125.231 80.1893 125.101 80.9345 124.824 81.6295C124.547 82.3246 124.128 82.9543 123.594 83.4784C123.06 84.0026 122.423 84.4097 121.722 84.6738C121.022 84.9379 120.275 85.0533 119.528 85.0125C118.799 85.0125 117.858 84.9206 116.735 84.9206C115.939 84.9078 115.144 84.9385 114.352 85.0125C114.198 85.0305 114.138 84.4995 114.259 84.4695ZM123.381 80.3095C123.381 77.4095 121.802 75.1345 119.071 75.1345C117.993 75.1345 117.644 75.4675 117.644 76.2425V82.9806C117.644 83.8006 118.205 84.2105 119.678 84.2105C122.152 84.2065 123.381 82.8745 123.381 80.3065V80.3095Z" fill="white"/>
<path d="M128.5 79.733C128.472 78.9969 128.595 78.2628 128.86 77.5757C129.126 76.8887 129.529 76.263 130.045 75.7372C130.56 75.2113 131.178 74.7963 131.86 74.5175C132.542 74.2388 133.274 74.1022 134.01 74.116C134.736 74.0927 135.459 74.2185 136.134 74.4856C136.81 74.7527 137.423 75.1556 137.937 75.6692C138.45 76.1828 138.853 76.7963 139.12 77.4717C139.387 78.1471 139.513 78.8701 139.489 79.596C139.52 80.3335 139.399 81.0695 139.135 81.7586C138.871 82.4477 138.468 83.0754 137.952 83.603C137.435 84.1305 136.817 84.5468 136.133 84.8261C135.45 85.1054 134.717 85.2418 133.979 85.227C133.253 85.2474 132.53 85.1191 131.855 84.85C131.18 84.581 130.567 84.1767 130.054 83.6622C129.541 83.1477 129.138 82.5338 128.871 81.8582C128.604 81.1825 128.478 80.4593 128.5 79.733ZM137.683 80.446C137.683 77.38 135.604 75.146 133.418 75.146C132.082 75.146 130.318 76.026 130.318 78.88C130.318 81.98 132.397 84.192 134.567 84.192C135.907 84.195 137.683 83.315 137.683 80.446Z" fill="white"/>
<path d="M156.009 84.9854H152.047C151.941 84.9854 151.865 84.4853 151.956 84.4693C152.121 84.4626 152.282 84.42 152.429 84.3445C152.576 84.269 152.704 84.1627 152.805 84.0324C152.906 83.9023 152.978 83.7518 153.015 83.5911C153.052 83.4305 153.053 83.2636 153.019 83.1024L152.731 78.0023L150.271 83.0124C150.018 83.5118 149.815 84.035 149.664 84.5744C149.634 84.7574 149.315 84.8484 149.072 84.8484C148.976 84.856 148.879 84.8339 148.795 84.7849C148.711 84.736 148.643 84.6625 148.602 84.5744L145.096 77.9273L144.868 83.1024C144.822 84.1653 145.445 84.4073 145.931 84.4693C146.052 84.4843 145.961 84.9854 145.854 84.9854H142.712C142.591 84.9854 142.5 84.4853 142.621 84.4693C143.274 84.3923 143.821 84.1694 143.881 83.1024L144.367 74.3903C144.382 74.1313 144.959 74.1163 145.111 74.3903L149.511 82.6164L153.595 74.3903C153.731 74.1163 154.338 74.1313 154.353 74.3903L154.839 83.1024C154.9 84.1653 155.446 84.3923 156.084 84.4693C156.206 84.4843 156.115 84.9854 156.009 84.9854Z" fill="white"/>
<path d="M159.126 84.4694C159.9 84.3624 160.386 84.0584 160.386 83.1024V76.2424C160.386 75.2854 159.9 74.9814 159.126 74.8764C159.005 74.8604 159.096 74.3594 159.217 74.3594H163.376C163.498 74.3594 163.588 74.8594 163.467 74.8764C162.815 74.9664 162.208 75.1764 162.208 76.2424V83.1024C162.208 84.1654 162.815 84.3774 163.467 84.4694C163.588 84.4844 163.498 84.9854 163.376 84.9854H159.217C159.096 84.9854 159.005 84.4844 159.126 84.4694Z" fill="white"/>
<path d="M175.948 84.8484L168.722 77.2885V83.0574C168.722 84.0884 169.33 84.2574 170.195 84.4694C170.316 84.4994 170.256 84.9855 170.104 84.9855H166.504C166.382 84.9855 166.291 84.5144 166.428 84.4694C167.065 84.2564 167.672 84.1354 167.672 83.0574V77.1674C167.748 76.4146 167.549 75.6597 167.111 75.0424C166.974 74.8604 166.838 74.7424 166.838 74.6934C166.834 74.6094 166.863 74.5273 166.919 74.4647C166.975 74.4022 167.054 74.3643 167.138 74.3594H168.261C168.328 74.3505 168.397 74.3584 168.461 74.3823C168.524 74.4062 168.581 74.4454 168.626 74.4965L175.699 81.9794V76.2725C175.699 75.1945 175.016 75.0724 174.226 74.8724C174.105 74.8414 174.166 74.3555 174.318 74.3555H177.918C178.039 74.3555 178.118 74.8414 177.994 74.8724C177.326 75.0724 176.749 75.1905 176.749 76.2725V82.1724C176.718 83.0666 176.779 83.9617 176.931 84.8434C176.992 85.0714 176.749 85.1315 176.506 85.1315C176.397 85.1318 176.29 85.1063 176.193 85.0571C176.096 85.0079 176.012 84.9364 175.948 84.8484Z" fill="white"/>
<path d="M181.037 84.4694C181.812 84.3624 182.297 84.0584 182.297 83.1024V76.2424C182.297 75.2854 181.812 74.9814 181.037 74.8764C180.916 74.8604 181.007 74.3594 181.129 74.3594H185.287C185.409 74.3594 185.5 74.8594 185.379 74.8764C184.726 74.9664 184.119 75.1764 184.119 76.2424V83.1024C184.119 84.1654 184.726 84.3774 185.379 84.4694C185.5 84.4844 185.409 84.9854 185.287 84.9854H181.129C181.006 84.9854 180.915 84.4844 181.037 84.4694Z" fill="white"/>
<path d="M188.583 79.8696C188.546 79.0952 188.673 78.3216 188.955 77.5997C189.238 76.8777 189.67 76.2236 190.223 75.6804C190.776 75.1371 191.438 74.717 192.165 74.4475C192.892 74.1779 193.668 74.0652 194.441 74.1166C196.202 74.1166 197.72 74.6636 197.541 75.1946L197.341 75.7866C196.794 77.4106 196.202 75.3315 193.501 75.3315C191.33 75.3315 190.268 76.7426 190.268 78.9316C190.235 79.562 190.332 80.1925 190.553 80.7839C190.774 81.3753 191.114 81.9148 191.552 82.369C191.991 82.8232 192.518 83.1823 193.101 83.424C193.685 83.6656 194.311 83.7846 194.942 83.7736C195.797 83.7053 196.629 83.4627 197.386 83.0605C197.508 82.9836 197.826 83.3335 197.735 83.4695C196.894 84.3739 195.79 84.9901 194.578 85.2306C192.028 85.2276 188.583 83.7406 188.583 79.8696Z" fill="white"/>
<path d="M211.598 84.9858H207.59C207.39 84.9858 207.378 84.4997 207.545 84.4697C208.107 84.3627 208.714 84.1697 208.152 82.8597L207.985 82.4808C207.833 82.1158 207.575 82.0807 207.12 82.0807H204.02C203.564 82.0807 203.306 82.1108 203.155 82.4808L203.003 82.8597C202.471 84.1657 203.048 84.3597 203.777 84.4697C203.977 84.4997 203.929 84.9858 203.731 84.9858H200.457C200.275 84.9858 200.229 84.4997 200.411 84.4697C201.033 84.3627 201.398 84.1507 201.96 82.8597L204.525 76.9708C204.957 76.1887 205.22 75.3253 205.299 74.4357C205.642 74.2619 206.024 74.1835 206.407 74.2087L210.107 82.8447C210.654 84.1357 211.018 84.3777 211.625 84.4697C211.837 84.4997 211.78 84.9858 211.598 84.9858ZM207.363 80.9927L205.587 76.7427L203.796 80.9927C203.705 81.2057 203.933 81.2358 204.145 81.2358H207.014C207.226 81.2358 207.454 81.2067 207.363 80.9927Z" fill="white"/>
<path d="M223.959 84.8484L216.734 77.2885V83.0574C216.734 84.0884 217.341 84.2574 218.206 84.4694C218.328 84.4994 218.267 84.9855 218.115 84.9855H214.515C214.394 84.9855 214.303 84.5144 214.439 84.4694C215.076 84.2564 215.684 84.1354 215.684 83.0574V77.1674C215.76 76.4144 215.56 75.6593 215.122 75.0424C214.986 74.8604 214.849 74.7424 214.849 74.6934C214.845 74.6094 214.874 74.5273 214.93 74.4647C214.986 74.4022 215.065 74.3643 215.149 74.3594H216.272C216.339 74.3505 216.408 74.3584 216.471 74.3823C216.535 74.4062 216.591 74.4454 216.636 74.4965L223.709 81.9794V76.2725C223.709 75.1945 223.026 75.0724 222.237 74.8724C222.115 74.8414 222.176 74.3555 222.328 74.3555H225.928C226.05 74.3555 226.128 74.8414 226.004 74.8724C225.336 75.0724 224.76 75.1905 224.76 76.2725V82.1724C224.729 83.0666 224.79 83.9617 224.942 84.8434C225.002 85.0714 224.76 85.1315 224.517 85.1315C224.408 85.1315 224.301 85.1059 224.204 85.0567C224.107 85.0075 224.023 84.9362 223.959 84.8484Z" fill="white"/>
<path d="M239.627 84.9858H235.62C235.42 84.9858 235.407 84.4997 235.574 84.4697C236.136 84.3627 236.743 84.1697 236.181 82.8597L236.014 82.4808C235.862 82.1158 235.604 82.0807 235.149 82.0807H232.049C231.593 82.0807 231.335 82.1108 231.184 82.4808L231.032 82.8597C230.501 84.1657 231.078 84.3597 231.806 84.4697C232.006 84.4997 231.958 84.9858 231.76 84.9858H228.482C228.3 84.9858 228.254 84.4997 228.436 84.4697C229.058 84.3627 229.423 84.1507 229.985 82.8597L232.55 76.9708C232.981 76.1887 233.245 75.3253 233.324 74.4357C233.666 74.2619 234.049 74.1835 234.432 74.2087L238.132 82.8447C238.679 84.1357 239.043 84.3777 239.65 84.4697C239.87 84.4997 239.809 84.9858 239.627 84.9858ZM235.392 80.9927L233.616 76.7427L231.825 80.9927C231.734 81.2057 231.962 81.2358 232.174 81.2358H235.043C235.255 81.2358 235.483 81.2067 235.392 80.9927Z" fill="white"/>
<path d="M0.738244 64.1265V64.1055C0.722718 63.5981 0.809237 63.0927 0.992639 62.6193C1.17604 62.1459 1.45259 61.7142 1.80593 61.3496C2.15928 60.9851 2.5822 60.6952 3.04965 60.4971C3.5171 60.2991 4.01957 60.1968 4.52725 60.1965C5.5597 60.1552 6.56772 60.517 7.33822 61.2055L6.78726 61.8526C6.16493 61.272 5.33791 60.9616 4.48727 60.9895C4.0937 60.9998 3.70613 61.0888 3.34744 61.2511C2.98875 61.4134 2.66617 61.6458 2.39865 61.9347C2.13113 62.2236 1.92406 62.563 1.7897 62.9331C1.65533 63.3031 1.59636 63.6963 1.61624 64.0896V64.1115C1.58516 64.5192 1.64004 64.9288 1.77725 65.3139C1.91446 65.699 2.13098 66.0511 2.41281 66.3472C2.69464 66.6434 3.03545 66.8771 3.41329 67.0332C3.79114 67.1893 4.19755 67.2644 4.60623 67.2536C5.39715 67.2506 6.16457 66.9842 6.78726 66.4965V64.6185H4.48727V63.8515H7.60726V66.8635C6.77168 67.6069 5.6926 68.0181 4.57424 68.0195C4.06059 68.0382 3.54868 67.9499 3.07101 67.7601C2.59334 67.5703 2.16034 67.2832 1.79959 66.9171C1.43883 66.551 1.15821 66.1139 0.975488 65.6334C0.792768 65.153 0.711968 64.6399 0.738244 64.1265Z" fill="white"/>
<path d="M10.2295 64.1261V64.1052C10.2281 63.5991 10.3263 63.0977 10.5187 62.6295C10.711 62.1614 10.9937 61.7357 11.3506 61.3768C11.7074 61.0179 12.1315 60.7328 12.5985 60.5378C13.0655 60.3428 13.5664 60.2417 14.0725 60.2403C14.5786 60.2388 15.0801 60.337 15.5482 60.5294C16.0163 60.7217 16.442 61.0044 16.8009 61.3613C17.1598 61.7181 17.4449 62.1422 17.6399 62.6092C17.8349 63.0762 17.936 63.5771 17.9375 64.0832C17.9485 64.0932 17.9485 64.0932 17.9375 64.1052C17.9403 65.1274 17.5369 66.1088 16.8161 66.8335C16.0953 67.5582 15.1162 67.967 14.094 67.9697C13.0719 67.9725 12.0905 67.569 11.3658 66.8482C10.641 66.1274 10.2323 65.1483 10.2295 64.1261ZM17.0525 64.1261V64.1052C17.0686 63.703 17.0036 63.3016 16.8613 62.9249C16.719 62.5483 16.5024 62.2042 16.2243 61.9131C15.9463 61.622 15.6125 61.3898 15.2428 61.2304C14.8731 61.071 14.4751 60.9876 14.0725 60.9852C13.6722 60.9863 13.2763 61.0683 12.9086 61.2263C12.5409 61.3843 12.2089 61.615 11.9326 61.9046C11.6563 62.1942 11.4414 62.5366 11.3008 62.9113C11.1602 63.2861 11.0968 63.6853 11.1145 64.0851V64.1073C11.0985 64.5094 11.1637 64.9107 11.306 65.2872C11.4483 65.6637 11.665 66.0077 11.943 66.2987C12.2211 66.5897 12.5549 66.8219 12.9245 66.9812C13.2941 67.1406 13.692 67.2237 14.0945 67.2261C14.4948 67.225 14.8907 67.1431 15.2584 66.9851C15.6261 66.8271 15.9581 66.5965 16.2344 66.3069C16.5107 66.0173 16.7256 65.6749 16.8662 65.3001C17.0068 64.9254 17.0702 64.5261 17.0525 64.1261Z" fill="white"/>
<path d="M20.7715 60.3269H23.9885C24.7087 60.2852 25.4169 60.5251 25.9635 60.9959C26.121 61.155 26.2452 61.344 26.3287 61.5518C26.4122 61.7596 26.4532 61.982 26.4495 62.2059V62.2269C26.4566 62.6071 26.3448 62.9801 26.1297 63.2937C25.9145 63.6072 25.6068 63.8457 25.2495 63.9759C26.1495 64.2459 26.8685 64.7639 26.8685 65.7999V65.8219C26.8685 67.1219 25.7785 67.8839 24.1265 67.8839H20.7695L20.7715 60.3269ZM23.8475 63.6949C24.8735 63.6949 25.5865 63.2309 25.5865 62.3449V62.3249C25.5865 61.5789 24.9925 61.0929 23.9125 61.0929H21.6125V63.6929L23.8475 63.6949ZM24.1475 67.1179C25.2915 67.1179 26.0045 66.6089 26.0045 65.7679V65.7459C26.0045 64.9259 25.3135 64.4459 23.9955 64.4459H21.6105V67.1129L24.1475 67.1179Z" fill="white"/>
<path d="M29.6699 60.3262H30.5229V67.8832H29.6699V60.3262Z" fill="white"/>
<path d="M33.7647 60.3262H39.2267V61.1042H34.6177V63.6832H38.7387V64.4601H34.6147V67.1052H39.2777V67.8832H33.7617L33.7647 60.3262Z" fill="white"/>
<path d="M42.0273 60.3265H45.2773C46.065 60.2843 46.8373 60.5558 47.4254 61.0816C47.6158 61.2795 47.7654 61.5131 47.8654 61.7689C47.9655 62.0248 48.014 62.2979 48.0084 62.5725V62.5935C48.0068 63.1512 47.7946 63.6878 47.4143 64.0958C47.034 64.5037 46.5136 64.7529 45.9573 64.7935L48.2783 67.8815H47.2313L45.0394 64.9445H42.8804V67.8815H42.0273V60.3265ZM45.2014 64.1806C46.3354 64.1806 47.1443 63.5976 47.1443 62.6256V62.6055C47.1443 61.6775 46.4323 61.1155 45.2123 61.1155H42.8804V64.1815L45.2014 64.1806Z" fill="white"/>
<path d="M50.8623 60.3262H51.6623L56.4233 66.3821V60.3262H57.2543V67.8832H56.5743L51.6943 61.6832V67.8832H50.8633L50.8623 60.3262Z" fill="white"/>
<path d="M60.086 64.1261V64.1052C60.0845 63.5991 60.1827 63.0977 60.3751 62.6295C60.5674 62.1614 60.8501 61.7357 61.207 61.3768C61.5638 61.0179 61.9879 60.7328 62.4549 60.5378C62.9219 60.3428 63.4228 60.2417 63.9289 60.2403C64.435 60.2388 64.9365 60.337 65.4046 60.5294C65.8728 60.7217 66.2985 61.0044 66.6574 61.3613C67.0163 61.7181 67.3013 62.1422 67.4964 62.6092C67.6914 63.0762 67.7925 63.5771 67.794 64.0832C67.805 64.0932 67.805 64.0932 67.794 64.1052C67.7953 64.6114 67.697 65.1128 67.5046 65.5809C67.3122 66.049 67.0295 66.4747 66.6726 66.8335C66.3157 67.1924 65.8916 67.4774 65.4245 67.6724C64.9575 67.8673 64.4566 67.9684 63.9505 67.9697C63.4443 67.9711 62.9429 67.8727 62.4747 67.6803C62.0066 67.4879 61.581 67.2051 61.2222 66.8482C60.8633 66.4913 60.5783 66.0674 60.3833 65.6003C60.1884 65.1332 60.0873 64.6323 60.086 64.1261ZM66.909 64.1261V64.1052C66.9251 63.7031 66.8601 63.3017 66.7179 62.9252C66.5756 62.5486 66.3591 62.2046 66.0811 61.9135C65.8032 61.6224 65.4694 61.3901 65.0999 61.2307C64.7303 61.0712 64.3324 60.9877 63.9299 60.9852C63.5297 60.9863 63.1338 61.0683 62.7661 61.2263C62.3983 61.3843 62.0663 61.615 61.79 61.9046C61.5137 62.1942 61.2988 62.5366 61.1582 62.9113C61.0176 63.2861 60.9543 63.6853 60.9719 64.0851V64.1073C60.956 64.5094 61.0211 64.9106 61.1633 65.287C61.3056 65.6634 61.5222 66.0073 61.8001 66.2984C62.0781 66.5894 62.4117 66.8215 62.7812 66.9809C63.1507 67.1403 63.5485 67.2236 63.9509 67.2261C64.3512 67.225 64.7471 67.1431 65.1148 66.9851C65.4826 66.8271 65.8145 66.5965 66.0908 66.3069C66.3671 66.0173 66.582 65.6749 66.7226 65.3001C66.8632 64.9254 66.9266 64.5261 66.909 64.1261Z" fill="white"/>
<path d="M74.8955 60.3266H77.5185C78.0329 60.2925 78.5488 60.3644 79.0343 60.5377C79.5198 60.7111 79.9645 60.9823 80.341 61.3345C80.7174 61.6867 81.0176 62.1123 81.2229 62.5852C81.4282 63.0581 81.5343 63.5681 81.5345 64.0836V64.1056C81.5348 64.6222 81.4293 65.1334 81.2244 65.6077C81.0196 66.0819 80.7199 66.5092 80.3436 66.8632C79.9673 67.2171 79.5225 67.4903 79.0366 67.6658C78.5508 67.8413 78.0341 67.9154 77.5185 67.8836H74.8955V60.3266ZM77.5185 67.0956C77.9232 67.1241 78.3295 67.0681 78.7114 66.9311C79.0933 66.7941 79.4425 66.5792 79.7369 66.3C80.0313 66.0208 80.2643 65.6833 80.4213 65.3091C80.5782 64.935 80.6556 64.5323 80.6485 64.1266V64.1056C80.6562 63.6988 80.5795 63.2947 80.4231 62.9191C80.2667 62.5434 80.0341 62.2043 79.7399 61.9232C79.4457 61.6421 79.0964 61.4251 78.714 61.2859C78.3316 61.1467 77.9246 61.0883 77.5185 61.1146H75.7475V67.0956H77.5185Z" fill="white"/>
<path d="M84.3672 60.3262H89.8302V61.1042H85.2202V63.6832H89.3442V64.4601H85.2202V67.1052H89.8842V67.8832H84.3672V60.3262Z" fill="white"/>
<path d="M96.8965 60.3262H97.7495V67.0952H102.004V67.8832H96.8965V60.3262Z" fill="white"/>
<path d="M107.405 60.2725H108.205L111.649 67.8835H110.731L109.847 65.8835H105.733L104.833 67.8835H103.959L107.405 60.2725ZM109.505 65.1194L107.789 61.2665L106.062 65.1194H109.505Z" fill="white"/>
<path d="M28.2369 8.71191H27.2329C27.0617 8.71191 26.9229 8.85071 26.9229 9.02191V14.3889C26.9229 14.5601 27.0617 14.6989 27.2329 14.6989H28.2369C28.4081 14.6989 28.5469 14.5601 28.5469 14.3889V9.02191C28.5469 8.85071 28.4081 8.71191 28.2369 8.71191Z" fill="white"/>
<path d="M30.8492 8.71191H29.8452C29.674 8.71191 29.5352 8.85071 29.5352 9.02191V14.3889C29.5352 14.5601 29.674 14.6989 29.8452 14.6989H30.8492C31.0204 14.6989 31.1592 14.5601 31.1592 14.3889V9.02191C31.1592 8.85071 31.0204 8.71191 30.8492 8.71191Z" fill="white"/>
<path d="M25.6099 8.71191H24.6059C24.4347 8.71191 24.2959 8.85071 24.2959 9.02191V14.3889C24.2959 14.5601 24.4347 14.6989 24.6059 14.6989H25.6099C25.7811 14.6989 25.9199 14.5601 25.9199 14.3889V9.02191C25.9199 8.85071 25.7811 8.71191 25.6099 8.71191Z" fill="white"/>
<path d="M32.8857 7.53418H22.5607C22.4657 7.53418 22.3887 7.61119 22.3887 7.70618V8.10218C22.3887 8.19717 22.4657 8.27418 22.5607 8.27418H32.8857C32.9807 8.27418 33.0577 8.19717 33.0577 8.10218V7.70618C33.0577 7.61119 32.9807 7.53418 32.8857 7.53418Z" fill="white"/>
<path d="M37.5715 17.8169C37.9085 18.0659 38.2945 18.3629 38.7205 18.7169C39.6256 19.477 40.4822 20.2929 41.2855 21.1599C43.3841 23.4369 45.1194 26.0236 46.4305 28.8289C47.0699 30.127 47.6185 31.4679 48.0724 32.8419C48.5624 34.2181 48.957 35.6265 49.2535 37.0569C49.7535 39.5469 50.0035 42.3389 50.0035 42.3389H53.8254L53.8185 42.2769L53.9675 42.3329V42.3059C53.7648 36.8022 51.9742 31.4747 48.8118 26.9657C45.6494 22.4567 41.2501 18.9589 36.1445 16.8939L36.1055 16.8779C36.3955 17.0352 36.6773 17.2074 36.9495 17.3939C37.1385 17.5169 37.3505 17.6639 37.5715 17.8169Z" fill="white"/>
<path d="M47.4233 42.2603C47.3983 41.9743 47.3564 41.6953 47.3234 41.4113C47.0601 38.1861 46.3239 35.0172 45.1384 32.0063C44.7615 31.0669 44.3273 30.1515 43.8383 29.2653C43.7003 29.0183 43.5553 28.7843 43.4133 28.5463C41.024 23.8168 37.1272 20.0182 32.3383 17.7503L32.3203 17.7393L32.3524 17.7812C33.2717 18.7076 34.0908 19.7283 34.7963 20.8263C37.8602 25.6567 39.726 31.1491 40.2383 36.8463C40.401 38.2507 40.4815 39.6634 40.4794 41.0773C40.4924 41.4533 40.5064 42.0663 40.5114 42.2773L40.4963 42.3542H41.2913L47.4003 42.3362V42.3312H47.4333L47.4233 42.2603Z" fill="white"/>
<path d="M31.7298 6.98999C31.7423 5.92585 31.3388 4.89886 30.6053 4.12781C29.8717 3.35676 28.8662 2.90259 27.8028 2.862V2.18698H28.8878V2.06998V1.66998C28.8875 1.66034 28.8835 1.65119 28.8766 1.64447C28.8696 1.63775 28.8604 1.634 28.8507 1.634H28.6898C28.6801 1.634 28.6709 1.63775 28.664 1.64447C28.6571 1.65119 28.653 1.66034 28.6527 1.66998V2.064H27.7998V0.51999H27.8228C27.835 0.51999 27.8467 0.51513 27.8553 0.5065C27.8639 0.497874 27.8687 0.486199 27.8687 0.473999V0.046997C27.8687 0.034703 27.864 0.022885 27.8554 0.014099C27.8468 0.005313 27.8351 0.000262001 27.8228 6.25537e-10H27.6378C27.6317 -9.99374e-07 27.6255 0.00119697 27.6199 0.00357097C27.6143 0.00594497 27.6092 0.00944599 27.6049 0.013824C27.6006 0.018202 27.5973 0.023386 27.595 0.029083C27.5927 0.03478 27.5916 0.040873 27.5918 0.046997V0.473999C27.5916 0.480077 27.5927 0.486118 27.595 0.49176C27.5973 0.497403 27.6006 0.50251 27.6049 0.50681C27.6092 0.5111 27.6144 0.51449 27.62 0.51675C27.6257 0.51902 27.6317 0.52013 27.6378 0.51999H27.6648V2.064H26.8007V1.66998C26.8005 1.66034 26.7965 1.65119 26.7896 1.64447C26.7827 1.63775 26.7734 1.634 26.7638 1.634H26.6028C26.5979 1.63387 26.5931 1.63469 26.5887 1.63644C26.5842 1.63819 26.5801 1.64081 26.5766 1.64417C26.5732 1.64752 26.5704 1.65154 26.5686 1.65598C26.5667 1.66041 26.5658 1.66517 26.5658 1.66998V2.06998V2.18799H27.6657V2.86398C26.5998 2.90461 25.592 3.36072 24.8579 4.13477C24.1239 4.90881 23.7218 5.93934 23.7378 7.00598V7.02499H31.7278L31.7298 6.98999Z" fill="white"/>
<path d="M32.8857 15.3301H22.5607C22.4657 15.3301 22.3887 15.4071 22.3887 15.5021V15.8981C22.3887 15.9931 22.4657 16.0701 22.5607 16.0701H32.8857C32.9807 16.0701 33.0577 15.9931 33.0577 15.8981V15.5021C33.0577 15.4071 32.9807 15.3301 32.8857 15.3301Z" fill="white"/>
<path d="M29.1949 18.3176L29.085 18.2236V42.3336L37.929 42.3646C37.929 42.3646 37.929 42.1146 37.929 41.9896C37.929 31.7056 34.3869 22.7856 29.1949 18.3176Z" fill="white"/>
<path d="M49.813 46.0293H47.476C47.3048 46.0293 47.166 46.1681 47.166 46.3393V48.6743C47.166 48.8455 47.3048 48.9843 47.476 48.9843H49.813C49.9842 48.9843 50.123 48.8455 50.123 48.6743V46.3393C50.123 46.1681 49.9842 46.0293 49.813 46.0293Z" fill="white"/>
<path d="M17.4566 46.0264H15.1186C14.9474 46.0264 14.8086 46.1652 14.8086 46.3364V48.6744C14.8086 48.8456 14.9474 48.9844 15.1186 48.9844H17.4566C17.6278 48.9844 17.7666 48.8456 17.7666 48.6744V46.3364C17.7666 46.1652 17.6278 46.0264 17.4566 46.0264Z" fill="white"/>
<path d="M40.3657 46.0293H38.0288C37.8575 46.0293 37.7188 46.1681 37.7188 46.3393V48.6743C37.7188 48.8455 37.8575 48.9843 38.0288 48.9843H40.3657C40.5369 48.9843 40.6758 48.8455 40.6758 48.6743V46.3393C40.6758 46.1681 40.5369 46.0293 40.3657 46.0293Z" fill="white"/>
<path d="M28.9107 46.0264H26.5727C26.4015 46.0264 26.2627 46.1652 26.2627 46.3364V48.6744C26.2627 48.8456 26.4015 48.9844 26.5727 48.9844H28.9107C29.0819 48.9844 29.2207 48.8456 29.2207 48.6744V46.3364C29.2207 46.1652 29.0819 46.0264 28.9107 46.0264Z" fill="white"/>
<path d="M55.3259 44.3061H55.1919H50.1269V43.4261C50.1269 43.3574 50.0996 43.2915 50.051 43.2429C50.0024 43.1943 49.9366 43.1671 49.8679 43.1671H47.4299C47.3612 43.1671 47.2953 43.1943 47.2467 43.2429C47.1982 43.2915 47.1709 43.3574 47.1709 43.4261V44.3061H40.6809V43.4261C40.6809 43.392 40.6742 43.3582 40.6611 43.3267C40.648 43.2952 40.6288 43.2666 40.6046 43.2426C40.5805 43.2185 40.5518 43.1995 40.5203 43.1865C40.4887 43.1736 40.455 43.1669 40.4209 43.1671H37.9829C37.9142 43.1671 37.8483 43.1943 37.7998 43.2429C37.7512 43.2915 37.7239 43.3574 37.7239 43.4261V44.3061H29.2239V43.4211C29.2239 43.3524 29.1966 43.2865 29.148 43.2379C29.0995 43.1893 29.0336 43.1621 28.9649 43.1621H26.5259C26.4572 43.1621 26.3913 43.1893 26.3427 43.2379C26.2942 43.2865 26.2669 43.3524 26.2669 43.4211V44.3061H17.7669V43.4211C17.7669 43.3524 17.7396 43.2865 17.691 43.2379C17.6424 43.1893 17.5766 43.1621 17.5079 43.1621H15.0689C15.0002 43.1621 14.9343 43.1893 14.8858 43.2379C14.8372 43.2865 14.8099 43.3524 14.8099 43.4211V44.3061H8.31787V43.4211C8.31787 43.387 8.31112 43.3532 8.29804 43.3217C8.28496 43.2902 8.2658 43.2617 8.24164 43.2376C8.21748 43.2135 8.18883 43.1945 8.15729 43.1815C8.12575 43.1686 8.09196 43.162 8.05786 43.1621H5.61988C5.55109 43.1621 5.48507 43.1893 5.43634 43.2379C5.38761 43.2864 5.36013 43.3523 5.35987 43.4211V44.3061H0.317871H0.177857C0.155269 44.3061 0.132929 44.3105 0.112061 44.3192C0.0911925 44.3278 0.072185 44.3405 0.0562133 44.3564C0.0402417 44.3724 0.0275647 44.3914 0.0189209 44.4122C0.0102771 44.4331 0.00585938 44.4555 0.00585938 44.4781V44.9421C0.00585938 44.9877 0.0239571 45.0315 0.0562133 45.0637C0.0884696 45.096 0.132239 45.1141 0.177857 45.1141H55.3319C55.3776 45.1141 55.4215 45.096 55.4539 45.0638C55.4863 45.0316 55.5046 44.9878 55.5049 44.9421V44.4781C55.5048 44.4549 55.5 44.432 55.4909 44.4108C55.4817 44.3895 55.4684 44.3703 55.4517 44.3542C55.4351 44.3382 55.4153 44.3257 55.3937 44.3174C55.3721 44.3091 55.349 44.3053 55.3259 44.3061Z" fill="white"/>
<path d="M8.00737 46.0264H5.66938C5.49817 46.0264 5.35938 46.1652 5.35938 46.3364V48.6744C5.35938 48.8456 5.49817 48.9844 5.66938 48.9844H8.00737C8.17857 48.9844 8.31737 48.8456 8.31737 48.6744V46.3364C8.31737 46.1652 8.17857 46.0264 8.00737 46.0264Z" fill="white"/>
<path d="M26.4162 42.3475V18.2305L26.3062 18.3235C21.1142 22.7925 17.5732 31.7234 17.5732 42.0024C17.5732 42.1284 17.5732 42.3774 17.5732 42.3774L26.4162 42.3475Z" fill="white"/>
<path d="M1.67512 42.349H3.11012L4.4571 42.354V42.349H5.4961C5.4961 42.349 5.7481 39.556 6.2461 37.064C6.86718 34.2213 7.81413 31.4597 9.06812 28.834C10.3791 26.0281 12.1148 23.4411 14.2141 21.164C15.0167 20.2964 15.873 19.4801 16.7781 18.72C17.2031 18.369 17.5891 18.073 17.9261 17.82C18.1481 17.666 18.3621 17.52 18.5501 17.39C18.8223 17.2035 19.104 17.0313 19.3941 16.874L19.3551 16.89C14.2492 18.9575 9.85049 22.4577 6.68916 26.9688C3.52782 31.4799 1.73889 36.8092 1.53809 42.314V42.343H1.68012L1.67512 42.349Z" fill="white"/>
<path d="M20.7034 20.837C21.4082 19.7385 22.2271 18.7175 23.1464 17.791L23.1783 17.748L23.1613 17.7591C18.3713 20.0279 14.4738 23.828 12.0844 28.5591C11.9424 28.7971 11.7974 29.031 11.6594 29.278C11.1725 30.1646 10.74 31.08 10.3643 32.019C9.17607 35.0312 8.43784 38.2018 8.17334 41.429C8.14134 41.713 8.09936 41.993 8.07336 42.279L8.06836 42.3451H8.10034L14.0184 42.3631H15.0034L14.9883 42.2851C14.9933 42.0781 15.0073 41.4641 15.0203 41.0851C15.019 39.6709 15.0995 38.2579 15.2614 36.8531C15.7743 31.1573 17.6401 25.6663 20.7034 20.837Z" fill="white"/>
<path d="M55.188 49.6797H0.31C0.138792 49.6797 0 49.8185 0 49.9897V51.2867C0 51.4579 0.138792 51.5967 0.31 51.5967H55.188C55.3592 51.5967 55.498 51.4579 55.498 51.2867V49.9897C55.498 49.8185 55.3592 49.6797 55.188 49.6797Z" fill="white"/>
<path d="M55.2381 97.3164H0.0380859V94.3164H55.2381" fill="white"/>
</svg>
