<svg width="762" height="429" viewBox="0 0 762 429" fill="none" xmlns="http://www.w3.org/2000/svg">
<g clip-path="url(#clip0_3077_18825)">
<path d="M604.355 112.62H496.234V19.9446C502.326 13.8428 505.741 10.4221 511.832 4.32031H604.355V112.62Z" fill="#163F79"/>
<path d="M549.727 98.8571C532.415 98.1968 518.966 83.4046 518.966 66.037V57.2937C518.966 54.2032 521.458 51.707 524.543 51.707H577.391C580.476 51.707 582.968 54.2032 582.968 57.2937V66.8162C582.968 84.897 567.937 99.5307 549.727 98.8439V98.8571ZM530.108 62.8804V66.2219C530.108 77.4481 538.704 87.129 549.899 87.6838C561.871 88.2781 571.8 78.6896 571.8 66.8294V62.8804H530.108Z" fill="white"/>
<path d="M547.499 42.0931H527.141C523.541 42.0931 520.337 39.4649 519.994 35.8725C519.599 31.765 522.816 28.3047 526.851 28.3047H547.209C550.809 28.3047 554.013 30.9329 554.356 34.5253C554.751 38.6328 551.534 42.0931 547.499 42.0931Z" fill="white"/>
<path d="M570.732 42.9507C575.006 42.9507 578.472 39.4797 578.472 35.198C578.472 30.9163 575.006 27.4453 570.732 27.4453C566.457 27.4453 562.992 30.9163 562.992 35.198C562.992 39.4797 566.457 42.9507 570.732 42.9507Z" fill="#68ABDE"/>
<path d="M134.188 193.501H68.8677V143.697L84.4661 128.072H134.188V193.501Z" fill="#E30238"/>
<path d="M101.172 185.182C90.716 184.786 82.5806 175.844 82.5806 165.358V160.075C82.5806 158.213 84.0837 156.707 85.9429 156.707H117.865C119.724 156.707 121.227 158.213 121.227 160.075V165.833C121.227 176.756 112.142 185.605 101.146 185.182H101.172ZM89.3183 163.456V165.477C89.3183 172.265 94.5134 178.103 101.278 178.446C108.503 178.803 114.503 173.018 114.503 165.846V163.469H89.3183V163.456Z" fill="white"/>
<path d="M99.8272 150.895H87.5252C85.3496 150.895 83.4113 149.31 83.2135 147.144C82.9762 144.661 84.9145 142.574 87.3538 142.574H99.6558C101.831 142.574 103.77 144.159 103.967 146.325C104.205 148.808 102.267 150.895 99.8272 150.895Z" fill="white"/>
<path d="M113.87 151.41C116.455 151.41 118.55 149.311 118.55 146.722C118.55 144.132 116.455 142.033 113.87 142.033C111.284 142.033 109.189 144.132 109.189 146.722C109.189 149.311 111.284 151.41 113.87 151.41Z" fill="white"/>
<path d="M0.395752 395.4H202.515V399.957C202.515 402.321 200.604 404.236 198.243 404.236H4.66784C2.30764 404.236 0.395752 402.321 0.395752 399.957V395.4Z" fill="#163F79"/>
<path d="M199.061 399.205H3.85034C1.93845 399.205 0.395752 397.647 0.395752 395.745C0.395752 395.362 0.461679 394.992 0.580348 394.635L18.117 342.783C19.6729 338.174 23.9977 335.07 28.8631 335.07H174.048C178.913 335.07 183.238 338.174 184.794 342.783L202.331 394.635C202.951 396.445 201.975 398.413 200.168 399.02C199.812 399.139 199.443 399.205 199.061 399.205Z" fill="white"/>
<path d="M199.061 399.615H3.85023C1.71418 399.615 -0.0131105 397.871 7.49898e-05 395.732C7.49898e-05 395.309 0.0660022 394.9 0.197857 394.504L17.7345 342.652C19.3431 337.871 23.8262 334.648 28.863 334.635H174.048C179.085 334.635 183.568 337.857 185.176 342.652L202.753 394.504C203.438 396.524 202.344 398.73 200.327 399.403C199.931 399.536 199.522 399.602 199.1 399.602H199.061V399.615ZM28.863 335.467C24.1558 335.467 19.9892 338.491 18.4993 342.955L0.962613 394.768C0.422009 396.366 1.27906 398.096 2.8745 398.637C3.19095 398.743 3.52059 398.796 3.85023 398.796H199.061C200.748 398.796 202.107 397.436 202.107 395.745C202.107 395.415 202.054 395.085 201.948 394.768L184.412 342.955C182.909 338.505 178.742 335.506 174.048 335.506L28.863 335.467Z" fill="#163F79"/>
<path d="M179.23 368.763H24.1559C22.5868 368.763 21.3079 367.495 21.3079 365.923C21.3079 365.646 21.3474 365.369 21.4265 365.104L27.6501 344.065C28.0588 342.731 29.2719 341.82 30.6563 341.807H171.938C173.494 341.807 174.866 342.837 175.314 344.329L181.59 365.527C181.999 366.861 181.247 368.261 179.916 368.67C179.678 368.736 179.428 368.776 179.19 368.776H179.23V368.763ZM30.6563 342.678C29.6542 342.678 28.784 343.339 28.4939 344.303L22.2704 365.355C21.9671 366.385 22.5473 367.482 23.5889 367.799C23.7735 367.851 23.9581 367.878 24.1559 367.878H179.23C180.127 367.878 180.852 367.151 180.852 366.253C180.852 366.095 180.825 365.936 180.786 365.778L174.51 344.58C174.167 343.471 173.151 342.705 171.991 342.692H30.6563V342.678Z" fill="#6DB0E2"/>
<path d="M128.334 392.205H74.5769C73.6539 392.205 72.7969 391.796 72.2167 391.069C71.6366 390.356 71.4124 389.418 71.6102 388.52L74.1814 376.819C74.6824 374.719 76.5416 373.226 78.704 373.213H124.194C126.356 373.226 128.229 374.732 128.716 376.858L131.288 388.56C131.485 389.458 131.261 390.396 130.681 391.109C130.101 391.809 129.231 392.218 128.321 392.205H128.334ZM78.704 374.111C76.9503 374.111 75.434 375.339 75.0516 377.056L72.4804 388.758C72.2299 389.907 72.9551 391.056 74.1022 391.307C74.2605 391.347 74.4187 391.36 74.5769 391.36H128.334C129.507 391.36 130.47 390.409 130.47 389.233C130.47 389.075 130.457 388.916 130.417 388.758L127.846 377.056C127.464 375.339 125.947 374.124 124.194 374.111H78.704Z" fill="#6DB0E2"/>
<path d="M176.395 223.23H26.3841C23.1873 223.23 20.5957 225.826 20.5957 229.028V329.272C20.5957 332.474 23.1873 335.07 26.3841 335.07H176.395C179.592 335.07 182.183 332.474 182.183 329.272V229.028C182.183 225.826 179.592 223.23 176.395 223.23Z" fill="#163F79"/>
<path d="M176.395 335.519H26.3842C22.9428 335.519 20.1606 332.733 20.1606 329.286V229.029C20.1606 225.582 22.9428 222.795 26.3842 222.795H176.395C179.836 222.795 182.619 225.582 182.619 229.029V329.272C182.619 332.719 179.85 335.506 176.421 335.519C176.421 335.519 176.421 335.519 176.408 335.519H176.395ZM26.3842 223.693C23.4438 223.693 21.0573 226.084 21.0573 229.029V329.272C21.0573 332.218 23.4438 334.608 26.3842 334.608H176.395C179.335 334.608 181.722 332.218 181.722 329.272V229.029C181.722 226.084 179.335 223.693 176.395 223.693H26.3842Z" fill="#163F79"/>
<path d="M173.547 230.943H28.8894V327.198H173.547V230.943Z" fill="#6DB0E2"/>
<path d="M236.006 138.163H126.396V54.0456L141.374 38.7383H236.006V138.163Z" fill="white"/>
<path d="M236.006 138.771H126.396C126.066 138.771 125.789 138.494 125.789 138.164V54.0461C125.789 53.8876 125.855 53.7424 125.96 53.6235L140.939 38.3294C141.058 38.2106 141.216 38.1445 141.374 38.1445H236.006C236.336 38.1445 236.613 38.4219 236.613 38.7521V138.177C236.613 138.507 236.349 138.771 236.019 138.771C236.019 138.771 236.019 138.771 236.006 138.771ZM127.002 137.556H235.347V39.3464H141.638L127.002 54.2971V137.556Z" fill="#6DB0E2"/>
<path d="M226.566 63.5022H136.206C135.876 63.5022 135.599 63.2248 135.599 62.8946C135.599 62.5645 135.876 62.2871 136.206 62.2871H226.566C226.895 62.2871 227.172 62.5645 227.172 62.8946C227.172 63.2248 226.895 63.5022 226.566 63.5022Z" fill="#6DB0E2"/>
<path d="M226.566 77.9495H136.206C135.876 77.9495 135.599 77.6721 135.599 77.3419C135.599 77.0117 135.876 76.7344 136.206 76.7344H226.566C226.895 76.7344 227.172 77.0117 227.172 77.3419C227.172 77.6721 226.895 77.9495 226.566 77.9495Z" fill="#6DB0E2"/>
<path d="M226.566 92.2932H136.206C135.876 92.2932 135.599 92.0158 135.599 91.6857C135.599 91.3555 135.876 91.0781 136.206 91.0781H226.566C226.895 91.0781 227.172 91.3555 227.172 91.6857C227.172 92.0158 226.895 92.2932 226.566 92.2932Z" fill="#6DB0E2"/>
<path d="M226.566 106.69H136.206C135.876 106.69 135.599 106.412 135.599 106.082C135.599 105.752 135.85 105.488 136.179 105.475C136.179 105.475 136.192 105.475 136.206 105.475H226.566C226.895 105.475 227.172 105.739 227.185 106.069C227.185 106.069 227.185 106.069 227.185 106.082C227.185 106.426 226.908 106.69 226.566 106.69Z" fill="#6DB0E2"/>
<path d="M226.566 121.086H136.206C135.876 121.086 135.599 120.809 135.599 120.479C135.599 120.148 135.85 119.884 136.179 119.871C136.179 119.871 136.192 119.871 136.206 119.871H226.566C226.895 119.871 227.172 120.135 227.185 120.465C227.185 120.465 227.185 120.465 227.185 120.479C227.185 120.822 226.908 121.086 226.566 121.086Z" fill="#6DB0E2"/>
<path d="M141.322 54.4809H126.58C126.237 54.428 126.013 54.1111 126.053 53.7809C126.092 53.5035 126.303 53.2922 126.58 53.2526H140.715L140.952 38.5529C140.979 38.2227 141.242 37.9585 141.572 37.9453C141.902 37.9585 142.165 38.2359 142.165 38.5661L141.928 53.8733C141.928 54.2035 141.651 54.4677 141.322 54.4809Z" fill="#6DB0E2"/>
<path d="M359.62 60.1344C359.62 60.1344 387.995 63.1324 395.484 75.4417C402.973 87.7509 456.625 155.544 456.625 155.544L315.541 154.646C315.541 154.646 308.21 77.7001 318.178 61.3098C318.27 61.3098 320.222 55.8156 359.62 60.1344Z" fill="#E30238"/>
<path d="M341.239 78.0419C344.839 82.7173 350.284 85.5701 356.165 85.8738C356.93 85.9134 357.681 85.821 358.407 85.5833C359.396 85.1474 360.226 84.4474 360.82 83.5493C363.457 79.9041 363.575 75.0174 362.903 70.5798C362.441 67.4496 361.584 64.1874 359.171 62.1007C356.402 59.6441 352.381 59.4592 348.623 59.3007C344.865 59.1422 336.374 58.1385 334.976 62.695C333.75 66.8817 338.8 75.0042 341.239 78.0419Z" fill="#163F79"/>
<path d="M356.389 86.4685H356.152C350.113 86.1515 344.509 83.2063 340.83 78.3988C338.193 75.1234 333.17 66.9217 334.515 62.5501C335.86 58.1784 342.967 58.4558 347.212 58.6803H348.742C352.842 58.7992 356.772 59.1162 359.593 61.6255C362.415 64.1349 363.127 67.8066 363.549 70.448C364.406 76.1668 363.668 80.6705 361.36 83.8403C360.714 84.8308 359.804 85.61 358.723 86.0855C357.972 86.3496 357.18 86.4817 356.389 86.4685ZM341.688 77.6724C345.169 82.229 350.469 85.0157 356.192 85.3063C356.877 85.3459 357.576 85.2534 358.235 85.0421C359.119 84.6591 359.857 84.0252 360.385 83.2195C362.507 80.3007 363.167 76.0743 362.362 70.6726C361.993 68.2028 361.215 64.6764 358.815 62.5501C356.416 60.4237 352.579 60.0143 348.689 59.9086H347.133C343.178 59.7105 336.703 59.3803 335.609 62.9595C334.409 66.9217 339.301 74.7536 341.714 77.7517L341.688 77.6724Z" fill="#163F79"/>
<path d="M364.775 31.3828C365.158 30.1281 365.791 28.9526 366.634 27.9489C367.531 26.9451 368.955 26.6017 370.208 27.1036C371.078 27.6055 371.645 28.53 371.698 29.5337C371.75 30.5243 371.592 31.5148 371.223 32.4393C370.656 34.1959 369.694 35.7808 368.388 37.0883C367.07 38.409 365.276 39.109 363.417 39.043" fill="white"/>
<path d="M363.799 39.6504H363.378C363.087 39.624 362.876 39.3731 362.903 39.0825C362.903 38.8183 363.114 38.5938 363.391 38.5938C363.417 38.5938 363.443 38.5938 363.457 38.5938C365.158 38.6467 366.819 37.9995 368.032 36.7976C369.245 35.5429 370.155 34.0109 370.669 32.3468C370.999 31.5015 371.157 30.6034 371.131 29.7053C371.091 28.8732 370.63 28.1204 369.917 27.6846C368.876 27.2884 367.689 27.5789 366.964 28.4374C366.16 29.3883 365.566 30.4977 365.223 31.6864C365.118 31.9638 364.815 32.0958 364.551 32.0034C364.287 31.9109 364.142 31.5939 364.235 31.3298C364.63 29.9959 365.303 28.7676 366.212 27.711C367.267 26.5355 368.942 26.1657 370.392 26.7601C371.421 27.3544 372.08 28.411 372.172 29.5996C372.238 30.6694 372.054 31.7392 371.658 32.743C371.078 34.5788 370.063 36.2429 368.704 37.6033C367.386 38.8844 365.632 39.6108 363.799 39.6636V39.6504Z" fill="#163F79"/>
<path d="M357.866 48.8928L359.422 64.4642C359.422 64.4642 358.67 73.3131 348.953 71.5565C343.151 70.4471 338.154 66.7755 335.345 61.5718C335.345 61.5718 335.714 33.6515 335.701 33.6383C335.701 32.5025 338.009 28.5931 336.901 18.7273C343.639 18.0273 349.757 14.5274 353.792 9.08594C353.792 9.08594 358.301 14.6594 360.2 16.3764C361.69 17.6707 363.021 19.1367 364.155 20.748C367.148 25.2781 367.043 32.6346 366.318 37.9175C365.751 42.1703 363.246 48.9852 357.866 48.8928Z" fill="white"/>
<path d="M351.379 72.3762C350.535 72.3762 349.678 72.2969 348.847 72.1385C342.835 71.029 337.666 67.2253 334.805 61.8103C334.765 61.7311 334.739 61.6386 334.739 61.5462C334.739 61.5462 335.108 33.8108 335.108 33.6259C335.134 33.1108 335.24 32.5958 335.424 32.1203C336.664 27.7883 336.967 23.2318 336.295 18.7809C336.295 18.6224 336.334 18.4639 336.427 18.3319C336.532 18.213 336.677 18.1338 336.835 18.1073C343.375 17.4074 349.335 14.0131 353.291 8.74336C353.488 8.47921 353.871 8.41317 354.135 8.61128C354.187 8.65091 354.227 8.69053 354.266 8.74336C354.266 8.74336 358.763 14.2904 360.595 15.9678C362.138 17.2753 363.523 18.7809 364.696 20.4318C368.203 25.7148 367.439 34.4712 366.951 37.9711C366.357 42.1447 363.931 49.0785 358.525 49.5011L360.015 64.4254C359.765 66.8952 358.552 69.1536 356.653 70.7385C355.123 71.8611 353.264 72.429 351.379 72.3762ZM335.952 61.4141C338.694 66.3801 343.494 69.8668 349.058 70.9498C351.405 71.5573 353.91 71.1347 355.928 69.7876C357.536 68.414 358.565 66.4989 358.815 64.399L357.26 48.8936C357.26 48.7219 357.312 48.5502 357.418 48.4181C357.536 48.2993 357.708 48.2332 357.879 48.2332C362.89 48.3785 365.197 41.6296 365.791 37.6674C366.265 34.2995 367.017 25.9393 363.72 20.9601C362.586 19.3752 361.255 17.9489 359.765 16.7074C357.668 14.5546 355.677 12.3093 353.805 9.95843C349.783 15.03 343.942 18.3187 337.534 19.1243C338.127 23.5488 337.798 28.0392 336.558 32.3316C336.427 32.7014 336.334 33.0844 336.281 33.4674C336.281 33.4674 336.308 33.6259 335.952 61.4141Z" fill="#163F79"/>
<path d="M358.393 54.0053C355.849 54.4544 353.212 54.1903 350.812 53.2129C345.274 51.2714 344.958 47.4941 344.958 47.4941C344.958 47.4941 349.612 50.4262 357.866 48.8149L358.393 54.0053Z" fill="#163F79"/>
<path d="M356.139 54.7832C354.253 54.7568 352.394 54.4134 350.627 53.7663C344.786 51.7192 344.391 47.7041 344.377 47.5721C344.377 47.3607 344.47 47.1494 344.654 47.0306C344.839 46.9117 345.089 46.9117 345.274 47.0306C345.274 47.0306 349.863 49.8173 357.761 48.3513C357.919 48.3249 358.077 48.3513 358.209 48.4569C358.341 48.5494 358.433 48.7079 358.446 48.8664L358.961 53.8851C359.013 54.0965 358.947 54.3342 358.776 54.4795C358.657 54.5719 358.512 54.6248 358.367 54.6248C357.629 54.7436 356.89 54.7965 356.139 54.7832ZM345.894 48.589C346.962 50.5965 348.821 52.0758 351.01 52.6701C353.159 53.4889 355.48 53.7795 357.761 53.5021L357.352 49.5399C353.515 50.2928 349.546 49.9626 345.894 48.589Z" fill="#163F79"/>
<path d="M349.849 27.0898C349.849 27.0898 355.598 34.0633 354.543 35.4765C353.489 36.8897 350.074 36.3746 350.074 36.3746" fill="white"/>
<path d="M351.484 37.0087C350.983 37.0087 350.482 36.9691 349.981 36.903C349.665 36.837 349.454 36.5464 349.493 36.2295C349.546 35.9125 349.849 35.688 350.166 35.7408C350.957 35.8597 353.383 36.0049 354.121 35.0804C354.451 34.4333 352.275 30.8409 349.44 27.407C349.243 27.156 349.269 26.7862 349.52 26.5881C349.77 26.39 350.139 26.4164 350.337 26.6674C352.592 29.4013 356.205 34.222 355.044 35.7804C354.095 36.7049 352.79 37.154 351.484 37.0087Z" fill="#163F79"/>
<path d="M358.757 29.0401C359.227 28.9772 359.511 28.2053 359.392 27.3161C359.273 26.4268 358.796 25.7569 358.327 25.8198C357.858 25.8826 357.574 26.6545 357.693 27.5437C357.812 28.433 358.288 29.1029 358.757 29.0401Z" fill="#163F79"/>
<path d="M344.939 28.6723C345.412 28.6668 345.788 27.935 345.777 27.0379C345.767 26.1408 345.374 25.418 344.901 25.4236C344.428 25.4291 344.053 26.1609 344.063 27.058C344.074 27.9551 344.466 28.6779 344.939 28.6723Z" fill="#163F79"/>
<path d="M338.892 29.4539C338.549 28.1199 337.956 26.8652 337.152 25.7426C336.216 24.4483 334.713 23.6823 333.117 23.6955C332.141 23.7351 331.232 24.2238 330.651 25.0162C330.309 25.5841 330.084 26.2181 330.019 26.8784C329.517 30.3388 330.665 34.8028 333.974 36.6386C335.095 37.3386 336.519 37.3386 337.64 36.6386" fill="white"/>
<path d="M335.978 37.7226C335.174 37.7094 334.383 37.4981 333.671 37.1018C330.216 35.2 328.964 30.4982 329.504 26.8001C329.596 26.0605 329.873 25.3473 330.282 24.7266C330.941 23.7889 331.996 23.2077 333.143 23.1681C334.91 23.1549 336.585 23.987 337.626 25.4266C338.47 26.5888 339.09 27.9095 339.459 29.2963C339.538 29.5737 339.38 29.8642 339.103 29.9567C338.826 30.0359 338.536 29.8774 338.457 29.6001C338.127 28.3322 337.56 27.1303 336.796 26.0737C335.978 24.9115 334.633 24.2115 333.209 24.2247C332.392 24.2511 331.64 24.6473 331.152 25.3077C330.849 25.8096 330.665 26.3643 330.612 26.9454C330.124 30.2737 331.205 34.5132 334.238 36.1905C335.174 36.7981 336.374 36.8377 337.336 36.283C337.547 36.0717 337.877 36.0717 338.088 36.283C338.299 36.4943 338.299 36.8245 338.088 37.0358C338.048 37.0754 338.009 37.1018 337.969 37.1283C337.389 37.5509 336.69 37.7622 335.978 37.7358V37.7226Z" fill="#163F79"/>
<path d="M392.742 149.059C392.412 149.059 392.122 148.821 392.069 148.491C388.615 126.87 381.995 85.6769 381.692 84.4354C381.6 84.0788 381.824 83.709 382.18 83.6165C382.549 83.5241 382.918 83.7486 383.011 84.1052C383.406 85.7165 393.005 145.717 393.414 148.266C393.467 148.636 393.216 148.98 392.847 149.046H392.742V149.059Z" fill="#163F79"/>
<path d="M350.575 106.756L333.513 106.927L332.972 100.733L349.348 100.535L350.575 106.756Z" fill="white"/>
<path d="M541.368 121.402V259.048C541.368 273.009 530.055 284.327 516.118 284.314H183.568C169.644 284.314 158.357 273.022 158.344 259.075C158.344 259.075 158.344 259.062 158.344 259.048V121.402C158.344 107.442 169.618 96.1363 183.555 96.123H516.118C530.055 96.123 541.355 107.442 541.368 121.402Z" fill="white"/>
<path d="M516.118 285.002H183.568C169.261 284.989 157.671 273.38 157.658 259.05V121.403C157.658 107.073 169.261 95.4507 183.568 95.4375H516.118C530.424 95.4507 542.027 107.073 542.04 121.403V259.05C542.014 273.38 530.424 284.989 516.118 285.002ZM183.568 96.7979C170.013 96.8243 159.029 107.826 159.016 121.403V259.05C159.043 272.627 170.013 283.615 183.568 283.629H516.118C529.672 283.629 540.656 272.627 540.682 259.05V121.403C540.669 107.826 529.672 96.8111 516.118 96.7979H183.568Z" fill="#163F79"/>
<path d="M541.368 121.402V130.647H158.344V121.402C158.344 107.442 169.618 96.1363 183.555 96.123H516.118C530.055 96.123 541.355 107.442 541.368 121.402Z" fill="white"/>
<path d="M541.368 131.399H158.344C157.961 131.399 157.658 131.096 157.658 130.713V121.468C157.658 107.138 169.261 95.5152 183.568 95.502H516.118C530.398 95.5152 541.988 107.098 542.04 121.401V130.647C542.08 131.016 541.816 131.347 541.447 131.399C541.421 131.399 541.394 131.399 541.368 131.399ZM158.99 130.079H540.682V121.401C540.669 107.824 529.672 96.8095 516.118 96.7963H183.568C170.013 96.8227 159.029 107.824 159.016 121.401L158.99 130.079Z" fill="#163F79"/>
<path d="M462.453 239.713H223.045C215.094 239.713 208.646 233.242 208.633 225.278V196.908C208.633 188.944 215.094 182.486 223.045 182.473H462.453C470.404 182.473 476.852 188.944 476.865 196.908V225.278C476.865 233.242 470.404 239.7 462.453 239.713ZM223.045 183.833C215.833 183.833 210.005 189.684 209.991 196.908V225.278C209.991 232.502 215.833 238.34 223.045 238.353H462.453C469.652 238.353 475.493 232.489 475.493 225.278V196.908C475.493 189.697 469.652 183.846 462.453 183.833H223.045Z" fill="#6DB0E2"/>
<path d="M476.179 196.909V225.278C476.205 232.872 470.061 239.053 462.479 239.079C462.479 239.079 462.466 239.079 462.453 239.079H411.755V183.146H462.453C470.035 183.146 476.179 189.314 476.179 196.909Z" fill="#6DB0E2"/>
<path d="M462.453 239.713H411.755C411.386 239.713 411.083 239.423 411.069 239.053C411.069 239.053 411.069 239.053 411.069 239.04V183.146C411.069 182.776 411.373 182.473 411.742 182.473C411.742 182.473 411.742 182.473 411.755 182.473H462.453C470.404 182.473 476.852 188.944 476.865 196.908V225.278C476.865 233.242 470.404 239.7 462.453 239.713ZM412.427 238.392H462.453C469.652 238.392 475.493 232.528 475.493 225.317V196.908C475.493 189.697 469.652 183.846 462.453 183.833H412.427V238.392Z" fill="#6DB0E2"/>
<path d="M461.491 212.876C461.121 213.286 460.607 213.51 460.067 213.523L426.378 213.787C425.297 213.893 424.321 213.087 424.229 211.991C424.136 210.895 424.927 209.931 426.022 209.839C426.114 209.839 426.22 209.839 426.312 209.839L460.001 209.561C461.082 209.535 461.992 210.393 462.018 211.476C462.031 211.991 461.833 212.493 461.491 212.876Z" fill="white"/>
<path d="M460.119 213.087C459.579 213.114 459.051 212.916 458.656 212.533L445.76 199.999C444.916 199.299 444.811 198.044 445.51 197.212C446.209 196.38 447.461 196.261 448.292 196.961C448.371 197.027 448.437 197.093 448.503 197.159L461.411 209.693C462.203 210.446 462.229 211.687 461.477 212.48C461.121 212.863 460.633 213.074 460.106 213.087H460.119Z" fill="white"/>
<path d="M462.018 211.265C462.044 211.806 461.847 212.335 461.464 212.731L448.951 225.648C448.252 226.493 447 226.598 446.169 225.898C445.338 225.198 445.22 223.944 445.919 223.112C445.984 223.032 446.05 222.966 446.116 222.9L458.629 209.97C459.381 209.178 460.62 209.152 461.411 209.904C461.794 210.261 462.005 210.75 462.018 211.278V211.265Z" fill="white"/>
<path d="M188.328 119.157C190.636 119.157 192.508 117.282 192.508 114.97C192.508 112.658 190.636 110.783 188.328 110.783C186.019 110.783 184.148 112.658 184.148 114.97C184.148 117.282 186.019 119.157 188.328 119.157Z" fill="#E30238"/>
<path d="M202.963 119.157C205.272 119.157 207.143 117.282 207.143 114.97C207.143 112.658 205.272 110.783 202.963 110.783C200.655 110.783 198.784 112.658 198.784 114.97C198.784 117.282 200.655 119.157 202.963 119.157Z" fill="#6DB0E2"/>
<path d="M217.599 119.157C219.908 119.157 221.779 117.282 221.779 114.97C221.779 112.658 219.908 110.783 217.599 110.783C215.291 110.783 213.419 112.658 213.419 114.97C213.419 117.282 215.291 119.157 217.599 119.157Z" fill="#6DB0E2"/>
<path d="M349.414 142.944C349.414 142.944 359.712 146.722 362.731 146.339C365.751 145.956 375.31 141.69 376.431 142.693C377.552 143.697 377.196 146.471 367.201 151.001C367.201 151.001 393.48 164.974 391.964 166.48C390.447 167.986 379.029 162.835 368.836 158.674C368.836 158.674 363.562 167.616 355.77 165.978C347.977 164.34 343.204 157.42 343.204 157.42" fill="white"/>
<path d="M391.041 167.35C388.509 167.35 383.129 165.237 373.583 161.275L369.126 159.426C367.913 161.275 362.876 168.077 355.704 166.571C347.792 164.907 342.953 158.052 342.755 157.762C342.531 157.511 342.558 157.128 342.795 156.903C343.046 156.679 343.428 156.705 343.652 156.943C343.692 156.983 343.718 157.022 343.744 157.075C343.744 157.141 348.491 163.824 355.941 165.396C363.391 166.967 368.322 158.462 368.375 158.369C368.533 158.105 368.849 157.999 369.126 158.118L374.045 160.152C380.268 162.794 389.471 166.558 391.344 166.175C389.814 164.313 378.066 157.432 366.977 151.528C366.779 151.422 366.647 151.211 366.661 150.986C366.661 150.762 366.793 150.551 367.003 150.445C375.007 146.8 376.154 144.594 376.233 143.841C376.299 143.59 376.207 143.326 376.009 143.154C375.35 142.877 371.447 144.237 368.863 145.136C366.885 145.888 364.854 146.509 362.784 146.958C359.646 147.368 349.599 143.67 349.177 143.524C348.86 143.405 348.702 143.062 348.821 142.745C348.926 142.441 349.269 142.27 349.586 142.388C352.42 143.419 360.292 146.047 362.639 145.756C364.643 145.32 366.608 144.726 368.52 143.987C373.662 142.204 376.022 141.504 376.866 142.256C377.367 142.692 377.605 143.366 377.486 144.013C377.183 146.034 374.203 148.398 368.638 151.052C376.55 155.279 392.372 163.996 392.702 166.201C392.741 166.465 392.662 166.73 392.478 166.928C392.069 167.258 391.555 167.403 391.041 167.35Z" fill="#163F79"/>
<path d="M318.27 61.3086C318.27 61.3086 248.888 93.508 249.284 113.134C249.785 138.228 337.534 163.388 337.534 163.388L351.128 137.211L295.143 110.387L336.532 87.7893L318.27 61.3086Z" fill="#E30238"/>
<path d="M422.646 91.3297C418.862 90.1014 414.366 89.3222 411.175 91.7127C409.685 92.9938 408.498 94.6051 407.72 96.4145C405.98 99.8616 404.477 103.428 403.224 107.086C402.894 108.037 402.683 109.305 403.501 109.873C404.318 110.441 405.769 109.463 406.415 108.42C407.562 106.558 408.445 104.563 409.052 102.463C407.628 105.448 406.626 108.631 406.072 111.894C405.953 112.29 405.953 112.712 406.072 113.109C406.494 113.795 407.377 114.02 408.076 113.637C408.735 113.227 409.276 112.646 409.619 111.946C411.254 109.186 412.572 106.254 413.575 103.203C412.427 106.333 411.795 109.635 411.702 112.977C411.649 113.544 411.834 114.112 412.23 114.522C412.77 114.878 413.482 114.826 413.983 114.403C414.445 113.967 414.801 113.439 415.025 112.844L418.981 104.524C418.11 107.628 417.623 110.81 417.543 114.033C417.504 114.297 417.543 114.575 417.662 114.812C418.11 115.658 419.416 115.09 419.983 114.31C420.827 112.977 421.433 111.497 421.736 109.952C422.818 105.871 423.754 101.711 424.993 97.6824C426.18 94.3938 426.536 92.5976 422.646 91.3297Z" fill="white"/>
<path d="M418.532 115.828H418.414C417.926 115.815 417.491 115.538 417.28 115.102C417.121 114.759 417.056 114.376 417.095 114.006C417.135 112.447 417.267 110.889 417.491 109.344L415.697 113.108C415.421 113.781 414.999 114.376 414.471 114.864C413.772 115.472 412.744 115.525 411.979 114.996C411.452 114.468 411.175 113.742 411.214 113.002C411.201 112.051 411.241 111.1 411.359 110.163C410.99 110.876 410.595 111.576 410.186 112.263C409.79 113.055 409.157 113.729 408.393 114.178C407.826 114.455 407.18 114.495 406.586 114.283C406.138 114.125 405.769 113.781 405.571 113.346C405.386 112.844 405.36 112.302 405.492 111.787C405.597 111.193 405.716 110.598 405.835 110.004C405.452 110.334 405.004 110.559 404.516 110.651C404.028 110.757 403.514 110.651 403.092 110.374C402.472 109.938 401.879 108.987 402.591 106.9C403.857 103.216 405.373 99.6231 407.127 96.1496C407.944 94.2477 409.184 92.5572 410.753 91.2233C413.495 89.1629 417.438 89.0176 422.778 90.761C427.406 92.2666 426.602 94.8553 425.666 97.8665C424.835 100.508 424.136 103.308 423.464 105.989C423.121 107.31 422.778 108.736 422.409 110.097C422.079 111.721 421.459 113.266 420.563 114.666C420.088 115.327 419.35 115.749 418.532 115.828ZM419.139 103.942C419.205 103.942 419.284 103.942 419.35 103.942C419.64 104.061 419.798 104.378 419.719 104.682C418.862 107.732 418.387 110.863 418.295 114.032C418.269 114.191 418.269 114.362 418.295 114.521C418.295 114.521 418.361 114.6 418.453 114.613C418.901 114.547 419.31 114.296 419.6 113.94C420.405 112.672 420.972 111.259 421.262 109.78C421.631 108.459 421.974 107.046 422.317 105.685C422.989 102.978 423.635 100.191 424.532 97.4967C425.56 94.1817 425.745 92.9798 422.409 91.8836C417.464 90.2723 413.904 90.378 411.491 92.1742C410.067 93.4025 408.946 94.9477 408.208 96.6779C406.481 100.099 404.991 103.625 403.738 107.244C403.567 107.746 403.237 108.947 403.738 109.344C403.883 109.449 404.068 109.476 404.239 109.436C404.899 109.185 405.439 108.723 405.795 108.115C406.112 107.6 406.415 107.072 406.692 106.531C407.18 105.051 407.747 103.612 408.419 102.212C408.564 101.934 408.894 101.802 409.184 101.908C409.474 102.027 409.632 102.344 409.54 102.648C409.105 104.153 408.525 105.606 407.813 107.006C407.272 108.644 406.863 110.308 406.573 112.012C406.494 112.289 406.494 112.593 406.573 112.87C406.639 113.015 406.758 113.121 406.903 113.161C407.166 113.266 407.483 113.266 407.747 113.161C408.314 112.817 408.775 112.302 409.065 111.708C410.687 108.987 412.019 106.095 413.021 103.083C413.126 102.766 413.456 102.595 413.772 102.7C414.089 102.806 414.26 103.136 414.168 103.453C413.021 106.517 412.401 109.753 412.322 113.029C412.282 113.425 412.388 113.808 412.625 114.125C412.955 114.296 413.35 114.244 413.614 113.993C413.997 113.623 414.3 113.174 414.498 112.672L418.453 104.338C418.532 104.034 418.836 103.849 419.139 103.915V103.942Z" fill="#163F79"/>
<path d="M359.514 38.4457C359.514 38.4457 349.322 51.2964 341.885 37.125L359.514 38.4457Z" fill="white"/>
<path d="M350.311 44.3521H349.599C346.395 44.0483 343.626 41.7106 341.358 37.3654C341.226 37.0748 341.332 36.7314 341.608 36.573C341.885 36.4277 342.241 36.5333 342.4 36.8107C344.47 40.7729 346.922 42.9125 349.704 43.1766C354.596 43.6389 359.013 38.1446 359.066 38.0918C359.264 37.8409 359.633 37.8012 359.883 37.9994C360.134 38.1975 360.174 38.5673 359.976 38.8182C359.791 39.0295 355.519 44.3389 350.311 44.3389V44.3521Z" fill="#163F79"/>
<path d="M440.723 85.7823C440.552 85.7823 440.394 85.7163 440.288 85.5974C440.051 85.3597 440.051 84.9767 440.288 84.739C447.408 77.8976 449.043 63.4224 440.117 52.7641C430.887 41.802 416.238 39.6756 408.287 39.385C406.56 39.385 404.793 39.3058 403.013 39.2926C395.102 39.2926 387.019 39.2134 380.769 34.4983C377.143 31.7776 374.651 26.2438 372.014 20.3929C368.599 12.8383 365.078 5.01962 359.079 4.10831C358.037 4.05548 356.996 4.24038 356.033 4.6234C353.963 5.67998 351.471 5.40263 349.691 3.9102L349.256 3.63285C344.074 0.370641 337.02 0.42347 330.348 3.77813C321.606 8.18937 317.703 18.2137 316.965 26.1249C316.108 35.37 318.376 44.5095 320.578 53.3716C320.657 53.7018 320.472 54.032 320.142 54.1112C319.813 54.1904 319.483 53.9923 319.404 53.6622C317.176 44.7076 314.881 35.4493 315.752 26.006C316.727 15.4402 322.12 6.56487 329.807 2.69513C336.848 -0.857639 344.311 -0.897261 349.902 2.60268L350.363 2.89324C351.827 4.17435 353.937 4.39887 355.638 3.46115C356.785 2.9989 358.011 2.81399 359.237 2.90645C365.83 3.9102 369.548 12.0327 373.095 19.8911C375.666 25.5966 378.092 30.9852 381.468 33.5342C387.401 37.9983 395.326 38.0379 402.987 38.0775C404.78 38.0775 406.56 38.0775 408.261 38.17C416.396 38.4605 431.48 40.653 440.974 51.9848C450.467 63.3167 448.569 78.3995 441.053 85.6106C440.961 85.7031 440.855 85.7691 440.723 85.7823Z" fill="#163F79"/>
<path d="M287.891 114.138C287.561 114.138 287.284 113.874 287.284 113.531C287.284 113.306 287.416 113.095 287.614 112.989L333.077 89.4272C333.381 89.282 333.737 89.4008 333.895 89.6914C334.053 89.982 333.948 90.3385 333.658 90.497C333.658 90.497 333.644 90.497 333.631 90.497L288.168 114.059C288.076 114.099 287.983 114.125 287.891 114.125V114.138Z" fill="#163F79"/>
<path d="M236.586 212.732L240.054 217.315L236.178 220.022L232.71 215.347L229.295 219.877L225.669 217.169L229.176 212.679L223.612 210.83L225.115 206.524L230.587 208.426V202.826H235.294V208.426L240.766 206.709L242.216 211.015L236.599 212.732H236.586Z" fill="#163F79"/>
<path d="M261.876 212.732L265.344 217.315L261.467 220.022L258 215.347L254.585 219.877L250.8 217.169L254.308 212.679L248.743 210.83L250.247 206.524L255.719 208.426V202.826H260.426V208.426L265.898 206.709L267.348 211.015L261.876 212.732Z" fill="#163F79"/>
<path d="M287.126 212.732L290.594 217.315L286.717 220.022L283.276 215.347L279.861 219.877L276.077 217.169L279.584 212.679L274.02 210.83L275.523 206.524L280.995 208.426V202.826H285.702V208.426L291.174 206.709L292.624 211.015L287.126 212.732Z" fill="#163F79"/>
<path d="M312.442 212.732L315.91 217.315L312.034 220.022L308.618 215.347L305.203 219.877L301.459 217.169L304.927 212.679L299.362 210.83L300.865 206.524L306.337 208.426V202.826H311.071V208.426L316.503 206.709L317.98 211.015L312.416 212.732H312.442Z" fill="#163F79"/>
<path d="M337.732 212.732L341.2 217.315L337.323 220.022L333.855 215.347L330.44 219.877L326.696 217.169L330.137 212.679L324.573 210.83L326.076 206.524L331.548 208.426V202.826H336.281V208.426L341.714 206.709L343.191 211.015L337.719 212.732H337.732Z" fill="#163F79"/>
<path d="M595.747 433.459C632.405 433.459 662.122 431.744 662.122 429.629C662.122 427.514 632.405 425.799 595.747 425.799C559.088 425.799 529.371 427.514 529.371 429.629C529.371 431.744 559.088 433.459 595.747 433.459Z" fill="#6DB0E2"/>
<path d="M521.724 261.578C521.354 262.054 520.115 288.574 518.757 289.934C515.065 293.632 515.54 285.972 515.54 285.972C515.54 285.972 508.459 301.438 504.345 300.262C496.856 298.123 504.635 280.214 506.547 276.582C508.367 269.502 508.604 255.357 508.604 255.357" fill="white"/>
<path d="M504.78 300.976C504.569 300.976 504.358 300.949 504.161 300.896C502.776 300.513 501.642 299.496 501.115 298.163C498.662 292.404 504.226 279.606 505.927 276.344C507.681 269.397 507.945 255.49 507.945 255.344C507.958 254.988 508.261 254.697 508.617 254.697C508.973 254.697 509.263 254.988 509.263 255.344C509.263 255.344 509.263 255.358 509.263 255.371C509.263 255.952 509 269.674 507.18 276.74C507.18 276.793 507.18 276.833 507.18 276.886C505.69 279.738 500.139 292.378 502.381 297.647C502.763 298.625 503.58 299.351 504.582 299.629C507.035 300.329 512.151 291.902 514.986 285.695C515.118 285.404 515.434 285.246 515.751 285.325C516.054 285.404 516.265 285.695 516.252 286.012C516.133 287.808 516.423 289.974 517.003 290.265C517.175 290.344 517.623 290.185 518.322 289.472C519.073 288.323 519.97 275.789 520.458 269.054C520.998 261.486 521.025 261.433 521.249 261.129C521.473 260.839 521.882 260.786 522.172 261.01C522.409 261.195 522.488 261.512 522.37 261.79C522.251 262.318 522.014 265.62 521.763 269.106C520.801 282.789 520.168 289.459 519.258 290.37C518.348 291.282 517.241 291.797 516.449 291.427C515.54 290.793 514.999 289.763 514.999 288.653C512.757 293.104 508.301 300.976 504.78 300.976Z" fill="#163F79"/>
<path d="M617.964 202.305L633.787 195.424C633.787 195.424 636.951 187.804 640.102 186.866C643.834 186.113 647.605 185.611 651.402 185.387C653.512 186.906 654.475 189.56 653.815 192.083C652.879 196.719 646.761 204.168 638.217 206.017L622.605 219.779" fill="white"/>
<path d="M622.605 220.438C622.421 220.438 622.236 220.358 622.104 220.213C621.867 219.949 621.893 219.54 622.157 219.302L637.742 205.54C637.834 205.461 637.927 205.408 638.045 205.381C646.392 203.572 652.259 196.295 653.13 191.963C653.697 189.783 652.932 187.472 651.178 186.072C647.499 186.284 643.834 186.772 640.221 187.512C637.887 188.212 635.184 193.653 634.34 195.687C634.274 195.846 634.143 195.978 633.984 196.044L618.162 202.925C617.832 203.07 617.437 202.925 617.292 202.581C617.146 202.251 617.292 201.855 617.634 201.71L633.167 194.934C633.813 193.442 636.661 187.168 639.76 186.244C643.544 185.465 647.367 184.963 651.218 184.738C651.349 184.738 651.495 184.765 651.613 184.831C653.973 186.482 655.055 189.427 654.329 192.214C653.38 196.995 647.315 204.615 638.401 206.636L622.935 220.292C622.843 220.372 622.724 220.438 622.592 220.451L622.605 220.438Z" fill="#163F79"/>
<path d="M650.071 175.902L630.464 200.943L641.909 202.304L660.092 177.949L650.071 175.902Z" fill="#163F79"/>
<path d="M641.909 203.005H641.83L630.385 201.684C630.147 201.658 629.95 201.499 629.857 201.288C629.765 201.063 629.791 200.812 629.95 200.628L649.556 175.534C649.715 175.336 649.965 175.243 650.202 175.296L660.237 177.343C660.461 177.383 660.632 177.541 660.711 177.752C660.79 177.964 660.764 178.201 660.619 178.373L642.436 202.701C642.318 202.873 642.12 202.992 641.909 203.005ZM631.703 200.469L641.606 201.644L658.958 178.426L650.347 176.59L631.703 200.469Z" fill="#163F79"/>
<path d="M650.69 176.393L633.457 198.383L641.078 199.505L658.061 177.951L650.69 176.393Z" fill="white"/>
<path d="M630.464 216.211L622.698 198.17L583.761 216.211L587.717 247.341C587.717 247.341 622.724 226.42 630.464 216.211Z" fill="#6DB0E2"/>
<path d="M627.668 388.475C627.668 388.475 635.962 408.972 635.211 408.959C634.459 408.946 616.566 411.799 616.566 411.799C616.566 411.799 608.405 394.986 608.655 394.629C608.906 394.273 627.668 388.475 627.668 388.475Z" fill="white"/>
<path d="M616.566 412.459C616.316 412.459 616.079 412.314 615.973 412.089C607.666 394.92 607.824 394.682 608.062 394.299C608.299 393.916 608.378 393.691 627.51 387.841C627.84 387.748 628.183 387.907 628.315 388.224C636.463 408.378 636.068 408.959 635.817 409.355C635.685 409.553 635.474 409.672 635.237 409.659C634.538 409.659 623.766 411.363 616.711 412.485L616.566 412.459ZM609.407 394.973C610.237 397.073 614.246 405.538 616.949 411.072C620.364 410.518 631.453 408.748 634.499 408.365C633.852 405.882 629.936 395.884 627.273 389.28C620.97 391.208 611.582 394.154 609.407 394.973Z" fill="#163F79"/>
<path d="M635.211 408.959C635.211 408.959 664.627 411.151 665.419 416.54C666.21 421.929 621.379 429.628 621.379 429.628L616.566 411.799L635.211 408.959Z" fill="#E30238"/>
<path d="M621.379 430.276C621.089 430.276 620.825 430.091 620.746 429.8L615.934 411.97C615.881 411.786 615.907 411.601 616.013 411.442C616.118 411.284 616.276 411.178 616.461 411.152L635.105 408.299H635.263C640.261 408.669 665.247 410.821 666.065 416.448C666.882 422.074 632.152 428.44 621.498 430.276H621.379ZM617.424 412.34L621.854 428.849C642.951 425.191 665.194 419.525 664.759 416.606C664.496 414.731 656.228 411.165 635.237 409.593L617.424 412.34Z" fill="#163F79"/>
<path d="M566.013 384.05L557.509 391.34L545.866 375.372L558.168 365.414L566.013 384.05Z" fill="white"/>
<path d="M557.509 392.001C557.324 391.988 557.153 391.882 557.047 391.737L545.405 375.783C545.194 375.492 545.246 375.096 545.523 374.871L557.825 364.913C557.984 364.781 558.208 364.728 558.405 364.794C558.603 364.847 558.775 364.979 558.854 365.177L566.765 383.813C566.871 384.077 566.791 384.38 566.58 384.565L557.944 391.869C557.825 391.961 557.667 392.014 557.509 392.001ZM546.776 375.492L557.628 390.377L565.222 383.865L557.904 366.485L546.776 375.492Z" fill="#163F79"/>
<path d="M557.509 391.341C557.509 391.341 563.455 422.048 558.392 420.991C553.329 419.935 533.063 386.124 533.063 386.124L545.866 375.373L557.509 391.341Z" fill="#E30238"/>
<path d="M558.656 421.664C558.524 421.664 558.392 421.664 558.26 421.664C553.078 420.581 534.527 389.967 532.496 386.493C532.338 386.216 532.39 385.859 532.641 385.648L545.444 374.911C545.563 374.778 545.734 374.699 545.919 374.699C546.103 374.712 546.262 374.818 546.367 374.963L558.023 390.918C558.076 390.997 558.115 391.09 558.128 391.182C558.128 391.248 559.447 397.786 560.265 404.719C562.045 418.931 560.357 420.568 559.803 421.136C559.513 421.466 559.091 421.651 558.656 421.664ZM533.92 386.256C542.029 399.753 555.017 419.617 558.537 420.344C558.669 420.383 558.814 420.344 558.906 420.238C561.056 418.112 558.827 401.616 556.902 391.605L545.747 376.337L533.92 386.256Z" fill="#163F79"/>
<path d="M592.543 245.096C592.543 245.096 643.214 316.627 643.32 323.02C643.557 335.461 566.462 389.135 566.462 389.135L553.474 365.455L600.718 322.848L556.322 241.953L592.543 245.096Z" fill="#163F79"/>
<path d="M566.462 389.809H566.317C566.132 389.769 565.974 389.65 565.895 389.479L552.894 365.824C552.749 365.56 552.802 365.217 553.039 365.019L599.887 322.755L555.742 242.323C555.571 242.019 555.676 241.623 555.979 241.438C556.098 241.372 556.23 241.346 556.375 241.359L592.595 244.449C592.78 244.476 592.951 244.568 593.07 244.727C598.344 252.07 643.86 316.614 643.979 323.033C644.216 335.685 569.995 387.511 566.844 389.703C566.725 389.769 566.594 389.809 566.462 389.809ZM554.292 365.64L566.686 388.198C570.088 385.807 587.453 373.564 604.581 360.238C637.835 334.351 642.726 325.833 642.674 323.046C642.581 317.988 606.361 265.766 592.173 245.73L557.482 242.759L601.298 322.571C601.443 322.835 601.39 323.165 601.166 323.376L554.292 365.64Z" fill="#163F79"/>
<path d="M542.148 252.967L610.158 405.208L636.173 394.391L582.917 244.871L542.148 252.967Z" fill="#163F79"/>
<path d="M610.158 405.869C609.894 405.869 609.67 405.71 609.565 405.472L541.554 253.192C541.462 253.007 541.462 252.796 541.554 252.611C541.647 252.439 541.805 252.307 542.003 252.268L582.838 244.224C583.154 244.158 583.471 244.343 583.59 244.647L636.846 394.167C636.964 394.497 636.806 394.867 636.476 394.999L610.461 405.816C610.369 405.869 610.264 405.882 610.158 405.869ZM543.084 253.456L610.527 404.35L635.382 394.022L582.508 245.624L543.084 253.456Z" fill="#163F79"/>
<path d="M619.612 345.881C619.335 345.881 619.085 345.709 618.993 345.445L588.482 262.675C588.402 262.464 588.442 262.226 588.574 262.054L593.848 254.909C594.072 254.618 594.481 254.566 594.771 254.777C595.061 254.988 595.127 255.398 594.916 255.701L589.853 262.543L620.179 344.983C620.311 345.313 620.14 345.696 619.81 345.828C619.81 345.828 619.81 345.828 619.797 345.828C619.744 345.855 619.678 345.881 619.612 345.881Z" fill="white"/>
<path d="M562.73 147.534C561.385 147.811 560.067 146.94 559.79 145.579C559.75 145.355 559.724 145.117 559.75 144.893L558.973 131.685C558.551 127.697 558.696 123.655 559.394 119.706C560.238 115.929 562.625 112.033 566.409 111.306C567.728 111.069 569.046 111.214 570.365 110.884C572.778 110.263 574.413 108.097 576.456 106.671C579.753 104.412 583.998 104.042 587.624 105.72C588.561 106.235 589.523 106.684 590.525 107.04C593.716 107.952 596.92 105.72 600.217 105.456C605.201 105.006 609.605 109.074 611.635 113.644C614.391 119.851 613.165 128.476 607.099 131.487C602.326 133.851 597.316 132.412 592.384 132.636C587.203 132.861 584.882 136.757 581.085 139.768C577.498 142.674 573.239 144.655 568.703 145.513C567.016 145.804 566.475 146.543 564.959 147.045C564.247 147.309 563.495 147.481 562.73 147.534Z" fill="white"/>
<path d="M562.493 148.155C560.779 148.313 559.276 147.045 559.117 145.328C559.117 145.209 559.104 145.09 559.117 144.972L558.326 131.685C557.904 127.63 558.049 123.536 558.761 119.521C559.618 115.744 562.045 111.425 566.304 110.619C566.923 110.514 567.543 110.461 568.163 110.434C568.835 110.434 569.508 110.355 570.167 110.21C571.67 109.695 573.015 108.823 574.122 107.687C574.755 107.146 575.441 106.578 576.087 106.089C579.581 103.659 584.104 103.276 587.954 105.085L588.903 105.574C589.497 105.918 590.116 106.208 590.763 106.419C592.635 106.736 594.573 106.499 596.314 105.733C597.579 105.284 598.872 104.98 600.203 104.808C605.702 104.319 610.237 108.77 612.294 113.393C615.156 119.838 613.89 128.898 607.442 132.094C603.974 133.825 600.375 133.613 596.894 133.415C595.417 133.296 593.94 133.27 592.463 133.31C588.89 133.468 586.794 135.462 584.354 137.774C583.471 138.619 582.561 139.491 581.533 140.296C577.841 143.294 573.45 145.328 568.782 146.213C568.084 146.345 567.398 146.609 566.791 146.979C566.264 147.27 565.71 147.521 565.143 147.719C564.378 147.996 563.587 148.155 562.783 148.194L562.506 148.155H562.493ZM582.838 105.27C580.676 105.257 578.553 105.904 576.773 107.133C576.127 107.608 575.507 108.123 574.927 108.678C573.687 109.946 572.158 110.91 570.47 111.478C569.719 111.636 568.967 111.729 568.202 111.742C567.635 111.768 567.081 111.821 566.528 111.9C562.888 112.587 560.779 116.431 560.014 119.825C559.328 123.721 559.197 127.683 559.619 131.619L560.423 144.892C560.502 146.306 561.201 146.9 562.717 146.821C563.403 146.781 564.088 146.636 564.734 146.411C565.235 146.239 565.71 146.028 566.172 145.764C566.91 145.315 567.714 145.011 568.558 144.853C572.989 144.021 577.142 142.092 580.649 139.253C581.638 138.474 582.522 137.628 583.392 136.809C585.897 134.419 588.27 132.16 592.332 131.976C593.861 131.936 595.391 131.976 596.907 132.081C600.362 132.279 603.618 132.464 606.783 130.893C612.545 128.04 613.626 119.812 611.015 113.921C609.209 109.853 605.069 105.68 600.243 106.116C599.017 106.274 597.804 106.565 596.63 106.987C594.639 107.833 592.45 108.07 590.327 107.674C589.589 107.436 588.877 107.119 588.205 106.723C587.901 106.565 587.611 106.406 587.308 106.274C585.91 105.601 584.381 105.257 582.838 105.27Z" fill="#163F79"/>
<path d="M593.254 135.053C593.254 135.053 596.828 143.941 595.417 145.341C594.006 146.741 590.749 144.892 590.749 144.892" fill="white"/>
<path d="M593.901 146.543C592.661 146.463 591.461 146.12 590.38 145.526C590.064 145.341 589.945 144.945 590.116 144.628C590.288 144.311 590.67 144.192 590.987 144.363C591.738 144.773 594.085 145.684 594.942 144.879C595.522 144.297 594.441 139.82 592.635 135.303C592.503 134.96 592.661 134.577 593.004 134.445C593.347 134.313 593.729 134.471 593.861 134.815C594.982 137.601 597.421 144.271 595.878 145.816C595.338 146.318 594.626 146.582 593.887 146.543H593.901Z" fill="#163F79"/>
<path d="M594.27 124.486C597.013 127.854 594.89 133.335 594.112 137.033C593.004 142.21 591.778 147.374 590.446 152.512C589.589 155.761 581.071 154.084 579.766 152.789L578.329 163.844C578.329 163.844 575.098 169.457 568.875 164.861C562.651 160.265 561.952 155.537 561.952 155.537L565.592 140.625C565.592 140.625 571.209 141.827 575.916 135.792C580.623 129.756 582.588 119.428 582.588 119.428C582.588 119.428 591.606 121.211 594.27 124.486Z" fill="white"/>
<path d="M573.529 167.345C571.683 167.252 569.916 166.579 568.479 165.403C562.124 160.701 561.333 155.854 561.306 155.643C561.306 155.564 561.306 155.471 561.306 155.392L564.959 140.481C565.038 140.138 565.38 139.913 565.723 139.992C565.947 139.992 570.997 141.009 575.388 135.409C579.937 129.572 581.981 119.415 581.981 119.31C582.02 119.138 582.126 118.993 582.271 118.887C582.416 118.795 582.587 118.755 582.759 118.795C583.141 118.861 591.989 120.657 594.837 124.078C597.316 127.128 596.155 131.592 595.285 135.185C595.114 135.885 594.942 136.506 594.81 137.166C593.703 142.343 592.463 147.573 591.132 152.685C590.789 153.781 589.853 154.6 588.719 154.785C585.897 155.3 582.996 154.983 580.346 153.886L579.027 163.937C579.027 164.016 578.988 164.096 578.948 164.175C578.012 165.694 576.509 166.79 574.768 167.213C574.36 167.305 573.951 167.345 573.529 167.345ZM562.625 155.564C562.783 156.29 563.943 160.384 569.217 164.347C570.641 165.588 572.514 166.169 574.386 165.932C575.718 165.601 576.878 164.782 577.63 163.633L579.054 152.724C579.093 152.473 579.265 152.262 579.502 152.183C579.739 152.103 580.003 152.169 580.175 152.341C582.667 153.596 585.501 154.019 588.257 153.517C589.114 153.292 589.576 152.896 589.76 152.354C591.079 147.27 592.318 142.066 593.413 136.902C593.545 136.268 593.716 135.581 593.901 134.868C594.731 131.566 595.773 127.459 593.716 124.923C591.659 122.387 585.106 120.696 583.036 120.221C582.522 122.638 580.478 130.945 576.377 136.215C572.276 141.485 567.714 141.498 566.04 141.379L562.625 155.564Z" fill="#163F79"/>
<path d="M591.119 148.617C591.119 148.617 586.583 150.268 585.291 145.658L591.119 148.617Z" fill="white"/>
<path d="M589.312 149.555C588.534 149.555 587.756 149.396 587.057 149.053C585.831 148.379 584.961 147.204 584.658 145.843C584.565 145.474 584.776 145.104 585.145 144.998C585.515 144.906 585.884 145.117 585.976 145.487C586.187 146.491 586.807 147.362 587.703 147.877C588.732 148.3 589.866 148.34 590.921 147.996C591.264 147.864 591.646 148.049 591.778 148.379C591.91 148.723 591.725 149.106 591.395 149.238C590.723 149.449 590.024 149.555 589.325 149.555H589.312Z" fill="#163F79"/>
<path d="M582.627 136.346C582.759 135.013 582.495 133.679 581.902 132.477C581.572 131.499 581.111 130.575 580.504 129.743C579.898 128.884 578.922 128.356 577.867 128.316C576.944 128.356 576.087 128.792 575.494 129.505C574.927 130.218 574.518 131.05 574.32 131.948C573.331 135.897 574.518 140.071 577.432 142.897L577.208 142.527" fill="white"/>
<path d="M577.458 143.571C577.287 143.571 577.129 143.505 577.01 143.387C573.938 140.388 572.672 135.964 573.714 131.791C573.951 130.826 574.399 129.928 575.032 129.149C575.731 128.277 576.773 127.762 577.893 127.723C579.133 127.789 580.28 128.396 581.032 129.387C581.664 130.285 582.166 131.262 582.522 132.306C583.154 133.613 583.418 135.079 583.273 136.532C583.22 136.889 582.878 137.126 582.535 137.06C582.535 137.06 582.522 137.06 582.508 137.06C582.152 136.994 581.915 136.651 581.981 136.294C582.073 135.092 581.836 133.877 581.295 132.794C580.992 131.87 580.544 130.998 579.977 130.219C579.476 129.545 578.711 129.123 577.88 129.043C577.142 129.083 576.469 129.426 576.008 130.008C575.507 130.641 575.151 131.394 574.979 132.187C574.122 135.634 575.019 139.292 577.379 141.947C577.551 141.987 577.696 142.092 577.788 142.251L578.012 142.621C578.184 142.898 578.118 143.268 577.867 143.479C577.748 143.545 577.603 143.585 577.458 143.571Z" fill="#163F79"/>
<path d="M579.766 152.816C579.766 152.816 575.626 150.544 574.202 147.084C574.202 147.084 572.883 155.008 579.172 158.746L579.766 152.816Z" fill="#163F79"/>
<path d="M579.172 159.421C579.054 159.421 578.948 159.381 578.843 159.328C572.25 155.458 573.569 147.085 573.569 146.992C573.621 146.702 573.859 146.477 574.149 146.451C574.439 146.411 574.716 146.583 574.834 146.847C576.153 150.043 580.109 152.236 580.109 152.262C580.346 152.394 580.478 152.645 580.451 152.909L579.845 158.826C579.832 159.051 579.687 159.249 579.489 159.341C579.397 159.394 579.278 159.421 579.172 159.421ZM574.729 149.343C574.703 152.566 576.166 155.604 578.685 157.598L579.133 153.187C577.445 152.17 575.955 150.849 574.729 149.304V149.343Z" fill="#163F79"/>
<path d="M591.732 131.129C592.111 130.149 592.11 129.236 591.73 129.088C591.35 128.94 590.735 129.615 590.355 130.594C589.976 131.573 589.977 132.487 590.358 132.635C590.738 132.782 591.353 132.108 591.732 131.129Z" fill="#163F79"/>
<path d="M553.092 156.516C553.092 156.516 576.034 157.44 581.915 169.882C587.796 182.323 585.871 224.982 589.273 228.575C592.674 232.167 600.77 249.707 600.507 250.433C600.243 251.159 539.155 257.803 539.155 257.803C539.155 257.803 538.469 243.856 535.634 225.392C532.799 206.928 536.135 154.323 553.092 156.516Z" fill="#6DB0E2"/>
<path d="M563.231 279.356C563.086 279.356 562.941 279.303 562.823 279.211C562.533 278.986 562.48 278.577 562.704 278.286C570.998 267.799 566.739 262.226 566.554 261.988C566.33 261.711 566.356 261.301 566.633 261.077C566.633 261.077 566.633 261.077 566.646 261.077C566.923 260.852 567.345 260.892 567.569 261.169C567.78 261.433 572.725 267.773 563.746 279.118C563.627 279.277 563.429 279.369 563.231 279.369V279.356Z" fill="white"/>
<path d="M545.457 156.449C545.457 156.449 510.318 194.684 504.345 266.268L524.123 265.859C524.123 265.859 532.905 229.063 557.417 188.662L545.457 156.449Z" fill="#6DB0E2"/>
<path d="M598.397 244.938H598.265C597.988 244.872 597.777 244.648 597.738 244.357C597.513 243.723 595.417 240.091 593.571 236.895C590.934 232.338 588.218 227.65 587.69 226.21C587.097 224.572 586.372 213.003 585.37 197.947C584.948 191.343 584.578 185.664 584.368 183.524C583.735 178.968 582.706 174.477 581.282 170.106C581.163 169.736 581.374 169.353 581.744 169.247C582.113 169.141 582.495 169.34 582.601 169.709C584.051 174.173 585.106 178.756 585.739 183.405C585.963 185.571 586.332 191.33 586.741 197.933C587.453 209.041 588.415 224.242 588.996 225.827C589.483 227.148 592.292 232.008 594.784 236.314C599.214 243.987 599.201 244.093 599.109 244.502C599.017 244.806 598.713 244.991 598.397 244.951V244.938Z" fill="#163F79"/>
<path d="M527.037 254.117C526.971 254.117 526.892 254.117 526.826 254.117C526.484 253.998 526.299 253.615 526.418 253.272C526.589 252.796 543.559 204.986 561.267 182.256C561.478 181.979 561.886 181.913 562.177 182.137C562.177 182.137 562.177 182.137 562.19 182.15C562.467 182.362 562.533 182.771 562.308 183.062C562.308 183.062 562.308 183.062 562.295 183.075C544.679 205.646 527.828 253.192 527.67 253.681C527.565 253.945 527.314 254.117 527.037 254.117Z" fill="#163F79"/>
<path d="M644.691 199.505C644.796 194.75 645.68 189.771 648.647 186.086C649.411 185.161 650.611 184.263 651.692 184.765C652.431 185.214 652.892 186.007 652.945 186.865C652.971 187.71 653.143 188.542 653.459 189.335" fill="white"/>
<path d="M644.691 200.165C644.322 200.165 644.032 199.862 644.045 199.492C644.177 193.456 645.522 188.926 648.172 185.677C649.385 184.184 650.809 183.617 652.009 184.158C652.985 184.686 653.591 185.69 653.631 186.799C653.67 187.024 653.697 187.235 653.71 187.46C653.736 188.015 653.855 188.556 654.079 189.071C654.237 189.388 654.119 189.784 653.802 189.956C653.486 190.128 653.077 190.009 652.905 189.692C652.615 189.032 652.444 188.332 652.404 187.618C652.404 187.42 652.404 187.209 652.325 187.011C652.259 186.535 652.048 185.69 651.468 185.426C650.888 185.162 649.794 185.835 649.2 186.575C646.735 189.599 645.482 193.852 645.363 199.584C645.324 199.928 645.034 200.179 644.691 200.179V200.165Z" fill="#163F79"/>
<path d="M549.466 142.647C547.725 141.366 545.734 140.468 543.625 140.006C540.763 139.781 537.902 140.481 535.463 142C532.048 143.678 529.16 146.24 527.09 149.436C525.033 152.685 524.756 156.766 526.365 160.266C528.224 163.396 531.375 165.536 534.962 166.13C538.509 166.698 542.121 166.777 545.681 166.355C549.096 166.077 552.538 166.038 555.966 166.236C562.994 166.764 569.758 169.075 576.667 170.409C581.032 171.241 579.304 166.619 577.656 164.902C574.861 162.075 571.947 159.381 568.901 156.819C562.757 151.655 556.269 146.913 549.466 142.647Z" fill="#6DB0E2"/>
<path d="M565.829 167.344C565.697 167.344 565.578 167.305 565.473 167.239C557.733 162.259 547.923 161.837 539.788 166.142C539.458 166.288 539.062 166.142 538.917 165.799C538.799 165.522 538.878 165.205 539.115 165.02C547.672 160.45 558.036 160.873 566.198 166.129C566.501 166.327 566.58 166.737 566.383 167.04C566.264 167.239 566.053 167.344 565.829 167.344Z" fill="#163F79"/>
<path d="M643.095 107.977V147.982C643.095 152.143 646.458 155.524 650.611 155.524H651.6V169.642L662.676 155.524H730.014C734.167 155.524 737.53 152.143 737.53 147.982V107.977C737.53 103.817 734.167 100.449 730.014 100.449H650.598C646.445 100.449 643.082 103.817 643.082 107.977H643.095Z" fill="white"/>
<path d="M651.481 170.091C651.31 170.038 651.191 169.867 651.191 169.682V155.946H650.624C646.234 155.946 642.674 152.367 642.674 147.969V107.964C642.674 103.566 646.234 100 650.624 100H730.04C734.431 100 737.991 103.566 737.991 107.964V147.969C737.991 152.367 734.431 155.933 730.04 155.946H662.913L651.956 169.893C651.877 169.999 651.758 170.065 651.626 170.065C651.587 170.065 651.534 170.078 651.495 170.065L651.481 170.091ZM650.664 100.872C646.748 100.872 643.57 104.055 643.57 107.977V147.995C643.57 151.918 646.748 155.101 650.664 155.114H651.653C651.89 155.114 652.075 155.312 652.075 155.537V168.414L662.359 155.273C662.439 155.167 662.557 155.114 662.689 155.114H730.027C733.943 155.114 737.121 151.918 737.121 147.995V107.99C737.121 104.068 733.943 100.898 730.027 100.885H650.651L650.664 100.872Z" fill="#163F79"/>
<path d="M698.87 114.225H681.795C680.076 114.225 678.683 115.62 678.683 117.342V125.992C678.683 127.714 680.076 129.109 681.795 129.109H698.87C700.589 129.109 701.982 127.714 701.982 125.992V117.342C701.982 115.62 700.589 114.225 698.87 114.225Z" fill="#E30238"/>
<path d="M696.141 117.777H684.511C683.562 117.777 682.797 117.011 682.797 116.06V111.437C682.652 107.264 685.922 103.777 690.075 103.632C694.242 103.486 697.723 106.762 697.868 110.922C697.868 111.094 697.868 111.265 697.868 111.437V116.06C697.868 117.011 697.103 117.777 696.154 117.777H696.141ZM686.212 114.343H694.426V111.437C694.532 109.165 692.778 107.237 690.51 107.132C688.242 107.026 686.317 108.782 686.212 111.054C686.212 111.173 686.212 111.305 686.212 111.424V114.33V114.343Z" fill="#E30238"/>
<path d="M690.326 121.581C691.556 121.581 692.554 120.582 692.554 119.349C692.554 118.116 691.556 117.117 690.326 117.117C689.095 117.117 688.097 118.116 688.097 119.349C688.097 120.582 689.095 121.581 690.326 121.581Z" fill="#163F79"/>
<path d="M690.959 119.785H689.706V124.989H690.959V119.785Z" fill="#163F79"/>
<path d="M726.441 146.529H653.894C652.378 146.529 651.152 145.301 651.152 143.782V136.056C651.152 134.537 652.378 133.309 653.894 133.309H726.441C727.957 133.309 729.183 134.537 729.197 136.056V143.782C729.197 145.301 727.957 146.529 726.441 146.529ZM653.894 134.154C652.853 134.154 652.009 134.999 652.009 136.043V143.769C652.009 144.812 652.84 145.657 653.881 145.657C653.881 145.657 653.881 145.657 653.894 145.657H726.441C727.482 145.657 728.326 144.825 728.339 143.782V136.056C728.339 135.012 727.482 134.167 726.441 134.167H653.894V134.154Z" fill="#6DB0E2"/>
<path d="M658.918 140.282L659.881 141.563L658.799 142.316L657.837 141.008L656.887 142.276L655.872 141.523L656.848 140.269L655.292 139.754L655.714 138.552L657.243 139.08V137.521H658.549V139.08L660.078 138.604L660.487 139.806L658.918 140.282Z" fill="#163F79"/>
<path d="M665.972 140.282L666.935 141.563L665.854 142.316L664.891 141.008L663.942 142.276L662.887 141.523L663.863 140.269L662.307 139.754L662.729 138.552L664.258 139.08V137.521H665.563V139.08L667.093 138.604L667.502 139.806L665.972 140.282Z" fill="#163F79"/>
<path d="M673.013 140.282L673.976 141.563L672.895 142.316L671.932 141.008L670.983 142.276L669.928 141.523L670.904 140.269L669.348 139.754L669.77 138.552L671.299 139.08V137.521H672.605V139.08L674.134 138.604L674.543 139.806L673.013 140.282Z" fill="#163F79"/>
<path d="M680.067 140.282L681.03 141.563L679.949 142.316L678.999 141.008L678.05 142.276L677.008 141.523L677.971 140.269L676.415 139.754L676.837 138.552L678.367 139.08V137.521H679.685V139.08L681.201 138.604L681.61 139.806L680.054 140.282H680.067Z" fill="#163F79"/>
<path d="M687.122 140.282L688.084 141.563L687.003 142.316L686.041 141.008L685.091 142.276L684.05 141.523L685.012 140.269L683.456 139.754L683.878 138.552L685.408 139.08V137.521H686.726V139.08L688.243 138.604L688.651 139.806L687.122 140.282Z" fill="#163F79"/>
<path d="M40.3211 206.893H162.59C164.805 206.893 166.611 208.689 166.611 210.921V327.185H36.2996V210.934C36.2996 208.715 38.0928 206.906 40.3079 206.906C40.3079 206.906 40.3079 206.906 40.3211 206.906V206.893Z" fill="white"/>
<path d="M166.625 327.58H36.2996C36.0755 327.58 35.9041 327.395 35.9041 327.184V210.933C35.9041 208.477 37.8951 206.482 40.3475 206.482H162.603C165.055 206.482 167.046 208.477 167.046 210.933V327.184C167.046 327.409 166.862 327.58 166.651 327.58C166.651 327.58 166.651 327.58 166.638 327.58H166.625ZM36.7084 326.775H166.216V210.933C166.216 208.939 164.594 207.314 162.603 207.314H40.3212C38.3302 207.314 36.7084 208.939 36.7084 210.933V326.775Z" fill="#163F79"/>
<path d="M166.625 219.651H36.2996C36.0755 219.651 35.8909 219.466 35.8909 219.241C35.8909 219.017 36.0755 218.832 36.2996 218.832H166.625C166.849 218.832 167.033 219.017 167.033 219.241C167.033 219.466 166.849 219.651 166.625 219.651Z" fill="#163F79"/>
<path d="M81.1697 228.367H49.0104C46.5345 228.367 44.5273 230.378 44.5273 232.858V244.031C44.5273 246.511 46.5345 248.522 49.0104 248.522H81.1697C83.6456 248.522 85.6527 246.511 85.6527 244.031V232.858C85.6527 230.378 83.6456 228.367 81.1697 228.367Z" fill="#E6E7E8"/>
<path d="M81.1697 254.068H49.0104C46.5345 254.068 44.5273 256.079 44.5273 258.559V314.769C44.5273 317.249 46.5345 319.26 49.0104 319.26H81.1697C83.6456 319.26 85.6527 317.249 85.6527 314.769V258.559C85.6527 256.079 83.6456 254.068 81.1697 254.068Z" fill="#E6E7E8"/>
<path d="M153.9 228.367H95.568C93.0921 228.367 91.085 230.378 91.085 232.858V314.756C91.085 317.236 93.0921 319.247 95.568 319.247H153.9C156.376 319.247 158.383 317.236 158.383 314.756V232.858C158.383 230.378 156.376 228.367 153.9 228.367Z" fill="#E6E7E8"/>
<path d="M47.3357 214.751C48.3989 214.751 49.2608 213.888 49.2608 212.823C49.2608 211.758 48.3989 210.895 47.3357 210.895C46.2725 210.895 45.4106 211.758 45.4106 212.823C45.4106 213.888 46.2725 214.751 47.3357 214.751Z" fill="#E6E7E8"/>
<path d="M54.7986 214.751C55.8618 214.751 56.7237 213.888 56.7237 212.823C56.7237 211.758 55.8618 210.895 54.7986 210.895C53.7354 210.895 52.8735 211.758 52.8735 212.823C52.8735 213.888 53.7354 214.751 54.7986 214.751Z" fill="#E6E7E8"/>
<path d="M62.2617 214.751C63.3249 214.751 64.1868 213.888 64.1868 212.823C64.1868 211.758 63.3249 210.895 62.2617 210.895C61.1986 210.895 60.3367 211.758 60.3367 212.823C60.3367 213.888 61.1986 214.751 62.2617 214.751Z" fill="#E6E7E8"/>
<path d="M156.445 213.259H136.113C135.889 213.259 135.705 213.074 135.705 212.849C135.705 212.625 135.889 212.453 136.1 212.453H156.445C156.669 212.453 156.841 212.638 156.841 212.849C156.841 213.074 156.656 213.259 156.432 213.259H156.445Z" fill="#E6E7E8"/>
<path d="M101.33 359.424C112.13 359.424 120.884 357.632 120.884 355.422C120.884 353.212 112.13 351.42 101.33 351.42C90.5308 351.42 81.7761 353.212 81.7761 355.422C81.7761 357.632 90.5308 359.424 101.33 359.424Z" fill="#E6E7E8"/>
<path d="M151.264 240.451V242.551C151.264 252.734 151.171 262.917 151.264 273.1C151.501 293.03 145.277 310.82 133.661 326.801C125.723 337.803 115.056 346.533 102.702 352.119C101.897 352.542 100.948 352.542 100.144 352.119C80.5895 343.019 67.2195 328.029 58.7149 308.443C53.8495 297.362 51.4233 285.356 51.6079 273.245C51.753 263.023 51.6079 252.774 51.6079 242.538V240.333H59.6115C68.1557 240.214 76.6471 239.778 84.9803 237.665C90.4127 236.344 95.5946 234.125 100.289 231.074C100.948 230.52 101.91 230.52 102.57 231.074C109.716 235.697 117.891 238.484 126.369 239.17C134.043 239.857 141.757 240.055 149.47 240.412C150.037 240.478 150.578 240.451 151.277 240.451H151.264Z" fill="#6DB0E2"/>
<path d="M101.462 352.833C100.948 352.819 100.447 352.701 99.9851 352.463C81.2223 343.733 67.2061 328.967 58.3587 308.588C53.4933 297.441 51.0671 285.383 51.2517 273.232C51.344 266.113 51.3309 258.929 51.3045 251.955V240.333C51.3045 240.108 51.4891 239.923 51.7132 239.923H59.6509C67.7863 239.804 76.4623 239.408 84.9274 237.255C90.3202 235.948 95.4625 233.742 100.117 230.718C100.908 230.071 102.042 230.071 102.846 230.718C109.927 235.301 118.049 238.061 126.462 238.735C131.788 239.21 137.287 239.448 142.574 239.62C144.895 239.712 147.215 239.818 149.536 239.936H151.277C151.501 239.936 151.685 240.121 151.685 240.346V252.074C151.685 258.968 151.646 266.087 151.685 273.1C151.923 292.436 145.976 310.596 134.017 327.039C126.04 338.08 115.32 346.85 102.912 352.489C102.464 352.714 101.976 352.833 101.475 352.833H101.462ZM52.0692 240.742V251.942C52.0692 258.915 52.122 266.14 52.0165 273.232C51.8583 285.277 54.2844 297.23 59.1235 308.258C67.8918 328.439 81.7629 343.072 100.354 351.723C101.053 352.106 101.884 352.106 102.569 351.723C114.845 346.15 125.459 337.473 133.371 326.537C145.224 310.226 151.145 292.251 150.894 273.087C150.815 266.074 150.828 258.929 150.894 252.048V240.874H149.51C147.189 240.755 144.868 240.663 142.548 240.557C137.221 240.32 131.775 240.095 126.396 239.62C117.851 238.933 109.611 236.133 102.398 231.471C101.871 231.008 101.08 231.008 100.552 231.471C95.8186 234.535 90.5971 236.78 85.112 238.114C76.5414 240.214 67.7995 240.61 59.6641 240.742H52.0429H52.0692Z" fill="#163F79"/>
<path d="M101.462 346.931C101.462 346.931 101.343 346.944 101.291 346.931C84.0967 338.636 71.7288 325.376 63.4879 306.397C58.9257 295.99 56.6446 284.724 56.8029 273.353C56.9084 266.181 56.882 258.957 56.8556 251.996V246C56.8556 245.776 57.0402 245.604 57.2644 245.591H59.73C68.1951 245.472 77.2667 245.036 86.2723 242.791C91.5333 241.51 96.5834 239.463 101.251 236.716C101.383 236.65 101.528 236.65 101.66 236.716C109.07 241.1 117.364 243.742 125.934 244.455C131.419 244.957 136.97 245.181 142.324 245.419L145.673 245.564C145.884 245.564 146.068 245.749 146.068 245.961V252.247C146.068 259.115 146.029 266.234 146.108 273.247C146.319 291.605 140.886 308.154 129.494 323.818C122.308 333.763 112.722 341.714 101.647 346.957C101.581 346.957 101.502 346.957 101.436 346.931H101.462ZM57.6599 246.357V251.944C57.6599 258.943 57.6599 266.181 57.6072 273.3C57.449 284.552 59.7037 295.699 64.2131 306.014C72.3485 324.703 84.5319 337.831 101.449 346.072C112.327 340.882 121.741 333.036 128.809 323.263C140.095 307.744 145.475 291.367 145.251 273.181C145.172 266.168 145.185 259.049 145.251 252.168V246.291L142.337 246.172C137.01 245.934 131.419 245.71 125.908 245.208C117.284 244.508 108.925 241.866 101.462 237.495C96.7811 240.215 91.7311 242.249 86.4833 243.544C77.3985 245.815 68.261 246.212 59.7432 246.37C59.0576 246.383 58.3719 246.383 57.6731 246.383H57.6599V246.357Z" fill="white"/>
<path d="M95.9637 311.112C94.4078 311.112 92.931 310.464 91.8762 309.329L74.9988 290.786C72.9419 288.474 73.1397 284.935 75.4471 282.874C77.715 280.84 81.1828 280.999 83.2661 283.231L96.1219 297.323L127.503 264.001C129.653 261.769 133.199 261.703 135.415 263.856C137.603 265.969 137.709 269.443 135.652 271.688L100.104 309.408C99.0227 310.53 97.5328 311.151 95.9769 311.112H95.9637Z" fill="white"/>
</g>
<defs>
<clipPath id="clip0_3077_18825">
<rect width="762" height="429" fill="white"/>
</clipPath>
</defs>
</svg>
