<svg width="190" height="163" viewBox="0 0 190 163" fill="none" xmlns="http://www.w3.org/2000/svg">
<path d="M45.0977 27.3994C45.0977 27.3994 58.2178 1.8085 60.4495 0.902266C62.6813 -0.00396705 69.1737 2.67416 68.7138 3.95911C68.254 5.24407 65.5082 17.5797 65.5082 17.5797C65.5082 17.5797 72.5687 13.0214 73.2991 14.8745C74.0295 16.7275 65.4 25.9386 65.4 25.9386L53.646 45.5647L45.0977 27.3994Z" fill="white"/>
<path d="M53.646 46.2411C53.5205 46.2361 53.3987 46.1969 53.2939 46.1278C53.189 46.0586 53.1049 45.9622 53.0509 45.8488L44.5025 27.6971C44.4528 27.6034 44.4268 27.4989 44.4268 27.3928C44.4268 27.2867 44.4528 27.1822 44.5025 27.0884C47.5999 21.0289 57.9067 1.18641 60.2061 0.253129C62.5055 -0.680156 67.3071 1.15936 68.8491 2.6472C69.0882 2.81945 69.2684 3.06119 69.3652 3.33951C69.462 3.61784 69.4707 3.91923 69.3901 4.20268C69.0655 5.08186 67.483 12.0612 66.5767 16.119C68.565 14.9557 71.676 13.4138 73.1097 13.8196C73.3035 13.8773 73.4818 13.9778 73.6316 14.1135C73.7814 14.2493 73.8989 14.4169 73.9754 14.6041C74.7599 16.5518 69.336 22.7196 65.9951 26.3445L54.2682 45.9029C54.2059 46.0113 54.1147 46.1003 54.0049 46.1599C53.8951 46.2196 53.7708 46.2477 53.646 46.2411ZM45.8686 27.4131L53.7137 44.0634L64.8048 25.56L64.8995 25.4383C68.7815 21.2858 72.8257 16.146 72.6499 15.1045C72.0953 14.8205 68.8626 16.2542 65.8869 18.1749C65.7718 18.2483 65.638 18.2874 65.5014 18.2874C65.3649 18.2874 65.2311 18.2483 65.116 18.1749C65.0015 18.0951 64.9133 17.983 64.8628 17.8529C64.8122 17.7229 64.8015 17.5807 64.8319 17.4445C64.9401 16.9576 67.4559 5.59584 68.0105 3.91864C67.426 3.30481 66.7022 2.84085 65.9004 2.56605C63.8445 1.67334 61.6127 1.21346 60.7065 1.63276C59.2998 2.36316 52.0364 15.3886 45.8686 27.4131Z" fill="#003579"/>
<path d="M46.0447 67.8559L60.328 35.6509L44.354 22.125C44.354 22.125 5.12899 72.6576 21.5494 85.6154L59.016 122.352L93.3853 98.1945L46.0447 67.8559Z" fill="#6DB0E2"/>
<path d="M44 21L60 35.5L60.5 36L57.5 43L37.5 27L44 21Z" fill="#6DB0E2" stroke="#003579"/>
<path d="M90.8162 45.6467C92.2375 40.4361 95.6017 35.9683 100.217 33.1623C108.21 28.036 130.109 31.431 134.126 40.3852C138.143 49.3393 126.403 72.8472 126.403 72.8472L88.8008 82.9916L90.8162 45.6467Z" fill="white"/>
<path d="M88.7996 83.6547C88.6401 83.6569 88.4856 83.5989 88.3668 83.4924C88.2806 83.4261 88.2121 83.3395 88.1673 83.2405C88.1225 83.1414 88.1027 83.0328 88.1098 82.9243L90.1116 45.647C90.105 45.6158 90.105 45.5836 90.1116 45.5524C91.5564 40.1419 95.0423 35.5021 99.8367 32.6081C104.544 29.5918 114.174 29.2537 122.736 31.8101C128.89 33.6496 133.164 36.5982 134.747 40.142C138.805 49.2855 127.497 72.1848 127.024 73.1586C126.977 73.2462 126.914 73.3236 126.837 73.3863C126.761 73.449 126.672 73.4958 126.577 73.5239L88.9754 83.6683L88.7996 83.6547ZM91.5048 45.7823L89.5571 82.0722L125.915 72.2524C127.267 69.5472 137.087 48.7445 133.489 40.7101C132.136 37.5991 128.079 34.8399 122.344 33.1491C114.228 30.7415 104.922 31.0121 100.594 33.7849C96.1748 36.4926 92.9315 40.7591 91.5048 45.7417V45.7823Z" fill="#003579"/>
<path d="M124.589 152.5C127.294 132.36 129.053 112.396 126.821 108.595C119.179 95.5836 84.6742 103.537 78.2764 106.458C75.7877 107.595 77.2755 127.978 73.2178 152.446L124.589 152.5Z" fill="#003579"/>
<path d="M156.957 153.447C156.957 153.447 163.923 119.051 153.413 108.812C142.904 98.5729 117.705 100.101 117.705 100.101C117.705 100.101 77.8171 94.5963 65.5626 100.899C60.5716 103.469 54.1333 125.936 48.1143 152.501H82.5782L92.0463 106.729L122.939 107.716L112.795 152.501L156.957 153.447Z" fill="#6DB0E2"/>
<path d="M94.7376 88.794L92.0324 106.77C92.0324 106.77 93.2633 118.659 105.301 117.158C108.855 116.684 112.259 115.424 115.265 113.471C118.272 111.517 120.805 108.919 122.682 105.864L126.32 72.8064C126.32 72.8064 118.205 67.1797 122.871 48.6222C112.098 49.1804 101.301 48.1782 90.8151 45.6465C90.8151 45.6465 84.3903 69.2085 84.769 78.4467C85.1478 87.6849 94.7376 88.794 94.7376 88.794Z" fill="white"/>
<path d="M103.354 117.996C100.732 118.07 98.1655 117.234 96.0907 115.629C93.5137 113.365 91.85 110.239 91.4108 106.837C91.4041 106.779 91.4041 106.72 91.4108 106.661L93.9671 89.3619C91.6407 88.8615 84.3909 86.6567 84.0527 78.5412C83.6875 69.3031 89.8553 46.4984 90.1258 45.5246C90.1734 45.3494 90.2881 45.2 90.4451 45.1089C90.6021 45.0177 90.7887 44.9921 90.9644 45.0377C101.409 47.5438 112.159 48.5368 122.885 47.9863C122.996 47.9816 123.107 48.001 123.21 48.043C123.312 48.085 123.405 48.1487 123.481 48.2298C123.555 48.3131 123.606 48.4141 123.63 48.5231C123.653 48.6321 123.649 48.7454 123.616 48.8519C119.112 66.652 126.713 72.2517 126.794 72.3058C126.897 72.3776 126.979 72.4757 127.032 72.5898C127.084 72.704 127.105 72.8301 127.092 72.955L123.44 106.012C123.438 106.104 123.41 106.193 123.359 106.269C121.442 109.433 118.836 112.125 115.736 114.143C112.635 116.162 109.12 117.456 105.451 117.929C104.754 117.989 104.054 118.012 103.354 117.996ZM92.8174 106.77C93.2343 109.773 94.7062 112.53 96.9699 114.547C98.1537 115.415 99.5016 116.032 100.932 116.362C102.362 116.693 103.844 116.728 105.288 116.468C108.71 116.003 111.988 114.794 114.89 112.924C117.793 111.054 120.25 108.57 122.087 105.647L125.672 73.1173C124.13 71.7648 118.233 65.5429 122.06 49.3659C111.725 49.7914 101.379 48.8223 91.3025 46.4849C90.2881 50.3533 85.1348 70.2499 85.4729 78.4195C85.811 86.9543 94.4811 88.0499 94.8463 88.0905C94.9393 88.1018 95.029 88.1315 95.1103 88.178C95.1916 88.2244 95.2628 88.2867 95.3197 88.361C95.38 88.4337 95.4243 88.5181 95.45 88.609C95.4756 88.6998 95.4819 88.7951 95.4685 88.8885L92.8174 106.77Z" fill="#003579"/>
<path d="M93.3857 98.1942C93.3857 98.1942 97.971 99.655 103.692 95.2726C109.414 90.8902 109.306 87.9551 109.306 87.9551C104.698 89.8716 99.5764 90.1672 94.7789 88.7937L93.3857 98.1942Z" fill="#003579"/>
<path d="M95.3744 99.0994C94.6304 99.1152 93.8879 99.0241 93.1697 98.8289C93.02 98.7798 92.8921 98.6799 92.8081 98.5466C92.7241 98.4132 92.6894 98.2547 92.7098 98.0985L94.0624 88.6304C94.0786 88.5342 94.1146 88.4425 94.1682 88.361C94.2218 88.2795 94.2917 88.21 94.3735 88.1569C94.5468 88.061 94.7507 88.0367 94.9416 88.0893C99.5784 89.4073 104.524 89.1262 108.981 87.2913C109.082 87.2409 109.193 87.2168 109.305 87.2212C109.417 87.2256 109.526 87.2584 109.622 87.3166C109.718 87.3747 109.798 87.4562 109.854 87.5535C109.91 87.6508 109.94 87.7607 109.942 87.8729C109.942 88.2111 109.942 91.2814 104.058 95.7585C101.615 97.8065 98.5599 98.982 95.3744 99.0994ZM94.1436 97.6656C95.4961 97.8821 98.9994 98.0173 103.287 94.7305C105.432 93.3054 107.17 91.348 108.332 89.0497C104.152 90.5403 99.6218 90.7522 95.3203 89.6583L94.1436 97.6656Z" fill="#003579"/>
<path d="M105.558 62.6074C105.558 62.6074 98.9037 72.2649 100.432 73.9827C101.961 75.7005 106.316 74.6319 106.316 74.6319" fill="white"/>
<path d="M103.571 75.6601C102.913 75.7174 102.251 75.6389 101.625 75.4295C100.999 75.2201 100.423 74.8842 99.9322 74.4428C98.2144 72.5221 102.908 65.2587 105.004 62.2695C105.118 62.1371 105.276 62.0515 105.449 62.0292C105.622 62.0069 105.797 62.0496 105.94 62.149C106.083 62.2484 106.184 62.3973 106.224 62.567C106.263 62.7367 106.238 62.9151 106.154 63.0675C102.84 67.8692 100.379 72.8738 100.974 73.5636C101.988 74.6998 105.14 74.2534 106.168 74.01C106.256 73.9886 106.349 73.985 106.439 73.9993C106.529 74.0136 106.615 74.0456 106.693 74.0933C106.771 74.141 106.839 74.2036 106.893 74.2775C106.946 74.3514 106.985 74.4351 107.006 74.524C107.028 74.6128 107.031 74.7049 107.017 74.7951C107.003 74.8853 106.971 74.9718 106.923 75.0497C106.875 75.1276 106.813 75.1953 106.739 75.249C106.665 75.3026 106.581 75.3412 106.492 75.3626C105.532 75.5658 104.552 75.6656 103.571 75.6601Z" fill="#003579"/>
<path d="M104.504 82.3017H104.044C98.4713 82.0718 94.4405 77.6488 94.2647 77.4594C94.1445 77.3249 94.0827 77.1482 94.0929 76.9681C94.103 76.788 94.1843 76.6193 94.3188 76.4991C94.4534 76.3789 94.6301 76.3171 94.8102 76.3272C94.9903 76.3374 95.159 76.4187 95.2792 76.5532C95.2792 76.5532 99.1205 80.7462 104.112 80.9491C105.574 80.9651 107.025 80.6818 108.374 80.1166C109.723 79.5513 110.942 78.7161 111.957 77.6623C112.019 77.5989 112.094 77.5486 112.177 77.5143C112.259 77.4799 112.347 77.4623 112.437 77.4623C112.526 77.4623 112.614 77.4799 112.697 77.5143C112.779 77.5486 112.854 77.5989 112.917 77.6623C113.042 77.791 113.111 77.9632 113.111 78.1425C113.111 78.3217 113.042 78.494 112.917 78.6227C110.7 80.9002 107.681 82.2206 104.504 82.3017Z" fill="#003579"/>
<path d="M114.447 61.4122C114.503 59.9491 114.035 58.7433 113.4 58.7188C112.766 58.6943 112.206 59.8605 112.149 61.3235C112.093 62.7866 112.561 63.9925 113.196 64.017C113.83 64.0415 114.39 62.8753 114.447 61.4122Z" fill="#003579"/>
<path d="M98.5597 59.4741C98.6183 58.01 98.151 56.8025 97.5161 56.7771C96.8811 56.7517 96.3189 57.918 96.2603 59.3821C96.2018 60.8463 96.669 62.0538 97.304 62.0792C97.9389 62.1046 98.5012 60.9383 98.5597 59.4741Z" fill="#003579"/>
<path d="M119.382 67.1648C120.604 65.4973 122.139 64.0825 123.899 62.9988C124.824 62.3507 125.922 61.9971 127.051 61.9844C127.965 62.0941 128.831 62.4545 129.553 63.0259C130.631 63.8228 131.531 64.8359 132.195 66.0005C132.858 67.165 133.272 68.4553 133.408 69.7888C133.54 71.0311 133.359 72.2866 132.881 73.4408C132.044 75.2265 130.609 76.6624 128.823 77.4985C127.034 78.307 125.153 78.8973 123.223 79.2569" fill="white"/>
<path d="M123.143 79.9764C122.989 79.9537 122.847 79.8806 122.739 79.7686C122.631 79.6567 122.563 79.5121 122.546 79.3575C122.529 79.203 122.564 79.0471 122.645 78.9144C122.726 78.7816 122.849 78.6795 122.994 78.6238C124.856 78.2615 126.671 77.6898 128.404 76.9196C130.056 76.1777 131.396 74.8808 132.191 73.2541C132.624 72.2017 132.787 71.0579 132.665 69.9267C132.542 68.6836 132.16 67.4801 131.542 66.3942C130.925 65.3084 130.086 64.3644 129.08 63.6236C128.471 63.1199 127.729 62.8049 126.943 62.7174C125.973 62.7537 125.034 63.0683 124.238 63.6236C122.56 64.6626 121.096 66.0123 119.923 67.6002C119.87 67.6747 119.802 67.7377 119.724 67.7856C119.645 67.8335 119.558 67.8653 119.468 67.8792C119.377 67.893 119.284 67.8886 119.195 67.8663C119.106 67.844 119.023 67.8041 118.949 67.749C118.8 67.6405 118.699 67.4776 118.669 67.2954C118.638 67.1131 118.681 66.9263 118.787 66.7752C120.071 65.0415 121.673 63.5681 123.508 62.4334C124.552 61.7081 125.794 61.321 127.065 61.3242C128.112 61.4298 129.108 61.8335 129.932 62.4875C131.098 63.3472 132.07 64.4434 132.783 65.7044C133.496 66.9654 133.935 68.3627 134.071 69.805C134.225 71.1838 134.03 72.5791 133.503 73.8627C132.57 75.7901 130.998 77.3342 129.053 78.2316C127.215 79.0563 125.285 79.6601 123.305 80.0305L123.143 79.9764Z" fill="#003579"/>
<path d="M147.353 132.941C143.823 137.513 139.143 144.547 134.125 152.54H147.353V132.941Z" fill="#6DB0E2"/>
<path d="M134.125 153.246C134.027 153.243 133.93 153.22 133.841 153.179C133.757 153.142 133.681 153.089 133.618 153.023C133.554 152.957 133.505 152.878 133.472 152.793C133.44 152.707 133.424 152.616 133.427 152.524C133.43 152.432 133.451 152.342 133.489 152.259L146.718 122.015C146.792 121.845 146.93 121.712 147.103 121.643C147.275 121.575 147.467 121.577 147.637 121.65C147.722 121.687 147.797 121.74 147.861 121.806C147.924 121.872 147.974 121.95 148.006 122.036C148.039 122.122 148.054 122.213 148.052 122.305C148.049 122.396 148.027 122.486 147.989 122.57L134.761 152.827C134.708 152.952 134.619 153.058 134.506 153.132C134.393 153.207 134.261 153.247 134.125 153.246Z" fill="#003579"/>
<path d="M54.9044 22.1371C54.7534 22.14 54.6058 22.0924 54.4851 22.0018C54.4106 21.9482 54.3476 21.8803 54.2997 21.8021C54.2518 21.7238 54.22 21.6368 54.2061 21.5461C54.1923 21.4554 54.1967 21.3629 54.219 21.2739C54.2414 21.1849 54.2812 21.1013 54.3363 21.0279C58.5428 15.3065 65.3869 16.8349 65.671 16.9702C65.8518 17.0121 66.0086 17.1238 66.1074 17.2808C66.2062 17.4379 66.239 17.6277 66.1985 17.8088C66.1778 17.898 66.1397 17.9822 66.0862 18.0565C66.0327 18.1307 65.9649 18.1936 65.8869 18.2415C65.8088 18.2893 65.722 18.3212 65.6316 18.3351C65.5411 18.3491 65.4487 18.3449 65.3599 18.3228C65.1029 18.3228 59.1109 16.9702 55.4589 21.9206C55.3898 21.9975 55.3036 22.057 55.2073 22.0946C55.111 22.1322 55.0073 22.1467 54.9044 22.1371Z" fill="#003579"/>
<path d="M32 153L190 153" stroke="#003579"/>
<path d="M32 162H146" stroke="#003579"/>
<path d="M151 162H162" stroke="#003579"/>
<path d="M0 153L26 153" stroke="#003579"/>
<circle cx="55.5" cy="36.7324" r="1.5" fill="white"/>
</svg>
