<svg width="73" height="28" viewBox="0 0 73 28" fill="none" xmlns="http://www.w3.org/2000/svg">
<mask id="mask0_988_117" style="mask-type:luminance" maskUnits="userSpaceOnUse" x="0" y="0" width="73" height="28">
<path d="M73 0H0V28H73V0Z" fill="white"/>
</mask>
<g mask="url(#mask0_988_117)">
<path d="M3.112 20.5743C2.14344 20.0261 1.38228 19.2497 0.82958 18.244C0.27688 17.2394 0 16.0797 0 14.7649C0 13.4512 0.2833 12.2915 0.84989 11.2858C1.41756 10.2811 2.19262 9.50362 3.17614 8.95434C4.15967 8.40507 5.25758 8.12988 6.46775 8.12988C7.67898 8.12988 8.77582 8.40398 9.7604 8.95216C10.745 9.50144 11.5211 10.2778 12.0888 11.2825C12.6565 12.2871 12.9408 13.4468 12.9408 14.7616C12.9408 16.0764 12.6501 17.2361 12.0674 18.2407C11.4848 19.2465 10.698 20.0229 9.707 20.5721C8.71596 21.1214 7.60735 21.3966 6.38115 21.3966C5.16992 21.3966 4.08056 21.1225 3.11093 20.5743H3.112ZM8.00397 18.1381C8.5107 17.852 8.91587 17.4228 9.21841 16.8506C9.521 16.2784 9.6717 15.5828 9.6717 14.7627C9.6717 13.5418 9.3563 12.6016 8.72878 11.9453C8.10018 11.2879 7.33261 10.9604 6.42391 10.9604C5.51522 10.9604 4.75513 11.289 4.14256 11.9464C3.53 12.6038 3.22318 13.5429 3.22425 14.7649C3.22425 15.9868 3.52359 16.926 4.12225 17.5822C4.71985 18.2396 5.47353 18.5672 6.38222 18.5672C6.95737 18.5672 7.49831 18.4242 8.00611 18.1381H8.00397Z" fill="white"/>
<path d="M22.7203 8.64672C23.4313 9.02565 23.9925 9.51594 24.4009 10.1187V8.13347H27.6016L27.6048 20.7919C27.6048 21.9822 27.3707 23.4914 26.9014 24.4272C26.4321 25.3631 25.7286 26.1056 24.79 26.6549C23.8514 27.2042 22.7161 27.4794 21.384 27.4794C19.5976 27.4794 18.133 27.0546 16.9902 26.205C15.8474 25.3543 15.1996 24.1957 15.0478 22.727H18.2036C18.3704 23.3134 18.7296 23.7808 19.2823 24.1291C19.835 24.4764 20.5042 24.6511 21.2921 24.65C22.2157 24.65 22.9641 24.3672 23.5403 23.8026C24.1154 23.238 24.403 21.9375 24.4019 20.7941V19.2358C23.9925 19.8386 23.4291 20.342 22.7107 20.7439C21.9912 21.1458 21.1702 21.3478 20.2476 21.3478C19.1882 21.3478 18.2186 21.0704 17.3409 20.5135C16.4632 19.9566 15.7704 19.1725 15.2627 18.1602C14.7549 17.1479 14.5015 15.9839 14.5015 14.6702C14.5015 13.3718 14.7538 12.2197 15.2616 11.214C15.7683 10.2094 16.4568 9.43624 17.327 8.89351C18.1972 8.35188 19.169 8.08105 20.2444 8.08105C21.183 8.08105 22.0073 8.26997 22.7193 8.64889L22.7203 8.64672ZM23.9476 12.6817C23.6451 12.1171 23.2356 11.6847 22.7214 11.3833C22.2061 11.0819 21.6545 10.9312 21.0633 10.9312C20.4721 10.9312 19.928 11.0786 19.4287 11.3723C18.9295 11.6661 18.5243 12.0953 18.2143 12.6598C17.9043 13.2244 17.7493 13.8927 17.7493 14.6658C17.7493 15.439 17.9043 16.1149 18.2154 16.6948C18.5254 17.2746 18.9348 17.7191 19.4416 18.0281C19.9483 18.3371 20.4892 18.4911 21.0654 18.4911C21.6556 18.4911 22.2083 18.3404 22.7225 18.0379C23.2367 17.7365 23.6451 17.303 23.9487 16.7384C24.2512 16.1739 24.403 15.4979 24.4019 14.7084C24.4019 13.92 24.2501 13.244 23.9476 12.6795V12.6817Z" fill="white"/>
<path d="M34.7921 10.9976L34.7942 17.2133C34.7942 17.6468 34.8968 17.9592 35.101 18.1524C35.3052 18.3457 35.6495 18.4418 36.1337 18.4418H37.6101V21.1784H35.612C32.933 21.1795 31.5924 19.8505 31.5924 17.1904L31.5903 10.9976H29.8584V8.1781H31.5903V4.94141H34.7921V8.17701H37.608V10.9966L34.7921 10.9976Z" fill="white"/>
<path d="M43.7019 8.17451L43.7051 21.177H40.5257L40.5225 8.17559H43.7019V8.17451ZM43.7051 6.55069V3.2998H40.5225V6.5496H43.7051V6.55069Z" fill="white"/>
<path d="M46.9698 11.2602C47.5161 10.2632 48.2741 9.48897 49.2437 8.9397C50.2123 8.39042 51.3219 8.11523 52.5727 8.11523C54.1827 8.11523 55.5147 8.51272 56.5699 9.30879C57.625 10.1049 58.3328 11.222 58.692 12.6601H55.1523C54.9642 12.1043 54.6477 11.6675 54.203 11.3508C53.7572 11.0342 53.2067 10.8758 52.5503 10.8758C51.6127 10.8758 50.8708 11.2121 50.3234 11.8859C49.7761 12.5586 49.5035 13.5141 49.5035 14.7502C49.5035 15.9722 49.7772 16.9189 50.3245 17.5916C50.8719 18.2643 51.6138 18.6006 52.5513 18.5995C53.8791 18.5995 54.7472 18.0109 55.1534 16.836H58.693C58.3338 18.2272 57.6229 19.3323 56.5603 20.1524C55.4976 20.9725 54.1699 21.382 52.5749 21.383C51.3241 21.383 50.2155 21.109 49.2458 20.5608C48.2762 20.0126 47.5183 19.2394 46.9709 18.2425C46.4236 17.2455 46.1499 16.0825 46.1499 14.7524C46.1499 13.4224 46.4225 12.2594 46.9688 11.2613L46.9698 11.2602Z" fill="white"/>
<path d="M63.7655 0H67.0614L65.413 2.91564L63.7645 5.8291L62.1181 2.91564L60.4707 0H63.7655Z" fill="#0066CC"/>
<path d="M73.0001 10.647L63.7646 5.8291L66.2865 10.647H73.0001Z" fill="#8ADB19"/>
<path d="M67.0616 0L63.7646 5.8291L73.0001 10.647L67.0616 0Z" fill="#00B0CB"/>
<path d="M63.7656 21.2939H67.0615L65.413 18.3794L63.7645 15.4648L62.1182 18.3794L60.4697 21.2939H63.7656Z" fill="#F10000"/>
<path d="M73.0001 10.6475L63.7646 15.4654L66.2865 10.6475H73.0001Z" fill="#FFC000"/>
<path d="M67.0616 21.2945L63.7646 15.4654L73.0001 10.6475L67.0616 21.2945Z" fill="#FF7300"/>
</g>
</svg>
