<svg width="263" height="687" viewBox="0 0 263 687" fill="none" xmlns="http://www.w3.org/2000/svg">
<path d="M19.0709 5.76705C20.6676 5.76705 21.9494 4.48298 21.9494 2.88353C21.9494 1.28407 20.6676 0 19.0709 0C17.4742 0 16.1924 1.28407 16.1924 2.88353C16.1924 4.48298 17.4742 5.76705 19.0709 5.76705Z" fill="#6DB0E2"/>
<path d="M51.4537 5.76705C53.0504 5.76705 54.3322 4.48298 54.3322 2.88353C54.3322 1.28407 53.0504 0 51.4537 0C49.857 0 48.5752 1.28407 48.5752 2.88353C48.5752 4.48298 49.857 5.76705 51.4537 5.76705Z" fill="#6DB0E2"/>
<path d="M83.8375 5.76705C85.4342 5.76705 86.716 4.48298 86.716 2.88353C86.716 1.28407 85.4342 0 83.8375 0C82.2408 0 80.959 1.28407 80.959 2.88353C80.959 4.48298 82.2408 5.76705 83.8375 5.76705Z" fill="#6DB0E2"/>
<path d="M116.22 5.76705C117.81 5.76705 119.099 4.47605 119.099 2.88353C119.099 1.291 117.81 0 116.22 0C114.631 0 113.342 1.291 113.342 2.88353C113.342 4.47605 114.631 5.76705 116.22 5.76705Z" fill="#6DB0E2"/>
<path d="M148.604 5.76705C150.2 5.76705 151.482 4.48298 151.482 2.88353C151.482 1.28407 150.2 0 148.604 0C147.007 0 145.725 1.28407 145.725 2.88353C145.725 4.48298 147.007 5.76705 148.604 5.76705Z" fill="#6DB0E2"/>
<path d="M180.987 5.76705C182.584 5.76705 183.865 4.48298 183.865 2.88353C183.865 1.28407 182.584 0 180.987 0C179.39 0 178.108 1.28407 178.108 2.88353C178.108 4.48298 179.39 5.76705 180.987 5.76705Z" fill="#6DB0E2"/>
<path d="M213.371 5.76705C214.967 5.76705 216.249 4.48298 216.249 2.88353C216.249 1.28407 214.967 0 213.371 0C211.774 0 210.492 1.28407 210.492 2.88353C210.492 4.48298 211.774 5.76705 213.371 5.76705Z" fill="#6DB0E2"/>
<path d="M245.754 5.76705C247.351 5.76705 248.633 4.48298 248.633 2.88353C248.633 1.28407 247.351 0 245.754 0C244.157 0 242.875 1.28407 242.875 2.88353C242.875 4.48298 244.157 5.76705 245.754 5.76705Z" fill="#6DB0E2"/>
<path d="M2.87852 38.2065C4.4752 38.2065 5.75705 36.9224 5.75705 35.323C5.75705 33.7235 4.4752 32.4395 2.87852 32.4395C1.28184 32.4395 0 33.7235 0 35.323C0 36.9224 1.28184 38.2065 2.87852 38.2065Z" fill="#6DB0E2"/>
<path d="M35.2613 38.2065C36.8511 38.2065 38.1398 36.9155 38.1398 35.323C38.1398 33.7305 36.8511 32.4395 35.2613 32.4395C33.6716 32.4395 32.3828 33.7305 32.3828 35.323C32.3828 36.9155 33.6716 38.2065 35.2613 38.2065Z" fill="#6DB0E2"/>
<path d="M67.6451 38.2065C69.2418 38.2065 70.5237 36.9224 70.5237 35.323C70.5237 33.7235 69.2418 32.4395 67.6451 32.4395C66.0484 32.4395 64.7666 33.7235 64.7666 35.323C64.7666 36.9224 66.0484 38.2065 67.6451 38.2065Z" fill="#6DB0E2"/>
<path d="M100.029 38.2065C101.626 38.2065 102.907 36.9224 102.907 35.323C102.907 33.7235 101.626 32.4395 100.029 32.4395C98.4322 32.4395 97.1504 33.7235 97.1504 35.323C97.1504 36.9224 98.4322 38.2065 100.029 38.2065Z" fill="#6DB0E2"/>
<path d="M132.412 38.2065C134.009 38.2065 135.291 36.9224 135.291 35.323C135.291 33.7235 134.009 32.4395 132.412 32.4395C130.816 32.4395 129.534 33.7235 129.534 35.323C129.534 36.9224 130.816 38.2065 132.412 38.2065Z" fill="#6DB0E2"/>
<path d="M164.796 38.2065C166.392 38.2065 167.674 36.9224 167.674 35.323C167.674 33.7235 166.392 32.4395 164.796 32.4395C163.199 32.4395 161.917 33.7235 161.917 35.323C161.917 36.9224 163.199 38.2065 164.796 38.2065Z" fill="#6DB0E2"/>
<path d="M197.179 38.2065C198.769 38.2065 200.057 36.9155 200.057 35.323C200.057 33.7305 198.769 32.4395 197.179 32.4395C195.589 32.4395 194.3 33.7305 194.3 35.323C194.3 36.9155 195.589 38.2065 197.179 38.2065Z" fill="#6DB0E2"/>
<path d="M229.562 38.2065C231.159 38.2065 232.441 36.9224 232.441 35.323C232.441 33.7235 231.159 32.4395 229.562 32.4395C227.965 32.4395 226.684 33.7235 226.684 35.323C226.684 36.9224 227.965 38.2065 229.562 38.2065Z" fill="#6DB0E2"/>
<path d="M19.0709 70.646C20.6676 70.646 21.9494 69.3619 21.9494 67.7624C21.9494 66.163 20.6676 64.8789 19.0709 64.8789C17.4742 64.8789 16.1924 66.163 16.1924 67.7624C16.1924 69.3619 17.4742 70.646 19.0709 70.646Z" fill="#6DB0E2"/>
<path d="M51.4537 70.646C53.0504 70.646 54.3322 69.3619 54.3322 67.7624C54.3322 66.163 53.0504 64.8789 51.4537 64.8789C49.857 64.8789 48.5752 66.163 48.5752 67.7624C48.5752 69.3619 49.857 70.646 51.4537 70.646Z" fill="#6DB0E2"/>
<path d="M83.8375 70.646C85.4342 70.646 86.716 69.3619 86.716 67.7624C86.716 66.163 85.4342 64.8789 83.8375 64.8789C82.2408 64.8789 80.959 66.163 80.959 67.7624C80.959 69.3619 82.2408 70.646 83.8375 70.646Z" fill="#6DB0E2"/>
<path d="M116.22 70.646C117.817 70.646 119.099 69.3619 119.099 67.7624C119.099 66.163 117.817 64.8789 116.22 64.8789C114.624 64.8789 113.342 66.163 113.342 67.7624C113.342 69.3619 114.624 70.646 116.22 70.646Z" fill="#6DB0E2"/>
<path d="M148.604 70.646C150.2 70.646 151.482 69.3619 151.482 67.7624C151.482 66.163 150.2 64.8789 148.604 64.8789C147.007 64.8789 145.725 66.163 145.725 67.7624C145.725 69.3619 147.007 70.646 148.604 70.646Z" fill="#6DB0E2"/>
<path d="M180.987 70.646C182.584 70.646 183.865 69.3619 183.865 67.7624C183.865 66.163 182.584 64.8789 180.987 64.8789C179.39 64.8789 178.108 66.163 178.108 67.7624C178.108 69.3619 179.39 70.646 180.987 70.646Z" fill="#6DB0E2"/>
<path d="M213.371 70.646C214.967 70.646 216.249 69.3619 216.249 67.7624C216.249 66.163 214.967 64.8789 213.371 64.8789C211.774 64.8789 210.492 66.163 210.492 67.7624C210.492 69.3619 211.774 70.646 213.371 70.646Z" fill="#6DB0E2"/>
<path d="M245.754 70.646C247.351 70.646 248.633 69.3619 248.633 67.7624C248.633 66.163 247.351 64.8789 245.754 64.8789C244.157 64.8789 242.875 66.163 242.875 67.7624C242.875 69.3619 244.157 70.646 245.754 70.646Z" fill="#6DB0E2"/>
<path d="M2.87852 103.085C4.4752 103.085 5.75705 101.801 5.75705 100.202C5.75705 98.6024 4.4752 97.3184 2.87852 97.3184C1.28184 97.3184 0 98.6024 0 100.202C0 101.801 1.28184 103.085 2.87852 103.085Z" fill="#6DB0E2"/>
<path d="M35.2613 103.085C36.858 103.085 38.1398 101.801 38.1398 100.202C38.1398 98.6024 36.858 97.3184 35.2613 97.3184C33.6646 97.3184 32.3828 98.6024 32.3828 100.202C32.3828 101.801 33.6646 103.085 35.2613 103.085Z" fill="#6DB0E2"/>
<path d="M67.6451 103.085C69.2418 103.085 70.5237 101.801 70.5237 100.202C70.5237 98.6024 69.2418 97.3184 67.6451 97.3184C66.0484 97.3184 64.7666 98.6024 64.7666 100.202C64.7666 101.801 66.0484 103.085 67.6451 103.085Z" fill="#6DB0E2"/>
<path d="M100.029 103.085C101.626 103.085 102.907 101.801 102.907 100.202C102.907 98.6024 101.626 97.3184 100.029 97.3184C98.4322 97.3184 97.1504 98.6024 97.1504 100.202C97.1504 101.801 98.4322 103.085 100.029 103.085Z" fill="#6DB0E2"/>
<path d="M132.412 103.085C134.009 103.085 135.291 101.801 135.291 100.202C135.291 98.6024 134.009 97.3184 132.412 97.3184C130.816 97.3184 129.534 98.6024 129.534 100.202C129.534 101.801 130.816 103.085 132.412 103.085Z" fill="#6DB0E2"/>
<path d="M164.796 103.085C166.392 103.085 167.674 101.801 167.674 100.202C167.674 98.6024 166.392 97.3184 164.796 97.3184C163.199 97.3184 161.917 98.6024 161.917 100.202C161.917 101.801 163.199 103.085 164.796 103.085Z" fill="#6DB0E2"/>
<path d="M197.179 103.085C198.775 103.085 200.057 101.801 200.057 100.202C200.057 98.6024 198.775 97.3184 197.179 97.3184C195.582 97.3184 194.3 98.6024 194.3 100.202C194.3 101.801 195.582 103.085 197.179 103.085Z" fill="#6DB0E2"/>
<path d="M229.562 103.085C231.159 103.085 232.441 101.801 232.441 100.202C232.441 98.6024 231.159 97.3184 229.562 97.3184C227.965 97.3184 226.684 98.6024 226.684 100.202C226.684 101.801 227.965 103.085 229.562 103.085Z" fill="#6DB0E2"/>
<path d="M19.0709 135.525C20.6676 135.525 21.9494 134.241 21.9494 132.641C21.9494 131.042 20.6676 129.758 19.0709 129.758C17.4742 129.758 16.1924 131.042 16.1924 132.641C16.1924 134.241 17.4742 135.525 19.0709 135.525Z" fill="#6DB0E2"/>
<path d="M51.4537 135.525C53.0504 135.525 54.3322 134.241 54.3322 132.641C54.3322 131.042 53.0504 129.758 51.4537 129.758C49.857 129.758 48.5752 131.042 48.5752 132.641C48.5752 134.241 49.857 135.525 51.4537 135.525Z" fill="#6DB0E2"/>
<path d="M83.8375 135.525C85.4342 135.525 86.716 134.241 86.716 132.641C86.716 131.042 85.4342 129.758 83.8375 129.758C82.2408 129.758 80.959 131.042 80.959 132.641C80.959 134.241 82.2408 135.525 83.8375 135.525Z" fill="#6DB0E2"/>
<path d="M116.22 135.525C117.817 135.525 119.099 134.241 119.099 132.641C119.099 131.042 117.817 129.758 116.22 129.758C114.624 129.758 113.342 131.042 113.342 132.641C113.342 134.241 114.624 135.525 116.22 135.525Z" fill="#6DB0E2"/>
<path d="M148.604 135.525C150.2 135.525 151.482 134.241 151.482 132.641C151.482 131.042 150.2 129.758 148.604 129.758C147.007 129.758 145.725 131.042 145.725 132.641C145.725 134.241 147.007 135.525 148.604 135.525Z" fill="#6DB0E2"/>
<path d="M180.987 135.525C182.584 135.525 183.865 134.241 183.865 132.641C183.865 131.042 182.584 129.758 180.987 129.758C179.39 129.758 178.108 131.042 178.108 132.641C178.108 134.241 179.39 135.525 180.987 135.525Z" fill="#6DB0E2"/>
<path d="M213.371 135.525C214.967 135.525 216.249 134.241 216.249 132.641C216.249 131.042 214.967 129.758 213.371 129.758C211.774 129.758 210.492 131.042 210.492 132.641C210.492 134.241 211.774 135.525 213.371 135.525Z" fill="#6DB0E2"/>
<path d="M245.754 135.525C247.351 135.525 248.633 134.241 248.633 132.641C248.633 131.042 247.351 129.758 245.754 129.758C244.157 129.758 242.875 131.042 242.875 132.641C242.875 134.241 244.157 135.525 245.754 135.525Z" fill="#6DB0E2"/>
<path d="M2.87852 167.966C4.4752 167.966 5.75705 166.682 5.75705 165.083C5.75705 163.483 4.4752 162.199 2.87852 162.199C1.28184 162.199 0 163.483 0 165.083C0 166.682 1.28184 167.966 2.87852 167.966Z" fill="#6DB0E2"/>
<path d="M35.2613 167.966C36.8511 167.966 38.1398 166.675 38.1398 165.083C38.1398 163.49 36.8511 162.199 35.2613 162.199C33.6716 162.199 32.3828 163.49 32.3828 165.083C32.3828 166.675 33.6716 167.966 35.2613 167.966Z" fill="#6DB0E2"/>
<path d="M67.6451 167.966C69.2418 167.966 70.5237 166.682 70.5237 165.083C70.5237 163.483 69.2418 162.199 67.6451 162.199C66.0484 162.199 64.7666 163.483 64.7666 165.083C64.7666 166.682 66.0484 167.966 67.6451 167.966Z" fill="#6DB0E2"/>
<path d="M100.029 167.966C101.626 167.966 102.907 166.682 102.907 165.083C102.907 163.483 101.626 162.199 100.029 162.199C98.4322 162.199 97.1504 163.483 97.1504 165.083C97.1504 166.682 98.4322 167.966 100.029 167.966Z" fill="#6DB0E2"/>
<path d="M132.412 167.966C134.009 167.966 135.291 166.682 135.291 165.083C135.291 163.483 134.009 162.199 132.412 162.199C130.816 162.199 129.534 163.483 129.534 165.083C129.534 166.682 130.816 167.966 132.412 167.966Z" fill="#6DB0E2"/>
<path d="M164.796 167.966C166.392 167.966 167.674 166.682 167.674 165.083C167.674 163.483 166.392 162.199 164.796 162.199C163.199 162.199 161.917 163.483 161.917 165.083C161.917 166.682 163.199 167.966 164.796 167.966Z" fill="#6DB0E2"/>
<path d="M197.179 167.966C198.769 167.966 200.057 166.675 200.057 165.083C200.057 163.49 198.769 162.199 197.179 162.199C195.589 162.199 194.3 163.49 194.3 165.083C194.3 166.675 195.589 167.966 197.179 167.966Z" fill="#6DB0E2"/>
<path d="M229.562 167.966C231.159 167.966 232.441 166.682 232.441 165.083C232.441 163.483 231.159 162.199 229.562 162.199C227.965 162.199 226.684 163.483 226.684 165.083C226.684 166.682 227.965 167.966 229.562 167.966Z" fill="#6DB0E2"/>
<path d="M19.0709 200.406C20.6676 200.406 21.9494 199.122 21.9494 197.522C21.9494 195.923 20.6676 194.639 19.0709 194.639C17.4742 194.639 16.1924 195.923 16.1924 197.522C16.1924 199.122 17.4742 200.406 19.0709 200.406Z" fill="#6DB0E2"/>
<path d="M51.4537 200.406C53.0504 200.406 54.3322 199.122 54.3322 197.522C54.3322 195.923 53.0504 194.639 51.4537 194.639C49.857 194.639 48.5752 195.923 48.5752 197.522C48.5752 199.122 49.857 200.406 51.4537 200.406Z" fill="#6DB0E2"/>
<path d="M83.8375 200.406C85.4342 200.406 86.716 199.122 86.716 197.522C86.716 195.923 85.4342 194.639 83.8375 194.639C82.2408 194.639 80.959 195.923 80.959 197.522C80.959 199.122 82.2408 200.406 83.8375 200.406Z" fill="#6DB0E2"/>
<path d="M116.22 200.406C117.81 200.406 119.099 199.115 119.099 197.522C119.099 195.93 117.81 194.639 116.22 194.639C114.631 194.639 113.342 195.93 113.342 197.522C113.342 199.115 114.631 200.406 116.22 200.406Z" fill="#6DB0E2"/>
<path d="M148.604 200.406C150.2 200.406 151.482 199.122 151.482 197.522C151.482 195.923 150.2 194.639 148.604 194.639C147.007 194.639 145.725 195.923 145.725 197.522C145.725 199.122 147.007 200.406 148.604 200.406Z" fill="#6DB0E2"/>
<path d="M180.987 200.406C182.584 200.406 183.865 199.122 183.865 197.522C183.865 195.923 182.584 194.639 180.987 194.639C179.39 194.639 178.108 195.923 178.108 197.522C178.108 199.122 179.39 200.406 180.987 200.406Z" fill="#6DB0E2"/>
<path d="M213.371 200.406C214.967 200.406 216.249 199.122 216.249 197.522C216.249 195.923 214.967 194.639 213.371 194.639C211.774 194.639 210.492 195.923 210.492 197.522C210.492 199.122 211.774 200.406 213.371 200.406Z" fill="#6DB0E2"/>
<path d="M245.754 200.406C247.351 200.406 248.633 199.122 248.633 197.522C248.633 195.923 247.351 194.639 245.754 194.639C244.157 194.639 242.875 195.923 242.875 197.522C242.875 199.122 244.157 200.406 245.754 200.406Z" fill="#6DB0E2"/>
<path d="M2.87852 232.845C4.4752 232.845 5.75705 231.561 5.75705 229.962C5.75705 228.362 4.4752 227.078 2.87852 227.078C1.28184 227.078 0 228.362 0 229.962C0 231.561 1.28184 232.845 2.87852 232.845Z" fill="#6DB0E2"/>
<path d="M35.2613 232.845C36.858 232.845 38.1398 231.561 38.1398 229.962C38.1398 228.362 36.858 227.078 35.2613 227.078C33.6646 227.078 32.3828 228.362 32.3828 229.962C32.3828 231.561 33.6646 232.845 35.2613 232.845Z" fill="#6DB0E2"/>
<path d="M67.6451 232.845C69.2418 232.845 70.5237 231.561 70.5237 229.962C70.5237 228.362 69.2418 227.078 67.6451 227.078C66.0484 227.078 64.7666 228.362 64.7666 229.962C64.7666 231.561 66.0484 232.845 67.6451 232.845Z" fill="#6DB0E2"/>
<path d="M100.029 232.845C101.626 232.845 102.907 231.561 102.907 229.962C102.907 228.362 101.626 227.078 100.029 227.078C98.4322 227.078 97.1504 228.362 97.1504 229.962C97.1504 231.561 98.4322 232.845 100.029 232.845Z" fill="#6DB0E2"/>
<path d="M132.412 232.845C134.009 232.845 135.291 231.561 135.291 229.962C135.291 228.362 134.009 227.078 132.412 227.078C130.816 227.078 129.534 228.362 129.534 229.962C129.534 231.561 130.816 232.845 132.412 232.845Z" fill="#6DB0E2"/>
<path d="M164.796 232.845C166.392 232.845 167.674 231.561 167.674 229.962C167.674 228.362 166.392 227.078 164.796 227.078C163.199 227.078 161.917 228.362 161.917 229.962C161.917 231.561 163.199 232.845 164.796 232.845Z" fill="#6DB0E2"/>
<path d="M197.179 232.845C198.775 232.845 200.057 231.561 200.057 229.962C200.057 228.362 198.775 227.078 197.179 227.078C195.582 227.078 194.3 228.362 194.3 229.962C194.3 231.561 195.582 232.845 197.179 232.845Z" fill="#6DB0E2"/>
<path d="M229.562 232.845C231.159 232.845 232.441 231.561 232.441 229.962C232.441 228.362 231.159 227.078 229.562 227.078C227.965 227.078 226.684 228.362 226.684 229.962C226.684 231.561 227.965 232.845 229.562 232.845Z" fill="#6DB0E2"/>
<path d="M19.0709 265.285C20.6676 265.285 21.9494 264.001 21.9494 262.401C21.9494 260.802 20.6676 259.518 19.0709 259.518C17.4742 259.518 16.1924 260.802 16.1924 262.401C16.1924 264.001 17.4742 265.285 19.0709 265.285Z" fill="#6DB0E2"/>
<path d="M51.4537 265.285C53.0504 265.285 54.3322 264.001 54.3322 262.401C54.3322 260.802 53.0504 259.518 51.4537 259.518C49.857 259.518 48.5752 260.802 48.5752 262.401C48.5752 264.001 49.857 265.285 51.4537 265.285Z" fill="#6DB0E2"/>
<path d="M83.8375 265.285C85.4342 265.285 86.716 264.001 86.716 262.401C86.716 260.802 85.4342 259.518 83.8375 259.518C82.2408 259.518 80.959 260.802 80.959 262.401C80.959 264.001 82.2408 265.285 83.8375 265.285Z" fill="#6DB0E2"/>
<path d="M116.22 265.285C117.817 265.285 119.099 264.001 119.099 262.401C119.099 260.802 117.817 259.518 116.22 259.518C114.624 259.518 113.342 260.802 113.342 262.401C113.342 264.001 114.624 265.285 116.22 265.285Z" fill="#6DB0E2"/>
<path d="M148.604 265.285C150.2 265.285 151.482 264.001 151.482 262.401C151.482 260.802 150.2 259.518 148.604 259.518C147.007 259.518 145.725 260.802 145.725 262.401C145.725 264.001 147.007 265.285 148.604 265.285Z" fill="#6DB0E2"/>
<path d="M180.987 265.285C182.584 265.285 183.865 264.001 183.865 262.401C183.865 260.802 182.584 259.518 180.987 259.518C179.39 259.518 178.108 260.802 178.108 262.401C178.108 264.001 179.39 265.285 180.987 265.285Z" fill="#6DB0E2"/>
<path d="M213.371 265.285C214.967 265.285 216.249 264.001 216.249 262.401C216.249 260.802 214.967 259.518 213.371 259.518C211.774 259.518 210.492 260.802 210.492 262.401C210.492 264.001 211.774 265.285 213.371 265.285Z" fill="#6DB0E2"/>
<path d="M245.754 265.285C247.351 265.285 248.633 264.001 248.633 262.401C248.633 260.802 247.351 259.518 245.754 259.518C244.157 259.518 242.875 260.802 242.875 262.401C242.875 264.001 244.157 265.285 245.754 265.285Z" fill="#6DB0E2"/>
<path d="M2.87852 297.724C4.4752 297.724 5.75705 296.44 5.75705 294.841C5.75705 293.241 4.4752 291.957 2.87852 291.957C1.28184 291.957 0 293.241 0 294.841C0 296.44 1.28184 297.724 2.87852 297.724Z" fill="#6DB0E2"/>
<path d="M35.2613 297.724C36.858 297.724 38.1398 296.44 38.1398 294.841C38.1398 293.241 36.858 291.957 35.2613 291.957C33.6646 291.957 32.3828 293.241 32.3828 294.841C32.3828 296.44 33.6646 297.724 35.2613 297.724Z" fill="#6DB0E2"/>
<path d="M67.6451 297.724C69.2418 297.724 70.5237 296.44 70.5237 294.841C70.5237 293.241 69.2418 291.957 67.6451 291.957C66.0484 291.957 64.7666 293.241 64.7666 294.841C64.7666 296.44 66.0484 297.724 67.6451 297.724Z" fill="#6DB0E2"/>
<path d="M100.029 297.724C101.626 297.724 102.907 296.44 102.907 294.841C102.907 293.241 101.626 291.957 100.029 291.957C98.4322 291.957 97.1504 293.241 97.1504 294.841C97.1504 296.44 98.4322 297.724 100.029 297.724Z" fill="#6DB0E2"/>
<path d="M132.412 297.724C134.009 297.724 135.291 296.44 135.291 294.841C135.291 293.241 134.009 291.957 132.412 291.957C130.816 291.957 129.534 293.241 129.534 294.841C129.534 296.44 130.816 297.724 132.412 297.724Z" fill="#6DB0E2"/>
<path d="M164.796 297.724C166.392 297.724 167.674 296.44 167.674 294.841C167.674 293.241 166.392 291.957 164.796 291.957C163.199 291.957 161.917 293.241 161.917 294.841C161.917 296.44 163.199 297.724 164.796 297.724Z" fill="#6DB0E2"/>
<path d="M197.179 297.724C198.775 297.724 200.057 296.44 200.057 294.841C200.057 293.241 198.775 291.957 197.179 291.957C195.582 291.957 194.3 293.241 194.3 294.841C194.3 296.44 195.582 297.724 197.179 297.724Z" fill="#6DB0E2"/>
<path d="M229.562 297.724C231.159 297.724 232.441 296.44 232.441 294.841C232.441 293.241 231.159 291.957 229.562 291.957C227.965 291.957 226.684 293.241 226.684 294.841C226.684 296.44 227.965 297.724 229.562 297.724Z" fill="#6DB0E2"/>
<path d="M19.0709 330.164C20.6676 330.164 21.9494 328.879 21.9494 327.28C21.9494 325.681 20.6676 324.396 19.0709 324.396C17.4742 324.396 16.1924 325.681 16.1924 327.28C16.1924 328.879 17.4742 330.164 19.0709 330.164Z" fill="#6DB0E2"/>
<path d="M51.4537 330.164C53.0504 330.164 54.3322 328.879 54.3322 327.28C54.3322 325.681 53.0504 324.396 51.4537 324.396C49.857 324.396 48.5752 325.681 48.5752 327.28C48.5752 328.879 49.857 330.164 51.4537 330.164Z" fill="#6DB0E2"/>
<path d="M83.8375 330.164C85.4342 330.164 86.716 328.879 86.716 327.28C86.716 325.681 85.4342 324.396 83.8375 324.396C82.2408 324.396 80.959 325.681 80.959 327.28C80.959 328.879 82.2408 330.164 83.8375 330.164Z" fill="#6DB0E2"/>
<path d="M116.22 330.164C117.81 330.164 119.099 328.873 119.099 327.28C119.099 325.687 117.81 324.396 116.22 324.396C114.631 324.396 113.342 325.687 113.342 327.28C113.342 328.873 114.631 330.164 116.22 330.164Z" fill="#6DB0E2"/>
<path d="M148.604 330.164C150.2 330.164 151.482 328.879 151.482 327.28C151.482 325.681 150.2 324.396 148.604 324.396C147.007 324.396 145.725 325.681 145.725 327.28C145.725 328.879 147.007 330.164 148.604 330.164Z" fill="#6DB0E2"/>
<path d="M180.987 330.164C182.584 330.164 183.865 328.879 183.865 327.28C183.865 325.681 182.584 324.396 180.987 324.396C179.39 324.396 178.108 325.681 178.108 327.28C178.108 328.879 179.39 330.164 180.987 330.164Z" fill="#6DB0E2"/>
<path d="M213.371 330.164C214.967 330.164 216.249 328.879 216.249 327.28C216.249 325.681 214.967 324.396 213.371 324.396C211.774 324.396 210.492 325.681 210.492 327.28C210.492 328.879 211.774 330.164 213.371 330.164Z" fill="#6DB0E2"/>
<path d="M245.754 330.164C247.351 330.164 248.633 328.879 248.633 327.28C248.633 325.681 247.351 324.396 245.754 324.396C244.157 324.396 242.875 325.681 242.875 327.28C242.875 328.879 244.157 330.164 245.754 330.164Z" fill="#6DB0E2"/>
</svg>
