<svg width="156" height="267" viewBox="0 0 156 267" fill="none" xmlns="http://www.w3.org/2000/svg">
<path d="M77.0531 97.5885C67.4784 97.5885 58.1187 94.7493 50.1576 89.4299C42.1966 84.1105 35.9917 76.5498 32.3276 67.7039C28.6636 58.8581 27.7049 49.1244 29.5728 39.7337C31.4407 30.343 36.0514 21.717 42.8217 14.9467C49.592 8.17638 58.2179 3.56572 67.6086 1.69779C76.9993 -0.170134 86.7331 0.788551 95.5789 4.45262C104.425 8.1167 111.985 14.3216 117.305 22.2827C122.624 30.2437 125.464 39.6034 125.464 49.1781C125.449 62.0128 120.344 74.3175 111.268 83.3931C102.193 92.4686 89.8878 97.5737 77.0531 97.5885ZM77.0531 2.65469C67.8471 2.65469 58.8479 5.38482 51.1937 10.4998C43.5395 15.6147 37.5741 22.8847 34.052 31.3902C30.5299 39.8957 29.6093 49.2548 31.4067 58.2835C33.204 67.3123 37.6386 75.6053 44.1495 82.1136C50.6604 88.6218 58.9551 93.0531 67.9846 94.8468C77.0141 96.6405 86.3728 95.7162 94.8769 92.1906C103.381 88.6651 110.649 82.6968 115.76 75.0405C120.872 67.3843 123.599 58.384 123.595 49.1781C123.575 36.8421 118.665 25.0174 109.94 16.2963C101.216 7.57524 89.389 2.66952 77.0531 2.65469Z" fill="#012E6C"/>
<path d="M111.057 36.9805C110.726 37.5152 110.351 38.0214 109.936 38.4939L70.1016 78.2723C69.8971 78.5806 69.6194 78.8335 69.2934 79.0085C68.9674 79.1835 68.6032 79.275 68.2332 79.275C67.8632 79.275 67.499 79.1835 67.173 79.0085C66.847 78.8335 66.5693 78.5806 66.3648 78.2723C58.8912 70.5745 51.4175 62.8642 43.9439 55.1414C43.6619 54.9297 43.4353 54.6529 43.2834 54.3346C43.1315 54.0163 43.0589 53.666 43.0718 53.3136C43.0846 52.9611 43.1825 52.617 43.3572 52.3107C43.5318 52.0043 43.778 51.7447 44.0747 51.5541L49.6799 46.4907C49.8811 46.2377 50.1369 46.0334 50.428 45.8929C50.7192 45.7525 51.0382 45.6796 51.3615 45.6796C51.6847 45.6796 52.0038 45.7525 52.2949 45.8929C52.5861 46.0334 52.8418 46.2377 53.043 46.4907L66.2901 59.9806C67.6727 61.3819 68.7003 61.4006 70.0269 59.9806L100.968 29.1705C101.169 28.8582 101.446 28.6013 101.772 28.4234C102.099 28.2455 102.464 28.1523 102.836 28.1523C103.208 28.1523 103.574 28.2455 103.9 28.4234C104.226 28.6013 104.503 28.8582 104.705 29.1705C106.461 30.9268 108.217 32.6831 109.936 34.4581C110.333 34.923 110.695 35.4164 111.02 35.9342L111.057 36.9805Z" fill="#65C97A"/>
<path d="M21.9715 21.9008C21.7782 21.8999 21.5896 21.8413 21.4297 21.7326L0.877213 7.53271C0.677174 7.38661 0.541884 7.16836 0.50003 6.92422C0.458176 6.68007 0.513057 6.42922 0.653013 6.22483C0.722081 6.12441 0.810483 6.03879 0.913078 5.97299C1.01567 5.90719 1.13038 5.86254 1.25046 5.84166C1.37054 5.82078 1.49358 5.82409 1.61236 5.85138C1.73115 5.87868 1.84327 5.92941 1.94219 6.00062L22.4947 20.2005C22.5966 20.2681 22.6839 20.3555 22.7515 20.4574C22.8191 20.5593 22.8656 20.6737 22.8882 20.7939C22.9108 20.914 22.9092 21.0375 22.8833 21.157C22.8574 21.2765 22.8079 21.3897 22.7376 21.4897C22.6528 21.6152 22.5388 21.7182 22.4053 21.7898C22.2719 21.8614 22.123 21.8995 21.9715 21.9008Z" fill="#012E6C"/>
<path d="M1.4581 92.5464C1.30776 92.5505 1.15879 92.5167 1.02493 92.4482C0.891065 92.3796 0.776596 92.2785 0.69205 92.1541C0.552095 91.9497 0.497242 91.6989 0.539096 91.4547C0.58095 91.2106 0.71624 90.9923 0.916279 90.8462L21.4688 76.6463C21.5703 76.5755 21.6849 76.5256 21.8059 76.4995C21.9269 76.4734 22.0518 76.4716 22.1735 76.4942C22.2952 76.5168 22.4112 76.5634 22.5147 76.6312C22.6182 76.699 22.7073 76.7867 22.7767 76.8892C22.847 76.9892 22.8965 77.1024 22.9224 77.2219C22.9482 77.3414 22.9499 77.4649 22.9272 77.585C22.9046 77.7052 22.8581 77.8196 22.7905 77.9215C22.723 78.0234 22.6356 78.1108 22.5338 78.1784L1.98126 92.3783C1.82935 92.4889 1.64599 92.5478 1.4581 92.5464Z" fill="#012E6C"/>
<path d="M19.8238 50.1125H1.49475C1.24698 50.1125 1.00935 50.0141 0.834154 49.8389C0.658957 49.6637 0.560547 49.4261 0.560547 49.1783C0.560547 48.9306 0.658957 48.693 0.834154 48.5178C1.00935 48.3426 1.24698 48.2441 1.49475 48.2441H19.8238C20.0716 48.2441 20.3092 48.3426 20.4844 48.5178C20.6596 48.693 20.758 48.9306 20.758 49.1783C20.758 49.4261 20.6596 49.6637 20.4844 49.8389C20.3092 50.0141 20.0716 50.1125 19.8238 50.1125Z" fill="#012E6C"/>
<path d="M134.02 21.9008C133.869 21.8995 133.72 21.8614 133.587 21.7898C133.453 21.7182 133.339 21.6152 133.254 21.4897C133.184 21.3897 133.134 21.2765 133.109 21.157C133.083 21.0375 133.081 20.914 133.104 20.7939C133.126 20.6737 133.173 20.5593 133.24 20.4574C133.308 20.3555 133.395 20.2681 133.497 20.2005L154.05 6.00062C154.149 5.92941 154.261 5.87868 154.38 5.85138C154.498 5.82409 154.621 5.82078 154.741 5.84166C154.862 5.86254 154.976 5.90719 155.079 5.97299C155.181 6.03879 155.27 6.12441 155.339 6.22483C155.411 6.32524 155.462 6.43885 155.489 6.55911C155.517 6.67937 155.52 6.8039 155.499 6.9255C155.479 7.0471 155.434 7.16337 155.368 7.26759C155.302 7.37181 155.216 7.46191 155.115 7.53271L134.562 21.7326C134.402 21.8413 134.214 21.8999 134.02 21.9008Z" fill="#012E6C"/>
<path d="M154.536 92.5464C154.348 92.5453 154.166 92.4866 154.013 92.3783L133.46 78.1784C133.358 78.1108 133.271 78.0234 133.203 77.9215C133.136 77.8196 133.089 77.7052 133.067 77.585C133.044 77.4649 133.046 77.3414 133.071 77.2219C133.097 77.1024 133.147 76.9892 133.217 76.8892C133.287 76.7867 133.376 76.699 133.479 76.6312C133.583 76.5634 133.699 76.5168 133.82 76.4942C133.942 76.4716 134.067 76.4734 134.188 76.4995C134.309 76.5256 134.424 76.5755 134.525 76.6463L155.078 90.8462C155.179 90.917 155.265 91.0071 155.331 91.1113C155.397 91.2156 155.441 91.3318 155.462 91.4534C155.483 91.575 155.48 91.6995 155.452 91.8198C155.425 91.9401 155.374 92.0537 155.302 92.1541C155.217 92.2785 155.103 92.3796 154.969 92.4482C154.835 92.5167 154.686 92.5505 154.536 92.5464Z" fill="#012E6C"/>
<path d="M154.537 50.1125H136.208C135.96 50.1125 135.722 50.0141 135.547 49.8389C135.372 49.6637 135.273 49.4261 135.273 49.1783C135.273 48.9306 135.372 48.693 135.547 48.5178C135.722 48.3426 135.96 48.2441 136.208 48.2441H154.537C154.784 48.2441 155.022 48.3426 155.197 48.5178C155.372 48.693 155.471 48.9306 155.471 49.1783C155.471 49.4261 155.372 49.6637 155.197 49.8389C155.022 50.0141 154.784 50.1125 154.537 50.1125Z" fill="#012E6C"/>
<path d="M93.8944 181.448L99.1503 205.594L118.91 183.138L126.959 190.245C126.959 190.245 98.9652 231.874 87.7933 229.153C76.6215 226.433 79.664 210.641 77.2895 193.666C74.9151 176.691 93.8944 181.448 93.8944 181.448Z" fill="white"/>
<path d="M88.8713 229.685C88.4756 229.686 88.0811 229.64 87.6961 229.549C79.1885 227.472 78.6653 218.28 78.0375 206.642C77.8041 202.48 77.5546 198.182 76.9348 193.723C76.2667 188.95 77.1924 185.392 79.6956 183.147C84.5973 178.752 93.6523 180.958 94.0306 181.054C94.1027 181.074 94.1682 181.113 94.2205 181.167C94.2728 181.221 94.31 181.287 94.3284 181.36L99.4153 204.702L118.644 182.841C118.716 182.76 118.817 182.711 118.926 182.704C119.031 182.699 119.135 182.733 119.216 182.801L127.264 189.916C127.338 189.98 127.385 190.069 127.397 190.165C127.409 190.262 127.385 190.359 127.329 190.439C126.154 192.121 100.759 229.677 88.8713 229.685ZM88.4044 181.239C85.6437 181.239 82.408 181.754 80.1946 183.751C77.9811 185.747 77.0636 189.127 77.6914 193.61C78.3192 198.094 78.5607 202.416 78.8021 206.593C79.446 217.902 79.9612 226.828 87.8813 228.768C92.284 229.83 100.357 223.512 111.223 210.465C118.725 201.458 125.196 192.065 126.395 190.343L118.934 183.726L99.4475 205.885C99.399 205.942 99.3356 205.984 99.2645 206.006C99.1935 206.029 99.1175 206.032 99.0451 206.014C98.9721 205.995 98.9058 205.956 98.8533 205.903C98.8007 205.849 98.7641 205.781 98.7472 205.708L93.5477 181.819C91.8578 181.449 90.1342 181.255 88.4044 181.239Z" fill="#012E6C"/>
<path d="M29.4309 252.721C27.8211 263.603 28.0706 266.597 28.0706 266.597L94.8119 265.261L86.0306 227.117L34.8558 232.598C32.333 239.093 30.5143 245.839 29.4309 252.721Z" fill="#012E6C"/>
<path d="M28.0698 267.001C27.9692 267.003 27.8714 266.967 27.7966 266.9C27.7218 266.832 27.6756 266.739 27.6674 266.638C27.6674 266.51 27.4098 263.467 29.0276 252.666C30.1228 245.751 31.9522 238.973 34.4848 232.447C34.5128 232.38 34.5581 232.321 34.616 232.277C34.674 232.234 34.7426 232.206 34.8148 232.197L85.9815 226.716C86.079 226.704 86.1776 226.728 86.258 226.785C86.3384 226.841 86.3948 226.926 86.4161 227.022L95.2055 265.174C95.2188 265.232 95.2184 265.293 95.2045 265.352C95.1905 265.411 95.1633 265.465 95.125 265.512C95.0896 265.559 95.0435 265.598 94.9903 265.625C94.9372 265.651 94.8785 265.665 94.8191 265.665L28.0779 267.001H28.0698ZM29.8245 252.786C28.5286 261.431 28.4401 265.101 28.4562 266.188L94.304 264.876L85.7159 227.553L35.1448 232.97C32.6864 239.372 30.9033 246.014 29.8245 252.786Z" fill="#012E6C"/>
<path d="M28.73 248.641L91.31 241.598C85.4826 204.404 82.5126 224.068 89.5554 189.28L96.9764 187.268C93.5315 169.295 85.0641 161.407 85.0641 161.407C76.7979 146.525 56.6435 155.234 56.6435 155.234C56.6435 155.234 33.5271 157.085 27.5629 177.062C23.6109 190.278 30.3961 208.71 31.2413 224.8C31.4747 229.299 29.9212 229.114 28.73 248.641Z" fill="#6DB0E2"/>
<path d="M73.8844 164.771C71.5583 164.417 69.3207 164.022 66.9141 164.666C63.3404 165.64 60.1933 167.709 56.5149 168.57C52.5871 169.479 48.3051 169.512 44.2887 169.697C43.1135 169.753 44.3853 171.242 43.3711 170.638C39.8055 168.514 39.5237 163.676 39.1937 160.046C38.3177 151.659 38.5885 143.191 39.9986 134.877C41.3508 127.633 42.7513 120.768 49.778 117.065C54.8971 114.369 62.0928 112.759 67.7029 114.755C73.3129 116.751 77.9974 121.878 79.9532 127.553C82.1184 133.831 82.8267 140.198 86.4648 145.945C88.0746 148.48 90.0626 150.951 90.4892 153.921C90.9561 157.503 88.8311 161.109 85.7806 163.04C82.7301 164.972 78.923 165.455 75.3171 164.972C74.8181 164.916 74.3512 164.843 73.8844 164.771Z" fill="white"/>
<path d="M43.7089 171.187C43.5127 171.166 43.3247 171.097 43.1616 170.986C39.5637 168.845 39.1371 164.233 38.8313 160.522V160.08C37.9781 150.558 38.2437 142.292 39.6362 134.798C40.9401 127.804 42.2923 120.568 49.6248 116.704C54.2368 114.29 61.7867 112.205 67.8716 114.37C73.5058 116.374 78.2788 121.373 80.3635 127.417C81.0718 129.462 81.6271 131.538 82.1664 133.551C83.3255 137.841 84.412 141.889 86.8348 145.721C87.1245 146.187 87.4304 146.646 87.7362 147.105C89.1207 149.19 90.5533 151.347 90.8753 153.866C91.3421 157.407 89.3782 161.231 85.9896 163.372C82.3676 165.666 78.1661 165.722 75.2846 165.368L73.8439 165.159L73.4978 165.11C71.3165 164.772 69.248 164.458 67.0587 165.054C65.4046 165.545 63.7902 166.161 62.2294 166.897C60.4192 167.755 58.533 168.442 56.5951 168.95C53.1721 169.627 49.6933 169.983 46.204 170.012L44.2884 170.093C44.2381 170.081 44.1858 170.081 44.1355 170.093C44.1214 170.186 44.1214 170.281 44.1355 170.374C44.1757 170.496 44.1789 170.626 44.1444 170.75C44.11 170.873 44.0397 170.983 43.9423 171.066C43.8769 171.127 43.7962 171.169 43.7089 171.187ZM62.165 114.282C57.9112 114.378 53.7375 115.458 49.9709 117.437C42.9845 121.115 41.6725 128.15 40.4008 134.959C39.0164 142.38 38.791 150.574 39.5959 160.023L39.6362 160.466C39.942 163.903 40.3123 168.161 43.3467 170.125C43.3466 169.932 43.4118 169.745 43.5318 169.593C43.6244 169.489 43.7386 169.406 43.8665 169.351C43.9944 169.295 44.1329 169.268 44.2723 169.272L46.1879 169.191C49.6238 169.182 53.0513 168.854 56.4261 168.209C58.3039 167.71 60.1309 167.036 61.8833 166.197C63.4767 165.449 65.1231 164.819 66.8092 164.313C69.1755 163.678 71.3246 164.008 73.5944 164.313L73.9405 164.37C74.4073 164.434 74.8741 164.507 75.349 164.563C78.1098 164.909 82.1101 164.861 85.5308 162.688C88.6538 160.716 90.4729 157.206 90.0463 153.971C89.7404 151.636 88.364 149.56 87.036 147.532C86.7301 147.065 86.4162 146.598 86.1184 146.131C83.6313 142.195 82.4803 137.889 81.3615 133.736C80.8223 131.74 80.2669 129.711 79.5747 127.651C77.5625 121.831 72.9666 117.026 67.5658 115.103C65.8248 114.526 63.9987 114.248 62.165 114.282Z" fill="#012E6C"/>
<path d="M76.597 131.328C76.597 131.328 80.7502 140.986 79.5107 148.552C79.2185 150.672 78.3144 152.661 76.9091 154.275C75.5038 155.889 73.6583 157.058 71.5986 157.639L72.4035 170.896C72.4035 170.896 72.8945 177.673 64.5156 177.15C62.0912 176.994 59.7466 176.222 57.7032 174.908C55.6597 173.594 53.9849 171.781 52.8367 169.64L50.3496 145.325C50.3496 145.325 59.4207 139.312 58.0524 130.611C58.1087 130.611 69.6428 135.32 76.597 131.328Z" fill="white"/>
<path d="M65.4735 177.576H64.5478C62.0529 177.401 59.6428 176.598 57.5417 175.242C55.4406 173.885 53.7169 172.019 52.5309 169.817C52.5238 169.772 52.5238 169.725 52.5309 169.68L50.0438 145.364C50.0393 145.291 50.0539 145.217 50.0864 145.151C50.1188 145.085 50.1679 145.028 50.2289 144.986C50.3094 144.93 59.0827 139.014 57.7465 130.675C57.7376 130.605 57.7471 130.533 57.7741 130.467C57.8011 130.402 57.8448 130.344 57.9008 130.3C57.9567 130.256 58.0231 130.228 58.0935 130.217C58.1638 130.207 58.2356 130.215 58.3019 130.241C58.4146 130.241 69.7313 134.82 76.436 130.973C76.4883 130.951 76.5444 130.94 76.601 130.94C76.6577 130.94 76.7138 130.951 76.766 130.973C76.8726 131.014 76.9591 131.095 77.0075 131.198C77.1765 131.593 81.1929 141.026 79.9453 148.648C79.6418 150.784 78.7433 152.79 77.3526 154.438C75.9619 156.087 74.1352 157.31 72.0816 157.969L72.8865 170.903C72.9194 171.772 72.7807 172.639 72.4782 173.454C72.1757 174.268 71.7155 175.016 71.1238 175.652C69.8118 176.924 67.9203 177.576 65.4735 177.576ZM53.2875 169.527C54.4148 171.587 56.0421 173.33 58.0197 174.596C59.9974 175.862 62.2617 176.61 64.6042 176.771C67.2523 176.94 69.2403 176.369 70.5201 175.089C71.549 173.958 72.0999 172.472 72.0574 170.944L71.2526 157.687C71.248 157.592 71.2769 157.498 71.3342 157.421C71.3915 157.345 71.4736 157.291 71.5665 157.269C73.5536 156.719 75.3342 155.595 76.6845 154.037C78.0349 152.479 78.8949 150.557 79.1565 148.512C80.219 141.992 77.1926 133.822 76.436 131.915C70.2464 135.134 61.1432 132.164 58.6319 131.255C59.4368 139.014 52.1928 144.592 50.8728 145.541L53.2875 169.527Z" fill="#012E6C"/>
<path d="M72.1138 149.285C71.4364 149.28 70.7606 149.218 70.0935 149.1C70.0417 149.089 69.9925 149.069 69.9487 149.039C69.9049 149.01 69.8674 148.972 69.8382 148.928C69.8091 148.884 69.7889 148.834 69.7788 148.782C69.7688 148.73 69.769 148.677 69.7796 148.625C69.7892 148.573 69.8092 148.523 69.8385 148.479C69.8678 148.434 69.9058 148.396 69.9501 148.367C69.9945 148.338 70.0443 148.318 70.0966 148.308C70.1489 148.298 70.2026 148.3 70.2545 148.311C70.2545 148.311 72.9348 148.826 74.1985 148.07C74.3916 147.023 71.8562 143.546 70.005 141.397C69.9346 141.316 69.8992 141.21 69.9068 141.103C69.9143 140.996 69.9641 140.896 70.0452 140.826C70.1264 140.755 70.2321 140.72 70.3393 140.728C70.4465 140.735 70.5463 140.785 70.6167 140.866C71.4216 141.784 75.3012 146.428 75.0275 148.11C75.012 148.24 74.967 148.365 74.8958 148.475C74.8247 148.586 74.7293 148.678 74.617 148.746C73.8435 149.14 72.9808 149.325 72.1138 149.285Z" fill="#012E6C"/>
<path d="M69.1835 153.614C68.695 153.615 68.2074 153.572 67.7266 153.485C65.4455 153.08 63.3859 151.869 61.9234 150.072C61.8751 149.978 61.8657 149.869 61.8973 149.768C61.929 149.667 61.999 149.583 62.0924 149.533C62.1867 149.484 62.2965 149.473 62.3986 149.503C62.5007 149.533 62.5872 149.602 62.6398 149.694C63.9945 151.279 65.8583 152.343 67.9118 152.704C70.6323 153.147 73.3367 152.149 75.9606 149.734C75.9983 149.694 76.0439 149.662 76.0945 149.64C76.1452 149.618 76.1998 149.607 76.2549 149.607C76.3101 149.607 76.3647 149.618 76.4153 149.64C76.4658 149.662 76.5114 149.695 76.549 149.735C76.5866 149.775 76.6155 149.823 76.6339 149.875C76.6523 149.927 76.6598 149.982 76.656 150.037C76.6521 150.092 76.637 150.146 76.6115 150.195C76.5861 150.244 76.5508 150.287 76.508 150.322C74.1255 152.511 71.6786 153.614 69.1835 153.614Z" fill="#012E6C"/>
<path d="M71.5971 157.639C71.5971 157.639 64.5785 158.983 60.4414 158.202C60.4414 158.202 65.5444 168.36 72.2733 167.861L71.5971 157.639Z" fill="#012E6C"/>
<path d="M71.8152 168.294C65.1588 168.294 60.3053 158.797 60.0961 158.378C60.0644 158.311 60.0514 158.237 60.0585 158.163C60.0656 158.09 60.0925 158.019 60.1363 157.96C60.1801 157.899 60.2407 157.852 60.3107 157.824C60.3808 157.797 60.4572 157.791 60.5307 157.807C64.5551 158.563 71.4691 157.259 71.5416 157.243C71.5978 157.233 71.6558 157.234 71.7114 157.248C71.767 157.262 71.8189 157.288 71.8635 157.324C71.9079 157.359 71.9445 157.403 71.9708 157.452C71.9971 157.502 72.0127 157.557 72.0164 157.614L72.6925 167.844C72.6969 167.897 72.6908 167.95 72.6746 168C72.6583 168.051 72.6323 168.098 72.5979 168.138C72.5634 168.178 72.5214 168.212 72.4741 168.236C72.4268 168.26 72.3752 168.274 72.3223 168.278L71.8152 168.294ZM61.2068 158.716C62.4624 160.914 66.6559 167.49 71.8233 167.49L71.2035 158.113C69.7306 158.378 64.7885 159.151 61.2068 158.716Z" fill="#012E6C"/>
<path d="M112.221 158.105L129.663 157.252L120.922 194.228L102.168 196.072L112.221 158.105Z" fill="#CE1126"/>
<path d="M89.5559 189.689C89.4532 189.689 89.3543 189.65 89.2795 189.58C89.2047 189.509 89.1596 189.413 89.1534 189.31C88.8037 183.982 87.6252 178.741 85.6602 173.776C85.6167 173.679 85.6134 173.569 85.6511 173.469C85.6888 173.369 85.7644 173.289 85.8614 173.245C85.9094 173.222 85.9614 173.209 86.0144 173.207C86.0674 173.205 86.1202 173.214 86.1698 173.233C86.2194 173.251 86.2647 173.28 86.303 173.317C86.3413 173.353 86.3718 173.397 86.3927 173.446C88.3986 178.497 89.6017 183.831 89.9583 189.254C89.965 189.362 89.929 189.468 89.8582 189.549C89.7874 189.63 89.6875 189.681 89.58 189.689H89.5559Z" fill="#012E6C"/>
<path d="M62.1902 140.762C62.1503 140.769 62.1093 140.769 62.0695 140.762C61.9685 140.73 61.884 140.66 61.8343 140.567C61.7846 140.473 61.7737 140.364 61.8039 140.263C62.1316 139.225 62.8544 138.357 63.8161 137.848C64.2999 137.659 64.8198 137.581 65.3377 137.619C65.8557 137.656 66.3587 137.809 66.8103 138.065C66.8987 138.116 66.9648 138.198 66.9953 138.295C67.0257 138.392 67.0183 138.497 66.9744 138.589C66.9305 138.68 66.8535 138.752 66.7588 138.789C66.6642 138.827 66.5589 138.827 66.4642 138.79C66.1149 138.588 65.7255 138.465 65.3235 138.43C64.9215 138.395 64.5168 138.449 64.138 138.588C63.3986 138.989 62.8401 139.657 62.5766 140.456C62.5552 140.542 62.5056 140.619 62.4357 140.675C62.3657 140.73 62.2794 140.761 62.1902 140.762Z" fill="#012E6C"/>
<path d="M73.3364 138.378H73.264C73.1589 138.357 73.0664 138.295 73.0063 138.206C72.9461 138.118 72.9231 138.009 72.942 137.903C73.0053 137.573 73.1443 137.261 73.3482 136.993C73.5521 136.725 73.8153 136.507 74.1172 136.358C74.8255 136.076 75.7269 136.302 76.6848 137.018C76.7613 137.083 76.8104 137.175 76.8225 137.275C76.8346 137.375 76.8088 137.476 76.7502 137.558C76.6916 137.64 76.6044 137.697 76.5059 137.717C76.4073 137.738 76.3046 137.721 76.2179 137.67C75.4694 137.131 74.8496 136.937 74.423 137.098C74.2463 137.199 74.0936 137.337 73.9754 137.502C73.8573 137.667 73.7766 137.857 73.7389 138.056C73.7187 138.148 73.6677 138.23 73.5945 138.288C73.5213 138.347 73.4302 138.379 73.3364 138.378Z" fill="#012E6C"/>
<path d="M38.7342 147.594C38.7342 147.594 39.7162 150.54 36.6013 159.071C33.4864 167.603 33.6151 174.139 41.4306 175.314C49.246 176.489 53.8178 175.547 54.8481 168.875C55.8783 162.202 49.8658 154.878 49.8658 154.878" fill="white"/>
<path d="M46.3089 176.144C44.6557 176.123 43.0064 175.978 41.375 175.709C38.5096 175.283 36.4813 174.099 35.3625 172.216C33.7044 169.415 33.9861 165.069 36.2237 158.927C39.2259 150.709 38.3647 147.747 38.3567 147.723C38.3397 147.67 38.3334 147.615 38.338 147.559C38.3426 147.504 38.3581 147.45 38.3835 147.401C38.4089 147.352 38.4438 147.308 38.4861 147.272C38.5285 147.236 38.5775 147.209 38.6303 147.192C38.6832 147.175 38.7388 147.169 38.7941 147.173C38.8494 147.178 38.9033 147.193 38.9526 147.219C39.0019 147.244 39.0458 147.279 39.0816 147.321C39.1175 147.364 39.1446 147.413 39.1615 147.466C39.1615 147.594 40.1516 150.685 37.0205 159.209C34.8715 165.109 34.6059 169.23 36.0949 171.805C37.101 173.504 38.8798 174.518 41.536 174.912C48.9651 176.031 53.4724 175.395 54.4947 168.835C55.4847 162.453 49.6653 155.201 49.6009 155.152C49.5669 155.112 49.5413 155.065 49.5256 155.015C49.51 154.964 49.5046 154.911 49.5099 154.859C49.5151 154.806 49.5309 154.755 49.5562 154.709C49.5815 154.662 49.6159 154.622 49.6573 154.589C49.7397 154.522 49.8451 154.491 49.9506 154.501C50.0561 154.512 50.1531 154.564 50.2207 154.645C50.4702 154.951 56.3378 162.243 55.2834 168.988C54.3981 174.429 51.1463 176.144 46.3089 176.144Z" fill="#012E6C"/>
<path d="M122.838 196.074C129.277 186.938 129.277 186.938 128.914 183.791C128.633 181.376 127.425 179.26 126.162 177.263C124.552 174.72 121.035 170.824 119.723 176.016C119.071 178.511 118.065 181.578 118.757 184.137C119.401 186.504 121.171 188.443 122.145 190.665" fill="white"/>
<path d="M122.837 196.474C122.753 196.474 122.672 196.448 122.603 196.402C122.517 196.339 122.459 196.245 122.441 196.139C122.423 196.034 122.446 195.926 122.507 195.838C128.865 186.832 128.865 186.832 128.511 183.837C128.237 181.423 126.974 179.298 125.815 177.479C124.656 175.66 122.821 173.704 121.629 173.881C120.824 174.01 120.325 175.169 120.076 176.118L119.842 176.988C119.231 179.274 118.522 181.865 119.118 184.031C119.56 185.383 120.195 186.665 121.002 187.838C121.555 188.691 122.05 189.581 122.482 190.502C122.525 190.6 122.527 190.711 122.488 190.811C122.449 190.91 122.371 190.99 122.273 191.033C122.175 191.076 122.064 191.078 121.964 191.038C121.865 190.999 121.785 190.922 121.742 190.824C121.323 189.937 120.844 189.079 120.309 188.256C119.461 187.017 118.797 185.661 118.337 184.232C117.693 181.857 118.426 179.153 119.07 176.77L119.303 175.909C119.746 174.187 120.486 173.237 121.501 173.076C123.601 172.746 125.855 176.022 126.499 177.036C127.706 178.936 129.01 181.173 129.316 183.733C129.702 187.033 129.702 187.033 123.167 196.297C123.131 196.352 123.082 196.396 123.024 196.427C122.966 196.458 122.902 196.474 122.837 196.474Z" fill="#012E6C"/>
<path d="M43.7812 208.451C43.7812 208.451 72.6767 235.157 80.9349 232.107C89.193 229.056 98.8114 216.323 104.478 207.445C110.144 198.567 117.485 186.301 118.563 180.836C119.642 175.37 117.952 171.29 115.907 172.312C113.863 173.334 106.208 180.828 106.208 180.828C106.208 180.828 108.792 173.503 107.585 173.471C106.377 173.439 102.82 176.69 101.637 187.154L77.0875 212.105L56.9653 192.482" fill="white"/>
<path d="M79.4701 232.735C69.5941 232.735 44.6265 209.772 43.5077 208.742C43.47 208.704 43.4401 208.66 43.4196 208.611C43.3992 208.562 43.3887 208.509 43.3887 208.456C43.3887 208.403 43.3992 208.35 43.4196 208.301C43.4401 208.252 43.47 208.208 43.5077 208.17C43.5843 208.096 43.6868 208.054 43.7934 208.054C43.9001 208.054 44.0026 208.096 44.0792 208.17C44.1516 208.243 51.3876 214.915 59.533 221.121C70.2219 229.266 77.5786 232.945 80.8223 231.745C90.1831 228.292 101.057 212.122 104.164 207.245C109.983 198.125 117.139 186.124 118.193 180.78C118.998 176.876 118.258 173.649 117.123 172.787C116.986 172.668 116.816 172.594 116.636 172.575C116.456 172.557 116.275 172.594 116.117 172.683C114.145 173.665 106.587 181.07 106.506 181.142C106.443 181.206 106.359 181.246 106.269 181.255C106.18 181.264 106.09 181.241 106.015 181.19C105.938 181.144 105.879 181.072 105.848 180.987C105.817 180.902 105.817 180.809 105.846 180.724C106.836 177.915 107.706 174.598 107.504 173.906C106.699 174.075 103.246 176.683 102.055 187.179C102.041 187.268 102.002 187.352 101.943 187.42L77.3935 212.372C77.3568 212.409 77.3129 212.439 77.2646 212.459C77.2162 212.48 77.1642 212.49 77.1118 212.49C77.0593 212.49 77.0074 212.48 76.959 212.459C76.9106 212.439 76.8668 212.409 76.8301 212.372L56.7079 192.749C56.631 192.674 56.587 192.572 56.5855 192.465C56.584 192.357 56.6251 192.254 56.6998 192.177C56.7745 192.1 56.8767 192.056 56.9839 192.055C57.0911 192.053 57.1944 192.094 57.2713 192.169L77.144 211.486L101.291 186.913C102.506 176.506 106.12 173.053 107.609 173.053C107.714 173.052 107.817 173.079 107.908 173.13C108 173.18 108.077 173.254 108.132 173.343C108.671 174.148 107.85 177.158 107.134 179.371C109.388 177.206 114.153 172.723 115.754 171.926C116.048 171.771 116.38 171.705 116.711 171.736C117.041 171.768 117.355 171.895 117.614 172.103C119.175 173.303 119.755 176.997 118.982 180.893C117.903 186.366 110.7 198.455 104.84 207.639C100.816 213.957 90.4327 229.017 81.096 232.462C80.575 232.651 80.0241 232.743 79.4701 232.735Z" fill="#012E6C"/>
<path d="M63.8625 146.186C62.7934 146.192 61.7447 145.894 60.8388 145.326C59.933 144.758 59.2074 143.944 58.7468 142.979C58.2863 142.014 58.1098 140.938 58.2379 139.877C58.366 138.816 58.7935 137.813 59.4704 136.985C60.1473 136.157 61.0457 135.54 62.0606 135.203C63.0756 134.867 64.1652 134.827 65.2022 135.087C66.2392 135.347 67.1808 135.897 67.917 136.672C68.6533 137.448 69.1537 138.416 69.3599 139.466C69.6481 140.919 69.3518 142.428 68.5352 143.665C67.7186 144.902 66.4476 145.767 64.9974 146.074C64.6235 146.147 64.2435 146.185 63.8625 146.186ZM63.8625 135.795C63.5407 135.792 63.2194 135.824 62.9047 135.892C61.9626 136.073 61.0957 136.53 60.4147 137.206C59.7336 137.882 59.2692 138.745 59.0808 139.686C58.8923 140.626 58.9882 141.602 59.3563 142.488C59.7245 143.373 60.3481 144.13 61.1477 144.66C61.9474 145.19 62.8868 145.47 63.8461 145.464C64.8054 145.458 65.7412 145.166 66.5342 144.626C67.3271 144.086 67.9413 143.322 68.2983 142.432C68.6554 141.541 68.7391 140.565 68.5389 139.626C68.3121 138.552 67.7261 137.588 66.8775 136.891C66.0289 136.195 64.9683 135.808 63.8706 135.795H63.8625Z" fill="#012E6C"/>
<path d="M75.7358 143.755C74.7294 143.743 73.7447 143.461 72.884 142.94C72.0233 142.418 71.318 141.675 70.8415 140.789C70.3649 139.902 70.1346 138.904 70.1743 137.899C70.2141 136.893 70.5225 135.916 71.0675 135.07C71.684 134.151 72.5578 133.434 73.5796 133.008C74.6015 132.582 75.7261 132.467 76.8131 132.676C77.9001 132.886 78.9013 133.411 79.6917 134.186C80.4821 134.961 81.0266 135.952 81.2573 137.034C81.5455 138.488 81.2492 139.997 80.4326 141.234C79.6161 142.471 78.345 143.336 76.8948 143.642C76.5131 143.717 76.1249 143.755 75.7358 143.755ZM75.7358 133.364C75.4115 133.364 75.0879 133.397 74.7699 133.461C73.8278 133.642 72.961 134.099 72.2799 134.775C71.5989 135.45 71.1345 136.314 70.946 137.254C70.7575 138.195 70.8534 139.17 71.2216 140.056C71.5897 140.942 72.2133 141.698 73.013 142.228C73.8126 142.758 74.752 143.038 75.7113 143.032C76.6706 143.026 77.6065 142.735 78.3994 142.195C79.1924 141.655 79.8065 140.891 80.1636 140C80.5206 139.11 80.6044 138.133 80.4042 137.195C80.1777 136.122 79.5928 135.159 78.7459 134.462C77.8989 133.766 76.8402 133.379 75.7439 133.364H75.7358Z" fill="#012E6C"/>
<path d="M68.8695 139.473C68.7958 139.475 68.7232 139.455 68.6602 139.417C68.6149 139.39 68.5752 139.355 68.5437 139.313C68.5122 139.271 68.4894 139.223 68.4766 139.172C68.4639 139.121 68.4614 139.068 68.4695 139.016C68.4775 138.964 68.4959 138.914 68.5234 138.869C68.6365 138.689 68.7845 138.532 68.9586 138.409C69.1327 138.286 69.3296 138.198 69.5378 138.152C69.746 138.105 69.9614 138.101 70.1714 138.138C70.3813 138.176 70.5818 138.255 70.761 138.37C70.8423 138.426 70.9003 138.51 70.9242 138.605C70.948 138.701 70.936 138.802 70.8903 138.889C70.8447 138.976 70.7687 139.044 70.6766 139.079C70.5845 139.114 70.4828 139.114 70.3908 139.079C69.5859 138.668 69.2478 139.216 69.2156 139.28C69.1795 139.339 69.1287 139.388 69.068 139.422C69.0074 139.456 68.939 139.474 68.8695 139.473Z" fill="#012E6C"/>
<path d="M48.9078 142.179C48.801 142.185 48.6961 142.149 48.6161 142.078C48.5361 142.007 48.4876 141.907 48.4812 141.8C48.4748 141.694 48.511 141.589 48.582 141.509C48.6529 141.429 48.7528 141.38 48.8595 141.374L58.5181 140.191C58.5706 140.184 58.6239 140.188 58.6748 140.202C58.7257 140.216 58.7733 140.241 58.8146 140.274C58.8559 140.307 58.8901 140.348 58.9152 140.395C58.9403 140.441 58.9559 140.492 58.9608 140.545C58.9745 140.65 58.9458 140.757 58.8809 140.842C58.8161 140.926 58.7203 140.982 58.6147 140.996L48.9561 142.171L48.9078 142.179Z" fill="#012E6C"/>
<path d="M49.626 145.284C49.626 145.284 46.3259 134.136 50.7447 126.546C54.407 120.252 64.0415 115.897 71.1325 115.664C69.426 114.25 67.3506 113.355 65.1515 113.082C62.9523 112.81 60.7211 113.172 58.7212 114.127C51.3645 117.346 47.4528 120.976 45.9959 127.576C43.9193 137.122 49.626 145.284 49.626 145.284Z" fill="#012E6C"/>
<path d="M49.6236 145.671C49.5593 145.67 49.4961 145.654 49.4389 145.625C49.3816 145.596 49.3319 145.554 49.2936 145.502C49.2373 145.413 43.5065 137.083 45.6072 127.481C47.0077 121.041 50.6458 117.194 58.5659 113.741C60.645 112.764 62.9586 112.397 65.2381 112.682C67.5175 112.967 69.6695 113.892 71.4441 115.351C71.5003 115.406 71.5393 115.477 71.5564 115.554C71.5736 115.631 71.5681 115.711 71.5407 115.786C71.5142 115.861 71.4652 115.926 71.4003 115.972C71.3355 116.018 71.258 116.043 71.1785 116.043C64.3531 116.293 54.7668 120.438 51.0885 126.756C46.8065 134.105 49.9778 145.059 50.01 145.172C50.0367 145.263 50.0304 145.361 49.9921 145.448C49.9538 145.535 49.886 145.605 49.8007 145.647C49.7437 145.666 49.6836 145.674 49.6236 145.671ZM63.846 113.395C62.1356 113.407 60.4467 113.777 58.8879 114.482C51.2334 117.83 47.7321 121.524 46.388 127.666C45.0438 133.807 47.1043 139.618 48.6175 142.685C47.9092 138.862 47.2331 131.779 50.3963 126.346C54.0183 120.124 63.1457 115.93 70.0517 115.327C68.2217 114.081 66.0597 113.414 63.846 113.411V113.395Z" fill="#012E6C"/>
<path d="M54.8888 143.32C54.8888 143.32 50.2043 134.402 45.9626 140.471C41.7208 146.54 48.8521 152.496 52.9087 151.691" fill="white"/>
<path d="M52.1112 152.174C49.7851 152.174 47.0163 150.565 45.4628 148.15C44.6454 146.982 44.2211 145.584 44.2515 144.158C44.2819 142.733 44.7654 141.354 45.6318 140.222C46.7506 138.612 48.0465 137.807 49.4068 137.928C52.6263 138.129 55.1376 142.902 55.2503 143.103C55.2984 143.2 55.3067 143.311 55.2736 143.413C55.2405 143.516 55.1685 143.601 55.0732 143.651C54.9791 143.699 54.8698 143.708 54.7689 143.677C54.668 143.645 54.5836 143.575 54.5339 143.482C54.5339 143.433 52.1192 138.902 49.3585 138.733C48.2799 138.66 47.2416 139.32 46.2919 140.681C45.5249 141.686 45.0962 142.908 45.0673 144.172C45.0383 145.436 45.4107 146.676 46.1309 147.715C47.6924 150.13 50.6946 151.691 52.8275 151.273C52.9331 151.254 53.0418 151.277 53.1306 151.337C53.2193 151.397 53.281 151.49 53.3024 151.595C53.3212 151.699 53.298 151.807 53.2376 151.895C53.1773 151.982 53.0849 152.042 52.9805 152.062C52.6952 152.128 52.404 152.166 52.1112 152.174Z" fill="#012E6C"/>
<path d="M54.9686 191.065C54.9129 191.065 54.8578 191.053 54.8067 191.031C54.7555 191.009 54.7093 190.977 54.6708 190.936C54.5742 190.824 44.6982 180.119 37.9211 177.527C37.8661 177.513 37.8147 177.488 37.7703 177.453C37.7258 177.418 37.6892 177.373 37.663 177.323C37.6367 177.273 37.6214 177.218 37.6179 177.161C37.6145 177.105 37.623 177.048 37.643 176.995C37.6629 176.942 37.6939 176.894 37.7337 176.854C37.7736 176.813 37.8216 176.782 37.8744 176.761C37.9272 176.741 37.9838 176.732 38.0404 176.735C38.097 176.738 38.1523 176.753 38.2028 176.778C45.165 179.475 54.8559 189.938 55.2664 190.389C55.3406 190.466 55.3822 190.568 55.3822 190.675C55.3822 190.782 55.3406 190.884 55.2664 190.961C55.2264 190.997 55.1793 191.025 55.1282 191.043C55.077 191.061 55.0227 191.069 54.9686 191.065Z" fill="#012E6C"/>
</svg>
