<svg width="262" height="122" viewBox="0 0 262 122" fill="none" xmlns="http://www.w3.org/2000/svg">
<path d="M120.455 49.0535C120.455 53.6741 116.246 56.6515 110.037 56.6515C108.247 56.6515 106.174 56.4291 103.421 56.4291C101.472 56.3978 99.5234 56.472 97.5826 56.6515C97.237 56.6515 97.0519 55.416 97.3481 55.3049C99.5082 54.7489 101.187 54.4153 101.187 51.5985V35.1301C101.187 32.7457 99.6563 32.1156 98.064 31.7079C97.7678 31.6338 97.9529 30.3983 98.2492 30.4724C99.7413 30.6346 101.241 30.713 102.742 30.7072C105.717 30.7072 107.914 30.4724 109.556 30.4724C114.345 30.4724 118.295 32.4862 118.332 36.6497C118.353 37.9937 117.891 39.3006 117.03 40.3323C116.169 41.364 114.967 42.052 113.642 42.2709V42.4933C114.522 42.467 115.398 42.6167 116.22 42.9338C117.041 43.2509 117.791 43.729 118.426 44.34C119.061 44.951 119.567 45.6826 119.915 46.492C120.264 47.3014 120.447 48.1722 120.455 49.0535ZM105.643 35.1301V41.752H109.482C112.16 41.752 113.716 40.4178 113.716 37.5515C113.716 34.0182 111.333 32.375 108.284 32.375C106.322 32.375 105.643 33.0422 105.643 35.1301ZM115.654 49.8689C115.717 49.0381 115.602 48.2033 115.315 47.421C115.028 46.6387 114.577 45.9271 113.992 45.3344C113.407 44.7417 112.701 44.2817 111.923 43.9855C111.145 43.6893 110.313 43.5638 109.482 43.6176H105.643V51.6603C105.643 53.7111 106.692 54.7118 109.926 54.7118C113.16 54.7118 115.654 53.7605 115.654 49.8689Z" fill="#002F6C"/>
<path d="M122.615 55.3049C124.775 54.7489 126.442 54.4153 126.442 51.5985V35.1301C126.442 32.7457 124.924 32.1156 123.319 31.7079C123.023 31.6338 123.208 30.3983 123.504 30.4724C126.22 30.7813 130.91 30.7072 133.181 30.7072C136.563 30.7072 139.02 30.5466 142.069 30.4724C142.957 30.4724 142.957 31.0778 142.772 31.9303L141.883 35.4636C141.772 35.9825 140.834 35.9825 140.649 35.4636C140.094 33.6475 138.983 32.5974 134.329 32.5974C131.725 32.5974 130.873 33.2645 130.873 35.2042V41.2702C130.873 42.2462 131.354 42.4315 132.107 42.4315H132.934C135.946 42.4315 138.551 42.135 140.069 40.7513C140.439 40.4178 141.303 40.4919 140.921 41.2332L138.81 45.9278C138.514 46.595 137.946 46.5208 137.576 45.9278C136.724 44.6924 134.823 44.2476 132.638 44.2476H132.095C131.354 44.2476 130.861 44.433 130.861 45.409V51.6603C130.861 53.7853 131.749 54.5636 134.835 54.5636C140.452 54.5636 142.686 51.9939 143.575 50.5855C143.834 50.1654 144.809 50.3507 144.809 50.9932C144.809 52.8834 143.204 56.6515 140.859 56.6515C138.785 56.5403 136.736 56.4291 133.613 56.4291C130.194 56.4291 126.133 56.3179 122.751 56.6515C122.467 56.6885 122.319 55.379 122.615 55.3049Z" fill="#002F6C"/>
<path d="M147.611 44.0253C147.611 37.5886 151.548 29.9165 161.966 29.9165C166.287 29.9165 170.002 31.2631 169.558 32.5604L169.126 33.9935C167.78 37.9716 166.336 32.8692 159.707 32.8692C154.387 32.8692 151.783 36.3408 151.783 41.6903C151.7 43.2385 151.936 44.7872 152.477 46.2399C153.019 47.6925 153.853 49.0179 154.93 50.1332C156.006 51.2485 157.3 52.1297 158.731 52.722C160.163 53.3142 161.701 53.6047 163.25 53.5752C165.344 53.4025 167.38 52.8056 169.237 51.8209C169.533 51.6356 170.311 52.4881 170.088 52.8216C168.484 55.169 163.509 57.1457 162.349 57.1457C156.054 57.1704 147.611 53.5258 147.611 44.0253Z" fill="#002F6C"/>
<path d="M199.009 56.5772H189.134C188.653 56.5772 188.616 55.3418 189.023 55.3418C190.393 55.0824 191.887 54.6005 190.504 51.4007L190.109 50.4247C189.739 49.5352 189.11 49.4611 187.986 49.4611H180.407C179.284 49.4611 178.655 49.5352 178.284 50.4247L177.914 51.3637C176.606 54.5635 178.025 55.07 179.803 55.3047C180.296 55.3789 180.185 56.5402 179.691 56.5402H171.668C171.212 56.5402 171.1 55.3047 171.557 55.3047C173.075 55.0453 174.026 54.5264 175.347 51.3637L181.629 36.9213C183.086 33.6474 183.53 32.1155 183.53 30.7441C184.367 30.3101 185.306 30.1136 186.246 30.1758L195.368 51.2895C196.701 54.4523 197.602 54.9959 199.071 55.2677C199.602 55.3789 199.453 56.5772 199.009 56.5772ZM188.641 46.7802L184.283 36.3654L179.889 46.7802C179.667 47.2991 180.235 47.3732 180.753 47.3732H187.776C188.295 47.3732 188.875 47.2991 188.641 46.7802Z" fill="#002F6C"/>
<path d="M212.883 55.342C215.451 55.0084 217.166 54.4895 217.166 52.4758V34.1294C217.166 33.1905 216.833 32.894 215.932 32.894H214.932C211.402 32.894 209.427 33.7217 208.687 35.3649C208.353 36.1061 207.082 35.995 207.23 35.3649C207.626 33.9019 207.911 32.411 208.082 30.9049C208.168 30.1884 208.575 30.2254 209.242 30.2996C212.683 30.5743 216.136 30.6609 219.586 30.559C226.646 30.559 229.14 30.4849 230.929 30.2996C231.596 30.2254 232.226 30.1884 232.003 30.9049C231.514 32.3619 231.13 33.8524 230.855 35.3649C230.81 35.4928 230.727 35.6036 230.616 35.682C230.506 35.7604 230.374 35.8025 230.238 35.8025C230.103 35.8025 229.971 35.7604 229.86 35.682C229.75 35.6036 229.666 35.4928 229.621 35.3649C229.251 33.8082 227.609 32.894 224.412 32.894H223.264C222.375 32.894 221.808 33.1905 221.808 34.1294V52.5252C221.808 54.539 223.523 54.9961 226.091 55.3914C226.387 55.3914 226.165 56.6269 225.832 56.6269H213.143C212.809 56.5774 212.587 55.3791 212.883 55.342Z" fill="#002F6C"/>
<path d="M237.323 46.8174V35.1301C237.381 34.7053 237.345 34.273 237.219 33.8633C237.093 33.4536 236.879 33.0764 236.592 32.7578C236.306 32.4391 235.953 32.1868 235.559 32.0183C235.165 31.8498 234.74 31.7692 234.312 31.7821C234.015 31.7821 234.237 30.5466 234.534 30.5466H244.692C244.989 30.5466 245.211 31.7821 244.915 31.7821C244.49 31.7744 244.069 31.859 243.68 32.0299C243.291 32.2009 242.944 32.4543 242.662 32.7725C242.381 33.0908 242.171 33.4663 242.049 33.8734C241.926 34.2804 241.893 34.7091 241.952 35.1301V47.0027C241.952 52.2163 244.964 54.6378 248.902 54.6378C252.839 54.6378 256.197 52.1669 256.197 47.0027V35.1301C256.197 32.6592 254.814 32.0415 253 31.7821C252.74 31.7821 252.926 30.5466 253.222 30.5466H261.591C261.85 30.5466 262.072 31.7821 261.776 31.7821C261.35 31.7726 260.927 31.8558 260.537 32.026C260.147 32.1962 259.798 32.4493 259.515 32.7677C259.232 33.0862 259.022 33.4624 258.898 33.8703C258.775 34.2782 258.742 34.7081 258.801 35.1301V46.7804C258.801 53.6371 254.37 57.1704 248.457 57.1704C243.186 57.1704 237.323 54.3783 237.323 46.8174Z" fill="#002F6C"/>
<path d="M97.3605 90.1691C99.5206 89.6131 101.199 89.2796 101.199 86.4628V69.9943C101.199 67.6099 99.6687 66.9798 98.0641 66.5721C97.7678 66.498 97.953 65.3367 98.2615 65.3367C100.965 65.6332 105.668 65.5591 107.927 65.5591C111.309 65.5591 113.765 65.4108 116.814 65.3367C117.703 65.3367 117.703 65.9297 117.517 66.7821L116.629 70.3155C116.518 70.8468 115.592 70.8468 115.394 70.3155C114.827 68.4994 113.716 67.4493 109.062 67.4493C106.458 67.4493 105.606 68.1288 105.606 70.0561V76.5051C105.606 77.4687 106.087 77.654 106.84 77.654H107.655C110.667 77.654 113.271 77.3575 114.789 75.9738C115.172 75.6403 116.024 75.7144 115.654 76.468L113.58 81.1256C113.284 81.7928 112.728 81.7187 112.345 81.1256C111.494 79.8902 109.605 79.4578 107.408 79.4578H106.89C106.137 79.4578 105.655 79.6431 105.655 80.6068V86.4875C105.655 89.2425 107.371 89.4649 110.42 90.1938C110.753 90.2679 110.568 91.5775 110.198 91.5404C107.519 91.3551 105.581 91.318 103.421 91.318C101.472 91.2918 99.5237 91.3661 97.5827 91.5404C97.2124 91.5528 97.0642 90.2432 97.3605 90.1691Z" fill="#002F6C"/>
<path d="M123.455 81.6817V69.9944C123.512 69.5695 123.477 69.1373 123.35 68.7276C123.224 68.3179 123.01 67.9406 122.724 67.622C122.437 67.3034 122.085 67.0511 121.691 66.8826C121.297 66.7141 120.871 66.6335 120.443 66.6463C120.147 66.6463 120.369 65.4109 120.665 65.4109H130.861C131.169 65.4109 131.392 66.6463 131.095 66.6463C130.67 66.6368 130.247 66.7201 129.857 66.8902C129.466 67.0604 129.118 67.3135 128.835 67.632C128.552 67.9504 128.341 68.3267 128.218 68.7346C128.095 69.1425 128.061 69.5723 128.121 69.9944V81.867C128.121 87.0806 131.132 89.502 135.07 89.502C139.007 89.502 142.365 87.0311 142.365 81.867V69.9944C142.365 67.5235 140.982 66.9058 139.156 66.6463C138.896 66.6463 139.082 65.4109 139.378 65.4109H147.747C148.018 65.4109 148.24 66.6463 147.944 66.6463C147.517 66.635 147.093 66.7169 146.702 66.8863C146.31 67.0557 145.959 67.3085 145.675 67.6272C145.391 67.9458 145.179 68.3227 145.055 68.7315C144.931 69.1403 144.898 69.5713 144.957 69.9944V81.6446C144.957 88.5013 140.538 92.0347 134.626 92.0347C129.355 92.0594 123.455 89.2426 123.455 81.6817Z" fill="#002F6C"/>
<path d="M155.609 90.2061C158.177 89.8725 159.893 89.3537 159.893 87.3399V68.9936C159.893 68.067 159.559 67.7581 158.658 67.7581H157.646C154.116 67.7581 152.141 68.5735 151.4 70.229C151.067 70.9826 149.796 70.8714 149.956 70.229C150.352 68.7661 150.637 67.2751 150.808 65.7691C150.882 65.0649 151.289 65.1019 151.956 65.176C155.396 65.4504 158.849 65.5371 162.3 65.4355C169.36 65.4355 171.853 65.3614 173.643 65.176C174.31 65.1019 174.939 65.0649 174.717 65.7691C174.227 67.226 173.844 68.7165 173.569 70.229C173.524 70.3569 173.441 70.4677 173.33 70.5461C173.22 70.6245 173.087 70.6666 172.952 70.6666C172.817 70.6666 172.684 70.6245 172.574 70.5461C172.463 70.4677 172.38 70.3569 172.335 70.229C171.965 68.6723 170.335 67.7581 167.138 67.7581H165.978C165.089 67.7581 164.534 68.0546 164.534 68.9936V87.3399C164.534 89.3537 166.237 89.8108 168.805 90.2061C169.101 90.2061 168.879 91.4416 168.545 91.4416H155.881C155.548 91.4416 155.313 90.2432 155.609 90.2061Z" fill="#002F6C"/>
<path d="M180.235 81.6817V69.9944C180.292 69.5695 180.257 69.1373 180.13 68.7276C180.004 68.3179 179.79 67.9406 179.504 67.622C179.217 67.3034 178.865 67.0511 178.471 66.8826C178.077 66.7141 177.651 66.6335 177.223 66.6463C176.927 66.6463 177.149 65.4109 177.445 65.4109H187.641C187.949 65.4109 188.172 66.6463 187.875 66.6463C187.45 66.6368 187.027 66.7201 186.637 66.8902C186.246 67.0604 185.898 67.3135 185.615 67.632C185.332 67.9504 185.121 68.3267 184.998 68.7346C184.875 69.1425 184.841 69.5723 184.901 69.9944V81.867C184.901 87.0806 187.912 89.502 191.85 89.502C195.788 89.502 199.145 87.0311 199.145 81.867V69.9944C199.145 67.5235 197.762 66.9058 195.936 66.6463C195.676 66.6463 195.862 65.4109 196.158 65.4109H204.527C204.798 65.4109 205.02 66.6463 204.712 66.6463C204.286 66.6368 203.864 66.7201 203.473 66.8902C203.083 67.0604 202.734 67.3135 202.451 67.632C202.168 67.9504 201.958 68.3267 201.834 68.7346C201.711 69.1425 201.678 69.5723 201.737 69.9944V81.6446C201.737 88.5013 197.318 92.0347 191.406 92.0347C186.16 92.0594 180.235 89.2426 180.235 81.6817Z" fill="#002F6C"/>
<path d="M234.707 91.5898C233.34 92.1065 231.845 92.1717 230.439 91.776C229.033 91.3803 227.79 90.5444 226.893 89.3907L221.166 81.9781C219.561 79.8902 217.673 79.5937 215.068 79.5072V86.7222C215.068 89.329 216.846 89.7737 219.228 90.0702C219.487 90.0702 219.302 91.3057 219.006 91.3057H207.736C207.44 91.3057 207.218 90.0702 207.514 90.0702C209.415 89.8108 210.6 89.0695 210.6 86.7222V70.2167C210.6 67.7458 209.365 67.0539 207.514 66.5721C207.218 66.498 207.403 65.3367 207.736 65.3367C209.158 65.4966 210.588 65.5709 212.019 65.5591C214.772 65.5591 217.327 65.3367 219.117 65.3367C224.733 65.3367 228.485 67.6346 228.485 72.2181C228.485 76.5421 224.992 78.6548 221.869 78.8401V79.0254C223.363 79.0254 224.437 79.6678 226.079 81.7063L231.608 88.6742C231.949 89.2003 232.405 89.6418 232.942 89.965C233.479 90.2883 234.083 90.4848 234.707 90.5397C235.003 90.515 234.929 91.5157 234.707 91.5898ZM223.807 73.1941C223.881 72.4032 223.782 71.6056 223.516 70.8571C223.251 70.1085 222.825 69.427 222.269 68.86C221.713 68.2931 221.041 67.8543 220.298 67.5744C219.555 67.2944 218.76 67.1801 217.969 67.2393C215.772 67.2393 215.068 68.1411 215.068 70.2167V77.8888H216.142C221.684 77.8888 223.807 76.9251 223.807 73.1941Z" fill="#002F6C"/>
<path d="M234.978 78.556C234.978 71.0445 240.335 64.7808 248.482 64.7808C250.26 64.7241 252.031 65.0331 253.686 65.6887C255.34 66.3442 256.842 67.3325 258.1 68.5923C259.357 69.8522 260.343 71.3568 260.997 73.0132C261.65 74.6696 261.957 76.4425 261.899 78.2224C261.899 85.7833 256.579 92.0347 248.408 92.0347C246.628 92.0843 244.856 91.7693 243.202 91.109C241.547 90.4488 240.045 89.4571 238.788 88.195C237.53 86.9328 236.544 85.4267 235.888 83.7692C235.233 82.1117 234.924 80.3376 234.978 78.556ZM257.48 80.3103C257.48 72.7864 252.382 67.3134 247.025 67.3134C243.754 67.3134 239.434 69.4755 239.434 76.4804C239.434 84.066 244.532 89.502 249.852 89.502C253.123 89.502 257.48 87.34 257.48 80.3103Z" fill="#002F6C"/>
<path d="M97.2001 104.957C97.1903 104.402 97.2913 103.85 97.4973 103.334C97.7033 102.818 98.0102 102.348 98.3999 101.952C98.7896 101.556 99.2544 101.242 99.7669 101.029C100.279 100.815 100.829 100.706 101.385 100.707C101.978 100.68 102.57 100.776 103.124 100.988C103.679 101.201 104.183 101.526 104.606 101.943L103.964 102.635C103.633 102.278 103.231 101.994 102.786 101.798C102.34 101.603 101.859 101.501 101.372 101.498C100.938 101.503 100.509 101.595 100.111 101.769C99.7129 101.943 99.354 102.195 99.0556 102.511C98.7573 102.827 98.5255 103.2 98.3743 103.608C98.223 104.015 98.1553 104.449 98.1752 104.883C98.1554 105.319 98.2229 105.754 98.3739 106.163C98.5249 106.572 98.7563 106.946 99.0543 107.264C99.3523 107.582 99.711 107.837 100.109 108.013C100.507 108.19 100.937 108.285 101.372 108.293C101.878 108.286 102.377 108.172 102.837 107.96C103.296 107.747 103.706 107.439 104.038 107.058L104.643 107.663C104.231 108.128 103.723 108.498 103.154 108.748C102.585 108.997 101.969 109.12 101.348 109.108C100.802 109.112 100.261 109.007 99.7565 108.799C99.2518 108.592 98.7933 108.286 98.4076 107.9C98.0218 107.514 97.7164 107.055 97.5091 106.55C97.3019 106.045 97.1968 105.503 97.2001 104.957Z" fill="#DC052D"/>
<path d="M105.89 102.968H106.791V104.562C106.977 104.058 107.313 103.623 107.755 103.318C108.197 103.013 108.723 102.852 109.26 102.857V103.833H109.185C108.831 103.83 108.48 103.903 108.157 104.047C107.833 104.192 107.545 104.404 107.311 104.67C107.076 104.936 106.902 105.25 106.8 105.589C106.697 105.929 106.669 106.286 106.717 106.638V109.108H105.816L105.89 102.968Z" fill="#DC052D"/>
<path d="M112.852 108.416C113.216 108.424 113.578 108.35 113.911 108.2C114.244 108.051 114.54 107.829 114.777 107.552L115.345 108.058C115.046 108.423 114.669 108.716 114.242 108.915C113.814 109.114 113.348 109.214 112.876 109.207C112.078 109.154 111.328 108.803 110.775 108.223C110.223 107.644 109.907 106.877 109.892 106.076C109.876 105.275 110.162 104.498 110.691 103.897C111.221 103.296 111.957 102.916 112.753 102.832C113.158 102.84 113.557 102.932 113.924 103.103C114.291 103.274 114.619 103.519 114.886 103.824C115.153 104.128 115.354 104.485 115.475 104.872C115.597 105.259 115.637 105.666 115.592 106.069C115.592 106.156 115.592 106.242 115.592 106.39H110.766C110.791 106.93 111.02 107.44 111.408 107.817C111.795 108.193 112.312 108.408 112.852 108.416ZM114.641 105.649C114.651 105.119 114.452 104.607 114.087 104.223C113.722 103.839 113.22 103.614 112.691 103.598C112.165 103.629 111.669 103.857 111.303 104.237C110.937 104.617 110.728 105.121 110.716 105.649H114.641Z" fill="#DC052D"/>
<path d="M116.542 106.044C116.539 105.396 116.733 104.762 117.1 104.228C117.468 103.693 117.989 103.284 118.596 103.056C119.202 102.827 119.863 102.789 120.492 102.948C121.12 103.107 121.684 103.455 122.109 103.944L121.504 104.587C121.281 104.307 121 104.08 120.68 103.92C120.361 103.76 120.01 103.671 119.653 103.66C119.354 103.67 119.06 103.738 118.788 103.863C118.516 103.987 118.271 104.164 118.068 104.383C117.865 104.603 117.707 104.86 117.604 105.141C117.501 105.422 117.455 105.721 117.468 106.02C117.455 106.328 117.504 106.635 117.613 106.923C117.722 107.211 117.888 107.474 118.102 107.696C118.315 107.918 118.571 108.094 118.855 108.213C119.139 108.333 119.444 108.394 119.752 108.392C120.108 108.382 120.459 108.296 120.78 108.14C121.101 107.985 121.386 107.763 121.615 107.49L122.183 108.021C121.896 108.405 121.523 108.716 121.095 108.931C120.666 109.145 120.194 109.257 119.714 109.257C119.293 109.263 118.874 109.185 118.484 109.025C118.093 108.866 117.739 108.629 117.443 108.329C117.146 108.029 116.914 107.671 116.759 107.279C116.604 106.886 116.531 106.466 116.542 106.044Z" fill="#DC052D"/>
<path d="M125.923 108.416C126.288 108.424 126.65 108.35 126.983 108.2C127.316 108.051 127.612 107.829 127.849 107.552L128.392 108.12C128.093 108.485 127.716 108.778 127.289 108.977C126.861 109.176 126.395 109.275 125.923 109.269C125.125 109.214 124.376 108.861 123.825 108.281C123.274 107.7 122.96 106.933 122.946 106.132C122.932 105.332 123.219 104.555 123.75 103.955C124.28 103.355 125.016 102.977 125.812 102.894C126.217 102.902 126.616 102.994 126.983 103.165C127.35 103.336 127.678 103.581 127.945 103.886C128.212 104.19 128.413 104.547 128.535 104.934C128.656 105.32 128.696 105.728 128.651 106.131C128.651 106.217 128.651 106.304 128.651 106.452H123.825C123.862 106.984 124.099 107.482 124.489 107.847C124.878 108.211 125.39 108.415 125.923 108.416ZM127.713 105.649C127.723 105.119 127.524 104.607 127.159 104.223C126.794 103.839 126.292 103.614 125.763 103.598C125.236 103.629 124.741 103.857 124.375 104.237C124.009 104.617 123.799 105.121 123.788 105.649H127.713Z" fill="#DC052D"/>
<path d="M133.613 107.453V103.747H132.762V102.943H133.613V101.09H134.564V102.943H136.502V103.747H134.564V107.305C134.545 107.443 134.559 107.584 134.604 107.716C134.649 107.849 134.724 107.969 134.824 108.067C134.923 108.165 135.044 108.239 135.176 108.283C135.309 108.326 135.45 108.338 135.588 108.318C135.898 108.324 136.203 108.251 136.477 108.108V108.886C136.139 109.066 135.761 109.155 135.379 109.145C135.145 109.181 134.907 109.162 134.681 109.091C134.456 109.019 134.251 108.897 134.08 108.734C133.91 108.57 133.779 108.37 133.698 108.148C133.617 107.926 133.588 107.688 133.613 107.453Z" fill="#DC052D"/>
<path d="M137.724 106.749V102.968H138.637V106.526C138.604 106.762 138.624 107.002 138.694 107.229C138.764 107.457 138.884 107.666 139.044 107.842C139.204 108.017 139.402 108.156 139.621 108.246C139.841 108.337 140.078 108.379 140.316 108.367C140.564 108.371 140.811 108.323 141.04 108.227C141.269 108.131 141.476 107.989 141.647 107.809C141.819 107.629 141.951 107.416 142.037 107.183C142.122 106.949 142.158 106.7 142.143 106.452V102.968H143.044V109.071H142.143V108.009C141.942 108.387 141.642 108.703 141.274 108.921C140.905 109.139 140.484 109.251 140.057 109.244C139.731 109.263 139.406 109.21 139.103 109.089C138.801 108.968 138.529 108.782 138.306 108.544C138.083 108.305 137.916 108.021 137.815 107.711C137.715 107.401 137.683 107.072 137.724 106.749Z" fill="#DC052D"/>
<path d="M148.475 107.453V103.747H147.623V102.943H148.475V101.09H149.376V102.943H151.314V103.747H149.376V107.305C149.357 107.443 149.371 107.584 149.416 107.716C149.461 107.849 149.536 107.969 149.636 108.067C149.735 108.165 149.856 108.239 149.989 108.283C150.121 108.326 150.262 108.338 150.401 108.318C150.71 108.324 151.015 108.251 151.289 108.108V108.886C150.952 109.066 150.573 109.155 150.191 109.145C149.961 109.173 149.728 109.148 149.509 109.073C149.291 108.998 149.091 108.874 148.927 108.712C148.762 108.549 148.636 108.352 148.558 108.134C148.479 107.916 148.451 107.683 148.475 107.453Z" fill="#DC052D"/>
<path d="M152.215 107.292C152.215 105.983 153.276 105.303 154.832 105.303C155.463 105.294 156.091 105.381 156.696 105.563V105.377C156.696 104.29 156.029 103.722 154.881 103.722C154.239 103.725 153.606 103.872 153.03 104.154L152.758 103.413C153.448 103.069 154.209 102.891 154.98 102.894C155.7 102.847 156.41 103.087 156.955 103.561C157.174 103.805 157.343 104.09 157.451 104.4C157.559 104.709 157.604 105.038 157.584 105.365V109.071H156.696V108.12C156.436 108.453 156.102 108.721 155.721 108.901C155.339 109.082 154.92 109.169 154.498 109.158C154.225 109.19 153.948 109.167 153.684 109.091C153.42 109.014 153.174 108.884 152.961 108.71C152.748 108.536 152.572 108.321 152.444 108.077C152.316 107.834 152.238 107.567 152.215 107.292ZM156.708 106.823V106.255C156.126 106.087 155.524 106 154.918 105.995C153.795 105.995 153.141 106.489 153.141 107.231C153.141 108.009 153.844 108.466 154.671 108.466C155.15 108.522 155.632 108.388 156.013 108.092C156.394 107.796 156.643 107.363 156.708 106.885V106.823Z" fill="#DC052D"/>
<path d="M159.362 100.448H160.263V109.096H159.362V100.448Z" fill="#DC052D"/>
<path d="M164.83 108.416C165.195 108.424 165.557 108.35 165.89 108.2C166.223 108.051 166.518 107.829 166.756 107.552L167.323 108.058C167.025 108.423 166.648 108.716 166.22 108.915C165.793 109.114 165.326 109.214 164.855 109.207C164.056 109.152 163.308 108.799 162.756 108.219C162.205 107.638 161.892 106.872 161.878 106.071C161.864 105.27 162.15 104.493 162.681 103.893C163.212 103.294 163.948 102.915 164.744 102.832C165.148 102.84 165.547 102.932 165.914 103.103C166.282 103.274 166.609 103.519 166.876 103.824C167.144 104.128 167.344 104.485 167.466 104.872C167.588 105.259 167.627 105.666 167.583 106.069C167.583 106.156 167.583 106.242 167.583 106.39H162.744C162.772 106.929 163.002 107.438 163.389 107.813C163.776 108.189 164.291 108.405 164.83 108.416ZM166.657 105.649C166.67 105.12 166.474 104.608 166.111 104.223C165.747 103.839 165.247 103.614 164.719 103.598C164.183 103.62 163.676 103.843 163.298 104.223C162.921 104.604 162.7 105.113 162.682 105.649H166.657Z" fill="#DC052D"/>
<path d="M168.891 102.968H169.792V104.031C169.991 103.651 170.292 103.335 170.66 103.117C171.028 102.899 171.45 102.787 171.878 102.795C172.201 102.777 172.525 102.83 172.826 102.949C173.127 103.069 173.399 103.253 173.622 103.488C173.845 103.723 174.014 104.004 174.118 104.311C174.222 104.618 174.258 104.944 174.223 105.266V109.059H173.31V105.501C173.341 105.262 173.32 105.02 173.246 104.79C173.173 104.561 173.05 104.351 172.886 104.175C172.722 103.999 172.521 103.862 172.298 103.773C172.074 103.684 171.834 103.645 171.594 103.66C171.345 103.654 171.098 103.701 170.868 103.796C170.638 103.891 170.43 104.034 170.258 104.214C170.086 104.394 169.954 104.608 169.869 104.843C169.785 105.077 169.75 105.326 169.767 105.575V109.071H168.866L168.891 102.968Z" fill="#DC052D"/>
<path d="M176.235 107.453V103.747H175.384V102.943H176.235V101.09H177.149V102.943H179.074V103.747H177.149V107.305C177.13 107.443 177.144 107.584 177.189 107.716C177.234 107.849 177.309 107.969 177.409 108.067C177.508 108.165 177.629 108.239 177.761 108.283C177.894 108.326 178.035 108.338 178.173 108.318C178.461 108.32 178.745 108.252 179 108.12V108.898C178.668 109.079 178.293 109.169 177.914 109.158C177.687 109.177 177.458 109.146 177.244 109.067C177.03 108.987 176.836 108.862 176.675 108.699C176.515 108.537 176.393 108.341 176.317 108.125C176.241 107.91 176.213 107.68 176.235 107.453Z" fill="#DC052D"/>
<path d="M179.889 106.045C179.94 105.235 180.296 104.475 180.887 103.92C181.477 103.365 182.257 103.055 183.068 103.055C183.878 103.055 184.658 103.365 185.248 103.92C185.839 104.475 186.196 105.235 186.246 106.045C186.196 106.854 185.839 107.614 185.248 108.169C184.658 108.724 183.878 109.034 183.068 109.034C182.257 109.034 181.477 108.724 180.887 108.169C180.296 107.614 179.94 106.854 179.889 106.045ZM185.32 106.045C185.33 105.738 185.279 105.433 185.17 105.146C185.06 104.86 184.895 104.598 184.684 104.376C184.473 104.154 184.219 103.976 183.938 103.854C183.658 103.731 183.355 103.665 183.049 103.66C182.747 103.663 182.448 103.727 182.171 103.849C181.893 103.97 181.644 104.146 181.436 104.366C181.229 104.587 181.068 104.847 180.963 105.131C180.859 105.415 180.812 105.717 180.827 106.02C180.816 106.324 180.865 106.628 180.972 106.912C181.08 107.197 181.243 107.458 181.452 107.679C181.661 107.9 181.912 108.077 182.191 108.199C182.469 108.322 182.77 108.387 183.074 108.392C183.377 108.39 183.676 108.328 183.955 108.208C184.233 108.089 184.485 107.914 184.694 107.695C184.904 107.476 185.067 107.217 185.175 106.933C185.282 106.65 185.332 106.348 185.32 106.045Z" fill="#DC052D"/>
<path d="M186.949 110.097C187.542 109.887 187.789 109.578 187.739 109.071H187.307V107.836H188.394V108.898C188.418 109.091 188.402 109.287 188.349 109.474C188.296 109.661 188.205 109.835 188.083 109.986C187.961 110.137 187.81 110.262 187.638 110.353C187.467 110.444 187.279 110.5 187.085 110.517L186.949 110.097Z" fill="#DC052D"/>
<path d="M192.998 106.044C192.994 105.396 193.189 104.762 193.556 104.228C193.923 103.693 194.445 103.284 195.051 103.056C195.657 102.827 196.319 102.789 196.947 102.948C197.575 103.107 198.14 103.455 198.565 103.944L197.96 104.587C197.737 104.307 197.456 104.08 197.136 103.92C196.816 103.76 196.466 103.671 196.108 103.66C195.81 103.67 195.517 103.738 195.245 103.863C194.974 103.987 194.73 104.164 194.528 104.384C194.325 104.603 194.169 104.861 194.067 105.142C193.966 105.423 193.921 105.721 193.936 106.02C193.923 106.323 193.97 106.627 194.076 106.911C194.182 107.196 194.344 107.457 194.552 107.678C194.761 107.899 195.011 108.076 195.289 108.199C195.567 108.322 195.867 108.387 196.17 108.392C196.528 108.386 196.879 108.302 197.201 108.146C197.523 107.99 197.807 107.766 198.034 107.49L198.614 108.021C198.207 108.536 197.65 108.911 197.021 109.093C196.391 109.276 195.72 109.257 195.101 109.039C194.483 108.821 193.948 108.416 193.57 107.879C193.193 107.342 192.993 106.701 192.998 106.044Z" fill="#DC052D"/>
<path d="M199.873 102.968H200.787V104.562C200.971 104.057 201.307 103.621 201.75 103.316C202.192 103.011 202.718 102.85 203.255 102.857V103.833C202.901 103.83 202.55 103.903 202.227 104.047C201.903 104.192 201.615 104.404 201.38 104.67C201.146 104.937 200.972 105.25 200.87 105.589C200.767 105.929 200.739 106.286 200.787 106.638V109.109H199.873V102.968Z" fill="#DC052D"/>
<path d="M206.847 108.416C207.212 108.424 207.574 108.35 207.907 108.2C208.24 108.051 208.536 107.829 208.773 107.552L209.341 108.058C209.042 108.423 208.665 108.716 208.237 108.915C207.81 109.114 207.343 109.214 206.872 109.207C206.073 109.154 205.323 108.803 204.771 108.223C204.218 107.644 203.903 106.877 203.888 106.076C203.872 105.275 204.157 104.498 204.687 103.897C205.217 103.296 205.952 102.916 206.748 102.832C207.154 102.838 207.555 102.929 207.923 103.099C208.292 103.269 208.621 103.515 208.89 103.819C209.158 104.124 209.36 104.482 209.482 104.869C209.605 105.257 209.645 105.665 209.6 106.069C209.6 106.156 209.6 106.242 209.6 106.39H204.761C204.789 106.929 205.02 107.438 205.407 107.813C205.794 108.189 206.308 108.405 206.847 108.416ZM208.625 105.649C208.638 105.12 208.442 104.608 208.078 104.223C207.715 103.839 207.215 103.614 206.687 103.598C206.16 103.632 205.665 103.86 205.297 104.24C204.93 104.619 204.717 105.121 204.699 105.649H208.625Z" fill="#DC052D"/>
<path d="M210.526 106.044C210.522 105.396 210.717 104.762 211.084 104.228C211.451 103.693 211.973 103.284 212.579 103.056C213.185 102.827 213.847 102.789 214.475 102.948C215.103 103.107 215.668 103.455 216.093 103.944L215.488 104.587C215.265 104.307 214.983 104.08 214.664 103.92C214.344 103.76 213.994 103.671 213.636 103.66C213.338 103.67 213.045 103.738 212.773 103.863C212.502 103.987 212.258 104.164 212.055 104.384C211.853 104.603 211.697 104.861 211.595 105.142C211.494 105.423 211.449 105.721 211.464 106.02C211.451 106.323 211.498 106.627 211.604 106.911C211.71 107.196 211.872 107.457 212.08 107.678C212.289 107.899 212.539 108.076 212.817 108.199C213.095 108.322 213.394 108.387 213.698 108.392C214.055 108.386 214.407 108.302 214.729 108.146C215.051 107.99 215.335 107.766 215.562 107.49L216.142 108.021C215.735 108.536 215.178 108.911 214.548 109.093C213.919 109.276 213.248 109.257 212.629 109.039C212.011 108.821 211.475 108.416 211.098 107.879C210.721 107.342 210.521 106.701 210.526 106.044Z" fill="#DC052D"/>
<path d="M219.919 108.416C220.283 108.419 220.643 108.343 220.976 108.193C221.308 108.044 221.604 107.825 221.844 107.552L222.4 108.058C222.103 108.425 221.726 108.72 221.298 108.919C220.871 109.118 220.403 109.216 219.931 109.207C219.133 109.154 218.383 108.803 217.83 108.223C217.278 107.644 216.962 106.877 216.947 106.076C216.931 105.275 217.217 104.498 217.746 103.897C218.276 103.296 219.012 102.916 219.808 102.832C220.214 102.838 220.614 102.929 220.983 103.099C221.351 103.269 221.68 103.515 221.949 103.819C222.217 104.124 222.419 104.482 222.542 104.869C222.664 105.257 222.704 105.665 222.659 106.069C222.659 106.156 222.659 106.242 222.659 106.39H217.82C217.846 106.932 218.077 107.444 218.467 107.821C218.857 108.198 219.377 108.411 219.919 108.416ZM221.696 105.649C221.703 105.385 221.657 105.123 221.562 104.877C221.467 104.63 221.324 104.406 221.141 104.215C220.959 104.024 220.741 103.872 220.499 103.766C220.258 103.66 219.997 103.603 219.734 103.598C219.209 103.632 218.717 103.862 218.354 104.241C217.99 104.621 217.782 105.123 217.771 105.649H221.696Z" fill="#DC052D"/>
<path d="M229.967 108.416C230.332 108.424 230.693 108.35 231.026 108.2C231.359 108.051 231.655 107.829 231.892 107.552L232.46 108.058C232.161 108.423 231.784 108.716 231.357 108.915C230.929 109.114 230.463 109.214 229.991 109.207C229.193 109.152 228.444 108.799 227.893 108.219C227.342 107.638 227.028 106.872 227.014 106.071C227 105.27 227.287 104.493 227.818 103.893C228.348 103.294 229.084 102.915 229.88 102.832C230.285 102.84 230.684 102.932 231.051 103.103C231.418 103.274 231.746 103.519 232.013 103.824C232.28 104.128 232.481 104.485 232.603 104.872C232.724 105.259 232.764 105.666 232.719 106.069C232.719 106.156 232.719 106.242 232.719 106.39H227.881C227.909 106.929 228.139 107.438 228.526 107.813C228.913 108.189 229.428 108.405 229.967 108.416ZM231.744 105.649C231.757 105.12 231.561 104.608 231.198 104.223C230.835 103.839 230.334 103.614 229.806 103.598C229.28 103.632 228.784 103.86 228.417 104.24C228.049 104.619 227.836 105.121 227.819 105.649H231.744Z" fill="#DC052D"/>
<path d="M234.102 100.448H235.015V109.096H234.102V100.448Z" fill="#DC052D"/>
<path d="M240.199 102.968H241.101V104.204C241.34 103.796 241.681 103.456 242.089 103.218C242.498 102.98 242.961 102.852 243.433 102.845C243.835 102.852 244.231 102.941 244.597 103.106C244.963 103.271 245.293 103.508 245.565 103.804C245.837 104.099 246.047 104.447 246.181 104.825C246.315 105.204 246.372 105.606 246.347 106.007C246.373 106.41 246.318 106.813 246.185 107.193C246.051 107.573 245.842 107.923 245.569 108.219C245.297 108.516 244.967 108.755 244.6 108.92C244.233 109.086 243.836 109.175 243.433 109.183C242.967 109.181 242.508 109.061 242.1 108.834C241.692 108.607 241.348 108.281 241.101 107.885V110.937H240.199V102.968ZM245.421 106.032C245.443 105.734 245.404 105.435 245.306 105.153C245.209 104.87 245.055 104.611 244.854 104.39C244.653 104.169 244.409 103.992 244.137 103.868C243.865 103.745 243.571 103.678 243.273 103.672C242.974 103.68 242.679 103.748 242.405 103.87C242.132 103.993 241.886 104.168 241.68 104.386C241.475 104.604 241.315 104.861 241.209 105.141C241.103 105.422 241.054 105.72 241.064 106.02C241.052 106.32 241.1 106.62 241.205 106.902C241.31 107.184 241.47 107.442 241.676 107.662C241.881 107.881 242.128 108.058 242.403 108.181C242.677 108.304 242.973 108.372 243.273 108.38C243.572 108.381 243.869 108.319 244.143 108.199C244.418 108.079 244.664 107.903 244.866 107.682C245.068 107.461 245.222 107.2 245.318 106.916C245.413 106.632 245.448 106.331 245.421 106.032Z" fill="#DC052D"/>
<path d="M247.334 107.292C247.334 105.983 248.396 105.303 249.938 105.303C250.569 105.294 251.198 105.381 251.802 105.563V105.377C251.802 104.29 251.136 103.722 250 103.722C249.358 103.722 248.724 103.87 248.149 104.154L247.877 103.413C248.563 103.071 249.32 102.893 250.087 102.894C250.807 102.846 251.517 103.086 252.062 103.561C252.281 103.805 252.449 104.09 252.558 104.4C252.666 104.71 252.711 105.038 252.691 105.365V109.071H251.827V108.12C251.568 108.453 251.234 108.721 250.852 108.901C250.47 109.082 250.052 109.17 249.63 109.158C249.355 109.194 249.077 109.174 248.81 109.098C248.544 109.023 248.296 108.894 248.081 108.719C247.866 108.545 247.689 108.328 247.561 108.083C247.432 107.838 247.355 107.569 247.334 107.292ZM251.827 106.885V106.316C251.249 106.149 250.651 106.061 250.05 106.057C248.914 106.057 248.26 106.551 248.26 107.292C248.26 108.071 248.976 108.528 249.79 108.528C250.032 108.555 250.277 108.534 250.511 108.466C250.744 108.398 250.962 108.285 251.151 108.132C251.341 107.979 251.498 107.79 251.614 107.576C251.73 107.362 251.802 107.127 251.827 106.885Z" fill="#DC052D"/>
<path d="M254.469 102.968H255.37V109.071H254.469V102.968ZM255.703 100.324L256.653 100.769L255.32 102.005H254.592L255.703 100.324Z" fill="#DC052D"/>
<path d="M256.764 108.293L257.233 107.638C257.834 108.12 258.575 108.393 259.344 108.416C260.072 108.416 260.579 108.033 260.579 107.453C260.579 106.835 259.863 106.6 259.06 106.378C258.258 106.156 257.036 105.773 257.036 104.648C257.048 104.394 257.112 104.145 257.224 103.916C257.337 103.688 257.496 103.486 257.691 103.322C257.886 103.158 258.113 103.037 258.357 102.965C258.601 102.894 258.857 102.874 259.11 102.906C259.89 102.921 260.65 103.152 261.307 103.574L260.899 104.265C260.363 103.901 259.734 103.695 259.085 103.672C258.369 103.672 257.912 104.055 257.912 104.562C257.912 105.13 258.665 105.365 259.48 105.612C260.295 105.859 261.443 106.254 261.443 107.354C261.443 108.515 260.48 109.182 259.27 109.182C258.362 109.159 257.484 108.848 256.764 108.293Z" fill="#DC052D"/>
<path d="M55.7136 9.28467C58.997 17.5745 61.6632 20.2431 69.9457 23.5417C61.6632 26.828 58.997 29.4965 55.7136 37.7863C52.4179 29.4965 49.7517 26.828 41.4692 23.5417C49.7517 20.2431 52.4179 17.5745 55.7136 9.28467Z" fill="#002F6C"/>
<path d="M80.2525 0.438721C82.7952 6.86303 84.8689 8.93857 91.2875 11.4836C84.8689 14.041 82.7952 16.1165 80.2525 22.6026C77.6974 16.1783 75.6236 14.1027 69.1433 11.5454C75.6607 8.93857 77.7838 6.81361 80.2525 0.438721Z" fill="#DC052D"/>
<path d="M41.3951 46.5703L36.6552 44.643L30.323 47.2127L41.3951 51.6974L82.573 35.0436L69.8962 29.9165L63.564 32.4862L69.9086 35.0436L41.3951 46.5703Z" fill="#98B4D4"/>
<path d="M41.358 115.755C35.7866 115.758 30.2843 114.521 25.2501 112.132C20.2159 109.743 15.7759 106.262 12.2521 101.943L7.3147 103.932C11.2924 109.205 16.4384 113.483 22.3478 116.429C28.2571 119.374 34.7687 120.907 41.3704 120.907C47.972 120.907 54.4837 119.374 60.393 116.429C66.3024 113.483 71.4483 109.205 75.4261 103.932L70.4887 101.943C66.9617 106.265 62.5176 109.747 57.479 112.136C52.4403 114.525 46.9335 115.761 41.358 115.755Z" fill="#98B4D4"/>
<path d="M26.2989 53.2788V58.3936L38.9017 63.4465V83.2877V102.956C31.1993 102.227 26.6322 98.1007 21.8306 93.7396C17.3005 89.5885 12.4989 84.8444 5.15454 84.1896V49.8319L17.3993 54.7737V63.1994L12.6224 75.3809L17.1894 77.2341L19.868 70.3032L22.5589 77.2341L27.1753 75.3933L22.4478 63.3477V46.5704L40.0249 39.4295C40.4558 39.6234 40.9226 39.7244 41.395 39.726C42.0147 39.7342 42.6249 39.573 43.1599 39.2599C43.6949 38.9468 44.1344 38.4935 44.4311 37.9489C44.7278 37.4043 44.8704 36.789 44.8437 36.1693C44.8169 35.5496 44.6218 34.9489 44.2793 34.432C43.9367 33.915 43.4598 33.5014 42.8999 33.2356C42.3399 32.9698 41.7181 32.8619 41.1014 32.9235C40.4847 32.9852 39.8965 33.2141 39.4002 33.5855C38.9038 33.9569 38.5181 34.4568 38.2845 35.0313L25.5583 40.1708L12.8939 35.0437L41.395 23.517L35.0628 20.9473L0.229492 35.0437L19.2261 42.7281L17.3993 43.4694V49.6466L0.241836 42.7034V88.8349C0.636828 88.8349 1.21697 88.8349 1.77243 88.8349C2.66116 88.8349 4.38925 88.9831 4.78424 89.0202C10.4622 89.5885 14.2517 93.4678 18.5349 97.3718C24.0154 102.314 30.2242 107.972 41.3333 107.972C52.4425 107.972 58.6142 102.338 64.1318 97.3718C68.4026 93.5172 72.1427 89.6873 77.7096 89.0943C78.2774 89.0943 81.4126 88.8225 82.5112 88.8225V42.7158L41.4691 59.3819L26.2989 53.2788ZM43.8144 83.2507V63.4836L77.5738 49.8937V84.1896C70.1677 84.832 65.4648 89.5638 60.8484 93.7396C56.0468 98.1007 51.4797 102.227 43.7773 102.956L43.8144 83.2507Z" fill="#98B4D4"/>
</svg>
