<svg width="178" height="197" viewBox="0 0 178 197" fill="none" xmlns="http://www.w3.org/2000/svg">
<path d="M89.0004 182.032C137.652 182.032 177.092 142.514 177.092 93.767C177.092 45.0195 137.652 5.50195 89.0004 5.50195C40.349 5.50195 0.90918 45.0195 0.90918 93.767C0.90918 142.514 40.349 182.032 89.0004 182.032Z" fill="white"/>
<path d="M89.0001 182.455C71.4938 182.455 54.3805 177.253 39.8245 167.508C25.2685 157.763 13.9235 143.912 7.22408 127.706C0.52468 111.5 -1.22819 93.6681 2.18714 76.4643C5.60246 59.2604 14.0326 43.4577 26.4114 31.0544C38.7903 18.6511 54.562 10.2043 71.7319 6.78229C88.9019 3.36023 106.699 5.11655 122.873 11.8292C139.047 18.5418 152.871 29.9092 162.597 44.4939C172.323 59.0786 177.514 76.2256 177.514 93.7665C177.487 117.28 168.153 139.822 151.559 156.449C134.965 173.075 112.467 182.428 89.0001 182.455ZM89.0001 5.92483C71.6609 5.92483 54.711 11.0767 40.294 20.7288C25.8769 30.381 14.6402 44.1 8.00476 60.1509C1.36931 76.2019 -0.366816 93.8639 3.0159 110.904C6.39862 127.943 14.7483 143.595 27.009 155.88C39.2696 168.165 54.8907 176.531 71.8968 179.92C88.9029 183.31 106.53 181.57 122.549 174.922C138.569 168.273 152.261 157.014 161.894 142.569C171.527 128.123 176.669 111.14 176.669 93.7665C176.644 70.477 167.4 48.1485 150.964 31.6803C134.528 15.2121 112.244 5.94949 89.0001 5.92483Z" fill="#D1D3D4"/>
<path d="M161.408 162.296C161.408 162.296 152.249 140.63 149.84 132.163C148.365 126.384 147.756 120.418 148.032 114.459L141.526 81.2107C141.526 81.2107 95.7603 57.648 82.2403 49.4607C68.7203 41.2734 52.3696 28.5735 47.5953 31.3929C42.8211 34.2123 43.6492 40.4268 49.2853 46.6328C51.6006 49.1728 54.7356 51.8398 56.6537 54.6338C58.217 56.9029 60.1774 64.0573 58.293 66.5973C56.0453 69.6368 50.0543 60.188 46.9278 63.2106C45.28 64.7854 44.9167 70.3819 48.2375 75.2332C50.0382 77.4948 52.0593 79.5709 54.2708 81.4308C58.8338 85.3848 59.8056 88.4412 63.4222 93.208C67.1402 98.1102 64.3179 90.8034 64.0221 96.4507C63.6672 103.309 62.7124 111.496 64.6474 118.21C67.7486 128.937 85.9245 142.205 93.8084 148.978C101.692 155.751 97.7207 178.908 97.7207 178.908L161.408 162.296Z" fill="white"/>
<path d="M97.7032 179.28C97.6418 179.278 97.5816 179.264 97.5264 179.237C97.4712 179.21 97.4224 179.171 97.3832 179.124C97.344 179.077 97.3153 179.022 97.2991 178.962C97.2829 178.903 97.2795 178.841 97.2891 178.78C97.3314 178.552 101.134 155.793 93.5204 149.249C92.2276 148.14 90.6221 146.827 88.9152 145.439C80.1356 138.242 66.8522 127.371 64.2243 118.278C62.5343 112.537 63.0075 105.688 63.3793 99.6509C63.4553 98.5333 63.5229 97.4411 63.5736 96.3828C63.586 95.7243 63.6942 95.0712 63.8947 94.4439C63.6581 94.173 63.3793 93.8343 63.0497 93.4195C61.8245 91.7939 60.9203 90.4053 60.0415 89.0507C58.4121 86.2955 56.3589 83.8152 53.9575 81.7016C53.5097 81.3037 49.4959 77.7985 47.8566 75.4193C44.3752 70.3393 44.7893 64.5905 46.606 62.8548C48.4228 61.1191 51.0676 62.9987 53.366 64.6921C54.2526 65.4167 55.2161 66.0413 56.239 66.5547C57.2615 66.9865 57.6755 66.6817 57.929 66.3261C59.619 64.0232 57.8445 57.1313 56.239 54.8538C54.8275 52.9659 53.2525 51.2065 51.5324 49.596C50.5944 48.6647 49.7156 47.7841 48.9044 46.8951C45.2878 42.9158 43.5725 38.9195 44.0626 35.6599C44.2139 34.6863 44.5859 33.7604 45.1498 32.9532C45.7137 32.146 46.4547 31.479 47.3158 31.0032C51.1268 28.7595 60.7598 35.0672 71.9138 42.3739C75.4036 44.6599 79.0033 47.0221 82.4002 49.0711C95.7512 57.1567 141.229 80.5756 141.685 80.8041C141.742 80.8332 141.792 80.8751 141.83 80.9265C141.868 80.9779 141.894 81.0374 141.905 81.1005L148.412 114.349C148.415 114.386 148.415 114.423 148.412 114.459C148.143 120.369 148.747 126.286 150.203 132.019C152.561 140.367 161.644 161.889 161.737 162.101C161.762 162.157 161.775 162.218 161.775 162.279C161.775 162.34 161.762 162.401 161.737 162.457C161.708 162.51 161.668 162.557 161.62 162.595C161.572 162.633 161.517 162.661 161.458 162.677L97.813 179.28H97.7032ZM64.5876 95.1128C64.497 95.5449 64.4432 95.9839 64.4271 96.4251C64.3764 97.4919 64.3003 98.5841 64.2327 99.7017C63.8525 105.671 63.3877 112.444 65.0355 118.041C67.5705 126.88 80.744 137.649 89.456 144.778C91.146 146.175 92.7684 147.496 94.0697 148.605C101.396 154.904 98.8186 174.403 98.2271 178.239L160.825 162.008C159.498 158.85 151.631 139.995 149.451 132.273C147.161 124.179 147.584 115.28 147.626 114.493L141.17 81.473C137.993 79.8389 94.9654 57.6478 82.02 49.8077C78.64 47.7503 75.0065 45.3796 71.5082 43.0936C61.5034 36.5404 51.1606 29.7671 47.8482 31.7398C47.0903 32.1459 46.438 32.7243 45.9435 33.4286C45.449 34.1329 45.126 34.9435 45.0005 35.7953C44.5527 38.7587 46.2427 42.5687 49.6311 46.3363C50.4254 47.183 51.3211 48.0805 52.2253 49.0033C53.9852 50.6478 55.5943 52.4471 57.0333 54.3797C58.5966 56.6488 60.7429 64.0317 58.6642 66.8426C58.0473 67.6893 57.1432 67.8417 55.9602 67.3421C54.8777 66.804 53.8575 66.1481 52.9182 65.3863C50.7972 63.8116 48.6087 62.1859 47.2567 63.4729C45.9047 64.7598 45.3385 70.1615 48.6256 74.9452C50.3923 77.1749 52.3735 79.2253 54.5406 81.0666C57.0062 83.2322 59.1138 85.7755 60.7851 88.6019C61.6301 89.9397 62.5512 91.3197 63.7595 92.9115C64.0384 93.2756 64.2665 93.5634 64.4609 93.7581C64.5314 93.7295 64.6052 93.7096 64.6806 93.6989C64.9219 93.7017 65.1549 93.7873 65.341 93.9413C65.527 94.0954 65.6548 94.3086 65.703 94.5455C65.7656 94.6827 65.7752 94.8383 65.7299 94.9822C65.6847 95.1261 65.5878 95.248 65.458 95.3245C65.2298 95.4599 64.9763 95.4599 64.5876 95.1382V95.1128Z" fill="#012E6C"/>
<path d="M57.3546 135.82H116.513C118.898 135.82 120.831 133.883 120.831 131.494L120.831 4.74785C120.831 2.35841 118.898 0.421387 116.513 0.421387H57.3546C54.9699 0.421387 53.0367 2.35841 53.0367 4.74785L53.0367 131.494C53.0367 133.883 54.9699 135.82 57.3546 135.82Z" fill="white"/>
<path d="M116.513 136.244H57.3635C56.1055 136.242 54.8998 135.74 54.011 134.848C53.1222 133.956 52.623 132.747 52.623 131.486V4.7485C52.623 3.48799 53.1222 2.27899 54.011 1.38689C54.8998 0.494782 56.1055 -0.00752273 57.3635 -0.00976562H116.513C117.773 -0.00976562 118.981 0.491548 119.871 1.3839C120.762 2.27624 121.262 3.48653 121.262 4.7485V131.486C121.262 132.748 120.762 133.958 119.871 134.851C118.981 135.743 117.773 136.244 116.513 136.244ZM57.3635 0.836901C56.3369 0.85026 55.3569 1.26826 54.6357 2.00039C53.9145 2.73251 53.5102 3.71982 53.5103 4.7485V131.486C53.5103 132.522 53.9204 133.516 54.6507 134.249C55.381 134.982 56.3718 135.395 57.4057 135.398H116.556C117.591 135.398 118.584 134.986 119.316 134.252C120.048 133.518 120.46 132.523 120.46 131.486V4.7485C120.46 3.71108 120.048 2.71615 119.316 1.98258C118.584 1.24901 117.591 0.836901 116.556 0.836901H57.3635Z" fill="#012E6C"/>
<path d="M56.4677 116.873L117.139 116.873L117.139 12.6653L56.4677 12.6653L56.4677 116.873Z" fill="#6DB0E2"/>
<path d="M92.0082 132.112H80.4654C79.6489 132.11 78.8666 131.783 78.29 131.204C77.7134 130.625 77.3896 129.84 77.3896 129.022V124.602C77.3896 123.784 77.7134 122.999 78.29 122.42C78.8666 121.841 79.6489 121.514 80.4654 121.512H92.0082C92.8247 121.514 93.607 121.841 94.1836 122.42C94.7602 122.999 95.084 123.784 95.084 124.602V129.022C95.084 129.84 94.7602 130.625 94.1836 131.204C93.607 131.783 92.8247 132.11 92.0082 132.112ZM80.4654 122.358C79.873 122.361 79.3056 122.598 78.8875 123.019C78.4694 123.439 78.2346 124.008 78.2346 124.602V129.022C78.2346 129.615 78.4694 130.185 78.8875 130.605C79.3056 131.026 79.873 131.263 80.4654 131.265H92.0082C92.6006 131.263 93.168 131.026 93.5861 130.605C94.0042 130.185 94.239 129.615 94.239 129.022V124.602C94.239 124.008 94.0042 123.439 93.5861 123.019C93.168 122.598 92.6006 122.361 92.0082 122.358H80.4654Z" fill="#D1D3D4"/>
<path d="M99.1403 6.91503H81.8854C81.7733 6.91503 81.6659 6.87043 81.5866 6.79103C81.5074 6.71164 81.4629 6.60397 81.4629 6.49169C81.4629 6.37942 81.5074 6.27174 81.5866 6.19235C81.6659 6.11296 81.7733 6.06836 81.8854 6.06836H99.1403C99.2523 6.06836 99.3598 6.11296 99.439 6.19235C99.5183 6.27174 99.5628 6.37942 99.5628 6.49169C99.5628 6.60397 99.5183 6.71164 99.439 6.79103C99.3598 6.87043 99.2523 6.91503 99.1403 6.91503Z" fill="#D1D3D4"/>
<path d="M79.4605 6.70409H77.1705C77.0585 6.70409 76.951 6.65949 76.8718 6.5801C76.7926 6.50071 76.748 6.39303 76.748 6.28076C76.748 6.16848 76.7926 6.06081 76.8718 5.98142C76.951 5.90203 77.0585 5.85742 77.1705 5.85742H79.4859C79.5979 5.85742 79.7054 5.90203 79.7846 5.98142C79.8638 6.06081 79.9084 6.16848 79.9084 6.28076C79.9085 6.33855 79.8967 6.39576 79.8739 6.44885C79.8511 6.50194 79.8177 6.54979 79.7758 6.58945C79.7338 6.62911 79.6842 6.65974 79.63 6.67946C79.5758 6.69917 79.5181 6.70756 79.4605 6.70409Z" fill="#D1D3D4"/>
<path d="M65.2721 69.2133C65.3177 70.4067 65.0024 71.586 64.3676 72.5967C63.7328 73.6074 62.8081 74.4024 61.7147 74.8775C59.0083 76.0831 55.9512 76.237 53.1379 75.3093C51.5285 74.7898 50.0338 73.9648 48.7355 72.8794C46.5047 70.9913 45.2033 68.4598 45.4906 66.1061C45.9638 62.2707 50.9493 59.8746 56.07 60.4503C60.8527 60.9837 64.9932 65.8267 65.2721 69.2133Z" fill="white"/>
<path d="M56.9919 76.2994C55.6422 76.2985 54.3004 76.0929 53.012 75.6898C51.3478 75.1436 49.8043 74.2813 48.4659 73.1498C46.0407 71.1009 44.7732 68.4339 45.0859 66.0124C45.5844 62.067 50.5361 59.3661 56.1385 59.9926C61.0648 60.5514 65.4335 65.4452 65.7123 69.1282C65.7696 70.4052 65.4382 71.6695 64.7622 72.7536C64.0862 73.8377 63.0973 74.6905 61.9267 75.1988C60.3881 75.9407 58.6994 76.3173 56.9919 76.2994ZM54.5499 60.7462C50.0967 60.7462 46.2942 63.0152 45.914 66.114C45.6436 68.2392 46.8097 70.6268 49.0151 72.4894C50.2559 73.5439 51.6915 74.3436 53.2401 74.8432C55.9485 75.7487 58.8974 75.6037 61.5042 74.4368C62.5226 74.0009 63.3852 73.2659 63.978 72.3287C64.5709 71.3915 64.8662 70.2963 64.8251 69.1874C64.5716 66.1902 60.7606 61.3642 55.9948 60.8308C55.5152 60.7743 55.0328 60.7461 54.5499 60.7462Z" fill="#012E6C"/>
<path d="M64.394 86.2919C64.8791 86.9803 65.2012 87.7704 65.3359 88.6022C65.4706 89.4341 65.4144 90.2857 65.1714 91.0925C64.7871 92.0454 64.1817 92.8929 63.4053 93.5647C61.3773 95.4867 58.5973 96.8498 55.8004 96.4349C54.1037 96.0887 52.5084 95.359 51.1359 94.3013C48.6939 92.608 46.3448 90.4744 45.5336 87.6211C44.359 83.4894 47.3503 77.4611 52.1922 78.0453C56.1975 78.5279 62.273 82.9983 64.394 86.2919Z" fill="white"/>
<path d="M56.8391 96.9332C56.4796 96.9348 56.1207 96.9064 55.7659 96.8485C54.0195 96.4798 52.3805 95.7152 50.9748 94.6133C47.7469 92.395 45.9048 90.1937 45.2034 87.7045C44.8738 86.3266 44.871 84.8905 45.1953 83.5113C45.5196 82.1321 46.162 80.8483 47.0709 79.7628C47.6874 78.9814 48.4933 78.3711 49.4118 77.9902C50.3304 77.6093 51.331 77.4705 52.3183 77.5868C56.4419 78.1033 62.6189 82.6668 64.7905 86.0535C65.3178 86.7931 65.6683 87.6443 65.8148 88.5414C65.9614 89.4384 65.9 90.3572 65.6355 91.2266C65.2289 92.2395 64.589 93.1418 63.7681 93.8598C61.936 95.7349 59.4561 96.8349 56.8391 96.9332ZM51.5663 78.425C50.8154 78.4363 50.0765 78.6146 49.4028 78.947C48.7291 79.2794 48.1375 79.7575 47.6708 80.3469C46.8508 81.3242 46.2708 82.4805 45.9773 83.7229C45.6838 84.9653 45.685 86.2594 45.9808 87.5013C46.6315 89.7958 48.3637 91.8447 51.4226 93.9529C52.7415 94.9701 54.2723 95.6762 55.9011 96.0188C58.2671 96.3659 60.9035 95.3584 63.1259 93.2502C63.8651 92.6291 64.4447 91.8394 64.8159 90.9472C65.0401 90.202 65.0904 89.4152 64.9629 88.6474C64.8354 87.8796 64.5336 87.1515 64.0807 86.5192C62.0527 83.3696 56.0532 78.9415 52.2507 78.4589C52.0236 78.4316 51.7949 78.4203 51.5663 78.425Z" fill="#012E6C"/>
<path d="M62.0024 99.5744C62.9422 100.227 63.7293 101.076 64.3093 102.064C64.8775 103.213 65.1085 104.5 64.9754 105.775C64.8423 107.051 64.3505 108.262 63.5572 109.269C62.7433 110.256 61.7413 111.07 60.6096 111.665C59.4779 112.26 58.2393 112.622 56.9662 112.732C55.4651 112.914 53.9425 112.777 52.498 112.329C51.0535 111.881 49.7197 111.132 48.5838 110.132C47.4654 109.112 46.6317 107.817 46.165 106.375C45.6982 104.934 45.6145 103.395 45.9221 101.911C47.7726 94.1388 57.169 96.0523 62.0024 99.5744Z" fill="white"/>
<path d="M55.7326 113.24C52.9963 113.269 50.3467 112.279 48.2966 110.463C47.1203 109.394 46.244 108.035 45.7548 106.522C45.2656 105.008 45.1805 103.392 45.5081 101.836C45.7261 100.666 46.241 99.5729 47.0032 98.6609C47.7654 97.7489 48.7492 97.049 49.8598 96.6286C53.6877 95.2146 58.9858 96.8741 62.2475 99.2532C63.2416 99.938 64.0726 100.834 64.6811 101.878C65.282 103.101 65.5262 104.468 65.3857 105.824C65.2452 107.179 64.7256 108.467 63.8868 109.54C63.0422 110.577 61.9979 111.433 60.8162 112.057C59.6345 112.681 58.3396 113.06 57.0085 113.172C56.586 113.24 56.1551 113.24 55.7326 113.24ZM53.037 96.9418C52.0564 96.9311 51.0813 97.0916 50.1556 97.416C49.1723 97.7855 48.3022 98.4053 47.6309 99.2145C46.9597 100.024 46.5105 100.994 46.3277 102.03C46.0331 103.44 46.1122 104.902 46.5569 106.272C47.0017 107.642 47.7966 108.87 48.8627 109.837C49.9518 110.791 51.2298 111.505 52.6131 111.931C53.9964 112.357 55.4539 112.486 56.8902 112.309C58.1079 112.209 59.2933 111.865 60.376 111.298C61.4588 110.731 62.417 109.952 63.1939 109.007C63.9434 108.063 64.4089 106.924 64.5361 105.725C64.6633 104.525 64.4469 103.314 63.9122 102.233C63.3672 101.3 62.6227 100.499 61.7321 99.8882C59.1898 98.061 56.164 97.0298 53.037 96.9249V96.9418Z" fill="#012E6C"/>
<path d="M156.913 143.897L150.677 130.664L90.9355 151.399L94.8141 165.835L156.913 143.897Z" fill="#6DB0E2"/>
<path d="M90.4111 160.23L156.321 138.775L175.114 173.582L101.793 195.892L90.4111 160.23Z" fill="#012E6C"/>
<path d="M101.793 196.307C101.704 196.308 101.616 196.281 101.543 196.229C101.471 196.177 101.416 196.104 101.387 196.019L90.0136 160.357C89.9966 160.305 89.9901 160.25 89.9945 160.195C89.9989 160.141 90.0141 160.087 90.0393 160.038C90.0644 159.989 90.099 159.946 90.141 159.911C90.1831 159.875 90.2317 159.849 90.284 159.832L156.194 138.378C156.287 138.344 156.388 138.345 156.48 138.381C156.572 138.417 156.647 138.485 156.693 138.573L175.485 173.354C175.516 173.409 175.533 173.47 175.537 173.533C175.54 173.595 175.529 173.658 175.504 173.716C175.48 173.774 175.443 173.826 175.396 173.867C175.348 173.908 175.292 173.938 175.232 173.955L101.911 196.265C101.876 196.288 101.835 196.302 101.793 196.307ZM90.9431 160.501L102.063 195.367L174.497 173.354L156.118 139.309L90.9431 160.501Z" fill="#012E6C"/>
<path d="M148.048 116.474C148.048 116.474 147.626 80.1687 143.401 72.9636C139.176 65.7584 125.842 35.4901 122.276 35.2784C118.71 35.0667 115.026 46.0057 118.195 55.7508C120.033 61.4932 122.74 66.9186 126.222 71.8375C126.222 71.8375 116.986 79.8893 123.957 106.593" fill="white"/>
<path d="M148.048 116.899C147.938 116.899 147.831 116.855 147.752 116.778C147.673 116.7 147.628 116.595 147.626 116.484C147.626 116.12 147.161 80.2042 143.037 73.1854C141.728 70.9586 139.581 66.5814 137.122 61.5183C132.399 51.9171 124.498 35.8389 122.259 35.7034C121.833 35.7462 121.423 35.8898 121.063 36.1223C120.703 36.3549 120.403 36.6698 120.189 37.0412C117.594 40.4278 116.226 48.4965 118.566 55.6678C120.395 61.3644 123.079 66.7488 126.526 71.6359C126.591 71.7215 126.621 71.8286 126.61 71.9355C126.599 72.0424 126.548 72.1412 126.467 72.2117C126.374 72.2879 117.527 80.4667 124.329 106.536C124.358 106.643 124.343 106.758 124.287 106.855C124.232 106.951 124.141 107.022 124.033 107.052C123.98 107.067 123.924 107.072 123.869 107.065C123.814 107.058 123.761 107.041 123.713 107.013C123.665 106.985 123.623 106.948 123.589 106.904C123.556 106.86 123.532 106.809 123.518 106.756C117.163 82.4309 124.084 73.4732 125.63 71.8476C122.249 66.9527 119.596 61.5907 117.755 55.9303C115.338 48.4965 116.792 40.0722 119.521 36.5332C119.811 36.0582 120.213 35.6622 120.692 35.3801C121.171 35.098 121.712 34.9386 122.267 34.916C124.802 35.0599 130.329 45.9227 137.849 61.1627C140.333 66.2427 142.471 70.5691 143.764 72.7705C147.989 79.9841 148.454 115.002 148.471 116.484C148.472 116.539 148.462 116.595 148.442 116.647C148.422 116.698 148.391 116.746 148.353 116.786C148.315 116.826 148.269 116.858 148.218 116.88C148.167 116.903 148.112 116.915 148.057 116.916L148.048 116.899Z" fill="#012E6C"/>
<path d="M152.485 164.835C154.935 164.835 156.921 162.845 156.921 160.39C156.921 157.935 154.935 155.945 152.485 155.945C150.035 155.945 148.049 157.935 148.049 160.39C148.049 162.845 150.035 164.835 152.485 164.835Z" fill="white"/>
<path d="M98.7682 9.71094H20.4367C18.469 9.71094 16.5819 10.4941 15.1906 11.8882C13.7992 13.2823 13.0176 15.1731 13.0176 17.1447V56.6247C13.0176 58.5971 13.799 60.4887 15.1901 61.8842C16.5812 63.2796 18.4682 64.0647 20.4367 64.0669H86.8621L97.788 77.9946V64.0669H98.7682C100.737 64.0647 102.624 63.2796 104.015 61.8842C105.406 60.4887 106.187 58.5971 106.187 56.6247V17.1447C106.187 15.1731 105.406 13.2823 104.014 11.8882C102.623 10.4941 100.736 9.71094 98.7682 9.71094Z" fill="white"/>
<path d="M97.7886 78.4259C97.7241 78.4266 97.6603 78.4116 97.6029 78.3821C97.5455 78.3526 97.4961 78.3095 97.459 78.2566L86.6515 64.4898H20.4373C18.3575 64.4853 16.3643 63.6549 14.8944 62.1806C13.4245 60.7062 12.5979 58.7082 12.5957 56.6242V17.1442C12.5979 15.061 13.4248 13.0639 14.8949 11.5909C16.365 10.1179 18.3583 9.28935 20.4373 9.28711H98.7688C100.848 9.28935 102.841 10.1179 104.311 11.5909C105.781 13.0639 106.608 15.061 106.61 17.1442V56.6242C106.608 58.7082 105.782 60.7062 104.312 62.1806C102.842 63.6549 100.849 64.4853 98.7688 64.4898H98.2111V78.0364C98.2117 78.1248 98.1842 78.211 98.1325 78.2826C98.0809 78.3542 98.0077 78.4073 97.9238 78.4344C97.8786 78.4405 97.8327 78.4376 97.7886 78.4259ZM20.4373 10.1338C18.5831 10.1382 16.806 10.8783 15.4949 12.192C14.1837 13.5057 13.4452 15.2863 13.4407 17.1442V56.6242C13.4429 58.4836 14.1805 60.2663 15.4919 61.5819C16.8033 62.8974 18.5816 63.6386 20.4373 63.6431H86.8627C86.9263 63.6428 86.9891 63.6571 87.0463 63.685C87.1034 63.7129 87.1534 63.7536 87.1923 63.804L97.3323 76.7749V64.0749C97.3323 63.9626 97.3768 63.855 97.456 63.7756C97.5353 63.6962 97.6427 63.6516 97.7548 63.6516H98.735C100.591 63.6493 102.371 62.9089 103.683 61.5928C104.995 60.2768 105.732 58.4928 105.732 56.6327V17.1442C105.729 15.2856 104.992 13.5038 103.68 12.1895C102.368 10.8753 100.59 10.136 98.735 10.1338H20.4373Z" fill="#012E6C"/>
<path d="M68.0185 23.3066H51.1862C49.4874 23.3066 48.1104 24.6864 48.1104 26.3885V34.9144C48.1104 36.6165 49.4874 37.9963 51.1862 37.9963H68.0185C69.7173 37.9963 71.0943 36.6165 71.0943 34.9144V26.3885C71.0943 24.6864 69.7173 23.3066 68.0185 23.3066Z" fill="#CE1126"/>
<path d="M65.3402 26.8122H53.8651C53.4169 26.8122 52.987 26.6338 52.6701 26.3162C52.3532 25.9986 52.1751 25.5679 52.1751 25.1188V20.5553C52.1415 19.5563 52.3088 18.5607 52.6672 17.6279C53.0255 16.695 53.5675 15.8439 54.261 15.1253C54.9544 14.4067 55.7851 13.8352 56.7035 13.4449C57.6219 13.0546 58.6093 12.8535 59.6069 12.8535C60.6045 12.8535 61.5919 13.0546 62.5103 13.4449C63.4288 13.8352 64.2594 14.4067 64.9528 15.1253C65.6462 15.8439 66.1883 16.695 66.5466 17.6279C66.905 18.5607 67.0723 19.5563 67.0387 20.5553V25.1188C67.0387 25.3419 66.9947 25.5628 66.9092 25.7688C66.8238 25.9748 66.6985 26.1619 66.5407 26.3192C66.3829 26.4766 66.1956 26.6011 65.9896 26.6857C65.7835 26.7703 65.5629 26.8133 65.3402 26.8122ZM55.5467 23.4255H63.6502V20.5553C63.6752 20.0066 63.589 19.4585 63.3966 18.9441C63.2043 18.4297 62.9099 17.9597 62.5312 17.5625C62.1525 17.1653 61.6973 16.8492 61.1933 16.6332C60.6892 16.4172 60.1467 16.3059 59.5985 16.3059C59.0502 16.3059 58.5077 16.4172 58.0036 16.6332C57.4996 16.8492 57.0444 17.1653 56.6657 17.5625C56.287 17.9597 55.9926 18.4297 55.8003 18.9441C55.6079 19.4585 55.5217 20.0066 55.5467 20.5553V23.4255Z" fill="#CE1126"/>
<path d="M59.6023 30.5628C60.8156 30.5628 61.7993 29.5773 61.7993 28.3615C61.7993 27.1457 60.8156 26.1602 59.6023 26.1602C58.3889 26.1602 57.4053 27.1457 57.4053 28.3615C57.4053 29.5773 58.3889 30.5628 59.6023 30.5628Z" fill="white"/>
<path d="M60.2191 28.7852H58.9854V33.9244H60.2191V28.7852Z" fill="white"/>
<path d="M95.2192 55.1754H23.6561C22.939 55.1754 22.2512 54.8899 21.7441 54.3818C21.237 53.8737 20.9521 53.1846 20.9521 52.4661V44.8461C20.9521 44.1275 21.237 43.4384 21.7441 42.9303C22.2512 42.4222 22.939 42.1367 23.6561 42.1367H95.2192C95.9371 42.1367 96.6258 42.4219 97.1342 42.9298C97.6426 43.4376 97.9294 44.1267 97.9317 44.8461V52.4661C97.9294 53.1854 97.6426 53.8745 97.1342 54.3824C96.6258 54.8902 95.9371 55.1754 95.2192 55.1754ZM23.6561 42.9665C23.1631 42.9665 22.6903 43.1627 22.3416 43.512C21.993 43.8613 21.7971 44.3351 21.7971 44.8291V52.4491C21.796 52.694 21.8433 52.9368 21.9364 53.1633C22.0294 53.3897 22.1663 53.5955 22.3391 53.7687C22.512 53.9419 22.7174 54.0791 22.9434 54.1723C23.1695 54.2655 23.4117 54.3129 23.6561 54.3118H95.2192C95.464 54.3129 95.7067 54.2655 95.9332 54.1724C96.1597 54.0793 96.3657 53.9423 96.5392 53.7692C96.7127 53.5961 96.8504 53.3904 96.9443 53.1639C97.0383 52.9374 97.0867 52.6944 97.0867 52.4491V44.8291C97.0844 44.3343 96.8867 43.8606 96.5367 43.5115C96.1867 43.1624 95.713 42.9664 95.2192 42.9665H23.6561Z" fill="#D1D3D4"/>
<path d="M28.6245 49.0212L29.5793 50.2827L28.5146 51.0278L27.5598 49.7409L26.6218 50.9855L25.6247 50.2404L26.588 49.0043L25.0586 48.4963L25.4726 47.3109L26.9767 47.8359V46.2949H28.2696V47.8359L29.7737 47.3617L30.1708 48.5471L28.6245 49.0212Z" fill="black"/>
<path d="M35.5789 49.0212L36.5337 50.2827L35.469 51.0278L34.5142 49.7409L33.5762 50.9855L32.5369 50.2404L33.5002 49.0043L31.9707 48.4963L32.3848 47.3109L33.8889 47.8359V46.2949H35.1817V47.8359L36.6858 47.3617L37.083 48.5471L35.5789 49.0212Z" fill="black"/>
<path d="M42.5255 49.0212L43.4803 50.2827L42.4156 51.0278L41.4692 49.7409L40.5313 50.9855L39.4919 50.2404L40.4552 49.0043L38.9258 48.4963L39.3398 47.3109L40.8439 47.8359V46.2949H42.1368V47.8359L43.6409 47.3617L44.038 48.5471L42.5255 49.0212Z" fill="black"/>
<path d="M49.4877 49.0212L50.4426 50.2827L49.3779 51.0278L48.4399 49.7409L47.502 50.9855L46.4711 50.2404L47.4259 49.0043L45.8965 48.4963L46.3105 47.3109L47.8146 47.8359V46.2949H49.1159V47.8359L50.6116 47.3617L51.0172 48.5471L49.4877 49.0212Z" fill="black"/>
<path d="M56.4418 49.0212L57.3966 50.2827L56.3319 51.0278L55.3771 49.7409L54.4391 50.9855L53.4082 50.2404L54.3546 49.0043L52.8252 48.4963L53.2392 47.3109L54.7433 47.8359V46.2949H56.0446V47.8359L57.5403 47.3617L57.9459 48.5471L56.4418 49.0212Z" fill="black"/>
</svg>
