<svg width="261" height="226" viewBox="0 0 261 226" fill="none" xmlns="http://www.w3.org/2000/svg">
<path d="M202.837 225.078L203.812 196.443L182.262 193.193L180.948 225.399" fill="white"/>
<path d="M180.948 225.841C180.834 225.836 180.727 225.788 180.648 225.705C180.57 225.622 180.528 225.512 180.53 225.399L181.844 193.185C181.845 193.123 181.86 193.063 181.887 193.007C181.914 192.952 181.953 192.903 182.001 192.864C182.047 192.825 182.102 192.797 182.16 192.782C182.219 192.767 182.281 192.766 182.34 192.778L203.899 196.028C204.003 196.044 204.098 196.099 204.165 196.18C204.232 196.261 204.267 196.364 204.264 196.47L203.29 225.07C203.287 225.127 203.274 225.182 203.25 225.234C203.226 225.286 203.192 225.332 203.15 225.371C203.108 225.41 203.059 225.44 203.005 225.459C202.951 225.479 202.894 225.488 202.837 225.486C202.78 225.483 202.724 225.47 202.672 225.446C202.62 225.422 202.573 225.388 202.535 225.347C202.496 225.305 202.466 225.256 202.446 225.202C202.426 225.149 202.417 225.092 202.42 225.035L203.368 196.834L182.671 193.714L181.383 225.434C181.376 225.544 181.328 225.648 181.247 225.723C181.166 225.799 181.059 225.841 180.948 225.841Z" fill="#012E6C"/>
<path d="M97.6719 212.712L122.328 183.592L144.373 188.965L116.281 217.591" fill="white"/>
<path d="M116.281 218.033C116.167 218.032 116.057 217.985 115.977 217.903C115.936 217.864 115.904 217.816 115.882 217.764C115.86 217.712 115.849 217.656 115.849 217.6C115.849 217.543 115.86 217.487 115.882 217.435C115.904 217.383 115.936 217.336 115.977 217.297L143.53 189.208L122.484 184.077L98.0026 212.998C97.9256 213.083 97.8189 213.136 97.7041 213.146C97.5893 213.156 97.4751 213.121 97.3849 213.05C97.2973 212.974 97.2428 212.868 97.233 212.753C97.2233 212.638 97.259 212.524 97.3327 212.435L122.041 183.315C122.093 183.253 122.161 183.207 122.238 183.182C122.315 183.158 122.397 183.156 122.476 183.176L144.521 188.541C144.595 188.561 144.662 188.6 144.716 188.653C144.771 188.706 144.812 188.771 144.835 188.844C144.855 188.918 144.856 188.995 144.838 189.07C144.819 189.144 144.782 189.212 144.73 189.269L116.638 217.869C116.595 217.921 116.54 217.963 116.479 217.992C116.417 218.02 116.349 218.034 116.281 218.033Z" fill="#012E6C"/>
<path d="M193.224 66.1152C193.224 66.1152 159.712 75.2672 160.034 76.5672C160.355 77.8672 166.898 101.943 166.898 101.943L187.778 96.7432L193.224 66.1152Z" fill="#6DB0E2"/>
<path d="M193.903 65.9158C193.903 65.9158 183.262 68.7585 176.737 72.5025C170.212 76.2465 172.005 116.148 172.005 116.148L220.351 125.854C220.351 125.854 229.555 99.9412 228.929 88.1112C228.302 76.2812 220.96 59.5025 193.903 65.9158Z" fill="#6DB0E2"/>
<path d="M169.829 96.6985C169.775 96.7108 169.718 96.7108 169.664 96.6985C169.555 96.6525 169.469 96.566 169.424 96.4576C169.378 96.3491 169.377 96.2272 169.42 96.1178C172.579 88.3785 177.337 76.5745 177.468 75.7512C177.469 75.6935 177.482 75.6367 177.505 75.5839C177.529 75.5312 177.562 75.4837 177.605 75.4441C177.647 75.4046 177.696 75.3738 177.751 75.3536C177.805 75.3334 177.863 75.3242 177.92 75.3265C178.04 75.331 178.152 75.3814 178.235 75.467C178.318 75.5527 178.364 75.667 178.364 75.7859C178.364 76.5312 172.692 90.5192 170.247 96.4558C170.208 96.5322 170.148 96.5957 170.074 96.6388C170 96.6819 169.915 96.7026 169.829 96.6985Z" fill="#012E6C"/>
<path d="M196.86 61.0534L193.45 71.2627C193.45 71.2627 193.363 77.3294 200.123 76.8007C202.12 76.6229 204.052 76.0049 205.779 74.9917C207.506 73.9784 208.986 72.5951 210.111 70.9421L212.964 52.6381C211.93 51.7394 211.272 50.4868 211.12 49.1281C210.97 48.111 211 47.0757 211.207 46.0687C211.525 44.7165 212.031 43.4154 212.712 42.2034C209.497 41.7037 206.549 40.1297 204.351 37.7401C203.829 37.1049 203.341 36.4424 202.889 35.7554C202.681 35.4347 198.392 37.4367 197.939 37.6621C195.729 38.6325 193.845 40.2147 192.51 42.2207C191.626 43.9542 191.065 45.8338 190.857 47.7674C190.351 50.4244 190.094 53.1228 190.092 55.8274C190.144 60.9841 196.86 61.0534 196.86 61.0534Z" fill="white"/>
<path d="M199.279 77.2337C197.686 77.3098 196.126 76.7659 194.929 75.717C193.755 74.5266 193.088 72.9308 193.067 71.2624C193.063 71.222 193.063 71.1814 193.067 71.141L196.312 61.4257C194.659 61.2697 189.744 60.429 189.7 55.853C189.704 53.128 189.963 50.4093 190.475 47.7324C190.699 45.7414 191.289 43.8085 192.215 42.0297C193.558 39.9592 195.474 38.3192 197.73 37.3064C202.733 34.845 203.063 35.3477 203.185 35.573C203.185 35.573 204.055 36.925 204.612 37.5144C206.747 39.8463 209.622 41.3762 212.755 41.8477C212.816 41.8592 212.873 41.8849 212.922 41.9226C212.971 41.9604 213.01 42.0093 213.037 42.0651C213.063 42.1209 213.076 42.1822 213.074 42.2438C213.072 42.3054 213.055 42.3657 213.025 42.4197C212.361 43.5991 211.866 44.8651 211.555 46.181C211.363 47.1461 211.337 48.1365 211.476 49.1104C211.608 50.3667 212.211 51.5273 213.164 52.3604C213.223 52.4009 213.27 52.4576 213.297 52.5237C213.325 52.5898 213.333 52.6625 213.321 52.733L210.467 71.037C210.459 71.0889 210.441 71.1389 210.415 71.1844C209.267 72.9023 207.744 74.34 205.96 75.3904C204.177 76.4408 202.179 77.0768 200.114 77.251C199.844 77.2337 199.557 77.2337 199.279 77.2337ZM193.833 71.3317C193.874 72.7581 194.448 74.118 195.442 75.145C196.079 75.6716 196.821 76.0569 197.619 76.2751C198.418 76.4933 199.253 76.5394 200.071 76.4104C201.99 76.2334 203.847 75.6406 205.512 74.6735C207.177 73.7064 208.61 72.3883 209.71 70.8117L212.52 52.8024C211.513 51.8445 210.873 50.5663 210.711 49.1884C210.552 48.1406 210.576 47.0735 210.78 46.0337C211.06 44.8259 211.499 43.6603 212.085 42.567C208.978 41.9892 206.144 40.4195 204.012 38.095C203.559 37.5837 202.889 36.5957 202.628 36.2144C201.072 36.7446 199.552 37.3757 198.078 38.1037C195.958 39.0534 194.148 40.5793 192.858 42.5064C191.991 44.2058 191.437 46.0462 191.223 47.9404C190.723 50.5722 190.467 53.244 190.457 55.9224C190.509 60.6197 196.547 60.741 196.825 60.7497C196.887 60.75 196.948 60.7651 197.002 60.7938C197.057 60.8224 197.104 60.8638 197.139 60.9144C197.176 60.9647 197.201 61.023 197.212 61.0848C197.222 61.1465 197.218 61.2099 197.2 61.2697L193.833 71.3317Z" fill="#012E6C"/>
<path d="M209.362 51.0002C209.692 50.2725 210.243 49.6662 210.937 49.2669C211.609 48.9193 212.336 48.6905 213.086 48.5909C213.489 48.4957 213.909 48.4957 214.313 48.5909C214.591 48.6805 214.848 48.8249 215.07 49.0155C215.634 49.4078 216.039 49.9891 216.209 50.6535C216.28 51.2034 216.217 51.7621 216.027 52.2829C215.863 52.8609 215.623 53.4147 215.313 53.9295C214.993 54.437 214.574 54.876 214.082 55.221C213.59 55.5659 213.034 55.81 212.446 55.939C211.859 56.0681 211.251 56.0794 210.659 55.9725C210.067 55.8656 209.502 55.6425 208.997 55.3162" fill="white"/>
<path d="M211.476 56.3223C210.529 56.3231 209.602 56.0523 208.805 55.5423C208.728 55.4926 208.674 55.4147 208.654 55.3254C208.635 55.2361 208.652 55.1428 208.701 55.0657C208.725 55.0268 208.756 54.9932 208.793 54.9668C208.831 54.9404 208.873 54.9217 208.918 54.912C208.962 54.9023 209.009 54.9017 209.054 54.9102C209.098 54.9188 209.141 54.9363 209.179 54.9617C209.647 55.2621 210.17 55.4674 210.718 55.5656C211.266 55.6637 211.828 55.6529 212.372 55.5337C213.451 55.2773 214.387 54.612 214.982 53.679C215.278 53.1887 215.506 52.6611 215.661 52.1103C215.83 51.6446 215.889 51.1465 215.835 50.6543C215.676 50.0727 215.319 49.5642 214.825 49.2157C214.634 49.0574 214.416 48.9342 214.182 48.8517C213.829 48.7746 213.464 48.7746 213.112 48.8517C212.402 48.9498 211.713 49.1666 211.076 49.493C210.439 49.8606 209.939 50.4229 209.649 51.0963C209.632 51.1384 209.607 51.1766 209.574 51.2086C209.542 51.2407 209.504 51.2659 209.462 51.2829C209.419 51.2999 209.374 51.3082 209.329 51.3075C209.283 51.3067 209.238 51.2968 209.197 51.2783C209.154 51.2624 209.114 51.2376 209.082 51.2057C209.049 51.1738 209.023 51.1355 209.006 51.0931C208.988 51.0507 208.98 51.0052 208.982 50.9595C208.983 50.9138 208.994 50.8689 209.014 50.8277C209.366 50.0113 209.977 49.3324 210.754 48.895C211.459 48.5309 212.221 48.2877 213.007 48.1757C213.465 48.0717 213.941 48.0717 214.399 48.1757C214.715 48.2833 215.009 48.4446 215.269 48.6523C215.899 49.0999 216.347 49.7581 216.531 50.507C216.615 51.1087 216.549 51.7219 216.339 52.2923C216.168 52.9006 215.917 53.4835 215.591 54.0257C215.245 54.5719 214.794 55.0445 214.264 55.4163C213.734 55.7882 213.135 56.0519 212.503 56.1923C212.166 56.2729 211.822 56.3165 211.476 56.3223Z" fill="#012E6C"/>
<path d="M195.12 66.4451C197.602 66.6946 200.095 66.0823 202.176 64.7117C205.482 62.4151 205.656 59.5117 205.656 59.5117C202.886 60.7062 199.873 61.2347 196.86 61.0544L195.12 66.4451Z" fill="#012E6C"/>
<path d="M196.113 66.8781C195.758 66.8822 195.403 66.8619 195.051 66.8174C194.996 66.81 194.943 66.7905 194.896 66.7604C194.849 66.7303 194.809 66.6903 194.779 66.6432C194.749 66.5961 194.73 66.5431 194.723 66.4878C194.716 66.4326 194.721 66.3765 194.738 66.3234L196.478 60.9414C196.505 60.8623 196.557 60.7937 196.626 60.7455C196.694 60.6973 196.777 60.6718 196.861 60.6728C199.807 60.8159 202.746 60.276 205.448 59.0954C205.506 59.0636 205.572 59.0469 205.639 59.0469C205.706 59.0469 205.772 59.0636 205.83 59.0954C205.886 59.1323 205.931 59.1827 205.962 59.2419C205.992 59.3011 206.007 59.367 206.004 59.4334C206.004 59.5634 205.796 62.5881 202.377 64.9714C200.53 66.2226 198.346 66.8873 196.113 66.8781ZM195.617 66.0981C197.854 66.2104 200.069 65.6027 201.933 64.3648C203.476 63.3654 204.607 61.8455 205.117 60.0834C202.571 61.0716 199.853 61.5402 197.122 61.4614L195.617 66.0981Z" fill="#012E6C"/>
<path d="M201.393 43.5391C201.393 43.5391 197.043 47.8724 197.652 48.9471C198.261 50.0217 200.654 49.8137 200.654 49.8137" fill="white"/>
<path d="M200.34 50.2287C199.592 50.2287 197.921 50.116 197.33 49.1454C196.616 47.984 199.748 44.6474 201.132 43.2694C201.167 43.233 201.21 43.204 201.257 43.1842C201.304 43.1645 201.355 43.1543 201.406 43.1543C201.457 43.1543 201.507 43.1645 201.554 43.1842C201.602 43.204 201.644 43.233 201.68 43.2694C201.752 43.3423 201.792 43.4403 201.792 43.5424C201.792 43.6445 201.752 43.7425 201.68 43.8154C199.47 46.0341 197.73 48.296 197.982 48.7467C198.391 49.4314 200.07 49.4834 200.592 49.4574C200.694 49.4548 200.793 49.491 200.869 49.5587C200.945 49.6263 200.992 49.7203 201.001 49.8214C201.004 49.8715 200.996 49.9215 200.979 49.9687C200.962 50.0159 200.935 50.0592 200.902 50.0962C200.868 50.1332 200.827 50.1632 200.781 50.1845C200.735 50.2057 200.686 50.2178 200.636 50.2201L200.34 50.2287Z" fill="#012E6C"/>
<path d="M194.72 52.3529L203.185 52.2402C203.185 52.2402 202.803 57.9602 197.878 58.3069C192.954 58.6536 194.72 52.3529 194.72 52.3529Z" fill="#012E6C"/>
<path d="M203.395 43.5474C203.505 43.309 203.677 43.1036 203.892 42.9516C204.107 42.7996 204.359 42.7062 204.621 42.6807C205.596 42.5247 206.092 43.6601 206.092 43.6601" fill="white"/>
<path d="M206.091 44.007C206.016 44.0085 205.942 43.9879 205.879 43.9478C205.815 43.9077 205.765 43.85 205.734 43.7817C205.734 43.7817 205.351 42.915 204.681 43.0277C204.485 43.0468 204.298 43.1159 204.136 43.2282C203.975 43.3405 203.845 43.4923 203.759 43.669C203.724 43.765 203.652 43.8433 203.559 43.887C203.467 43.9308 203.36 43.9365 203.263 43.903C203.17 43.8696 203.093 43.8011 203.049 43.7121C203.005 43.6231 202.998 43.5206 203.028 43.4263C203.155 43.1155 203.363 42.8444 203.631 42.6416C203.899 42.4387 204.217 42.3116 204.551 42.2737C205.804 42.0657 206.413 43.4177 206.439 43.4784C206.459 43.5244 206.47 43.574 206.471 43.6243C206.471 43.6745 206.462 43.7244 206.444 43.7711C206.425 43.8178 206.397 43.8604 206.362 43.8965C206.327 43.9325 206.285 43.9612 206.239 43.981L206.091 44.007Z" fill="#012E6C"/>
<path d="M195.556 42.8106C195.667 42.5722 195.838 42.3668 196.053 42.2148C196.268 42.0628 196.52 41.9694 196.782 41.9439C197.757 41.7793 198.253 42.9233 198.253 42.9233" fill="white"/>
<path d="M198.252 43.2773C198.176 43.278 198.102 43.2561 198.038 43.2144C197.975 43.1728 197.925 43.1132 197.896 43.0433C197.896 43.0433 197.513 42.1766 196.843 42.298C196.646 42.3154 196.458 42.3838 196.296 42.4963C196.134 42.6088 196.005 42.7615 195.921 42.9393C195.885 43.0353 195.814 43.1135 195.721 43.1573C195.628 43.2011 195.522 43.2068 195.425 43.1733C195.331 43.138 195.254 43.0679 195.21 42.9775C195.166 42.8871 195.159 42.7834 195.19 42.688C195.318 42.3782 195.526 42.108 195.794 41.9054C196.062 41.7027 196.379 41.575 196.712 41.5353C197.965 41.3273 198.574 42.6879 198.6 42.7399C198.622 42.7858 198.633 42.8356 198.635 42.8862C198.636 42.9368 198.627 42.9871 198.609 43.0341C198.59 43.0811 198.562 43.1239 198.526 43.1597C198.49 43.1956 198.447 43.2238 198.4 43.2426C198.354 43.2655 198.304 43.2773 198.252 43.2773Z" fill="#012E6C"/>
<path d="M219.384 125.239L212.459 217.288L97.3408 193.845L173.866 115.637L219.384 125.239Z" fill="#012E6C"/>
<path d="M169.83 57.7166L34.6318 80.1633L94.105 19.9473L169.83 57.7166Z" fill="#012E6C"/>
<path d="M34.6319 80.5967C34.546 80.5972 34.4619 80.5724 34.3902 80.5254C34.3184 80.4783 34.2623 80.4112 34.2288 80.3324C34.1953 80.2536 34.186 80.1667 34.202 80.0827C34.218 79.9986 34.2586 79.9212 34.3187 79.8601L93.7919 19.6354C93.857 19.5711 93.9409 19.5289 94.0315 19.5149C94.1221 19.5009 94.2149 19.5158 94.2965 19.5574L169.986 57.3354C170.071 57.3729 170.14 57.4379 170.183 57.5198C170.226 57.6017 170.239 57.6956 170.221 57.7861C170.213 57.876 170.177 57.9612 170.117 58.0295C170.058 58.0979 169.979 58.1461 169.891 58.1674L34.7015 80.5881L34.6319 80.5967ZM94.2008 20.4761L35.9108 79.5134L168.438 57.5087L94.2008 20.4761Z" fill="#012E6C"/>
<path d="M182.314 148.066L54.7809 170.92L34.8057 80.9603L169.934 58.5137L182.314 148.066Z" fill="#012E6C"/>
<path d="M54.7895 171.355C54.69 171.357 54.5929 171.324 54.515 171.262C54.4372 171.201 54.3834 171.114 54.3632 171.017L34.3532 81.0481C34.3293 80.9346 34.3512 80.8163 34.4141 80.7187C34.4469 80.6678 34.4903 80.6244 34.5413 80.5915C34.5923 80.5586 34.6498 80.537 34.7099 80.5281L169.89 58.0814C170.007 58.0636 170.125 58.0916 170.221 58.1594C170.269 58.1942 170.309 58.2383 170.338 58.2889C170.368 58.3396 170.388 58.3958 170.395 58.4541L182.775 148.007C182.784 148.062 182.781 148.118 182.768 148.173C182.755 148.227 182.731 148.278 182.698 148.323C182.665 148.368 182.623 148.406 182.575 148.435C182.527 148.464 182.474 148.484 182.418 148.492L54.8591 171.346L54.7895 171.355ZM35.3276 81.3081L55.1201 170.427L181.827 147.712L169.569 59.0347L35.3276 81.3081Z" fill="#012E6C"/>
<path d="M65.4904 141.15C65.4904 141.15 42.0004 68.9222 30.6904 46.9609L156.606 12.7969L164.436 124.597L65.4904 141.15Z" fill="#6DB0E2"/>
<path d="M52.7446 59.5971C52.6478 59.5976 52.5537 59.5653 52.4778 59.5054C52.4019 59.4456 52.3487 59.3618 52.327 59.2678C52.2977 59.1575 52.3132 59.0401 52.3702 58.9411C52.4272 58.8421 52.5211 58.7696 52.6315 58.7391L145.226 34.8278C145.341 34.7991 145.463 34.8172 145.565 34.8781C145.667 34.9391 145.741 35.0379 145.769 35.1528C145.798 35.2677 145.78 35.3894 145.719 35.4909C145.658 35.5925 145.558 35.6657 145.443 35.6945L52.849 59.5798L52.7446 59.5971Z" fill="white"/>
<path d="M56.6599 74.7203C56.5614 74.7221 56.4656 74.6891 56.3892 74.6273C56.3127 74.5654 56.2607 74.4787 56.2423 74.3823C56.2295 74.3271 56.228 74.2699 56.2378 74.214C56.2476 74.1582 56.2685 74.1049 56.2993 74.0572C56.3302 74.0096 56.3702 73.9685 56.4172 73.9366C56.4642 73.9046 56.5171 73.8823 56.5729 73.871L146.226 53.8337C146.342 53.8095 146.462 53.832 146.561 53.8962C146.659 53.9604 146.729 54.0611 146.753 54.176C146.777 54.2909 146.754 54.4107 146.69 54.5091C146.625 54.6074 146.524 54.6762 146.409 54.7003L56.7904 74.7117L56.6599 74.7203Z" fill="white"/>
<path d="M64.3423 88.8726C64.2416 88.8743 64.1435 88.8404 64.0655 88.777C63.9875 88.7135 63.9345 88.6246 63.916 88.5259C63.9046 88.4702 63.9043 88.4127 63.9152 88.3568C63.926 88.3009 63.9478 88.2477 63.9793 88.2003C64.0108 88.1528 64.0514 88.1119 64.0988 88.0801C64.1461 88.0482 64.1993 88.026 64.2553 88.0146L149.994 71.4266C150.049 71.4153 150.106 71.4151 150.162 71.426C150.217 71.4369 150.27 71.4588 150.317 71.4902C150.364 71.5217 150.404 71.5622 150.436 71.6093C150.467 71.6564 150.488 71.7092 150.498 71.7646C150.511 71.8205 150.512 71.8783 150.502 71.9346C150.492 71.9909 150.47 72.0446 150.438 72.0923C150.407 72.1401 150.365 72.181 150.318 72.2126C150.27 72.2441 150.216 72.2657 150.159 72.2759L64.4206 88.8639L64.3423 88.8726Z" fill="white"/>
<path d="M68.4224 106.935C68.307 106.944 68.1927 106.907 68.1046 106.833C68.0165 106.758 67.9618 106.651 67.9526 106.536C67.9433 106.421 67.9803 106.308 68.0554 106.22C68.1304 106.132 68.2374 106.078 68.3528 106.068L149.68 92.8864C149.796 92.868 149.914 92.896 150.008 92.9643C150.103 93.0325 150.167 93.1355 150.185 93.2504C150.203 93.3653 150.175 93.4828 150.107 93.5771C150.038 93.6714 149.935 93.7347 149.82 93.753L68.492 106.926L68.4224 106.935Z" fill="white"/>
<path d="M111.296 115.757L34.8057 80.9603L54.7809 170.92L182.314 148.066L169.934 58.5137L111.296 115.757Z" fill="white"/>
<path d="M54.7891 171.355C54.6897 171.357 54.5926 171.324 54.5147 171.263C54.4369 171.201 54.3831 171.114 54.3628 171.017L34.3528 81.0483C34.3355 80.9694 34.3406 80.8872 34.3677 80.811C34.3948 80.7348 34.4427 80.6677 34.506 80.6172C34.5694 80.5668 34.6456 80.5349 34.7262 80.5253C34.8067 80.5158 34.8884 80.5288 34.9618 80.563L111.183 115.23L169.629 58.1683C169.687 58.1109 169.759 58.0707 169.838 58.0523C169.918 58.0339 170.001 58.038 170.078 58.0642C170.155 58.0904 170.223 58.1376 170.274 58.2004C170.326 58.2633 170.358 58.3392 170.369 58.4197L182.749 147.972C182.757 148.028 182.755 148.084 182.742 148.138C182.729 148.192 182.705 148.244 182.672 148.289C182.638 148.334 182.597 148.372 182.549 148.401C182.501 148.43 182.447 148.449 182.392 148.458L54.8587 171.346L54.7891 171.355ZM35.4142 81.7157L55.1197 170.428L181.827 147.712L169.647 59.425L111.6 116.07C111.536 116.131 111.456 116.171 111.369 116.185C111.282 116.199 111.193 116.186 111.113 116.148L35.4142 81.7157Z" fill="#012E6C"/>
<path d="M182.322 148.067L54.7891 170.921L111.304 115.758L182.322 148.067Z" fill="white"/>
<path d="M54.789 171.355C54.7084 171.356 54.6291 171.334 54.5599 171.293C54.4908 171.252 54.4346 171.192 54.3975 171.121C54.3554 171.039 54.3411 170.946 54.3568 170.855C54.3725 170.764 54.4173 170.681 54.4845 170.618L111.034 115.446C111.098 115.386 111.179 115.346 111.266 115.332C111.353 115.318 111.442 115.33 111.522 115.368L182.531 147.669C182.615 147.708 182.685 147.773 182.73 147.854C182.775 147.935 182.794 148.027 182.783 148.119C182.772 148.21 182.733 148.295 182.67 148.362C182.608 148.429 182.525 148.475 182.435 148.492L54.8673 171.355H54.789ZM111.391 116.278L56.1027 170.245L180.869 147.885L111.391 116.278Z" fill="#012E6C"/>
<path d="M182.322 148.067L54.7891 170.921L111.304 115.758L182.322 148.067Z" fill="white"/>
<path d="M54.789 171.355C54.7084 171.356 54.6291 171.334 54.5599 171.293C54.4908 171.252 54.4346 171.192 54.3975 171.121C54.3554 171.039 54.3411 170.946 54.3568 170.855C54.3725 170.764 54.4173 170.681 54.4845 170.618L111.034 115.446C111.098 115.386 111.179 115.346 111.266 115.332C111.353 115.318 111.442 115.33 111.522 115.368L182.531 147.669C182.615 147.708 182.685 147.773 182.73 147.854C182.775 147.935 182.794 148.027 182.783 148.119C182.772 148.21 182.733 148.295 182.67 148.362C182.608 148.429 182.525 148.475 182.435 148.492L54.8673 171.355H54.789ZM111.391 116.278L56.1027 170.245L180.869 147.885L111.391 116.278Z" fill="#012E6C"/>
<path d="M173.448 24.1074C173.448 24.1074 171.595 31.0408 165.74 31.2141C165.74 31.2141 171.917 32.9474 173.214 38.7194C173.789 37.118 174.74 35.6764 175.986 34.5143C177.233 33.3522 178.74 32.5031 180.382 32.0374C178.701 31.3222 177.204 30.2374 176.003 28.8641C174.802 27.4908 173.929 25.8646 173.448 24.1074Z" fill="#F0F7FE"/>
<path d="M5.3125 76.7914C5.3125 76.7914 9.9844 83.4474 5.8432 88.5954C5.8432 88.5954 11.8375 84.5394 17.7883 87.6334C16.8203 85.9733 16.264 84.107 16.1656 82.1896C16.0673 80.2722 16.4297 78.3591 17.2228 76.6094C17.2228 76.6094 12.1333 79.6774 5.3125 76.7914Z" fill="#F0F7FE"/>
<path d="M47.2206 22.5215C47.2206 22.5215 48.2037 34.1175 39.3906 37.5235C39.3906 37.5235 49.7349 36.7955 54.8766 44.8902C54.8766 44.8902 54.5112 36.0155 62.1324 30.8415C62.0628 30.8415 53.5542 30.9975 47.2206 22.5215Z" fill="#F0F7FE"/>
<path d="M214.66 80.8828C214.66 80.8828 147.052 115.038 136.76 116.997C126.468 118.955 114.227 115.532 114.715 118.461C115.202 121.391 121.083 122.847 121.083 122.847C121.083 122.847 102.474 125.776 103.448 127.735C104.423 129.693 116.681 127.241 116.681 127.241C116.681 127.241 101.491 131.635 104.918 133.585C108.346 135.535 119.125 131.149 119.125 131.149C119.125 131.149 102.961 139.443 107.372 139.929C111.783 140.414 119.621 136.029 119.621 136.029C119.621 136.029 107.372 142.373 112.27 142.858C117.168 143.343 190.161 117.482 214.66 102.844" fill="white"/>
<path d="M112.418 143.3H112.227C111.313 143.205 110.791 142.893 110.696 142.373C110.548 141.593 111.635 140.501 113.149 139.392C111.293 140.109 109.31 140.443 107.32 140.371C106.65 140.293 106.267 140.042 106.189 139.6C105.945 138.3 110.226 135.552 114.202 133.308C110.835 134.287 106.685 135.102 104.701 133.975C104.475 133.881 104.284 133.718 104.156 133.509C104.028 133.301 103.969 133.057 103.988 132.814C104.153 131.444 107.685 129.841 111.087 128.61C107.52 129.052 103.701 129.2 103.057 127.934C102.999 127.823 102.969 127.7 102.969 127.575C102.969 127.45 102.999 127.326 103.057 127.215C103.927 125.482 114.497 123.514 119.222 122.726C117.351 122.024 114.628 120.646 114.271 118.54C114.235 118.362 114.241 118.179 114.29 118.004C114.338 117.829 114.427 117.668 114.55 117.534C115.42 116.572 118.082 116.728 122.136 116.962C126.416 117.205 131.706 117.508 136.665 116.581C146.774 114.657 213.773 80.8397 214.443 80.5017C214.547 80.4499 214.667 80.4409 214.778 80.4765C214.889 80.5122 214.981 80.5897 215.035 80.6924C215.086 80.7947 215.095 80.9132 215.059 81.022C215.023 81.1308 214.946 81.2211 214.843 81.273C212.077 82.6684 147.062 115.489 136.83 117.43C131.802 118.384 126.39 118.072 122.04 117.829C118.795 117.638 115.733 117.465 115.15 118.106C115.116 118.145 115.093 118.192 115.083 118.242C115.072 118.292 115.074 118.343 115.089 118.392C115.454 120.568 119.57 122.05 121.136 122.44C121.251 122.445 121.359 122.497 121.437 122.582C121.514 122.667 121.555 122.78 121.549 122.895C121.543 123.01 121.492 123.118 121.406 123.195C121.32 123.272 121.207 123.312 121.092 123.306C113.079 124.563 104.179 126.574 103.779 127.64C104.292 128.593 110.8 127.995 116.533 126.851C116.59 126.837 116.65 126.835 116.708 126.844C116.766 126.853 116.821 126.874 116.871 126.904C116.922 126.935 116.965 126.975 117 127.022C117.034 127.07 117.059 127.123 117.073 127.18C117.086 127.237 117.089 127.296 117.08 127.354C117.07 127.412 117.05 127.467 117.019 127.517C116.988 127.567 116.948 127.611 116.901 127.645C116.853 127.679 116.799 127.704 116.742 127.718C111.096 129.347 104.927 131.817 104.788 132.97C104.788 133.082 104.962 133.204 105.075 133.273C107.738 134.79 115.959 132.008 118.9 130.803C119.005 130.762 119.122 130.762 119.227 130.804C119.332 130.846 119.418 130.926 119.465 131.028C119.511 131.13 119.515 131.245 119.478 131.35C119.441 131.455 119.365 131.541 119.265 131.592C113.41 134.599 107.085 138.456 106.981 139.487C107.104 139.521 107.229 139.547 107.355 139.565C110.643 139.929 116.055 137.39 118.325 136.246L119.352 135.7C119.454 135.648 119.572 135.638 119.681 135.672C119.79 135.706 119.881 135.781 119.935 135.882C119.963 135.931 119.98 135.984 119.987 136.04C119.994 136.096 119.989 136.152 119.974 136.206C119.959 136.26 119.933 136.311 119.897 136.355C119.862 136.399 119.819 136.435 119.77 136.462C119.7 136.462 119.3 136.731 118.673 137.052C114.611 139.253 111.357 141.593 111.487 142.252C111.487 142.252 111.644 142.416 112.253 142.477H112.47C115.08 142.477 132.924 136.826 155.97 128.16C168.568 123.428 199.47 111.459 214.443 102.515C214.492 102.48 214.547 102.454 214.606 102.441C214.665 102.428 214.725 102.428 214.784 102.439C214.844 102.451 214.9 102.474 214.949 102.509C214.998 102.543 215.04 102.587 215.072 102.638C215.103 102.689 215.123 102.746 215.132 102.806C215.14 102.865 215.135 102.926 215.119 102.983C215.102 103.041 215.074 103.095 215.035 103.141C214.997 103.187 214.949 103.225 214.895 103.252C191.266 117.326 119.3 143.3 112.418 143.3Z" fill="#012E6C"/>
<path d="M202.167 109.751C202.167 109.751 191.727 85.3539 192.693 85.0246C193.659 84.6952 213.573 71.6866 215.235 72.6659C216.896 73.6452 223.065 92.5126 221.107 98.0419C219.15 103.571 202.167 109.751 202.167 109.751Z" fill="#6DB0E2"/>
<path d="M204.778 109.873C204.684 109.873 204.592 109.844 204.516 109.789C204.439 109.735 204.382 109.658 204.351 109.57C204.315 109.457 204.325 109.335 204.379 109.23C204.433 109.124 204.526 109.044 204.638 109.007C204.786 108.955 219.28 104.084 225.005 96.7866C225.041 96.7408 225.087 96.7027 225.138 96.6744C225.189 96.6462 225.245 96.6283 225.304 96.6218C225.362 96.6154 225.421 96.6205 225.477 96.6369C225.533 96.6532 225.586 96.6806 225.631 96.7172C225.679 96.7521 225.719 96.7963 225.749 96.847C225.779 96.8978 225.798 96.9541 225.805 97.0125C225.813 97.0708 225.808 97.1301 225.791 97.1866C225.775 97.2431 225.747 97.2957 225.71 97.3412C219.82 104.847 205.526 109.657 204.925 109.856C204.877 109.87 204.827 109.876 204.778 109.873Z" fill="#012E6C"/>
<path d="M216.357 56.8582C216.251 56.856 216.149 56.8159 216.07 56.7453C215.991 56.6746 215.941 56.5782 215.927 56.4733C215.913 56.3685 215.938 56.2623 215.996 56.1739C216.054 56.0855 216.142 56.0208 216.244 55.9916C217.868 55.5089 219.363 54.6687 220.617 53.5331C221.872 52.3975 222.854 50.9956 223.491 49.4309C224.759 46.233 225.062 42.7357 224.361 39.3689C223.874 36.1142 222.454 33.0687 220.272 30.5982C219.18 29.4024 217.829 28.4691 216.322 27.8686C214.815 27.2681 213.191 27.0161 211.572 27.1316L210.937 27.2183C210.463 27.2975 209.983 27.3409 209.502 27.3482C208.915 27.3201 208.332 27.2359 207.762 27.0969L207.388 27.0189C204.321 26.4081 201.149 26.5788 198.167 27.5152C195.184 28.4516 192.487 30.1233 190.326 32.3753C188.165 34.6273 186.611 37.3865 185.806 40.3969C185.002 43.4074 184.974 46.5715 185.725 49.5956C185.933 50.4623 186.438 51.8402 187.508 51.9702C187.567 51.9755 187.624 51.9927 187.676 52.0207C187.728 52.0488 187.774 52.0871 187.811 52.1333C187.847 52.1796 187.874 52.2328 187.889 52.2896C187.905 52.3465 187.908 52.406 187.9 52.4642C187.893 52.5225 187.875 52.5788 187.847 52.63C187.818 52.6812 187.78 52.7263 187.733 52.7626C187.687 52.7988 187.634 52.8256 187.578 52.8414C187.521 52.8571 187.462 52.8615 187.404 52.8543C186.212 52.7069 185.307 51.6322 184.855 49.8123C184.059 46.6378 184.083 43.3147 184.924 40.1519C185.765 36.9892 187.395 34.0897 189.663 31.7233C191.931 29.3568 194.763 27.6003 197.895 26.6171C201.028 25.634 204.359 25.4562 207.579 26.1003L207.97 26.1783C208.495 26.31 209.031 26.3884 209.571 26.4123C210.003 26.4008 210.433 26.3602 210.859 26.2909C211.085 26.2909 211.303 26.2216 211.529 26.2042C213.283 26.0637 215.047 26.3292 216.681 26.9802C218.316 27.6312 219.777 28.65 220.951 29.9569C223.267 32.5494 224.778 35.7557 225.301 39.1869C226.029 42.7279 225.699 46.4038 224.353 49.7603C223.664 51.4492 222.603 52.9621 221.248 54.1864C219.892 55.4107 218.277 56.3151 216.523 56.8322L216.357 56.8582Z" fill="#012E6C"/>
<path d="M209.562 26.8814C209.562 26.8814 214.086 23.536 221.438 25.3213C228.789 27.1067 231.565 40.4533 224.7 47.612C224.7 47.612 225.771 28.1034 209.562 26.8814Z" fill="#CE1126"/>
<path d="M235.723 68.7228H235.679C232.199 68.5093 228.864 67.2559 226.109 65.1261C224.728 64.0409 223.617 62.6528 222.863 61.0699C222.108 59.4871 221.731 57.7521 221.759 56.0001C221.76 55.9409 221.774 55.8825 221.798 55.8286C221.823 55.7746 221.858 55.7263 221.902 55.6865C221.946 55.6467 221.998 55.6163 222.054 55.5972C222.11 55.5781 222.17 55.5707 222.229 55.5755C222.288 55.5777 222.346 55.5916 222.4 55.6164C222.453 55.6413 222.501 55.6765 222.541 55.7201C222.581 55.7637 222.611 55.8148 222.631 55.8703C222.651 55.9258 222.659 55.9847 222.655 56.0435C222.631 57.6541 222.979 59.2487 223.673 60.7036C224.367 62.1585 225.388 63.4345 226.657 64.4328C228.783 66.098 231.302 67.1904 233.974 67.6048C233.24 66.7859 232.773 65.7644 232.634 64.6755C232.492 63.0335 232.745 61.3813 233.374 59.8568C234.423 57.2672 235.701 54.7758 237.193 52.4121C239.359 48.7288 241.404 45.2535 241.856 41.2148C242.121 38.882 241.809 36.5201 240.946 34.3354C240.083 32.1507 238.697 30.2096 236.907 28.6819C235.118 27.1541 232.98 26.0861 230.681 25.571C228.381 25.056 225.99 25.1097 223.717 25.7275C223.602 25.7571 223.479 25.7412 223.375 25.6831C223.272 25.6249 223.194 25.529 223.16 25.4154C223.144 25.3591 223.14 25.3002 223.147 25.2422C223.154 25.1841 223.173 25.1281 223.202 25.0773C223.231 25.0265 223.27 24.982 223.317 24.9463C223.363 24.9106 223.416 24.8845 223.473 24.8695C225.89 24.2121 228.432 24.1547 230.877 24.7022C233.321 25.2496 235.594 26.3853 237.496 28.01C239.398 29.6346 240.872 31.6987 241.788 34.0218C242.705 36.3448 243.036 38.8561 242.752 41.3361C242.274 45.5568 240.082 49.2748 237.967 52.8801C236.525 55.192 235.287 57.625 234.27 60.1515C233.678 61.5367 233.439 63.046 233.574 64.5455C233.641 65.2501 233.891 65.9254 234.298 66.5056C234.705 67.0857 235.256 67.551 235.897 67.8561C235.993 67.8959 236.072 67.9673 236.121 68.0584C236.171 68.1495 236.187 68.2547 236.167 68.3563C236.148 68.458 236.094 68.5499 236.015 68.6166C235.935 68.6834 235.835 68.7208 235.732 68.7228H235.723Z" fill="#012E6C"/>
<path d="M195.799 88.6485C195.688 88.668 195.573 88.6453 195.478 88.5849C195.383 88.5245 195.314 88.4308 195.284 88.3221C195.255 88.2135 195.267 88.0978 195.319 87.9978C195.371 87.8979 195.458 87.8208 195.564 87.7819L213.443 76.8012C213.545 76.74 213.666 76.7211 213.782 76.7487C213.898 76.7763 213.998 76.8481 214.061 76.9485C214.092 76.9984 214.113 77.0541 214.123 77.1122C214.133 77.1704 214.131 77.2299 214.117 77.2872C214.103 77.3446 214.078 77.3986 214.043 77.4461C214.008 77.4936 213.963 77.5336 213.913 77.5639L196.034 88.5445C195.967 88.6007 195.886 88.6367 195.799 88.6485Z" fill="#012E6C"/>
<path d="M1.31915 121.036C1.21301 121.036 1.11121 120.994 1.03616 120.919C0.96111 120.844 0.918945 120.743 0.918945 120.637C0.918945 120.532 0.96111 120.43 1.03616 120.355C1.11121 120.281 1.21301 120.239 1.31915 120.239L28.2891 118.774C28.3429 118.768 28.3974 118.773 28.449 118.79C28.5006 118.806 28.5481 118.833 28.5884 118.869C28.6287 118.905 28.6609 118.949 28.6828 118.999C28.7047 119.048 28.7158 119.101 28.7155 119.155C28.7202 119.26 28.6837 119.362 28.6137 119.439C28.5438 119.517 28.446 119.565 28.3413 119.571L1.37135 121.036H1.31915Z" fill="#F0F7FE"/>
<path d="M65.9858 203.517C65.9089 203.518 65.8332 203.497 65.7683 203.456C65.6795 203.398 65.6172 203.307 65.5944 203.203C65.5717 203.1 65.5904 202.991 65.6465 202.901L78.8792 182.405C78.906 182.357 78.9423 182.316 78.9858 182.283C79.0294 182.25 79.0793 182.226 79.1324 182.213C79.1855 182.2 79.2408 182.198 79.2947 182.207C79.3487 182.216 79.4002 182.236 79.4461 182.265C79.492 182.295 79.5313 182.334 79.5616 182.379C79.5919 182.425 79.6124 182.476 79.6221 182.53C79.6317 182.583 79.6303 182.638 79.6177 182.691C79.6051 182.744 79.5818 182.794 79.5491 182.838L66.3599 203.335C66.3203 203.396 66.2645 203.446 66.1985 203.478C66.1325 203.51 66.0589 203.523 65.9858 203.517Z" fill="#F0F7FE"/>
<path d="M16.0135 170.331C15.9421 170.33 15.8723 170.31 15.8111 170.274C15.7499 170.237 15.6996 170.185 15.6655 170.123C15.6396 170.077 15.6231 170.027 15.617 169.975C15.6108 169.923 15.6152 169.871 15.6298 169.821C15.6444 169.771 15.6689 169.724 15.702 169.684C15.735 169.643 15.7759 169.61 15.8221 169.585L35.9104 158.353C36.0042 158.303 36.1139 158.291 36.2162 158.32C36.3186 158.349 36.4055 158.417 36.4585 158.509C36.4849 158.555 36.5021 158.605 36.509 158.657C36.5158 158.709 36.5123 158.762 36.4986 158.813C36.4848 158.864 36.4611 158.911 36.4289 158.953C36.3966 158.994 36.3564 159.029 36.3106 159.055L16.2223 170.322C16.1547 170.343 16.0826 170.346 16.0135 170.331Z" fill="#F0F7FE"/>
<path d="M164.949 14.6434C164.884 14.6433 164.821 14.6276 164.764 14.5977C164.707 14.5679 164.658 14.5247 164.621 14.472C164.584 14.4192 164.561 14.3584 164.553 14.2947C164.545 14.231 164.552 14.1663 164.575 14.1061L169.473 0.967435C169.515 0.875782 169.59 0.803378 169.684 0.764783C169.777 0.726188 169.882 0.724265 169.976 0.759402C170.071 0.79454 170.149 0.864131 170.195 0.954178C170.24 1.04422 170.249 1.14805 170.221 1.24477L165.323 14.4181C165.29 14.4885 165.237 14.5475 165.17 14.5876C165.104 14.6278 165.027 14.6472 164.949 14.6434Z" fill="#F0F7FE"/>
<path d="M238.925 94.1951C238.831 94.1963 238.74 94.1636 238.668 94.1031C238.596 94.0427 238.548 93.9584 238.534 93.8658C238.525 93.814 238.527 93.761 238.539 93.7098C238.551 93.6587 238.573 93.6104 238.603 93.5677C238.634 93.525 238.673 93.4888 238.718 93.4611C238.763 93.4335 238.812 93.4149 238.864 93.4065L259.927 89.9398C260.032 89.9246 260.138 89.9504 260.224 90.0118C260.31 90.0733 260.369 90.1655 260.388 90.2691C260.397 90.3209 260.395 90.3739 260.383 90.4251C260.371 90.4763 260.349 90.5246 260.319 90.5673C260.288 90.6099 260.249 90.6461 260.204 90.6738C260.16 90.7015 260.11 90.7201 260.058 90.7285L238.986 94.1518L238.925 94.1951Z" fill="#F0F7FE"/>
<path d="M238.437 181.07C238.377 181.071 238.316 181.057 238.262 181.03C238.207 181.003 238.16 180.963 238.124 180.914L224.892 164.326C224.827 164.241 224.799 164.135 224.812 164.03C224.825 163.925 224.878 163.829 224.961 163.763C225.001 163.73 225.048 163.705 225.098 163.69C225.148 163.675 225.201 163.67 225.252 163.676C225.304 163.682 225.354 163.698 225.4 163.723C225.446 163.748 225.486 163.782 225.518 163.823L238.751 180.42C238.784 180.461 238.808 180.509 238.822 180.56C238.837 180.611 238.841 180.664 238.834 180.716C238.828 180.769 238.811 180.819 238.784 180.865C238.758 180.911 238.723 180.951 238.681 180.983C238.611 181.037 238.526 181.067 238.437 181.07Z" fill="#F0F7FE"/>
<path d="M32.5004 40.1665C32.4046 40.1675 32.3117 40.1336 32.2394 40.0711L22.7825 31.9764C22.7096 31.9006 22.6689 31.7997 22.6689 31.6948C22.6689 31.5898 22.7096 31.4889 22.7825 31.4131C22.816 31.3722 22.8575 31.3384 22.9045 31.3139C22.9515 31.2894 23.003 31.2747 23.0559 31.2707C23.1088 31.2666 23.1619 31.2733 23.2121 31.2904C23.2623 31.3074 23.3086 31.3344 23.348 31.3698L32.8049 39.4644C32.846 39.4978 32.8798 39.5392 32.9044 39.586C32.929 39.6328 32.9438 39.6841 32.9478 39.7368C32.9519 39.7895 32.9452 39.8425 32.9281 39.8925C32.911 39.9425 32.8839 39.9885 32.8484 40.0278C32.8072 40.0787 32.7535 40.1182 32.6926 40.1424C32.6316 40.1667 32.5654 40.175 32.5004 40.1665Z" fill="#F0F7FE"/>
<path d="M199 140.587C198.927 140.587 198.856 140.569 198.792 140.535C198.741 140.508 198.697 140.472 198.661 140.429C198.625 140.385 198.598 140.335 198.582 140.281C198.566 140.227 198.561 140.17 198.567 140.114C198.573 140.058 198.59 140.003 198.618 139.954L208.092 122.707C208.138 122.623 208.211 122.556 208.299 122.519C208.387 122.481 208.486 122.474 208.579 122.499C208.673 122.521 208.756 122.575 208.814 122.65C208.873 122.726 208.903 122.82 208.901 122.915V138.203C208.901 138.318 208.855 138.428 208.774 138.51C208.692 138.591 208.581 138.637 208.466 138.637C208.351 138.637 208.24 138.591 208.158 138.51C208.077 138.428 208.031 138.318 208.031 138.203V124.605L199.331 140.37C199.297 140.43 199.249 140.48 199.192 140.518C199.134 140.556 199.069 140.579 199 140.587Z" fill="white"/>
</svg>
