<svg width="263" height="527" viewBox="0 0 263 527" fill="none" xmlns="http://www.w3.org/2000/svg">
<g clip-path="url(#clip0_3278_73358)">
<path d="M19.0702 5.76705C20.6669 5.76705 21.9487 4.48298 21.9487 2.88353C21.9487 1.28407 20.6669 0 19.0702 0C17.4735 0 16.1917 1.28407 16.1917 2.88353C16.1917 4.48298 17.4735 5.76705 19.0702 5.76705Z" fill="#6DB0E2"/>
<path d="M51.4537 5.76705C53.0504 5.76705 54.3322 4.48298 54.3322 2.88353C54.3322 1.28407 53.0504 0 51.4537 0C49.857 0 48.5752 1.28407 48.5752 2.88353C48.5752 4.48298 49.857 5.76705 51.4537 5.76705Z" fill="#6DB0E2"/>
<path d="M83.837 5.76705C85.4337 5.76705 86.7155 4.48298 86.7155 2.88353C86.7155 1.28407 85.4337 0 83.837 0C82.2403 0 80.9585 1.28407 80.9585 2.88353C80.9585 4.48298 82.2403 5.76705 83.837 5.76705Z" fill="#6DB0E2"/>
<path d="M116.22 5.76705C117.81 5.76705 119.099 4.47605 119.099 2.88353C119.099 1.291 117.81 0 116.22 0C114.631 0 113.342 1.291 113.342 2.88353C113.342 4.47605 114.631 5.76705 116.22 5.76705Z" fill="#6DB0E2"/>
<path d="M148.604 5.76705C150.201 5.76705 151.482 4.48298 151.482 2.88353C151.482 1.28407 150.201 0 148.604 0C147.007 0 145.725 1.28407 145.725 2.88353C145.725 4.48298 147.007 5.76705 148.604 5.76705Z" fill="#6DB0E2"/>
<path d="M180.987 5.76705C182.584 5.76705 183.866 4.48298 183.866 2.88353C183.866 1.28407 182.584 0 180.987 0C179.39 0 178.109 1.28407 178.109 2.88353C178.109 4.48298 179.39 5.76705 180.987 5.76705Z" fill="#6DB0E2"/>
<path d="M213.37 5.76705C214.967 5.76705 216.249 4.48298 216.249 2.88353C216.249 1.28407 214.967 0 213.37 0C211.774 0 210.492 1.28407 210.492 2.88353C210.492 4.48298 211.774 5.76705 213.37 5.76705Z" fill="#6DB0E2"/>
<path d="M245.754 5.76705C247.351 5.76705 248.633 4.48298 248.633 2.88353C248.633 1.28407 247.351 0 245.754 0C244.157 0 242.875 1.28407 242.875 2.88353C242.875 4.48298 244.157 5.76705 245.754 5.76705Z" fill="#6DB0E2"/>
<path d="M2.87852 38.2065C4.4752 38.2065 5.75705 36.9224 5.75705 35.323C5.75705 33.7235 4.4752 32.4395 2.87852 32.4395C1.28184 32.4395 0 33.7235 0 35.323C0 36.9224 1.28184 38.2065 2.87852 38.2065Z" fill="#6DB0E2"/>
<path d="M35.2618 38.2065C36.8516 38.2065 38.1403 36.9155 38.1403 35.323C38.1403 33.7305 36.8516 32.4395 35.2618 32.4395C33.6721 32.4395 32.3833 33.7305 32.3833 35.323C32.3833 36.9155 33.6721 38.2065 35.2618 38.2065Z" fill="#6DB0E2"/>
<path d="M67.6454 38.2065C69.2421 38.2065 70.5239 36.9224 70.5239 35.323C70.5239 33.7235 69.2421 32.4395 67.6454 32.4395C66.0487 32.4395 64.7668 33.7235 64.7668 35.323C64.7668 36.9224 66.0487 38.2065 67.6454 38.2065Z" fill="#6DB0E2"/>
<path d="M100.029 38.2065C101.625 38.2065 102.907 36.9224 102.907 35.323C102.907 33.7235 101.625 32.4395 100.029 32.4395C98.432 32.4395 97.1501 33.7235 97.1501 35.323C97.1501 36.9224 98.432 38.2065 100.029 38.2065Z" fill="#6DB0E2"/>
<path d="M132.412 38.2065C134.009 38.2065 135.291 36.9224 135.291 35.323C135.291 33.7235 134.009 32.4395 132.412 32.4395C130.816 32.4395 129.534 33.7235 129.534 35.323C129.534 36.9224 130.816 38.2065 132.412 38.2065Z" fill="#6DB0E2"/>
<path d="M164.796 38.2065C166.392 38.2065 167.674 36.9224 167.674 35.323C167.674 33.7235 166.392 32.4395 164.796 32.4395C163.199 32.4395 161.917 33.7235 161.917 35.323C161.917 36.9224 163.199 38.2065 164.796 38.2065Z" fill="#6DB0E2"/>
<path d="M197.179 38.2065C198.769 38.2065 200.057 36.9155 200.057 35.323C200.057 33.7305 198.769 32.4395 197.179 32.4395C195.589 32.4395 194.3 33.7305 194.3 35.323C194.3 36.9155 195.589 38.2065 197.179 38.2065Z" fill="#6DB0E2"/>
<path d="M229.562 38.2065C231.159 38.2065 232.441 36.9224 232.441 35.323C232.441 33.7235 231.159 32.4395 229.562 32.4395C227.966 32.4395 226.684 33.7235 226.684 35.323C226.684 36.9224 227.966 38.2065 229.562 38.2065Z" fill="#6DB0E2"/>
<path d="M261.946 38.2065C263.542 38.2065 264.824 36.9224 264.824 35.323C264.824 33.7235 263.542 32.4395 261.946 32.4395C260.349 32.4395 259.067 33.7235 259.067 35.323C259.067 36.9224 260.349 38.2065 261.946 38.2065Z" fill="#6DB0E2"/>
<path d="M19.0702 70.646C20.6669 70.646 21.9487 69.3619 21.9487 67.7624C21.9487 66.163 20.6669 64.8789 19.0702 64.8789C17.4735 64.8789 16.1917 66.163 16.1917 67.7624C16.1917 69.3619 17.4735 70.646 19.0702 70.646Z" fill="#6DB0E2"/>
<path d="M51.4537 70.646C53.0504 70.646 54.3322 69.3619 54.3322 67.7624C54.3322 66.163 53.0504 64.8789 51.4537 64.8789C49.857 64.8789 48.5752 66.163 48.5752 67.7624C48.5752 69.3619 49.857 70.646 51.4537 70.646Z" fill="#6DB0E2"/>
<path d="M83.837 70.646C85.4337 70.646 86.7155 69.3619 86.7155 67.7624C86.7155 66.163 85.4337 64.8789 83.837 64.8789C82.2403 64.8789 80.9585 66.163 80.9585 67.7624C80.9585 69.3619 82.2403 70.646 83.837 70.646Z" fill="#6DB0E2"/>
<path d="M116.22 70.646C117.817 70.646 119.099 69.3619 119.099 67.7624C119.099 66.163 117.817 64.8789 116.22 64.8789C114.624 64.8789 113.342 66.163 113.342 67.7624C113.342 69.3619 114.624 70.646 116.22 70.646Z" fill="#6DB0E2"/>
<path d="M148.604 70.646C150.201 70.646 151.482 69.3619 151.482 67.7624C151.482 66.163 150.201 64.8789 148.604 64.8789C147.007 64.8789 145.725 66.163 145.725 67.7624C145.725 69.3619 147.007 70.646 148.604 70.646Z" fill="#6DB0E2"/>
<path d="M180.987 70.646C182.584 70.646 183.866 69.3619 183.866 67.7624C183.866 66.163 182.584 64.8789 180.987 64.8789C179.39 64.8789 178.109 66.163 178.109 67.7624C178.109 69.3619 179.39 70.646 180.987 70.646Z" fill="#6DB0E2"/>
<path d="M213.37 70.646C214.967 70.646 216.249 69.3619 216.249 67.7624C216.249 66.163 214.967 64.8789 213.37 64.8789C211.774 64.8789 210.492 66.163 210.492 67.7624C210.492 69.3619 211.774 70.646 213.37 70.646Z" fill="#6DB0E2"/>
<path d="M245.754 70.646C247.351 70.646 248.633 69.3619 248.633 67.7624C248.633 66.163 247.351 64.8789 245.754 64.8789C244.157 64.8789 242.875 66.163 242.875 67.7624C242.875 69.3619 244.157 70.646 245.754 70.646Z" fill="#6DB0E2"/>
<path d="M2.87852 103.085C4.4752 103.085 5.75705 101.801 5.75705 100.202C5.75705 98.6024 4.4752 97.3184 2.87852 97.3184C1.28184 97.3184 0 98.6024 0 100.202C0 101.801 1.28184 103.085 2.87852 103.085Z" fill="#6DB0E2"/>
<path d="M35.2618 103.085C36.8585 103.085 38.1403 101.801 38.1403 100.202C38.1403 98.6024 36.8585 97.3184 35.2618 97.3184C33.6651 97.3184 32.3833 98.6024 32.3833 100.202C32.3833 101.801 33.6651 103.085 35.2618 103.085Z" fill="#6DB0E2"/>
<path d="M67.6454 103.085C69.2421 103.085 70.5239 101.801 70.5239 100.202C70.5239 98.6024 69.2421 97.3184 67.6454 97.3184C66.0487 97.3184 64.7668 98.6024 64.7668 100.202C64.7668 101.801 66.0487 103.085 67.6454 103.085Z" fill="#6DB0E2"/>
<path d="M100.029 103.085C101.625 103.085 102.907 101.801 102.907 100.202C102.907 98.6024 101.625 97.3184 100.029 97.3184C98.432 97.3184 97.1501 98.6024 97.1501 100.202C97.1501 101.801 98.432 103.085 100.029 103.085Z" fill="#6DB0E2"/>
<path d="M132.412 103.085C134.009 103.085 135.291 101.801 135.291 100.202C135.291 98.6024 134.009 97.3184 132.412 97.3184C130.816 97.3184 129.534 98.6024 129.534 100.202C129.534 101.801 130.816 103.085 132.412 103.085Z" fill="#6DB0E2"/>
<path d="M164.796 103.085C166.392 103.085 167.674 101.801 167.674 100.202C167.674 98.6024 166.392 97.3184 164.796 97.3184C163.199 97.3184 161.917 98.6024 161.917 100.202C161.917 101.801 163.199 103.085 164.796 103.085Z" fill="#6DB0E2"/>
<path d="M197.179 103.085C198.775 103.085 200.057 101.801 200.057 100.202C200.057 98.6024 198.775 97.3184 197.179 97.3184C195.582 97.3184 194.3 98.6024 194.3 100.202C194.3 101.801 195.582 103.085 197.179 103.085Z" fill="#6DB0E2"/>
<path d="M229.562 103.085C231.159 103.085 232.441 101.801 232.441 100.202C232.441 98.6024 231.159 97.3184 229.562 97.3184C227.966 97.3184 226.684 98.6024 226.684 100.202C226.684 101.801 227.966 103.085 229.562 103.085Z" fill="#6DB0E2"/>
<path d="M261.946 103.085C263.542 103.085 264.824 101.801 264.824 100.202C264.824 98.6024 263.542 97.3184 261.946 97.3184C260.349 97.3184 259.067 98.6024 259.067 100.202C259.067 101.801 260.349 103.085 261.946 103.085Z" fill="#6DB0E2"/>
<path d="M19.0702 135.525C20.6669 135.525 21.9487 134.241 21.9487 132.641C21.9487 131.042 20.6669 129.758 19.0702 129.758C17.4735 129.758 16.1917 131.042 16.1917 132.641C16.1917 134.241 17.4735 135.525 19.0702 135.525Z" fill="#6DB0E2"/>
<path d="M51.4537 135.525C53.0504 135.525 54.3322 134.241 54.3322 132.641C54.3322 131.042 53.0504 129.758 51.4537 129.758C49.857 129.758 48.5752 131.042 48.5752 132.641C48.5752 134.241 49.857 135.525 51.4537 135.525Z" fill="#6DB0E2"/>
<path d="M83.837 135.525C85.4337 135.525 86.7155 134.241 86.7155 132.641C86.7155 131.042 85.4337 129.758 83.837 129.758C82.2403 129.758 80.9585 131.042 80.9585 132.641C80.9585 134.241 82.2403 135.525 83.837 135.525Z" fill="#6DB0E2"/>
<path d="M116.22 135.525C117.817 135.525 119.099 134.241 119.099 132.641C119.099 131.042 117.817 129.758 116.22 129.758C114.624 129.758 113.342 131.042 113.342 132.641C113.342 134.241 114.624 135.525 116.22 135.525Z" fill="#6DB0E2"/>
<path d="M148.604 135.525C150.201 135.525 151.482 134.241 151.482 132.641C151.482 131.042 150.201 129.758 148.604 129.758C147.007 129.758 145.725 131.042 145.725 132.641C145.725 134.241 147.007 135.525 148.604 135.525Z" fill="#6DB0E2"/>
<path d="M180.987 135.525C182.584 135.525 183.866 134.241 183.866 132.641C183.866 131.042 182.584 129.758 180.987 129.758C179.39 129.758 178.109 131.042 178.109 132.641C178.109 134.241 179.39 135.525 180.987 135.525Z" fill="#6DB0E2"/>
<path d="M213.37 135.525C214.967 135.525 216.249 134.241 216.249 132.641C216.249 131.042 214.967 129.758 213.37 129.758C211.774 129.758 210.492 131.042 210.492 132.641C210.492 134.241 211.774 135.525 213.37 135.525Z" fill="#6DB0E2"/>
<path d="M245.754 135.525C247.351 135.525 248.633 134.241 248.633 132.641C248.633 131.042 247.351 129.758 245.754 129.758C244.157 129.758 242.875 131.042 242.875 132.641C242.875 134.241 244.157 135.525 245.754 135.525Z" fill="#6DB0E2"/>
<path d="M2.87852 167.966C4.4752 167.966 5.75705 166.682 5.75705 165.083C5.75705 163.483 4.4752 162.199 2.87852 162.199C1.28184 162.199 0 163.483 0 165.083C0 166.682 1.28184 167.966 2.87852 167.966Z" fill="#6DB0E2"/>
<path d="M35.2618 167.966C36.8516 167.966 38.1403 166.675 38.1403 165.083C38.1403 163.49 36.8516 162.199 35.2618 162.199C33.6721 162.199 32.3833 163.49 32.3833 165.083C32.3833 166.675 33.6721 167.966 35.2618 167.966Z" fill="#6DB0E2"/>
<path d="M67.6454 167.966C69.2421 167.966 70.5239 166.682 70.5239 165.083C70.5239 163.483 69.2421 162.199 67.6454 162.199C66.0487 162.199 64.7668 163.483 64.7668 165.083C64.7668 166.682 66.0487 167.966 67.6454 167.966Z" fill="#6DB0E2"/>
<path d="M100.029 167.966C101.625 167.966 102.907 166.682 102.907 165.083C102.907 163.483 101.625 162.199 100.029 162.199C98.432 162.199 97.1501 163.483 97.1501 165.083C97.1501 166.682 98.432 167.966 100.029 167.966Z" fill="#6DB0E2"/>
<path d="M132.412 167.966C134.009 167.966 135.291 166.682 135.291 165.083C135.291 163.483 134.009 162.199 132.412 162.199C130.816 162.199 129.534 163.483 129.534 165.083C129.534 166.682 130.816 167.966 132.412 167.966Z" fill="#6DB0E2"/>
<path d="M164.796 167.966C166.392 167.966 167.674 166.682 167.674 165.083C167.674 163.483 166.392 162.199 164.796 162.199C163.199 162.199 161.917 163.483 161.917 165.083C161.917 166.682 163.199 167.966 164.796 167.966Z" fill="#6DB0E2"/>
<path d="M197.179 167.966C198.769 167.966 200.057 166.675 200.057 165.083C200.057 163.49 198.769 162.199 197.179 162.199C195.589 162.199 194.3 163.49 194.3 165.083C194.3 166.675 195.589 167.966 197.179 167.966Z" fill="#6DB0E2"/>
<path d="M229.562 167.966C231.159 167.966 232.441 166.682 232.441 165.083C232.441 163.483 231.159 162.199 229.562 162.199C227.966 162.199 226.684 163.483 226.684 165.083C226.684 166.682 227.966 167.966 229.562 167.966Z" fill="#6DB0E2"/>
<path d="M261.946 167.966C263.542 167.966 264.824 166.682 264.824 165.083C264.824 163.483 263.542 162.199 261.946 162.199C260.349 162.199 259.067 163.483 259.067 165.083C259.067 166.682 260.349 167.966 261.946 167.966Z" fill="#6DB0E2"/>
<path d="M19.0702 200.406C20.6669 200.406 21.9487 199.122 21.9487 197.522C21.9487 195.923 20.6669 194.639 19.0702 194.639C17.4735 194.639 16.1917 195.923 16.1917 197.522C16.1917 199.122 17.4735 200.406 19.0702 200.406Z" fill="#6DB0E2"/>
<path d="M51.4537 200.406C53.0504 200.406 54.3322 199.122 54.3322 197.522C54.3322 195.923 53.0504 194.639 51.4537 194.639C49.857 194.639 48.5752 195.923 48.5752 197.522C48.5752 199.122 49.857 200.406 51.4537 200.406Z" fill="#6DB0E2"/>
<path d="M83.837 200.406C85.4337 200.406 86.7155 199.122 86.7155 197.522C86.7155 195.923 85.4337 194.639 83.837 194.639C82.2403 194.639 80.9585 195.923 80.9585 197.522C80.9585 199.122 82.2403 200.406 83.837 200.406Z" fill="#6DB0E2"/>
<path d="M116.22 200.406C117.81 200.406 119.099 199.115 119.099 197.522C119.099 195.93 117.81 194.639 116.22 194.639C114.631 194.639 113.342 195.93 113.342 197.522C113.342 199.115 114.631 200.406 116.22 200.406Z" fill="#6DB0E2"/>
<path d="M148.604 200.406C150.201 200.406 151.482 199.122 151.482 197.522C151.482 195.923 150.201 194.639 148.604 194.639C147.007 194.639 145.725 195.923 145.725 197.522C145.725 199.122 147.007 200.406 148.604 200.406Z" fill="#6DB0E2"/>
<path d="M180.987 200.406C182.584 200.406 183.866 199.122 183.866 197.522C183.866 195.923 182.584 194.639 180.987 194.639C179.39 194.639 178.109 195.923 178.109 197.522C178.109 199.122 179.39 200.406 180.987 200.406Z" fill="#6DB0E2"/>
<path d="M213.37 200.406C214.967 200.406 216.249 199.122 216.249 197.522C216.249 195.923 214.967 194.639 213.37 194.639C211.774 194.639 210.492 195.923 210.492 197.522C210.492 199.122 211.774 200.406 213.37 200.406Z" fill="#6DB0E2"/>
<path d="M245.754 200.406C247.351 200.406 248.633 199.122 248.633 197.522C248.633 195.923 247.351 194.639 245.754 194.639C244.157 194.639 242.875 195.923 242.875 197.522C242.875 199.122 244.157 200.406 245.754 200.406Z" fill="#6DB0E2"/>
<path d="M2.87852 232.845C4.4752 232.845 5.75705 231.561 5.75705 229.962C5.75705 228.362 4.4752 227.078 2.87852 227.078C1.28184 227.078 0 228.362 0 229.962C0 231.561 1.28184 232.845 2.87852 232.845Z" fill="#6DB0E2"/>
<path d="M35.2618 232.845C36.8585 232.845 38.1403 231.561 38.1403 229.962C38.1403 228.362 36.8585 227.078 35.2618 227.078C33.6651 227.078 32.3833 228.362 32.3833 229.962C32.3833 231.561 33.6651 232.845 35.2618 232.845Z" fill="#6DB0E2"/>
<path d="M67.6454 232.845C69.2421 232.845 70.5239 231.561 70.5239 229.962C70.5239 228.362 69.2421 227.078 67.6454 227.078C66.0487 227.078 64.7668 228.362 64.7668 229.962C64.7668 231.561 66.0487 232.845 67.6454 232.845Z" fill="#6DB0E2"/>
<path d="M100.029 232.845C101.625 232.845 102.907 231.561 102.907 229.962C102.907 228.362 101.625 227.078 100.029 227.078C98.432 227.078 97.1501 228.362 97.1501 229.962C97.1501 231.561 98.432 232.845 100.029 232.845Z" fill="#6DB0E2"/>
<path d="M132.412 232.845C134.009 232.845 135.291 231.561 135.291 229.962C135.291 228.362 134.009 227.078 132.412 227.078C130.816 227.078 129.534 228.362 129.534 229.962C129.534 231.561 130.816 232.845 132.412 232.845Z" fill="#6DB0E2"/>
<path d="M164.796 232.845C166.392 232.845 167.674 231.561 167.674 229.962C167.674 228.362 166.392 227.078 164.796 227.078C163.199 227.078 161.917 228.362 161.917 229.962C161.917 231.561 163.199 232.845 164.796 232.845Z" fill="#6DB0E2"/>
<path d="M197.179 232.845C198.775 232.845 200.057 231.561 200.057 229.962C200.057 228.362 198.775 227.078 197.179 227.078C195.582 227.078 194.3 228.362 194.3 229.962C194.3 231.561 195.582 232.845 197.179 232.845Z" fill="#6DB0E2"/>
<path d="M229.562 232.845C231.159 232.845 232.441 231.561 232.441 229.962C232.441 228.362 231.159 227.078 229.562 227.078C227.966 227.078 226.684 228.362 226.684 229.962C226.684 231.561 227.966 232.845 229.562 232.845Z" fill="#6DB0E2"/>
<path d="M261.946 232.845C263.542 232.845 264.824 231.561 264.824 229.962C264.824 228.362 263.542 227.078 261.946 227.078C260.349 227.078 259.067 228.362 259.067 229.962C259.067 231.561 260.349 232.845 261.946 232.845Z" fill="#6DB0E2"/>
<path d="M19.0702 265.285C20.6669 265.285 21.9487 264.001 21.9487 262.401C21.9487 260.802 20.6669 259.518 19.0702 259.518C17.4735 259.518 16.1917 260.802 16.1917 262.401C16.1917 264.001 17.4735 265.285 19.0702 265.285Z" fill="#6DB0E2"/>
<path d="M51.4537 265.285C53.0504 265.285 54.3322 264.001 54.3322 262.401C54.3322 260.802 53.0504 259.518 51.4537 259.518C49.857 259.518 48.5752 260.802 48.5752 262.401C48.5752 264.001 49.857 265.285 51.4537 265.285Z" fill="#6DB0E2"/>
<path d="M83.837 265.285C85.4337 265.285 86.7155 264.001 86.7155 262.401C86.7155 260.802 85.4337 259.518 83.837 259.518C82.2403 259.518 80.9585 260.802 80.9585 262.401C80.9585 264.001 82.2403 265.285 83.837 265.285Z" fill="#6DB0E2"/>
<path d="M116.22 265.285C117.817 265.285 119.099 264.001 119.099 262.401C119.099 260.802 117.817 259.518 116.22 259.518C114.624 259.518 113.342 260.802 113.342 262.401C113.342 264.001 114.624 265.285 116.22 265.285Z" fill="#6DB0E2"/>
<path d="M148.604 265.285C150.201 265.285 151.482 264.001 151.482 262.401C151.482 260.802 150.201 259.518 148.604 259.518C147.007 259.518 145.725 260.802 145.725 262.401C145.725 264.001 147.007 265.285 148.604 265.285Z" fill="#6DB0E2"/>
<path d="M180.987 265.285C182.584 265.285 183.866 264.001 183.866 262.401C183.866 260.802 182.584 259.518 180.987 259.518C179.39 259.518 178.109 260.802 178.109 262.401C178.109 264.001 179.39 265.285 180.987 265.285Z" fill="#6DB0E2"/>
<path d="M213.37 265.285C214.967 265.285 216.249 264.001 216.249 262.401C216.249 260.802 214.967 259.518 213.37 259.518C211.774 259.518 210.492 260.802 210.492 262.401C210.492 264.001 211.774 265.285 213.37 265.285Z" fill="#6DB0E2"/>
<path d="M245.754 265.285C247.351 265.285 248.633 264.001 248.633 262.401C248.633 260.802 247.351 259.518 245.754 259.518C244.157 259.518 242.875 260.802 242.875 262.401C242.875 264.001 244.157 265.285 245.754 265.285Z" fill="#6DB0E2"/>
<path d="M2.87852 297.724C4.4752 297.724 5.75705 296.44 5.75705 294.841C5.75705 293.241 4.4752 291.957 2.87852 291.957C1.28184 291.957 0 293.241 0 294.841C0 296.44 1.28184 297.724 2.87852 297.724Z" fill="#6DB0E2"/>
<path d="M35.2618 297.724C36.8585 297.724 38.1403 296.44 38.1403 294.841C38.1403 293.241 36.8585 291.957 35.2618 291.957C33.6651 291.957 32.3833 293.241 32.3833 294.841C32.3833 296.44 33.6651 297.724 35.2618 297.724Z" fill="#6DB0E2"/>
<path d="M67.6454 297.724C69.2421 297.724 70.5239 296.44 70.5239 294.841C70.5239 293.241 69.2421 291.957 67.6454 291.957C66.0487 291.957 64.7668 293.241 64.7668 294.841C64.7668 296.44 66.0487 297.724 67.6454 297.724Z" fill="#6DB0E2"/>
<path d="M100.029 297.724C101.625 297.724 102.907 296.44 102.907 294.841C102.907 293.241 101.625 291.957 100.029 291.957C98.432 291.957 97.1501 293.241 97.1501 294.841C97.1501 296.44 98.432 297.724 100.029 297.724Z" fill="#6DB0E2"/>
<path d="M132.412 297.724C134.009 297.724 135.291 296.44 135.291 294.841C135.291 293.241 134.009 291.957 132.412 291.957C130.816 291.957 129.534 293.241 129.534 294.841C129.534 296.44 130.816 297.724 132.412 297.724Z" fill="#6DB0E2"/>
<path d="M164.796 297.724C166.392 297.724 167.674 296.44 167.674 294.841C167.674 293.241 166.392 291.957 164.796 291.957C163.199 291.957 161.917 293.241 161.917 294.841C161.917 296.44 163.199 297.724 164.796 297.724Z" fill="#6DB0E2"/>
<path d="M197.179 297.724C198.775 297.724 200.057 296.44 200.057 294.841C200.057 293.241 198.775 291.957 197.179 291.957C195.582 291.957 194.3 293.241 194.3 294.841C194.3 296.44 195.582 297.724 197.179 297.724Z" fill="#6DB0E2"/>
<path d="M229.562 297.724C231.159 297.724 232.441 296.44 232.441 294.841C232.441 293.241 231.159 291.957 229.562 291.957C227.966 291.957 226.684 293.241 226.684 294.841C226.684 296.44 227.966 297.724 229.562 297.724Z" fill="#6DB0E2"/>
<path d="M261.946 297.724C263.542 297.724 264.824 296.44 264.824 294.841C264.824 293.241 263.542 291.957 261.946 291.957C260.349 291.957 259.067 293.241 259.067 294.841C259.067 296.44 260.349 297.724 261.946 297.724Z" fill="#6DB0E2"/>
<path d="M19.0702 330.164C20.6669 330.164 21.9487 328.879 21.9487 327.28C21.9487 325.681 20.6669 324.396 19.0702 324.396C17.4735 324.396 16.1917 325.681 16.1917 327.28C16.1917 328.879 17.4735 330.164 19.0702 330.164Z" fill="#6DB0E2"/>
<path d="M51.4537 330.164C53.0504 330.164 54.3322 328.879 54.3322 327.28C54.3322 325.681 53.0504 324.396 51.4537 324.396C49.857 324.396 48.5752 325.681 48.5752 327.28C48.5752 328.879 49.857 330.164 51.4537 330.164Z" fill="#6DB0E2"/>
<path d="M83.837 330.164C85.4337 330.164 86.7155 328.879 86.7155 327.28C86.7155 325.681 85.4337 324.396 83.837 324.396C82.2403 324.396 80.9585 325.681 80.9585 327.28C80.9585 328.879 82.2403 330.164 83.837 330.164Z" fill="#6DB0E2"/>
<path d="M116.22 330.164C117.81 330.164 119.099 328.873 119.099 327.28C119.099 325.687 117.81 324.396 116.22 324.396C114.631 324.396 113.342 325.687 113.342 327.28C113.342 328.873 114.631 330.164 116.22 330.164Z" fill="#6DB0E2"/>
<path d="M148.604 330.164C150.201 330.164 151.482 328.879 151.482 327.28C151.482 325.681 150.201 324.396 148.604 324.396C147.007 324.396 145.725 325.681 145.725 327.28C145.725 328.879 147.007 330.164 148.604 330.164Z" fill="#6DB0E2"/>
<path d="M180.987 330.164C182.584 330.164 183.866 328.879 183.866 327.28C183.866 325.681 182.584 324.396 180.987 324.396C179.39 324.396 178.109 325.681 178.109 327.28C178.109 328.879 179.39 330.164 180.987 330.164Z" fill="#6DB0E2"/>
<path d="M213.37 330.164C214.967 330.164 216.249 328.879 216.249 327.28C216.249 325.681 214.967 324.396 213.37 324.396C211.774 324.396 210.492 325.681 210.492 327.28C210.492 328.879 211.774 330.164 213.37 330.164Z" fill="#6DB0E2"/>
<path d="M245.754 330.164C247.351 330.164 248.633 328.879 248.633 327.28C248.633 325.681 247.351 324.396 245.754 324.396C244.157 324.396 242.875 325.681 242.875 327.28C242.875 328.879 244.157 330.164 245.754 330.164Z" fill="#6DB0E2"/>
<path d="M2.87852 362.603C4.4752 362.603 5.75705 361.319 5.75705 359.719C5.75705 358.12 4.4752 356.836 2.87852 356.836C1.28184 356.836 0 358.12 0 359.719C0 361.319 1.28184 362.603 2.87852 362.603Z" fill="#6DB0E2"/>
<path d="M35.2618 362.603C36.8516 362.603 38.1403 361.312 38.1403 359.719C38.1403 358.127 36.8516 356.836 35.2618 356.836C33.6721 356.836 32.3833 358.127 32.3833 359.719C32.3833 361.312 33.6721 362.603 35.2618 362.603Z" fill="#6DB0E2"/>
<path d="M67.6454 362.603C69.2421 362.603 70.5239 361.319 70.5239 359.719C70.5239 358.12 69.2421 356.836 67.6454 356.836C66.0487 356.836 64.7668 358.12 64.7668 359.719C64.7668 361.319 66.0487 362.603 67.6454 362.603Z" fill="#6DB0E2"/>
<path d="M100.029 362.603C101.625 362.603 102.907 361.319 102.907 359.719C102.907 358.12 101.625 356.836 100.029 356.836C98.432 356.836 97.1501 358.12 97.1501 359.719C97.1501 361.319 98.432 362.603 100.029 362.603Z" fill="#6DB0E2"/>
<path d="M132.412 362.603C134.009 362.603 135.291 361.319 135.291 359.719C135.291 358.12 134.009 356.836 132.412 356.836C130.816 356.836 129.534 358.12 129.534 359.719C129.534 361.319 130.816 362.603 132.412 362.603Z" fill="#6DB0E2"/>
<path d="M164.796 362.603C166.392 362.603 167.674 361.319 167.674 359.719C167.674 358.12 166.392 356.836 164.796 356.836C163.199 356.836 161.917 358.12 161.917 359.719C161.917 361.319 163.199 362.603 164.796 362.603Z" fill="#6DB0E2"/>
<path d="M197.179 362.603C198.769 362.603 200.057 361.312 200.057 359.719C200.057 358.127 198.769 356.836 197.179 356.836C195.589 356.836 194.3 358.127 194.3 359.719C194.3 361.312 195.589 362.603 197.179 362.603Z" fill="#6DB0E2"/>
<path d="M229.562 362.603C231.159 362.603 232.441 361.319 232.441 359.719C232.441 358.12 231.159 356.836 229.562 356.836C227.966 356.836 226.684 358.12 226.684 359.719C226.684 361.319 227.966 362.603 229.562 362.603Z" fill="#6DB0E2"/>
<path d="M261.946 362.603C263.542 362.603 264.824 361.319 264.824 359.719C264.824 358.12 263.542 356.836 261.946 356.836C260.349 356.836 259.067 358.12 259.067 359.719C259.067 361.319 260.349 362.603 261.946 362.603Z" fill="#6DB0E2"/>
<path d="M19.0702 395.042C20.6669 395.042 21.9487 393.758 21.9487 392.159C21.9487 390.559 20.6669 389.275 19.0702 389.275C17.4735 389.275 16.1917 390.559 16.1917 392.159C16.1917 393.758 17.4735 395.042 19.0702 395.042Z" fill="#6DB0E2"/>
<path d="M51.4537 395.042C53.0504 395.042 54.3322 393.758 54.3322 392.159C54.3322 390.559 53.0504 389.275 51.4537 389.275C49.857 389.275 48.5752 390.559 48.5752 392.159C48.5752 393.758 49.857 395.042 51.4537 395.042Z" fill="#6DB0E2"/>
<path d="M83.837 395.042C85.4337 395.042 86.7155 393.758 86.7155 392.159C86.7155 390.559 85.4337 389.275 83.837 389.275C82.2403 389.275 80.9585 390.559 80.9585 392.159C80.9585 393.758 82.2403 395.042 83.837 395.042Z" fill="#6DB0E2"/>
<path d="M116.22 395.042C117.817 395.042 119.099 393.758 119.099 392.159C119.099 390.559 117.817 389.275 116.22 389.275C114.624 389.275 113.342 390.559 113.342 392.159C113.342 393.758 114.624 395.042 116.22 395.042Z" fill="#6DB0E2"/>
<path d="M148.604 395.042C150.201 395.042 151.482 393.758 151.482 392.159C151.482 390.559 150.201 389.275 148.604 389.275C147.007 389.275 145.725 390.559 145.725 392.159C145.725 393.758 147.007 395.042 148.604 395.042Z" fill="#6DB0E2"/>
<path d="M180.987 395.042C182.584 395.042 183.866 393.758 183.866 392.159C183.866 390.559 182.584 389.275 180.987 389.275C179.39 389.275 178.109 390.559 178.109 392.159C178.109 393.758 179.39 395.042 180.987 395.042Z" fill="#6DB0E2"/>
<path d="M213.37 395.042C214.967 395.042 216.249 393.758 216.249 392.159C216.249 390.559 214.967 389.275 213.37 389.275C211.774 389.275 210.492 390.559 210.492 392.159C210.492 393.758 211.774 395.042 213.37 395.042Z" fill="#6DB0E2"/>
<path d="M245.754 395.042C247.351 395.042 248.633 393.758 248.633 392.159C248.633 390.559 247.351 389.275 245.754 389.275C244.157 389.275 242.875 390.559 242.875 392.159C242.875 393.758 244.157 395.042 245.754 395.042Z" fill="#6DB0E2"/>
<path d="M2.87852 427.482C4.4752 427.482 5.75705 426.198 5.75705 424.598C5.75705 422.999 4.4752 421.715 2.87852 421.715C1.28184 421.715 0 422.999 0 424.598C0 426.198 1.28184 427.482 2.87852 427.482Z" fill="#6DB0E2"/>
<path d="M35.2618 427.482C36.8585 427.482 38.1403 426.198 38.1403 424.598C38.1403 422.999 36.8585 421.715 35.2618 421.715C33.6651 421.715 32.3833 422.999 32.3833 424.598C32.3833 426.198 33.6651 427.482 35.2618 427.482Z" fill="#6DB0E2"/>
<path d="M67.6454 427.482C69.2421 427.482 70.5239 426.198 70.5239 424.598C70.5239 422.999 69.2421 421.715 67.6454 421.715C66.0487 421.715 64.7668 422.999 64.7668 424.598C64.7668 426.198 66.0487 427.482 67.6454 427.482Z" fill="#6DB0E2"/>
<path d="M100.029 427.482C101.625 427.482 102.907 426.198 102.907 424.598C102.907 422.999 101.625 421.715 100.029 421.715C98.432 421.715 97.1501 422.999 97.1501 424.598C97.1501 426.198 98.432 427.482 100.029 427.482Z" fill="#6DB0E2"/>
<path d="M132.412 427.482C134.009 427.482 135.291 426.198 135.291 424.598C135.291 422.999 134.009 421.715 132.412 421.715C130.816 421.715 129.534 422.999 129.534 424.598C129.534 426.198 130.816 427.482 132.412 427.482Z" fill="#6DB0E2"/>
<path d="M164.796 427.482C166.392 427.482 167.674 426.198 167.674 424.598C167.674 422.999 166.392 421.715 164.796 421.715C163.199 421.715 161.917 422.999 161.917 424.598C161.917 426.198 163.199 427.482 164.796 427.482Z" fill="#6DB0E2"/>
<path d="M197.179 427.482C198.775 427.482 200.057 426.198 200.057 424.598C200.057 422.999 198.775 421.715 197.179 421.715C195.582 421.715 194.3 422.999 194.3 424.598C194.3 426.198 195.582 427.482 197.179 427.482Z" fill="#6DB0E2"/>
<path d="M229.562 427.482C231.159 427.482 232.441 426.198 232.441 424.598C232.441 422.999 231.159 421.715 229.562 421.715C227.966 421.715 226.684 422.999 226.684 424.598C226.684 426.198 227.966 427.482 229.562 427.482Z" fill="#6DB0E2"/>
<path d="M261.946 427.482C263.542 427.482 264.824 426.198 264.824 424.598C264.824 422.999 263.542 421.715 261.946 421.715C260.349 421.715 259.067 422.999 259.067 424.598C259.067 426.198 260.349 427.482 261.946 427.482Z" fill="#6DB0E2"/>
<path d="M19.0702 459.923C20.6669 459.923 21.9487 458.639 21.9487 457.04C21.9487 455.44 20.6669 454.156 19.0702 454.156C17.4735 454.156 16.1917 455.44 16.1917 457.04C16.1917 458.639 17.4735 459.923 19.0702 459.923Z" fill="#6DB0E2"/>
<path d="M51.4537 459.923C53.0504 459.923 54.3322 458.639 54.3322 457.04C54.3322 455.44 53.0504 454.156 51.4537 454.156C49.857 454.156 48.5752 455.44 48.5752 457.04C48.5752 458.639 49.857 459.923 51.4537 459.923Z" fill="#6DB0E2"/>
<path d="M83.837 459.923C85.4337 459.923 86.7155 458.639 86.7155 457.04C86.7155 455.44 85.4337 454.156 83.837 454.156C82.2403 454.156 80.9585 455.44 80.9585 457.04C80.9585 458.639 82.2403 459.923 83.837 459.923Z" fill="#6DB0E2"/>
<path d="M116.22 459.923C117.817 459.923 119.099 458.639 119.099 457.04C119.099 455.44 117.817 454.156 116.22 454.156C114.624 454.156 113.342 455.44 113.342 457.04C113.342 458.639 114.624 459.923 116.22 459.923Z" fill="#6DB0E2"/>
<path d="M148.604 459.923C150.201 459.923 151.482 458.639 151.482 457.04C151.482 455.44 150.201 454.156 148.604 454.156C147.007 454.156 145.725 455.44 145.725 457.04C145.725 458.639 147.007 459.923 148.604 459.923Z" fill="#6DB0E2"/>
<path d="M180.987 459.923C182.584 459.923 183.866 458.639 183.866 457.04C183.866 455.44 182.584 454.156 180.987 454.156C179.39 454.156 178.109 455.44 178.109 457.04C178.109 458.639 179.39 459.923 180.987 459.923Z" fill="#6DB0E2"/>
<path d="M213.37 459.923C214.967 459.923 216.249 458.639 216.249 457.04C216.249 455.44 214.967 454.156 213.37 454.156C211.774 454.156 210.492 455.44 210.492 457.04C210.492 458.639 211.774 459.923 213.37 459.923Z" fill="#6DB0E2"/>
<path d="M245.754 459.923C247.351 459.923 248.633 458.639 248.633 457.04C248.633 455.44 247.351 454.156 245.754 454.156C244.157 454.156 242.875 455.44 242.875 457.04C242.875 458.639 244.157 459.923 245.754 459.923Z" fill="#6DB0E2"/>
<path d="M2.87852 492.363C4.4752 492.363 5.75705 491.079 5.75705 489.479C5.75705 487.88 4.4752 486.596 2.87852 486.596C1.28184 486.596 0 487.88 0 489.479C0 491.079 1.28184 492.363 2.87852 492.363Z" fill="#6DB0E2"/>
<path d="M35.2618 492.363C36.8516 492.363 38.1403 491.072 38.1403 489.479C38.1403 487.887 36.8516 486.596 35.2618 486.596C33.6721 486.596 32.3833 487.887 32.3833 489.479C32.3833 491.072 33.6721 492.363 35.2618 492.363Z" fill="#6DB0E2"/>
<path d="M67.6454 492.363C69.2421 492.363 70.5239 491.079 70.5239 489.479C70.5239 487.88 69.2421 486.596 67.6454 486.596C66.0487 486.596 64.7668 487.88 64.7668 489.479C64.7668 491.079 66.0487 492.363 67.6454 492.363Z" fill="#6DB0E2"/>
<path d="M100.029 492.363C101.625 492.363 102.907 491.079 102.907 489.479C102.907 487.88 101.625 486.596 100.029 486.596C98.432 486.596 97.1501 487.88 97.1501 489.479C97.1501 491.079 98.432 492.363 100.029 492.363Z" fill="#6DB0E2"/>
<path d="M132.412 492.363C134.009 492.363 135.291 491.079 135.291 489.479C135.291 487.88 134.009 486.596 132.412 486.596C130.816 486.596 129.534 487.88 129.534 489.479C129.534 491.079 130.816 492.363 132.412 492.363Z" fill="#6DB0E2"/>
<path d="M164.796 492.363C166.392 492.363 167.674 491.079 167.674 489.479C167.674 487.88 166.392 486.596 164.796 486.596C163.199 486.596 161.917 487.88 161.917 489.479C161.917 491.079 163.199 492.363 164.796 492.363Z" fill="#6DB0E2"/>
<path d="M197.179 492.363C198.769 492.363 200.057 491.072 200.057 489.479C200.057 487.887 198.769 486.596 197.179 486.596C195.589 486.596 194.3 487.887 194.3 489.479C194.3 491.072 195.589 492.363 197.179 492.363Z" fill="#6DB0E2"/>
<path d="M229.562 492.363C231.159 492.363 232.441 491.079 232.441 489.479C232.441 487.88 231.159 486.596 229.562 486.596C227.966 486.596 226.684 487.88 226.684 489.479C226.684 491.079 227.966 492.363 229.562 492.363Z" fill="#6DB0E2"/>
<path d="M261.946 492.363C263.542 492.363 264.824 491.079 264.824 489.479C264.824 487.88 263.542 486.596 261.946 486.596C260.349 486.596 259.067 487.88 259.067 489.479C259.067 491.079 260.349 492.363 261.946 492.363Z" fill="#6DB0E2"/>
<path d="M19.0702 524.802C20.6669 524.802 21.9487 523.518 21.9487 521.919C21.9487 520.319 20.6669 519.035 19.0702 519.035C17.4735 519.035 16.1917 520.319 16.1917 521.919C16.1917 523.518 17.4735 524.802 19.0702 524.802Z" fill="#6DB0E2"/>
<path d="M51.4537 524.802C53.0504 524.802 54.3322 523.518 54.3322 521.919C54.3322 520.319 53.0504 519.035 51.4537 519.035C49.857 519.035 48.5752 520.319 48.5752 521.919C48.5752 523.518 49.857 524.802 51.4537 524.802Z" fill="#6DB0E2"/>
<path d="M83.837 524.802C85.4337 524.802 86.7155 523.518 86.7155 521.919C86.7155 520.319 85.4337 519.035 83.837 519.035C82.2403 519.035 80.9585 520.319 80.9585 521.919C80.9585 523.518 82.2403 524.802 83.837 524.802Z" fill="#6DB0E2"/>
<path d="M116.22 524.802C117.81 524.802 119.099 523.511 119.099 521.919C119.099 520.326 117.81 519.035 116.22 519.035C114.631 519.035 113.342 520.326 113.342 521.919C113.342 523.511 114.631 524.802 116.22 524.802Z" fill="#6DB0E2"/>
<path d="M148.604 524.802C150.201 524.802 151.482 523.518 151.482 521.919C151.482 520.319 150.201 519.035 148.604 519.035C147.007 519.035 145.725 520.319 145.725 521.919C145.725 523.518 147.007 524.802 148.604 524.802Z" fill="#6DB0E2"/>
<path d="M180.987 524.802C182.584 524.802 183.866 523.518 183.866 521.919C183.866 520.319 182.584 519.035 180.987 519.035C179.39 519.035 178.109 520.319 178.109 521.919C178.109 523.518 179.39 524.802 180.987 524.802Z" fill="#6DB0E2"/>
<path d="M213.37 524.802C214.967 524.802 216.249 523.518 216.249 521.919C216.249 520.319 214.967 519.035 213.37 519.035C211.774 519.035 210.492 520.319 210.492 521.919C210.492 523.518 211.774 524.802 213.37 524.802Z" fill="#6DB0E2"/>
<path d="M245.754 524.802C247.351 524.802 248.633 523.518 248.633 521.919C248.633 520.319 247.351 519.035 245.754 519.035C244.157 519.035 242.875 520.319 242.875 521.919C242.875 523.518 244.157 524.802 245.754 524.802Z" fill="#6DB0E2"/>
</g>
<defs>
<clipPath id="clip0_3278_73358">
<rect width="702" height="687" fill="white"/>
</clipPath>
</defs>
</svg>
