<svg xmlns="http://www.w3.org/2000/svg" xmlns:xlink="http://www.w3.org/1999/xlink" width="135.932"
  height="35.783" viewBox="0 0 135.932 35.783">
  <defs>
    <clipPath id="clip-path">
      <rect id="Rectangle_2650" data-name="Rectangle 2650" width="85.08" height="25.583"
        fill="#003876" />
    </clipPath>
  </defs>
  <g id="Group_5309" data-name="Group 5309" transform="translate(-138 -7.75)">
    <g id="Group_4178" data-name="Group 4178" transform="translate(81 1.25)">
      <g id="Group_3989" data-name="Group 3989" transform="translate(98.5 6.5)">
        <line id="Line_90" data-name="Line 90" y2="35.783" transform="translate(0)" fill="none"
          stroke="#003876" stroke-width="1" opacity="0.43" />
      </g>
    </g>
    <g id="Group_4807" data-name="Group 4807" transform="translate(79 -2.979)">
      <g id="gob-icon" transform="translate(59 14.85)">
        <path id="Path_1" data-name="Path 1"
          d="M17.939,1.594V1.27H18.6V.846H18.33v.268h-.392v-.7H18V0h-.286V.413h.065v.7h-.392V.846h-.274V1.27h.665v.324A2.29,2.29,0,0,0,15.59,3.931h4.535A2.292,2.292,0,0,0,17.939,1.594Z"
          transform="translate(-2.293)" fill="#003876" />
        <path id="Path_2" data-name="Path 2"
          d="M14.871,5.44h5.717a.089.089,0,0,0,.089-.089v-.34a.088.088,0,0,0-.089-.089H14.871a.089.089,0,0,0-.089.089v.34A.088.088,0,0,0,14.871,5.44Z"
          transform="translate(-2.174 -0.724)" fill="#003876" />
        <path id="Path_3" data-name="Path 3"
          d="M14.871,10.518h5.717a.089.089,0,0,0,.089-.089v-.34A.089.089,0,0,0,20.588,10H14.871a.089.089,0,0,0-.089.089v.34A.088.088,0,0,0,14.871,10.518Z"
          transform="translate(-2.174 -1.471)" fill="#003876" />
        <path id="Path_4" data-name="Path 4"
          d="M16.07,5.825a.166.166,0,0,0-.166.166V8.967a.166.166,0,0,0,.166.166h.69a.166.166,0,0,0,.166-.166V5.992a.166.166,0,0,0-.166-.166Z"
          transform="translate(-2.339 -0.857)" fill="#003876" />
        <path id="Path_5" data-name="Path 5"
          d="M17.8,5.825a.166.166,0,0,0-.166.166V8.967a.166.166,0,0,0,.166.166h.69a.166.166,0,0,0,.166-.166V5.992a.166.166,0,0,0-.166-.166Z"
          transform="translate(-2.594 -0.857)" fill="#003876" />
        <path id="Path_6" data-name="Path 6"
          d="M19.513,5.825a.166.166,0,0,0-.166.166V8.967a.166.166,0,0,0,.166.166h.69a.166.166,0,0,0,.166-.166V5.992a.166.166,0,0,0-.166-.166Z"
          transform="translate(-2.845 -0.857)" fill="#003876" />
        <path id="Path_7" data-name="Path 7"
          d="M3.907,21.568A17.509,17.509,0,0,1,6.839,15a15.923,15.923,0,0,1,4.223-3.9,15.364,15.364,0,0,0-6.59,4.734A15.556,15.556,0,0,0,1.109,25.28H3.315A21.363,21.363,0,0,1,3.907,21.568Z"
          transform="translate(-0.163 -1.633)" fill="#003876" />
        <path id="Path_8" data-name="Path 8"
          d="M27.974,15.005a17.5,17.5,0,0,1,2.932,6.563,21.355,21.355,0,0,1,.592,3.712H33.7a15.559,15.559,0,0,0-3.362-9.441,15.361,15.361,0,0,0-6.59-4.734A15.912,15.912,0,0,1,27.974,15.005Z"
          transform="translate(-3.493 -1.633)" fill="#003876" />
        <path id="Path_9" data-name="Path 9"
          d="M13.709,11.736A14.331,14.331,0,0,0,10.266,14.1C5.981,18.1,5.483,23.594,5.4,25.373h3.82a21.124,21.124,0,0,1,1.937-9.522A20.531,20.531,0,0,1,13.709,11.736Z"
          transform="translate(-0.794 -1.726)" fill="#003876" />
        <path id="Path_10" data-name="Path 10"
          d="M29.6,25.373c-.085-1.78-.584-7.276-4.869-11.271a14.331,14.331,0,0,0-3.443-2.367,20.548,20.548,0,0,1,2.555,4.115,21.124,21.124,0,0,1,1.937,9.522Z"
          transform="translate(-3.131 -1.726)" fill="#003876" />
        <path id="Path_11" data-name="Path 11"
          d="M16.556,25.373V11.736a18.67,18.67,0,0,0-3.331,5.03,18.912,18.912,0,0,0-1.618,8.608Z"
          transform="translate(-1.704 -1.726)" fill="#003876" />
        <path id="Path_12" data-name="Path 12"
          d="M19.1,11.736V25.373h4.949a18.912,18.912,0,0,0-1.618-8.608A18.7,18.7,0,0,0,19.1,11.736Z"
          transform="translate(-2.809 -1.726)" fill="#003876" />
        <path id="Path_13" data-name="Path 13"
          d="M28.036,28.9V28.44a.177.177,0,0,0-.176-.176H26.6a.177.177,0,0,0-.176.176V28.9H22.755V28.44a.177.177,0,0,0-.176-.176H21.323a.177.177,0,0,0-.176.176V28.9H16.338V28.44a.177.177,0,0,0-.176-.176H14.906a.177.177,0,0,0-.176.176V28.9H9.974V28.44a.177.177,0,0,0-.176-.176H8.542a.177.177,0,0,0-.176.176V28.9H4.68V28.44a.177.177,0,0,0-.176-.176H3.248a.177.177,0,0,0-.176.176V28.9H0v.553H31.067V28.9Z"
          transform="translate(0 -4.156)" fill="#003876" />
        <path id="Path_14" data-name="Path 14"
          d="M5.014,31.743a.193.193,0,0,0,.193-.193V30.078H3.6V31.55a.193.193,0,0,0,.193.193Z"
          transform="translate(-0.529 -4.423)" fill="#003876" />
        <path id="Path_15" data-name="Path 15"
          d="M11.221,31.743a.193.193,0,0,0,.193-.193V30.078H9.807V31.55a.193.193,0,0,0,.193.193Z"
          transform="translate(-1.442 -4.423)" fill="#003876" />
        <path id="Path_16" data-name="Path 16"
          d="M18.683,31.743a.193.193,0,0,0,.193-.193V30.078H17.269V31.55a.193.193,0,0,0,.193.193Z"
          transform="translate(-2.539 -4.423)" fill="#003876" />
        <path id="Path_17" data-name="Path 17"
          d="M26.206,31.743a.193.193,0,0,0,.193-.193V30.078H24.791V31.55a.193.193,0,0,0,.193.193Z"
          transform="translate(-3.646 -4.423)" fill="#003876" />
        <path id="Path_18" data-name="Path 18"
          d="M32.4,31.743a.194.194,0,0,0,.193-.193V30.078H30.984V31.55a.193.193,0,0,0,.193.193Z"
          transform="translate(-4.557 -4.423)" fill="#003876" />
        <path id="Path_19" data-name="Path 19"
          d="M30.856,32.577H.209A.209.209,0,0,0,0,32.785v.8a.209.209,0,0,0,.209.209H30.855a.209.209,0,0,0,.209-.209v-.8A.208.208,0,0,0,30.856,32.577Z"
          transform="translate(0 -4.791)" fill="#003876" />
      </g>
      <g id="Group_5306" data-name="Group 5306" transform="translate(109.852 18.31)">
        <g id="Group_5305" data-name="Group 5305" clip-path="url(#clip-path)">
          <path id="Path_4301" data-name="Path 4301"
            d="M479.581,140.237a2.084,2.084,0,0,1-.692-1.591,2.151,2.151,0,0,1,.692-1.627,2.489,2.489,0,0,1,1.785-.656,2.458,2.458,0,0,1,1.761.656,2.152,2.152,0,0,1,.692,1.627,2.085,2.085,0,0,1-.692,1.591,2.484,2.484,0,0,1-1.761.644,2.515,2.515,0,0,1-1.785-.644"
            transform="translate(-430.938 -122.71)" fill="#003876" />
          <path id="Path_4302" data-name="Path 4302"
            d="M545.157,7.572a5.887,5.887,0,0,1,2.149-2.428,5.611,5.611,0,0,1,3.036-.85,5.334,5.334,0,0,1,2.44.559,4.45,4.45,0,0,1,1.736,1.506V.068h4.153v17.97h-4.153V16.1a4.232,4.232,0,0,1-1.663,1.554,5.216,5.216,0,0,1-2.513.583,5.548,5.548,0,0,1-3.036-.862,5.95,5.95,0,0,1-2.149-2.452,8.174,8.174,0,0,1-.789-3.679,8.1,8.1,0,0,1,.789-3.667m8.5,1.238a2.918,2.918,0,0,0-4.2-.012,3.35,3.35,0,0,0-.862,2.44,3.438,3.438,0,0,0,.862,2.465,2.891,2.891,0,0,0,4.2.012,3.4,3.4,0,0,0,.862-2.452,3.4,3.4,0,0,0-.862-2.453"
            transform="translate(-489.86 -0.061)" fill="#003876" />
          <path id="Path_4303" data-name="Path 4303"
            d="M769.079,99.409a.138.138,0,0,0,.078-.236L765.9,96a.138.138,0,0,0-.234.085l-.456,4.524a.138.138,0,0,0,.211.131l1.405-.881,1.63,4.455c.214-.05.422-.111.627-.179l-1.646-4.5Z"
            transform="translate(-688.587 -86.353)" fill="#003876" />
          <path id="Path_4304" data-name="Path 4304"
            d="M722.2,45.558a6.266,6.266,0,0,0-2.526-2.441,8.024,8.024,0,0,0-7.188,0,6.265,6.265,0,0,0-2.525,2.441,7.865,7.865,0,0,0-.012,7.37,6.221,6.221,0,0,0,2.5,2.428,7.475,7.475,0,0,0,3.582.85c.273,0,.539-.015.8-.039l-1.156-3.177-1.575.987a.35.35,0,0,1-.534-.332l.761-7.527a.35.35,0,0,1,.592-.215l5.421,5.278a.35.35,0,0,1-.2.6l-1.841.256h0l1.228,3.374c.035-.018.071-.033.106-.051a6.323,6.323,0,0,0,2.55-2.44,7.126,7.126,0,0,0,.935-3.679,7.2,7.2,0,0,0-.923-3.679"
            transform="translate(-638.04 -38.036)" fill="#003876" />
          <path id="Path_4305" data-name="Path 4305"
            d="M8.5,42.821a4.3,4.3,0,0,1,1.665,1.531v-1.92h4.156V57.327a5.835,5.835,0,0,1-.741,2.947,5.655,5.655,0,0,1-2.26,2.418,7.316,7.316,0,0,1-3.78.9A7.86,7.86,0,0,1,2.649,62.17,5.366,5.366,0,0,1,.511,58.318H4.618a1.968,1.968,0,0,0,.924,1.228,3.367,3.367,0,0,0,1.8.449,2.828,2.828,0,0,0,2.054-.741,2.167,2.167,0,0,0,.766-1.926V54.051a4.612,4.612,0,0,1-1.677,1.544,5.062,5.062,0,0,1-2.5.6,5.556,5.556,0,0,1-3.038-.863A5.958,5.958,0,0,1,.79,52.872a8.949,8.949,0,0,1,0-7.353,5.892,5.892,0,0,1,2.151-2.431,5.617,5.617,0,0,1,3.038-.851,5.219,5.219,0,0,1,2.516.583m.8,3.938a2.8,2.8,0,0,0-2.1-.9,2.822,2.822,0,0,0-2.1.887,3.356,3.356,0,0,0-.863,2.443,3.441,3.441,0,0,0,.863,2.467,2.785,2.785,0,0,0,2.1.912,2.8,2.8,0,0,0,2.1-.9,3.924,3.924,0,0,0,0-4.91"
            transform="translate(0 -38.009)" fill="#003876" />
          <path id="Path_4306" data-name="Path 4306"
            d="M333.536,4.813a5.239,5.239,0,0,1,2.5-.583,5.616,5.616,0,0,1,3.038.851,5.9,5.9,0,0,1,2.151,2.43,8.11,8.11,0,0,1,.79,3.67,8.184,8.184,0,0,1-.79,3.682,5.964,5.964,0,0,1-2.151,2.455,5.557,5.557,0,0,1-3.038.863,5.241,5.241,0,0,1-2.5-.571,4.411,4.411,0,0,1-1.677-1.519v1.9H327.7V0h4.156V6.344a4.278,4.278,0,0,1,1.677-1.531m3.391,3.925a2.851,2.851,0,0,0-2.127-.887,2.8,2.8,0,0,0-2.1.9,3.4,3.4,0,0,0-.863,2.455,3.4,3.4,0,0,0,.863,2.455,2.908,2.908,0,0,0,4.217-.012,3.413,3.413,0,0,0,.875-2.467,3.358,3.358,0,0,0-.863-2.443"
            transform="translate(-294.89)" fill="#003876" />
          <path id="Path_4307" data-name="Path 4307"
            d="M176.138,219.585a1.157,1.157,0,0,1-.493-.389.99.99,0,0,1-.179-.588h.683a.616.616,0,0,0,.2.414.7.7,0,0,0,.5.162.763.763,0,0,0,.515-.159.519.519,0,0,0,.185-.411.45.45,0,0,0-.115-.319.769.769,0,0,0-.286-.19,4.336,4.336,0,0,0-.473-.145,4.407,4.407,0,0,1-.619-.2,1.022,1.022,0,0,1-.406-.322.931.931,0,0,1-.168-.582,1.036,1.036,0,0,1,.168-.588,1.074,1.074,0,0,1,.47-.386,1.706,1.706,0,0,1,.7-.134,1.458,1.458,0,0,1,.926.283,1.043,1.043,0,0,1,.4.775h-.705a.511.511,0,0,0-.2-.364.744.744,0,0,0-.487-.151.691.691,0,0,0-.448.14.487.487,0,0,0-.174.4.41.41,0,0,0,.109.294.77.77,0,0,0,.277.182,4.286,4.286,0,0,0,.459.146,4.814,4.814,0,0,1,.63.213,1.05,1.05,0,0,1,.414.328.942.942,0,0,1,.171.591,1.061,1.061,0,0,1-.16.56,1.151,1.151,0,0,1-.464.423,1.535,1.535,0,0,1-.719.16,1.739,1.739,0,0,1-.705-.137"
            transform="translate(-157.897 -194.141)" fill="#003876" />
          <path id="Path_4308" data-name="Path 4308"
            d="M210.815,216.711v1.142h1.343v.52h-1.343v1.192h1.511v.52h-2.149v-3.9h2.149v.521Z"
            transform="translate(-189.132 -194.543)" fill="#003876" />
          <path id="Path_4309" data-name="Path 4309"
            d="M241.486,220.136l-.9-1.556H240.1v1.556h-.638v-3.89h1.343a1.672,1.672,0,0,1,.758.157,1.088,1.088,0,0,1,.465.42,1.144,1.144,0,0,1,.154.588,1.165,1.165,0,0,1-.221.691,1.122,1.122,0,0,1-.68.422l.963,1.612Zm-1.382-2.065h.705a.741.741,0,0,0,.54-.179.646.646,0,0,0,.182-.481.623.623,0,0,0-.179-.473.761.761,0,0,0-.543-.171H240.1Z"
            transform="translate(-215.487 -194.593)" fill="#003876" />
          <path id="Path_4310" data-name="Path 4310"
            d="M275.329,216.246l-1.461,3.89h-.739l-1.466-3.89h.683l1.153,3.235,1.159-3.235Z"
            transform="translate(-244.462 -194.593)" fill="#003876" />
          <rect id="Rectangle_2646" data-name="Rectangle 2646" width="0.638" height="3.89"
            transform="translate(31.399 21.653)" fill="#003876" />
          <path id="Path_4311" data-name="Path 4311"
            d="M326.483,216.706A1.893,1.893,0,0,1,327.2,216a2.123,2.123,0,0,1,2.1.051,1.737,1.737,0,0,1,.7.865h-.767a1.028,1.028,0,0,0-.42-.459,1.245,1.245,0,0,0-.621-.151,1.358,1.358,0,0,0-.688.174,1.207,1.207,0,0,0-.473.5,1.756,1.756,0,0,0,0,1.511,1.225,1.225,0,0,0,.473.5,1.34,1.34,0,0,0,.688.177,1.245,1.245,0,0,0,.621-.151,1.027,1.027,0,0,0,.42-.459h.767a1.722,1.722,0,0,1-.7.862,2.044,2.044,0,0,1-1.105.3,2.01,2.01,0,0,1-1-.255,1.9,1.9,0,0,1-.719-.708,2.106,2.106,0,0,1,0-2.048"
            transform="translate(-293.553 -194.141)" fill="#003876" />
          <rect id="Rectangle_2647" data-name="Rectangle 2647" width="0.638" height="3.89"
            transform="translate(37.203 21.653)" fill="#003876" />
          <path id="Path_4312" data-name="Path 4312"
            d="M385.169,219.468a1.884,1.884,0,0,1-.722-.711,2.112,2.112,0,0,1,0-2.051,1.893,1.893,0,0,1,.722-.708,2.1,2.1,0,0,1,2,0,1.873,1.873,0,0,1,.719.708,2.13,2.13,0,0,1,0,2.051,1.864,1.864,0,0,1-.719.711,2.1,2.1,0,0,1-2,0m1.688-.476a1.223,1.223,0,0,0,.473-.5,1.618,1.618,0,0,0,.171-.759,1.6,1.6,0,0,0-.171-.755,1.209,1.209,0,0,0-.473-.5,1.452,1.452,0,0,0-1.377,0,1.209,1.209,0,0,0-.473.5,1.6,1.6,0,0,0-.171.755,1.618,1.618,0,0,0,.171.759,1.223,1.223,0,0,0,.473.5,1.433,1.433,0,0,0,1.377,0"
            transform="translate(-345.713 -194.141)" fill="#003876" />
          <path id="Path_4313" data-name="Path 4313"
            d="M429.85,219.585a1.157,1.157,0,0,1-.493-.389.989.989,0,0,1-.179-.588h.683a.615.615,0,0,0,.2.414.7.7,0,0,0,.5.162.763.763,0,0,0,.515-.159.518.518,0,0,0,.185-.411.45.45,0,0,0-.115-.319.77.77,0,0,0-.286-.19,4.334,4.334,0,0,0-.473-.145,4.406,4.406,0,0,1-.618-.2,1.023,1.023,0,0,1-.406-.322.931.931,0,0,1-.168-.582,1.036,1.036,0,0,1,.168-.588,1.074,1.074,0,0,1,.47-.386,1.706,1.706,0,0,1,.7-.134,1.458,1.458,0,0,1,.926.283,1.043,1.043,0,0,1,.4.775h-.705a.511.511,0,0,0-.2-.364.744.744,0,0,0-.487-.151.691.691,0,0,0-.448.14.487.487,0,0,0-.174.4.41.41,0,0,0,.109.294.77.77,0,0,0,.277.182,4.29,4.29,0,0,0,.459.146,4.81,4.81,0,0,1,.63.213,1.051,1.051,0,0,1,.414.328.942.942,0,0,1,.171.591,1.062,1.062,0,0,1-.16.56,1.15,1.15,0,0,1-.464.423,1.535,1.535,0,0,1-.719.16,1.739,1.739,0,0,1-.705-.137"
            transform="translate(-386.204 -194.141)" fill="#003876" />
          <path id="Path_4314" data-name="Path 4314"
            d="M480.78,216.485a1.7,1.7,0,0,1,.722.683,2.052,2.052,0,0,1,.255,1.038,2.007,2.007,0,0,1-.255,1.03,1.682,1.682,0,0,1-.722.669,2.415,2.415,0,0,1-1.089.232h-1.271v-3.89h1.271a2.367,2.367,0,0,1,1.089.238m-.042,2.762a1.42,1.42,0,0,0,.364-1.041,1.469,1.469,0,0,0-.364-1.058,1.381,1.381,0,0,0-1.047-.381h-.633v2.849h.633a1.4,1.4,0,0,0,1.047-.369"
            transform="translate(-430.517 -194.594)" fill="#003876" />
          <rect id="Rectangle_2648" data-name="Rectangle 2648" width="0.638" height="3.89"
            transform="translate(51.873 21.653)" fill="#003876" />
          <path id="Path_4315" data-name="Path 4315"
            d="M533.714,216.913a1.027,1.027,0,0,0-.42-.439,1.262,1.262,0,0,0-.621-.148,1.357,1.357,0,0,0-.688.174,1.215,1.215,0,0,0-.473.493,1.543,1.543,0,0,0-.171.739,1.561,1.561,0,0,0,.171.742,1.211,1.211,0,0,0,.473.5,1.357,1.357,0,0,0,.688.174,1.218,1.218,0,0,0,.845-.291,1.267,1.267,0,0,0,.4-.789h-1.461v-.509H534.6v.5a1.921,1.921,0,0,1-1.926,1.668,2.01,2.01,0,0,1-1-.255,1.9,1.9,0,0,1-.719-.708,2.106,2.106,0,0,1,0-2.048,1.892,1.892,0,0,1,.722-.708,2.122,2.122,0,0,1,2.1.051,1.737,1.737,0,0,1,.7.865Z"
            transform="translate(-477.548 -194.141)" fill="#003876" />
          <rect id="Rectangle_2649" data-name="Rectangle 2649" width="0.638" height="3.89"
            transform="translate(57.677 21.653)" fill="#003876" />
          <path id="Path_4316" data-name="Path 4316"
            d="M591.475,216.246v.52H590.44v3.369H589.8v-3.369h-1.041v-.52Z"
            transform="translate(-529.808 -194.593)" fill="#003876" />
          <path id="Path_4317" data-name="Path 4317"
            d="M622.583,219.291h-1.629l-.28.795h-.666l1.393-3.9h.739l1.394,3.9h-.671Zm-.179-.521-.632-1.808-.638,1.808Z"
            transform="translate(-557.927 -194.543)" fill="#003876" />
          <path id="Path_4318" data-name="Path 4318"
            d="M661.9,219.621h1.315v.515h-1.954v-3.89h.638Z"
            transform="translate(-595.046 -194.593)" fill="#003876" />
          <path id="Path_4319" data-name="Path 4319"
            d="M686.714,216.711v1.142h1.343v.52h-1.343v1.192h1.511v.52h-2.149v-3.9h2.149v.521Z"
            transform="translate(-617.379 -194.543)" fill="#003876" />
          <path id="Path_4320" data-name="Path 4320"
            d="M715.088,219.585a1.157,1.157,0,0,1-.493-.389.989.989,0,0,1-.179-.588h.683a.615.615,0,0,0,.2.414.7.7,0,0,0,.5.162.763.763,0,0,0,.515-.159.519.519,0,0,0,.185-.411.45.45,0,0,0-.115-.319.772.772,0,0,0-.286-.19,4.339,4.339,0,0,0-.473-.145,4.415,4.415,0,0,1-.618-.2,1.022,1.022,0,0,1-.406-.322.93.93,0,0,1-.168-.582,1.036,1.036,0,0,1,.168-.588,1.074,1.074,0,0,1,.47-.386,1.706,1.706,0,0,1,.7-.134,1.458,1.458,0,0,1,.926.283,1.043,1.043,0,0,1,.4.775h-.705a.512.512,0,0,0-.2-.364.744.744,0,0,0-.487-.151.691.691,0,0,0-.448.14.487.487,0,0,0-.174.4.41.41,0,0,0,.109.294.769.769,0,0,0,.277.182,4.286,4.286,0,0,0,.459.146,4.822,4.822,0,0,1,.63.213,1.05,1.05,0,0,1,.414.328.942.942,0,0,1,.171.591,1.061,1.061,0,0,1-.16.56,1.151,1.151,0,0,1-.464.423,1.536,1.536,0,0,1-.719.16,1.739,1.739,0,0,1-.705-.137"
            transform="translate(-642.881 -194.141)" fill="#003876" />
          <path id="Path_4321" data-name="Path 4321"
            d="M168.206,54.9a6.172,6.172,0,0,1-2.482-2.41,7.8,7.8,0,0,1,.012-7.314,6.219,6.219,0,0,1,2.506-2.422,7.963,7.963,0,0,1,7.133,0,6.22,6.22,0,0,1,2.506,2.422,7.144,7.144,0,0,1,.916,3.651,7.071,7.071,0,0,1-.928,3.651,6.27,6.27,0,0,1-2.53,2.422,7.56,7.56,0,0,1-3.578.844,7.416,7.416,0,0,1-3.555-.844m5.567-3.591a3.446,3.446,0,0,0,.831-2.482,3.512,3.512,0,0,0-.807-2.482,2.738,2.738,0,0,0-3.988-.012,3.537,3.537,0,0,0-.8,2.494,3.579,3.579,0,0,0,.783,2.482,2.534,2.534,0,0,0,1.964.868,2.685,2.685,0,0,0,2.012-.868"
            transform="translate(-148.317 -37.714)" fill="#003876" />
        </g>
      </g>
    </g>
  </g>
</svg>
