<svg xmlns="http://www.w3.org/2000/svg" width="553" height="394" fill="none" viewBox="0 0 553 394">
  <g clip-path="url(#a)">
    <path fill="#fff" d="M424.886 45.41v241.992c0 6.844-5.259 12.375-11.751 12.375H297.118c-6.503 0-11.772-5.531-11.772-12.375V45.41c0-13.936 5.259-14.617 11.772-14.617h116.017c6.492 0 11.751 1.857 11.751 14.617Z"/>
    <path fill="#9CA2AF" d="M415.295 28.602H294.542c-6.739 0-12.215 5.57-12.215 12.454v248.826c0 6.874 5.476 12.454 12.215 12.454h120.753c6.749 0 12.226-5.58 12.226-12.454V41.056c0-6.884-5.477-12.454-12.226-12.454Zm8.447 253.587c0 18.024-4.924 15.466-14.801 15.466H300.906c-14.958 0-13.004-8.918-13.004-15.466V50.478c0-13.343-2.073-17.304 13.004-17.304h21.639c1.253 0 2.289 0 2.289 2.37 0 3.023 2.427 2.954 4.588 2.954s50.52-.297 50.52-.297c2.812 0 5.061.09 5.061-3.002v-.593c0-1.461 1.017-1.432 2.29-1.432h21.648c14.801 0 14.801 5.077 14.801 17.304v231.711Z"/>
    <path fill="#fff" d="M361.747 39.437H348.1a.838.838 0 0 1-.838-.84c0-.464.375-.84.838-.84h13.647c.463 0 .838.376.838.84 0 .465-.375.84-.838.84Z"/>
    <path fill="#C7C7C7" d="m303.107 59.329-3.838-3.595 3.838-3.605.602.642-3.168 2.963 3.168 2.963-.602.632Zm106.722-5.838a.76.76 0 1 1-.76-.76c.425 0 .76.335.76.76Zm0 2.687a.76.76 0 1 1-.76-.76c.425 0 .76.336.76.76Zm0 2.684a.76.76 0 1 1-.76-.76c.425 0 .76.335.76.76Zm-91.014-17.164-.207.208-.119.118c-.562-.543-1.233-.84-2.012-.84-.78 0-1.451.287-2.013.84a1.174 1.174 0 0 1-.109-.118l-.207-.208.02-.02.266-.236c.188-.159.395-.287.612-.386.256-.128.523-.217.809-.276.138-.02.266-.04.404-.05h.356a3.11 3.11 0 0 1 1.016.197c.178.06.345.14.503.238.168.099.336.207.484.336.079.069.148.128.217.197h-.02Z"/>
    <path fill="#C7C7C7" d="m315.125 42.676-.326-.326a2.329 2.329 0 0 1 1.342-.672c.78-.108 1.451.129 2.023.672-.109.108-.217.217-.336.326a1.883 1.883 0 0 0-1.351-.563c-.523 0-.977.197-1.352.563Z"/>
    <path fill="#C7C7C7" d="m317.493 43.012-.326.326a.952.952 0 0 0-.69-.287.954.954 0 0 0-.691.287l-.326-.326a1.429 1.429 0 0 1 2.043 0h-.01Z"/>
    <path fill="#C7C7C7" d="M316.773 43.632a.291.291 0 0 1-.296.297.29.29 0 0 1-.296-.297.29.29 0 0 1 .296-.296c.167 0 .296.128.296.296Zm-18.343-1.3a.859.859 0 1 1 1.718 0 .859.859 0 0 1-1.718 0Zm2.713 0a.86.86 0 1 1 1.719 0 .86.86 0 0 1-1.719 0Zm2.713 0a.86.86 0 1 1 1.72 0 .86.86 0 0 1-1.72 0Zm2.714 0a.86.86 0 1 1 1.719 0 .86.86 0 0 1-1.719 0Zm2.703 0a.86.86 0 1 1 1.72 0 .86.86 0 0 1-1.72 0Zm100.872 1.884h-7.016v-3.259h7.016v3.26Zm-6.651-.365h6.286v-2.529h-6.286v2.529Z"/>
    <path fill="#C7C7C7" d="M408.231 41.512h-4.52v2.143h4.52v-2.143Zm2.536.207h-.622v1.738h.622v-1.738Z"/>
    <path fill="#EBEBEB" d="M309.698 279.868h-.987v4.534h-1.845v-2.312H303.6v2.312h-1.845v-4.534h-.987l4.46-4.622 4.47 4.622Zm99.391-4.622h-10.765v1.541h10.765v-1.541Zm0 3.813h-10.765v1.54h10.765v-1.54Zm0 3.8h-10.765v1.541h10.765v-1.541Zm-51.102-3.642-3.058 3.269-3.069-3.269.543-.514 2.526 2.696 2.516-2.696.542.514Z"/>
    <path fill="#EBEBEB" d="M354.928 285.863a5.574 5.574 0 0 1-5.565-5.57 5.574 5.574 0 0 1 5.565-5.57 5.573 5.573 0 0 1 5.565 5.57 5.573 5.573 0 0 1-5.565 5.57Zm0-10.4a4.828 4.828 0 0 0-4.825 4.83 4.835 4.835 0 0 0 4.825 4.83 4.834 4.834 0 0 0 4.825-4.83 4.828 4.828 0 0 0-4.825-4.83Z"/>
    <path fill="#DBDBDB" d="M346.62 260.283a1.853 1.853 0 0 1-1.855 1.856 1.853 1.853 0 0 1-1.855-1.856c0-1.028.829-1.857 1.855-1.857s1.855.829 1.855 1.857Z"/>
    <path fill="#0087FF" d="M357.938 260.284a2.818 2.818 0 0 1-2.812 2.814 2.818 2.818 0 0 1-2.813-2.814 2.819 2.819 0 0 1 2.813-2.815 2.818 2.818 0 0 1 2.812 2.815Z"/>
    <path fill="#DBDBDB" d="M367.351 260.283a1.853 1.853 0 0 1-1.855 1.856 1.853 1.853 0 0 1-1.855-1.856c0-1.028.829-1.857 1.855-1.857s1.855.829 1.855 1.857Z"/>
    <path fill="#213B74" d="M387.322 208.137h-64.985v16.128h64.985v-16.128Z"/>
    <path fill="#fff" d="M339.433 218.135h-2.486l-.427 1.213h-1.016l2.127-5.944h1.127l2.126 5.944h-1.024l-.427-1.213Zm-.274-.794-.965-2.759-.973 2.759h1.938Zm2.325-.974c0-.581.134-1.101.402-1.563.273-.461.64-.819 1.102-1.076a3.067 3.067 0 0 1 1.528-.393c.632 0 1.193.157 1.683.47.495.308.854.746 1.076 1.315h-1.17a1.574 1.574 0 0 0-.641-.7 1.896 1.896 0 0 0-.948-.231c-.393 0-.743.089-1.05.265-.308.177-.55.43-.726.76-.171.331-.256.715-.256 1.153 0 .439.085.823.256 1.153.176.33.418.587.726.769.307.176.657.264 1.05.264.359 0 .675-.076.948-.23.273-.154.487-.387.641-.7h1.17a2.626 2.626 0 0 1-1.076 1.315c-.49.307-1.051.461-1.683.461a3.093 3.093 0 0 1-1.528-.384 2.957 2.957 0 0 1-1.102-1.085 3.052 3.052 0 0 1-.402-1.563Zm7.904-2.169v1.742h2.049v.794h-2.049v1.819h2.306v.795h-3.28v-5.944h3.28v.794h-2.306Zm7.655.982c0 .302-.071.587-.213.854-.143.268-.37.487-.684.658-.313.165-.714.247-1.204.247h-1.076v2.409h-.973v-5.936h2.049c.456 0 .84.08 1.153.239.319.154.555.365.709.632.159.268.239.567.239.897Zm-2.101.965c.37 0 .646-.082.829-.248.182-.17.273-.409.273-.717 0-.649-.367-.973-1.102-.973h-1.076v1.938h1.076Zm6.864-2.733v.795h-1.58v5.141h-.973v-5.141h-1.589v-.795h4.142Zm4.564 4.723h-2.485l-.427 1.213h-1.016l2.126-5.944h1.128l2.126 5.944h-1.025l-.427-1.213Zm-.273-.794-.965-2.759-.974 2.759h1.939Zm5.733 2.007-1.367-2.374h-.743v2.374h-.973v-5.936h2.049c.456 0 .84.08 1.153.239.319.16.555.373.709.641.159.268.239.566.239.897 0 .387-.114.74-.341 1.059-.222.313-.567.526-1.034.64l1.469 2.46h-1.161Zm-2.11-3.152h1.076c.365 0 .638-.091.82-.273.188-.182.282-.427.282-.734 0-.308-.091-.547-.273-.718-.182-.176-.459-.264-.829-.264h-1.076v1.989Z"/>
    <path fill="#C7C7C7" d="M367.036 84.957v5.225h-3.691v-5.225c0-4.977-3.779-9.017-8.416-9.017-4.638 0-8.417 4.05-8.417 9.017v13.087h-3.69V84.957c0-7.13 5.437-12.918 12.117-12.918 6.68 0 12.116 5.797 12.116 12.918h-.019Z"/>
    <path fill="#A6A6A6" d="m342.812 90.191 3.69.149v7.703h-3.69v-7.852Z"/>
    <path fill="#0087FF" d="M371.772 93.66h-33.696v30.597h33.696V93.66Z"/>
    <path fill="#000" d="M371.782 93.66h-16.853v30.597h16.853V93.66Z" opacity=".1"/>
    <path fill="#263238" d="m356.349 110.072 1.411 6.696h-5.989l1.411-6.696c-.839-.534-1.411-1.462-1.411-2.529a2.983 2.983 0 0 1 2.99-2.992 2.982 2.982 0 0 1 2.989 2.992c0 1.067-.572 1.995-1.411 2.529h.01Z"/>
    <path fill="#fff" d="M398.324 158.035h-86.791v14.874h86.791v-14.874Z"/>
    <path fill="#EBEBEB" d="M398.679 173.253h-87.511v-15.585h87.511v15.585Zm-86.791-.711h86.081v-14.153h-86.081v14.153Z"/>
    <path fill="#0087FF" d="M320.532 162.133h-.711v6.35h.711v-6.35Z"/>
    <path fill="#0087FF" d="M323.354 164.949h-6.345v.711h6.345v-.711Z"/>
    <path fill="#0087FF" d="m322.169 162.804-4.487 4.489.502.503 4.488-4.489-.503-.503Z"/>
    <path fill="#0087FF" d="m318.186 162.81-.502.502 4.486 4.491.502-.503-4.486-4.49Zm13.121-.677h-.711v6.35h.711v-6.35Z"/>
    <path fill="#0087FF" d="M334.129 164.949h-6.345v.711h6.345v-.711Z"/>
    <path fill="#0087FF" d="m332.948 162.804-4.488 4.489.503.503 4.487-4.489-.502-.503Z"/>
    <path fill="#0087FF" d="m328.953 162.798-.503.503 4.486 4.49.503-.503-4.486-4.49Zm13.129-.665h-.711v6.35h.711v-6.35Z"/>
    <path fill="#0087FF" d="M344.904 164.949h-6.345v.711h6.345v-.711Z"/>
    <path fill="#0087FF" d="m343.728 162.827-4.488 4.489.502.503 4.488-4.489-.502-.503Z"/>
    <path fill="#0087FF" d="m339.729 162.798-.502.503 4.486 4.49.502-.503-4.486-4.49Zm13.127-.665h-.71v6.35h.71v-6.35Z"/>
    <path fill="#0087FF" d="M355.668 164.949h-6.344v.711h6.344v-.711Z"/>
    <path fill="#0087FF" d="m354.489 162.816-4.488 4.489.503.503 4.487-4.489-.502-.503Z"/>
    <path fill="#0087FF" d="m350.505 162.806-.503.503 4.487 4.49.502-.503-4.486-4.49Zm13.126-.673h-.711v6.35h.711v-6.35Z"/>
    <path fill="#0087FF" d="M366.443 164.949h-6.344v.711h6.344v-.711Z"/>
    <path fill="#0087FF" d="m365.259 162.804-4.488 4.489.502.503 4.488-4.489-.502-.503Z"/>
    <path fill="#0087FF" d="m361.281 162.794-.502.503 4.486 4.49.502-.502-4.486-4.491Zm13.115-.661h-.71v6.35h.71v-6.35Z"/>
    <path fill="#0087FF" d="M377.218 164.949h-6.344v.711h6.344v-.711Z"/>
    <path fill="#0087FF" d="m376.048 162.835-4.488 4.489.502.503 4.488-4.489-.502-.503Z"/>
    <path fill="#0087FF" d="m372.041 162.798-.502.503 4.486 4.49.502-.503-4.486-4.49Z"/>
    <path fill="#EBEBEB" d="M390.914 167.763c-2.388 0-3.888-2.034-3.947-2.123l-.148-.208.148-.207c.059-.089 1.559-2.123 3.947-2.123s3.877 2.034 3.947 2.123l.148.207-.148.208c-.06.089-1.55 2.123-3.947 2.123Zm-3.197-2.331c.424.484 1.598 1.62 3.197 1.62 1.598 0 2.772-1.136 3.197-1.62-.425-.484-1.589-1.619-3.197-1.619-1.609 0-2.773 1.135-3.197 1.619Z"/>
    <path fill="#EBEBEB" d="M390.904 167.04a1.61 1.61 0 1 0-.002-3.218 1.61 1.61 0 0 0 .002 3.218Z"/>
    <path fill="#EBEBEB" d="m393.571 162.225-5.707 5.713.502.502 5.707-5.712-.502-.503Z"/>
    <path fill="#0087FF" d="M323.687 144.613c0-.612.142-1.162.424-1.649a3.065 3.065 0 0 1 1.162-1.135 3.245 3.245 0 0 1 1.613-.414c.667 0 1.258.165 1.775.495.522.325.901.787 1.135 1.388h-1.234a1.652 1.652 0 0 0-.676-.739 2.007 2.007 0 0 0-1-.243c-.415 0-.784.093-1.108.279a1.97 1.97 0 0 0-.766.802c-.18.348-.27.754-.27 1.216 0 .463.09.868.27 1.217.186.348.441.618.766.811.324.186.693.279 1.108.279.378 0 .712-.081 1-.243.288-.163.514-.409.676-.739h1.234a2.766 2.766 0 0 1-1.135 1.387c-.517.325-1.108.487-1.775.487a3.259 3.259 0 0 1-1.613-.406 3.118 3.118 0 0 1-1.162-1.144 3.226 3.226 0 0 1-.424-1.649Zm10.168 3.208a3.289 3.289 0 0 1-1.613-.406 3.11 3.11 0 0 1-1.162-1.144 3.265 3.265 0 0 1-.424-1.658c0-.612.141-1.162.424-1.649a3.058 3.058 0 0 1 1.162-1.135 3.242 3.242 0 0 1 1.613-.414c.588 0 1.126.138 1.612.414.493.271.88.649 1.163 1.135.282.487.423 1.037.423 1.649 0 .613-.141 1.166-.423 1.658-.283.487-.67.868-1.163 1.144a3.255 3.255 0 0 1-1.612.406Zm0-.892a2.19 2.19 0 0 0 1.108-.279 1.99 1.99 0 0 0 .757-.811c.186-.355.279-.763.279-1.226 0-.462-.093-.868-.279-1.216a1.924 1.924 0 0 0-.757-.802 2.19 2.19 0 0 0-1.108-.279 2.19 2.19 0 0 0-1.109.279 1.974 1.974 0 0 0-.765.802c-.181.348-.271.754-.271 1.216 0 .463.09.871.271 1.226.186.348.441.618.765.811a2.19 2.19 0 0 0 1.109.279Zm9.354.829h-1.028l-3.09-4.676v4.676h-1.027v-6.271h1.027l3.09 4.667v-4.667h1.028v6.271Zm5.394-6.262v.838h-1.667v5.424h-1.027v-5.424h-1.676v-.838h4.37Zm4.293 6.262-1.442-2.505h-.784v2.505h-1.027v-6.262h2.163c.48 0 .886.084 1.216.252.336.168.586.394.748.676.168.282.252.598.252.946 0 .408-.12.781-.36 1.117-.235.331-.598.556-1.091.676l1.55 2.595h-1.225Zm-2.226-3.325h1.136c.384 0 .672-.096.865-.288.198-.192.297-.451.297-.775s-.096-.577-.288-.757c-.193-.186-.484-.279-.874-.279h-1.136v2.099Zm8.441 2.045h-2.622l-.45 1.28h-1.072l2.243-6.271h1.189l2.244 6.271h-1.081l-.451-1.28Zm-.288-.838-1.018-2.91-1.027 2.91h2.045Zm4.859 2.181c-.421 0-.799-.072-1.136-.216a1.903 1.903 0 0 1-.792-.631 1.585 1.585 0 0 1-.289-.946h1.099c.024.27.13.492.316.667.192.174.459.261.802.261.354 0 .63-.084.829-.252a.85.85 0 0 0 .297-.667.715.715 0 0 0-.189-.514 1.191 1.191 0 0 0-.46-.306 6.559 6.559 0 0 0-.757-.234 7.93 7.93 0 0 1-1-.325 1.69 1.69 0 0 1-.648-.522c-.181-.234-.271-.547-.271-.937 0-.361.09-.676.271-.946a1.72 1.72 0 0 1 .756-.622c.325-.144.7-.216 1.127-.216.606 0 1.102.153 1.486.459.391.301.607.715.649 1.244h-1.135a.82.82 0 0 0-.325-.586c-.198-.162-.459-.243-.784-.243-.294 0-.534.075-.72.225-.187.15-.28.366-.28.649a.68.68 0 0 0 .172.477c.12.12.27.216.45.289.18.072.427.15.739.234.414.114.751.228 1.009.342.264.114.487.292.667.532.186.234.279.549.279.946 0 .318-.087.619-.261.901-.168.282-.418.51-.748.685-.324.168-.709.252-1.153.252Zm-38.625 8.504v1.838h2.162v.838h-2.162v1.919h2.433v.838h-3.46v-6.271h3.46v.838h-2.433Zm8.842 5.433h-1.027l-3.09-4.676v4.676h-1.027v-6.271h1.027l3.09 4.667v-4.667h1.027v6.271Zm-4.036-6.785c.048-.348.162-.609.342-.784a.92.92 0 0 1 .676-.27.75.75 0 0 1 .297.054c.085.036.187.09.307.162.09.06.165.105.225.136.066.03.138.045.216.045a.36.36 0 0 0 .253-.091.465.465 0 0 0 .135-.288h.576c-.048.349-.162.613-.342.793a.935.935 0 0 1-.676.261.818.818 0 0 1-.306-.054 2.294 2.294 0 0 1-.297-.171 1.91 1.91 0 0 0-.253-.135.383.383 0 0 0-.189-.045.373.373 0 0 0-.261.099.494.494 0 0 0-.126.288h-.577Zm9.16 5.505h-2.621l-.451 1.28h-1.072l2.243-6.271h1.19l2.243 6.271h-1.081l-.451-1.28Zm-.288-.838-1.018-2.91-1.027 2.91h2.045Z"/>
    <path fill="#C7C7C7" d="M237.658 180.785h49.898v-10.34h-49.898v10.34Z"/>
    <path fill="#C7C7C7" d="m274.167 180.695 1.401 13.225 17.237 123.732h4.944L284.132 193.92l-1.105-13.225h-8.86Zm-46.701 136.957h4.943l17.248-123.732 1.391-13.225h-8.861l-1.105 13.225-13.616 123.732Z"/>
    <path fill="#C7C7C7" d="M235.794 277.23h55.038v-3.101h-55.038v3.101Z"/>
    <path fill="#A6A6A6" d="M284.132 193.446h-8.564l-1.401-12.751h8.86l1.105 12.751Zm-43.049 0h8.574l1.391-12.751h-8.86l-1.105 12.751Z"/>
    <path fill="#0087FF" d="M237.747 117.036c.04.059.138 0 .099-.059-1.293-2.242-.928-4.533.108-6.598-.493 3.072.109 6.509 2.911 8.158.049.03.089-.049.04-.079-2.901-1.738-3.336-5.708-2.556-8.809.641-1.077 1.441-2.084 2.24-2.954 1.332-1.432 2.989-2.854 3.976-4.622-.177.968-.69 1.818-1.648 2.588-.049.039 0 .128.05.089.888-.652 1.608-1.521 1.845-2.657.049-.227.069-.454.069-.681a6.104 6.104 0 0 0 .483-1.808c0-.02-.029-.03-.039 0a6.369 6.369 0 0 1-.454 1.62c-.039-.958-.404-1.906-.651-2.825-.711-2.666.621-4.237 2.269-5.659.129-.079.267-.168.405-.247.878-.533 1.717-1.136 2.19-2.034.119-.119.227-.237.336-.366l-.267.267c.119-.237.208-.494.277-.77 0-.01-.01-.02-.02 0a4.065 4.065 0 0 1-.75 1.214c-.651.543-1.381 1.047-2.072 1.59-1.293.79-2.605 1.551-3.108 3.131-.474 1.501-.109 3.131.01 4.662.187 2.37-.671 4.355-2.822 5.304-.04.019-.04.049 0 .039.158-.059.335-.099.483-.168-1.263 1.037-2.348 2.153-2.92 3.832-1.481 2.351-2.112 5.363-.504 7.872l.02-.03Zm5.526-13.353c-.247.188-.484.375-.731.563a4.25 4.25 0 0 0 .79-1.363c.602-1.679.098-3.506.059-5.244-.039-1.827.602-2.933 1.628-3.842-.474.553-.858 1.175-1.085 1.916-.385 1.274.019 2.46.385 3.694.256.869.365 1.659.286 2.39-.356.662-.819 1.284-1.332 1.876v.01Zm-4.46 4.662c.69-1.422 1.845-2.459 3.049-3.457.088-.069.167-.138.246-.207.346-.277.681-.563 1.017-.84-1.392 1.571-3.128 2.953-4.322 4.504h.01Z"/>
    <path fill="#213B74" d="M244.319 120.739c2.101 1.096 2.496 4.869 9.147 4.672.947-.03 1.716-.405 2.585-.089 1.273.464 2.279 1.481 3.404 2.222.927.612 1.944 1.017 3.029 1.165 2.052.287 4.174-.276 5.95-1.373 1.085-.671 2.003-1.6 3.059-2.321.996-.681 7.4-2.261 8.475-5.837.681-2.271.573-4.849-2.121-8.167-.543-.662-1.135-1.294-1.214-2.203-.069-.77.237-1.442.494-2.133.286-.78.592-1.59.385-2.449-.208-.86-.879-1.442-1.411-2.084-.997-1.195-.81-2.944 0-5.077.7-1.827.365-3.881-.642-5.501-.612-.988-1.47-1.709-2.289-2.499-1.214-1.155-1.441-2.222-1.973-3.852-1.027-3.13-2.645-4.543-4.549-5.5-1.717-.87-1.658-.534-3.493-.257-1.835-1.146-4.095-1.61-6.206-1.344-2.003.257-3.661 1.6-5.171 2.894-1.352 1.156-2.585 2.39-2.664 4.336-.039 1.116.227 2.232.178 3.348-.069 1.422-.859 2.32-1.806 3.22-1.312 1.254-2.457 2.755-2.763 4.642-.246 1.52 1.244 3.871-.503 6.113-1.539 1.975-4.253 4.257-4.963 6.756-2.21 7.733 3.049 10.261 5.062 11.318Z"/>
    <path fill="#0087FF" d="M272.746 88.603c1.124.988 2.239 2.044 3.246 3.15.7.761 1.144 1.63 1.204 2.697.059 1.086-.336 1.975-.918 2.834-.227.346-.464.692-.671 1.057-.039.642.03 1.294.306 1.946.493 1.175 1.598 1.896 2.111 3.081.829 1.926-.088 3.506-.897 5.215 0 .01-.02 0-.02 0 .582-1.412 1.401-2.795.947-4.385-.375-1.304-1.322-2.005-2.042-3.072-.454-.671-.662-1.452-.701-2.252-.641 1.294-.868 2.657.266 4.02.05.059-.029.148-.079.089-1.43-1.452-1.055-3.21-.177-4.74.049-.92.286-1.828.592-2.628.039-.089.158-.02.148.06-.128.671-.296 1.333-.395 1.994.05-.079.099-.148.148-.227 1.135-1.63 1.579-3.526.276-5.264-.976-1.303-2.318-2.33-3.414-3.526-.029-.03.01-.079.04-.05h.03Z"/>
    <path fill="#0087FF" d="M270.042 124.908c3.049-.464 7.745.109 9.364-3.289 1.213-1.037 2.003-2.488 1.904-4.365-.089-1.807-1.145-3.368-2.309-4.632-.671-.731-1.47-1.462-1.934-2.37a14.853 14.853 0 0 1-.375-2.074c.089-.889.415-1.768.73-2.588 0-.02-.029-.03-.039-.02-.661 1.403-1.283 2.963-.661 4.534.089.227.197.434.325.642.217.819.514 1.609.908 2.39 1.007 1.995 1.924 3.792 1.786 6.123-.049.909-.247 1.639-.552 2.242-1.273 1.215-2.98 1.797-4.717 2.044-.049 0-.049.079 0 .079 1.5-.168 3.118-.691 4.411-1.6-1.776 2.539-5.891 2.193-8.871 2.786-.069.009-.029.108.03.098Zm9.591-3.861s.019-.04.019-.07c.573-1.807.326-3.93-.384-5.669-.494-1.185-1.214-2.251-1.688-3.446-.079-.208-.158-.415-.227-.623.681.929 1.609 1.709 2.27 2.618 1.45 1.975 1.874 4.335.523 6.479a5.668 5.668 0 0 1-.523.711h.01Z"/>
    <path fill="#213B74" d="M242.078 119s.02.029 0 .029c-.019 0-.019-.029 0-.029Z"/>
    <path fill="#fff" d="M308.238 288.935c-2.546-.336-44.471-21.59-45.31-22.973-.049-.138-.059-.513.355-1.797.76-2.341 2.566-6.627 5.378-12.78 0-.02 8.841-19.644 12.699-28.217l26.976 13.244-12.452 28.385.049.059c.129.148 12.699 15.338 13.696 17.432.71 1.501.513 4.593-.385 6.005-.276.435-.582.652-.908.652h-.108l.01-.01Z"/>
    <path fill="#213B74" d="m281.419 223.334 26.749 13.136-12.373 28.207-.059.138.099.118c.128.149 12.689 15.319 13.685 17.403.691 1.481.503 4.503-.375 5.886-.246.395-.523.593-.799.593h-.089c-.789-.109-11.465-5.195-22.852-10.894-12.955-6.479-21.668-11.151-22.349-12v-.03c-.02-.039-.079-.316.385-1.728.74-2.291 2.546-6.568 5.348-12.721l12.649-28.108m-.118-.336-12.748 28.336c-2.467 5.402-4.529 10.182-5.368 12.75 0 .01-.01.03-.01.04-.315.967-.454 1.619-.365 1.846 0 .02 0 .04.02.05 1.105 1.827 43.662 22.795 45.398 23.032h.119c1.648 0 2.378-4.741 1.401-6.825-1.016-2.143-13.715-17.461-13.715-17.461l12.462-28.425-27.194-13.353v.01Z"/>
    <path fill="#EBEBEB" d="m271.167 245.527-2.615 5.818c-2.467 5.402-4.529 10.182-5.368 12.75 0 .01-.01.03-.01.04-.256.987-.394 1.649-.365 1.846 0 .02 0 .04.02.05 1.105 1.827 43.662 22.795 45.398 23.032 1.737.237 2.526-4.682 1.52-6.815-1.017-2.143-13.715-17.462-13.715-17.462l2.733-5.866-27.598-13.393Z"/>
    <path fill="#213B74" d="M308.208 289.002c-1.737-.228-44.303-21.156-45.418-22.983-.434-.691 2.25-7.071 5.713-14.696.039-.079.069-.158.108-.237l27.618 13.195-.236.464s12.718 15.308 13.734 17.442c1.007 2.123.218 7.052-1.509 6.815h-.01Z"/>
    <path fill="#0087FF" d="M309.609 287.788c.621.672-.799 3.151-1.451 3.082-.651-.07-46.967-23.092-47.667-23.655-.701-.562.976-3.259 1.963-2.953.987.307 47.165 23.526 47.165 23.526h-.01Z"/>
    <path fill="#9FD0FD" d="M298.262 265.948c-2.566-1.916-6.236-3.18-9.374-2.222-.119.04-.069.207.039.227 3.217.494 6.098 1.205 9.157 2.351.217.079.375-.217.187-.356h-.009Zm1.43 2.231c-2.565-1.916-6.236-3.18-9.373-2.222-.119.039-.07.207.039.227 3.217.493 6.098 1.205 9.157 2.35.217.079.375-.217.187-.355h-.01Zm1.441 2.234c-2.566-1.916-6.236-3.18-9.374-2.222-.118.039-.069.207.039.227 3.217.494 6.098 1.205 9.157 2.351.217.079.375-.218.188-.356h-.01Zm-27.825-11.11c-2.329-3.062-7.085.553-4.756 3.624 2.329 3.062 7.085-.553 4.756-3.624Z"/>
    <path fill="#37474F" d="M288.809 198.387c-.286 8.237-16.143 43.812-16.143 43.812l27.816 12.81s22.447-39.545 20.365-57.767c-1.776-15.457-40.632-44.049-46.878-52.108-.928-1.195-.612-6.005-.612-6.005h-25.24v6.005c9.64 20.474 38.462 45.026 40.593 52.236.079.257.109.603.089 1.008l.01.009Z"/>
    <path fill="#263238" d="M300.324 249.064c-4.579-2.192-3.237-1.629-7.835-3.772-2.25-1.047-13.557-6.351-15.837-6.943-.049-.01-.088.069-.039.098 1.954 1.324 13.38 6.351 15.649 7.358 4.648 2.055 3.335 1.413 8.002 3.408.089.039.148-.099.06-.139v-.01Zm-45.823-99.623c7.667 11.595 16.083 22.647 25.467 32.909 2.289 2.498 4.637 4.928 6.996 7.367 1.993 2.065 4.025 4.346 4.519 7.269.552 3.26-.72 6.509-1.737 9.541a522.736 522.736 0 0 1-3.424 10.015c-1.282 3.585-6.512 16.503-7.38 18.251-.434.87 6.926-17.757 8.12-21.234 1.175-3.427 2.408-6.874 3.424-10.35.513-1.778.928-3.655.74-5.521-.187-1.827-.986-3.467-2.082-4.919-2.042-2.736-4.706-5.047-7.035-7.545a252.257 252.257 0 0 1-13.794-16.099c-4.953-6.301-9.63-12.829-13.903-19.605-.029-.049.05-.108.089-.049v-.03Z"/>
    <path fill="#fff" stroke="#213B74" stroke-miterlimit="10" stroke-width=".25" d="m239.513 284.736-1.243 31.062c.138 5.935.365 11.14.74 13.817v.039c.138 1.008.296 1.66.484 1.828.009.009.019.029.039.039 1.796 1.156 49.227 1.422 50.884.869 1.668-.543.227-5.323-1.608-6.805-1.845-1.481-19.951-9.708-19.951-9.708l.947-31.022-30.292-.128v.009Z"/>
    <path fill="#EBEBEB" d="m238.517 309.653-.247 6.143c.138 5.936.365 11.141.74 13.817v.04c.197.997.365 1.659.484 1.827.009.01.019.03.039.039 1.796 1.156 49.227 1.423 50.884.87 1.668-.544.227-5.324-1.608-6.805-1.845-1.482-19.951-9.709-19.951-9.709l.187-6.281-30.528.049v.01Z"/>
    <path fill="#213B74" d="M290.388 332.349c-1.657.553-49.088.336-50.884-.83-.691-.424-1.066-7.348-1.273-15.723v-.266l30.598-.198v.523s18.106 8.208 19.951 9.689c1.835 1.472 3.276 6.252 1.608 6.795v.01Z"/>
    <path fill="#0087FF" d="M291.118 330.65c.849.336.651 3.181.04 3.408-.612.227-52.325-.247-53.204-.445-.878-.197-.542-3.358.484-3.516 1.016-.158 52.69.544 52.69.544l-.01.009Z"/>
    <path fill="#9FD0FD" d="M271.374 315.956c-3.147-.602-6.996-.138-9.413 2.094-.089.089.03.217.128.188 3.108-.968 6.009-1.581 9.265-1.887.227-.02.237-.355.01-.395h.01Zm2.27 1.383c-3.148-.603-6.996-.138-9.413 2.094-.089.089.029.217.128.187 3.108-.968 6.009-1.58 9.265-1.886.227-.02.237-.356.01-.395h.01Zm2.259 1.383c-3.148-.603-6.996-.139-9.413 2.094-.089.088.029.217.128.187 3.108-.968 6.009-1.58 9.265-1.886.227-.02.237-.356.01-.395h.01Zm-29.877 2.169c-3.434-1.739-6.138 3.595-2.694 5.333 3.434 1.738 6.137-3.595 2.694-5.333Z"/>
    <path fill="#37474F" d="m269.687 305.9-31.003.257s5.161-126.744 1.707-130.882c-8.219-9.847-6.916-22.973-1.371-36.158h28.269s-1.352 20.02-1.223 20.602c8.673 37.946 3.621 146.191 3.621 146.191v-.01Z"/>
    <path fill="#263238" d="M267.98 299.551c-6.759-.524-24.569.049-26.819.395-.049 0-.049.099 0 .109 2.23.454 22.655-.188 26.819-.346.089 0 .098-.148 0-.158Zm-.049-152.661c-.287 3.585-.139 9.699-2.211 9.788-2.003.089-1.707-7.388-1.766-9.106-.049-1.561-.582-1.344-.641.493-.158 4.988-.03 9.383 2.615 9.186 2.703-.208 2.624-7.931 2.555-9.699-.029-.909-.464-1.788-.552-.662Z"/>
    <path fill="#263238" d="M265.859 156.925c-.129.692-.099 3.25.079 3.773.039.099.434.02.473-.059.247-.524.05-2.973.119-3.625.049-.434-.592-.513-.671-.089Z"/>
    <path fill="#263238" d="M266.737 161.331c.878 3.131 1.786 9.126 1.569 10.706-.02.139-.237.188-.257.04-.286-1.679-1.539-9.758-1.658-10.607-.138-.899.099-1.018.346-.139Z"/>
    <path fill="#263238" d="M261.3 163.799c.385-.425.868-.761 1.322-1.116.464-.366.928-.721 1.411-1.057a44.2 44.2 0 0 1 3.029-1.936 52.59 52.59 0 0 1 3.089-1.679c1.095-.553 2.259-.977 3.364-1.521.06-.029.119.06.06.089-1.046.573-2.003 1.294-3.02 1.926-1.016.632-2.022 1.284-3.039 1.916-.996.622-1.973 1.254-2.97 1.867-.523.316-1.046.632-1.578.938-.494.286-.967.612-1.49.83-.158.069-.257-.158-.158-.267l-.02.01Zm-17.948 76.155c.454-10.163 1.184-21.481 1.332-31.644.079-5.087.108-10.173.108-15.259 0-5.047.04-11.783-.227-16.83-.138-2.558-4.637-4.533-5.555-12-.572-4.661-.316-8.602.987-12.671.316-.998.7-1.975 1.125-2.923.029-.07.118 0 .098.059a27.86 27.86 0 0 0-2.18 13.313c.187 2.282.533 4.543 1.401 6.696 1.214 3.003 4.193 5.452 4.341 7.052.237 2.39.267 4.454.296 6.845.03 2.488.05 4.987.069 7.476.03 5.086.01 10.173-.039 15.259a974.99 974.99 0 0 1-.799 30.35c-.425 10.114-3.039 60.75-3.217 61.906-.02.128-.227.098-.217-.03.345-5.067 2.023-47.426 2.487-57.579l-.01-.02Z"/>
    <path fill="#fff" stroke="#213B74" stroke-miterlimit="10" stroke-width=".55" d="M338.164 112.579c0-3.081-18.017-2.232-18.115-2.222-4.914-.039-17.14-.503-18.432-.138-1.727.494-3.473 2.726-5.378 5.185-3.976 3.002-10.913 10.716-12.087 10.439-1.243-.296-11.14-9.738-20.119-17.708-5.446-4.83-8.584-1.995-3.917 7.625 6.729 13.896 15.264 28.947 23.267 31.308 6.68 1.975 18.885-12.227 24.884-19.042 4.697-2.874 11.318-7.289 13.735-10.696.198-.277.671-.494 1.313-.701 3.956-.652 14.869-1.334 14.869-4.04l-.02-.01Z"/>
    <path fill="#263238" d="M333.704 112.667c-.118-.573-.562-1.057-1.026-1.393-1.105-.77-2.545-.839-3.848-.948-1.954-.158-3.947-.217-5.91-.049-.04 0-.04.069 0 .069 1.48.02 2.94.039 4.42.158 1.322.108 2.723.207 3.996.612.573.188 1.145.454 1.54.919.266.316.434.76.306 1.185-.435 1.363-3.109 1.768-4.352 2.044-1.618.366-3.295.682-4.924 1.017-.069.01-.039.119.03.109 1.687-.336 3.473-.464 5.161-.77 1.371-.247 2.841-.534 3.956-1.442.464-.375.78-.909.651-1.531v.02Z"/>
    <path fill="#0087FF" d="m308.621 105.938.468-2.405 27.766 5.423a1.224 1.224 0 0 1-.469 2.404l-27.765-5.422Z"/>
    <path fill="#000" d="m309.118 103.549-.469 2.404 3.38.661.469-2.404-3.38-.661Z" opacity=".1"/>
    <path fill="#0087FF" d="m298.4 100.482-.829 4.257a5.558 5.558 0 0 0 .839 4.167 5.539 5.539 0 0 0 3.532 2.351 5.533 5.533 0 0 0 6.503-4.385l.829-4.257a5.526 5.526 0 0 0-.839-4.158 5.538 5.538 0 0 0-3.542-2.35 5.54 5.54 0 0 0-6.503 4.385l.01-.01Zm9.147 1.067c-.247 1.264-1.352 2.182-2.723 2.399 1.184.721 1.865 1.976 1.618 3.25-.326 1.689-2.201 2.755-4.164 2.37-1.973-.385-3.296-2.074-2.97-3.763.247-1.264 1.352-2.182 2.723-2.4-1.184-.721-1.865-1.975-1.618-3.249.336-1.699 2.191-2.756 4.164-2.37 1.973.385 3.305 2.074 2.97 3.763Z"/>
    <path fill="#213B74" d="m309.309 102.58-.849 4.352a.563.563 0 0 0 1.104.216l.849-4.353a.562.562 0 1 0-1.104-.215Zm1.108.199-.849 4.352a.562.562 0 1 0 1.104.216l.849-4.352a.563.563 0 0 0-1.104-.216Zm20.002 3.907.829.158.473-2.42.711.138-.247 1.264.839.158.246-1.264.632.129-.395 1.995.839.168.385-2.005.898.178-.523 2.666.838.168.523-2.667.839.158-.661 3.418-7.45-1.462.661-3.407 1.036.197-.473 2.43Z"/>
    <path fill="#0087FF" d="m234.955 143.407 39.695.652-3.108-11.901s3.414-4.365 1.786-10.37c-.948-3.496-5.467-8.751-8.239-12.079-6.749-8.118-12.61-4.444-14.475-2.36-7.144 7.97-15.659 36.058-15.659 36.058Z"/>
    <path fill="#fff" d="m254.501 111.951.03-2.271 1.5 1.679 1.618-.504-.79 1.442.76.8-1.184.118-.02 1.531-1.302-1.076-1.056.879.119-1.294-1.54-.711 1.845-.603.02.01Zm16.912 25.432-1.253 1.146-1.144-.613.404 1.314-1.5.78 1.402.613-.346 1.135 1.036-.395 1.026 1.294.158-1.689 2.132-.741-2.082-.908.167-1.936Zm-14.514-8.444 1.214 2.419 1.203-2.311 2.29.395-1.224-2.429 1.707-1.62-2.408.089-.483-2.361-1.273 2.45-3.207-.247 1.895 1.955-1.757 1.344 2.043.335v-.019Zm9.462-13.985.583-.978-1.096.099-.384-.909-.583.988-.957-.237.573.839-.731.711 1.155-.099.641 1.196.267-1.116.868.316-.345-.8.009-.01Zm-18.609 25.896.582-.978-1.095.099-.385-.909-.582.988-.957-.237.572.839-.73.711 1.155-.099.641 1.196.266-1.117.869.317-.346-.8.01-.01Zm6.522-17.649.582-.978-1.095.098-.385-.908-.582.988-.957-.238.572.84-.73.711 1.155-.099.641 1.195.266-1.116.869.316-.346-.8.01-.009Zm-7.065 2.646-.197-.642-.385.524-.542-.188.207.642-.484.326.592.079.03.603.405-.554.779.188-.385-.553.484-.257-.484-.158-.02-.01Zm18.422 15.269-.197-.642-.385.524-.543-.188.208.642-.484.336.592.069.03.603.404-.554.78.188-.385-.553.483-.257-.483-.158-.02-.01Zm5.516-18.607.503-.444-.631-.139-.06-.572-.503.454-.503-.306.178.573-.533.266.671.148.148.791.345-.583.434.336-.049-.514v-.01Zm-9.966 12.02.503-.445-.631-.138-.059-.573-.503.455-.504-.307.178.573-.533.267.671.148.148.79.345-.583.435.336-.05-.513v-.01Zm-20.494 3.773.504-.445-.632-.138-.059-.573-.503.454-.504-.306.178.573-.533.267.671.148.148.79.345-.583.435.336-.05-.514v-.009Z"/>
    <path fill="#263238" d="M260.915 131.456c1.697-.129 3.404-.208 5.101-.089.848.059 1.677.158 2.516.276.414.06.839.099 1.253.149.434.039.888.069 1.322 0 .04 0 .05.049.01.059a8.555 8.555 0 0 1-1.233.197c-.405.03-.809.02-1.214 0-.858-.049-1.717-.148-2.565-.207-1.727-.129-3.454-.247-5.19-.247-.079 0-.089-.138 0-.138Zm-3.858 2.23a36.373 36.373 0 0 1 4.104-.948 25.253 25.253 0 0 1 2.092-.257c.336-.029.671-.049 1.007-.069.365-.02.74.01 1.105-.01.039 0 .049.06 0 .06-.346.029-.691.128-1.036.177-.346.06-.691.109-1.036.158-.691.109-1.382.228-2.082.326a146.63 146.63 0 0 0-4.154.672c-.079.01-.089-.099-.02-.119l.02.01Z"/>
    <path fill="#fff" d="M261.132 111.902c-3.167 0-6.354-4.425-6.502-5.057-.059-.267-.01-2.845.247-5.343l.088-.751c.02-.237.05-.454.079-.681.05-.366.099-.672.138-.978.01-.099.099-.612.099-.612.237-1.68.454-3.082.523-3.566l.859.504 6.936 4.444-1.401 6.311c0 2.371-.266 5.699-.908 5.729h-.158Z"/>
    <path fill="#213B74" d="m255.893 95.112.69.405 6.868 4.395-1.283 5.807-.098.425v.059c.019 2.894-.356 5.551-.79 5.58h-.148c-3.039 0-6.246-4.365-6.384-4.958-.049-.237-.02-2.696.247-5.303l.049-.385.04-.376c.019-.217.049-.424.079-.632v-.089l.148-.938c.009-.089.029-.178.039-.267v-.069l.049-.296.494-3.368m-.188-.395s-.256 1.66-.552 3.723c-.01.1-.03.188-.04.297-.019.118-.039.227-.049.335-.049.307-.099.623-.138.939-.03.237-.069.474-.089.721l-.089.75c-.256 2.499-.306 5.087-.246 5.383.167.701 3.443 5.156 6.63 5.156h.168c1.056-.05 1.026-5.828 1.026-5.828l.099-.424 1.322-5.975-7.016-4.484-1.016-.593h-.01Z"/>
    <path fill="#263238" d="M255.153 98.442c1.717 4.751 5.506 6.677 7.252 7.328l1.322-5.975-7.015-4.484-1.016-.592s-.257 1.659-.553 3.723h.01Z"/>
    <path fill="#fff" stroke="#213B74" stroke-miterlimit="10" stroke-width=".25" d="M272.124 90.054c-2.082-10.529-8.13-12.237-12.798-11.062-4.302 1.087-8.229 4.84-6.324 13.491-.296-.03-.573.01-.809.188-1.421.997.858 5.63 2.703 6.104.178.04.326.049.474.059 3.512 5.817 8.772 4.978 10.498 4.642 2.27-.445 8.338-2.884 6.256-13.412v-.01Z"/>
    <path fill="#213B74" d="M269.055 88.443c-.246.059-.483.079-.73.118-.276.04-.503.109-.769-.02-.148-.069-.217-.286-.168-.434.118-.336.454-.484.789-.543.365-.07.661-.03.987.138.316.168.207.652-.109.74Zm-7.479 2.152c.257-.03.484-.099.731-.148.276-.06.503-.08.71-.297a.37.37 0 0 0 0-.464c-.237-.276-.592-.286-.927-.227-.366.06-.632.207-.879.484-.236.267.03.681.365.652Zm1.589 1.355s-.049.039-.049.068c.128.721.157 1.56-.454 1.906-.02.01-.01.05.009.04.78-.227.731-1.353.494-2.015Z"/>
    <path fill="#213B74" d="M262.405 91.287c-1.174.088-.917 2.43.168 2.35 1.075-.079.809-2.42-.168-2.35Z"/>
    <path fill="#213B74" d="M261.961 91.466c-.187.158-.365.415-.612.464-.286.06-.523-.158-.74-.375-.019-.02-.039 0-.039.03.039.454.266.889.75.908.444.01.72-.414.779-.889.01-.088-.079-.197-.148-.138h.01Zm5.654-.196s.059.03.059.059c.049.73.237 1.56.918 1.728.019 0 .019.04 0 .04-.809-.03-1.046-1.136-.977-1.828Z"/>
    <path fill="#213B74" d="M268.187 90.45c1.164-.207 1.49 2.124.414 2.322-1.055.187-1.391-2.144-.414-2.322Z"/>
    <path fill="#213B74" d="M268.69 90.528c.198.098.415.296.642.276.256-.02.414-.296.542-.563.01-.03.03-.01.04.02.079.444 0 .928-.424 1.077-.385.138-.721-.208-.888-.642-.03-.08.009-.218.098-.178l-.01.01Zm-4.203 7.564c.187.158.375.385.641.385.257 0 .543-.128.77-.237.02-.01.049.01.029.04a.968.968 0 0 1-.897.454c-.336-.04-.514-.316-.612-.612-.01-.04.039-.06.069-.04v.01Zm2.704-2.992s.286 1.067.345 1.58c0 .05-.118.09-.286.12h-.02c-.888.246-1.835.049-2.467-.623-.039-.05.02-.109.069-.079.731.415 1.49.454 2.3.365.019-.148-.543-1.807-.464-1.827.276-.059.848.07 1.194.119-.523-2.232-1.401-4.375-1.885-6.608-.02-.079.099-.118.128-.049 1.076 2.173 1.737 4.731 2.329 7.032.079.287-1.016.03-1.233-.03h-.01Z"/>
    <path fill="#213B74" d="M267.181 96.61s-.375.751-.997 1.117a1.345 1.345 0 0 1-.789.197c-.602-.049-.71-.573-.691-1.047.02-.385.129-.74.129-.74s.986.632 2.348.474Z"/>
    <path fill="#fff" d="M265.395 97.796c-.148-.01-.582-.04-.582-.8h.01c.464 0 1.006.208 1.194.672a1.197 1.197 0 0 1-.543.138h-.089l.01-.01Z"/>
    <path fill="#213B74" d="M264.951 97.126c.355.03.73.178.908.484a.994.994 0 0 1-.375.069h-.079c-.118 0-.414-.03-.464-.553m-.118-.247h-.128c-.02.474.088.997.69 1.047h.099c.256 0 .483-.08.691-.198-.148-.553-.76-.85-1.342-.85h-.01Zm-10.065-1.216c2.013-.03 1.874-4.632 1.874-4.632s8.22-2.617 7.963-9.58c0 0 2.062 4.168 6.749 5.521 0 0-1.361-7.476-7.518-8.099 0 0-7.776-1.64-11.101 4.82-3.325 6.46.681 11.99 2.033 11.97Z"/>
    <path fill="#213B74" d="M264.556 80.938c.256 1.027.256 2.123.069 3.18-.198 1.056-.592 2.094-1.194 2.992-.138.237-.326.435-.484.652l-.256.316c-.089.099-.188.188-.286.287-.198.187-.385.375-.593.553a27.61 27.61 0 0 1-.651.484l-.325.237-.356.197-.7.385c-.493.218-.987.405-1.48.583.454-.276.927-.504 1.371-.79l.652-.435.325-.217c.099-.079.198-.168.296-.247l.592-.503c.188-.178.355-.376.533-.554l.266-.276.237-.306c.148-.208.326-.395.454-.623.582-.839.967-1.817 1.243-2.804.129-.504.217-1.018.267-1.531a9.257 9.257 0 0 0 .029-1.57l-.009-.01Z"/>
    <path fill="#fff" d="m251.63 89.324-.493 1.008 3.325 2.44 1.075-2.273-3.897-1.175h-.01Zm2.595 2.41-2.299-1.491.109-.237 2.585.928-.395.8Zm-2.457-4.199-.079 1.126 3.997 1.008.138-2.509-4.056.385v-.01Zm3.316 1.245-2.694-.514V88l2.753-.109-.059.889Zm1.213 5.964s-2.693-3.082-4.104-2.084c-1.421.997.858 5.63 2.703 6.103 1.845.465 2.309-1.234 2.309-1.234l-.898-2.785h-.01Z"/>
    <path fill="#213B74" d="M252.874 93.984s-.03.04 0 .05c1.302.365 2.081 1.452 2.664 2.597-.425-.424-.948-.622-1.52-.108-.03.03 0 .079.04.059.493-.168.878-.118 1.263.257.276.267.483.612.69.928.069.109.267.02.207-.099 0 0 0-.02-.009-.03-.139-1.59-1.619-3.673-3.335-3.654Z"/>
    <path fill="#fff" stroke="#213B74" stroke-miterlimit="10" d="M248.246 109.687c-9.039 15.624-22.566 51.466-25.013 56.591-.01.03-.01.05-.02.08-4.115 5.876-7.529 12.661-7.617 20.068-.02 1.6.769 2.529.769 2.529-.108 3.654 1.579 4.8 1.579 4.8.937 3.427 2.832 4.365 2.832 4.365s.276 2.943 2.338 2.894c2.003-.04 3.207-4.859 5.013-8.375 1.411-2.746 3.207-5.6 5.022-8.277.937-.81 1.372-.306.967 1.896-.414 2.252-3.947 10.657-.908 11.635 3.049.997 7.854-10.983 8.269-14.736.335-3.032-.03-7.674-.178-9.343 2.98-10.024 12.916-44.562 13.646-61.026.385-8.632-3.808-8.089-6.709-3.092l.01-.009Zm-13.479 72.344a244.54 244.54 0 0 1 3.878-5.303h.03c-1.194 1.6-2.595 3.456-3.918 5.294l.01.009Z"/>
    <path fill="#0087FF" d="m238.467 197.43-22.792-4.099c-.681-.059-1.145-.533-1.027-1.057l2.082-9.313c.119-.524.77-.889 1.451-.83l22.793 4.099c.681.059 1.144.533 1.026 1.057l-2.082 9.313c-.118.524-.76.889-1.451.83Z"/>
    <path fill="#9FD0FD" d="m238.734 196.332-22.793-4.099c-.681-.059-1.144-.533-1.026-1.056l2.082-9.314c.118-.523.77-.889 1.45-.829l22.793 4.098c.681.06 1.145.534 1.026 1.057l-2.081 9.314c-.119.523-.76.888-1.451.829Z"/>
    <path fill="#263238" d="M238.309 193.378c-.532-.198-1.026 0-1.115.434-.088.445.277.958.8 1.166.533.197 1.026 0 1.115-.435.088-.435-.277-.958-.8-1.165Z"/>
    <path fill="#fff" d="M248.246 109.688c-9.039 15.625-22.566 51.466-25.013 56.592-.01.03-.01.05-.02.079-4.115 5.877-7.529 12.662-7.617 20.069-.02 1.6.769 2.529.769 2.529-.108 3.654 1.579 4.8 1.579 4.8.937 3.427 2.832 4.365 2.832 4.365s.276 2.943 2.338 2.894c2.003-.04 3.207-4.859 5.013-8.375 2.93-5.709 8.16-10.944 11.12-14.894 1.036.197 1.135-.879 1.273-1.333.987-3.24 13.606-44.988 14.425-63.614.385-8.632-3.808-8.089-6.709-3.092l.01-.02Z"/>
    <path fill="#213B74" d="M225.936 182.269c-1.174 2.4-2.387 4.721-3.226 7.269-.928 2.795-1.342 5.639-1.845 8.523-.02.089-.138.079-.138-.01.078-5.363 2.121-11.387 5.101-15.832.069-.108.168-.069.108.06v-.01Zm-4.499-3.209c-1.016 2.4-2.763 6.627-3.394 14.706 0 .029-.05.029-.05 0-.286-5.304.888-10.094 3.326-14.756.079-.148.177-.108.118.05Zm-2.457-1.691c-1.569 4.138-2.023 6.953-2.585 11.565 0 .03-.049.03-.049 0 .089-5.303.72-7.219 2.506-11.634.059-.148.197-.089.138.069h-.01Z"/>
    <path fill="#fff" d="M446.603 376.034c-6.522 0-10.548-.089-11.051-.257-.424-.139-.7-.524-.819-1.146-.394-2.094 1.145-6.123 2.901-7.555 2.358-1.926 25.763-12.771 26-12.879l.079-.03-.326-8.632-4.075-31.802 41.264-.405 3 32.118c-.01.306-.01.632-.01.958 0 2.361-.03 4.682-.079 6.943v.346c-.276 16.355-.937 20.168-1.441 20.484-1.736 1.136-37.376 1.866-55.443 1.866v-.009Z"/>
    <path fill="#213B74" d="m500.468 313.446 2.98 31.97c-.01.326-.01.642-.01.978 0 2.133-.03 4.405-.079 6.943v.346c-.286 17.106-.987 20.108-1.391 20.385-1.549 1.017-34.614 1.837-55.364 1.837-9.502 0-10.835-.188-11.012-.247-.385-.119-.632-.474-.74-1.047-.395-2.054 1.135-6.025 2.861-7.437 2.349-1.916 25.734-12.76 25.97-12.869l.148-.069v-.168l-.029-.681-.247-6.608-.049-1.284-4.056-31.654 41.018-.405m.227-.246-41.521.404 4.095 31.931.049 1.264.247 6.607.02.682s-23.622 10.943-26.02 12.899c-2.378 1.945-4.213 8.217-2.042 8.908.542.178 4.874.257 11.081.257 18.51 0 53.745-.731 55.502-1.877.898-.563 1.312-9.629 1.5-20.592v-.346c.039-2.261.069-4.582.079-6.943 0-.326 0-.652.009-.978l-3.009-32.226.01.01Z"/>
    <path fill="#EBEBEB" d="M435.523 375.897c2.18.701 64.244-.089 66.593-1.62.898-.563 1.312-9.63 1.499-20.592v-.346c.04-2.262.07-4.583.079-6.943 0-.326 0-.652.01-.978l-40.435.109.049 1.264.247 6.607.02.682s-23.622 10.943-26.02 12.898c-2.378 1.946-4.213 8.217-2.042 8.909v.01Z"/>
    <path fill="#0087FF" d="M435.513 375.894c1.125.365 17.987.326 34.465 0 3.316-.069 6.611-.139 9.749-.227 11.752-.317 21.471-.8 22.369-1.393.888-.563 1.302-9.373 1.49-20.128v-.81h-.05l-40.001.069.02.682s-23.622 10.933-26.019 12.888c-2.388 1.956-4.214 8.217-2.043 8.919h.02Z"/>
    <path fill="#213B74" d="M436.194 373.476c10.459-.395 52.68-.978 63.05-.573.089 0 .089.059 0 .069-10.36.612-52.591.859-63.05.671-.217 0-.227-.167 0-.167Zm22.911-19.903c4.105-.82 9.147-.257 12.334 2.647.128.109-.039.287-.168.247-4.075-1.235-7.883-2.005-12.136-2.37-.296-.03-.316-.465-.02-.524h-.01Zm-2.95 1.836c4.105-.82 9.147-.257 12.334 2.647.128.109-.039.286-.168.247-4.075-1.235-7.884-2.005-12.136-2.37-.296-.03-.316-.465-.02-.524h-.01Zm-2.951 1.828c4.105-.819 9.147-.256 12.334 2.647.129.109-.039.287-.167.247-4.076-1.234-7.884-2.005-12.137-2.37-.296-.03-.316-.464-.02-.524h-.01Z"/>
    <path fill="#000" d="M469.979 375.894c3.315-.069 6.611-.139 9.748-.227 11.752-.317 21.471-.8 22.369-1.393.888-.563 1.302-9.373 1.49-20.128v-.81h-.049c-5.477 3.852-24.796 16.711-33.578 22.558h.02Z" opacity=".1"/>
    <path fill="#263238" d="M461.167 353.545h44.708s-8.979-104.503-8.624-106.32c.444-2.341 3.088-12.918 6.601-26.736 1.105-4.325 2.289-8.957 3.523-13.767 3.335-12.998 7.015-27.21 10.212-39.575 4.805-18.518 8.565-28.069 8.565-28.069h-37.89s-31.14 89.243-32.384 107.693c-1.085 16.088 5.289 106.783 5.289 106.783v-.009Z"/>
    <path fill="#37474F" d="M463.15 345.908c6.828-.138 4.865-.197 11.693-.257 3.345-.029 25.299-.217 28.417.297.069.01.069.128 0 .138-3.118.514-25.082.316-28.417.286-6.828-.069-4.865-.118-11.693-.266-.128 0-.128-.198 0-.198Zm25.684-105.074c1.471-6.469 3.661-12.81 5.565-19.15 3.878-12.899 7.786-25.788 11.703-38.676 1.953-6.44 11.051-30.548 11.949-33.758.365-1.304.562-.583.098 1.067-.947 3.338-16.478 51.13-20.405 64.226-1.973 6.568-3.946 13.126-5.92 19.694-.937 3.14-1.865 6.291-2.417 9.521-.582 3.367-.612 6.785-.395 10.192.424 6.844 1.214 13.679 1.845 20.513l1.895 20.533c1.253 13.62 2.516 27.24 3.739 40.869.158 1.728.306 3.457.434 5.185.04.583-.828.534-.888-.02-1.47-13.471-2.595-26.982-3.858-40.473l-3.759-40.266c-.316-3.368-.671-6.746-.671-10.133 0-3.141.395-6.242 1.095-9.304l-.01-.02Z"/>
    <path fill="#37474F" d="M492.574 139.066c2.624 20.366 7.627 53.718 11.278 81.422 8.555-33.57 22.299-81.412 22.299-81.412h-33.587l.01-.01Z"/>
    <path fill="#fff" d="M495.761 376.68c-8.179 0-13.399-.109-13.971-.297-.425-.138-.701-.523-.819-1.145-.395-2.094 1.174-6.114 2.93-7.546 2.368-1.916 25.803-12.681 26.039-12.79l.079-.029-.296-8.632-1.125-31.812 40.327-.257c.099 1.501 1.125 17.165.977 32.108-.01.326-.01.652-.02.978a397.98 397.98 0 0 1-.098 6.943v.346c-.336 16.355-1.007 20.167-1.52 20.483-1.569 1.018-32.147 1.67-52.513 1.67l.01-.02Z"/>
    <path fill="#213B74" d="M548.816 314.302c.139 2.054 1.106 17.363.977 31.97-.01.326-.01.652-.019.978a483.05 483.05 0 0 1-.099 6.943v.335c-.345 17.097-1.066 20.109-1.46 20.385-1.54 1.008-32.098 1.64-52.444 1.64-8.17 0-13.38-.109-13.942-.296-.385-.119-.632-.474-.74-1.047-.385-2.064 1.154-6.015 2.881-7.427 2.358-1.907 25.783-12.662 26.019-12.771l.149-.069v-.168l-.03-.681-.227-6.607-.039-1.265-1.115-31.683 40.089-.257m.227-.247-40.573.257 1.125 31.93.039 1.265.227 6.607.02.681s-23.661 10.855-26.069 12.8c-2.388 1.946-4.243 8.198-2.072 8.909.632.207 6.266.306 14.011.306 19.064 0 50.914-.603 52.582-1.679.898-.563 1.352-9.62 1.569-20.583v-.345c.049-2.262.089-4.583.098-6.943 0-.326 0-.652.02-.968.148-15.822-.986-32.237-.986-32.237h.009Z"/>
    <path fill="#EBEBEB" d="M481.75 376.504c2.171.711 64.244.148 66.593-1.383.898-.563 1.352-9.62 1.569-20.583v-.345c.049-2.262.088-4.583.098-6.943 0-.326 0-.652.02-.968l-40.435-.04.039 1.264.227 6.608.02.681s-23.661 10.854-26.069 12.8c-2.388 1.946-4.243 8.197-2.072 8.909h.01Z"/>
    <path fill="#0087FF" d="M481.75 376.503c2.171.711 64.244.148 66.593-1.383.898-.563 1.352-9.619 1.569-20.582v-.346l-40.051-.079.02.682s-23.661 10.854-26.069 12.8c-2.388 1.945-4.243 8.197-2.072 8.908h.01Z"/>
    <path fill="#213B74" d="M482.431 374.086c10.459-.356 52.69-.791 63.06-.336.089 0 .089.059 0 .069-10.36.573-52.591.662-63.051.444-.217 0-.226-.168 0-.168l-.009-.009Zm22.98-19.813c4.115-.81 9.157-.217 12.324 2.686.119.109-.039.287-.177.247-4.076-1.244-7.874-2.034-12.127-2.41-.296-.029-.316-.464-.02-.523Zm-2.95 1.816c4.114-.81 9.156-.217 12.324 2.687.118.108-.04.286-.168.247-4.075-1.245-7.874-2.035-12.127-2.41-.296-.03-.315-.464-.019-.524h-.01Zm-2.961 1.817c4.115-.81 9.157-.218 12.324 2.686.119.109-.039.286-.177.247-4.075-1.244-7.874-2.035-12.127-2.41-.296-.029-.316-.464-.02-.523Z"/>
    <path fill="#263238" d="M488.529 139.066s.868 13.304 5.012 27.674a57.534 57.534 0 0 0 1.086 3.477s3.354 1.57 9.946 5.619c0 0 .434 14.598.868 30.884.483 18.202.977 38.498.878 42.804-.385 16.109 1.993 104.69 1.993 104.69l44.698.188s-8.061-98.922-8.002-104.818c.089-9.482-2.368-42.43-4.095-73.007-.148-2.568 1.391-8.158 1.253-10.39-.858-14.103-2.97-27.101-2.97-27.101h-50.657l-.01-.02Z"/>
    <path fill="#37474F" d="M509.832 346.256c6.828-.108 4.864-.177 11.692-.207 3.345-.02 25.299-.109 28.417.425.069.01.069.128 0 .138-3.128.504-25.082.217-28.427.168-6.828-.099-4.864-.138-11.692-.316-.128 0-.128-.198 0-.198l.01-.01Zm21.974-184.482c-1.096-.286-2.28-.375-3.395-.553a49.615 49.615 0 0 1-2.703-.504c-1.687-.375-3.394-.928-4.776-2.014-2.23-1.749-4.785-10.578-5.101-11.141-.533-.968-.375-.069-.375.03 0 1.027 2.023 8.711 2.93 10.153 1.658 2.646 4.628 3.703 7.588 4.078a37.08 37.08 0 0 0 2.566.218c1.055.059 2.18.158 3.236.02.158-.02.207-.247.03-.297v.01Zm-49.464-1.719c.493-.286 1.016-.375 1.52-.553.404-.148.809-.306 1.213-.503.76-.376 1.52-.929 2.141-2.015.997-1.748 2.142-10.578 2.28-11.141.236-.968.167-.069.167.03 0 1.027-.907 8.711-1.312 10.153-.74 2.647-2.072 3.703-3.394 4.079a7.82 7.82 0 0 1-1.145.217c-.473.059-.977.158-1.45.02-.069-.02-.089-.247-.01-.297l-.01.01Zm12.423 10.37c4.361 1.502 8.565 3.635 12.59 5.867.158.089.05.336-.118.257-4.243-1.827-8.565-3.566-12.699-5.62-.326-.158-.108-.622.227-.504Zm-1.273-29.065c.01-.148.266-.178.266-.02-.029 5.037.287 9.472.711 14.183.197 2.182 1.954 14.271 5.743 13.392.631-.148.957-.77 1.055-1.728.119-1.146-.315-2.558-.503-3.704a94.23 94.23 0 0 1-.977-7.625c-.404-4.77-.424-9.54.158-14.291.02-.158.247-.148.247.01 0 6.598.168 13.195 1.154 19.733.474 3.141 2.053 7.872-1.223 8.356-3.345.493-5.506-7.437-5.921-9.6-1.134-6.054-1.184-12.583-.71-18.706Z"/>
    <path fill="#37474F" d="M500.113 169.23c.345.81.622 1.659.849 2.508.177.662.424 1.373.355 2.055-.01.138-.188.148-.267.059-.444-.563-.631-1.333-.878-2.005-.286-.77-.592-1.541-.858-2.331-.178-.523.582-.79.799-.286Zm33.143-28c.76 4.119 1.471 8.237 2.122 12.376.325 2.064.641 4.138.927 6.212.138 1.037.277 2.074.395 3.121.099 1.076.266 2.024.168 3.269a65.736 65.736 0 0 0-1.036 6.143c-.119 1.007-.247 2.104-.217 3.003l.197 3.15.691 12.533 2.486 50.143 2.279 50.152c.365 8.356.75 16.711 1.194 25.067.415 8.355.77 16.72 1.618 25.036-1.292-8.276-1.835-16.641-2.575-24.977a2366.602 2366.602 0 0 1-1.736-25.047c-1.066-16.701-1.865-33.422-2.724-50.142-.7-16.721-1.46-33.442-2.032-50.172l-.425-12.544-.128-3.111c-.02-1.195.148-2.182.286-3.239.306-2.074.681-4.178 1.194-6.193.089-.849 0-1.985-.079-2.992a108.909 108.909 0 0 0-.286-3.111 338.438 338.438 0 0 0-.71-6.232l-1.609-12.445Z"/>
    <path fill="#213B74" d="M495.001 85.212c-19.082 16.84-36.814 35.309-38.284 44.82-2.042 13.175 6.019 16.918 9.65 16.997 9.887.207 28.309-39.713 34.732-54.953 6.236-14.804-1.904-10.557-6.088-6.864h-.01Z"/>
    <path fill="#fff" d="M493.275 102.457a1.567 1.567 0 0 1-1.569-1.57 1.949 1.949 0 0 0-1.944-1.946h-1.224v.376h1.224c.858 0 1.559.701 1.559 1.57 0 1.077.868 1.956 1.954 1.956h1.144v-.386h-1.144Zm-14.613 30.607a1.567 1.567 0 0 1-1.569-1.57 1.951 1.951 0 0 0-1.954-1.946h-1.214v.386h1.214c.868 0 1.569.691 1.569 1.56 0 1.077.868 1.956 1.954 1.956h1.144v-.386h-1.144Zm-14.614-7.259a1.576 1.576 0 0 1 0-2.222c.365-.365.573-.859.573-1.383 0-.523-.208-1.007-.573-1.372l-.868-.87-.266.277.868.859c.602.613.602 1.6 0 2.222a1.933 1.933 0 0 0 0 2.756l.809.81.266-.267-.809-.81Zm4.687 14.874-.858.859c-.602.613-1.599.613-2.22 0a1.947 1.947 0 0 0-2.753 0l-.809.81.266.267.809-.81a1.59 1.59 0 0 1 2.22 0 1.95 1.95 0 0 0 1.382.573c.523 0 1.006-.208 1.371-.573l.869-.859-.277-.267Zm11.949-27.92-.858.859a1.572 1.572 0 0 1-2.22 0 1.945 1.945 0 0 0-2.753 0l-.809.81.266.276.809-.82a1.59 1.59 0 0 1 2.22 0c.76.771 1.993.761 2.753 0l.859-.859-.267-.266Z"/>
    <path fill="#0087FF" d="M501.089 92.086c-6.413 15.239-24.845 55.17-34.732 54.953-.612 0-1.361-.139-2.161-.386l38.403-64.68c1.204.859 1.194 3.693-1.5 10.113h-.01Z" opacity=".1"/>
    <path fill="#0087FF" d="M540.982 145.389c-.118.148-54.812-.75-55.344-1.284-.198-.197 5.15-48.503 12.56-60.493 3.059-4.938 11.565-7.486 17.386-.108 17.929 22.735 25.546 61.697 25.398 61.885Z"/>
    <path fill="#fff" d="M509.901 127.383a1.567 1.567 0 0 1-1.569-1.57 1.953 1.953 0 0 0-1.954-1.956h-1.214v.385h1.214c.868 0 1.569.701 1.569 1.571a1.95 1.95 0 0 0 1.954 1.945h1.144v-.375h-1.144Zm-16.626-24.928c-.434 0-.829-.178-1.105-.464-.03.138-.06.286-.099.424.326.267.74.415 1.204.415h1.144v-.385h-1.144v.01Zm2.447 35.595a1.563 1.563 0 0 1 0-2.213c.365-.375.572-.869.572-1.383 0-.513-.207-1.007-.572-1.372l-.869-.869-.266.266.858.869c.612.603.612 1.6 0 2.213a1.963 1.963 0 0 0 0 2.765l.819.81.267-.267-.809-.819Zm11.297-27.763a1.582 1.582 0 0 1 0-2.212 1.95 1.95 0 0 0 0-2.756l-.858-.869-.266.276.858.86c.612.602.612 1.6 0 2.222a1.95 1.95 0 0 0 0 2.755l.809.81.276-.266-.819-.82Zm29.355 25.096a1.574 1.574 0 0 1 0-2.222 1.95 1.95 0 0 0 0-2.756l-.868-.859-.267.267.859.859c.612.612.612 1.61 0 2.222a1.95 1.95 0 0 0 0 2.756l.819.809.266-.266-.809-.81Zm-27.351 8.938-.583.583h.533l.316-.316-.266-.277v.01Zm-5.26.474c.563.02 1.135.03 1.707.04a1.987 1.987 0 0 0-1.707-.04Zm24.372-39.92-.631.632.266.266.523-.523-.158-.375Zm-7.163 29.036v1.146c0 .869-.701 1.57-1.569 1.57a1.95 1.95 0 0 0-1.954 1.946v1.225h.385v-1.225c0-.869.7-1.561 1.569-1.561a1.957 1.957 0 0 0 1.943-1.955v-1.146h-.374Zm-27.914-17.659v1.146c0 .869-.701 1.57-1.569 1.57a1.95 1.95 0 0 0-1.944 1.956v1.215h.375v-1.215c0-.869.7-1.571 1.569-1.571a1.952 1.952 0 0 0 1.953-1.955v-1.146h-.384Zm13.685-31.713v1.146c0 .869-.7 1.57-1.569 1.57-1.065 0-1.943.87-1.943 1.946v1.224h.374v-1.224c0-.86.701-1.56 1.569-1.56a1.959 1.959 0 0 0 1.954-1.956v-1.146h-.385Zm17.218 30.568v1.145c0 .869-.7 1.571-1.569 1.571a1.952 1.952 0 0 0-1.953 1.955v1.215h.385v-1.215c0-.869.7-1.57 1.568-1.57a1.95 1.95 0 0 0 1.944-1.956v-1.145h-.375Zm-4.193-15.21a1.567 1.567 0 0 1-1.569-1.57 1.953 1.953 0 0 0-1.954-1.956h-1.213v.385h1.213c.869 0 1.569.701 1.569 1.57a1.96 1.96 0 0 0 1.954 1.956h1.144v-.385h-1.144Z"/>
    <path fill="#0087FF" d="M517.34 83.573c17.761 13.975 35.226 38.113 35.354 51.604.128 13.333-4.509 12.039-5.832 11.95-8.041-.523-26.986-37.619-32.758-52.74-5.723-15.012-1.165-14.271 3.226-10.814h.01Z"/>
    <path fill="#fff" d="M541.347 121.202a1.567 1.567 0 0 1-1.569-1.57 1.951 1.951 0 0 0-1.944-1.955h-1.224v.385h1.224c.858 0 1.559.701 1.559 1.57a1.95 1.95 0 0 0 1.954 1.946h1.144v-.376h-1.144Zm-4.973 14.183a1.574 1.574 0 0 1 0-2.222 1.953 1.953 0 0 0 0-2.756l-.869-.859-.266.267.858.859c.612.612.612 1.61 0 2.222a1.953 1.953 0 0 0 0 2.756l.819.81.267-.267-.809-.81Zm-2.24-31.545-.859.859a1.58 1.58 0 0 1-2.22 0 1.945 1.945 0 0 0-2.753 0l-.809.81.267.267.809-.81c.602-.603 1.598-.603 2.22 0 .76.76 1.993.76 2.753 0l.858-.86-.266-.266Zm17.208 24.029a1.94 1.94 0 0 0-1.776 1.946v1.215h.385v-1.215c0-.85.681-1.541 1.519-1.561a8.659 8.659 0 0 0-.128-.385Zm-27.371-12.77v.711c.118.227.227.454.355.681 0-.079.02-.167.02-.246v-1.146h-.375Zm25.713 25.293v1.146c0 .869-.7 1.57-1.569 1.57a1.95 1.95 0 0 0-1.953 1.946v1.215h.385v-1.215c0-.869.7-1.57 1.568-1.57a1.948 1.948 0 0 0 1.944-1.946v-1.146h-.375Zm-29.907-40.503a1.568 1.568 0 0 1-1.569-1.57 1.952 1.952 0 0 0-1.953-1.956h-1.214v.386h1.214c.868 0 1.569.7 1.569 1.57 0 1.066.868 1.955 1.953 1.955h1.145v-.385h-1.145Z"/>
    <path fill="#263238" d="M536.176 136.717c-.927-1.679-1.894-3.339-2.792-5.037l-2.773-5.047c-1.825-3.368-3.69-6.726-5.456-10.124-1.845-3.367-3.602-6.765-5.358-10.172a254.057 254.057 0 0 1-2.585-5.136c-.868-1.709-1.658-3.457-2.467-5.205 1.224 3.645 2.783 7.17 4.401 10.657 1.628 3.486 3.404 6.893 5.18 10.301 1.845 3.368 3.7 6.736 5.664 10.034 1.963 3.299 3.976 6.578 6.186 9.719v.01Z"/>
    <path fill="#263238" d="M516.62 100.481c-.326-.632-.711-1.185-1.095-1.738-.198-.277-.395-.553-.602-.82-.208-.267-.405-.543-.652-.81.139.701.484 1.324.879 1.897.404.563.878 1.086 1.48 1.471h-.01Z"/>
    <path fill="#fff" d="M466.258 146.526c-2.24 0-4.322-1.037-6.019-2.993-3.157-3.634-4.558-9.896-3.651-16.355.494-3.536 3.612-12.839 6.345-19.802.612-3.398 1.875-9.491 3.562-12.356a59.21 59.21 0 0 0 .612-2.083c.651-2.252 1.381-4.8 2.082-5.887 1.273-1.985 6.463-7.96 8.9-7.96h.168c.503.06.838.257 1.026.602.385.692.138 2.005-.711 3.783l-.148.306.306-.138c.296-.138.592-.257.898-.375.306-.119.691-.168 1.155-.168.858 0 1.943.197 3.236.573 5.614-1.877 9.226-2.786 11.11-2.786.503 0 .869.07 1.095.198.415.247.494.701.484 1.027-.04 1.432-1.618 3.684-4.559 5.225l-.177.088.167.12c1.392.987 2.142 1.866 2.053 2.39-.207 1.263-.947 1.836-2.477 1.915h-.079l-.029.08a1.693 1.693 0 0 1-.375.611l-.306.346.444-.138a7.65 7.65 0 0 1 2.358-.375c1.233 0 2.191.326 2.279.78.109.543-.197.928-.858 1.758a24.912 24.912 0 0 0-2.417 3.536c-.533.938-.889 2.35-1.283 3.99-.642 2.607-1.441 5.856-3.365 8.414-1.085 1.442-2.733 4.553-3.621 6.272-6.887 17.748-11.041 28.454-17.169 29.284a7.04 7.04 0 0 1-1.006.069l-.03.049Zm16.922-54.972c-.325.168-.621.326-.868.425-.977.404-2.832 2.597-3.611 4.582-.395.998-.464 1.798-.208 2.39.395.89 2.447 1.966 4.401 1.966.602 0 1.135-.099 1.599-.306 1.105-.484 1.776-1.828 2.496-3.24.681-1.333 1.371-2.716 2.496-3.615.079-.059.158-.118.247-.177l.454-.307-.494.05c-.246.04-.513.059-.789.059-.987 0-2.181-.237-3.434-.691-.246-.09-.661-.316-1.144-.583a30.938 30.938 0 0 0-1.026-.553l-.06-.03-.059.03Z"/>
    <path fill="#213B74" d="M478.089 79.218h.148c.454.06.76.227.927.533.366.652.119 1.926-.71 3.674l-.286.613.612-.277c.315-.148.611-.267.888-.365.296-.109.671-.168 1.115-.168.848 0 1.924.187 3.197.573l.079.02.069-.03c5.525-1.867 9.127-2.775 11.001-2.775.592 0 .888.098 1.027.177.365.218.434.622.424.919-.04 1.392-1.589 3.605-4.49 5.116l-.355.187.326.237c1.332.948 2.082 1.798 2.003 2.272-.198 1.195-.898 1.738-2.358 1.817h-.158l-.06.158a1.76 1.76 0 0 1-.345.573l-.493.553-.967.148a4.81 4.81 0 0 1-.78.06c-.977 0-2.151-.237-3.394-.682-.237-.089-.651-.306-1.115-.573a32.024 32.024 0 0 0-1.036-.553l-.118-.06-.109.06c-.296.158-.602.316-.858.425-.997.415-2.891 2.647-3.681 4.642-.404 1.027-.473 1.866-.207 2.479.464 1.047 2.664 2.034 4.519 2.034.622 0 1.174-.108 1.648-.316 1.144-.503 1.825-1.856 2.555-3.298.671-1.324 1.362-2.697 2.467-3.576.069-.059.148-.108.227-.158l.059-.04.681-.473.859-.277a7.684 7.684 0 0 1 2.318-.365c1.263 0 2.092.345 2.161.681.089.464-.138.79-.838 1.66-.563.71-1.421 1.787-2.428 3.555-.542.948-.898 2.37-1.302 4.02-.642 2.597-1.441 5.837-3.345 8.375-1.085 1.452-2.743 4.563-3.641 6.311-6.868 17.698-11.002 28.375-17.07 29.195a6.82 6.82 0 0 1-.997.069c-2.2 0-4.252-1.018-5.93-2.953-3.137-3.605-4.519-9.837-3.631-16.257.494-3.526 3.612-12.82 6.345-19.822.602-3.368 1.865-9.452 3.542-12.296v-.02l.02-.03a80.43 80.43 0 0 0 .602-2.054c.641-2.242 1.371-4.78 2.062-5.847 1.263-1.965 6.404-7.9 8.801-7.9m0-.248c-2.585 0-7.834 6.193-9.008 8.02-.948 1.472-1.954 5.57-2.694 7.97-1.48 2.509-2.723 7.655-3.572 12.375-2.881 7.339-5.871 16.395-6.345 19.832-1.47 10.499 3.128 19.487 9.798 19.487.336 0 .681-.02 1.027-.07 6.176-.829 10.212-11.17 17.267-29.352.928-1.798 2.546-4.83 3.611-6.262 3.128-4.158 3.276-10.005 4.667-12.425 2.152-3.762 3.523-4.266 3.296-5.392-.108-.533-1.125-.88-2.407-.88-.75 0-1.589.12-2.388.376a1.98 1.98 0 0 0 .394-.652c1.421-.069 2.349-.572 2.586-2.024.098-.632-.75-1.55-2.102-2.509 4.085-2.143 5.516-5.62 4.075-6.469-.257-.148-.651-.217-1.154-.217-2.477 0-7.559 1.6-11.081 2.795-1.224-.366-2.358-.583-3.266-.583-.464 0-.868.06-1.204.178a11.8 11.8 0 0 0-.898.375c1.036-2.182 1.49-4.326-.414-4.563-.059 0-.119-.01-.178-.01h-.01Zm4.815 21.817c-1.855 0-3.897-1.017-4.292-1.896-.858-1.926 2.408-6.232 3.76-6.795.246-.099.542-.257.878-.434.907.464 1.756.987 2.18 1.135 1.253.455 2.457.702 3.474.702.286 0 .562-.02.819-.06-.099.07-.208.139-.296.218-2.359 1.886-2.911 5.935-4.964 6.834-.463.208-.996.296-1.549.296h-.01Z"/>
    <path fill="#0087FF" d="M467.166 146.91c-8.377-.434-10.735-8.543-11.248-15.269-.493-6.478 4.44-21.56 5.062-23.407l19.704 19.171c-.503 1.323-7.469 19.515-13.37 19.515h-.148v-.01Z"/>
    <path fill="#213B74" d="m461.029 108.46 19.507 18.973c-.691 1.817-7.499 19.358-13.232 19.358h-.138c-8.278-.435-10.627-8.484-11.13-15.151-.473-6.281 4.164-20.681 4.993-23.18Zm-.109-.454s-5.653 16.661-5.13 23.644c.532 6.983 2.96 14.943 11.366 15.378h.158c6.256 0 13.518-19.674 13.518-19.674l-19.902-19.358-.01.01Z"/>
    <path fill="#fff" d="M477.093 131.493a1.951 1.951 0 0 0-1.954-1.946h-1.214v.385h1.214a1.56 1.56 0 0 1 1.569 1.561 1.95 1.95 0 0 0 1.579 1.916c.059-.129.118-.247.167-.376a1.548 1.548 0 0 1-1.361-1.54Zm-13.045-5.689a1.576 1.576 0 0 1 0-2.222c.365-.366.573-.86.573-1.383s-.208-1.007-.573-1.373l-.868-.869-.266.277.868.859c.602.612.602 1.6 0 2.222-.77.76-.77 1.995 0 2.756l.809.809.266-.266-.809-.81Zm4.687 14.874-.858.859c-.602.612-1.599.612-2.22 0a1.947 1.947 0 0 0-2.753 0l-.809.81.266.267.809-.81a1.588 1.588 0 0 1 2.22 0 1.95 1.95 0 0 0 1.382.573c.523 0 1.006-.208 1.371-.573l.869-.86-.277-.266Z"/>
    <path fill="#263238" d="M474.389 140.775c.72-1.017 1.362-2.084 1.983-3.16.632-1.067 1.204-2.173 1.767-3.279a48.002 48.002 0 0 0 1.539-3.398c.464-1.155.898-2.331 1.154-3.555-.523 1.126-1.085 2.232-1.638 3.338l-1.667 3.309c-.543 1.116-1.095 2.222-1.608 3.348-.523 1.126-1.046 2.252-1.51 3.407l-.02-.01Z"/>
    <path fill="#213B74" d="M476.54 130.742c-.967-1.056-2.023-2.044-3.049-3.051a145.876 145.876 0 0 0-3.118-2.973 497.134 497.134 0 0 0-6.344-5.827 131.195 131.195 0 0 0-1.766-1.561c-.632-.553-1.342-1.027-1.974-1.58-.049-.04-.118.03-.069.079.503.494.947 1.057 1.441 1.551.513.523 1.046 1.027 1.569 1.53 1.036.988 2.082 1.976 3.127 2.953a251.997 251.997 0 0 0 6.365 5.808c1.223 1.066 2.417 2.183 3.7 3.18.079.059.158-.039.098-.109h.02Zm17.485-41.65c-1.421-2.42-4.598-3.733-7.756-4.78-.049-.02-.079.059-.029.079.809.266 5.95 2.696 7.745 4.74.02.02.05-.01.04-.04Z"/>
    <path fill="#213B74" d="M491.617 91.948c.72-.157 1.51-.365 2.052-.908.227-.227.405-.514.474-.83a1.59 1.59 0 0 0 .02-.523c-.02-.158-.059-.405-.198-.504-.039-.03.02-.079.04-.04.049.09.128.168.187.248a1.298 1.298 0 0 1 .198.75 1.67 1.67 0 0 1-.415 1.037c-.592.692-1.49.86-2.358.82-.039 0-.039-.05 0-.06v.01Zm-12.886-8.522c-.602.74-1.115 1.64-1.638 2.43-.493.75-1.066 1.5-1.441 2.32-.375.82-.552 1.709-.641 2.608-.049.444-.069.879-.069 1.323 0 .484.03.968.01 1.452 0 .05.079.06.079 0 .049-.87.207-1.768.375-2.627a11.4 11.4 0 0 1 .819-2.608c.759-1.649 1.904-3.269 2.97-4.928.039-.06-.415-.03-.454.02l-.01.01Z"/>
    <path fill="#213B74" d="M477.103 94.476c.325-.494.434-.662.77-1.145.335-.484.67-.959 1.036-1.413.315-.395.621-.83 1.065-1.096.424-.257.928-.316 1.411-.267 1.105.119 2.092.83 3.019 1.373 1.037.612 3.197 1.61 4.855 1.452.454-.04.908-.119 1.312-.346.267-.148.622-.326.79-.622.73-1.215-.148-2.617-1.066-3.615-1.697-1.856-3.986-3.22-6.206-4.335-.543-.277-1.095-.534-1.648-.8-.632-.297-.947-.564-1.668-.573-1.154-.02-1.381.187-1.726.533-.04.04-.346-.158-.316-.198.395-.464.523-.81 2.378-.7.681.039 1.312.394 1.934.67.641.287 1.283.593 1.914.92 1.224.631 2.417 1.323 3.523 2.133 1.046.77 2.17 1.659 2.871 2.775.612.968.779 2.33.168 3.328-.513.84-1.609 1.037-2.102 1.097a5.655 5.655 0 0 1-1.47-.03c-.513-.08-2.388-.642-3.177-.968-1.007-.415-1.905-1.106-2.941-1.432-.493-.158-1.036-.168-1.509.079-.435.237-.8.662-1.135 1.017-.77.79-1.273 1.304-1.905 2.212-.148.218-.305.149-.167-.059l-.01.01Zm-2.132-.079c-.217 1.52.227 3.061.76 4.464.286.71.612 1.402.997 2.064.384.672.848 1.304 1.292 1.886.898 1.176 1.688 2.381 2.27 3.724.572 1.333.927 2.775 1.174 4.266.099-1.501-.03-3.042-.513-4.513-.464-1.472-1.283-2.825-2.181-4.03a21.162 21.162 0 0 1-2.338-3.713c-.632-1.324-1.283-2.657-1.451-4.158l-.01.01Z"/>
    <path fill="#fff" d="M502.421 91.941c-.079 0-.157 0-.236-.01-2.832-.286-2.97-6.064-2.901-8.533v-.138c.019-.297.01-.593-.03-.909-.424-3.348-2.033-7.2-2.338-7.91l12.639-4.93c.247 1.769.642 3.843 1.214 6.332.276 1.185.552 2.281.789 3.239.395 1.57.73 2.923.681 3.111-1.608 4.168-6.749 9.758-9.818 9.758v-.01Z"/>
    <path fill="#213B74" d="M509.447 69.678c.247 1.728.641 3.763 1.194 6.192.276 1.185.552 2.292.789 3.24.365 1.451.711 2.824.681 3.022-1.589 4.138-6.68 9.679-9.699 9.679-.079 0-.158 0-.227-.01-2.802-.277-2.842-6.499-2.783-8.425v-.109a5.09 5.09 0 0 0-.029-.938c-.405-3.21-1.895-6.874-2.299-7.832l12.373-4.82Zm.197-.346-12.896 5.027s1.904 4.287 2.378 8c.039.306.039.603.03.889v.148c-.05 1.699-.109 8.346 3.009 8.652.079 0 .168.01.257.01 3.246 0 8.367-5.788 9.926-9.837.108-.287-.671-3.032-1.46-6.41-.474-2.054-.948-4.356-1.234-6.479h-.01Z"/>
    <path fill="#263238" d="M499.165 83.246v.138c.425 0 .888-.03 1.382-.099 7.696-1.204 8.249-10.903 8.239-13.61l-3.227 1.255-8.801 3.437s1.914 4.286 2.378 8c.039.306.049.602.029.889v-.01Z"/>
    <path fill="#fff" stroke="#213B74" stroke-miterlimit="10" stroke-width=".5" d="M513.275 61.796c-.671-.316-1.421-.04-2.121.464.128-3.368-.119-6.48-.829-8.237-2.763-6.835-12.729-8.87-17.929-4.277-3.532 3.121-5.545 21.284-1.391 26.667 4.292 5.56 12.275 4.434 16.784-.445.927-.997 1.687-2.933 2.25-5.274.335-.01.71-.099 1.124-.286 2.309-1.047 4.214-7.654 2.122-8.622l-.01.01Z"/>
    <path fill="#213B74" d="M498.376 65.766s.069.049.069.088c-.089.939-.04 2.035.789 2.4.03.01.02.06-.01.05-1.026-.217-1.085-1.67-.848-2.538Z"/>
    <path fill="#213B74" d="M499.284 64.836c1.519-.02 1.44 3.032.029 3.042-1.391.01-1.302-3.032-.029-3.042Zm-6.355.609s-.079.04-.079.08c0 .947-.148 2.024-1.006 2.32-.03 0-.03.06 0 .05 1.046-.119 1.233-1.56 1.075-2.45h.01Z"/>
    <path fill="#213B74" d="M492.11 64.44c-1.509-.159-1.717 2.883-.315 3.032 1.381.138 1.578-2.904.315-3.032Zm8.723-1.827c-.425-.07-.8-.208-1.214-.326-.464-.129-.849-.188-1.174-.563-.178-.208-.138-.593.039-.79.424-.435 1.026-.425 1.589-.287.612.148 1.046.415 1.43.909.375.484-.128 1.146-.68 1.057h.01Zm-9.946-.74c.424-.06.809-.178 1.213-.287.464-.109.849-.158 1.184-.523.178-.198.158-.593-.019-.79-.405-.455-1.017-.455-1.579-.346a2.348 2.348 0 0 0-1.46.86c-.385.463.088 1.155.651 1.076l.01.01Zm8.772 11.87c-.218.227-.435.533-.78.573-.326.04-.72-.1-1.016-.218-.03-.01-.059.02-.04.05.257.355.77.573 1.214.484.424-.09.631-.465.72-.85.01-.059-.059-.069-.089-.04h-.009Zm-1.066-2.805a3.21 3.21 0 0 1-2.112 1.481 3.77 3.77 0 0 1-1.154.08c-.079 0-.148 0-.217-.02a.808.808 0 0 1-.207-.03c-.109-.01-.178-.099-.198-.207v-.198c-.039-.73 0-1.837 0-1.837-.266.138-1.598.78-1.588.405.108-3.15.237-6.647 1.016-9.758.02-.108.178-.079.178.02.01 3.032-.513 6.044-.543 9.086.424-.178 1.125-.494 1.51-.494.108.03-.119 2.134-.079 2.46v.03c1.223.128 2.131-.267 3.295-1.117.069-.059.148 0 .089.08l.01.019Z"/>
    <path fill="#0087FF" d="M494.419 54.288c.957 1.55 2.635 2.539 4.46 2.539 1.786 0 3.7-.919 4.598-2.5.03-.049.099 0 .069.04-.957 1.69-2.664 2.944-4.667 2.894-1.884-.05-3.729-1.215-4.578-2.904-.039-.078.069-.138.109-.069h.009Z"/>
    <path fill="#213B74" d="M501.208 43.87c2.249-.276 4.479 1.117 5.506 3.092.621 1.195.828 2.48.799 3.813 0 .049-.079.059-.089 0-.079-2.104-1.056-4.356-2.832-5.57-1.697-1.156-3.818-1.275-5.525-.07-.888.632-1.569 1.56-1.865 2.617-.03.119-.208.07-.188-.049.425-2.015 2.141-3.585 4.184-3.832h.01Z"/>
    <path fill="#0087FF" d="M484.167 46.527c.681-1.333 1.855-2.38 3.227-2.943 1.924-.8 3.878-.316 5.802.208.049.01.029.098-.02.079-1.648-.435-3.335-.78-5.003-.247-1.361.434-2.575 1.333-3.345 2.548-1.598 2.509-1.046 6.025 1.273 7.891a6.218 6.218 0 0 0 4.746 1.284c.069-.01.099.089.03.099-3.059.553-6.246-1.324-7.104-4.356-.425-1.491-.316-3.17.394-4.553v-.01Z"/>
    <path fill="#213B74" d="M510.976 57.054s.365-4.246-.542-5.688c-.908-1.452-3.276-2.094-3.276-2.094s-.888-3.773-4.253-4.494c-3.019-.652-5.466 1.738-5.466 1.738s-3.612-4.8-8.772-3.12c-4.904 1.6-5.338 8.651-1.224 11.525 2.881 2.015 7.568-.079 7.568-.079.395.119 4.174 3.299 7.924.07 0 0 2.526 2.646 4.4 1.323 0 0 2.043 1.363 3.641.82Z"/>
    <path fill="#263238" d="M510.582 67.986c-.898-1.205-2.211-4.79-2.842-6.38-.671-1.65-.306-8.336-.099-11.329 1.155 1.008 2.092 2.262 2.684 3.743 1.105 2.756 1.095 8.8.247 13.966h.01Z" opacity=".2"/>
    <path fill="#fff" d="M508.381 65.49s2.802-4.661 4.904-3.683c2.092.968.187 7.585-2.122 8.622-2.308 1.047-3.315-1.077-3.315-1.077l.533-3.861Z"/>
    <path fill="#263238" d="M512.683 63.684s.049.049.02.059c-1.619.79-2.388 2.39-2.892 4.03.454-.652 1.106-1.028 1.964-.504.049.03 0 .099-.039.089-.691-.1-1.175.049-1.599.632-.296.405-.483.908-.691 1.373-.069.158-.345.088-.296-.08 0-.01 0-.03.01-.039-.187-2.114 1.263-5.195 3.523-5.56Z"/>
    <path fill="#37474F" d="m507.996 119.94-2.585-27.832-1.697-1.373-38.146-.227.888 26.469 1.697 1.363 39.843 1.6Z"/>
    <path fill="#455A64" d="m506.299 118.566-2.585-27.831-39.843-1.59 2.585 27.831 39.843 1.59Z"/>
    <path fill="#fff" d="M481.098 102.417c.513-1.107 1.993-1.62 3.306-1.166 1.312.464 1.963 1.728 1.44 2.825-.513 1.106-1.993 1.619-3.305 1.165-1.312-.464-1.964-1.728-1.441-2.824Zm66.278 44.651c-4.648 0-10.4-3.032-23.681-12.494-4.815-1.61-10.213-4.395-14.071-12.977l-.039-.079h-.089s-3.118.385-6.502.385c-3.779 0-8.397-.454-8.969-2.647a1.261 1.261 0 0 1 .157-1.027c.553-.909 2.211-1.669 4.934-2.262l-.039-.247c-1.165.089-2.24.129-3.188.129-3.463 0-5.476-.593-5.821-1.709-.444-1.452.819-2.667 3.759-3.605l.908-.286-.947.049c-.484.03-.967.04-1.431.04-3.404 0-5.23-.721-5.427-2.144-.306-2.163 3.138-3.338 6.078-3.94l-.029-.247h-.543c-2.595 0-4.263-.356-4.934-1.057a1.126 1.126 0 0 1-.335-.889c.138-3.378 10.074-5.452 17.139-5.452 1.243 0 2.319.07 3.197.198 2.585.375 9.186 1.718 14.741 5.965 1.678 1.274 3.77 3.447 6.227 6.459 5.446 3.882 14.287 10.42 15.037 11.131 6.512 6.203 8.308 19.951 6.769 24.741-.257.79-.73 1.758-1.559 1.876a9.807 9.807 0 0 1-1.313.089h-.029Z"/>
    <path fill="#213B74" d="M504.296 96.74c1.234 0 2.309.068 3.177.197 2.576.375 9.147 1.718 14.693 5.945 1.667 1.274 3.759 3.437 6.206 6.44l.02.029.029.02c5.694 4.049 14.327 10.469 14.998 11.101 6.483 6.173 8.269 19.842 6.73 24.612-.247.761-.701 1.689-1.461 1.788a9.437 9.437 0 0 1-1.302.089c-4.608 0-10.351-3.032-23.602-12.474l-.03-.02h-.039c-4.756-1.6-10.134-4.365-13.962-12.908l-.079-.168-.178.019s-3.108.376-6.482.376c-5.358 0-8.417-.879-8.851-2.558a1.146 1.146 0 0 1 .138-.929c.533-.859 2.21-1.629 4.854-2.202l-.069-.484c-1.164.089-2.23.128-3.187.128-3.404 0-5.377-.563-5.703-1.619-.424-1.373.819-2.539 3.681-3.457l1.805-.583-1.894.099c-.503.03-.977.039-1.431.039-3.325 0-5.111-.681-5.308-2.034-.296-2.064 3.088-3.21 5.979-3.803l-.049-.483h-.543c-3.187 0-4.391-.563-4.845-1.028a1.052 1.052 0 0 1-.306-.8c.139-3.298 9.996-5.333 17.011-5.333Zm0-.248c-6.7 0-17.109 1.946-17.257 5.57-.069 1.61 2.447 2.084 5.397 2.084h.543c-3.424.702-6.483 1.926-6.177 4.079.247 1.699 2.615 2.242 5.555 2.242.464 0 .947-.01 1.441-.039-2.536.81-4.381 2.005-3.839 3.763.425 1.373 2.96 1.797 5.94 1.797 1.036 0 2.132-.049 3.197-.128-2.989.652-5.634 1.718-5.18 3.437.582 2.222 5.072 2.736 9.088 2.736a60.59 60.59 0 0 0 6.512-.376c4.055 9.047 9.867 11.615 14.11 13.027 12.61 8.978 18.866 12.514 23.75 12.514.454 0 .898-.03 1.332-.089 4.036-.553 2.634-19.427-5.131-26.825-.73-.691-9.512-7.209-15.018-11.12-1.865-2.292-4.223-4.929-6.246-6.479-5.525-4.218-12.037-5.58-14.8-5.995-.888-.129-1.993-.198-3.217-.198Z"/>
    <path fill="#213B74" d="M506.99 102.764c-1.825-.03-3.671-.079-5.486.059a59.788 59.788 0 0 0-5.437.622c-4.41.741-7.055 1.887-6.887 1.837 4.045-1.264 10.548-1.837 12.373-1.965 1.816-.128 3.621-.356 5.437-.484.049 0 .039-.069 0-.069Zm.592 6.556c-2.329.06-4.638.04-6.966.198-2.319.168-4.5.523-6.799.839-.177.03-.108.109.07.099 2.308-.227 4.459-.267 6.768-.464 2.299-.207 4.618-.494 6.927-.612.039 0 .03-.06 0-.06Zm1.519 5.553c-3.562-.089-7.134.484-10.627 1.126-.177.03-.069.138.109.109 3.523-.445 6.295-.81 10.518-1.116.069 0 .079-.119 0-.129v.01Z"/>
    <path fill="#0087FF" d="m531.924 110.469-7.578 27.654s20.346 11.99 24.836 8.819c4.489-3.17 1.559-19.14-3.533-25.234-2.121-2.538-13.725-11.239-13.725-11.239Z"/>
    <path fill="#fff" d="M549.675 140.392v1.145c0 .869-.701 1.571-1.569 1.571a1.95 1.95 0 0 0-1.954 1.945v1.215h.385v-1.215c0-.869.701-1.57 1.569-1.57a1.948 1.948 0 0 0 1.944-1.946v-1.145h-.375Zm-.099-10.894c-.02.099-.029.207-.029.316v1.215h.384v-.366c-.118-.385-.227-.77-.355-1.155v-.01Zm-13.212 5.886a1.574 1.574 0 0 1 0-2.222 1.95 1.95 0 0 0 0-2.756l-.868-.859-.267.267.859.859c.612.612.612 1.61 0 2.222a1.95 1.95 0 0 0 0 2.756l.819.81.266-.267-.809-.81Zm4.973-14.182a1.568 1.568 0 0 1-1.569-1.571 1.95 1.95 0 0 0-1.943-1.955h-1.224v.385h1.224c.858 0 1.559.701 1.559 1.57a1.95 1.95 0 0 0 1.953 1.946h1.145v-.375h-1.145Z"/>
    <path fill="#263238" d="m531.667 111.386.296-.909-.078.03c1.924 1.57 3.848 3.131 5.752 4.711 1.914 1.57 3.809 3.161 5.614 4.84.898.839 1.816 1.679 2.586 2.607.779.938 1.44 1.965 2.052 3.032 1.194 2.143 1.983 4.504 2.457 6.943a19.635 19.635 0 0 0-1.983-7.19 17.58 17.58 0 0 0-2.023-3.18c-.799-.998-1.707-1.857-2.605-2.716-1.845-1.679-3.769-3.249-5.733-4.77-1.983-1.502-3.986-2.973-6.048-4.346l-.06-.04v.07l-.217.938-.01-.02Zm4.707 5.944c-.464 1.353-.819 2.766-1.204 4.148a211.019 211.019 0 0 0-1.105 4.168c-.7 2.785-1.391 5.57-2.042 8.375-.178.761-.355 1.531-.523 2.302-.178.819-.247 1.669-.434 2.488-.01.06.079.089.098.02.188-.681.464-1.333.671-2.015.208-.701.395-1.412.583-2.113.365-1.393.73-2.775 1.085-4.168.71-2.785 1.401-5.57 2.023-8.375.345-1.58.75-3.171.996-4.78.02-.099-.108-.129-.148-.03v-.02Zm-11.367 18.334c-.138.84-.325 1.679-.493 2.509l-.079-.208c1.194.662 2.408 1.264 3.611 1.906l3.622 1.877a336.46 336.46 0 0 0 7.311 3.654 36.151 36.151 0 0 1-3.888-1.333 47.357 47.357 0 0 1-3.749-1.669 60.53 60.53 0 0 1-7.104-4.109l-.129-.089.04-.128c.286-.8.552-1.61.858-2.41Z"/>
    <path fill="#9FD0FD" d="M162.698 394c80.276 0 145.352-5.607 145.352-12.524 0-6.916-65.076-12.523-145.352-12.523-80.276 0-145.352 5.607-145.352 12.523 0 6.917 65.076 12.524 145.352 12.524Z"/>
    <path fill="#213B74" d="m32.137 377.131 126.476.544c30.736-24.158 33.913-59.96 11.989-81.659-13.272-13.125-30.125-10.478-46.178-12.562h-.05c-5.594-.731-11.07-2.035-16.28-4.781-16.528-8.73-25.842-29.313-39.745-46.626a106.923 106.923 0 0 0-5.446-6.321c-11.436-12.217-34.19-12.612-46.09 4.563C-13.429 273.933.424 338.9 32.127 377.131h.01Z"/>
    <path fill="#9FD0FD" d="M29.335 277.271c3.315 51.94 63.238 71.327 100.664 55.772 32.541-13.531 21.895-44.405-5.575-49.57h-.049c-5.595-.731-11.071-2.035-16.281-4.78-16.527-8.731-25.842-29.313-39.745-46.627-20.71-10.765-41.451 7.19-39.024 45.224l.01-.019Z"/>
    <path fill="#fff" d="M152.772 386.172a.956.956 0 0 1-.326-.059c-3.108-1.097-50.283-38.617-50.993-40.553-.197-.543 1.539-3.911 10.962-16.849a691.349 691.349 0 0 1 4.233-5.738c8.89-11.941 18.669-24.524 19.626-25.758l31.999 24.711-20.514 25.066-4.568 5.59.039.069c.118.227 11.998 22.538 12.709 25.422.464 1.936-.395 5.412-1.766 7.16-.474.603-.967.919-1.411.919l.01.02Z"/>
    <path fill="#213B74" d="m136.313 297.391 31.802 24.552-20.435 24.968-4.519 5.531-.108.128.078.148c.119.228 11.999 22.519 12.699 25.393.464 1.906-.384 5.333-1.746 7.051-.454.573-.908.879-1.312.879a.96.96 0 0 1-.287-.049c-.967-.336-13.073-9.491-25.901-19.585-14.82-11.654-24.638-19.861-25.013-20.898-.138-.445 1.096-3.22 10.943-16.731a617.834 617.834 0 0 1 4.233-5.738c8.693-11.674 18.244-23.97 19.556-25.659m-.039-.346s-10.291 13.205-19.705 25.857a556.196 556.196 0 0 0-4.233 5.748c-6.314 8.671-11.337 15.99-10.982 16.958.938 2.577 48.951 39.89 51.063 40.631.118.04.246.059.365.059 1.993 0 3.966-5.471 3.295-8.237-.72-2.943-12.718-25.451-12.718-25.451l4.519-5.531 20.592-25.165-32.196-24.859v-.01Z"/>
    <path fill="#EBEBEB" d="M121.621 316.135c-1.667 2.212-3.374 4.504-5.062 6.755a519.81 519.81 0 0 0-4.242 5.739c-6.315 8.671-11.328 15.989-10.973 16.967.938 2.578 48.941 39.881 51.063 40.632 2.111.741 4.371-5.245 3.66-8.178-.72-2.933-12.728-25.451-12.728-25.451l4.519-5.531 4.598-5.62-30.835-25.323v.01Z"/>
    <path fill="#0087FF" d="M152.634 386.683c-2.142-.76-50.816-38.932-51.753-41.56-.434-1.214 7.242-11.91 15.58-23.021l31.732 24.74-4.617 5.6s12.107 22.953 12.817 25.945c.71 2.983-1.618 9.057-3.759 8.296Z"/>
    <path fill="#213B74" d="M153.462 384.187c-8.002-6.597-40.889-32.454-49.305-38.37-.069-.049-.099 0-.04.05 7.785 6.716 40.889 32.305 49.237 38.458.177.129.276 0 .108-.138Zm-7.311-32.663c-2.743-3.121-7.055-5.699-11.298-5.333-.167.01-.138.247-.009.296 3.946 1.482 7.41 3.161 10.982 5.442.256.158.523-.168.335-.395l-.01-.01Zm1.223 3.223c-2.743-3.121-7.055-5.699-11.297-5.333-.168.009-.139.246-.01.296 3.946 1.481 7.41 3.16 10.982 5.442.246.158.523-.168.325-.395v-.01Zm1.224 3.209c-2.743-3.121-7.055-5.709-11.298-5.343-.168.01-.138.247-.01.296 3.947 1.481 7.41 3.16 10.982 5.442.247.158.523-.168.326-.395Zm1.224 3.22c-2.743-3.12-7.055-5.698-11.298-5.333-.168.01-.138.247-.01.297 3.947 1.481 7.41 3.16 10.982 5.441.256.158.523-.167.335-.395l-.009-.01Z"/>
    <path fill="#213B74" d="M157.893 348.749c.098-2.726-2.862-3.793-5.082-3.714-3.601.119-7.726 1.482-10.706 3.487-.069.049-.059.128-.019.177-.178.247-.168.682.187.8 3.424 1.097 6.937 2.697 10.597 2.707 2.132 0 4.924-.87 5.023-3.447v-.01Zm-10.094 1.343c-1.697-.494-3.355-1.076-5.072-1.511 2.092-.672 4.144-1.432 6.295-1.896 1.026-.218 2.092-.425 3.138-.504 1.638-.119 6.867.998 3.542 4.079-1.835 1.699-5.89.435-7.913-.158l.01-.01Z"/>
    <path fill="#213B74" d="M134.606 341.273c1.767 3.2 4.845 5.531 7.45 8.01.266.257.651.069.789-.217.069.02.138 0 .148-.099.326-3.575-.454-7.852-2.072-11.071-.996-1.986-3.345-4.079-5.693-2.687-2.22 1.324-1.648 4.198-.622 6.064Zm.346-3.427c1.105-4.395 4.588-.336 5.269 1.156.434.958.759 1.995 1.065 3.002.632 2.114.948 4.287 1.352 6.44-1.204-1.294-2.506-2.479-3.759-3.734-1.49-1.491-4.539-4.444-3.927-6.874v.01Z"/>
    <path fill="#455A64" d="M201.673 272.472c-2.21 16.75-43.444 65.095-48.21 70.646-.701.82-1.086 1.264-1.086 1.264l-34.11-26.242.395-.503 30.035-39.368s-49.67 29.007-74.526 15.842c-11.16-5.916-19.428-16.424-19.428-16.424l32.433-17.314s8.979 2.904 14.712 2.064c19.773-2.893 64.076-19.733 74.595-19.308 13.557.563 27.213 13.975 25.19 29.343Z"/>
    <path fill="#263238" d="M159.482 263.63c-1.165 1.186-2.092 2.657-3.099 3.971-1.065 1.392-2.141 2.775-3.197 4.168-.009.01-.019.029-.029.039.187-.405.375-.82.572-1.225.671-1.382 1.204-2.824 1.993-4.148.05-.079-.079-.158-.128-.079-.809 1.314-1.756 2.568-2.457 3.951a36.891 36.891 0 0 0-.927 1.985c-.158.366-.316.731-.464 1.106-.069.168-.148.356-.197.534a69.132 69.132 0 0 0-1.402 1.955c-1.006 1.462-1.904 3.012-2.93 4.474-.059.079.069.148.128.079 1.036-1.363 2.201-2.647 3.256-4a98.879 98.879 0 0 0 3.089-4.237c.977-1.392 1.944-2.805 2.92-4.207.987-1.412 2.151-2.795 2.951-4.316.029-.05-.04-.119-.089-.069l.01.019Zm-3.612 72.642c-1.874-1.738-3.887-3.348-5.861-4.968a722.136 722.136 0 0 0-5.979-4.849c-4.006-3.21-7.993-6.449-12.038-9.6-2.22-1.728-4.47-3.447-6.779-5.057-.098-.069-.217.089-.128.178 3.789 3.457 7.834 6.607 11.841 9.807 4.006 3.21 8.031 6.41 12.087 9.551 2.22 1.718 4.43 3.496 6.749 5.076.089.06.197-.079.118-.158l-.01.02Z"/>
    <path fill="#213B74" d="M43.05 201.587a2.898 2.898 0 0 0-1.145 3.032 2.919 2.919 0 0 0 3.286 2.222c-.069.395-.059.82.04 1.235a3.209 3.209 0 0 0 3.562 2.459c-.05.336-.04.681.04 1.037a2.934 2.934 0 0 0 3.512 2.192 2.903 2.903 0 0 0 1.628-1.037 2.911 2.911 0 0 0 4.549 1.423c0 .088.03.177.049.256a2.914 2.914 0 0 0 3.503 2.183 2.885 2.885 0 0 0 2.032-1.728 2.88 2.88 0 0 0 3.286 1.609 2.92 2.92 0 0 0 2.151-2.034 3.288 3.288 0 0 0 2.121.227 3.161 3.161 0 0 0 2.013-1.471 3.16 3.16 0 0 0 2.418.404 3.198 3.198 0 0 0 2.477-2.953c.364.06.75.05 1.144-.039 1.44-.336 2.398-1.689 2.25-3.121.444.099.927.109 1.41 0a3.223 3.223 0 0 0 2.418-3.862 3.05 3.05 0 0 0-.404-.968c.167 0 .335-.019.503-.059a2.917 2.917 0 0 0 2.19-3.496 2.902 2.902 0 0 0-.77-1.393 3.204 3.204 0 0 0 2.122-3.763 3.092 3.092 0 0 0-.858-1.54 3.226 3.226 0 0 0 1.361-3.418 3.184 3.184 0 0 0-1.786-2.182 2.907 2.907 0 0 0 .444-2.311 2.85 2.85 0 0 0-1.44-1.897c.621-.74.898-1.758.66-2.775a3.206 3.206 0 0 0-2.88-2.479c.118-.444.138-.928.02-1.402a2.919 2.919 0 0 0-3.118-2.252 3.117 3.117 0 0 0 0-1.383 3.214 3.214 0 0 0-3.849-2.41 3.32 3.32 0 0 0-.7.257c0-.168-.04-.336-.08-.513a3.216 3.216 0 0 0-3.847-2.41 2.46 2.46 0 0 0-.75.286c.03-.296 0-.602-.07-.909a3.216 3.216 0 0 0-3.867-2.409 3.174 3.174 0 0 0-2.043 1.511 3.156 3.156 0 0 0-3.029-.909 3.173 3.173 0 0 0-1.963 1.373 2.891 2.891 0 0 0-3.217-1.462 2.906 2.906 0 0 0-2.112 1.916 2.916 2.916 0 0 0-2.427-.513c-1.253.286-2.111 1.343-2.24 2.558a3.124 3.124 0 0 0-2.555-.494 3.22 3.22 0 0 0-2.497 3.21c-.345-.05-.71-.04-1.065.039a2.922 2.922 0 0 0-2.181 3.506c.079.356.217.682.414.958-.069 0-.128.02-.187.03a3.22 3.22 0 0 0-2.408 3.871c.07.307.188.613.346.87a2.577 2.577 0 0 0-.78.069 2.91 2.91 0 0 0-2.18 3.496c.177.78.67 1.432 1.312 1.827a2.913 2.913 0 0 0-.898 2.835c.178.77.651 1.402 1.273 1.807a3.21 3.21 0 0 0-1.53 3.506 3.198 3.198 0 0 0 2.763 2.459 2.874 2.874 0 0 0-.799 2.716 2.957 2.957 0 0 0 2.368 2.232l.01-.019Z"/>
    <path fill="#774442" d="M69.948 226.665c6.068 8.731 26.888 31.378 41.284 34.657 7.933 1.807 46.266 7.18 51.516 2.39 6.157-5.6 3.295-26.726-1.589-26.923-14.929-.583-42.557 2.34-49.464.81-3.118-.692-19.665-11.368-37.337-19.921-6.68-3.23-8.327 3.348-4.41 8.978v.009Z"/>
    <path fill="#263238" d="M146.092 237.834c0-.079-.129-.118-.138-.029-.435 2.172-.612 4.405-.859 6.597a322.581 322.581 0 0 0-.681 6.835c-.404 4.543-.888 9.116-1.026 13.678 0 .198.257.198.286 0 .681-4.474 1.046-9.027 1.471-13.54.207-2.232.414-4.474.572-6.716.158-2.272.404-4.563.375-6.844v.019Z"/>
    <path fill="#fff" d="M98.927 230.13c-3.384 6.558-7.479 12.78-11.06 17.758a5.098 5.098 0 0 0-.366-.326c3.563-4.968 7.638-11.161 10.992-17.679.148.079.296.158.434.247Zm4.145 2.31c-3.424 6.864-7.697 13.432-11.446 18.667a6.074 6.074 0 0 1-.375-.316c3.73-5.225 7.992-11.763 11.396-18.588.148.079.287.158.425.237Z"/>
    <path fill="#020100" d="M119.658 264.807c-5.95-.939-11.308-2.232-14.465-4.01-10.499-5.916-27.588-20.978-34.13-31.457-4.993-7.999-4.904-13.224 1.115-12.375l47.48 47.842Z" opacity=".1"/>
    <path fill="#0087FF" stroke="#213B74" stroke-miterlimit="10" stroke-width=".25" d="M111.725 236.925c-2.26-.543-19.487-10.883-32.255-17.323-3.72-1.876-6.532-2.716-8.496-2.716-3.75-1.748-7.272-1.452-10.44.227-15.678 8.336-21.362 68.128-21.362 68.128.918.296 13.834-3.161 27.046-6.835 13.755-.75 34.772-6.884 34.772-6.884l-9.64-20.641c4.933 4.118 9.867 7.674 13.843 9.916 10.499 5.906 45.28 6.459 45.28 6.459l2.565-31.624s-39.044 1.837-41.303 1.293h-.01Z"/>
    <path fill="#fff" d="M68.606 245.351c-5.536 3.763-11.85 6.983-17.761 9.58v-.533c5.88-2.597 12.166-5.807 17.642-9.55.05.168.079.335.119.503Zm1.144 4.809c-5.821 3.98-12.53 7.348-18.708 10.025l-.03-.534c6.158-2.666 12.828-6.034 18.6-9.995.05.178.099.346.138.504Z"/>
    <path fill="#213B74" d="M80.544 224.863c1.392 1.63 2.892 3.17 4.342 4.77-.671-1.185-1.342-2.38-2.052-3.545-.01-.02.02-.05.03-.03 1.045 1.393 2.002 2.825 2.752 4.385 1.066 1.215 2.092 2.469 2.99 3.822 1.085 1.62 1.983 3.358 2.467 5.255.473 1.896.473 3.891.167 5.817-.365 2.232-1.075 4.375-1.835 6.489-.099.276-.493.108-.424-.168 1.016-3.684 2.17-7.566 1.352-11.407-.81-3.793-3.187-7.013-5.486-10.025-1.392-1.817-2.803-3.644-4.411-5.264-.07-.069.05-.168.118-.089l-.01-.01Z"/>
    <path fill="#fff" stroke="#213B74" stroke-miterlimit="10" stroke-width=".25" d="M119.875 237.536c-12.857-.592-28.763 6.064-28.763 6.064-8.535 2.776-20.267 9.571-20.642 9.531-.838-.089-1.815-6.4-6.137-24.819-3.493-14.904-9.107-8.198-10.893 1.926-4.361 24.76-.82 43.446 3.384 45.747 10.163 5.561 28.822-2.696 38.058-6.222 4.509-.277 10.35-1.689 16.547-8.681 0 0 13.942 6.301 16.3 2.518.908-1.462-1.006-3.19-3.513-4.701 0 0-.01 0-.019-.01-.188-.109-.366-.217-.553-.326 4.036 1.61 8.486 2.864 9.63 1.195 1.076-1.57-.355-3.328-2.605-4.918 0 0 .01 0 .02-.01 3.463 1.274 6.7 1.827 7.588-.04.582-1.214-.138-2.489-1.48-3.684 0 0 .01 0 .02.01.029.02-.05-.049-.227-.197a17.19 17.19 0 0 0-1.757-1.274 42.506 42.506 0 0 0-3.739-2.222c4.173 1.353 9.077 2.409 9.679.207 1.165-4.326-16.527-9.906-20.888-10.104l-.01.01Z"/>
    <path fill="#fff" d="M87.896 233.923c-14.031 6.874-33.4 9.501-41.53 10.33.039-.168.088-.335.137-.503 8.19-.86 27.253-3.467 41.107-10.242.098.138.197.276.286.415Zm2.151 3.871c-14.9 8.138-37.426 10.874-44.964 11.595.03-.168.069-.346.118-.513 7.667-.741 29.927-3.487 44.639-11.536.078.158.148.306.207.454Z"/>
    <path fill="#0087FF" d="m88.221 243.456 13.005 27.831s-40.356 11.783-45.822 4.692c-5.477-7.092-5.092-29.393-2.527-44.82 2.566-15.426 9.502-15.723 12.542-1.777 3.039 13.945 4.825 22.755 5.367 22.676.543-.079 17.435-8.612 17.435-8.612v.01Z"/>
    <path fill="#213B74" d="M82.725 247.433c-.039-.069-.167-.04-.138.049.72 2.094 1.697 4.109 2.595 6.133a295.72 295.72 0 0 0 2.862 6.242c1.944 4.129 3.838 8.316 6.019 12.326.099.178.316.04.246-.138-1.667-4.208-3.65-8.326-5.564-12.425a345.78 345.78 0 0 0-2.892-6.084c-1.006-2.044-1.953-4.148-3.127-6.093v-.01Zm-3.049 29.206c-1.105-.03-2.289.375-3.374.563a71.844 71.844 0 0 1-3.503.543c-2.27.296-4.559.524-6.848.593-2.25.059-7.834-.277-9.541-1.837-1.5-1.363-2.556-3.516-2.92-5.027-.622-2.608-1.047-5.274-1.382-7.931-.71-5.64-.76-11.319-.533-16.997.06-1.581.158-3.151.276-4.731.119-1.6.306-3.21.355-4.82 0-.059-.098-.069-.108-.01-.582 2.538-.839 5.185-1.066 7.783-.098-1.63-.296-3.25-.315-4.879 0-.099-.148-.089-.148 0 .03 1.718-.09 3.427-.02 5.145.04.968.128 1.926.237 2.884a90.659 90.659 0 0 0-.178 6.548c.06 5.689.484 11.585 2.003 17.087.671 2.419 1.687 4.74 3.907 6.044 1.283.751 3.592 1.264 5.309 1.393 3.888.306 7.795-.02 11.623-.741a71.593 71.593 0 0 0 3.207-.672c.997-.227 2.151-.365 3.059-.839.05-.03.02-.099-.03-.099h-.01Zm8.26-33.472a928.073 928.073 0 0 0-8.9 4.494c-1.46.75-2.921 1.491-4.382 2.242-1.4.721-4.075 2.173-4.075 2.173-.03-.672-.542-2.618-.828-3.872a117.195 117.195 0 0 0-.977-4.089c-.09-.355-.188-.701-.287-1.057a130.47 130.47 0 0 0-.187-1.955c-.099-1.047-.188-2.124-.345-3.171 0-.039-.06-.039-.06 0-.108.998-.078 2.005.02 3.013a216.07 216.07 0 0 0-1.41-4.909c-.02-.059-.1-.029-.09.03a235.492 235.492 0 0 0 1.727 8.247c.306 1.323.642 2.647.987 3.96.335 1.274 1.056 4.257 1.174 4.217 1.53-.523 2.99-1.274 4.45-1.965a243.19 243.19 0 0 0 4.53-2.212c2.92-1.462 5.86-2.953 8.672-4.603 0 .02.434.919.464.958.079.119.168-.089.138-.217-.06-.227-.572-1.314-.641-1.284h.02Z"/>
    <path fill="#C7C7C7" d="M147.582 263.582H90.047v2.588h57.535v-2.588Z"/>
    <path fill="#A6A6A6" d="m102.351 263.582-1.963 2.588h47.194v-2.588h-45.231Z"/>
    <path fill="#C7C7C7" d="M104.818 266.17h56.065l4.677-38.123h-56.075l-4.667 38.123Z"/>
    <path fill="#fff" d="M131.775 247.109a3.348 3.348 0 0 0 3.355 3.417 3.488 3.488 0 0 0 3.473-3.417 3.349 3.349 0 0 0-3.355-3.418 3.487 3.487 0 0 0-3.473 3.418Z"/>
    <path fill="#fff" stroke="#213B74" stroke-miterlimit="10" stroke-width=".25" d="M165.096 231.73c2.111 3.27 7.331 7.082 8.051 9.887.651 2.528-1.361 3.713-1.361 3.713s3.019 1.037 3.256 3.694c.118 1.363-1.954 2.756-1.954 2.756s2.388.938 2.447 3.308c.049 1.887-2.033 2.993-2.033 2.993s1.865 1.965 1.303 3.911c-1.145 3.931-17.198 6.054-20.464.464-1.52-2.607 2.427-2.914 2.427-2.914s-5.782-.928-6.305-4.237c-.523-3.298 4.628-3.387 4.628-3.387s-5.595-.958-5.792-4.435c-.208-3.614 4.963-2.824 4.963-2.824s-3.888-1.946-3.434-4.642c.76-4.454 9.916.276 13.33-1.027l.928-7.26h.01Z"/>
    <path fill="#213B74" d="M173.197 258.306c.049-.01.079.059.029.079-5.111 1.985-11.327 2.597-16.665 1.205-.178-.05-.178-.346.029-.336 5.773.395 10.923.276 16.617-.948h-.01Zm-.03-6.51c.06-.01.089.089.02.109-5.279 2.015-12.304 2.518-18.264.178-.207-.079-.306-.356-.069-.287 4.075 1.254 13.192 1.116 18.303 0h.01Zm-19.27-7.435c5.802 2.025 11.663 1.975 17.682 1.067.078-.01.088.098.019.128-2.822 1.244-6.719 1.432-9.758 1.314-2.911-.109-5.526-.8-8.012-2.302-.099-.059-.05-.247.069-.207Z"/>
    <path fill="#fff" d="M72.01 225.768c-5.585 0-13.015-5.975-13.923-6.716.365-.445 2.102-2.4 4.973-3.22l.08-.02v-.079c.443-4.019 1.568-13.244 1.756-14.706l10.765 7.062-2.082 8.741v.079l.069.128c1.381.583 2.26 1.106 2.27 1.116-.02 0 1.736 2.943.808 5.185-.463 1.116-1.51 1.877-3.128 2.272a6.69 6.69 0 0 1-1.578.178l-.01-.02Z"/>
    <path fill="#213B74" d="m64.985 201.225 10.518 6.904-1.924 8.069-.138.593v.296l.158.069c1.184.494 1.993.948 2.2 1.077.227.405 1.648 3.032.81 5.056-.445 1.077-1.471 1.818-3.04 2.203a6.438 6.438 0 0 1-1.55.178c-5.377 0-12.5-5.6-13.744-6.618.483-.572 2.16-2.321 4.825-3.091l.158-.049.02-.168c.414-3.862 1.48-12.553 1.717-14.509m-.198-.424s-1.292 10.508-1.766 14.903c-3.315.948-5.101 3.358-5.101 3.358s8.051 6.825 14.09 6.825a6.61 6.61 0 0 0 1.608-.188c6.098-1.491 2.358-7.684 2.358-7.684s-.868-.533-2.279-1.116v-.069l.138-.592 1.964-8.237-11.002-7.21-.01.01Z"/>
    <path fill="#213B74" d="m75.789 208.011-1.964 8.237c-2.338-.919-7.36-3.576-9.709-9.847.336-2.845.632-5.205.661-5.551v-.049l1.392.839 9.61 6.361.01.01Z"/>
    <path fill="#9FD0FD" stroke="#213B74" stroke-miterlimit="10" d="M62.044 200.889c.75 2.064-5.101-7.299-5.23-8.83-.128-1.531 1.974-9.313 7.983-13.195 5.042-3.249 11.81-2.123 12.985-1.906 2.23.395 3.69 1.492 3.69 1.492s-8.87-1.502-15.925 1.461c-3.404 1.432-6.325 13.235-3.513 20.978h.01Z"/>
    <path fill="#9FD0FD" d="M61.995 178.488s1.164-4.701 5.012-6.429c0 0 1.105 4.009.118 5.758-.493.869-3.532 2.143-4.055 1.738-.533-.405-1.066-1.067-1.066-1.067h-.01Z"/>
    <path fill="#050400" d="M61.995 178.489s.542.662 1.065 1.057c.02.02.05.029.08.039.029.02.059.02.108.03h.089c.404.02 1.075-.168 1.756-.464-.257-.504-.622-1.146-.977-1.581-.306-.375-.937-.582-1.54-.711-.423.939-.591 1.61-.591 1.61l.01.02Z" opacity=".1"/>
    <path fill="#9FD0FD" d="M61.196 179.336s-5.832.918-8.111 2.973c0 0 2.378 2.429 5.387 2.261 1.352-.079 4.273-3.506 3.868-4.098-.404-.593-1.144-1.136-1.144-1.136Z"/>
    <path fill="#050400" d="M59.883 179.583c.06.553.247 1.304.681 1.807.247.287.622.504 1.017.682.562-.721.897-1.373.75-1.6-.405-.583-1.145-1.136-1.145-1.136s-.523.079-1.313.247h.01Z" opacity=".1"/>
    <path fill="#9FD0FD" stroke="#213B74" stroke-miterlimit="10" stroke-width=".25" d="M61.018 180.779c.75.751 1.964.741 2.714 0a1.93 1.93 0 0 0 0-2.716 1.926 1.926 0 0 0-2.714 0 1.93 1.93 0 0 0 0 2.716Z"/>
    <path fill="#fff" stroke="#213B74" stroke-miterlimit="10" stroke-width=".5" d="M87.59 196.048c-.306-14.864-8.15-18.636-14.79-18.152-6.325.464-12.798 4.888-11.802 18.064-.819-.682-1.726-1.107-2.526-.731-2.17 1.017-.187 7.891 2.22 8.967.869.396 1.56.346 2.092.139 3.454 8.424 10.657 8.543 13.064 8.493 3.197-.059 12.058-1.925 11.752-16.789l-.01.009Z"/>
    <path fill="#213B74" d="M85.301 193.687c-.345-.059-.651-.168-.997-.257-.374-.108-.69-.148-.957-.464-.148-.168-.118-.494.03-.642.345-.365.839-.345 1.302-.247.504.119.859.336 1.174.741.306.395-.098.948-.562.869h.01Zm-10.114.75c.346-.019.671-.098 1.017-.158.385-.069.7-.079.996-.365.158-.148.168-.474.03-.642-.306-.395-.81-.435-1.273-.365-.513.069-.888.246-1.243.622-.346.365 0 .948.473.918v-.01Z"/>
    <path fill="#263238" d="M77.18 196.758s-.079.049-.079.089c0 1.017-.158 2.173-1.085 2.489-.03 0-.03.059 0 .059 1.125-.129 1.322-1.669 1.154-2.627l.01-.01Z"/>
    <path fill="#213B74" d="M76.302 195.682c-1.618-.168-1.835 3.091-.335 3.249 1.48.149 1.687-3.111.335-3.249Z"/>
    <path fill="#213B74" d="M75.65 195.81c-.295.168-.591.474-.937.484-.394.01-.68-.346-.917-.691-.02-.04-.06 0-.06.029-.049.622.149 1.284.81 1.413.602.128 1.075-.396 1.273-1.018.04-.118-.05-.296-.168-.227v.01Zm7.391.999s.08.049.07.098c-.109 1.008-.06 2.183.828 2.578.03.01.02.059-.01.059-1.105-.237-1.154-1.797-.888-2.726v-.009Z"/>
    <path fill="#213B74" d="M84.019 195.82c1.628 0 1.52 3.26.01 3.269-1.49 0-1.382-3.259-.01-3.269Z"/>
    <path fill="#213B74" d="M84.69 196.058c.256.178.493.504.799.534.355.039.631-.307.868-.642.03-.03.05 0 .05.039 0 .622-.238 1.264-.84 1.363-.552.089-.937-.454-1.065-1.086-.02-.119.069-.287.168-.218l.02.01Zm-8.22 9.638c.207.266.404.622.76.701.345.079.779-.02 1.114-.099.03 0 .06.03.04.059-.316.346-.898.514-1.352.366-.444-.139-.612-.563-.66-.998 0-.059.068-.069.098-.029Zm4.608-3.616s.089 1.521.03 2.232c0 .07-.178.089-.425.079h-.03c-1.272.089-2.496-.444-3.177-1.53-.039-.069.05-.139.119-.089.878.76 1.904 1.027 3.01 1.136.069-.198-.237-2.608-.119-2.608.395 0 1.135.326 1.579.494-.09-3.18-.681-6.321-.72-9.481 0-.109.167-.139.187-.03.858 3.249 1.036 6.904 1.204 10.183.03.405-1.392-.247-1.668-.386h.01Z"/>
    <path fill="#213B74" d="M80.673 204.107s-.68.958-1.638 1.314c-.355.128-.73.187-1.134.088-.82-.197-.859-.958-.72-1.599.108-.534.355-.988.355-.988s1.213 1.096 3.137 1.185Z"/>
    <path fill="#fff" d="M78.315 205.439c-.128 0-.257-.019-.385-.049-.562-.138-.78-.593-.651-1.343.72.099 1.48.563 1.608 1.294a1.76 1.76 0 0 1-.582.098h.01Z"/>
    <path fill="#213B74" d="M77.388 204.187c.602.118 1.203.494 1.361 1.066-.148.04-.296.06-.434.06-.118 0-.237-.01-.355-.04-.178-.039-.69-.168-.572-1.086Zm-.198-.277c-.138.642-.108 1.403.72 1.6.139.04.277.05.415.05.247 0 .493-.05.72-.139-.089-.849-.967-1.432-1.845-1.511h-.01Zm-14.85-6.568c1.569-.099 5.654-4.444 5.753-12.049 0 0-.563 6.825-1.066 7.822-.513.998 2.28-2.449 2.447-8.573 0 0 3.404 2.44 6.295 3.24 2.891.8 4.667.77 4.874.553.208-.208-4.055-1.541-5.21-2.864 0 0 7.707 3.555 11.259 3.812.415.03.296-7.269-5.2-10.834-5.496-3.566-13.597-.8-15.925 1.461 0 0-1.648.751-4.618 4.82-2.97 4.069-.296 12.721 1.401 12.612h-.01Zm-3.256-.147s-.049.05-.02.069c1.678.81 2.487 2.479 3.01 4.178-.474-.671-1.145-1.066-2.042-.513-.05.029 0 .098.04.098.72-.108 1.223.05 1.657.652.316.425.513.948.72 1.422.07.158.355.099.306-.088 0-.01 0-.03-.01-.04.188-2.202-1.322-5.402-3.67-5.778h.01Z"/>
    <path fill="#fff" stroke="#213B74" stroke-miterlimit="10" stroke-width=".25" d="M276.051 343.068c-.779 2.103-38.876 49.51-41.471 50.399-.987.346-8.2-4.81-16.754-11.279-1.846-1.402-3.74-2.854-5.664-4.336-12.472-9.649-25.477-20.167-25.477-20.167l25.398-31.783 24.786 21.047 5.447 4.612s22.694-11.614 25.644-12.286c2.941-.662 8.88 1.709 8.101 3.812l-.01-.019Z"/>
    <path fill="#EBEBEB" d="M205.502 372.657c2.18 1.709 4.44 3.457 6.66 5.185a704.171 704.171 0 0 0 5.654 4.346c8.554 6.469 15.767 11.614 16.754 11.279 2.595-.889 40.692-48.286 41.471-50.4.78-2.104-5.16-4.464-8.101-3.812-2.95.671-25.644 12.296-25.644 12.296l-5.447-4.622-5.525-4.691-25.832 30.419h.01Z"/>
    <path fill="#0087FF" d="M276.505 342.851c-.799 2.133-39.774 50.172-42.418 51.061-1.224.415-11.772-7.457-22.724-15.99l25.259-31.328 5.516 4.721s23.138-11.713 26.148-12.375c3-.652 9.018 1.778 8.219 3.911Z"/>
    <path fill="#213B74" d="M274.029 341.979c-6.729 7.891-33.134 40.365-39.192 48.671-.049.069 0 .099.049.04 6.838-7.674 32.986-40.355 39.271-48.612.128-.178.01-.277-.128-.109v.01Zm-32.749 6.747c-3.157 2.686-5.822 6.963-5.526 11.21.01.168.247.148.296.02 1.55-3.931 3.286-7.358 5.625-10.894.167-.247-.168-.533-.395-.336Zm3.227-1.168c-3.158 2.686-5.822 6.963-5.526 11.21.01.168.247.148.296.02 1.549-3.931 3.286-7.358 5.624-10.894.168-.247-.167-.533-.385-.336h-.009Zm3.236-1.164c-3.158 2.686-5.822 6.963-5.526 11.21.01.168.247.148.296.019 1.549-3.93 3.286-7.357 5.625-10.893.167-.247-.168-.534-.385-.336h-.01Zm3.236-1.164c-3.157 2.686-5.821 6.963-5.525 11.21.01.168.246.148.296.019 1.549-3.93 3.285-7.357 5.624-10.893.168-.247-.168-.534-.385-.336h-.01Z"/>
    <path fill="#213B74" d="M238.705 336.923c-2.724-.148-3.839 2.795-3.799 5.027.059 3.605 1.352 7.763 3.295 10.776.05.079.119.059.178.019.247.188.681.178.799-.177 1.155-3.408 2.812-6.904 2.891-10.558.05-2.134-.779-4.948-3.355-5.087h-.009Zm1.164 10.124c-.523 1.689-1.135 3.338-1.599 5.047-.631-2.104-1.361-4.168-1.785-6.331-.208-1.037-.395-2.104-.454-3.151-.089-1.639 1.115-6.854 4.134-3.476 1.667 1.866.326 5.906-.296 7.911Z"/>
    <path fill="#213B74" d="M230.841 360.102c3.226-1.709 5.614-4.761 8.13-7.319.257-.266.079-.652-.197-.79.019-.069 0-.138-.099-.148-3.562-.385-7.854.326-11.1 1.886-2.003.968-4.135 3.279-2.783 5.65 1.283 2.242 4.164 1.718 6.049.721Zm-3.414-.405c-4.372-1.185-.257-4.603 1.253-5.254.967-.415 2.003-.731 3.019-1.008 2.121-.592 4.292-.869 6.453-1.244-1.312 1.185-2.516 2.469-3.789 3.694-1.519 1.461-4.519 4.464-6.936 3.812Z"/>
    <path fill="#455A64" d="m235.517 342.059-26.73 36.108-90.214-62.656-8.703-6.045s-2.467 1.66-6.167 3.714c-5.15 2.854-12.699 6.459-19.379 7.447-11.2 1.659-29.897 1.481-39.34-11.151-7.953-10.637-3.631-24.523-3.631-24.523l12.294-5.284s29.098-24.266 47.954-24.997c8.002-.316 19.665 5.758 30.46 12.099 10.785 6.34 103.456 75.307 103.456 75.307v-.019Z"/>
    <path fill="#263238" d="M109.87 309.456s-2.467 1.66-6.167 3.714c-6.552-7.852-20.435-22.123-20.849-22.627l27.026 18.913h-.01ZM64.314 271.53c-1.737 1.205-3.424 2.489-5.141 3.733-1.687 1.225-3.434 2.371-5.032 3.704-1.628 1.353-3.177 2.805-4.717 4.267a74.16 74.16 0 0 0-2.19 2.143c-.71.721-1.51 1.452-2.092 2.271-.06.079.06.168.128.119.83-.533 1.579-1.264 2.329-1.896.819-.682 1.618-1.383 2.427-2.074 1.57-1.334 3.158-2.628 4.717-3.961 1.549-1.323 2.99-2.775 4.519-4.118 1.648-1.442 3.374-2.776 5.081-4.139.03-.029 0-.079-.04-.059l.01.01Zm164.928 69.235c-1.737 1.877-3.345 3.891-4.964 5.867a702.548 702.548 0 0 0-4.844 5.985c-3.207 4.01-6.444 8-9.591 12.049-1.727 2.222-3.444 4.474-5.052 6.785-.069.099.089.217.178.129 3.453-3.793 6.601-7.842 9.798-11.852 3.206-4.01 6.403-8.04 9.541-12.099 1.717-2.222 3.493-4.434 5.072-6.755.059-.099-.079-.198-.158-.119l.02.01Zm-74.033.365c-4.489-3.536-9.147-6.884-13.794-10.202-4.628-3.309-9.255-6.618-13.962-9.827-1.352-.919-2.713-1.818-4.065-2.726-1.352-.899-2.773-1.739-4.095-2.677-.079-.059-.148.079-.069.128 1.223.879 2.378 1.857 3.572 2.766 1.144.869 2.279 1.748 3.433 2.607 2.25 1.669 4.529 3.309 6.799 4.958a684.126 684.126 0 0 0 13.942 9.847c2.664 1.827 5.318 3.664 8.032 5.402.158.109.355-.158.197-.276h.01Zm28.851-37.253c-4.144-3.437-8.594-6.538-12.945-9.718-4.401-3.22-8.772-6.469-13.183-9.659l-13.143-9.511c-4.243-3.072-8.466-6.193-12.955-8.919a88.735 88.735 0 0 0-7.558-4.108c-2.516-1.205-5.121-2.44-7.815-3.19-.079-.02-.128.098-.049.138 2.21 1.235 4.529 2.272 6.768 3.467a128.438 128.438 0 0 1 6.532 3.723c4.45 2.706 8.654 5.768 12.877 8.81 8.772 6.311 17.524 12.651 26.355 18.874 4.943 3.486 9.788 7.16 14.919 10.36.158.099.345-.148.197-.267Z"/>
    <path fill="#fff" d="M123.23 182.93v14.834h3.907v6.756l6.759-6.756h45.872V182.93H123.23Z"/>
    <path fill="#213B74" d="M123.23 182.931c.039 5.008.207 9.956.207 14.835l-.207-.208h3.907l.217-.01v.218l.02 6.755-.414-.168 6.729-6.785c.089-.089.069-.079.187-.079 13.508-.02 32.552-.119 45.872-.089l-.355.356.05-14.835.305.306c-14.09-.029-42.438-.197-56.528-.306l.01.01Zm0 0c14.09-.118 42.448-.276 56.528-.306h.306v.306l.05 14.835v.355h-.356c-13.251.04-32.423-.069-45.872-.089l.188-.079-6.779 6.736-.414.405v-.583l.019-6.755.217.217h-3.907l-.207-.01c0-5.067.168-10.094.207-15.042l.02.01Z"/>
    <path fill="#0087FF" d="M133.117 188.294v1.985h-.563v-1.985c0-.761-.572-1.373-1.283-1.373-.71 0-1.282.612-1.282 1.373v1.985h-.563v-1.985c0-1.087.829-1.966 1.845-1.966 1.017 0 1.846.879 1.846 1.966Z"/>
    <path fill="#0087FF" d="m129.436 188.816.562.02v1.452h-.562v-1.472Zm3.681.149v1.324h-.563v-1.344l.563.02Z"/>
    <path fill="#0087FF" d="M133.837 189.547h-5.121v4.257h5.121v-4.257Z"/>
    <path fill="#003876" d="M449.366 22.876s-5.121 41.066-13.548 50.31c-10.113 11.092-17.445 9.462-21.53 15.18-4.085-5.728-11.416-4.098-21.539-15.19-8.427-9.244-13.538-50.31-13.538-50.31C401.402 12.081 414.288-.008 414.288-.008c.395.375 13.232 12.257 35.078 22.874v.01Z"/>
    <path fill="#000" d="M414.279 0v88.355c-4.085-5.729-11.417-4.099-21.54-15.19-8.427-9.245-13.538-50.31-13.538-50.31C401.392 12.068 414.279-.02 414.279-.02V0Z" opacity=".1"/>
    <path fill="#0087FF" d="M384.638 26.182s4.331 34.695 11.446 42.508c8.544 9.382 14.751 8 18.204 12.83 3.454-4.83 9.65-3.458 18.205-12.83 7.114-7.813 11.436-42.508 11.436-42.508-18.748-9.116-29.641-19.319-29.641-19.319s-10.893 10.213-29.64 19.319h-.01Z"/>
    <path fill="#fff" d="M443.909 26.182s-4.331 34.686-11.446 42.508c-8.544 9.372-14.741 8-18.194 12.82V6.862c.335.316 11.179 10.34 29.63 19.319h.01Z" opacity=".2"/>
    <path fill="#9FD0FD" d="M414.279 57.945c7.591 0 13.744-6.16 13.744-13.758 0-7.598-6.153-13.757-13.744-13.757-7.592 0-13.745 6.16-13.745 13.758 0 7.598 6.153 13.757 13.745 13.757Z"/>
    <path fill="#fff" d="m412.71 53.127-6.118-6.37 2.27-2.193 3.374 3.516 7.272-11.17 2.645 1.729-9.443 14.488Z"/>
    <path fill="#0087FF" d="m443.91 82.338-1.944.355-.434 2.055-.434-2.055-1.944-.365 1.934-.464.444-1.946.444 1.946 1.934.474Zm-57.575-15.594-1.944.356-.434 2.054-.434-2.054-1.944-.366 1.934-.464.444-1.946.444 1.946 1.934.474Zm8.871-54.063-1.944.356-.434 2.054-.434-2.054-1.944-.365 1.934-.475.444-1.935.444 1.935 1.934.484Zm45.221 60.434-1.086.197-.237 1.146-.246-1.146-1.086-.197 1.086-.267.246-1.086.247 1.086 1.076.267Zm7.518-22.827-1.085.208-.247 1.146-.236-1.146-1.096-.208 1.086-.266.246-1.077.247 1.077 1.085.267Zm-9.225-40.027-1.086.208-.237 1.145-.246-1.145-1.086-.208 1.076-.257.256-1.086.247 1.086 1.076.257Zm-27.747 83.041-1.085.198-.247 1.145-.237-1.145-1.085-.198 1.075-.266.247-1.087.247 1.087 1.085.266Zm-30.677-23.89-1.085.197-.247 1.146-.236-1.146-1.096-.197 1.086-.267.246-1.086.247 1.086 1.085.267Zm1.688-31.784-1.086.208-.236 1.145-.247-1.145-1.085-.208 1.075-.256.257-1.087.246 1.087 1.076.256ZM427.56 78.25c-.405 0-.405.632 0 .632.404 0 .404-.632 0-.632Zm-50.075-57.125c-.405 0-.405.632 0 .632.404 0 .404-.632 0-.632Zm59.912 58.902c-.404 0-.404.632 0 .632.405 0 .405-.632 0-.632Zm-31.9-49.234c-.404 0-.404.632 0 .632.405 0 .405-.632 0-.632ZM376.34 43.496c-.405 0-.405.632 0 .632s.405-.632 0-.632Zm-7.341-3.437c-.286 0-.286.444 0 .444s.286-.444 0-.444Zm60.09-33.907c-.286 0-.286.445 0 .445s.286-.445 0-.445Zm-31.091 76.336c-.286 0-.286.445 0 .445s.286-.445 0-.445Zm-6.966-4.101c-.78 0-.78 1.205 0 1.205.779 0 .779-1.205 0-1.205Z"/>
  </g>
  <defs>
    <clipPath id="a">
      <path fill="#fff" d="M0 0h553v394H0z"/>
    </clipPath>
  </defs>
</svg>
