<svg width="215" height="470" viewBox="0 0 215 470" fill="none" xmlns="http://www.w3.org/2000/svg">
<path d="M16.9794 468.061C7.81182 468.061 2.1532 467.936 1.44587 467.7C0.849493 467.506 0.461131 466.964 0.294701 466.09C-0.260068 463.147 1.90353 457.483 4.37226 455.47C7.687 452.763 40.5848 437.52 40.9177 437.367L41.0286 437.325L40.5709 425.192L34.8429 380.491L92.844 379.922L97.0602 425.067C97.0464 425.498 97.0464 425.956 97.0464 426.414C97.0464 429.732 97.0048 432.994 96.9354 436.173V436.659C96.5471 459.648 95.6179 465.007 94.9105 465.451C92.4696 467.048 42.3739 468.075 16.9794 468.075V468.061Z" fill="white"/>
<path d="M92.6916 380.086L96.8801 425.023C96.8662 425.481 96.8662 425.925 96.8662 426.397C96.8662 429.396 96.8246 432.589 96.7553 436.157V436.642C96.3531 460.687 95.3683 464.907 94.7997 465.296C92.6222 466.726 46.1464 467.878 16.9795 467.878C3.6234 467.878 1.75105 467.614 1.5014 467.531C0.960503 467.364 0.613772 466.864 0.461211 466.059C-0.0935584 463.172 2.05616 457.591 4.48328 455.606C7.78415 452.913 40.6542 437.67 40.9871 437.517L41.1951 437.42V437.184L41.1535 436.226L40.8068 426.939L40.7374 425.134L35.0372 380.641L92.6916 380.072M93.0106 379.725L34.6488 380.294L40.4046 425.176L40.4739 426.953L40.8207 436.24L40.8484 437.198C40.8484 437.198 7.64547 452.579 4.27525 455.328C0.932764 458.063 -1.64688 466.878 1.40435 467.85C2.16716 468.1 8.25572 468.211 16.9795 468.211C42.9981 468.211 92.5251 467.184 94.9939 465.573C96.2559 464.782 96.8385 452.038 97.102 436.629C97.102 436.462 97.102 436.309 97.102 436.143C97.1575 432.964 97.1991 429.701 97.2129 426.383C97.2129 425.925 97.2129 425.467 97.2268 425.009L92.9967 379.711L93.0106 379.725Z" fill="#213B74"/>
<path d="M1.40435 467.864C4.46945 468.85 91.7069 467.739 95.0077 465.588C96.2698 464.796 96.8523 452.052 97.1158 436.643C97.1158 436.476 97.1158 436.324 97.1158 436.157C97.1713 432.978 97.2129 429.716 97.2268 426.398C97.2268 425.94 97.2268 425.482 97.2407 425.023L40.4046 425.176L40.4739 426.953L40.8207 436.24L40.8484 437.198C40.8484 437.198 7.64547 452.58 4.27525 455.329C0.932764 458.063 -1.64688 466.879 1.40435 467.851V467.864Z" fill="#EBEBEB"/>
<path d="M1.38999 467.864C2.97109 468.377 26.6736 468.322 49.8352 467.864C54.4952 467.766 59.1276 467.669 63.538 467.544C80.0562 467.1 93.7174 466.42 94.9795 465.587C96.2277 464.796 96.8102 452.412 97.0738 437.295C97.0738 437.086 97.0738 436.864 97.0738 436.656C97.0738 436.489 97.0738 436.323 97.0738 436.156H97.0044L40.7786 436.253L40.8063 437.211C40.8063 437.211 7.60339 452.579 4.23317 455.328C0.876815 458.076 -1.689 466.878 1.36223 467.864H1.38999Z" fill="#0087FF"/>
<path d="M2.34735 464.467C17.0487 463.911 76.3951 463.092 90.9717 463.662C91.0965 463.662 91.0965 463.745 90.9717 463.759C76.409 464.619 17.0487 464.966 2.34735 464.703C2.04223 464.703 2.02836 464.467 2.34735 464.467Z" fill="#213B74"/>
<path d="M34.5523 436.49C40.3219 435.337 47.409 436.129 51.8888 440.21C52.0691 440.363 51.8333 440.613 51.653 440.557C45.925 438.822 40.5715 437.739 34.5939 437.225C34.1778 437.184 34.15 436.573 34.5661 436.49H34.5523Z" fill="#213B74"/>
<path d="M30.4058 439.068C36.1754 437.915 43.2625 438.707 47.7423 442.788C47.9226 442.941 47.6868 443.191 47.5065 443.135C41.7785 441.4 36.425 440.317 30.4474 439.804C30.0313 439.762 30.0036 439.151 30.4196 439.068H30.4058Z" fill="#213B74"/>
<path d="M26.2573 441.638C32.0269 440.486 39.1141 441.277 43.5938 445.359C43.7741 445.511 43.5384 445.761 43.3581 445.706C37.6301 443.97 32.2766 442.887 26.2989 442.374C25.8828 442.332 25.8551 441.721 26.2712 441.638H26.2573Z" fill="#213B74"/>
<path opacity="0.1" d="M49.8344 467.864C54.4944 467.766 59.1267 467.669 63.5372 467.544C80.0554 467.1 93.7166 466.42 94.9787 465.587C96.2269 464.796 96.8094 452.412 97.0729 437.295C97.0729 437.086 97.0729 436.864 97.0729 436.656C97.0729 436.489 97.0729 436.323 97.0729 436.156H97.0036C89.3062 441.57 62.1502 459.645 49.8066 467.864H49.8344Z" fill="black"/>
<path d="M37.4506 436.448H100.292C100.292 436.448 87.671 289.558 88.1703 287.004C88.7945 283.714 92.5114 268.846 97.4489 249.425C99.0022 243.344 100.667 236.833 102.4 230.072C107.088 211.803 112.261 191.827 116.755 174.446C123.509 148.416 128.793 134.992 128.793 134.992H75.5355C75.5355 134.992 31.7642 260.433 30.0166 286.365C28.491 308.98 37.4506 436.462 37.4506 436.462V436.448Z" fill="#263238"/>
<path d="M40.2387 425.715C49.8362 425.521 47.0762 425.438 56.6737 425.355C61.3754 425.313 92.2345 425.049 96.6171 425.771C96.7142 425.785 96.7142 425.952 96.6171 425.965C92.2345 426.687 61.3615 426.41 56.6737 426.368C47.0762 426.271 49.8362 426.201 40.2387 425.993C40.0584 425.993 40.0584 425.715 40.2387 425.715Z" fill="#37474F"/>
<path d="M76.3401 278.02C78.4066 268.927 81.4855 260.014 84.1623 251.102C89.6129 232.971 95.1051 214.855 100.611 196.738C103.357 187.687 116.145 153.8 117.407 149.288C117.92 147.456 118.197 148.469 117.546 150.788C116.214 155.48 94.3839 222.657 88.864 241.065C86.0901 250.296 83.3163 259.514 80.5424 268.746C79.2249 273.161 77.9211 277.589 77.1445 282.129C76.3262 286.863 76.2846 291.666 76.5897 296.455C77.1861 306.076 78.2956 315.682 79.1832 325.289C80.0709 334.909 80.9585 344.53 81.8462 354.15C83.6076 373.294 85.3828 392.438 87.1026 411.596C87.3245 414.025 87.5325 416.454 87.7128 418.884C87.7683 419.703 86.5478 419.633 86.4646 418.856C84.3981 399.921 82.817 380.929 81.0417 361.966C79.2803 343.1 77.5189 324.234 75.7576 305.368C75.3137 300.634 74.8145 295.886 74.8145 291.124C74.8145 286.71 75.3692 282.351 76.3539 278.047L76.3401 278.02Z" fill="#37474F"/>
<path d="M81.5959 134.977C85.2851 163.602 92.3168 210.483 97.4484 249.423C109.473 202.237 128.793 134.99 128.793 134.99H81.582L81.5959 134.977Z" fill="#37474F"/>
<path d="M86.0755 468.971C74.5779 468.971 67.2411 468.818 66.4367 468.554C65.8403 468.36 65.452 467.819 65.2856 466.944C64.7308 464.001 66.936 458.351 69.4047 456.338C72.7334 453.645 105.673 438.513 106.006 438.36L106.117 438.319L105.701 426.185L104.119 381.47L160.803 381.109C160.942 383.219 162.384 405.237 162.176 426.241C162.162 426.699 162.162 427.157 162.148 427.615C162.134 430.933 162.079 434.196 162.01 437.375V437.86C161.538 460.85 160.595 466.208 159.874 466.653C157.668 468.082 114.688 468.999 86.0616 468.999L86.0755 468.971Z" fill="white"/>
<path d="M160.651 381.289C160.845 384.176 162.205 405.694 162.024 426.226C162.01 426.684 162.01 427.142 161.996 427.6C161.983 430.599 161.927 433.792 161.858 437.36V437.721V437.832C161.372 461.862 160.36 466.096 159.805 466.485C157.642 467.901 114.689 468.789 86.0902 468.789C74.6065 468.789 67.2836 468.637 66.493 468.373C65.9521 468.206 65.6054 467.707 65.4528 466.901C64.9119 464 67.0755 458.447 69.5026 456.462C72.8174 453.783 105.743 438.665 106.076 438.512L106.284 438.415V438.179L106.242 437.221L105.923 427.934L105.868 426.157L104.301 381.622L160.651 381.261M160.97 380.914L103.94 381.275L105.521 426.157L105.576 427.934L105.895 437.221L105.923 438.179C105.923 438.179 72.6648 453.436 69.2807 456.17C65.9243 458.905 63.317 467.693 66.3682 468.692C67.2558 468.984 75.1751 469.123 86.0625 469.123C112.858 469.123 157.628 468.276 159.972 466.763C161.234 465.971 161.872 453.241 162.177 437.832C162.177 437.665 162.177 437.512 162.177 437.346C162.246 434.167 162.302 430.904 162.315 427.587C162.315 427.128 162.315 426.67 162.343 426.226C162.551 403.987 160.956 380.914 160.956 380.914H160.97Z" fill="#213B74"/>
<path d="M66.382 468.723C69.4333 469.723 156.685 468.931 159.985 466.78C161.248 465.988 161.886 453.258 162.191 437.849C162.191 437.682 162.191 437.529 162.191 437.363C162.26 434.184 162.315 430.921 162.329 427.604C162.329 427.145 162.329 426.687 162.357 426.243L105.521 426.188L105.576 427.964L105.895 437.252L105.923 438.21C105.923 438.21 72.6648 453.466 69.2807 456.201C65.9243 458.936 63.317 467.724 66.3682 468.723H66.382Z" fill="#EBEBEB"/>
<path d="M66.382 468.721C69.4333 469.721 156.685 468.93 159.985 466.778C161.248 465.987 161.886 453.256 162.191 437.847C162.191 437.68 162.191 437.528 162.191 437.361L105.895 437.25L105.923 438.208C105.923 438.208 72.6648 453.465 69.2807 456.199C65.9243 458.934 63.317 467.722 66.3682 468.721H66.382Z" fill="#0087FF"/>
<path d="M67.3393 465.324C82.0407 464.825 141.401 464.214 155.978 464.852C156.102 464.852 156.102 464.936 155.978 464.95C141.415 465.755 82.0546 465.88 67.3532 465.574C67.0481 465.574 67.0342 465.338 67.3532 465.338L67.3393 465.324Z" fill="#213B74"/>
<path d="M99.6403 437.474C105.424 436.335 112.511 437.168 116.963 441.25C117.129 441.402 116.908 441.652 116.713 441.597C110.985 439.848 105.646 438.737 99.6681 438.21C99.252 438.168 99.2242 437.557 99.6403 437.474Z" fill="#213B74"/>
<path d="M95.4937 440.028C101.277 438.89 108.364 439.723 112.816 443.804C112.983 443.957 112.761 444.207 112.581 444.151C106.853 442.402 101.513 441.292 95.5353 440.764C95.1192 440.723 95.0914 440.112 95.5075 440.028H95.4937Z" fill="#213B74"/>
<path d="M91.3337 442.583C97.1172 441.445 104.204 442.278 108.656 446.359C108.823 446.512 108.601 446.762 108.407 446.706C102.679 444.957 97.3391 443.846 91.3614 443.319C90.9453 443.277 90.9176 442.666 91.3337 442.583Z" fill="#213B74"/>
<path d="M75.9102 134.977C75.9102 134.977 77.1307 153.676 82.9557 173.875C83.4273 175.541 83.9266 177.193 84.4814 178.762C84.4814 178.762 89.1969 180.969 98.4615 186.661C98.4615 186.661 99.0718 207.179 99.682 230.071C100.362 255.656 101.055 284.184 100.916 290.237C100.376 312.879 103.718 437.39 103.718 437.39L166.546 437.654C166.546 437.654 155.214 298.608 155.298 290.32C155.422 276.993 151.969 230.682 149.542 187.702C149.334 184.092 151.497 176.235 151.303 173.098C150.097 153.274 147.129 135.004 147.129 135.004H75.924L75.9102 134.977Z" fill="#263238"/>
<path d="M105.854 426.199C115.452 426.047 112.692 425.949 122.289 425.908C126.991 425.88 157.85 425.755 162.233 426.505C162.33 426.519 162.33 426.685 162.233 426.699C157.836 427.407 126.977 427.005 122.275 426.935C112.678 426.796 115.438 426.741 105.84 426.491C105.66 426.491 105.66 426.213 105.84 426.213L105.854 426.199Z" fill="#37474F"/>
<path d="M136.74 166.891C135.201 166.488 133.537 166.363 131.97 166.114C130.694 165.905 129.431 165.683 128.169 165.405C125.798 164.878 123.398 164.101 121.457 162.573C118.322 160.116 114.73 147.705 114.286 146.914C113.537 145.554 113.759 146.817 113.759 146.956C113.759 148.4 116.602 159.2 117.878 161.227C120.208 164.947 124.383 166.433 128.544 166.96C129.737 167.113 130.943 167.196 132.15 167.266C133.634 167.349 135.215 167.488 136.699 167.293C136.921 167.266 136.99 166.946 136.74 166.877V166.891Z" fill="#37474F"/>
<path d="M67.2142 164.477C67.9077 164.074 68.6428 163.949 69.3501 163.699C69.9187 163.491 70.4874 163.269 71.056 162.991C72.1239 162.464 73.1919 161.686 74.0656 160.159C75.4664 157.702 77.0752 145.291 77.2694 144.5C77.6023 143.14 77.5052 144.403 77.5052 144.542C77.5052 145.986 76.2292 156.786 75.6606 158.813C74.6204 162.533 72.748 164.019 70.8896 164.546C70.3487 164.699 69.8216 164.782 69.2807 164.852C68.615 164.935 67.9077 165.074 67.242 164.879C67.1449 164.852 67.1172 164.532 67.2281 164.463L67.2142 164.477Z" fill="#37474F"/>
<path d="M84.6737 179.058C90.8039 181.168 96.7122 184.167 102.371 187.304C102.593 187.429 102.44 187.776 102.204 187.665C96.2407 185.097 90.1659 182.654 84.3547 179.766C83.8971 179.544 84.2021 178.892 84.6737 179.058Z" fill="#37474F"/>
<path d="M82.8854 138.2C82.8993 137.992 83.2599 137.95 83.2599 138.172C83.2183 145.252 83.6621 151.485 84.2585 158.107C84.5359 161.175 87.0046 178.167 92.3304 176.932C93.218 176.723 93.6757 175.849 93.8144 174.502C93.9808 172.892 93.3706 170.907 93.1071 169.296C92.5107 165.742 92.0391 162.175 91.734 158.579C91.1653 151.874 91.1376 145.169 91.9559 138.491C91.9836 138.269 92.3026 138.283 92.3026 138.505C92.3026 147.779 92.5384 157.052 93.9253 166.242C94.5911 170.657 96.8101 177.306 92.2055 177.987C87.5039 178.681 84.4665 167.533 83.884 164.493C82.289 155.983 82.2197 146.807 82.8854 138.2Z" fill="#37474F"/>
<path d="M92.1921 177.37C92.6776 178.508 93.0659 179.702 93.3849 180.896C93.6345 181.826 93.9813 182.826 93.8842 183.784C93.8703 183.978 93.6206 183.992 93.5097 183.867C92.8856 183.076 92.6221 181.993 92.2753 181.049C91.8731 179.966 91.4432 178.883 91.0687 177.773C90.8191 177.037 91.887 176.662 92.1921 177.37Z" fill="#37474F"/>
<path d="M138.779 138.016C139.847 143.805 140.846 149.594 141.761 155.41C142.219 158.312 142.663 161.227 143.065 164.142C143.259 165.6 143.453 167.058 143.62 168.529C143.758 170.042 143.994 171.375 143.855 173.124C143.217 176.012 142.76 178.858 142.399 181.759C142.233 183.175 142.052 184.716 142.094 185.979L142.371 190.408L143.342 208.024L146.837 278.505L150.041 349C150.554 360.744 151.095 372.489 151.719 384.233C152.302 395.978 152.801 407.736 153.994 419.425C152.177 407.792 151.414 396.033 150.374 384.317C149.486 372.586 148.696 360.841 147.933 349.111C146.435 325.636 145.312 302.133 144.105 278.63C143.12 255.127 142.052 231.624 141.248 208.108L140.652 190.477L140.471 186.104C140.444 184.424 140.679 183.036 140.874 181.551C141.304 178.635 141.83 175.678 142.552 172.846C142.677 171.653 142.552 170.056 142.441 168.64C142.33 167.182 142.191 165.725 142.039 164.267C141.733 161.352 141.401 158.423 141.04 155.507L138.779 138.016Z" fill="#37474F"/>
<path d="M85.008 59.2813C58.1849 82.9507 33.2619 108.911 31.1954 122.279C28.3245 140.799 39.6556 146.06 44.7595 146.171C58.6565 146.463 84.5503 90.35 93.5792 68.9295C102.345 48.1199 90.9024 54.0893 85.0218 59.2813H85.008Z" fill="#213B74"/>
<path d="M82.5807 83.5202C81.3602 83.5202 80.3754 82.5346 80.3754 81.313C80.3754 79.8137 79.1549 78.5781 77.6432 78.5781H75.9234V79.1057H77.6432C78.8498 79.1057 79.8345 80.0913 79.8345 81.313C79.8345 82.8261 81.055 84.0617 82.5807 84.0617H84.1895V83.5202H82.5807ZM62.0403 126.542C60.8198 126.542 59.8351 125.556 59.8351 124.334C59.8351 122.835 58.6146 121.6 57.089 121.6H55.3831V122.141H57.089C58.3095 122.141 59.2942 123.113 59.2942 124.334C59.2942 125.848 60.5147 127.083 62.0403 127.083H63.6491V126.542H62.0403ZM41.5 116.338C40.6401 115.477 40.6401 114.075 41.5 113.215C42.0131 112.701 42.3044 112.007 42.3044 111.271C42.3044 110.535 42.0131 109.855 41.5 109.341L40.2795 108.12L39.905 108.508L41.1255 109.716C41.9716 110.577 41.9716 111.965 41.1255 112.84C40.0437 113.909 40.0437 115.644 41.1255 116.713L42.2628 117.851L42.6373 117.477L41.5 116.338ZM48.0879 137.245L46.8813 138.453C46.0352 139.313 44.6344 139.313 43.7607 138.453C42.6927 137.384 40.973 137.384 39.8912 138.453L38.7539 139.591L39.1284 139.966L40.2656 138.828C41.1255 137.981 42.5263 137.981 43.3862 138.828C43.8994 139.341 44.5928 139.633 45.3279 139.633C46.063 139.633 46.7426 139.341 47.2557 138.828L48.4762 137.62L48.0879 137.245ZM64.8835 97.9995L63.6769 99.2073C62.817 100.068 61.4301 100.068 60.5563 99.2073C59.4884 98.1384 57.7547 98.1384 56.6868 99.2073L55.5495 100.346L55.924 100.734L57.0613 99.5821C57.9211 98.7353 59.3081 98.7353 60.1818 99.5821C61.2498 100.665 62.9834 100.651 64.0514 99.5821L65.258 98.3744L64.8835 97.9995Z" fill="white"/>
<path opacity="0.1" d="M93.566 68.9421C84.551 90.3626 58.6433 146.489 44.7463 146.184C43.8865 146.184 42.8324 145.989 41.709 145.642L95.688 54.7266C97.38 55.9343 97.3662 59.9186 93.5799 68.9421H93.566Z" fill="#0087FF"/>
<path d="M149.638 143.867C149.471 144.075 72.5943 142.812 71.8453 142.062C71.5679 141.785 79.0851 73.8859 89.5009 57.0327C93.8003 50.0915 105.756 46.5098 113.938 56.88C139.139 88.8372 149.846 143.603 149.638 143.867Z" fill="#0087FF"/>
<path d="M105.95 118.558C104.73 118.558 103.745 117.572 103.745 116.35C103.745 114.837 102.524 113.602 100.999 113.602H99.2929V114.143H100.999C102.219 114.143 103.204 115.129 103.204 116.35C103.204 117.85 104.424 119.085 105.95 119.085H107.559V118.558H105.95ZM82.5805 83.5185C81.9702 83.5185 81.4154 83.2687 81.0271 82.8661C80.9855 83.0604 80.9439 83.2687 80.8884 83.463C81.3461 83.8378 81.9286 84.0461 82.5805 84.0461H84.1892V83.5047H82.5805V83.5185ZM86.02 133.551C85.1601 132.704 85.1601 131.302 86.02 130.441C86.5332 129.913 86.8244 129.219 86.8244 128.497C86.8244 127.776 86.5332 127.081 86.02 126.568L84.7995 125.346L84.425 125.721L85.6317 126.943C86.4916 127.789 86.4916 129.192 85.6317 130.052C84.5637 131.135 84.5637 132.856 85.6317 133.939L86.7828 135.078L87.1573 134.703L86.02 133.551ZM101.9 94.5273C101.054 93.6804 101.054 92.2783 101.9 91.4176C102.968 90.3348 102.968 88.6134 101.9 87.5444L100.694 86.3228L100.319 86.7115L101.526 87.9193C102.386 88.7661 102.386 90.1682 101.526 91.0428C100.458 92.1117 100.458 93.8331 101.526 94.916L102.663 96.0543L103.051 95.6795L101.9 94.5273ZM143.161 129.802C142.301 128.942 142.301 127.553 143.161 126.679C144.229 125.61 144.229 123.875 143.161 122.806L141.941 121.598L141.566 121.973L142.773 123.18C143.633 124.041 143.633 125.443 142.773 126.304C141.705 127.373 141.705 129.108 142.773 130.177L143.924 131.316L144.298 130.941L143.161 129.802ZM104.716 142.366L103.897 143.185C104.147 143.185 104.397 143.185 104.646 143.185L105.09 142.741L104.716 142.352V142.366ZM97.3234 143.032C98.114 143.06 98.9184 143.074 99.7228 143.088C98.9739 142.713 98.0862 142.685 97.3234 143.032ZM131.58 86.9197L130.693 87.8082L131.067 88.183L131.802 87.4473L131.58 86.9197ZM121.511 127.734V129.344C121.511 130.566 120.527 131.552 119.306 131.552C117.794 131.552 116.56 132.773 116.56 134.286V136.008H117.101V134.286C117.101 133.065 118.086 132.093 119.306 132.093C120.804 132.093 122.038 130.857 122.038 129.344V127.734H121.511ZM82.2753 102.912V104.523C82.2753 105.744 81.2906 106.73 80.0701 106.73C78.5722 106.73 77.3379 107.952 77.3379 109.479V111.186H77.8649V109.479C77.8649 108.257 78.8496 107.271 80.0701 107.271C81.5818 107.271 82.8162 106.05 82.8162 104.523V102.912H82.2753ZM101.512 58.3359V59.9463C101.512 61.1679 100.527 62.1536 99.3067 62.1536C97.8089 62.1536 96.5745 63.3752 96.5745 64.8884V66.6098H97.1015V64.8884C97.1015 63.6806 98.0862 62.695 99.3067 62.695C100.818 62.695 102.053 61.4595 102.053 59.9463V58.3359H101.512ZM125.714 101.302V102.912C125.714 104.134 124.729 105.12 123.509 105.12C121.997 105.12 120.762 106.341 120.762 107.868V109.576H121.303V107.868C121.303 106.647 122.288 105.661 123.509 105.661C125.006 105.661 126.241 104.439 126.241 102.912V101.302H125.714ZM119.819 79.923C118.599 79.923 117.614 78.9374 117.614 77.7157C117.614 76.2025 116.394 74.967 114.868 74.967H113.162V75.5084H114.868C116.089 75.5084 117.073 76.4941 117.073 77.7157C117.073 79.215 118.294 80.4644 119.819 80.4644H121.428V79.923H119.819Z" fill="white"/>
<path d="M116.408 56.9759C141.373 76.6194 165.921 110.548 166.101 129.511C166.282 148.252 159.763 146.434 157.905 146.309C146.601 145.573 119.972 93.4309 111.859 72.177C103.815 51.0759 110.222 52.117 116.394 56.9759H116.408Z" fill="#0087FF"/>
<path d="M150.151 109.867C148.931 109.867 147.946 108.882 147.946 107.66C147.946 106.147 146.725 104.911 145.214 104.911H143.494V105.453H145.214C146.42 105.453 147.405 106.438 147.405 107.66C147.405 109.159 148.626 110.395 150.151 110.395H151.76V109.867H150.151ZM143.161 129.802C142.301 128.942 142.301 127.553 143.161 126.679C144.229 125.61 144.229 123.875 143.161 122.806L141.941 121.598L141.566 121.973L142.773 123.18C143.633 124.041 143.633 125.443 142.773 126.304C141.705 127.373 141.705 129.108 142.773 130.177L143.924 131.316L144.298 130.941L143.161 129.802ZM140.013 85.4621L138.806 86.6698C137.946 87.5167 136.559 87.5306 135.686 86.6698C134.618 85.6009 132.884 85.6009 131.816 86.6698L130.679 87.8082L131.053 88.183L132.191 87.0447C133.037 86.1978 134.437 86.1978 135.311 87.0447C136.379 88.1136 138.113 88.1136 139.181 87.0447L140.387 85.8369L140.013 85.4621ZM164.201 119.238C162.8 119.349 161.704 120.529 161.704 121.973V123.68H162.245V121.973C162.245 120.779 163.202 119.807 164.381 119.779C164.326 119.599 164.27 119.432 164.201 119.238ZM125.727 101.288V102.288C125.894 102.607 126.046 102.926 126.227 103.245C126.227 103.134 126.254 103.009 126.254 102.898V101.288H125.727ZM161.871 136.841V138.451C161.871 139.673 160.886 140.658 159.665 140.658C158.154 140.658 156.919 141.88 156.919 143.393V145.101H157.46V143.393C157.46 142.172 158.445 141.186 159.665 141.186C161.163 141.186 162.398 139.964 162.398 138.451V136.841H161.871ZM119.833 79.9091C118.613 79.9091 117.628 78.9235 117.628 77.7018C117.628 76.1887 116.407 74.9531 114.882 74.9531H113.176V75.4945H114.882C116.102 75.4945 117.087 76.4802 117.087 77.7018C117.087 79.2011 118.307 80.4505 119.833 80.4505H121.442V79.9091H119.833Z" fill="white"/>
<path d="M142.884 131.674C141.58 129.314 140.221 126.982 138.959 124.594L135.062 117.501C132.496 112.767 129.874 108.047 127.392 103.271C124.798 98.5373 122.33 93.7618 119.861 88.9723C118.626 86.5846 117.406 84.169 116.227 81.7535C115.007 79.3519 113.897 76.8947 112.76 74.4375C114.48 79.5601 116.671 84.5161 118.945 89.4166C121.234 94.317 123.73 99.1065 126.227 103.896C128.82 108.63 131.428 113.364 134.188 118C136.948 122.637 139.777 127.246 142.884 131.661V131.674Z" fill="#263238"/>
<path d="M115.395 80.7417C114.937 79.8532 114.396 79.0758 113.855 78.2984C113.578 77.9097 113.3 77.521 113.009 77.1462C112.718 76.7713 112.44 76.3826 112.094 76.0078C112.288 76.9935 112.773 77.868 113.328 78.6732C113.897 79.4645 114.562 80.2003 115.409 80.7417H115.395Z" fill="#263238"/>
<path d="M44.607 145.461C41.4587 145.461 38.5323 144.003 36.1468 141.254C31.7087 136.146 29.7392 127.344 31.0152 118.265C31.7086 113.295 36.0913 100.218 39.9331 90.431C40.793 85.6554 42.5683 77.09 44.9399 73.0641C45.2173 72.1895 45.5085 71.19 45.7998 70.1349C46.7151 66.9698 47.7415 63.3881 48.7262 61.8611C50.5153 59.0707 57.8105 50.6719 61.2362 50.6719C61.3194 50.6719 61.3888 50.6719 61.472 50.6719C62.1794 50.7552 62.6509 51.0328 62.9144 51.5187C63.4553 52.4905 63.1086 54.3368 61.9158 56.8356L61.7078 57.266L62.1377 57.0716C62.5538 56.8773 62.9699 56.7107 63.3998 56.5441C63.8298 56.3775 64.3707 56.3081 65.0225 56.3081C66.2292 56.3081 67.7548 56.5858 69.5716 57.1133C77.4632 54.4756 82.5393 53.1985 85.1884 53.1985C85.8957 53.1985 86.4089 53.2956 86.7279 53.4761C87.3104 53.8232 87.4213 54.4618 87.4074 54.9199C87.352 56.9328 85.1329 60.098 80.9999 62.2636L80.7502 62.3886L80.986 62.5552C82.9415 63.9434 83.9956 65.1789 83.8708 65.9147C83.5796 67.6916 82.5393 68.4968 80.3896 68.6079H80.2787L80.2371 68.719C80.1123 69.0521 79.9458 69.3436 79.71 69.5796L79.2801 70.0655L79.9042 69.8712C80.9582 69.5241 82.1094 69.3437 83.219 69.3437C84.9526 69.3437 86.2979 69.8018 86.4227 70.4404C86.5753 71.2039 86.1454 71.7453 85.2161 72.9114C84.3701 73.9665 83.2189 75.4241 81.8181 77.8813C81.0692 79.2001 80.5699 81.1853 80.0152 83.4898C79.1137 87.1547 77.9903 91.722 75.2858 95.3176C73.7601 97.3444 71.444 101.717 70.1957 104.133C60.515 129.079 54.6761 144.128 46.0633 145.294C45.5917 145.363 45.1063 145.391 44.6486 145.391L44.607 145.461ZM68.3927 68.1914C67.9351 68.4274 67.519 68.6495 67.1723 68.7884C65.7992 69.3575 63.1918 72.4394 62.0961 75.2298C61.5413 76.6319 61.4443 77.7564 61.8049 78.5893C62.3596 79.8387 65.2444 81.3519 67.9905 81.3519C68.8366 81.3519 69.5855 81.2131 70.2373 80.9216C71.7907 80.2413 72.7338 78.3533 73.7463 76.3681C74.7032 74.494 75.6741 72.5505 77.2552 71.2872C77.3661 71.2039 77.4771 71.1206 77.6019 71.0373L78.2399 70.607L77.5464 70.6764C77.1997 70.7319 76.8252 70.7597 76.4369 70.7597C75.05 70.7597 73.3718 70.4265 71.6104 69.7879C71.2637 69.6629 70.6812 69.3437 70.0016 68.9688C69.5578 68.719 69.0723 68.4552 68.5592 68.1914L68.476 68.1498L68.3927 68.1914Z" fill="white"/>
<path d="M61.2369 50.8496C61.3062 50.8496 61.3756 50.8496 61.4449 50.8496C62.0829 50.9329 62.5128 51.1689 62.7486 51.5993C63.2618 52.5155 62.9151 54.3064 61.75 56.7635L61.3478 57.6242L62.2077 57.2355C62.6516 57.0273 63.0676 56.8607 63.456 56.7219C63.872 56.5692 64.3991 56.4859 65.0232 56.4859C66.2159 56.4859 67.7277 56.7496 69.5168 57.2911L69.6277 57.3188L69.7248 57.2772C77.4916 54.6534 82.5539 53.3762 85.189 53.3762C86.0212 53.3762 86.4373 53.5151 86.6314 53.6261C87.1446 53.9315 87.2417 54.5007 87.2278 54.9172C87.1723 56.8746 84.9949 59.9842 80.9173 62.1082L80.418 62.372L80.8757 62.7052C82.7481 64.0379 83.8021 65.2318 83.6912 65.8981C83.4138 67.5779 82.429 68.3414 80.3764 68.4525H80.1545L80.0713 68.6746C79.9603 68.98 79.7939 69.2438 79.5859 69.4798L78.8924 70.2572L77.5332 70.4654C77.2004 70.5209 76.8259 70.5487 76.4375 70.5487C75.0645 70.5487 73.414 70.2155 71.6665 69.5908C71.3337 69.4659 70.7512 69.1605 70.0993 68.7857C69.6555 68.5358 69.1562 68.272 68.643 68.0082L68.4766 67.925L68.3241 68.0082C67.908 68.2304 67.478 68.4525 67.1174 68.6052C65.7166 69.1882 63.0538 72.3257 61.9442 75.1299C61.3756 76.5737 61.2785 77.7537 61.6529 78.6144C62.3048 80.0859 65.3977 81.4741 68.0051 81.4741C68.8788 81.4741 69.6555 81.3214 70.3212 81.0299C71.93 80.3219 72.887 78.42 73.9134 76.3932C74.8565 74.533 75.8273 72.6033 77.3807 71.3678C77.4778 71.2845 77.5887 71.2151 77.6996 71.1457L77.7829 71.0901L78.7398 70.4238L79.9464 70.0351C80.9866 69.7019 82.1101 69.5214 83.2057 69.5214C84.981 69.5214 86.146 70.0073 86.2431 70.4793C86.3679 71.1318 86.0489 71.5899 85.0642 72.8115C84.2737 73.8111 83.067 75.3242 81.6524 77.8092C80.8896 79.1419 80.3903 81.141 79.8216 83.4593C78.9201 87.1104 77.7967 91.6638 75.12 95.2316C73.5944 97.2723 71.2643 101.645 70.0022 104.102C60.3493 128.98 54.538 143.986 46.0085 145.139C45.5369 145.208 45.0792 145.236 44.6077 145.236C41.5149 145.236 38.63 143.806 36.2723 141.085C31.8619 136.018 29.9202 127.258 31.1684 118.235C31.8619 113.279 36.2445 100.215 40.0863 90.3727C40.9323 85.6388 42.7076 77.0873 45.0654 73.0892V73.0614L45.0931 73.0198C45.3566 72.173 45.6479 71.1734 45.9391 70.1322C46.8406 66.9809 47.8669 63.4132 48.8378 61.9139C50.6131 59.1513 57.8389 50.808 61.2092 50.808M61.2092 50.4609C57.5754 50.4609 50.197 59.1652 48.5466 61.7334C47.2151 63.8019 45.8004 69.5631 44.7602 72.9365C42.6799 76.4626 40.9323 83.6953 39.7396 90.3311C35.6898 100.646 31.4874 113.376 30.8217 118.207C28.7552 132.964 35.2182 145.597 44.5938 145.597C45.0654 145.597 45.5508 145.569 46.0362 145.5C54.7184 144.333 60.3909 129.799 70.3074 104.241C71.6111 101.715 73.8856 97.4527 75.3835 95.4398C79.78 89.5953 79.9881 81.377 81.9436 77.9758C84.9671 72.6866 86.8949 71.9786 86.5759 70.396C86.4234 69.6464 84.9948 69.1605 83.1918 69.1605C82.1378 69.1605 80.9589 69.3271 79.8355 69.688C80.0713 69.4242 80.2654 69.1188 80.3903 68.7718C82.3874 68.6746 83.6911 67.9666 84.024 65.9259C84.1627 65.0374 82.9699 63.7464 81.0699 62.3998C86.8117 59.3873 88.8228 54.5007 86.7978 53.3068C86.4372 53.0986 85.8825 53.0014 85.1752 53.0014C81.694 53.0014 74.5513 55.2503 69.6 56.9301C67.8802 56.4165 66.2853 56.1111 65.0093 56.1111C64.3575 56.1111 63.7888 56.1944 63.3173 56.3609C62.9012 56.5136 62.4712 56.6941 62.0552 56.8885C63.5114 53.8205 64.1494 50.808 61.4727 50.4748C61.3895 50.4748 61.3062 50.4609 61.223 50.4609H61.2092ZM67.9773 81.1271C65.3699 81.1271 62.499 79.6972 61.9442 78.4617C60.7376 75.7546 65.3283 69.7019 67.2284 68.9106C67.5751 68.7718 67.9912 68.5497 68.4627 68.2998C69.7387 68.9522 70.9315 69.688 71.5279 69.8962C73.2893 70.5348 74.9813 70.8819 76.4098 70.8819C76.812 70.8819 77.2003 70.8541 77.5609 70.7986C77.4222 70.8958 77.2697 70.993 77.1449 71.104C73.8301 73.7555 73.0535 79.4473 70.1687 80.7106C69.5168 81.0021 68.7679 81.1271 67.9912 81.1271H67.9773Z" fill="#213B74"/>
<path d="M45.883 145.996C34.108 145.385 30.7933 133.988 30.0721 124.534C29.3786 115.427 36.3132 94.2288 37.187 91.6328L64.8839 118.578C64.1765 120.439 54.3848 146.01 46.091 146.01H45.883V145.996Z" fill="#0087FF"/>
<path d="M37.2563 91.9493L64.6758 118.617C63.705 121.172 54.1352 145.827 46.0772 145.827C46.0078 145.827 45.9385 145.827 45.883 145.827C34.2467 145.216 30.9458 133.902 30.2385 124.531C29.5728 115.702 36.0913 95.4616 37.2563 91.9493ZM37.1038 91.3108C37.1038 91.3108 29.1567 114.73 29.8918 124.545C30.6407 134.36 34.0526 145.549 45.8691 146.16C45.9385 146.16 46.0078 146.16 46.091 146.16C54.8841 146.16 65.0919 118.506 65.0919 118.506L37.1177 91.2969L37.1038 91.3108Z" fill="#213B74"/>
<path d="M59.8351 124.324C59.8351 122.825 58.6146 121.589 57.089 121.589H55.3831V122.131H57.089C58.3095 122.131 59.2942 123.102 59.2942 124.324C59.2942 125.671 60.2512 126.767 61.5133 127.017C61.5965 126.837 61.6797 126.67 61.7491 126.49C60.6673 126.365 59.8351 125.435 59.8351 124.324ZM41.5 116.328C40.6401 115.467 40.6401 114.065 41.5 113.204C42.0131 112.691 42.3044 111.996 42.3044 111.261C42.3044 110.525 42.0131 109.845 41.5 109.331L40.2795 108.109L39.905 108.498L41.1255 109.706C41.9716 110.567 41.9716 111.955 41.1255 112.829C40.0437 113.898 40.0437 115.634 41.1255 116.703L42.2628 117.841L42.6373 117.466L41.5 116.328ZM48.0879 137.235L46.8813 138.442C46.0352 139.303 44.6344 139.303 43.7607 138.442C42.6927 137.373 40.973 137.373 39.8912 138.442L38.7539 139.581L39.1284 139.956L40.2656 138.817C41.1255 137.97 42.5263 137.97 43.3862 138.817C43.8994 139.331 44.5928 139.622 45.3279 139.622C46.063 139.622 46.7426 139.331 47.2557 138.817L48.4762 137.609L48.0879 137.235Z" fill="white"/>
<path d="M56.0352 137.371C57.0476 135.941 57.9491 134.442 58.8229 132.929C59.7105 131.43 60.5149 129.875 61.3054 128.32C62.0821 126.751 62.8172 125.169 63.4691 123.545C64.1209 121.92 64.7312 120.268 65.0918 118.547C64.3567 120.129 63.5661 121.684 62.7895 123.239L60.4456 127.89C59.6828 129.458 58.9061 131.013 58.1849 132.596C57.4498 134.178 56.7147 135.761 56.0629 137.385L56.0352 137.371Z" fill="#263238"/>
<path d="M59.0592 123.27C57.7 121.784 56.216 120.396 54.7736 118.98C53.3312 117.564 51.875 116.176 50.391 114.801C47.4368 112.053 44.4688 109.304 41.4731 106.611C40.6548 105.875 39.8226 105.139 38.9905 104.417C38.1028 103.64 37.1042 102.974 36.2166 102.196C36.1473 102.141 36.0502 102.238 36.1196 102.307C36.8269 103.001 37.451 103.793 38.1445 104.487C38.8657 105.222 39.6146 105.931 40.3497 106.639C41.8059 108.027 43.2761 109.415 44.7462 110.789C47.6865 113.552 50.6545 116.287 53.6918 118.952C55.4116 120.451 57.0898 122.02 58.8928 123.422C59.0038 123.506 59.1147 123.367 59.0315 123.27H59.0592Z" fill="#213B74"/>
<path d="M83.6347 64.7313C81.6375 61.3301 77.1716 59.4838 72.7335 58.0122C72.6641 57.9845 72.6225 58.0955 72.6919 58.1233C73.8292 58.4981 81.055 61.9132 83.5792 64.7868C83.607 64.8146 83.6486 64.7729 83.6347 64.7313Z" fill="#213B74"/>
<path d="M80.2506 68.7445C81.263 68.5224 82.3726 68.2309 83.1354 67.4673C83.4544 67.148 83.704 66.7454 83.8011 66.3012C83.8566 66.0652 83.8566 65.8014 83.8289 65.5654C83.8011 65.3433 83.7456 64.9963 83.5515 64.8574C83.496 64.8158 83.5792 64.7464 83.607 64.8019C83.6763 64.9269 83.7873 65.0379 83.8705 65.149C83.9398 65.2462 83.9953 65.3711 84.0369 65.4821C84.1201 65.7181 84.1617 65.9541 84.1478 66.204C84.134 66.7454 83.9121 67.2591 83.5654 67.6617C82.7332 68.6334 81.4711 68.8694 80.2506 68.8139C80.1951 68.8139 80.1951 68.7445 80.2506 68.7306V68.7445Z" fill="#213B74"/>
<path d="M62.1363 56.7675C61.2903 57.8087 60.5691 59.072 59.834 60.1826C59.1406 61.2377 58.3362 62.2927 57.8091 63.445C57.2821 64.5972 57.0325 65.8466 56.9076 67.1099C56.8383 67.7346 56.8105 68.3454 56.8105 68.9701C56.8105 69.6504 56.8522 70.3306 56.8244 71.0109C56.8244 71.0803 56.9354 71.0941 56.9354 71.0109C57.0047 69.7892 57.2266 68.5259 57.4624 67.3181C57.6982 66.0687 58.0865 64.8054 58.6136 63.6532C59.6815 61.3348 61.2903 59.0581 62.7882 56.7259C62.8437 56.6426 62.2057 56.6842 62.1502 56.7537L62.1363 56.7675Z" fill="#213B74"/>
<path d="M59.848 72.2983C60.3057 71.6042 60.4582 71.3681 60.9298 70.6879C61.4013 70.0077 61.8729 69.3413 62.386 68.7027C62.8298 68.1474 63.2598 67.5366 63.8839 67.1618C64.4803 66.8008 65.1876 66.7176 65.8672 66.787C67.4206 66.9536 68.8075 67.9531 70.1112 68.7166C71.5675 69.5773 74.6048 70.9794 76.9349 70.7573C77.5729 70.7018 78.2108 70.5907 78.7795 70.2714C79.1539 70.0632 79.6532 69.8133 79.889 69.3968C80.9153 67.6893 79.681 65.718 78.3911 64.3159C76.0056 61.706 72.7879 59.7902 69.6674 58.2215C68.9046 57.8328 68.1279 57.4719 67.3512 57.0971C66.4636 56.6806 66.0198 56.3058 65.0073 56.2919C63.3846 56.2641 63.0656 56.5557 62.5802 57.0415C62.5247 57.0971 62.0948 56.8194 62.1364 56.7639C62.6912 56.1114 62.8715 55.6255 65.4789 55.7783C66.4359 55.8338 67.3235 56.3335 68.1972 56.7223C69.0987 57.1248 70.0002 57.5552 70.8879 58.0133C72.6076 58.9018 74.2858 59.8735 75.8392 61.0119C77.3093 62.0947 78.8904 63.3441 79.8751 64.9128C80.735 66.2733 80.9708 68.1891 80.1109 69.5912C79.3897 70.7712 77.8502 71.0489 77.1568 71.1321C76.4633 71.2154 75.7837 71.1877 75.0902 71.0905C74.369 70.9794 71.7339 70.1881 70.6243 69.73C69.2097 69.147 67.9476 68.1752 66.4913 67.7171C65.7979 67.495 65.0351 67.4811 64.3694 67.8281C63.7591 68.1613 63.246 68.7583 62.7744 69.258C61.6926 70.3686 60.9852 71.0905 60.0976 72.3677C59.8896 72.6731 59.6677 72.5759 59.8619 72.2844L59.848 72.2983Z" fill="#213B74"/>
<path d="M56.8526 72.1858C56.5475 74.3236 57.1716 76.4893 57.9205 78.4606C58.3227 79.4601 58.7804 80.4319 59.3213 81.362C59.8622 82.306 60.5141 83.1945 61.1382 84.0135C62.4003 85.6655 63.5098 87.3592 64.3281 89.2472C65.1325 91.1213 65.6318 93.1481 65.9786 95.2444C66.1172 93.1343 65.9369 90.9686 65.2573 88.9001C64.6055 86.8317 63.4543 84.9298 62.1922 83.2361C60.8885 81.5702 59.8345 79.8905 58.9052 78.0163C58.0176 76.1561 57.1022 74.282 56.8665 72.1719L56.8526 72.1858Z" fill="#213B74"/>
<path d="M95.4383 68.7378C95.3273 68.7378 95.2164 68.7378 95.1054 68.7239C91.125 68.3213 90.9308 60.2001 91.0279 56.7295V56.5352C91.0556 56.1187 91.0417 55.7022 90.9863 55.258C90.3899 50.5519 88.1292 45.1378 87.6992 44.1382L105.466 37.2109C105.812 39.6959 106.367 42.6112 107.172 46.1095C107.56 47.7754 107.948 49.3164 108.281 50.663C108.836 52.8702 109.308 54.7721 109.238 55.0359C106.977 60.8943 99.7516 68.7517 95.4383 68.7517V68.7378Z" fill="white"/>
<path d="M105.313 37.4468C105.659 39.8762 106.214 42.736 106.991 46.1511C107.379 47.8169 107.767 49.3718 108.1 50.7045C108.613 52.7452 109.099 54.6748 109.057 54.9525C106.824 60.7692 99.6678 68.5572 95.4238 68.5572C95.3129 68.5572 95.2019 68.5572 95.1048 68.5433C91.166 68.1546 91.1105 59.4087 91.1937 56.7017C91.1937 56.66 91.1937 56.6322 91.1937 56.6045V56.549C91.2215 56.1325 91.2076 55.7021 91.1521 55.2301C90.5835 50.7184 88.4892 45.568 87.9206 44.2214L105.313 37.4468ZM105.59 36.9609L87.4629 44.0271C87.4629 44.0271 90.1397 50.052 90.8054 55.2718C90.8609 55.7021 90.8609 56.1186 90.847 56.5212C90.847 56.5767 90.847 56.6461 90.847 56.7294C90.7776 59.1172 90.6944 68.46 95.0771 68.8904C95.188 68.8904 95.3129 68.9043 95.4377 68.9043C100.001 68.9043 107.199 60.7692 109.39 55.0774C109.543 54.6748 108.447 50.8155 107.338 46.0678C106.672 43.1802 106.006 39.9456 105.604 36.9609H105.59Z" fill="#213B74"/>
<path d="M90.8607 56.5197C90.8607 56.5197 90.8607 56.6446 90.8607 56.714C91.457 56.714 92.1089 56.6724 92.8023 56.5752C103.62 54.8816 104.397 41.2491 104.383 37.4453L99.8479 39.2084L87.4766 44.0394C87.4766 44.0394 90.1672 50.0644 90.819 55.2841C90.8745 55.7145 90.8884 56.131 90.8607 56.5336V56.5197Z" fill="#263238"/>
<path d="M110.694 26.3679C109.751 25.9236 108.697 26.3123 107.712 27.0203C107.893 22.2864 107.546 17.9135 106.547 15.4424C102.664 5.83585 88.656 2.97608 81.3469 9.43138C76.3817 13.8182 73.5524 39.3479 79.3913 46.9138C85.4244 54.7295 96.6446 53.1469 102.983 46.2891C104.287 44.8869 105.354 42.166 106.145 38.8759C106.617 38.862 107.144 38.737 107.726 38.4733C110.972 37.0018 113.648 27.7145 110.708 26.354L110.694 26.3679Z" fill="white" stroke="#213B74" stroke-width="0.5" stroke-miterlimit="10"/>
<path d="M89.7516 31.9453C89.7516 31.9453 89.8487 32.0147 89.8487 32.0703C89.7239 33.3891 89.7932 34.93 90.9582 35.4437C90.9998 35.4576 90.986 35.527 90.9444 35.5131C89.502 35.2077 89.4188 33.167 89.7516 31.9453Z" fill="#213B74"/>
<path d="M91.0282 30.6408C93.164 30.613 93.0531 34.9026 91.0698 34.9165C89.1142 34.9304 89.239 30.6546 91.0282 30.6408Z" fill="#213B74"/>
<path d="M82.0959 31.5C82.0959 31.5 81.9849 31.5555 81.9849 31.6111C81.9849 32.9438 81.7769 34.4569 80.5703 34.8734C80.5287 34.8734 80.5287 34.9567 80.5703 34.9428C82.0404 34.7762 82.3039 32.7494 82.082 31.5H82.0959Z" fill="#213B74"/>
<path d="M80.9443 30.0865C78.8223 29.8644 78.5311 34.1401 80.5005 34.3484C82.4422 34.5427 82.7196 30.267 80.9443 30.0865Z" fill="#213B74"/>
<path d="M93.2056 27.5145C92.6092 27.4173 92.0822 27.223 91.4997 27.0564C90.8479 26.8759 90.307 26.7926 89.8493 26.2651C89.5996 25.9736 89.6551 25.4322 89.9048 25.1545C90.5011 24.5437 91.3472 24.5576 92.1377 24.7519C92.9976 24.9602 93.6079 25.335 94.1488 26.0291C94.6758 26.7093 93.9684 27.6395 93.1918 27.5145H93.2056Z" fill="#213B74"/>
<path d="M79.2252 26.4749C79.8216 26.3916 80.3625 26.225 80.9312 26.0723C81.583 25.9196 82.1239 25.8502 82.5954 25.3366C82.8451 25.0589 82.8174 24.5036 82.5677 24.226C81.9991 23.5874 81.1392 23.5874 80.3486 23.7401C79.4887 23.9067 78.8646 24.2676 78.296 24.9478C77.7551 25.6003 78.4208 26.5721 79.2113 26.461L79.2252 26.4749Z" fill="#213B74"/>
<path d="M91.5555 43.1634C91.2504 43.4827 90.9452 43.913 90.4598 43.9685C90.0021 44.0241 89.4473 43.8297 89.0313 43.6631C88.9897 43.6492 88.948 43.6909 88.9758 43.7325C89.3364 44.2323 90.0576 44.5377 90.6817 44.4128C91.2781 44.2878 91.5693 43.7603 91.6941 43.2189C91.708 43.1356 91.6109 43.1217 91.5693 43.1634H91.5555Z" fill="#213B74"/>
<path d="M90.0569 39.2162C89.3357 40.3823 88.2677 41.0487 87.0889 41.2985C86.5618 41.4235 86.007 41.4512 85.4661 41.4096C85.3552 41.4096 85.2581 41.4096 85.161 41.3818C85.0639 41.3818 84.9807 41.3679 84.8698 41.3402C84.7172 41.3263 84.6201 41.2014 84.5924 41.0487C84.5924 41.0487 84.5924 40.9515 84.5924 40.8959V40.771C84.5369 39.7437 84.5924 38.1889 84.5924 38.1889C84.2179 38.3832 82.3456 39.2856 82.3595 38.7581C82.512 34.3296 82.6923 29.4152 83.788 25.0423C83.8157 24.8896 84.0376 24.9312 84.0376 25.07C84.0515 29.3319 83.3164 33.5661 83.2748 37.8418C83.8712 37.5919 84.8559 37.1477 85.3968 37.1477C85.5494 37.1893 85.2304 40.1463 85.2858 40.6044C85.2858 40.6044 85.2858 40.6183 85.2858 40.6461C87.0056 40.8265 88.2816 40.2712 89.9182 39.0774C90.0152 38.9941 90.1262 39.0774 90.043 39.1884L90.0569 39.2162Z" fill="#213B74"/>
<path d="M84.1901 15.8085C85.5354 17.988 87.8932 19.3763 90.459 19.3763C92.9693 19.3763 95.66 18.0852 96.9221 15.864C96.9637 15.7946 97.0607 15.864 97.0191 15.9196C95.6738 18.2935 93.2745 20.0565 90.459 19.9871C87.81 19.9177 85.2164 18.2796 84.0237 15.9057C83.9682 15.7946 84.1208 15.7113 84.1763 15.8085H84.1901Z" fill="#0087FF"/>
<path d="M93.7325 1.16639C96.8947 0.777687 100.029 2.7351 101.472 5.51158C102.345 7.19134 102.637 8.99605 102.595 10.8702C102.595 10.9396 102.484 10.9535 102.47 10.8702C102.359 7.91323 100.986 4.74805 98.4897 3.04052C96.1042 1.41628 93.1223 1.24969 90.7229 2.94334C89.4747 3.83181 88.5177 5.13675 88.1016 6.62216C88.06 6.78875 87.8103 6.71934 87.8381 6.55275C88.4345 3.72075 90.8477 1.51345 93.7187 1.16639H93.7325Z" fill="#213B74"/>
<path d="M69.78 4.90492C70.737 3.0308 72.3874 1.55927 74.3153 0.767974C77.0198 -0.356497 79.7659 0.323737 82.4704 1.0595C82.5397 1.07339 82.512 1.19832 82.4426 1.17056C80.1265 0.559735 77.7548 0.0738521 75.4109 0.8235C73.497 1.43432 71.791 2.69762 70.7092 4.40515C68.4624 7.93127 69.2391 12.8734 72.4984 15.4972C74.343 16.9826 76.8256 17.6489 79.1695 17.3019C79.2666 17.288 79.3082 17.4268 79.2111 17.4407C74.9116 18.2181 70.4319 15.5805 69.2253 11.3186C68.6289 9.22233 68.7814 6.86233 69.78 4.9188V4.90492Z" fill="#0087FF"/>
<path d="M107.463 19.7001C107.463 19.7001 107.976 13.7307 106.7 11.7039C105.424 9.66318 102.096 8.76083 102.096 8.76083C102.096 8.76083 100.848 3.45777 96.1182 2.44436C91.8742 1.52812 88.4346 4.88765 88.4346 4.88765C88.4346 4.88765 83.3585 -1.85918 76.1049 0.500822C69.2119 2.74977 68.6016 12.6618 74.3851 16.7015C78.4349 19.5335 85.0228 16.5905 85.0228 16.5905C85.5775 16.7571 90.8895 21.2272 96.1598 16.6877C96.1598 16.6877 99.7103 20.4081 102.345 18.5479C102.345 18.5479 105.216 20.4637 107.463 19.7001Z" fill="#213B74"/>
<path opacity="0.2" d="M106.908 35.0629C105.646 33.3693 103.801 28.33 102.913 26.0949C101.97 23.7766 102.483 14.3782 102.775 10.1719C104.397 11.5879 105.715 13.3509 106.547 15.4333C108.1 19.3065 108.087 27.8025 106.894 35.0629H106.908Z" fill="#263238"/>
<path d="M103.815 31.5551C103.815 31.5551 107.754 25.0026 110.708 26.377C113.649 27.7375 110.972 37.0386 107.726 38.4963C104.481 39.9678 103.066 36.9831 103.066 36.9831L103.815 31.5551Z" fill="white"/>
<path d="M109.863 29.0156C109.863 29.0156 109.932 29.085 109.891 29.0989C107.616 30.2095 106.534 32.4585 105.827 34.7629C106.465 33.8467 107.38 33.3192 108.587 34.0549C108.656 34.0966 108.587 34.1937 108.531 34.1799C107.561 34.041 106.881 34.2493 106.285 35.0683C105.868 35.6375 105.605 36.3455 105.314 36.998C105.217 37.2201 104.828 37.1229 104.898 36.8869C104.898 36.873 104.898 36.8453 104.912 36.8314C104.648 33.8606 106.687 29.5293 109.863 29.0156Z" fill="#263238"/>
<path d="M103.272 108.096L99.6387 68.9755L97.2532 67.0459L43.6348 66.7266L44.883 103.931L47.2685 105.847L103.272 108.096Z" fill="#37474F"/>
<path d="M100.888 106.168L97.2539 67.0476L41.25 64.8125L44.8837 103.933L100.888 106.168Z" fill="#455A64"/>
<path d="M65.4651 83.464C66.1863 81.9092 68.2667 81.1873 70.1113 81.8259C71.9559 82.4784 72.8713 84.2553 72.1362 85.7962C71.415 87.3511 69.3346 88.073 67.49 87.4344C65.6454 86.7819 64.73 85.005 65.4651 83.464Z" fill="white"/>
<path d="M158.626 146.23C152.094 146.23 144.008 141.968 125.34 128.668C118.572 126.406 110.986 122.491 105.563 110.427L105.507 110.316H105.382C105.382 110.316 101 110.857 96.2425 110.857C90.9306 110.857 84.4398 110.219 83.6354 107.137C83.4967 106.623 83.5799 106.151 83.8573 105.693C84.634 104.416 86.964 103.347 90.7919 102.514L90.7365 102.167C89.0999 102.292 87.5882 102.348 86.2567 102.348C81.3886 102.348 78.5593 101.515 78.0739 99.9459C77.4498 97.9052 79.225 96.1976 83.3581 94.8788L84.634 94.4762L83.3026 94.5456C82.623 94.5873 81.9434 94.6012 81.2915 94.6012C76.5066 94.6012 73.9408 93.5878 73.6634 91.5887C73.2335 88.5485 78.0739 86.8965 82.2069 86.0496L82.1653 85.7026H81.4025C77.7549 85.7026 75.411 85.2028 74.4679 84.2172C74.1212 83.8562 73.9686 83.4536 73.9963 82.9677C74.1905 78.22 88.1568 75.3047 98.0872 75.3047C99.8347 75.3047 101.346 75.4019 102.581 75.5823C106.215 76.1099 115.493 77.9979 123.301 83.9673C125.659 85.7581 128.599 88.8122 132.053 93.0463C139.709 98.5021 152.136 107.692 153.19 108.692C162.343 117.41 164.867 136.734 162.704 143.467C162.343 144.578 161.678 145.938 160.513 146.105C159.902 146.188 159.278 146.23 158.668 146.23H158.626Z" fill="white"/>
<path d="M98.073 75.4877C99.8067 75.4877 101.318 75.5849 102.539 75.7653C106.159 76.2929 115.396 78.1809 123.19 84.1225C125.534 85.9133 128.474 88.9536 131.914 93.1738L131.942 93.2155L131.983 93.2432C139.986 98.935 152.121 107.959 153.064 108.847C162.177 117.523 164.687 136.737 162.523 143.442C162.177 144.511 161.539 145.816 160.471 145.955C159.874 146.038 159.264 146.08 158.64 146.08C152.163 146.08 144.091 141.818 125.465 128.546L125.423 128.518H125.368C118.683 126.269 111.124 122.382 105.743 110.374L105.632 110.138L105.382 110.166C105.382 110.166 101.013 110.693 96.27 110.693C88.739 110.693 84.4396 109.458 83.8293 107.098C83.7045 106.64 83.7738 106.209 84.0235 105.793C84.7724 104.585 87.1302 103.502 90.8471 102.697L90.75 102.017C89.1135 102.142 87.6156 102.197 86.2703 102.197C81.4854 102.197 78.7115 101.406 78.2539 99.9207C77.6575 97.991 79.405 96.3529 83.4271 95.0618L85.9652 94.2428L83.3023 94.3816C82.595 94.4232 81.9292 94.4371 81.2912 94.4371C76.6173 94.4371 74.107 93.4792 73.8296 91.5773C73.4135 88.6759 78.1707 87.0656 82.2344 86.2326L82.165 85.5524C81.9153 85.5524 81.6519 85.5524 81.4022 85.5524C76.9224 85.5524 75.2304 84.7611 74.5924 84.1086C74.2873 83.7893 74.1486 83.4284 74.1625 82.9842C74.3566 78.3475 88.212 75.4877 98.073 75.4877ZM98.073 75.1406C88.6558 75.1406 74.0238 77.8754 73.8157 82.9703C73.7187 85.2331 77.2553 85.8995 81.4022 85.8995C81.6519 85.8995 81.9153 85.8995 82.165 85.8995C77.3524 86.8851 73.0529 88.6065 73.4828 91.6329C73.8296 94.0206 77.1582 94.7842 81.2912 94.7842C81.9431 94.7842 82.6227 94.7703 83.3162 94.7286C79.7518 95.867 77.1582 97.5468 77.921 100.018C78.5174 101.947 82.0818 102.544 86.2703 102.544C87.7265 102.544 89.2661 102.475 90.7639 102.364C86.5616 103.28 82.8446 104.779 83.4826 107.195C84.3009 110.319 90.6114 111.04 96.2561 111.04C101.083 111.04 105.41 110.513 105.41 110.513C111.11 123.229 119.279 126.839 125.243 128.824C142.968 141.443 151.761 146.413 158.626 146.413C159.264 146.413 159.888 146.371 160.498 146.288C166.171 145.51 164.201 118.981 153.286 108.583C152.26 107.611 139.916 98.4491 132.177 92.9517C129.556 89.731 126.241 86.0244 123.398 83.8449C115.631 77.9171 106.478 76.0013 102.594 75.4183C101.346 75.2378 99.7928 75.1406 98.073 75.1406Z" fill="#213B74"/>
<path d="M101.859 83.9532C99.2932 83.9115 96.6997 83.8421 94.1477 84.0365C91.5958 84.2169 89.0438 84.4946 86.5058 84.9111C80.3062 85.9522 76.5893 87.5626 76.825 87.4932C82.5114 85.7162 91.6513 84.9111 94.2171 84.7306C96.769 84.5501 99.3071 84.2308 101.859 84.0504C101.928 84.0504 101.914 83.9532 101.859 83.9532Z" fill="#213B74"/>
<path d="M102.69 93.1719C99.4173 93.2552 96.1719 93.2274 92.8987 93.4495C89.6395 93.6855 86.5744 94.1853 83.3429 94.6295C83.0932 94.6712 83.1903 94.7822 83.44 94.7683C86.6854 94.449 89.7088 94.3935 92.9542 94.1159C96.1858 93.8243 99.445 93.4218 102.69 93.2552C102.746 93.2552 102.732 93.1719 102.69 93.1719Z" fill="#213B74"/>
<path d="M104.826 100.975C99.8196 100.85 94.7989 101.655 89.8892 102.557C89.6396 102.599 89.7921 102.752 90.0417 102.71C94.9931 102.085 98.8904 101.572 104.826 101.141C104.923 101.141 104.937 100.975 104.826 100.961V100.975Z" fill="#213B74"/>
<path d="M136.906 94.7891L126.254 133.66C126.254 133.66 154.852 150.513 161.163 146.057C167.473 141.6 163.354 119.153 156.198 110.587C153.216 107.019 136.906 94.7891 136.906 94.7891Z" fill="#0087FF"/>
<path d="M161.857 136.843V138.454C161.857 139.675 160.873 140.661 159.652 140.661C158.14 140.661 156.906 141.883 156.906 143.396V145.104H157.447V143.396C157.447 142.174 158.432 141.189 159.652 141.189C161.15 141.189 162.384 139.967 162.384 138.454V136.843H161.857ZM161.719 121.531C161.691 121.67 161.677 121.823 161.677 121.975V123.683H162.218V123.169C162.051 122.628 161.899 122.087 161.719 121.545V121.531ZM143.148 129.805C142.288 128.944 142.288 127.556 143.148 126.682C144.216 125.613 144.216 123.877 143.148 122.808L141.927 121.601L141.553 121.975L142.759 123.183C143.619 124.044 143.619 125.446 142.759 126.307C141.691 127.376 141.691 129.111 142.759 130.18L143.911 131.318L144.285 130.943L143.148 129.805ZM150.138 109.87C148.917 109.87 147.933 108.884 147.933 107.663C147.933 106.15 146.712 104.914 145.2 104.914H143.481V105.455H145.2C146.407 105.455 147.392 106.441 147.392 107.663C147.392 109.162 148.612 110.398 150.138 110.398H151.747V109.87H150.138Z" fill="white"/>
<path d="M136.545 96.0757L136.961 94.7986L136.85 94.8402C139.555 97.0475 142.259 99.2409 144.936 101.462C147.626 103.669 150.289 105.904 152.827 108.264C154.089 109.444 155.379 110.624 156.461 111.929C157.557 113.248 158.486 114.692 159.346 116.191C161.024 119.204 162.134 122.522 162.799 125.951C162.522 122.466 161.593 119.009 160.012 115.844C159.235 114.248 158.264 112.762 157.168 111.374C156.045 109.972 154.769 108.764 153.507 107.556C150.913 105.196 148.209 102.989 145.449 100.851C142.661 98.7412 139.846 96.6727 136.947 94.743L136.864 94.6875V94.7847L136.559 96.1035L136.545 96.0757Z" fill="#263238"/>
<path d="M143.162 104.433C142.51 106.335 142.011 108.32 141.47 110.263C140.929 112.207 140.416 114.164 139.917 116.122C138.932 120.037 137.961 123.951 137.046 127.894C136.796 128.963 136.546 130.046 136.311 131.129C136.061 132.281 135.964 133.475 135.7 134.627C135.686 134.71 135.811 134.752 135.839 134.655C136.103 133.697 136.491 132.781 136.782 131.823C137.073 130.837 137.337 129.838 137.6 128.852C138.114 126.895 138.627 124.951 139.126 122.994C140.125 119.079 141.095 115.164 141.969 111.221C142.455 109 143.023 106.765 143.37 104.502C143.398 104.363 143.217 104.322 143.162 104.461V104.433Z" fill="#263238"/>
<path d="M127.184 130.203C126.99 131.383 126.726 132.563 126.491 133.729L126.38 133.438C128.058 134.368 129.764 135.215 131.456 136.117L136.546 138.755C139.944 140.518 143.355 142.197 146.823 143.891C144.964 143.377 143.147 142.739 141.358 142.017C139.569 141.309 137.808 140.532 136.088 139.671C132.635 137.977 129.306 136.048 126.102 133.896L125.922 133.771L125.977 133.59C126.38 132.466 126.754 131.328 127.184 130.203Z" fill="#263238"/>
<path d="M134.318 9.42969V30.281H139.811V39.7765L149.311 30.281H213.789V9.42969H134.318Z" fill="white"/>
<path d="M134.319 9.43035C134.374 16.4687 134.61 23.4238 134.61 30.2817L134.319 29.9901H139.811L140.116 29.9763V30.2817L140.144 39.7772L139.562 39.5412L149.02 30.004C149.145 29.8791 149.117 29.893 149.284 29.893C168.271 29.8652 195.038 29.7264 213.762 29.768L213.263 30.2678L213.332 9.41648L213.762 9.84683C193.957 9.80518 154.11 9.56918 134.305 9.41648L134.319 9.43035ZM134.319 9.43035C154.124 9.26376 193.984 9.04165 213.776 9H214.206V9.43035L214.275 30.2817V30.7814H213.776C195.149 30.837 168.202 30.6842 149.298 30.6565L149.561 30.5454L140.033 40.0132L139.451 40.5824V39.7633L139.478 30.2678L139.783 30.5732H134.291L134 30.5593C134 23.4377 134.236 16.3715 134.291 9.41648L134.319 9.43035Z" fill="#213B74"/>
<path d="M148.216 16.9735V19.7639H147.426V16.9735C147.426 15.9046 146.621 15.0439 145.623 15.0439C144.624 15.0439 143.82 15.9046 143.82 16.9735V19.7639H143.029V16.9735C143.029 15.4465 144.194 14.2109 145.623 14.2109C147.051 14.2109 148.216 15.4465 148.216 16.9735Z" fill="#0087FF"/>
<path d="M143.043 17.7109L143.834 17.7387V19.7794H143.043V17.7109Z" fill="#0087FF"/>
<path d="M148.216 17.9184V19.7786H147.426V17.8906L148.216 17.9184Z" fill="#0087FF"/>
<path d="M149.229 18.7344H142.031V24.7177H149.229V18.7344Z" fill="#0087FF"/>
<path d="M160.712 17.3828L156.232 21.8529" stroke="#0087FF" stroke-miterlimit="10"/>
<path d="M156.232 17.3828L160.712 21.8529" stroke="#0087FF" stroke-miterlimit="10"/>
<path d="M161.641 19.6172H155.316" stroke="#0087FF" stroke-miterlimit="10"/>
<path d="M158.479 16.4531V22.7835" stroke="#0087FF" stroke-miterlimit="10"/>
<path d="M171.612 17.3828L167.146 21.8529" stroke="#0087FF" stroke-miterlimit="10"/>
<path d="M167.146 17.3828L171.612 21.8529" stroke="#0087FF" stroke-miterlimit="10"/>
<path d="M172.541 19.6172H166.217" stroke="#0087FF" stroke-miterlimit="10"/>
<path d="M169.379 16.4531V22.7835" stroke="#0087FF" stroke-miterlimit="10"/>
<path d="M182.529 17.3828L178.049 21.8529" stroke="#0087FF" stroke-miterlimit="10"/>
<path d="M178.049 17.3828L182.529 21.8529" stroke="#0087FF" stroke-miterlimit="10"/>
<path d="M183.457 19.6172H177.133" stroke="#0087FF" stroke-miterlimit="10"/>
<path d="M180.295 16.4531V22.7835" stroke="#0087FF" stroke-miterlimit="10"/>
<path d="M193.429 17.3828L188.963 21.8529" stroke="#0087FF" stroke-miterlimit="10"/>
<path d="M188.963 17.3828L193.429 21.8529" stroke="#0087FF" stroke-miterlimit="10"/>
<path d="M194.358 19.6172H188.033" stroke="#0087FF" stroke-miterlimit="10"/>
<path d="M191.195 16.4531V22.7835" stroke="#0087FF" stroke-miterlimit="10"/>
<path d="M204.345 17.3828L199.865 21.8529" stroke="#0087FF" stroke-miterlimit="10"/>
<path d="M199.865 17.3828L204.345 21.8529" stroke="#0087FF" stroke-miterlimit="10"/>
<path d="M205.26 19.6172H198.949" stroke="#0087FF" stroke-miterlimit="10"/>
<path d="M202.111 16.4531V22.7835" stroke="#0087FF" stroke-miterlimit="10"/>
</svg>
