<svg width="320" height="409" viewBox="0 0 320 409" fill="none" xmlns="http://www.w3.org/2000/svg">
<path d="M168.877 409C252.201 409 319.749 403.18 319.749 396C319.749 388.82 252.201 383 168.877 383C85.5533 383 18.0059 388.82 18.0059 396C18.0059 403.18 85.5533 409 168.877 409Z" fill="#9FD0FD"/>
<path d="M33.3587 391.49L164.638 392.054C196.541 366.977 199.839 329.812 177.081 307.287C163.306 293.662 145.813 296.409 129.15 294.246C129.129 294.246 129.119 294.246 129.099 294.246C123.292 293.487 117.607 292.134 112.2 289.284C95.0448 280.221 85.3766 258.855 70.946 240.882C69.1434 238.627 67.2692 236.433 65.2925 234.321C53.4223 221.638 29.8048 221.228 17.4532 239.057C-13.9378 284.363 0.441616 351.803 33.3484 391.49H33.3587Z" fill="#213B74"/>
<path d="M30.4501 287.828C33.8913 341.745 96.0896 361.871 134.937 345.723C168.714 331.677 157.663 299.628 129.15 294.266C129.13 294.266 129.119 294.266 129.099 294.266C123.292 293.508 117.608 292.154 112.2 289.304C95.0449 280.241 85.3767 258.875 70.9461 240.902C49.4486 229.727 27.9204 248.366 30.4399 287.848L30.4501 287.828Z" fill="#9FD0FD"/>
<path d="M158.573 400.875C158.461 400.875 158.348 400.854 158.235 400.813C155.009 399.675 106.043 360.726 105.306 358.717C105.101 358.153 106.904 354.657 116.685 341.226C118.098 339.289 119.573 337.289 121.078 335.27C130.306 322.874 140.456 309.813 141.449 308.531L174.663 334.183L153.371 360.203L148.629 366.006L148.67 366.078C148.793 366.314 161.124 389.474 161.861 392.468C162.342 394.477 161.451 398.086 160.028 399.901C159.536 400.526 159.024 400.854 158.563 400.854L158.573 400.875Z" fill="white"/>
<path d="M141.489 308.715L174.498 334.202L153.288 360.12L148.597 365.862L148.484 365.995L148.566 366.149C148.689 366.385 161.02 389.524 161.747 392.508C162.229 394.487 161.348 398.044 159.935 399.828C159.463 400.423 158.992 400.741 158.572 400.741C158.47 400.741 158.378 400.72 158.275 400.689C157.272 400.341 144.705 390.837 131.391 380.359C116.008 368.261 105.817 359.741 105.428 358.665C105.284 358.203 106.565 355.322 116.786 341.297C118.189 339.37 119.674 337.36 121.18 335.34C130.203 323.222 140.117 310.458 141.479 308.705M141.438 308.346C141.438 308.346 130.756 322.053 120.985 335.187C119.48 337.206 118.005 339.206 116.591 341.153C110.037 350.155 104.824 357.752 105.192 358.757C106.165 361.433 156.002 400.166 158.193 400.935C158.316 400.976 158.449 400.997 158.572 400.997C160.641 400.997 162.69 395.317 161.993 392.446C161.245 389.391 148.791 366.026 148.791 366.026L153.482 360.284L174.857 334.161L141.438 308.356V308.346Z" fill="#213B74"/>
<path d="M126.239 328.17C124.508 330.467 122.736 332.846 120.985 335.183C119.469 337.203 117.994 339.202 116.581 341.14C110.026 350.141 104.824 357.738 105.192 358.753C106.165 361.429 155.991 400.153 158.193 400.932C160.385 401.701 162.731 395.488 161.993 392.443C161.245 389.398 148.781 366.022 148.781 366.022L153.472 360.281L158.245 354.447L126.239 328.16V328.17Z" fill="#EBEBEB"/>
<path d="M158.43 401.406C156.207 400.616 105.685 360.991 104.712 358.264C104.261 357.003 112.229 345.899 120.883 334.365L153.821 360.048L149.028 365.861C149.028 365.861 161.594 389.687 162.332 392.794C163.069 395.89 160.652 402.195 158.43 401.406Z" fill="#0087FF"/>
<path d="M159.289 398.815C150.983 391.966 116.847 365.125 108.111 358.984C108.039 358.933 108.009 358.984 108.07 359.035C116.151 366.007 150.512 392.571 159.176 398.958C159.361 399.092 159.463 398.958 159.289 398.815Z" fill="#213B74"/>
<path d="M151.699 364.906C148.852 361.666 144.376 358.991 139.972 359.37C139.798 359.38 139.829 359.626 139.962 359.678C144.058 361.215 147.653 362.958 151.361 365.327C151.627 365.491 151.904 365.152 151.709 364.916L151.699 364.906Z" fill="#213B74"/>
<path d="M152.97 368.254C150.123 365.014 145.647 362.338 141.244 362.718C141.069 362.728 141.1 362.974 141.233 363.025C145.33 364.563 148.925 366.306 152.632 368.674C152.888 368.838 153.175 368.5 152.97 368.264V368.254Z" fill="#213B74"/>
<path d="M154.242 371.584C151.395 368.345 146.919 365.658 142.515 366.038C142.341 366.048 142.372 366.294 142.505 366.345C146.601 367.883 150.196 369.626 153.904 371.994C154.16 372.158 154.447 371.82 154.242 371.584Z" fill="#213B74"/>
<path d="M155.509 374.928C152.662 371.688 148.187 369.012 143.783 369.391C143.608 369.402 143.639 369.648 143.772 369.699C147.869 371.237 151.464 372.98 155.171 375.348C155.438 375.512 155.714 375.174 155.52 374.938L155.509 374.928Z" fill="#213B74"/>
<path d="M163.888 362.027C163.99 359.197 160.918 358.09 158.613 358.172C154.875 358.295 150.594 359.71 147.501 361.791C147.429 361.843 147.44 361.925 147.481 361.976C147.296 362.232 147.307 362.683 147.675 362.806C151.229 363.944 154.875 365.605 158.675 365.615C160.887 365.615 163.786 364.713 163.888 362.037V362.027ZM153.411 363.421C151.649 362.909 149.928 362.304 148.146 361.853C150.318 361.156 152.448 360.366 154.681 359.884C155.746 359.659 156.852 359.443 157.937 359.361C159.638 359.238 165.066 360.397 161.614 363.596C159.709 365.359 155.5 364.047 153.4 363.432L153.411 363.421Z" fill="#213B74"/>
<path d="M139.716 354.268C141.55 357.589 144.745 360.009 147.449 362.582C147.725 362.849 148.125 362.654 148.268 362.357C148.34 362.377 148.412 362.357 148.422 362.254C148.76 358.543 147.951 354.103 146.271 350.761C145.237 348.7 142.799 346.527 140.362 347.973C138.057 349.346 138.651 352.33 139.716 354.268ZM140.075 350.71C141.222 346.148 144.837 350.361 145.544 351.909C145.995 352.904 146.333 353.98 146.65 355.026C147.306 357.22 147.633 359.476 148.053 361.711C146.804 360.368 145.452 359.137 144.151 357.835C142.605 356.287 139.44 353.222 140.075 350.7V350.71Z" fill="#213B74"/>
<path d="M209.332 282.845C207.038 300.233 164.238 350.419 159.291 356.181C158.564 357.032 158.165 357.493 158.165 357.493L122.759 330.252L123.168 329.729L154.344 288.863C154.344 288.863 102.787 318.975 76.9883 305.308C65.4049 299.167 56.8223 288.258 56.8223 288.258L90.487 270.286C90.487 270.286 99.807 273.3 105.757 272.429C126.282 269.425 172.267 251.944 183.185 252.385C197.257 252.97 211.432 266.892 209.332 282.845Z" fill="#455A64"/>
<path d="M165.539 273.667C164.331 274.897 163.368 276.425 162.323 277.789C161.217 279.234 160.101 280.669 159.005 282.115C158.995 282.125 158.985 282.146 158.974 282.156C159.169 281.736 159.364 281.305 159.568 280.885C160.265 279.449 160.818 277.953 161.637 276.579C161.688 276.497 161.555 276.415 161.504 276.497C160.664 277.86 159.681 279.162 158.954 280.598C158.616 281.274 158.288 281.961 157.991 282.658C157.827 283.038 157.663 283.417 157.51 283.807C157.438 283.981 157.356 284.176 157.305 284.36C156.813 285.027 156.322 285.703 155.851 286.39C154.806 287.908 153.874 289.517 152.809 291.035C152.747 291.117 152.88 291.188 152.942 291.117C154.017 289.702 155.226 288.369 156.322 286.964C157.438 285.529 158.493 284.053 159.527 282.566C160.541 281.121 161.545 279.654 162.559 278.199C163.583 276.733 164.792 275.297 165.621 273.718C165.652 273.667 165.58 273.595 165.529 273.647L165.539 273.667Z" fill="#263238"/>
<path d="M161.788 349.074C159.842 347.269 157.752 345.598 155.704 343.917C153.645 342.225 151.577 340.554 149.497 338.883C145.339 335.551 141.202 332.188 137.003 328.917C134.698 327.123 132.363 325.339 129.966 323.668C129.864 323.596 129.741 323.76 129.833 323.853C133.766 327.441 137.965 330.711 142.123 334.033C146.282 337.365 150.46 340.687 154.67 343.947C156.974 345.731 159.268 347.577 161.675 349.217C161.767 349.279 161.88 349.135 161.798 349.053L161.788 349.074Z" fill="#263238"/>
<path d="M44.6872 209.264C43.7142 209.95 43.2123 211.181 43.4991 212.411C43.8576 213.969 45.3631 214.954 46.9096 214.718C46.8379 215.128 46.8482 215.569 46.9506 215.999C47.3398 217.691 48.958 218.788 50.6479 218.552C50.5967 218.901 50.6069 219.26 50.6888 219.629C51.0678 221.259 52.7065 222.284 54.3349 221.905C55.0313 221.741 55.6151 221.351 56.0248 220.828C56.5062 222.325 58.0424 223.207 59.5992 222.848C60.0293 222.745 60.4185 222.551 60.7462 222.305C60.7462 222.397 60.777 222.489 60.7975 222.571C61.1764 224.201 62.7946 225.216 64.4333 224.837C65.4165 224.611 66.1846 223.925 66.5431 223.043C67.1166 224.324 68.5402 225.042 69.9536 224.714C71.07 224.458 71.8893 223.617 72.1863 222.602C72.8418 222.91 73.6099 223.012 74.3883 222.838C75.2998 222.622 76.0372 222.059 76.4776 221.31C77.2048 221.761 78.0958 221.946 78.9868 221.73C80.4617 221.392 81.4858 220.111 81.5575 218.665C81.9365 218.727 82.3359 218.716 82.7456 218.624C84.2409 218.275 85.2343 216.871 85.0807 215.384C85.5416 215.487 86.0434 215.497 86.5453 215.384C88.3478 214.964 89.4642 213.18 89.0545 211.376C88.9726 211.006 88.8189 210.658 88.6346 210.371C88.8087 210.371 88.9828 210.35 89.1569 210.309C90.7854 209.93 91.8095 208.31 91.4306 206.68C91.2974 206.116 91.0209 205.624 90.6317 205.234C92.2499 204.701 93.2229 203.02 92.8337 201.328C92.6903 200.692 92.3728 200.149 91.9427 199.729C93.0693 198.98 93.6838 197.586 93.356 196.181C93.1205 195.146 92.4035 194.326 91.5023 193.916C91.9734 193.239 92.1577 192.378 91.9632 191.517C91.7583 190.635 91.2053 189.938 90.4679 189.548C91.1131 188.779 91.3999 187.723 91.1541 186.667C90.8161 185.211 89.5768 184.196 88.1635 184.094C88.2864 183.632 88.3068 183.13 88.1839 182.638C87.8357 181.141 86.4428 180.157 84.9475 180.3C85.0602 179.849 85.05 179.347 84.9475 178.865C84.5276 177.061 82.7353 175.953 80.9533 176.364C80.6972 176.425 80.4514 176.517 80.2261 176.63C80.2261 176.456 80.1851 176.281 80.1442 176.097C79.7345 174.303 77.9319 173.185 76.1499 173.595C75.8733 173.657 75.607 173.749 75.3715 173.893C75.4022 173.585 75.3715 173.267 75.2998 172.949C74.8799 171.145 73.0876 170.028 71.285 170.448C70.3633 170.663 69.6156 171.237 69.165 172.016C68.3866 171.186 67.1986 170.796 66.0208 171.073C65.14 171.278 64.4333 171.801 63.9826 172.498C63.3579 171.319 62.006 170.663 60.6438 170.981C59.5787 171.227 58.7798 171.996 58.4521 172.97C57.7556 172.447 56.8441 172.222 55.9326 172.437C54.6319 172.734 53.7409 173.831 53.6077 175.092C52.8601 174.559 51.9178 174.354 50.9551 174.58C49.3779 174.949 48.323 176.363 48.3639 177.912C48.0055 177.86 47.6265 177.871 47.2578 177.953C45.6294 178.332 44.6155 179.962 44.9944 181.592C45.0763 181.961 45.2197 182.3 45.4246 182.587C45.3529 182.587 45.2914 182.607 45.23 182.617C43.4274 183.038 42.3111 184.832 42.731 186.636C42.8027 186.954 42.9256 187.272 43.0894 187.539C42.8231 187.518 42.5466 187.549 42.2803 187.61C40.6519 187.99 39.638 189.61 40.0169 191.24C40.2013 192.05 40.7133 192.726 41.3791 193.136C40.5802 193.844 40.191 194.961 40.4471 196.079C40.6314 196.879 41.123 197.535 41.7682 197.955C40.529 198.663 39.8428 200.129 40.1808 201.595C40.5085 202.999 41.6863 204.004 43.0485 204.148C42.3213 204.855 41.9731 205.911 42.2189 206.967C42.5057 208.187 43.4991 209.079 44.6769 209.284L44.6872 209.264Z" fill="#213B74"/>
<path d="M72.6049 235.294C78.9036 244.357 100.514 267.866 115.456 271.27C123.691 273.146 163.48 278.723 168.929 273.751C175.32 267.938 172.349 246.008 167.28 245.803C151.784 245.198 123.107 248.233 115.938 246.643C112.701 245.926 95.526 234.843 77.1829 225.964C70.2493 222.612 68.5389 229.44 72.6049 235.284V235.294Z" fill="#774442"/>
<path d="M151.642 246.888C151.642 246.806 151.509 246.765 151.499 246.857C151.048 249.113 150.864 251.43 150.608 253.706C150.341 256.064 150.116 258.432 149.901 260.801C149.481 265.517 148.979 270.264 148.836 275C148.836 275.205 149.102 275.205 149.133 275C149.84 270.356 150.219 265.63 150.659 260.944C150.874 258.627 151.089 256.3 151.253 253.973C151.417 251.614 151.673 249.236 151.642 246.868V246.888Z" fill="#263238"/>
<path d="M102.688 238.889C99.1752 245.697 94.9248 252.156 91.2071 257.323C91.0842 257.2 90.951 257.087 90.8281 256.985C94.5254 251.828 98.7553 245.399 102.237 238.633C102.391 238.715 102.545 238.797 102.688 238.889Z" fill="white"/>
<path d="M106.99 241.287C103.436 248.413 99.0018 255.23 95.1099 260.664C94.9767 260.562 94.8436 260.449 94.7207 260.336C98.5921 254.913 103.017 248.125 106.55 241.041C106.704 241.123 106.847 241.205 106.99 241.287Z" fill="white"/>
<path opacity="0.1" d="M124.204 274.887C118.028 273.913 112.467 272.57 109.19 270.725C98.2924 264.584 80.5536 248.949 73.7633 238.071C68.581 229.766 68.6732 224.343 74.9206 225.225L124.204 274.887Z" fill="#020100"/>
<path d="M115.968 245.944C113.623 245.38 95.7404 234.646 82.4875 227.961C78.6264 226.013 75.7075 225.142 73.6694 225.142C69.7775 223.327 66.1212 223.635 62.8336 225.378C46.5594 234.031 40.6602 296.099 40.6602 296.099C41.6126 296.407 55.0191 292.818 68.7328 289.004C83.0099 288.225 104.825 281.858 104.825 281.858L94.8186 260.431C99.9395 264.706 105.06 268.397 109.188 270.724C120.085 276.855 156.187 277.429 156.187 277.429L158.85 244.601C158.85 244.601 118.323 246.508 115.978 245.944H115.968Z" fill="#0087FF" stroke="#213B74" stroke-width="0.25" stroke-miterlimit="10"/>
<path d="M71.2145 254.691C65.4689 258.597 58.9141 261.939 52.7793 264.636V264.082C58.8834 261.386 65.4074 258.054 71.0916 254.168C71.1428 254.342 71.1735 254.517 71.2145 254.691Z" fill="white"/>
<path d="M72.4042 259.683C66.3616 263.815 59.3972 267.311 52.9858 270.089L52.9551 269.536C59.3459 266.767 66.2694 263.271 72.2608 259.16C72.312 259.345 72.3632 259.519 72.4042 259.683Z" fill="white"/>
<path d="M83.6051 233.424C85.0492 235.116 86.6059 236.715 88.1114 238.376C87.415 237.146 86.7186 235.905 85.9812 234.696C85.9709 234.675 86.0016 234.644 86.0119 234.665C87.0975 236.111 88.091 237.597 88.8693 239.217C89.9754 240.478 91.0406 241.78 91.9726 243.185C93.0992 244.866 94.0312 246.671 94.533 248.639C95.0246 250.607 95.0246 252.678 94.7071 254.678C94.3282 256.995 93.5908 259.219 92.8022 261.413C92.6998 261.701 92.2901 261.526 92.3618 261.239C93.4167 257.415 94.615 253.386 93.7649 249.398C92.9251 245.461 90.4568 242.118 88.0705 238.991C86.6264 237.105 85.1618 235.208 83.4924 233.527C83.4207 233.455 83.5436 233.353 83.6153 233.435L83.6051 233.424Z" fill="#213B74"/>
<path d="M124.429 246.58C111.083 245.964 94.5737 252.875 94.5737 252.875C85.7146 255.756 73.5372 262.809 73.148 262.768C72.2774 262.676 71.2635 256.125 66.7776 237.004C63.152 221.533 57.3244 228.494 55.4707 239.003C50.9438 264.706 54.6206 284.103 58.9836 286.492C69.5326 292.264 88.8998 283.693 98.4861 280.033C103.167 279.746 109.23 278.28 115.662 271.021C115.662 271.021 130.133 277.562 132.581 273.636C133.523 272.118 131.536 270.324 128.935 268.756C128.935 268.756 128.925 268.756 128.914 268.745C128.72 268.633 128.535 268.52 128.341 268.407C132.53 270.078 137.149 271.38 138.337 269.648C139.453 268.017 137.968 266.192 135.633 264.542C135.633 264.542 135.643 264.542 135.653 264.532C139.248 265.854 142.608 266.428 143.529 264.491C144.134 263.23 143.386 261.907 141.993 260.666C141.993 260.666 142.003 260.666 142.014 260.677C142.044 260.697 141.962 260.625 141.778 260.472C141.245 260.021 140.621 259.58 139.955 259.149C138.982 258.493 137.671 257.693 136.073 256.842C140.406 258.247 145.496 259.344 146.121 257.058C147.329 252.567 128.966 246.774 124.439 246.569L124.429 246.58Z" fill="white" stroke="#213B74" stroke-width="0.25" stroke-miterlimit="10"/>
<path d="M91.2365 242.827C76.6727 249.963 56.5681 252.69 48.1289 253.551C48.1699 253.377 48.2211 253.203 48.2723 253.028C56.773 252.136 76.5601 249.43 90.9395 242.396C91.0419 242.54 91.1443 242.684 91.2365 242.827Z" fill="white"/>
<path d="M93.4686 246.845C78.0035 255.293 54.6216 258.133 46.7969 258.881C46.8276 258.707 46.8686 258.522 46.9198 258.348C54.8776 257.579 77.9831 254.729 93.2535 246.373C93.3355 246.537 93.4072 246.691 93.4686 246.845Z" fill="white"/>
<path d="M91.5736 252.723L105.072 281.614C105.072 281.614 63.1834 293.846 57.5095 286.484C51.8253 279.123 52.2247 255.973 54.8876 239.959C57.5504 223.945 64.7504 223.637 67.9049 238.113C71.0593 252.59 72.9131 261.735 73.4764 261.653C74.0397 261.571 91.5736 252.713 91.5736 252.713V252.723Z" fill="#0087FF"/>
<path d="M85.8686 256.852C85.8277 256.78 85.6945 256.811 85.7253 256.903C86.4729 259.077 87.4869 261.168 88.4189 263.27C89.3816 265.444 90.375 267.597 91.389 269.75C93.4066 274.035 95.373 278.382 97.6364 282.545C97.7389 282.729 97.9642 282.586 97.8925 282.401C96.1616 278.034 94.103 273.758 92.1161 269.504C91.1329 267.392 90.1395 265.28 89.1153 263.188C88.0706 261.066 87.0874 258.882 85.8686 256.862V256.852Z" fill="#213B74"/>
<path d="M82.7057 287.172C81.5587 287.141 80.3297 287.561 79.2031 287.756C77.9945 287.971 76.7758 288.166 75.5672 288.32C73.2116 288.627 70.8355 288.863 68.4594 288.935C66.1243 288.997 60.3275 288.648 58.5557 287.028C56.9989 285.613 55.903 283.378 55.5241 281.81C54.8789 279.103 54.4385 276.335 54.0902 273.577C53.3528 267.723 53.3016 261.828 53.5372 255.932C53.5986 254.292 53.7011 252.662 53.824 251.022C53.9469 249.361 54.1415 247.69 54.1927 246.018C54.1927 245.957 54.0902 245.947 54.08 246.008C53.4757 248.643 53.2095 251.391 52.9739 254.087C52.8715 252.395 52.6666 250.714 52.6462 249.022C52.6462 248.92 52.4925 248.93 52.4925 249.022C52.5233 250.806 52.4004 252.58 52.472 254.364C52.513 255.369 52.6052 256.363 52.7178 257.358C52.5745 259.623 52.513 261.889 52.5335 264.155C52.5949 270.06 53.0353 276.181 54.6126 281.892C55.309 284.403 56.3639 286.813 58.6683 288.166C59.9997 288.945 62.3963 289.478 64.1784 289.612C68.2136 289.93 72.2694 289.591 76.2432 288.843C77.3595 288.638 78.4657 288.402 79.5718 288.146C80.6062 287.91 81.8045 287.766 82.7467 287.274C82.7979 287.243 82.7672 287.172 82.716 287.172H82.7057Z" fill="#213B74"/>
<path d="M91.2757 252.424C88.1929 253.962 85.0999 255.52 82.0376 257.089C80.5218 257.868 79.006 258.637 77.4903 259.416C76.0359 260.165 73.2604 261.672 73.2604 261.672C73.2297 260.975 72.6971 258.955 72.4001 257.653C72.0826 256.238 71.7549 254.813 71.3862 253.408C71.294 253.039 71.1916 252.68 71.0892 252.311C71.0277 251.635 70.9663 250.958 70.8946 250.281C70.7921 249.195 70.7 248.077 70.5361 246.99C70.5361 246.949 70.4746 246.949 70.4746 246.99C70.362 248.026 70.3927 249.072 70.4951 250.117C70.024 248.415 69.5427 246.713 69.0306 245.022C69.0101 244.96 68.9281 244.991 68.9384 245.053C69.4914 247.913 70.0752 250.773 70.7307 253.613C71.0482 254.987 71.3964 256.361 71.7549 257.725C72.1031 259.047 72.8507 262.143 72.9736 262.102C74.5611 261.559 76.0769 260.78 77.5927 260.062C79.1699 259.314 80.7369 258.545 82.2937 257.766C85.3252 256.248 88.3773 254.7 91.2962 252.988C91.2962 253.008 91.7468 253.941 91.7775 253.982C91.8595 254.105 91.9516 253.89 91.9209 253.757C91.8595 253.521 91.3269 252.393 91.2552 252.424H91.2757Z" fill="#213B74"/>
<path d="M153.189 273.615H93.4688V276.301H153.189V273.615Z" fill="#C7C7C7"/>
<path d="M106.241 273.615L104.203 276.301H153.19V273.615H106.241Z" fill="#A6A6A6"/>
<path d="M108.801 276.303H166.995L171.849 236.729H113.645L108.801 276.303Z" fill="#C7C7C7"/>
<path d="M136.782 256.516C136.751 258.474 138.308 260.063 140.264 260.063C142.22 260.063 143.838 258.474 143.869 256.516C143.9 254.558 142.343 252.969 140.387 252.969C138.431 252.969 136.812 254.558 136.782 256.516Z" fill="white"/>
<path d="M171.368 240.553C173.56 243.946 178.978 247.904 179.725 250.815C180.401 253.44 178.312 254.67 178.312 254.67C178.312 254.67 181.446 255.747 181.692 258.505C181.815 259.92 179.664 261.365 179.664 261.365C179.664 261.365 182.143 262.339 182.204 264.8C182.255 266.758 180.094 267.906 180.094 267.906C180.094 267.906 182.03 269.946 181.446 271.966C180.258 276.047 163.595 278.251 160.205 272.448C158.627 269.741 162.724 269.424 162.724 269.424C162.724 269.424 156.722 268.46 156.18 265.025C155.637 261.601 160.983 261.509 160.983 261.509C160.983 261.509 155.176 260.514 154.971 256.905C154.756 253.153 160.123 253.973 160.123 253.973C160.123 253.973 156.087 251.953 156.559 249.155C157.347 244.531 166.852 249.442 170.395 248.088L171.358 240.553H171.368Z" fill="white" stroke="#213B74" stroke-width="0.25" stroke-miterlimit="10"/>
<path d="M179.779 268.142C179.83 268.131 179.861 268.203 179.81 268.224C174.505 270.284 168.052 270.92 162.512 269.474C162.327 269.423 162.327 269.116 162.542 269.126C168.534 269.536 173.88 269.413 179.789 268.142H179.779Z" fill="#213B74"/>
<path d="M179.747 261.383C179.809 261.372 179.84 261.475 179.768 261.495C174.289 263.587 166.996 264.11 160.81 261.68C160.595 261.598 160.493 261.311 160.739 261.383C164.969 262.685 174.432 262.541 179.737 261.383H179.747Z" fill="#213B74"/>
<path d="M159.746 253.664C165.768 255.766 171.851 255.714 178.099 254.771C178.181 254.761 178.191 254.874 178.119 254.904C175.19 256.196 171.145 256.391 167.99 256.268C164.969 256.155 162.255 255.438 159.674 253.879C159.571 253.818 159.623 253.623 159.746 253.664Z" fill="#213B74"/>
<path d="M74.7441 234.364C68.9473 234.364 61.2352 228.161 60.293 227.392C60.6719 226.931 62.4745 224.901 65.4548 224.05L65.5368 224.03V223.948C65.9976 219.775 67.1652 210.199 67.3598 208.682L78.5336 216.012L76.3725 225.086V225.168L76.4442 225.301C77.8781 225.906 78.7896 226.449 78.7999 226.459C78.7794 226.459 80.6024 229.515 79.6397 231.842C79.1583 233 78.0727 233.79 76.393 234.2C75.8912 234.323 75.3381 234.384 74.7543 234.384L74.7441 234.364Z" fill="white"/>
<path d="M67.4518 208.886L78.3695 216.053L76.3724 224.429L76.229 225.044V225.075V225.106V225.177V225.352L76.3928 225.423C77.6218 225.936 78.4617 226.408 78.6768 226.541C78.9123 226.961 80.3871 229.688 79.5166 231.79C79.0557 232.908 77.9906 233.677 76.3621 234.076C75.8705 234.199 75.3277 234.261 74.7542 234.261C69.1724 234.261 61.7778 228.448 60.4874 227.392C60.9892 226.797 62.7303 224.982 65.4956 224.183L65.6595 224.132L65.6799 223.957C66.1101 219.949 67.2162 210.926 67.462 208.896M67.2572 208.456C67.2572 208.456 65.9155 219.364 65.4239 223.926C61.9827 224.911 60.1289 227.412 60.1289 227.412C60.1289 227.412 68.4862 234.497 74.7542 234.497C75.3277 234.497 75.891 234.435 76.4236 234.302C82.753 232.754 78.8713 226.326 78.8713 226.326C78.8713 226.326 77.9701 225.772 76.5055 225.167C76.5055 225.126 76.5055 225.095 76.5055 225.095L76.6489 224.48L78.687 215.93L67.2674 208.445L67.2572 208.456Z" fill="#213B74"/>
<path d="M78.6668 215.93L76.6287 224.48C74.2014 223.527 68.9883 220.769 66.5508 214.258C66.899 211.306 67.2063 208.855 67.237 208.497C67.237 208.466 67.237 208.445 67.237 208.445L68.6811 209.317L78.6566 215.919L78.6668 215.93Z" fill="#213B74"/>
<path d="M64.4006 208.536C65.179 210.679 59.1056 200.96 58.9725 199.371C58.8394 197.782 61.0209 189.703 67.2581 185.673C72.4916 182.3 79.5175 183.469 80.7363 183.695C83.0509 184.105 84.5667 185.243 84.5667 185.243C84.5667 185.243 75.3593 183.684 68.0365 186.76C64.5031 188.247 61.4715 200.498 64.3904 208.536H64.4006Z" fill="#9FD0FD" stroke="#213B74" stroke-miterlimit="10"/>
<path d="M64.3516 185.284C64.3516 185.284 65.5601 180.404 69.5544 178.609C69.5544 178.609 70.7015 182.772 69.6773 184.587C69.1652 185.489 66.0107 186.811 65.4679 186.391C64.9149 185.971 64.3618 185.284 64.3618 185.284H64.3516Z" fill="#9FD0FD"/>
<path opacity="0.1" d="M64.3501 185.285C64.3501 185.285 64.9134 185.972 65.4562 186.382C65.4767 186.403 65.5074 186.413 65.5381 186.423C65.5689 186.444 65.5996 186.444 65.6508 186.454C65.6815 186.454 65.702 186.454 65.743 186.454C66.1629 186.475 66.8593 186.28 67.566 185.972C67.2997 185.449 66.9208 184.783 66.5521 184.332C66.2346 183.942 65.5791 183.727 64.9543 183.594C64.514 184.568 64.3398 185.265 64.3398 185.265L64.3501 185.285Z" fill="#050400"/>
<path d="M63.5203 186.164C63.5203 186.164 57.4674 187.118 55.1016 189.25C55.1016 189.25 57.5698 191.772 60.6936 191.598C62.0967 191.516 65.1283 187.958 64.7083 187.343C64.2884 186.728 63.5203 186.164 63.5203 186.164Z" fill="#9FD0FD"/>
<path opacity="0.1" d="M62.1567 186.42C62.2182 186.995 62.4128 187.774 62.8634 188.297C63.1195 188.594 63.5086 188.819 63.9183 189.004C64.5021 188.256 64.8503 187.579 64.6967 187.343C64.2768 186.738 63.5086 186.164 63.5086 186.164C63.5086 186.164 62.9658 186.246 62.1465 186.42H62.1567Z" fill="#050400"/>
<path d="M63.3378 187.662C64.1161 188.441 65.3759 188.431 66.1542 187.662C66.9326 186.883 66.9224 185.621 66.1542 184.842C65.3759 184.063 64.1161 184.073 63.3378 184.842C62.5594 185.621 62.5696 186.883 63.3378 187.662Z" fill="#9FD0FD" stroke="#213B74" stroke-width="0.25" stroke-miterlimit="10"/>
<path d="M90.9163 203.514C90.5988 188.085 82.4566 184.168 75.5639 184.671C68.999 185.152 62.2804 189.745 63.3148 203.422C62.4647 202.715 61.5225 202.274 60.6929 202.664C58.4397 203.72 60.4983 210.855 62.9973 211.973C63.8985 212.383 64.6155 212.332 65.1685 212.116C68.7532 220.862 76.2296 220.985 78.7286 220.933C82.047 220.872 91.2441 218.934 90.9266 203.504L90.9163 203.514Z" fill="white" stroke="#213B74" stroke-width="0.5" stroke-miterlimit="10"/>
<path d="M88.539 201.061C88.1806 201 87.8631 200.887 87.5046 200.795C87.1154 200.682 86.7877 200.641 86.5112 200.313C86.3575 200.139 86.3883 199.8 86.5419 199.647C86.9003 199.267 87.4124 199.288 87.8938 199.39C88.4161 199.513 88.7848 199.739 89.1126 200.159C89.4301 200.569 89.0102 201.143 88.5288 201.061H88.539Z" fill="#213B74"/>
<path d="M78.0432 201.84C78.4016 201.82 78.7396 201.738 79.0981 201.676C79.4975 201.605 79.8252 201.594 80.1325 201.297C80.2964 201.143 80.3066 200.805 80.1632 200.631C79.8457 200.221 79.3234 200.18 78.842 200.251C78.3095 200.323 77.9203 200.508 77.5516 200.897C77.1931 201.277 77.5516 201.881 78.0432 201.851V201.84Z" fill="#213B74"/>
<path d="M80.1105 204.248C80.1105 204.248 80.0285 204.299 80.0285 204.34C80.0285 205.396 79.8647 206.596 78.902 206.924C78.8712 206.924 78.8712 206.985 78.902 206.985C80.0695 206.852 80.2743 205.253 80.1002 204.258L80.1105 204.248Z" fill="#263238"/>
<path d="M79.2 203.132C77.5203 202.957 77.295 206.341 78.8518 206.505C80.388 206.658 80.6031 203.275 79.2 203.132Z" fill="#213B74"/>
<path d="M78.5237 203.264C78.2164 203.438 77.9092 203.756 77.5507 203.766C77.141 203.776 76.844 203.407 76.5982 203.049C76.5777 203.007 76.5368 203.049 76.5368 203.079C76.4856 203.725 76.6904 204.412 77.3766 204.545C78.0013 204.679 78.4929 204.135 78.6978 203.489C78.7387 203.366 78.6466 203.182 78.5237 203.254V203.264Z" fill="#213B74"/>
<path d="M86.1945 204.301C86.1945 204.301 86.2764 204.352 86.2662 204.403C86.1535 205.449 86.2047 206.669 87.1265 207.079C87.1572 207.089 87.147 207.141 87.1162 207.141C85.9692 206.895 85.918 205.275 86.1945 204.311V204.301Z" fill="#213B74"/>
<path d="M87.2086 203.275C88.8985 203.275 88.7858 206.659 87.2189 206.669C85.6723 206.669 85.785 203.286 87.2086 203.275Z" fill="#213B74"/>
<path d="M87.9025 203.522C88.1688 203.706 88.4146 204.045 88.7321 204.075C89.1008 204.116 89.3876 203.758 89.6334 203.409C89.6641 203.378 89.6846 203.409 89.6846 203.45C89.6846 204.096 89.4388 204.762 88.8141 204.865C88.2405 204.957 87.8411 204.393 87.708 203.737C87.6875 203.614 87.7796 203.44 87.8821 203.512L87.9025 203.522Z" fill="#213B74"/>
<path d="M79.3739 213.527C79.589 213.803 79.7938 214.172 80.1625 214.254C80.521 214.336 80.9716 214.234 81.3198 214.152C81.3506 214.152 81.3813 214.183 81.3608 214.213C81.0331 214.572 80.4288 214.747 79.9577 214.593C79.4968 214.449 79.3227 214.008 79.2715 213.557C79.2715 213.496 79.3432 213.486 79.3739 213.527Z" fill="#213B74"/>
<path d="M84.1566 209.776C84.1566 209.776 84.2487 211.355 84.1873 212.093C84.1873 212.165 84.0029 212.186 83.7469 212.175C83.7366 212.175 83.7264 212.175 83.7162 212.175C82.395 212.268 81.125 211.714 80.4183 210.586C80.3773 210.514 80.4695 210.443 80.5412 210.494C81.4527 211.283 82.5179 211.56 83.665 211.673C83.7366 211.468 83.4191 208.966 83.5421 208.966C83.9517 208.966 84.7199 209.305 85.1807 209.479C85.0886 206.178 84.4741 202.917 84.4331 199.637C84.4331 199.524 84.6072 199.493 84.6277 199.606C85.5187 202.979 85.7031 206.772 85.8772 210.176C85.9079 210.597 84.4331 209.92 84.1463 209.776H84.1566Z" fill="#213B74"/>
<path d="M83.7379 211.879C83.7379 211.879 83.0313 212.873 82.0378 213.242C81.6691 213.376 81.2799 213.437 80.86 213.335C80.0099 213.13 79.969 212.34 80.1124 211.674C80.225 211.12 80.4811 210.648 80.4811 210.648C80.4811 210.648 81.7408 211.786 83.7379 211.879Z" fill="#213B74"/>
<path d="M81.2883 213.26C81.1551 213.26 81.022 213.24 80.8888 213.209C80.3051 213.065 80.0797 212.594 80.2129 211.814C80.9605 211.917 81.7491 212.399 81.8823 213.158C81.6774 213.229 81.4726 213.26 81.278 213.26H81.2883Z" fill="white"/>
<path d="M80.3266 211.961C80.9514 212.084 81.5761 212.474 81.74 213.068C81.5864 213.109 81.4328 213.13 81.2894 213.13C81.1665 213.13 81.0436 213.119 80.9207 213.089C80.7363 213.048 80.2037 212.914 80.3266 211.961ZM80.1218 211.674C79.9784 212.34 80.0091 213.13 80.8695 213.335C81.0128 213.376 81.1562 213.386 81.2996 213.386C81.5557 213.386 81.8117 213.335 82.0473 213.242C81.9551 212.361 81.0436 211.756 80.132 211.674H80.1218Z" fill="#213B74"/>
<path d="M64.7083 204.855C66.3367 204.753 70.5768 200.241 70.6792 192.347C70.6792 192.347 70.0954 199.432 69.5731 200.467C69.0405 201.503 71.939 197.924 72.1131 191.568C72.1131 191.568 75.6465 194.1 78.6473 194.931C81.6482 195.761 83.4917 195.73 83.7067 195.505C83.9218 195.29 79.4974 193.905 78.2991 192.532C78.2991 192.532 86.2979 196.223 89.985 196.489C90.4151 196.52 90.2922 188.943 84.5875 185.242C78.8829 181.541 70.4744 184.412 68.0573 186.76C68.0573 186.76 66.3469 187.539 63.2642 191.763C60.1814 195.987 62.9569 204.968 64.7185 204.855H64.7083Z" fill="#213B74"/>
<path d="M61.3291 204.705C61.3291 204.705 61.2779 204.756 61.3086 204.777C63.0497 205.618 63.8896 207.35 64.4324 209.114C63.9408 208.416 63.2443 208.006 62.3123 208.58C62.2611 208.611 62.3123 208.683 62.3533 208.683C63.101 208.57 63.6233 208.734 64.0739 209.36C64.4017 209.801 64.6065 210.344 64.8216 210.836C64.8933 211 65.1903 210.939 65.1391 210.744C65.1391 210.734 65.1391 210.713 65.1288 210.703C65.3234 208.416 63.7564 205.095 61.3189 204.705H61.3291Z" fill="#213B74"/>
<path d="M286.537 356.131C285.728 358.315 246.184 407.527 243.491 408.449C242.467 408.808 234.98 403.456 226.1 396.741C224.185 395.285 222.219 393.778 220.222 392.24C207.276 382.224 193.777 371.305 193.777 371.305L220.14 338.312L245.867 360.16L251.52 364.948C251.52 364.948 275.077 352.891 278.139 352.194C281.191 351.507 287.356 353.968 286.547 356.152L286.537 356.131Z" fill="white" stroke="#213B74" stroke-width="0.25" stroke-miterlimit="10"/>
<path d="M213.309 386.847C215.573 388.621 217.918 390.435 220.222 392.229C222.219 393.777 224.186 395.295 226.091 396.74C234.97 403.456 242.457 408.797 243.481 408.449C246.175 407.526 285.718 358.325 286.528 356.131C287.337 353.947 281.171 351.496 278.119 352.173C275.057 352.87 251.501 364.937 251.501 364.937L245.847 360.139L240.112 355.269L213.299 386.847H213.309Z" fill="#EBEBEB"/>
<path d="M287.009 355.906C286.179 358.121 245.724 407.989 242.979 408.911C241.709 409.342 230.761 401.171 219.393 392.313L245.612 359.792L251.337 364.693C251.337 364.693 275.354 352.533 278.477 351.846C281.591 351.17 287.838 353.692 287.009 355.906Z" fill="#0087FF"/>
<path d="M284.436 355.002C277.451 363.194 250.044 396.904 243.756 405.526C243.704 405.598 243.756 405.629 243.807 405.567C250.904 397.601 278.045 363.676 284.569 355.105C284.702 354.92 284.579 354.818 284.436 354.992V355.002Z" fill="#213B74"/>
<path d="M250.444 362.004C247.167 364.793 244.402 369.232 244.709 373.64C244.719 373.815 244.965 373.794 245.016 373.661C246.624 369.58 248.427 366.023 250.854 362.353C251.028 362.096 250.68 361.799 250.444 362.004Z" fill="#213B74"/>
<path d="M253.794 360.793C250.517 363.582 247.751 368.021 248.059 372.43C248.069 372.604 248.315 372.583 248.366 372.45C249.974 368.37 251.776 364.812 254.204 361.142C254.378 360.885 254.029 360.588 253.804 360.793H253.794Z" fill="#213B74"/>
<path d="M257.151 359.586C253.874 362.375 251.109 366.814 251.416 371.222C251.426 371.397 251.672 371.376 251.723 371.243C253.331 367.163 255.134 363.605 257.561 359.935C257.735 359.678 257.387 359.381 257.162 359.586H257.151Z" fill="#213B74"/>
<path d="M260.513 358.377C257.235 361.166 254.47 365.605 254.777 370.013C254.788 370.188 255.033 370.167 255.085 370.034C256.692 365.954 258.495 362.396 260.922 358.726C261.096 358.469 260.748 358.172 260.523 358.377H260.513Z" fill="#213B74"/>
<path d="M247.77 349.754C244.944 349.6 243.786 352.655 243.827 354.972C243.889 358.714 245.23 363.031 247.248 366.158C247.299 366.24 247.371 366.219 247.432 366.178C247.688 366.373 248.139 366.363 248.262 365.993C249.46 362.456 251.181 358.827 251.263 355.034C251.314 352.819 250.454 349.897 247.781 349.754H247.77ZM248.979 360.262C248.436 362.016 247.801 363.728 247.32 365.501C246.664 363.318 245.906 361.175 245.466 358.93C245.251 357.853 245.056 356.746 244.995 355.659C244.903 353.957 246.152 348.544 249.286 352.05C251.017 353.988 249.624 358.181 248.979 360.262Z" fill="#213B74"/>
<path d="M239.61 373.815C242.959 372.041 245.437 368.873 248.049 366.218C248.315 365.941 248.131 365.541 247.844 365.397C247.865 365.326 247.844 365.254 247.742 365.244C244.045 364.844 239.589 365.582 236.22 367.202C234.141 368.206 231.929 370.606 233.332 373.066C234.663 375.393 237.654 374.85 239.61 373.815ZM236.066 373.394C231.529 372.164 235.8 368.617 237.367 367.94C238.371 367.509 239.446 367.181 240.501 366.894C242.703 366.279 244.956 365.992 247.199 365.602C245.837 366.833 244.587 368.165 243.266 369.437C241.689 370.954 238.575 374.071 236.066 373.394Z" fill="#213B74"/>
<path d="M244.465 355.083L216.72 392.566L123.08 327.525L114.047 321.25C114.047 321.25 111.486 322.973 107.645 325.105C102.299 328.068 94.4643 331.81 87.5306 332.835C75.9062 334.558 56.498 334.373 46.6967 321.26C38.4418 310.219 42.9277 295.804 42.9277 295.804L55.6889 290.319C55.6889 290.319 85.8919 265.128 105.464 264.37C113.77 264.042 125.876 270.347 137.08 276.929C148.275 283.511 244.465 355.104 244.465 355.104V355.083Z" fill="#455A64"/>
<path d="M114.048 321.239C114.048 321.239 111.487 322.961 107.647 325.094C100.846 316.943 86.436 302.128 86.0059 301.605L114.058 321.239H114.048Z" fill="#263238"/>
<path d="M66.7602 281.868C64.9576 283.119 63.2063 284.452 61.4242 285.744C59.6729 287.015 57.8601 288.204 56.2009 289.589C54.511 290.993 52.9031 292.5 51.3054 294.018C50.5372 294.746 49.7691 295.484 49.0317 296.242C48.2943 296.991 47.4647 297.749 46.8604 298.6C46.799 298.682 46.9219 298.775 46.9936 298.723C47.8539 298.17 48.6323 297.411 49.4106 296.755C50.2607 296.048 51.0903 295.32 51.9301 294.602C53.5585 293.218 55.2075 291.875 56.8257 290.491C58.4336 289.117 59.9289 287.61 61.5164 286.216C63.2268 284.719 65.0191 283.335 66.7909 281.92C66.8216 281.889 66.7909 281.838 66.7499 281.858L66.7602 281.868Z" fill="#263238"/>
<path d="M237.951 353.741C236.149 355.689 234.479 357.781 232.8 359.831C231.11 361.892 229.441 363.963 227.771 366.044C224.443 370.207 221.083 374.349 217.816 378.552C216.024 380.859 214.242 383.196 212.572 385.596C212.501 385.698 212.665 385.821 212.757 385.729C216.341 381.792 219.608 377.588 222.927 373.426C226.255 369.263 229.574 365.08 232.831 360.867C234.613 358.56 236.456 356.263 238.095 353.854C238.156 353.752 238.013 353.649 237.931 353.731L237.951 353.741Z" fill="#263238"/>
<path d="M161.109 354.118C156.449 350.448 151.615 346.972 146.791 343.527C141.987 340.093 137.184 336.658 132.299 333.326C130.895 332.373 129.482 331.44 128.079 330.497C126.676 329.564 125.201 328.692 123.829 327.718C123.747 327.657 123.675 327.8 123.757 327.851C125.027 328.764 126.225 329.779 127.464 330.722C128.652 331.624 129.83 332.537 131.029 333.429C133.364 335.161 135.73 336.863 138.085 338.575C142.868 342.041 147.692 345.455 152.557 348.797C155.322 350.694 158.077 352.601 160.894 354.405C161.057 354.518 161.262 354.241 161.098 354.118H161.109Z" fill="#263238"/>
<path d="M191.054 315.448C186.752 311.88 182.133 308.661 177.617 305.36C173.049 302.017 168.512 298.644 163.934 295.333C159.386 292.042 154.839 288.751 150.292 285.46C145.888 282.271 141.504 279.032 136.844 276.202C134.294 274.654 131.682 273.229 128.999 271.937C126.387 270.686 123.684 269.405 120.888 268.625C120.806 268.605 120.754 268.728 120.836 268.769C123.131 270.05 125.537 271.127 127.862 272.367C130.156 273.588 132.42 274.879 134.642 276.233C139.261 279.042 143.624 282.22 148.008 285.378C157.113 291.929 166.197 298.511 175.364 304.97C180.495 308.589 185.523 312.403 190.849 315.725C191.013 315.828 191.208 315.571 191.054 315.448Z" fill="#263238"/>
</svg>
