<svg width="314" height="268" viewBox="0 0 314 268" fill="none" xmlns="http://www.w3.org/2000/svg">
<path d="M34.1578 247.136C33.6995 244.165 39.7124 240.771 47.588 239.556C55.4636 238.341 62.2197 239.765 62.678 242.736C63.1364 245.707 57.1235 249.1 49.2478 250.315C41.3722 251.53 34.6162 250.107 34.1578 247.136Z" fill="#D1D3D4"/>
<path d="M138.224 242.198C135.521 228.11 171.405 209.384 218.374 200.374C265.342 191.363 305.608 195.479 308.311 209.567C311.014 223.655 275.129 242.381 228.161 251.391C181.193 260.402 140.927 256.286 138.224 242.198Z" fill="#D1D3D4"/>
<path d="M1.33762 230.367H1.43481L308.76 173.278C308.83 173.266 308.897 173.241 308.957 173.203C309.017 173.164 309.068 173.115 309.108 173.056C309.149 172.998 309.177 172.932 309.191 172.862C309.205 172.793 309.206 172.721 309.192 172.651C309.165 172.511 309.085 172.387 308.967 172.306C308.85 172.225 308.706 172.194 308.565 172.219L1.24042 229.297C1.0972 229.31 0.964935 229.38 0.872803 229.49C0.78064 229.6 0.736115 229.743 0.748993 229.886C0.761902 230.029 0.831146 230.162 0.941559 230.254C1.05194 230.346 1.1944 230.39 1.33762 230.377V230.367Z" fill="#D1D3D4"/>
<path d="M169.98 1.25391L22.322 29.5823V201.432L169.98 173.104V1.25391Z" fill="white"/>
<path d="M22.3328 201.973H22.43L170.12 173.634C170.242 173.609 170.352 173.542 170.43 173.446C170.509 173.35 170.552 173.229 170.552 173.104V1.25484C170.553 1.1746 170.536 1.09516 170.502 1.0223C170.469 0.949441 170.419 0.884991 170.358 0.833639C170.296 0.784951 170.224 0.749322 170.148 0.728904C170.072 0.708486 169.993 0.703702 169.915 0.714841L22.2248 29.0432C22.1019 29.0704 21.9921 29.1388 21.9135 29.237C21.8349 29.3352 21.7923 29.4574 21.7928 29.5832V201.433C21.7902 201.512 21.8065 201.59 21.8403 201.662C21.8742 201.733 21.9245 201.795 21.9872 201.843C22.082 201.928 22.2054 201.975 22.3328 201.973ZM169.44 172.651L22.8728 200.731V30.026L169.44 1.94604V172.651Z" fill="#D1D3D4"/>
<path d="M104.629 166.657C104.753 166.655 104.872 166.611 104.969 166.533C105.065 166.455 105.131 166.346 105.158 166.225C106 162.056 105.352 158.017 104.618 154.226C103.538 148.448 101.972 141.882 98.03 137.022C96.0646 134.484 93.363 132.616 90.2949 131.672C87.2268 130.729 83.9422 130.756 80.8904 131.751C80.8231 131.775 80.761 131.811 80.7077 131.859C80.6544 131.906 80.611 131.963 80.5799 132.028C80.5488 132.092 80.5306 132.161 80.5265 132.233C80.5223 132.304 80.5322 132.375 80.5556 132.443C80.579 132.51 80.6155 132.572 80.6629 132.625C80.7103 132.679 80.7677 132.722 80.8319 132.753C80.8961 132.784 80.9658 132.802 81.0369 132.806C81.1081 132.811 81.1795 132.801 81.2468 132.777C84.089 131.853 87.1473 131.831 90.0029 132.712C92.8585 133.594 95.3717 135.337 97.1984 137.702C100.978 142.368 102.458 148.783 103.56 154.431C104.272 158.114 104.899 161.991 104.1 166.009C104.085 166.078 104.085 166.15 104.099 166.22C104.112 166.289 104.139 166.356 104.178 166.415C104.217 166.474 104.268 166.525 104.327 166.565C104.385 166.604 104.451 166.632 104.521 166.646L104.629 166.657Z" fill="#D1D3D4"/>
<path d="M73.8056 133.739C75.4256 133.7 77.0383 133.508 78.6224 133.166C81.9084 132.626 85.1128 131.672 88.1588 130.326C94.9225 126.869 100.169 121.034 102.89 113.942C105.46 107.462 105.849 100.885 106.216 94.567C106.22 94.4251 106.169 94.2872 106.075 94.181C105.981 94.0748 105.85 94.0082 105.709 93.9946C105.566 93.9886 105.427 94.0382 105.32 94.1328C105.213 94.2275 105.147 94.36 105.136 94.5022C104.769 100.745 104.391 107.192 101.896 113.543C99.2804 120.382 94.2252 126.01 87.7052 129.343C84.7427 130.655 81.6252 131.584 78.428 132.108C76.3334 132.617 74.1653 132.753 72.0236 132.507C71.9527 132.495 71.8801 132.497 71.81 132.513C71.7398 132.529 71.6735 132.559 71.6149 132.601C71.5562 132.642 71.5063 132.695 71.468 132.756C71.4297 132.817 71.4038 132.885 71.3918 132.956C71.3797 133.027 71.3818 133.099 71.3978 133.169C71.4138 133.239 71.4434 133.306 71.4851 133.364C71.5267 133.423 71.5794 133.473 71.6403 133.511C71.7012 133.549 71.7691 133.575 71.84 133.587C72.4899 133.692 73.1474 133.742 73.8056 133.739Z" fill="#D1D3D4"/>
<path d="M96.8744 64.684C97.0157 64.6812 97.1503 64.6231 97.2492 64.5221C97.3482 64.4211 97.4036 64.2854 97.4036 64.144C97.4046 59.0484 96.7881 53.9713 95.5676 49.024C94.8764 46.216 93.8504 43.0732 91.5608 41.0428C87.5756 37.5112 81.2899 38.278 75.1987 39.3796C74.0431 39.5848 72.4556 40.0168 71.84 41.356C71.7815 41.4864 71.7771 41.6346 71.8277 41.7682C71.8783 41.9018 71.9798 42.0099 72.11 42.0688C72.239 42.128 72.3861 42.1339 72.5195 42.0854C72.6529 42.0369 72.7619 41.9378 72.8228 41.8096C73.2224 40.924 74.4752 40.6 75.3824 40.438C81.2252 39.358 87.2624 38.6344 90.848 41.8528C92.9216 43.6888 93.872 46.6372 94.52 49.2832C95.7204 54.1566 96.326 59.1574 96.3236 64.1764C96.3319 64.3158 96.3939 64.4466 96.4966 64.5412C96.5994 64.6359 96.7347 64.6871 96.8744 64.684Z" fill="#D1D3D4"/>
<path d="M101.648 66.6816C101.719 66.6775 101.788 66.6594 101.852 66.6283C101.916 66.5973 101.973 66.554 102.021 66.5008C102.068 66.4476 102.104 66.3857 102.127 66.3185C102.15 66.2513 102.16 66.1801 102.156 66.1092V65.9796C101.637 56.2596 100.86 41.5068 112.794 36.5388C115.966 35.3709 119.284 34.6442 122.654 34.3788C122.725 34.3703 122.793 34.3479 122.856 34.3129C122.918 34.2779 122.973 34.231 123.017 34.1748C123.061 34.1187 123.094 34.0544 123.113 33.9856C123.132 33.9168 123.138 33.8449 123.129 33.774C123.121 33.7031 123.098 33.6345 123.063 33.5723C123.028 33.51 122.981 33.4553 122.925 33.4111C122.869 33.367 122.805 33.3344 122.736 33.3151C122.667 33.2958 122.595 33.2903 122.524 33.2988C119.057 33.5654 115.644 34.3143 112.383 35.5236C99.7472 40.794 100.503 55.9788 101.076 66.0228V66.12C101.072 66.1955 101.085 66.2709 101.113 66.3412C101.141 66.4114 101.183 66.4751 101.237 66.5281C101.291 66.581 101.355 66.622 101.426 66.6485C101.497 66.6749 101.573 66.6862 101.648 66.6816Z" fill="#D1D3D4"/>
<path d="M52.6269 112.592L134.804 96.8349V51.7773L52.6269 67.5453V112.592Z" fill="white"/>
<path d="M52.6268 113.132H52.724L134.901 97.3749C135.026 97.3499 135.138 97.2825 135.219 97.184C135.3 97.0856 135.344 96.9622 135.344 96.8349V51.7773C135.344 51.6987 135.327 51.6212 135.293 51.5502C135.259 51.4792 135.21 51.4166 135.15 51.3669C135.087 51.3162 135.014 51.2794 134.936 51.2589C134.857 51.2384 134.776 51.2347 134.696 51.2481L52.5296 67.0161C52.4056 67.0388 52.2935 67.1041 52.2127 67.2007C52.1318 67.2974 52.0872 67.4193 52.0868 67.5453V112.56C52.088 112.64 52.1059 112.718 52.1394 112.791C52.1729 112.863 52.2212 112.928 52.2812 112.981C52.3755 113.07 52.4976 113.123 52.6268 113.132ZM134.264 96.3597L53.1668 111.922V67.9881L134.264 52.4361V96.3597Z" fill="#D1D3D4"/>
<path d="M67.5957 79.9541L119.835 69.9317C120.831 69.7187 121.726 69.1767 122.377 68.3931C123.027 67.6095 123.395 66.6298 123.421 65.6117C123.438 65.1645 123.351 64.7193 123.166 64.3117C122.981 63.9042 122.703 63.5455 122.355 63.2644C122.006 62.9832 121.597 62.7873 121.16 62.6924C120.722 62.5974 120.269 62.6059 119.835 62.7173L67.5957 72.7397C66.5988 72.9524 65.7022 73.494 65.05 74.2774C64.3978 75.0609 64.0277 76.0407 63.9993 77.0597C63.9837 77.5075 64.0726 77.9528 64.259 78.3602C64.4454 78.7676 64.7242 79.126 65.0732 79.4069C65.4223 79.6878 65.832 79.8835 66.2698 79.9785C66.7077 80.0735 67.1617 80.0652 67.5957 79.9541Z" fill="white"/>
<path d="M66.9044 80.5707C67.1694 80.5681 67.4335 80.5392 67.6928 80.4844L119.932 70.4404C121.042 70.1993 122.039 69.5964 122.769 68.7264C123.498 67.8564 123.917 66.7687 123.961 65.6344C123.978 65.113 123.878 64.5943 123.666 64.1174C123.455 63.6404 123.138 63.2175 122.74 62.8804C122.323 62.5487 121.837 62.3138 121.318 62.1924C120.799 62.071 120.259 62.0662 119.738 62.1784L67.52 72.2548C66.4116 72.4975 65.4149 73.1009 64.686 73.9705C63.957 74.8402 63.537 75.9269 63.4916 77.0608C63.4801 77.5792 63.5847 78.0936 63.7977 78.5664C64.0108 79.0392 64.3268 79.4583 64.7228 79.7932C65.338 80.2971 66.1091 80.572 66.9044 80.5707ZM67.4876 79.426C67.116 79.518 66.7282 79.524 66.3539 79.4435C65.9796 79.363 65.6286 79.1982 65.3276 78.9616C65.0573 78.7257 64.8425 78.433 64.6987 78.1044C64.555 77.7757 64.4857 77.4193 64.496 77.0608C64.5314 76.1747 64.8604 75.3256 65.4313 74.6472C66.0023 73.9687 66.7826 73.4994 67.6496 73.3132L119.889 63.2907C120.261 63.1971 120.649 63.1903 121.023 63.2708C121.398 63.3513 121.749 63.5171 122.049 63.7551C122.321 63.9895 122.537 64.2819 122.681 64.6109C122.825 64.9399 122.893 65.2971 122.881 65.656C122.839 66.5335 122.507 67.3725 121.939 68.0424C121.371 68.7123 120.597 69.1757 119.738 69.3604L67.4876 79.426Z" fill="#D1D3D4"/>
<path d="M67.5956 90.7873L119.835 80.7649C120.831 80.5519 121.726 80.0099 122.377 79.2263C123.027 78.4427 123.395 77.463 123.421 76.4449C123.44 75.9968 123.354 75.5503 123.17 75.1414C122.985 74.7324 122.708 74.3723 122.359 74.0899C122.011 73.8075 121.601 73.6107 121.163 73.5151C120.724 73.4196 120.27 73.428 119.835 73.5397L67.5956 83.5729C66.5987 83.7856 65.7021 84.3272 65.0499 85.1106C64.3977 85.894 64.0276 86.8739 63.9992 87.8929C63.9836 88.3407 64.0725 88.786 64.2589 89.1934C64.4453 89.6008 64.7241 89.9592 65.0731 90.2401C65.4222 90.521 65.8319 90.7167 66.2697 90.8117C66.7076 90.9067 67.1616 90.8983 67.5956 90.7873Z" fill="white"/>
<path d="M66.9044 91.3912C67.1691 91.3924 67.4332 91.367 67.6928 91.3156L119.932 81.2932C121.042 81.0522 122.039 80.4493 122.769 79.5793C123.498 78.7093 123.917 77.6216 123.961 76.4872C123.975 75.9694 123.873 75.4551 123.662 74.9821C123.45 74.5091 123.136 74.0897 122.74 73.7548C122.324 73.4205 121.839 73.1839 121.319 73.0623C120.799 72.9408 120.259 72.9376 119.738 73.0528L67.52 83.0752C66.4116 83.3219 65.4156 83.9278 64.6871 84.7989C63.9586 85.67 63.5383 86.7574 63.4916 87.892C63.4809 88.4104 63.5859 88.9245 63.7988 89.3972C64.0118 89.8699 64.3275 90.2891 64.7228 90.6244C65.3391 91.1253 66.1103 91.3964 66.9044 91.3912ZM67.4876 90.2572C67.116 90.3492 66.7283 90.3552 66.3539 90.2748C65.9796 90.1943 65.6286 90.0295 65.3276 89.7928C65.0585 89.5561 64.8445 89.2632 64.7009 88.9348C64.5572 88.6063 64.4873 88.2504 64.496 87.892C64.5295 87.0055 64.8579 86.1554 65.4291 85.4766C66.0004 84.7978 66.7818 84.3289 67.6496 84.1444L119.889 74.122C120.261 74.0284 120.649 74.0216 121.023 74.1021C121.398 74.1826 121.749 74.3484 122.049 74.5864C122.321 74.8208 122.537 75.1132 122.681 75.4422C122.825 75.7712 122.893 76.1284 122.881 76.4872C122.848 77.3723 122.521 78.2212 121.952 78.8999C121.383 79.5785 120.604 80.0482 119.738 80.2348L67.4876 90.2572Z" fill="#D1D3D4"/>
<path d="M67.5956 101.619L119.835 91.597C120.83 91.3822 121.724 90.8397 122.374 90.0565C123.025 89.2732 123.393 88.2945 123.421 87.277C123.44 86.8288 123.354 86.3824 123.17 85.9734C122.985 85.5645 122.708 85.2044 122.359 84.922C122.011 84.6396 121.601 84.4427 121.163 84.3472C120.724 84.2516 120.27 84.26 119.835 84.3718L67.5956 94.3942C66.6004 94.6103 65.706 95.1529 65.0544 95.9356C64.4028 96.7183 64.0314 97.6962 63.9992 98.7142C63.9818 99.1628 64.0695 99.6093 64.2551 100.018C64.4408 100.427 64.7194 100.787 65.0686 101.069C65.4179 101.351 65.8283 101.548 66.267 101.643C66.7057 101.739 67.1607 101.731 67.5956 101.619Z" fill="white"/>
<path d="M66.9044 102.223C67.1691 102.224 67.4332 102.199 67.6928 102.148L119.932 92.1253C121.042 91.8842 122.039 91.2813 122.769 90.4113C123.498 89.5413 123.917 88.4536 123.961 87.3193C123.975 86.8015 123.873 86.2871 123.662 85.8141C123.45 85.3412 123.136 84.9217 122.74 84.5869C122.324 84.2525 121.839 84.0159 121.319 83.8944C120.799 83.7729 120.259 83.7696 119.738 83.8849L67.52 93.9073C66.4124 94.1517 65.4168 94.7556 64.6882 95.6249C63.9595 96.4942 63.5388 97.58 63.4916 98.7133C63.4786 99.2319 63.5825 99.7469 63.7956 100.22C64.0088 100.693 64.3257 101.112 64.7228 101.446C65.3358 101.954 66.1084 102.229 66.9044 102.223ZM67.4876 101.089C67.1152 101.18 66.727 101.184 66.3526 101.102C65.9783 101.019 65.6277 100.853 65.3276 100.614C65.0567 100.379 64.8416 100.086 64.6977 99.7573C64.5539 99.4286 64.485 99.0719 64.4961 98.7133C64.5332 97.8278 64.8629 96.9796 65.4335 96.3015C66.0042 95.6234 66.7835 95.1536 67.6496 94.9657L119.889 84.9433C120.262 84.8511 120.65 84.846 121.025 84.9284C121.399 85.0109 121.75 85.1785 122.049 85.4185C122.322 85.6523 122.538 85.9447 122.682 86.2738C122.826 86.6029 122.894 86.9603 122.881 87.3193C122.846 88.2038 122.519 89.0518 121.95 89.7301C121.381 90.4083 120.603 90.8785 119.738 91.0669L67.4876 101.089Z" fill="#D1D3D4"/>
<path d="M34.0401 149.29L82.4241 140.012V116.166L34.0401 125.454V149.29Z" fill="white"/>
<path d="M34.0401 149.83H34.1481L82.5213 140.552C82.6462 140.532 82.7596 140.467 82.8408 140.37C82.922 140.273 82.9658 140.15 82.9641 140.023V116.166C82.9641 116.088 82.9468 116.01 82.9131 115.939C82.8795 115.868 82.8305 115.805 82.7697 115.756C82.7099 115.703 82.6389 115.665 82.5621 115.645C82.4853 115.624 82.4048 115.621 82.3269 115.637L33.9429 124.925C33.818 124.946 33.7046 125.01 33.6234 125.107C33.5421 125.204 33.4984 125.327 33.5001 125.454V149.279C33.5013 149.359 33.5192 149.438 33.5527 149.51C33.5862 149.583 33.6345 149.647 33.6945 149.7C33.7926 149.78 33.9139 149.825 34.0401 149.83ZM81.8841 139.559L34.5801 148.631V125.897L81.8841 116.879V139.559Z" fill="#D1D3D4"/>
<path d="M122.686 46.0958L158.272 39.2702V19.625L122.686 26.4506V46.0958Z" fill="white"/>
<path d="M122.686 46.6806H122.794L158.37 39.855C158.495 39.8343 158.608 39.7696 158.689 39.6725C158.77 39.5754 158.814 39.4524 158.812 39.3258V19.6806C158.813 19.6009 158.795 19.5222 158.759 19.4509C158.723 19.3796 158.671 19.3177 158.607 19.2702C158.548 19.2171 158.477 19.1786 158.4 19.158C158.323 19.1373 158.242 19.1351 158.164 19.1514L122.6 25.923C122.476 25.9457 122.364 26.011 122.283 26.1077C122.202 26.2043 122.158 26.3262 122.157 26.4522V46.0974C122.157 46.2406 122.214 46.378 122.315 46.4792C122.417 46.5805 122.554 46.6374 122.697 46.6374L122.686 46.6806ZM157.732 38.8722L123.226 45.4926V26.9058L157.732 20.2854V38.8722Z" fill="#D1D3D4"/>
<path d="M63.0813 139.56H63.2001L77.6289 136.795C77.7528 136.772 77.8649 136.707 77.9458 136.61C78.0267 136.514 78.0712 136.392 78.0717 136.266V121.859C78.0705 121.778 78.0516 121.698 78.0161 121.625C77.9806 121.552 77.9295 121.488 77.8665 121.438C77.8054 121.388 77.7339 121.352 77.6573 121.333C77.5807 121.315 77.5009 121.313 77.4237 121.33L62.9949 124.094C62.8719 124.117 62.7611 124.183 62.682 124.28C62.603 124.377 62.5607 124.499 62.5629 124.624V139.052C62.5619 139.133 62.5789 139.212 62.6125 139.285C62.6462 139.358 62.6956 139.422 62.7573 139.474C62.8539 139.535 62.967 139.565 63.0813 139.56ZM76.9701 135.802L63.6213 138.361V125.066L76.9701 122.507V135.802Z" fill="#D1D3D4"/>
<path d="M67.7809 131.862C66.5184 130.715 66.62 128.547 68.0079 127.019C69.3958 125.492 71.5443 125.184 72.8069 126.331C74.0694 127.478 73.9678 129.646 72.5799 131.174C71.192 132.701 69.0435 133.009 67.7809 131.862Z" fill="white"/>
<path d="M69.68 133.08C69.9334 133.08 70.1863 133.058 70.4361 133.015C71.4936 132.784 72.4442 132.207 73.1382 131.376C73.8323 130.545 74.2304 129.507 74.27 128.425C74.2871 127.931 74.1908 127.44 73.9887 126.989C73.7865 126.538 73.4838 126.139 73.1037 125.823C72.7054 125.503 72.2405 125.277 71.7433 125.161C71.2461 125.045 70.7293 125.043 70.2309 125.153C69.175 125.384 68.2257 125.959 67.5319 126.788C66.838 127.617 66.4388 128.652 66.3968 129.732C66.386 130.227 66.485 130.718 66.6867 131.17C66.8884 131.622 67.1878 132.023 67.5633 132.346C68.1614 132.83 68.9103 133.09 69.68 133.08ZM70.9868 126.157C71.2798 126.157 71.5698 126.216 71.8392 126.331C72.1085 126.447 72.3516 126.616 72.5537 126.828C72.7557 127.04 72.9125 127.291 73.0145 127.566C73.1165 127.84 73.1615 128.133 73.1468 128.425C73.1131 129.257 72.8042 130.054 72.2687 130.691C71.7331 131.328 71.0011 131.77 70.1876 131.946C69.847 132.029 69.4921 132.033 69.1497 131.958C68.8073 131.883 68.4864 131.731 68.2113 131.514C67.9582 131.293 67.7573 131.018 67.6228 130.71C67.4884 130.402 67.4238 130.068 67.4337 129.732C67.4692 128.901 67.7787 128.105 68.314 127.468C68.8493 126.831 69.5802 126.389 70.3929 126.211C70.5748 126.181 70.7592 126.167 70.9437 126.168L70.9868 126.157Z" fill="#D1D3D4"/>
<path d="M72.3261 132.097L68.2545 132.885C66.8293 133.191 65.5469 133.964 64.61 135.081C63.6731 136.198 63.1352 137.595 63.0813 139.052L77.5101 136.319C77.5405 135.67 77.4182 135.022 77.1529 134.429C76.8877 133.835 76.4869 133.312 75.9827 132.901C75.4786 132.49 74.8851 132.204 74.2501 132.064C73.615 131.924 72.9561 131.935 72.3261 132.097Z" fill="white"/>
<path d="M63.0813 139.559H63.2001L77.6289 136.794C77.7528 136.772 77.865 136.706 77.9458 136.61C78.0267 136.513 78.0712 136.391 78.0717 136.265C78.0908 135.553 77.9493 134.845 77.6576 134.194C77.366 133.543 76.9316 132.967 76.3869 132.507C75.8128 132.048 75.1433 131.724 74.4276 131.557C73.7118 131.391 72.968 131.387 72.2505 131.546L68.1789 132.334C66.6332 132.67 65.243 133.51 64.2265 134.722C63.21 135.934 62.6248 137.449 62.5629 139.03C62.5619 139.11 62.5789 139.19 62.6125 139.263C62.6462 139.335 62.6956 139.4 62.7573 139.451C62.8514 139.52 62.9647 139.558 63.0813 139.559ZM76.9485 135.812L63.6645 138.36C63.855 137.156 64.4041 136.036 65.2402 135.148C66.0763 134.26 67.1606 133.644 68.3517 133.382L72.4341 132.593C72.9945 132.463 73.5772 132.462 74.1383 132.589C74.6994 132.716 75.2244 132.969 75.6741 133.328C76.0446 133.64 76.3485 134.024 76.5674 134.456C76.7864 134.888 76.916 135.361 76.9485 135.844V135.812Z" fill="#D1D3D4"/>
<path d="M127.039 42.0474H127.147L154.417 36.8202C154.542 36.7952 154.654 36.7278 154.735 36.6293C154.815 36.5309 154.86 36.4075 154.86 36.2802V23.6658C154.858 23.5859 154.84 23.5072 154.807 23.4346C154.774 23.3621 154.725 23.2973 154.665 23.2446C154.603 23.196 154.532 23.1613 154.456 23.1426C154.379 23.124 154.3 23.1219 154.222 23.1366L126.92 28.3206C126.796 28.3433 126.684 28.4086 126.603 28.5052C126.522 28.6019 126.478 28.7238 126.477 28.8498V41.5074C126.478 41.5873 126.496 41.666 126.53 41.7386C126.563 41.8111 126.612 41.8758 126.672 41.9286C126.777 42.0087 126.906 42.0506 127.039 42.0474ZM153.78 35.8806L127.579 40.9026V29.4006L153.78 24.3678V35.8806Z" fill="#D1D3D4"/>
<path d="M154.32 36.8083C154.437 36.8101 154.552 36.7729 154.645 36.7025C154.739 36.6321 154.807 36.5326 154.838 36.4195C154.858 36.3507 154.864 36.2787 154.855 36.2077C154.847 36.1366 154.824 36.0679 154.789 36.0056C154.754 35.9433 154.707 35.8887 154.65 35.8447C154.594 35.8008 154.529 35.7686 154.46 35.7499L127.179 28.3735C127.042 28.3371 126.896 28.3563 126.772 28.4271C126.649 28.4979 126.558 28.6144 126.521 28.7515C126.503 28.8203 126.499 28.892 126.51 28.9622C126.521 29.0325 126.545 29.0998 126.583 29.1603C126.62 29.2208 126.669 29.2731 126.727 29.3142C126.785 29.3553 126.851 29.3843 126.92 29.3995L154.201 36.7867L154.32 36.8083Z" fill="#D1D3D4"/>
<path d="M127.039 42.0462C127.142 42.046 127.244 42.016 127.33 41.9598L154.611 24.1074C154.681 24.0748 154.743 24.0274 154.794 23.9686C154.844 23.9098 154.881 23.841 154.902 23.7667C154.923 23.6924 154.928 23.6144 154.917 23.5379C154.905 23.4615 154.878 23.3884 154.835 23.3236C154.793 23.2589 154.738 23.2039 154.673 23.1624C154.607 23.121 154.534 23.094 154.457 23.0833C154.381 23.0726 154.303 23.0785 154.229 23.1005C154.155 23.1226 154.086 23.1603 154.028 23.211L126.747 41.0527C126.627 41.1301 126.543 41.2521 126.512 41.3918C126.482 41.5315 126.508 41.6775 126.585 41.7979C126.635 41.8732 126.702 41.9353 126.781 41.9786C126.86 42.0219 126.949 42.0451 127.039 42.0462Z" fill="#D1D3D4"/>
<path d="M39.5913 60.9568L76.8837 53.8072V25.0684L39.5913 32.218V60.9568Z" fill="white"/>
<path d="M39.5913 61.4971H39.6885L76.9809 54.3474C77.1058 54.3268 77.2191 54.262 77.3004 54.1649C77.3816 54.0678 77.4254 53.9448 77.4237 53.8182V25.0794C77.4225 24.9985 77.4035 24.9187 77.3681 24.8459C77.3326 24.7731 77.2815 24.7091 77.2185 24.6582C77.1574 24.6084 77.0859 24.5728 77.0093 24.5541C76.9327 24.5354 76.8528 24.5341 76.7757 24.5502L39.44 31.689C39.3181 31.7139 39.2085 31.7802 39.1297 31.8767C39.051 31.9731 39.008 32.0938 39.008 32.2182V60.9571C39.0093 61.0369 39.0272 61.1157 39.0606 61.1882C39.0941 61.2608 39.1424 61.3255 39.2024 61.3783C39.3127 61.465 39.4514 61.5074 39.5913 61.4971ZM76.3113 53.3647L40.0988 60.3091V32.6394L76.3113 25.6842V53.3647Z" fill="#D1D3D4"/>
<path d="M48.9873 53.6898L67.5201 50.1474C68.341 49.9704 69.0797 49.5251 69.6195 48.8817C70.1592 48.2383 70.4693 47.4334 70.5009 46.5942C70.5143 46.223 70.4409 45.8537 70.2865 45.5159C70.1321 45.178 69.901 44.8809 69.6116 44.6481C69.3221 44.4153 68.9823 44.2532 68.6193 44.1748C68.2562 44.0965 67.8798 44.1039 67.5201 44.1966L48.9873 47.7606C48.1674 47.9379 47.4302 48.3837 46.8922 49.0273C46.3543 49.6709 46.0464 50.4755 46.0173 51.3138C46.0055 51.6827 46.0799 52.0493 46.2344 52.3845C46.389 52.7197 46.6195 53.0143 46.9078 53.2449C47.196 53.4755 47.534 53.6357 47.895 53.713C48.2559 53.7902 48.6299 53.7823 48.9873 53.6898Z" fill="white"/>
<path d="M48.4256 54.2399C48.6503 54.2392 48.8745 54.2175 49.0952 54.1751L67.52 50.6759C68.4629 50.4739 69.3111 49.9623 69.9295 49.2225C70.548 48.4827 70.9012 47.5572 70.9328 46.5935C70.9414 46.1482 70.8486 45.7068 70.6615 45.3027C70.4744 44.8985 70.1979 44.5422 69.8528 44.2607C69.4979 43.9762 69.0836 43.7751 68.6406 43.6723C68.1976 43.5695 67.7371 43.5676 67.2932 43.6667L48.8036 47.2091C47.8607 47.4111 47.0125 47.9227 46.3941 48.6625C45.7756 49.4023 45.4225 50.3277 45.3908 51.2915C45.3813 51.6887 45.454 52.0835 45.6043 52.4512C45.7546 52.819 45.9793 53.1517 46.2642 53.4285C46.5492 53.7054 46.8882 53.9203 47.2602 54.06C47.6321 54.1996 48.0289 54.2608 48.4256 54.2399ZM68.0384 44.6387C68.2905 44.6275 68.542 44.6696 68.7767 44.7623C69.0114 44.855 69.2238 44.9962 69.4002 45.1766C69.5765 45.357 69.7128 45.5726 69.8001 45.8094C69.8874 46.0461 69.9238 46.2986 69.9068 46.5503C69.8766 47.2621 69.6127 47.9441 69.1558 48.4907C68.699 49.0374 68.0747 49.4182 67.3796 49.5743L48.89 53.1599C48.6013 53.2283 48.3009 53.2307 48.0111 53.1672C47.7213 53.1036 47.4496 52.9756 47.216 52.7927C47.0005 52.608 46.8294 52.3771 46.7154 52.1172C46.6013 51.8574 46.5472 51.5751 46.5572 51.2915C46.588 50.5782 46.8535 49.8951 47.3124 49.3483C47.7714 48.8015 48.3981 48.4215 49.0952 48.2675L67.52 44.7251C67.6906 44.6913 67.8645 44.6768 68.0384 44.6819V44.6387Z" fill="#D1D3D4"/>
<path d="M41.3085 130.856H41.4057L56.1477 128.026C56.2175 128.014 56.2841 127.989 56.3436 127.951C56.4031 127.912 56.4541 127.862 56.4936 127.804C56.533 127.745 56.5601 127.679 56.573 127.609C56.586 127.54 56.5845 127.468 56.5689 127.4C56.5426 127.259 56.4621 127.135 56.3447 127.054C56.2274 126.974 56.0828 126.942 55.9425 126.968L41.2113 129.84C41.0681 129.853 40.9358 129.922 40.8437 130.033C40.7515 130.143 40.707 130.286 40.7199 130.429C40.7328 130.572 40.8021 130.704 40.9124 130.797C41.0228 130.889 41.1653 130.933 41.3085 130.92V130.856Z" fill="#D1D3D4"/>
<path d="M41.3085 136.557H41.4057L56.1477 133.727C56.2175 133.716 56.2841 133.69 56.3436 133.652C56.4031 133.614 56.4541 133.564 56.4936 133.505C56.533 133.446 56.5601 133.38 56.573 133.311C56.586 133.241 56.5845 133.17 56.5689 133.101C56.5426 132.961 56.4621 132.837 56.3447 132.756C56.2274 132.675 56.0828 132.643 55.9425 132.669L41.2113 135.498C41.0681 135.511 40.9358 135.58 40.8437 135.691C40.7515 135.801 40.707 135.944 40.7199 136.087C40.7328 136.23 40.8021 136.362 40.9124 136.454C41.0228 136.547 41.1653 136.591 41.3085 136.578V136.557Z" fill="#D1D3D4"/>
<path d="M41.3085 142.26H41.4057L56.1477 139.43C56.2175 139.419 56.2841 139.393 56.3436 139.355C56.4031 139.317 56.4541 139.267 56.4936 139.208C56.533 139.149 56.5601 139.083 56.573 139.014C56.586 138.944 56.5845 138.873 56.5689 138.804C56.5426 138.664 56.4621 138.54 56.3447 138.459C56.2274 138.378 56.0828 138.347 55.9425 138.372L41.2113 141.201C41.0681 141.214 40.9358 141.284 40.8437 141.394C40.7515 141.504 40.707 141.647 40.7199 141.79C40.7328 141.933 40.8021 142.065 40.9124 142.158C41.0228 142.25 41.1653 142.294 41.3085 142.281V142.26Z" fill="#D1D3D4"/>
<path d="M48.728 36.5709H48.836L67.844 32.9205C67.9137 32.909 67.9804 32.8833 68.0399 32.8451C68.0994 32.8069 68.1504 32.7569 68.1899 32.6982C68.2293 32.6396 68.2564 32.5734 68.2693 32.5039C68.2823 32.4344 68.2809 32.363 68.2652 32.2941C68.2389 32.154 68.1583 32.0299 68.041 31.949C67.9237 31.8681 67.7791 31.8368 67.6388 31.8621L48.6308 35.5125C48.4907 35.5387 48.3666 35.6193 48.2857 35.7366C48.2048 35.854 48.1735 35.9986 48.1988 36.1389C48.2255 36.2599 48.2923 36.3684 48.3883 36.4468C48.4843 36.5252 48.604 36.5689 48.728 36.5709Z" fill="#D1D3D4"/>
<path d="M87.0681 180.599L115.72 175.102V145.531L87.0681 151.028V180.599Z" fill="white"/>
<path d="M87.0681 181.139H87.1761L115.818 175.642C115.942 175.619 116.054 175.554 116.135 175.457C116.216 175.36 116.26 175.239 116.26 175.113V145.531C116.261 145.453 116.243 145.375 116.21 145.304C116.176 145.233 116.127 145.171 116.066 145.121C116.006 145.068 115.935 145.03 115.859 145.01C115.782 144.989 115.701 144.987 115.623 145.002L86.9601 150.499C86.8361 150.522 86.724 150.587 86.6432 150.684C86.5623 150.781 86.5177 150.902 86.5173 151.029V180.599C86.5173 180.742 86.5742 180.879 86.6755 180.981C86.7767 181.082 86.9141 181.139 87.0573 181.139H87.0681ZM115.148 174.659L87.5757 179.951V151.439L115.148 146.147V174.659Z" fill="#D1D3D4"/>
<path d="M91.928 158.46H92.0252L110.968 154.831C111.038 154.817 111.104 154.789 111.163 154.749C111.221 154.71 111.272 154.659 111.311 154.6C111.35 154.54 111.377 154.474 111.391 154.404C111.404 154.335 111.404 154.263 111.39 154.194C111.377 154.125 111.35 154.059 111.312 154C111.273 153.941 111.223 153.891 111.165 153.852C111.106 153.813 111.041 153.785 110.972 153.772C110.903 153.758 110.832 153.758 110.763 153.772L91.8308 157.401C91.6907 157.428 91.5666 157.508 91.4857 157.625C91.4048 157.743 91.3735 157.887 91.3988 158.028C91.4255 158.149 91.4923 158.257 91.5883 158.336C91.6844 158.414 91.804 158.458 91.928 158.46Z" fill="#D1D3D4"/>
<path d="M91.928 165.479H92.0252L110.968 161.85C111.038 161.836 111.104 161.809 111.163 161.769C111.221 161.729 111.272 161.678 111.311 161.619C111.35 161.56 111.377 161.494 111.391 161.424C111.404 161.354 111.404 161.283 111.39 161.213C111.377 161.144 111.35 161.078 111.312 161.02C111.273 160.961 111.223 160.911 111.165 160.871C111.106 160.832 111.041 160.805 110.972 160.791C110.903 160.778 110.832 160.778 110.763 160.792L91.8308 164.399C91.6907 164.425 91.5666 164.506 91.4857 164.623C91.4048 164.741 91.3735 164.885 91.3988 165.026C91.4212 165.151 91.4861 165.264 91.5825 165.347C91.679 165.429 91.801 165.476 91.928 165.479Z" fill="#D1D3D4"/>
<path d="M97.4793 171.323H97.5765L110.968 168.721C111.112 168.693 111.238 168.61 111.32 168.49C111.402 168.369 111.433 168.221 111.406 168.078C111.379 167.935 111.296 167.808 111.175 167.726C111.055 167.644 110.906 167.613 110.763 167.641L97.3713 170.211C97.3011 170.224 97.2342 170.251 97.1747 170.29C97.1151 170.329 97.0641 170.38 97.0248 170.44C96.9855 170.499 96.9585 170.566 96.9457 170.636C96.9329 170.706 96.9343 170.779 96.9501 170.848C96.9635 170.979 97.0251 171.1 97.1229 171.188C97.2208 171.276 97.3478 171.324 97.4793 171.323Z" fill="#D1D3D4"/>
<path d="M132.709 128.76H132.817L153.596 124.774C153.737 124.746 153.861 124.663 153.942 124.544C154.023 124.425 154.054 124.279 154.028 124.137C154.014 124.068 153.986 124.002 153.946 123.943C153.907 123.884 153.856 123.834 153.797 123.795C153.738 123.755 153.671 123.728 153.602 123.715C153.532 123.701 153.46 123.702 153.391 123.716L132.612 127.68C132.472 127.706 132.347 127.786 132.267 127.904C132.186 128.021 132.154 128.166 132.18 128.306C132.202 128.431 132.267 128.544 132.363 128.627C132.46 128.71 132.582 128.757 132.709 128.76Z" fill="#D1D3D4"/>
<path d="M132.709 136.027H132.817L153.596 131.999C153.736 131.972 153.86 131.892 153.941 131.775C154.022 131.657 154.053 131.513 154.028 131.372C153.999 131.231 153.917 131.107 153.797 131.027C153.678 130.946 153.532 130.915 153.391 130.94L132.612 134.926C132.472 134.952 132.348 135.032 132.267 135.15C132.186 135.267 132.154 135.412 132.18 135.552C132.197 135.681 132.26 135.799 132.357 135.886C132.454 135.973 132.579 136.023 132.709 136.027Z" fill="#D1D3D4"/>
<path d="M132.709 143.285H132.817L153.596 139.3C153.736 139.273 153.86 139.193 153.941 139.075C154.022 138.958 154.053 138.813 154.028 138.673C153.999 138.532 153.917 138.408 153.797 138.327C153.678 138.247 153.532 138.216 153.391 138.241L132.612 142.226C132.471 142.255 132.347 142.338 132.266 142.457C132.185 142.576 132.154 142.722 132.18 142.864C132.207 142.984 132.274 143.091 132.37 143.167C132.466 143.244 132.586 143.285 132.709 143.285Z" fill="#D1D3D4"/>
<path d="M132.709 150.553H132.817L153.596 146.568C153.667 146.555 153.735 146.527 153.795 146.488C153.855 146.448 153.907 146.397 153.948 146.337C153.988 146.278 154.017 146.211 154.032 146.14C154.046 146.069 154.047 145.996 154.033 145.926C154.02 145.855 153.993 145.787 153.953 145.727C153.913 145.666 153.862 145.614 153.803 145.574C153.743 145.533 153.676 145.505 153.605 145.49C153.535 145.475 153.462 145.475 153.391 145.488L132.612 149.484C132.472 149.51 132.347 149.591 132.267 149.708C132.186 149.826 132.154 149.97 132.18 150.111C132.204 150.234 132.27 150.345 132.366 150.425C132.463 150.506 132.583 150.551 132.709 150.553Z" fill="#D1D3D4"/>
<path d="M132.709 157.812H132.817L153.596 153.816C153.667 153.803 153.735 153.775 153.795 153.736C153.855 153.696 153.907 153.645 153.948 153.586C153.988 153.526 154.017 153.459 154.032 153.388C154.046 153.317 154.047 153.245 154.033 153.174C154.02 153.103 153.993 153.035 153.953 152.975C153.913 152.914 153.862 152.862 153.803 152.822C153.743 152.781 153.676 152.753 153.605 152.738C153.535 152.723 153.462 152.723 153.391 152.736L132.612 156.721C132.472 156.748 132.347 156.828 132.267 156.946C132.186 157.063 132.154 157.208 132.18 157.348C132.2 157.475 132.264 157.591 132.36 157.676C132.457 157.76 132.58 157.809 132.709 157.812Z" fill="#D1D3D4"/>
<path d="M140.679 163.547H140.776L153.596 161.085C153.736 161.058 153.86 160.978 153.941 160.861C154.022 160.743 154.053 160.599 154.028 160.458C153.999 160.317 153.917 160.193 153.797 160.112C153.678 160.032 153.532 160.001 153.391 160.026L140.582 162.489C140.439 162.502 140.307 162.571 140.214 162.681C140.122 162.792 140.078 162.934 140.091 163.077C140.104 163.22 140.173 163.353 140.283 163.445C140.394 163.537 140.536 163.582 140.679 163.569V163.547Z" fill="#D1D3D4"/>
<path d="M91.928 25.7917H92.0252L104.24 23.4265C104.38 23.4002 104.504 23.3196 104.585 23.2023C104.666 23.0849 104.697 22.9404 104.672 22.8001C104.643 22.6591 104.56 22.535 104.441 22.4543C104.322 22.3735 104.176 22.3426 104.035 22.3681L91.7984 24.7225C91.6583 24.7487 91.5343 24.8293 91.4533 24.9467C91.3724 25.064 91.3411 25.2086 91.3664 25.3489C91.392 25.4774 91.4626 25.5927 91.5656 25.6738C91.6685 25.755 91.797 25.7968 91.928 25.7917Z" fill="#D1D3D4"/>
<path d="M91.9281 30.3601H92.0253L104.24 28.0057C104.311 27.9922 104.379 27.9649 104.439 27.9253C104.499 27.8857 104.551 27.8346 104.592 27.775C104.632 27.7153 104.661 27.6482 104.676 27.5775C104.69 27.5069 104.691 27.434 104.677 27.3631C104.664 27.2922 104.637 27.2246 104.597 27.1642C104.558 27.1039 104.506 27.0519 104.447 27.0113C104.387 26.9707 104.32 26.9422 104.249 26.9275C104.179 26.9128 104.106 26.9122 104.035 26.9257L91.7985 29.2801C91.6584 29.3063 91.5343 29.3869 91.4534 29.5043C91.3725 29.6216 91.3412 29.7662 91.3665 29.9065C91.3898 30.037 91.4594 30.1548 91.5626 30.2381C91.6658 30.3214 91.7955 30.3647 91.9281 30.3601Z" fill="#D1D3D4"/>
<path d="M43.76 181.108C43.902 179.067 43.4679 177.028 42.5072 175.222C41.7188 173.915 40.5093 172.867 39.8613 171.485C38.7813 169.098 39.5372 166.279 39.2672 163.655C39.0421 161.45 38.0705 159.389 36.5132 157.812C35.1416 156.419 33.3705 155.469 32.0637 154.021C29.9037 151.645 29.288 148.297 28.0676 145.381C26.3243 141.183 23.3008 137.642 19.4276 135.262C21.782 139.981 16.436 145.975 18.8552 150.663C19.622 152.142 21.0908 153.222 21.6524 154.799C23.0132 158.601 18.4772 162.715 19.9352 166.474C20.6588 168.353 22.6676 169.444 23.6072 171.226C24.8708 173.634 23.8772 176.55 23.9744 179.272C24.1256 183.009 26.4044 186.367 29.1044 188.992C30.8 190.601 32.6684 192.005 34.5044 193.463C36.6644 195.202 37.604 197.038 39.5264 194.241C42.1803 190.366 43.6512 185.803 43.76 181.108Z" fill="#D1D3D4"/>
<path d="M46.1901 183.247C45.4881 180.352 44.9913 177.209 46.1901 174.477C47.5293 171.388 50.8557 169.196 51.2553 165.837C51.5037 163.677 50.3913 161.431 50.8233 159.26C51.2553 157.089 53.0373 155.62 54.4953 154.033C57.849 150.343 59.8418 145.618 60.1437 140.641C62.4033 143.307 64.2259 146.314 65.5437 149.551C66.6885 152.791 66.7209 156.711 64.7661 159.595C64.1982 160.264 63.739 161.018 63.4053 161.83C62.7357 163.99 64.5717 165.956 65.5113 167.975C66.0721 169.133 66.3061 170.422 66.1881 171.703C66.0701 172.984 65.6046 174.208 64.8417 175.244C62.9301 177.631 59.2365 178.559 58.2969 181.465C58.0585 182.55 57.9498 183.659 57.9729 184.769C57.769 186.692 56.9963 188.511 55.7535 189.992C54.5107 191.473 52.8543 192.55 50.9961 193.085C48.7281 193.636 48.7713 192.74 48.3717 190.828C47.7885 188.279 46.8057 185.806 46.1901 183.247Z" fill="#D1D3D4"/>
<path d="M38.9864 162.412C37.3772 156.839 36.7292 151.029 35.0336 145.488C33.5761 141.155 31.8001 136.935 29.72 132.863L36.632 135.779C38.846 136.708 41.2328 137.81 42.2804 139.97C44.1056 143.739 40.8332 148.61 42.7448 152.292C43.5726 153.501 44.4857 154.649 45.4772 155.727C47.5076 158.589 47.2052 162.509 46.082 165.836C45.6068 167.261 43.5116 174.648 41.6432 172.596C40.898 171.776 40.8332 168.708 40.5632 167.585C40.0772 165.846 39.44 164.14 38.9864 162.412Z" fill="#D1D3D4"/>
<path d="M42.7557 236.37C41.3841 227.266 37.0641 195.201 37.0209 194.877L38.2088 194.715C38.2088 195.039 42.5289 227.115 43.9329 236.187L42.7557 236.37Z" fill="#D1D3D4"/>
<path d="M44.3756 244.967H43.1768C43.2632 234.167 47.7668 192.868 50.3588 190.027L51.2444 190.837C49.5272 192.706 44.4836 230.16 44.3756 244.967Z" fill="#D1D3D4"/>
<path d="M46.7193 242.906L45.5205 242.852C46.6005 219.556 41.6109 170.632 41.5677 170.146L42.7557 170.027C42.7989 170.513 47.7561 219.481 46.7193 242.906Z" fill="#D1D3D4"/>
<path d="M30.9296 214.436H56.6337L54.8301 240.464C54.6673 242.628 53.6959 244.652 52.109 246.133C50.5222 247.613 48.4361 248.443 46.2657 248.456H41.2977C39.1253 248.445 37.0366 247.617 35.4474 246.136C33.8583 244.655 32.8854 242.63 32.7225 240.464L30.9296 214.436Z" fill="white"/>
<path d="M41.2976 248.996H46.2656C48.5761 248.991 50.799 248.112 52.4878 246.536C54.1767 244.959 55.2064 242.802 55.37 240.497L57.1736 214.48C57.1791 214.404 57.1685 214.329 57.1424 214.258C57.1163 214.187 57.0754 214.123 57.0224 214.069C56.9735 214.015 56.9136 213.971 56.8466 213.941C56.7795 213.911 56.707 213.896 56.6336 213.896H30.9296C30.8549 213.896 30.781 213.912 30.7125 213.941C30.644 213.971 30.5824 214.015 30.5317 214.07C30.4809 214.124 30.4421 214.189 30.4176 214.26C30.3932 214.33 30.3836 214.405 30.3896 214.48L32.1824 240.497C32.3487 242.802 33.3807 244.96 35.0713 246.536C36.7619 248.113 38.9861 248.992 41.2976 248.996ZM56.0504 214.976L54.29 240.421C54.1455 242.453 53.238 244.354 51.7497 245.745C50.2613 247.135 48.3023 247.911 46.2656 247.916H41.2976C39.2599 247.911 37.2995 247.135 35.8094 245.745C34.3193 244.355 33.4095 242.454 33.2624 240.421L31.502 214.976H56.0504Z" fill="#D1D3D4"/>
<path d="M207.92 87.4929C207.92 87.4929 179.354 94.0377 174.062 92.9793C166.956 91.5537 159.849 86.7693 153.542 83.3781C146.976 79.8357 140.582 76.0665 134.026 72.4161C130.182 70.2561 126.272 68.1717 122.395 66.0441C121.993 65.7952 121.551 65.6197 121.088 65.5257C120.702 65.4938 120.313 65.5378 119.943 65.6553C119.42 65.7908 118.935 66.047 118.528 66.4033C118.121 66.7596 117.803 67.2062 117.6 67.7073C117.016 69.4245 118.68 70.9473 119.835 72.0273C123.212 75.1665 126.69 78.2049 130.268 81.1425L124.155 80.6349C124.004 80.5862 123.842 80.5862 123.691 80.6349C123.27 80.8509 123.475 81.4881 123.766 81.8445C124.9 83.0179 126.301 83.8998 127.849 84.4149C132.73 86.4345 136.651 87.7305 140.809 90.8193C144.524 93.5409 148.304 96.2193 152.17 98.6709C158.154 102.527 167.82 109.806 175.477 108.521L211.117 102.516" fill="white"/>
<path d="M173.738 109.213C174.397 109.213 175.054 109.159 175.704 109.051L211.344 103.057L211.16 101.977L175.52 107.971C168.986 109.051 160.854 103.651 154.914 99.7302L152.602 98.2074C148.995 95.8962 145.291 93.3366 141.262 90.3774C137.949 88.0684 134.338 86.2192 130.527 84.8802L128.13 83.9082C126.667 83.4198 125.342 82.5906 124.263 81.489C124.163 81.372 124.096 81.2303 124.069 81.0786C124.069 81.0786 124.155 81.0786 124.188 81.0786L130.3 81.597C130.417 81.6087 130.534 81.5825 130.634 81.5221C130.734 81.4617 130.812 81.3705 130.855 81.2622C130.899 81.1539 130.907 81.0343 130.877 80.9213C130.847 80.8083 130.781 80.7082 130.689 80.6358C127.136 77.7306 123.637 74.6634 120.278 71.5422L120.17 71.445C119.144 70.4838 117.729 69.177 118.194 67.8378C118.367 67.4171 118.638 67.0434 118.983 66.7469C119.328 66.4504 119.739 66.2395 120.181 66.1314C120.471 66.0258 120.781 65.9888 121.088 66.0234C121.47 66.1156 121.835 66.2688 122.168 66.477L125.872 68.4966C128.529 69.933 131.175 71.3694 133.8 72.8166L140.366 76.5426C144.589 78.951 149.006 81.4458 153.326 83.7894C154.676 84.5238 156.058 85.3122 157.484 86.1222C162.798 89.1678 168.284 92.3106 173.965 93.4446C179.3 94.5246 206.883 88.2282 208.05 87.9582C208.193 87.9267 208.318 87.8396 208.397 87.716C208.476 87.5925 208.502 87.4426 208.471 87.2994C208.439 87.1562 208.352 87.0313 208.229 86.9523C208.105 86.8733 207.955 86.8467 207.812 86.8782C207.52 86.943 179.311 93.3582 174.17 92.3646C168.694 91.2846 163.262 88.1634 157.97 85.161C156.544 84.351 155.151 83.5518 153.801 82.8174C149.481 80.4738 145.086 77.9898 140.841 75.5814L134.275 71.8554C131.64 70.4154 128.994 68.9754 126.337 67.5354L122.632 65.5266C122.174 65.2379 121.664 65.0399 121.131 64.9434C120.673 64.8928 120.209 64.9407 119.77 65.0838C119.163 65.241 118.601 65.5404 118.132 65.9573C117.662 66.3741 117.298 66.8965 117.07 67.4814C116.39 69.4794 118.15 71.1318 119.338 72.2226L119.446 72.3198C122.395 75.0738 125.462 77.7198 128.583 80.3658L124.177 79.9986C123.92 79.9543 123.655 79.9921 123.421 80.1066C123.29 80.1704 123.175 80.2643 123.087 80.3807C122.999 80.497 122.939 80.6325 122.913 80.7762C122.885 81.0198 122.908 81.2665 122.981 81.5008C123.054 81.735 123.174 81.9517 123.334 82.137C124.531 83.3828 126.014 84.3171 127.654 84.8586L130.063 85.8414C133.787 87.1663 137.317 88.9824 140.56 91.2414C144.6 94.2114 148.326 96.7926 151.944 99.1254C152.667 99.579 153.434 100.097 154.255 100.637C159.849 104.309 167.226 109.213 173.738 109.213Z" fill="#163F79"/>
<path d="M272.115 103.337C288.542 115.281 290.68 140.165 291.123 158.859C291.555 176.442 287.624 193.203 283.963 210.354C280.377 227.126 270.15 231.457 253.906 235.194C229.801 240.788 200.814 239.514 176.319 236.781C151.825 234.049 150.324 216.683 152.797 196.908C153.477 191.508 157.322 188.019 161.437 185.028C166.587 181.588 171.078 177.254 174.699 172.23C186.309 155.328 187 135.348 194.755 117.02C200.889 102.516 214.573 92.4069 230.395 92.9253C246.217 93.4437 261.218 95.4093 272.115 103.337Z" fill="white"/>
<path d="M214.67 239.687C229.693 239.687 242.75 238.38 254.036 235.756C268.972 232.289 280.69 228.196 284.492 210.462L285.27 206.855C288.758 190.601 292.063 175.254 291.663 158.849C290.756 120.995 280.863 109.061 272.439 102.905C260.894 94.5136 244.716 92.9152 230.416 92.4508C214.951 91.9432 200.792 101.534 194.301 116.88C191.479 124.032 189.173 131.377 187.4 138.858C184.43 150.112 181.363 161.754 174.332 171.993C171.222 176.518 167.29 180.309 161.199 184.65C156.987 187.653 152.991 191.206 152.289 196.876C150.928 207.806 150.399 220.085 156.814 228.196C160.886 233.358 167.247 236.35 176.254 237.344C189.007 238.826 201.832 239.608 214.67 239.687ZM272.115 103.337L271.802 103.78C287.548 115.228 290.162 139.236 290.583 158.86C290.983 175.146 287.689 190.428 284.211 206.618L283.434 210.236C280.075 225.971 271.197 230.658 253.788 234.698C233.883 239.309 208.557 239.828 176.373 236.274C167.636 235.302 161.512 232.451 157.624 227.537C151.458 219.718 151.987 207.708 153.304 196.995C153.963 191.746 157.765 188.355 161.772 185.514C167.982 181.097 171.988 177.231 175.174 172.554C182.302 162.165 185.402 150.436 188.383 139.074C190.161 131.642 192.463 124.344 195.273 117.237C201.591 102.311 215.329 92.9585 230.352 93.4769C244.5 93.9305 260.473 95.5072 271.78 103.726L272.115 103.337Z" fill="#163F79"/>
<path d="M229.077 196.14C232 196.135 234.921 195.966 237.825 195.633C243.403 195.002 248.904 193.808 254.241 192.069C261.531 189.704 266.424 187.014 270.106 183.342C275.701 177.748 277.828 170.21 278.638 164.864C280.507 152.519 278.638 138.879 277.278 131.859C276.398 127.036 274.469 122.466 271.629 118.47C268.789 114.475 265.106 111.152 260.84 108.736C254.932 105.291 247.88 103.077 239.316 101.954C230.319 100.776 223.839 101.738 218.925 104.988C210.912 110.28 208.633 120.454 206.98 130.422L204.183 147.346C203.503 151.547 202.552 157.314 199.248 160.036C198.083 160.918 196.827 161.671 195.5 162.282C193.189 163.46 190.802 164.669 189.463 167.315C187.8 170.555 187.098 176.106 188.804 179.703C190.683 183.677 194.528 186.291 197.26 187.911C206.93 193.473 217.924 196.317 229.077 196.14ZM232.533 102.558C234.766 102.57 236.995 102.725 239.208 103.023C247.642 104.103 254.554 106.263 260.332 109.665C264.454 112.011 268.012 115.231 270.757 119.098C273.501 122.966 275.366 127.388 276.219 132.053C277.515 139.019 279.459 152.508 277.569 164.702C276.792 169.886 274.729 177.186 269.34 182.576C265.786 186.118 261.034 188.732 253.906 191.043C248.64 192.762 243.212 193.942 237.706 194.564C222.813 196.248 209.032 193.613 197.844 187.004C195.241 185.459 191.569 182.964 189.808 179.26C188.242 175.966 188.912 170.868 190.456 167.834C191.644 165.501 193.772 164.421 196.018 163.265C197.415 162.619 198.737 161.822 199.96 160.889C203.589 157.908 204.572 151.914 205.285 147.54L208.082 130.628C209.691 120.908 211.905 110.961 219.552 105.906C222.943 103.649 227.155 102.558 232.533 102.558Z" fill="#D1D3D4"/>
<path d="M269.48 178.969C269.587 178.968 269.691 178.936 269.779 178.877C269.868 178.817 269.936 178.733 269.977 178.634C270.005 178.569 270.02 178.499 270.02 178.428C270.021 178.357 270.007 178.287 269.98 178.221C269.952 178.156 269.912 178.097 269.862 178.047C269.811 177.997 269.751 177.958 269.685 177.932C262.633 175.016 257.935 175.697 257.74 175.772C257.597 175.794 257.468 175.871 257.382 175.988C257.296 176.104 257.26 176.25 257.281 176.393C257.303 176.536 257.38 176.665 257.497 176.751C257.613 176.837 257.759 176.874 257.902 176.852C257.902 176.852 262.525 176.193 269.275 179.012C269.346 179.014 269.416 178.999 269.48 178.969Z" fill="#D1D3D4"/>
<path d="M167.182 215.862C167.182 215.862 161.782 243.651 160.303 245.12C158.823 246.588 135.463 245.519 135.787 242.96C136.111 240.4 148.347 236.76 148.347 236.76L152.095 213.854" fill="white"/>
<path d="M153.92 246.35C157.376 246.35 160.119 246.09 160.713 245.496C162.225 243.995 166.826 220.656 167.733 215.969C167.747 215.899 167.747 215.827 167.733 215.756C167.719 215.686 167.691 215.619 167.651 215.56C167.611 215.501 167.559 215.45 167.499 215.411C167.439 215.372 167.372 215.345 167.301 215.332C167.163 215.307 167.019 215.336 166.902 215.415C166.785 215.494 166.704 215.615 166.675 215.753C164.612 226.348 160.972 243.585 159.946 244.74C158.802 245.626 144.751 245.41 138.444 243.812C136.543 243.326 136.348 242.926 136.284 242.926C136.446 241.565 142.602 238.984 148.455 237.299C148.554 237.271 148.643 237.215 148.711 237.139C148.78 237.062 148.826 236.968 148.844 236.867L152.602 213.95C152.625 213.806 152.59 213.66 152.505 213.543C152.42 213.425 152.292 213.346 152.149 213.323C152.006 213.3 151.859 213.335 151.742 213.42C151.624 213.505 151.545 213.634 151.522 213.777L147.818 236.349C144.578 237.31 135.506 240.194 135.204 242.829C135.146 243.383 135.506 243.848 136.284 244.222C138.951 245.496 147.613 246.35 153.92 246.35Z" fill="#163F79"/>
<path d="M216.787 228.121C216.787 228.121 220.189 253.036 218.428 253.749C216.668 254.462 192.779 255.607 193.157 253.511C193.535 251.416 205.328 247.409 205.328 247.409L201.062 223.109" fill="white"/>
<path d="M202.606 255.216C209.464 255.216 217.564 254.633 218.634 254.201C220.405 253.478 218.904 239.546 217.327 227.99C217.307 227.846 217.231 227.717 217.115 227.63C217 227.543 216.854 227.505 216.711 227.525C216.568 227.545 216.439 227.621 216.352 227.737C216.264 227.852 216.227 227.998 216.247 228.141C217.791 239.481 218.914 251.901 218.148 253.218C214.067 253.775 209.954 254.06 205.836 254.072C197.498 254.266 194.377 253.78 193.729 253.413C194.344 252.236 200.209 249.665 205.49 247.872C205.615 247.832 205.721 247.747 205.787 247.633C205.853 247.52 205.874 247.385 205.846 247.257L201.526 222.968C201.502 222.824 201.422 222.697 201.303 222.613C201.185 222.529 201.038 222.495 200.895 222.519C200.751 222.544 200.624 222.624 200.54 222.743C200.456 222.861 200.422 223.008 200.446 223.151L204.68 246.998C201.44 248.078 192.962 251.22 192.584 253.359C192.558 253.516 192.577 253.677 192.638 253.824C192.699 253.971 192.8 254.098 192.93 254.19C193.88 254.946 197.973 255.216 202.606 255.216Z" fill="#163F79"/>
<path d="M188.545 172.867C180.434 171.657 166.2 223.055 166.2 223.055L149.913 221.165C149.913 221.165 152.862 174.649 155.972 161.667C158.132 152.725 167.852 148.351 177.691 151.256C192.4 150.673 207.51 148.805 207.51 148.805L188.545 172.867Z" fill="#163F79"/>
<path d="M166.2 223.595C166.317 223.597 166.431 223.56 166.525 223.489C166.619 223.419 166.687 223.319 166.718 223.206C166.718 223.077 170.325 210.246 174.84 197.686C182.659 175.956 186.72 173.148 188.458 173.408C188.554 173.422 188.651 173.41 188.74 173.374C188.829 173.338 188.907 173.279 188.966 173.202L207.92 149.14C207.989 149.056 208.03 148.954 208.04 148.846C208.05 148.738 208.027 148.63 207.974 148.535C207.922 148.441 207.843 148.364 207.746 148.316C207.65 148.267 207.541 148.25 207.434 148.265C207.283 148.265 192.228 150.134 177.745 150.717C175.226 149.924 172.573 149.645 169.944 149.898C167.315 150.15 164.764 150.928 162.441 152.186C160.695 153.182 159.172 154.526 157.966 156.135C156.761 157.744 155.898 159.583 155.432 161.538C152.354 174.412 149.395 220.658 149.362 221.133C149.353 221.27 149.398 221.405 149.486 221.51C149.575 221.614 149.701 221.681 149.838 221.694L166.124 223.595H166.2ZM188.286 172.306C180.132 172.306 167.766 215.506 165.8 222.472L150.486 220.69C150.82 215.571 153.607 173.85 156.49 161.787C156.916 159.978 157.712 158.276 158.827 156.789C159.942 155.303 161.353 154.062 162.97 153.147C165.181 151.958 167.608 151.227 170.108 150.996C172.607 150.766 175.128 151.042 177.518 151.808H177.691C189.776 151.332 202.282 149.961 206.257 149.507L188.275 172.317L188.286 172.306Z" fill="#163F79"/>
<path d="M226.518 83.6255C226.518 83.6255 251.714 82.2647 256.218 88.5719C261.078 95.3759 260.721 98.0219 267.298 113.725C265.138 135.433 252.254 165.738 252.254 165.738L197.962 154.528C197.962 154.528 200.068 96.0131 204.842 87.8915C209.616 79.7699 226.518 83.6255 226.518 83.6255Z" fill="#6DA7E2"/>
<path d="M235.406 88.0547L220.189 167.759L204.604 167.456L216.031 88.9403L235.406 88.0547Z" fill="#163F79"/>
<path d="M220.189 168.299C220.315 168.299 220.437 168.254 220.533 168.173C220.63 168.093 220.695 167.98 220.718 167.856L235.935 88.1525C235.952 88.0728 235.949 87.9904 235.929 87.9118C235.908 87.8331 235.87 87.7603 235.816 87.6989C235.764 87.6357 235.698 87.5861 235.623 87.5541C235.548 87.5221 235.466 87.5088 235.384 87.5152L215.944 88.4008C215.819 88.4072 215.7 88.457 215.607 88.5417C215.514 88.6265 215.454 88.7409 215.437 88.8652L204.021 167.381C204.011 167.456 204.016 167.533 204.037 167.606C204.058 167.679 204.094 167.747 204.143 167.805C204.192 167.863 204.252 167.91 204.321 167.943C204.389 167.976 204.464 167.995 204.54 167.997L220.124 168.299H220.189ZM234.747 88.6169L219.746 167.208L205.231 166.928L216.495 89.4593L234.747 88.6169Z" fill="#163F79"/>
<path d="M245.958 156.839C245.958 156.839 260.376 172.078 250.386 184.174C240.396 196.27 211.916 183.548 211.916 183.548L219.022 230.862L198.157 230.646C198.157 230.646 176.406 166.235 178.911 159.572C181.417 152.908 199.237 149.852 199.237 149.852L245.958 156.839Z" fill="#163F79"/>
<path d="M219.022 231.413C219.1 231.413 219.176 231.396 219.247 231.364C219.317 231.333 219.381 231.287 219.433 231.23C219.482 231.168 219.517 231.097 219.538 231.02C219.558 230.944 219.563 230.865 219.552 230.787L212.586 184.433C217.342 186.379 222.265 187.886 227.295 188.937C238.452 191.151 246.584 189.628 250.796 184.53C260.98 172.208 246.476 156.634 246.357 156.45C246.272 156.365 246.163 156.309 246.044 156.289L199.28 149.279H199.107C198.373 149.409 180.963 152.519 178.371 159.356C175.779 166.192 196.731 228.162 197.617 230.798C197.651 230.905 197.719 230.998 197.811 231.064C197.902 231.131 198.012 231.166 198.124 231.165L218.979 231.381L219.022 231.413ZM211.916 183.019C211.796 183.016 211.678 183.054 211.581 183.126C211.507 183.187 211.449 183.265 211.413 183.354C211.377 183.442 211.364 183.539 211.376 183.634L218.396 230.279L198.546 230.074C190.986 207.75 177.496 164.831 179.419 159.723C181.698 153.653 197.919 150.586 199.237 150.349L245.677 157.314C247.048 158.837 259.036 172.802 249.997 183.796C240.385 195.428 212.445 183.148 212.197 183.019C212.105 182.991 212.008 182.991 211.916 183.019Z" fill="#163F79"/>
<path d="M240.525 33.7746C244.003 31.9608 247.97 31.3083 251.845 31.9127C255.72 32.5171 259.3 34.3467 262.06 37.1334C266.197 41.4534 267.86 48.1278 265.657 53.6574C264.479 56.3951 262.466 58.6909 259.906 60.2173C257.346 61.7436 254.369 62.4224 251.401 62.157C245.655 61.6818 240.288 55.9902 237.847 51.1086C234.92 45.2118 233.43 37.3818 240.525 33.7746Z" fill="white"/>
<path d="M252.589 62.7384C255.477 62.7723 258.31 61.9463 260.728 60.3654C263.145 58.7845 265.038 56.5203 266.164 53.8608C267.201 50.9463 267.402 47.8003 266.745 44.7776C266.089 41.7549 264.601 38.9758 262.449 36.7536C259.618 33.882 255.939 31.996 251.955 31.3738C247.971 30.7515 243.892 31.426 240.32 33.2976C237.458 34.7448 231.442 39.4212 237.404 51.3444C239.964 56.4636 245.428 62.1984 251.444 62.6844C251.768 62.7168 252.2 62.7384 252.589 62.7384ZM249.133 32.2284C251.471 32.22 253.786 32.6833 255.941 33.5908C258.095 34.4982 260.044 35.8311 261.672 37.5096C263.682 39.579 265.074 42.1692 265.691 44.9879C266.307 47.8066 266.123 50.7414 265.16 53.4612C264.029 56.0953 262.092 58.3033 259.628 59.7682C257.164 61.2332 254.299 61.8798 251.444 61.6152C246.141 61.1832 240.828 55.8804 238.322 50.8152C236.486 47.1324 233.041 38.136 240.763 34.2156C243.358 32.9055 246.226 32.2247 249.133 32.2284Z" fill="#163F79"/>
<path d="M250.753 44.769C252.566 46.8547 253.816 49.3698 254.383 52.0749C254.95 54.78 254.816 57.5853 253.993 60.2238C253.62 61.6978 252.741 62.9938 251.509 63.885C249.068 65.3754 245.882 63.885 243.722 62.0058C240.255 58.8266 237.575 54.8854 235.892 50.493C234.618 47.3934 232.987 40.557 237.674 39.5526C242.361 38.5482 247.88 41.5074 250.753 44.769Z" fill="#CE1126"/>
<path d="M249.284 65.0394C250.171 65.0506 251.044 64.811 251.8 64.3482C253.158 63.4049 254.125 61.9998 254.522 60.3954C255.369 57.6625 255.501 54.7581 254.906 51.9597C254.31 49.1613 253.007 46.5624 251.12 44.4114C248.107 41.031 242.318 37.9962 237.544 39.0114C236.93 39.1276 236.349 39.3825 235.848 39.7568C235.346 40.1311 234.936 40.6149 234.65 41.1714C232.9 44.4978 235.114 50.0922 235.374 50.7186C237.084 55.191 239.813 59.2031 243.344 62.4366C244.968 63.9586 247.064 64.8773 249.284 65.0394ZM239.564 39.9186C243.452 39.9186 247.912 42.3702 250.364 45.1458C252.123 47.1536 253.337 49.5796 253.889 52.1912C254.441 54.8029 254.313 57.5125 253.518 60.0606C253.198 61.42 252.396 62.6173 251.26 63.4302C249.1 64.7694 246.13 63.3654 244.1 61.605C240.694 58.4881 238.067 54.6149 236.432 50.2974C235.557 48.2022 234.434 44.0118 235.665 41.6574C235.879 41.2455 236.185 40.8888 236.56 40.6152C236.935 40.3416 237.368 40.1586 237.825 40.0806C238.383 39.9636 238.951 39.9057 239.521 39.9078L239.564 39.9186Z" fill="#CE1126"/>
<path d="M223.04 77.0169C223.899 78.0947 224.815 79.1257 225.783 80.1057C227.763 81.6384 230.099 82.6452 232.573 83.0323C235.046 83.4194 237.578 83.1743 239.931 82.3197C251.163 78.3129 252.546 65.9793 251.714 55.6977C251.368 51.5181 249.554 42.6405 243.463 46.1397C245.234 45.0597 239.143 40.1133 238.257 39.6597C231.637 35.8797 223.666 38.9145 218.817 44.1201C215.973 47.0509 213.46 50.2851 211.322 53.7645C209.162 57.6309 210.177 63.4845 212.013 67.2429C213.461 70.1769 215.679 72.6628 218.428 74.4357C219.703 75.2565 221.42 75.6453 222.565 76.5957C222.73 76.728 222.889 76.8685 223.04 77.0169Z" fill="white"/>
<path d="M234.844 83.756C236.639 83.7587 238.422 83.4556 240.115 82.8596C249.37 79.5548 253.453 70.4396 252.2 55.6868C252.038 53.6996 251.25 47.0468 247.794 45.2756C247.242 44.9962 246.634 44.8434 246.016 44.8285C245.398 44.8135 244.784 44.9368 244.219 45.1892C243.625 43.0292 239.056 39.4976 238.473 39.1628C231.378 35.1128 223.072 38.6876 218.374 43.7312C215.499 46.6788 212.964 49.9392 210.814 53.4512C208.568 57.4796 209.594 63.5168 211.495 67.4372C212.985 70.461 215.269 73.0222 218.104 74.846C218.716 75.212 219.355 75.5298 220.016 75.7964C220.789 76.0815 221.517 76.4781 222.176 76.9736C222.331 77.098 222.479 77.2315 222.619 77.3732C222.975 77.7512 223.31 78.1616 223.699 78.6044C224.206 79.2975 224.789 79.9315 225.438 80.4944C228.104 82.6316 231.427 83.7836 234.844 83.756ZM246.033 45.956C246.488 45.9504 246.937 46.0581 247.34 46.2692C249.694 47.5004 250.872 52.1876 251.174 55.8164C252.33 69.9968 248.485 78.7664 239.748 81.8768C237.477 82.7009 235.034 82.9351 232.649 82.5573C230.263 82.1795 228.012 81.2021 226.107 79.7168C225.525 79.1954 224.996 78.6165 224.53 77.9888C224.194 77.5307 223.834 77.0908 223.45 76.6712C223.288 76.5092 223.116 76.3472 222.932 76.196C222.188 75.633 221.366 75.1818 220.491 74.8568C219.886 74.6168 219.3 74.3278 218.742 73.9928C216.071 72.2773 213.92 69.8649 212.521 67.016C210.739 63.344 209.756 57.728 211.819 54.056C213.914 50.6091 216.392 47.41 219.206 44.5196C223.634 39.7784 231.388 36.3872 237.987 40.1996C238.894 40.718 243.247 44.4548 243.247 45.7076H243.171C243.102 45.7387 243.041 45.7839 242.991 45.8403C242.94 45.8967 242.902 45.963 242.879 46.035C242.856 46.107 242.849 46.183 242.857 46.2581C242.865 46.3332 242.889 46.4058 242.927 46.4711C242.965 46.5364 243.016 46.593 243.077 46.6373C243.138 46.6816 243.208 46.7125 243.282 46.7281C243.356 46.7436 243.433 46.7435 243.506 46.7277C243.58 46.7119 243.65 46.6808 243.711 46.6364C244.408 46.1946 245.209 45.945 246.033 45.9128V45.956Z" fill="#163F79"/>
<path d="M218.353 52.4043C218.353 52.4043 213.028 60.8283 213.072 68.1291C213.028 70.164 213.58 72.1673 214.658 73.8937C215.736 75.6201 217.294 76.9947 219.141 77.8491L216.398 90.1611C216.398 90.1611 214.94 96.4467 222.878 97.1919C225.174 97.3954 227.484 97.0115 229.59 96.0763C231.697 95.141 233.531 93.6853 234.92 91.8459L240.86 69.3603C240.86 69.3603 233.235 62.3727 235.806 54.4131C235.806 54.4563 224.293 57.1779 218.353 52.4043Z" fill="white"/>
<path d="M224.228 97.7737C226.396 97.7607 228.531 97.246 230.467 96.2698C232.402 95.2935 234.086 93.8824 235.385 92.1469C235.42 92.0986 235.446 92.0434 235.46 91.9849L241.4 69.5317C241.426 69.4372 241.424 69.3373 241.396 69.2437C241.367 69.15 241.312 69.0664 241.238 69.0025C241.173 68.9377 233.905 62.1553 236.335 54.6277C236.367 54.5363 236.374 54.4379 236.355 54.3429C236.336 54.2479 236.292 54.1597 236.227 54.0877C236.16 54.0173 236.076 53.9662 235.983 53.9396C235.89 53.913 235.791 53.9119 235.698 53.9365C235.59 53.9365 224.369 56.5285 218.709 51.9817C218.651 51.9336 218.584 51.8982 218.511 51.8777C218.439 51.8572 218.363 51.8522 218.288 51.8629C218.213 51.8766 218.142 51.9057 218.078 51.9485C218.015 51.9913 217.962 52.0467 217.921 52.1113C217.694 52.4569 212.521 60.7513 212.521 68.1385C212.495 70.1957 213.042 72.2196 214.101 73.9838C215.159 75.748 216.688 77.1831 218.515 78.1285L215.858 90.0085C215.531 91.6912 215.885 93.4349 216.841 94.8577C218.007 96.4777 220.016 97.4281 222.813 97.6981C223.31 97.7521 223.775 97.7737 224.228 97.7737ZM234.445 91.6177C233.092 93.345 231.33 94.7078 229.318 95.5828C227.306 96.4578 225.107 96.8173 222.921 96.6289C220.459 96.4021 218.709 95.5489 217.737 94.2421C216.958 93.07 216.668 91.6401 216.927 90.2569L219.671 77.9989C219.695 77.8719 219.676 77.7402 219.615 77.626C219.554 77.5119 219.455 77.4223 219.336 77.3725C217.586 76.5694 216.111 75.2703 215.094 73.6364C214.076 72.0025 213.561 70.1058 213.612 68.1817C213.612 62.1121 217.392 55.1569 218.504 53.2453C223.731 56.9497 232.274 55.7401 235.05 55.2217C233.343 62.3281 238.981 68.3653 240.255 69.6181L234.445 91.6177Z" fill="#163F79"/>
<path d="M236.95 66.8546C236.95 66.8546 242.664 59.1542 245.742 65.5046C248.82 71.8549 241.26 76.3046 237.577 75.0086" fill="white"/>
<path d="M239.056 75.8388C240.219 75.793 241.36 75.5152 242.414 75.0219C243.467 74.5285 244.411 73.8295 245.191 72.966C246.157 71.9698 246.782 70.6928 246.976 69.3187C247.17 67.9446 246.923 66.5444 246.271 65.3196C245.428 63.5916 244.316 62.652 242.944 62.5224C239.834 62.2308 236.691 66.4104 236.562 66.5832C236.519 66.6399 236.488 66.7045 236.471 66.7732C236.453 66.8419 236.449 66.9134 236.459 66.9836C236.469 67.0538 236.493 67.1213 236.529 67.1823C236.565 67.2433 236.613 67.2966 236.67 67.3392C236.785 67.4224 236.928 67.4576 237.069 67.4375C237.21 67.4173 237.338 67.3434 237.426 67.2312C238.225 66.1512 240.763 63.3972 242.826 63.6024C243.798 63.6888 244.629 64.4232 245.288 65.7624C245.853 66.7936 246.074 67.9784 245.919 69.1441C245.763 70.3097 245.24 71.3952 244.424 72.2424C242.642 74.208 239.672 75.2448 237.793 74.5536C237.659 74.5095 237.514 74.5193 237.388 74.5807C237.261 74.6422 237.164 74.7505 237.116 74.8827C237.068 75.0149 237.074 75.1605 237.131 75.2886C237.189 75.4167 237.295 75.5173 237.426 75.5688C237.95 75.7508 238.501 75.8421 239.056 75.8388Z" fill="#163F79"/>
<path d="M221.517 70.2028H221.841C221.984 70.2028 222.122 70.1459 222.223 70.0447C222.324 69.9434 222.381 69.8061 222.381 69.6628C222.381 69.5196 222.324 69.3823 222.223 69.281C222.122 69.1797 221.984 69.1228 221.841 69.1228C220.608 69.2115 219.375 68.9454 218.288 68.356C218.223 67.8052 220.513 65.2456 223.213 62.956C223.267 62.9099 223.312 62.8535 223.345 62.7901C223.378 62.7266 223.398 62.6573 223.404 62.5861C223.41 62.5149 223.402 62.4432 223.38 62.3751C223.359 62.307 223.324 62.2438 223.278 62.1892C223.232 62.1346 223.175 62.0896 223.112 62.0568C223.048 62.024 222.979 62.004 222.908 61.998C222.836 61.992 222.765 62.0001 222.697 62.0218C222.629 62.0435 222.565 62.0783 222.511 62.1244C221.269 63.2044 217.24 66.7468 217.24 68.3992C217.235 68.5466 217.264 68.6932 217.324 68.8279C217.384 68.9626 217.473 69.0819 217.586 69.1768C218.763 69.9081 220.133 70.2658 221.517 70.2028Z" fill="#163F79"/>
<path d="M223.299 74.6619H223.407C225.672 74.6397 227.849 73.7821 229.52 72.2535C229.562 72.1962 229.592 72.131 229.609 72.0619C229.626 71.9928 229.629 71.9211 229.618 71.8509C229.607 71.7806 229.582 71.7132 229.545 71.6526C229.508 71.592 229.459 71.5393 229.401 71.4975C229.346 71.4538 229.282 71.4219 229.214 71.4036C229.146 71.3853 229.075 71.3811 229.005 71.3912C228.936 71.4013 228.869 71.4255 228.809 71.4624C228.749 71.4992 228.697 71.5479 228.656 71.6055C227.158 72.8515 225.28 73.5488 223.332 73.5819H223.256C220.729 73.5819 218.428 72.2427 216.409 69.6723C216.365 69.6163 216.31 69.5695 216.248 69.5346C216.186 69.4996 216.118 69.4773 216.047 69.4687C215.976 69.4602 215.905 69.4657 215.836 69.4849C215.768 69.5041 215.704 69.5366 215.647 69.5805C215.591 69.6245 215.545 69.6791 215.51 69.7411C215.475 69.8032 215.452 69.8715 215.444 69.9422C215.435 70.0129 215.441 70.0846 215.46 70.1532C215.479 70.2218 215.512 70.2859 215.556 70.3419C217.791 73.2039 220.405 74.6619 223.299 74.6619Z" fill="#163F79"/>
<path d="M219.141 77.8262C219.141 77.8262 225.535 80.1158 229.531 79.9862C229.531 79.9862 223.234 88.7666 217.003 87.3194L219.141 77.8262Z" fill="#163F79"/>
<path d="M218.428 88.0319C224.358 88.0319 229.725 80.6555 229.963 80.3099C230.015 80.2236 230.043 80.1246 230.043 80.0237C230.043 79.9227 230.015 79.8237 229.963 79.7375C229.91 79.6527 229.837 79.5826 229.75 79.5335C229.663 79.4844 229.566 79.458 229.466 79.4567C225.632 79.5647 219.346 77.2967 219.282 77.2967C219.209 77.2702 219.132 77.2595 219.056 77.2651C218.979 77.2708 218.905 77.2928 218.837 77.3296C218.77 77.3664 218.711 77.4172 218.665 77.4786C218.618 77.5399 218.586 77.6105 218.569 77.6855L216.409 87.1895C216.376 87.3284 216.4 87.4745 216.475 87.5959C216.55 87.7173 216.67 87.8041 216.808 87.8375C217.339 87.9658 217.883 88.0311 218.428 88.0319ZM228.429 80.4719C226.766 82.5023 222.198 87.4703 217.629 86.8547L219.508 78.4847C222.396 79.5099 225.393 80.1914 228.44 80.5151L228.429 80.4719Z" fill="#163F79"/>
<path d="M226.932 63.8804C226.403 63.7321 226.186 62.8624 226.445 61.9378C226.705 61.0132 227.343 60.3839 227.872 60.5322C228.4 60.6806 228.618 61.5503 228.358 62.4749C228.099 63.3995 227.46 64.0287 226.932 63.8804Z" fill="#163F79"/>
<path d="M218.132 61.4019C217.603 61.2536 217.385 60.3839 217.645 59.4593C217.905 58.5347 218.543 57.9054 219.072 58.0537C219.6 58.202 219.818 59.0718 219.558 59.9964C219.299 60.9209 218.66 61.5502 218.132 61.4019Z" fill="#163F79"/>
<path d="M214.54 152.141L203.762 117.268H153.531L165.541 152.141H214.54Z" fill="white"/>
<path d="M165.541 152.682H214.54C214.624 152.681 214.707 152.661 214.781 152.624C214.856 152.586 214.922 152.532 214.972 152.466C215.025 152.398 215.061 152.318 215.076 152.233C215.091 152.149 215.085 152.062 215.059 151.98L204.259 117.107C204.224 116.996 204.155 116.9 204.062 116.832C203.969 116.764 203.856 116.728 203.74 116.729H153.51C153.425 116.729 153.341 116.75 153.266 116.789C153.191 116.829 153.126 116.886 153.078 116.955C153.026 117.026 152.992 117.108 152.979 117.194C152.965 117.281 152.973 117.369 153.002 117.452L165.012 152.315C165.05 152.424 165.122 152.518 165.217 152.584C165.312 152.649 165.425 152.684 165.541 152.682ZM213.806 151.602H165.93L154.287 117.809H203.362L213.806 151.602Z" fill="#163F79"/>
<path d="M265.236 108.543C265.236 108.543 283.65 150.015 274.956 159.487C266.262 168.958 219.876 150.436 219.876 150.436C211.927 148.849 203.362 146.051 201.127 137.098C200.846 135.953 200.824 134.495 201.818 133.858C202.356 133.579 202.967 133.473 203.568 133.556C205.57 133.658 207.545 134.07 209.421 134.776L209.367 131.169C213.774 134.884 218.968 138.988 224.725 139.971C228.516 140.608 232.512 140.673 236.346 140.975C243.027 141.508 249.712 141.994 256.401 142.433C256.401 142.433 251.984 126.385 248.766 117.269" fill="white"/>
<path d="M265.549 162.704C269.869 162.704 273.433 161.905 275.269 159.853C284.146 150.23 266.445 110.022 265.678 108.316C265.614 108.194 265.506 108.101 265.376 108.057C265.246 108.012 265.104 108.019 264.979 108.075C264.854 108.131 264.754 108.234 264.702 108.361C264.649 108.488 264.647 108.63 264.696 108.758C264.879 109.169 282.872 150.014 274.48 159.119C271.057 162.834 260.581 162.445 244.24 158.039C236.036 155.755 227.951 153.063 220.016 149.971C212.056 148.384 203.74 145.651 201.591 137.011C201.472 136.536 201.148 134.938 202.045 134.365C202.486 134.147 202.984 134.072 203.47 134.149C205.418 134.245 207.339 134.646 209.162 135.337C209.245 135.37 209.335 135.382 209.424 135.37C209.513 135.359 209.597 135.325 209.67 135.272C209.741 135.22 209.799 135.152 209.838 135.073C209.878 134.994 209.898 134.907 209.896 134.819V132.389C214.216 135.964 219.141 139.625 224.606 140.554C227.351 140.968 230.116 141.231 232.89 141.342C234.024 141.418 235.147 141.482 236.27 141.569C242.469 142.055 249.036 142.53 256.336 143.027C256.422 143.034 256.508 143.02 256.587 142.986C256.666 142.952 256.736 142.899 256.79 142.832C256.843 142.765 256.881 142.686 256.9 142.602C256.918 142.518 256.918 142.43 256.898 142.346C256.898 142.184 252.427 126.146 249.241 117.15C249.194 117.016 249.097 116.906 248.969 116.843C248.842 116.78 248.695 116.77 248.56 116.815C248.426 116.864 248.315 116.964 248.253 117.093C248.19 117.222 248.18 117.37 248.226 117.506C251.012 125.39 254.706 138.653 255.645 141.893C248.658 141.418 242.329 140.964 236.356 140.489C235.276 140.402 234.088 140.338 232.954 140.273C230.217 140.157 227.488 139.894 224.779 139.484C219.195 138.534 214.065 134.506 209.659 130.844C209.578 130.78 209.48 130.739 209.378 130.726C209.275 130.713 209.171 130.727 209.076 130.769C208.983 130.815 208.904 130.885 208.849 130.973C208.794 131.061 208.764 131.162 208.762 131.266V134.106C207.06 133.534 205.286 133.199 203.492 133.112C202.777 133.022 202.052 133.158 201.418 133.501C200.392 134.149 200.058 135.542 200.5 137.324C202.79 146.526 211.473 149.431 219.66 151.062C221.15 151.537 249.316 162.704 265.549 162.704Z" fill="#163F79"/>
<path d="M219.8 249.008C219.8 249.008 207.38 250.768 206.084 250.768L199.669 247.42C199.669 247.42 186.547 252.896 188.426 254.656C190.305 256.416 217.5 256.816 219.8 255.542C222.1 254.267 219.8 249.008 219.8 249.008Z" fill="#CE1126"/>
<path d="M207.596 256.805C213.687 256.805 219.066 256.524 220.016 256.016C222.662 254.58 220.502 249.374 220.254 248.791C220.207 248.682 220.126 248.591 220.022 248.532C219.919 248.473 219.799 248.451 219.681 248.467C216.344 248.942 207.661 250.152 206.17 250.228L199.874 246.934C199.803 246.901 199.725 246.885 199.647 246.885C199.569 246.885 199.492 246.901 199.42 246.934C196.764 248.014 188.08 251.826 187.681 254.072C187.648 254.253 187.661 254.439 187.72 254.613C187.778 254.786 187.88 254.942 188.016 255.066C189.312 256.265 199.14 256.805 207.596 256.805ZM219.411 249.601C219.994 251.102 220.88 254.321 219.498 255.066C217.014 256.394 190.338 255.703 188.75 254.267C188.696 253.37 193.74 250.476 199.55 248.014L205.749 251.254C205.828 251.288 205.912 251.306 205.998 251.308C207.24 251.308 217.197 249.914 219.411 249.601Z" fill="#CE1126"/>
<path d="M162.42 239.168C162.42 239.168 150.01 240.939 148.714 240.939L142.234 237.58C142.234 237.58 129.112 243.056 130.992 244.827C132.871 246.598 160.076 246.987 162.366 245.702C164.655 244.416 162.42 239.168 162.42 239.168Z" fill="#CE1126"/>
<path d="M150.259 246.965C156.35 246.965 161.728 246.684 162.679 246.177C165.336 244.751 163.176 239.546 162.916 238.952C162.868 238.844 162.786 238.755 162.683 238.699C162.58 238.642 162.461 238.621 162.344 238.638C159.018 239.114 150.334 240.312 148.833 240.388L142.537 237.148C142.466 237.114 142.389 237.096 142.31 237.096C142.232 237.096 142.154 237.114 142.083 237.148C139.426 238.228 130.754 242.04 130.344 244.276C130.309 244.458 130.321 244.646 130.38 244.822C130.438 244.998 130.541 245.156 130.678 245.28C131.974 246.479 141.813 246.965 150.259 246.965ZM162.085 239.762C162.657 241.274 163.554 244.481 162.16 245.226C159.687 246.566 133 245.874 131.424 244.427C131.359 243.542 136.402 240.647 142.224 238.174L148.423 241.414C148.499 241.457 148.584 241.479 148.671 241.479C149.913 241.479 159.871 240.075 162.085 239.762Z" fill="#CE1126"/>
<path d="M211.776 83.3555L187.443 89.0147L188.383 109.675H209.292L211.776 83.3555Z" fill="#6DA7E2"/>
<path d="M200.36 115.518C200.489 115.517 200.614 115.469 200.711 115.384C200.808 115.299 200.871 115.182 200.889 115.054L204.313 90.6675C204.322 90.5966 204.317 90.5245 204.299 90.4555C204.28 90.3864 204.248 90.3217 204.204 90.2651C204.161 90.2084 204.106 90.1609 204.044 90.1252C203.982 90.0896 203.914 90.0665 203.843 90.0573C203.772 90.0481 203.7 90.0529 203.631 90.0715C203.562 90.0901 203.497 90.1222 203.441 90.1658C203.384 90.2094 203.336 90.2638 203.301 90.3258C203.265 90.3878 203.242 90.4562 203.233 90.5271L199.809 114.903C199.799 114.973 199.802 115.045 199.82 115.114C199.838 115.183 199.869 115.247 199.913 115.304C199.956 115.36 200.01 115.407 200.072 115.442C200.134 115.477 200.203 115.5 200.274 115.507L200.36 115.518Z" fill="#163F79"/>
<path d="M248.712 117.809C248.772 117.82 248.835 117.82 248.895 117.809C248.963 117.786 249.025 117.75 249.078 117.702C249.131 117.655 249.174 117.597 249.204 117.532C249.235 117.468 249.252 117.398 249.254 117.327C249.257 117.255 249.245 117.184 249.219 117.118L244.186 103.078C244.164 103.009 244.128 102.946 244.08 102.892C244.033 102.837 243.975 102.793 243.91 102.761C243.845 102.73 243.774 102.712 243.702 102.708C243.63 102.704 243.558 102.715 243.49 102.739C243.422 102.764 243.36 102.802 243.307 102.851C243.254 102.9 243.211 102.959 243.181 103.025C243.152 103.091 243.136 103.162 243.134 103.234C243.132 103.306 243.145 103.378 243.171 103.445L248.204 117.485C248.247 117.583 248.318 117.667 248.408 117.724C248.499 117.782 248.604 117.811 248.712 117.809Z" fill="#163F79"/>
<path d="M182.27 179.574H182.443C182.578 179.525 182.688 179.425 182.751 179.296C182.813 179.167 182.823 179.019 182.778 178.883C182.724 178.721 177.097 162.035 180.531 157.52C182.81 154.539 190.878 152.703 190.964 152.693C191.035 152.677 191.102 152.648 191.162 152.606C191.221 152.564 191.272 152.512 191.311 152.45C191.35 152.389 191.377 152.321 191.39 152.249C191.402 152.178 191.401 152.105 191.385 152.034C191.37 151.963 191.34 151.896 191.299 151.836C191.257 151.777 191.204 151.726 191.143 151.687C191.082 151.648 191.014 151.621 190.942 151.608C190.871 151.595 190.797 151.597 190.726 151.613C190.381 151.688 182.184 153.546 179.678 156.84C175.887 161.819 181.514 178.505 181.762 179.207C181.797 179.314 181.865 179.407 181.956 179.473C182.047 179.539 182.157 179.575 182.27 179.574Z" fill="white"/>
</svg>
