<svg width="642" height="641" viewBox="0 0 642 641" fill="none" xmlns="http://www.w3.org/2000/svg">
<g clip-path="url(#clip0_3303_87708)">
<path d="M321.496 320.512V480.744H161.244V345.225L185.956 320.512H321.496Z" fill="#003876"/>
<path d="M239.705 451.352C216.268 450.478 198.053 430.467 198.053 407.006V395.193C198.053 391.035 201.431 387.633 205.613 387.633H277.151C281.309 387.633 284.688 391.011 284.688 395.193V408.069C284.688 432.522 264.346 452.297 239.705 451.352ZM213.149 402.73V407.242C213.149 422.434 224.797 435.499 239.964 436.255C256.172 437.059 269.614 424.112 269.614 408.069V402.73H213.173H213.149Z" fill="white"/>
<path d="M238.31 371.001H208.542C203.297 371.001 198.596 367.15 198.1 361.928C197.533 355.927 202.234 350.871 208.117 350.871H237.885C243.13 350.871 247.831 354.722 248.328 359.944C248.895 365.945 244.193 371.001 238.31 371.001Z" fill="white"/>
<path d="M281.38 368.945C276.962 373.363 269.78 373.363 265.362 368.945C260.944 364.527 260.944 357.345 265.362 352.927C269.78 348.509 276.962 348.509 281.38 352.927C285.798 357.345 285.798 364.527 281.38 368.945Z" fill="#6DB0E2"/>
<path d="M321.496 480.744V641H161.244V505.457L185.956 480.744H321.496Z" fill="white"/>
<path d="M239.705 611.608C216.268 610.734 198.053 590.723 198.053 567.262V555.449C198.053 551.291 201.431 547.889 205.613 547.889H277.151C281.309 547.889 284.688 551.267 284.688 555.449V568.325C284.688 592.778 264.346 612.553 239.705 611.608ZM213.149 562.986V567.498C213.149 582.69 224.797 595.755 239.964 596.511C256.172 597.314 269.614 584.367 269.614 568.325V562.986H213.173H213.149Z" fill="#E30238"/>
<path d="M238.31 531.256H208.542C203.297 531.256 198.596 527.405 198.1 522.184C197.533 516.183 202.234 511.127 208.117 511.127H237.885C243.13 511.127 247.831 514.978 248.328 520.199C248.895 526.2 244.193 531.256 238.31 531.256Z" fill="#E30238"/>
<path d="M281.38 529.201C276.962 533.619 269.78 533.619 265.362 529.201C260.944 524.783 260.944 517.601 265.362 513.183C269.78 508.765 276.962 508.765 281.38 513.183C285.798 517.601 285.798 524.783 281.38 529.201Z" fill="#003876"/>
<path d="M481.748 480.744V641H321.496V505.457L346.208 480.744H481.748Z" fill="#6DB0E2"/>
<path d="M399.956 611.608C376.52 610.734 358.305 590.723 358.305 567.262V555.449C358.305 551.291 361.683 547.889 365.865 547.889H437.403C441.561 547.889 444.939 551.267 444.939 555.449V568.325C444.939 592.778 424.598 612.553 399.956 611.608ZM373.401 562.986V567.498C373.401 582.69 385.049 595.755 400.216 596.511C416.423 597.314 429.866 584.367 429.866 568.325V562.986H373.425H373.401Z" fill="white"/>
<path d="M398.562 531.256H368.794C363.549 531.256 358.848 527.405 358.352 522.184C357.785 516.183 362.486 511.127 368.369 511.127H398.137C403.382 511.127 408.083 514.978 408.579 520.199C409.147 526.2 404.445 531.256 398.562 531.256Z" fill="white"/>
<path d="M441.632 529.201C437.214 533.619 430.032 533.619 425.614 529.201C421.196 524.783 421.196 517.601 425.614 513.183C430.032 508.765 437.214 508.765 441.632 513.183C446.05 517.601 446.05 524.783 441.632 529.201Z" fill="#003876"/>
<path d="M481.748 320.512V480.744H321.496V345.225L346.208 320.512H481.748Z" fill="#E30238"/>
<path d="M399.956 451.352C376.52 450.478 358.305 430.467 358.305 407.006V395.193C358.305 391.035 361.683 387.633 365.865 387.633H437.403C441.561 387.633 444.939 391.011 444.939 395.193V408.069C444.939 432.522 424.598 452.297 399.956 451.352ZM373.401 402.73V407.242C373.401 422.434 385.049 435.499 400.216 436.255C416.423 437.059 429.866 424.112 429.866 408.069V402.73H373.425H373.401Z" fill="white"/>
<path d="M398.562 371.001H368.794C363.549 371.001 358.848 367.15 358.352 361.928C357.785 355.927 362.486 350.871 368.369 350.871H398.137C403.382 350.871 408.083 354.722 408.579 359.944C409.147 365.945 404.445 371.001 398.562 371.001Z" fill="white"/>
<path d="M441.632 368.945C437.214 373.363 430.032 373.363 425.614 368.945C421.196 364.527 421.196 357.345 425.614 352.927C430.032 348.509 437.214 348.509 441.632 352.927C446.05 357.345 446.05 364.527 441.632 368.945Z" fill="#003876"/>
<path d="M481.748 160.256V320.512H321.496V184.969L346.208 160.256H481.748Z" fill="#6DB0E2"/>
<path d="M399.956 291.097C376.52 290.222 358.305 270.211 358.305 246.75V234.937C358.305 230.779 361.683 227.377 365.865 227.377H437.403C441.561 227.377 444.939 230.755 444.939 234.937V247.814C444.939 272.267 424.598 292.042 399.956 291.097ZM373.401 242.474V246.987C373.401 262.178 385.049 275.243 400.216 275.999C416.423 276.803 429.866 263.856 429.866 247.814V242.474H373.425H373.401Z" fill="#003876"/>
<path d="M398.562 210.745H368.794C363.549 210.745 358.848 206.894 358.352 201.672C357.785 195.671 362.486 190.615 368.369 190.615H398.137C403.382 190.615 408.083 194.466 408.579 199.688C409.147 205.689 404.445 210.745 398.562 210.745Z" fill="#003876"/>
<path d="M441.632 208.689C437.214 213.108 430.032 213.108 425.614 208.689C421.196 204.271 421.196 197.089 425.614 192.671C430.032 188.253 437.214 188.253 441.632 192.671C446.05 197.089 446.05 204.271 441.632 208.689Z" fill="white"/>
<path d="M481.748 0V160.256H321.496V24.7129L346.208 0H481.748Z" fill="#003876"/>
<path d="M399.956 130.864C376.52 129.99 358.305 109.979 358.305 86.5179V74.7049C358.305 70.5467 361.683 67.1445 365.865 67.1445H437.403C441.561 67.1445 444.939 70.5231 444.939 74.7049V87.5811C444.939 112.034 424.598 131.809 399.956 130.864ZM373.401 82.2416V86.7542C373.401 101.946 385.049 115.011 400.216 115.767C416.423 116.57 429.866 103.623 429.866 87.5811V82.2416H373.425H373.401Z" fill="white"/>
<path d="M398.562 50.4888H368.794C363.549 50.4888 358.848 46.6378 358.352 41.4164C357.785 35.4154 362.486 30.3594 368.369 30.3594H398.137C403.382 30.3594 408.083 34.2104 408.579 39.4318C409.147 45.4328 404.445 50.4888 398.562 50.4888Z" fill="white"/>
<path d="M441.632 48.4336C437.214 52.8517 430.032 52.8517 425.614 48.4336C421.196 44.0155 421.196 36.8332 425.614 32.4151C430.032 27.997 437.214 27.997 441.632 32.4151C446.05 36.8332 446.05 44.0155 441.632 48.4336Z" fill="#E30238"/>
<path d="M160.252 480.744V641H0V505.457L24.7123 480.744H160.252Z" fill="#003876"/>
<path d="M78.4604 611.608C55.0239 610.734 36.8086 590.723 36.8086 567.262V555.449C36.8086 551.291 40.187 547.889 44.3688 547.889H115.907C120.065 547.889 123.443 551.267 123.443 555.449V568.325C123.443 592.778 103.102 612.553 78.4604 611.608ZM51.9053 562.986V567.498C51.9053 582.69 63.5527 595.755 78.7203 596.511C94.9274 597.314 108.37 584.367 108.37 568.325V562.986H51.9289H51.9053Z" fill="white"/>
<path d="M77.0666 531.256H47.2985C42.0536 531.256 37.3521 527.405 36.856 522.184C36.289 516.183 40.9905 511.127 46.8732 511.127H76.6414C81.8862 511.127 86.5877 514.978 87.0839 520.199C87.6509 526.2 82.9494 531.256 77.0666 531.256Z" fill="white"/>
<path d="M120.136 529.201C115.718 533.619 108.536 533.619 104.118 529.201C99.6997 524.783 99.6997 517.601 104.118 513.183C108.536 508.765 115.718 508.765 120.136 513.183C124.554 517.601 124.554 524.783 120.136 529.201Z" fill="#E30238"/>
<path d="M642 0V160.256H481.748V24.7129L506.46 0H642Z" fill="#E30238"/>
<path d="M560.208 130.864C536.772 129.99 518.557 109.979 518.557 86.5179V74.7049C518.557 70.5467 521.935 67.1445 526.117 67.1445H597.655C601.813 67.1445 605.191 70.5231 605.191 74.7049V87.5811C605.191 112.034 584.85 131.809 560.208 130.864ZM533.653 82.2416V86.7542C533.653 101.946 545.301 115.011 560.468 115.767C576.675 116.57 590.118 103.623 590.118 87.5811V82.2416H533.677H533.653Z" fill="white"/>
<path d="M558.814 50.4888H529.046C523.801 50.4888 519.1 46.6378 518.604 41.4164C518.037 35.4154 522.738 30.3594 528.621 30.3594H558.389C563.634 30.3594 568.335 34.2104 568.831 39.4318C569.398 45.4328 564.697 50.4888 558.814 50.4888Z" fill="white"/>
<path d="M601.884 48.4336C597.466 52.8517 590.284 52.8517 585.866 48.4336C581.448 44.0155 581.448 36.8332 585.866 32.4151C590.284 27.997 597.466 27.997 601.884 32.4151C606.302 36.8332 606.302 44.0155 601.884 48.4336Z" fill="#003876"/>
<path d="M642 160.256V320.512H481.748V184.969L506.46 160.256H642Z" fill="white"/>
<path d="M560.208 291.097C536.772 290.222 518.557 270.211 518.557 246.75V234.937C518.557 230.779 521.935 227.377 526.117 227.377H597.655C601.813 227.377 605.191 230.755 605.191 234.937V247.814C605.191 272.267 584.85 292.042 560.208 291.097ZM533.653 242.474V246.987C533.653 262.178 545.301 275.243 560.468 275.999C576.675 276.803 590.118 263.856 590.118 247.814V242.474H533.677H533.653Z" fill="#003876"/>
<path d="M558.814 210.745H529.046C523.801 210.745 519.1 206.894 518.604 201.672C518.037 195.671 522.738 190.615 528.621 190.615H558.389C563.634 190.615 568.335 194.466 568.831 199.688C569.398 205.689 564.697 210.745 558.814 210.745Z" fill="#003876"/>
<path d="M601.884 208.689C597.466 213.108 590.284 213.108 585.866 208.689C581.448 204.271 581.448 197.089 585.866 192.671C590.284 188.253 597.466 188.253 601.884 192.671C606.302 197.089 606.302 204.271 601.884 208.689Z" fill="#E30238"/>
</g>
<defs>
<clipPath id="clip0_3303_87708">
<rect width="642" height="641" fill="white"/>
</clipPath>
</defs>
</svg>
