<svg width="267" height="267" viewBox="0 0 267 267" fill="none" xmlns="http://www.w3.org/2000/svg">
<circle cx="133.459" cy="132.601" r="130.562" fill="#DCF4DD"/>
<mask id="mask0_3297_78381" style="mask-type:alpha" maskUnits="userSpaceOnUse" x="2" y="2" width="263" height="263">
<circle cx="133.477" cy="133.442" r="130.942" fill="white" stroke="#163F79"/>
</mask>
<g mask="url(#mask0_3297_78381)">
<circle cx="133.5" cy="132.5" r="102.5" fill="white"/>
<path d="M132.182 231.503C74.8957 231.503 28.4102 178.197 28.4102 112.69C28.4102 43.1646 35.783 -6.04883 132.256 -6.04883C228.729 -6.04883 236.102 43.1646 236.102 112.69C236.028 178.197 189.432 231.503 132.182 231.503ZM132.182 -2.21497C39.1007 -2.25183 32.0966 43.2752 32.0966 112.69C32.0966 176.207 76.9969 227.816 132.182 227.816C187.368 227.816 232.231 176.207 232.231 112.838C232.231 43.2752 225.264 -2.25184 132.182 -2.25184V-2.21497Z" fill="#163F79"/>
<path d="M196.546 152.868C201.523 121.754 253.169 114.087 250.626 150.766C250.239 163.511 245.355 175.708 236.839 185.197C227.991 194.192 213.725 198.468 202.223 193.307" fill="#DCF4DD"/>
<path d="M212.986 197.439C209.013 197.471 205.079 196.654 201.447 195.043C201.22 194.941 201.014 194.796 200.843 194.615C200.672 194.434 200.538 194.221 200.449 193.988C200.36 193.755 200.317 193.507 200.324 193.258C200.331 193.009 200.387 192.764 200.489 192.536C200.59 192.309 200.736 192.103 200.917 191.932C201.098 191.761 201.311 191.627 201.544 191.538C201.776 191.449 202.024 191.407 202.274 191.413C202.523 191.42 202.768 191.476 202.995 191.578C213.17 196.149 226.552 192.979 235.51 183.873C245.205 173.994 248.043 160.317 248.744 150.696C249.628 138.014 243.435 129.683 232.192 128.577C218.368 126.992 201.079 136.798 198.424 153.424C198.334 153.916 198.058 154.355 197.653 154.65C197.249 154.945 196.746 155.074 196.249 155.009C195.997 154.973 195.755 154.887 195.538 154.755C195.32 154.623 195.131 154.449 194.983 154.242C194.835 154.035 194.73 153.801 194.676 153.552C194.621 153.304 194.617 153.047 194.664 152.797C197.65 134.07 217.078 123.011 232.634 124.817C243.03 125.997 253.757 133.554 252.504 151.138C251.803 161.497 248.817 176.095 238.201 186.785C231.528 193.52 222.466 197.349 212.986 197.439Z" fill="#163F79"/>
<path d="M67.8138 152.868C62.8371 121.754 11.1538 114.087 13.6605 150.766C14.05 163.504 18.919 175.696 27.4108 185.197C36.2582 194.192 50.5614 198.468 62.063 193.307" fill="#DCF4DD"/>
<path d="M51.3731 197.44C41.8232 197.245 32.7412 193.267 26.1213 186.381C15.615 175.691 12.5553 161.092 11.818 150.734C10.6015 133.15 21.2921 125.592 31.7246 124.413C47.2444 122.606 66.7085 133.666 69.6945 152.393C69.7367 152.642 69.729 152.897 69.672 153.144C69.6151 153.39 69.5099 153.623 69.3625 153.829C69.2151 154.034 69.0285 154.209 68.8135 154.342C68.5984 154.475 68.3591 154.564 68.1094 154.604C67.6127 154.669 67.1102 154.541 66.7054 154.246C66.3007 153.951 66.0247 153.512 65.9344 153.019C63.2802 136.394 46.0278 126.588 32.167 128.173C21.1078 129.463 14.7303 137.794 15.615 150.291C16.3155 159.987 19.3015 173.663 28.8492 183.469C37.8072 192.574 50.9676 195.745 61.3633 191.173C61.5908 191.072 61.8361 191.016 62.0852 191.009C62.3344 191.002 62.5824 191.045 62.8151 191.134C63.0479 191.223 63.2609 191.357 63.4419 191.528C63.6229 191.699 63.7684 191.904 63.87 192.132C63.9717 192.359 64.0275 192.605 64.0344 192.854C64.0412 193.103 63.9989 193.351 63.9099 193.584C63.8209 193.817 63.687 194.03 63.5157 194.211C63.3443 194.392 63.1391 194.537 62.9116 194.639C59.3109 196.389 55.3757 197.345 51.3731 197.44Z" fill="#163F79"/>
<path d="M74.709 308.362C74.709 308.362 88.6805 338.812 129.452 338.812C140.849 339.154 152.14 336.527 162.215 331.189C172.291 325.85 180.805 317.984 186.923 308.362L181.467 188.775H80.0174L74.709 308.362Z" fill="#DCF4DD"/>
<path d="M129.449 340.732C87.9404 340.732 73.1211 309.471 72.9736 309.176C72.9046 308.885 72.9046 308.582 72.9736 308.292L78.4295 188.705C78.4486 188.219 78.655 187.76 79.0056 187.423C79.3561 187.086 79.8235 186.898 80.3096 186.898H181.501C181.991 186.898 182.463 187.084 182.819 187.42C183.176 187.756 183.39 188.216 183.418 188.705L188.837 308.292C188.87 308.638 188.792 308.987 188.616 309.287C182.286 319.169 173.516 327.254 163.153 332.762C152.79 338.27 141.182 341.015 129.449 340.732ZM76.6232 307.96C78.4664 311.646 92.4747 336.898 129.449 336.898C140.368 337.135 151.168 334.598 160.839 329.524C170.51 324.45 178.735 317.005 184.745 307.886L179.547 190.695H81.9684L76.6232 307.96Z" fill="#163F79"/>
<path d="M80.0227 239.972C87.8497 251.288 98.3631 260.484 110.62 266.735C130.674 277.794 160.644 290.328 184.938 286.605L180.956 236.027C163.14 238.244 145.125 238.355 127.282 236.359C111.578 234.995 95.395 233.484 80.9811 227.401C78.6218 226.332 77.0367 235.18 80.0227 239.972Z" fill="#163F79"/>
<path d="M175.865 289.117C151.387 289.117 124.661 276.509 109.915 268.362C97.3495 262.001 86.596 252.567 78.6545 240.935C77.376 238.777 76.6831 236.322 76.6443 233.813C76.6055 231.305 77.2222 228.829 78.4333 226.632C78.8458 226.075 79.4414 225.681 80.1155 225.519C80.7897 225.357 81.4993 225.438 82.1197 225.747C96.4967 231.793 113.122 233.12 127.794 234.558C145.501 236.546 163.382 236.434 181.063 234.226C181.309 234.192 181.56 234.207 181.8 234.27C182.04 234.333 182.266 234.444 182.464 234.595C182.659 234.751 182.819 234.946 182.934 235.169C183.048 235.391 183.114 235.635 183.127 235.885L186.924 286.462C186.958 286.923 186.817 287.379 186.53 287.741C186.244 288.103 185.832 288.344 185.376 288.416C182.228 288.889 179.048 289.123 175.865 289.117ZM81.0138 229.36C80.4584 230.926 80.2371 232.592 80.3641 234.249C80.491 235.906 80.9635 237.518 81.7511 238.982C89.3423 250.094 99.6287 259.1 111.648 265.155C127.61 273.966 157.765 288.084 183.127 285.025L179.441 238.097C162.121 240.07 144.634 240.07 127.315 238.097C112.459 236.917 95.7594 235.443 80.9401 229.36H81.0138Z" fill="#163F79"/>
<path d="M127.94 247.942H136.272C145.637 247.942 154.911 246.096 163.563 242.511C172.216 238.926 180.077 233.671 186.698 227.047C193.319 220.422 198.569 212.559 202.15 203.904C205.731 195.25 207.571 185.975 207.567 176.61V63.6953C207.567 63.6953 182.794 70.8101 132.106 70.8101C81.4179 70.8101 56.6084 63.6953 56.6084 63.6953V176.61C56.6084 195.528 64.1237 213.672 77.501 227.049C90.8783 240.426 109.022 247.942 127.94 247.942Z" fill="#DCF4DD"/>
<path d="M207.645 63.7026V176.617C207.65 185.983 205.809 195.258 202.228 203.912C198.648 212.566 193.397 220.43 186.776 227.054C180.155 233.678 172.294 238.933 163.642 242.518C154.989 246.104 145.715 247.949 136.35 247.949H127.945C109.026 247.949 90.8828 240.434 77.5055 227.056C64.1281 213.679 56.6129 195.535 56.6129 176.617V63.7026C56.6129 63.7026 81.4223 70.8174 132.11 70.8174C182.798 70.8174 207.571 63.7026 207.571 63.7026M56.6129 60.0162C55.7929 60.0185 54.994 60.2762 54.3273 60.7535C53.8474 61.1039 53.4594 61.5652 53.1962 62.0979C52.933 62.6307 52.8025 63.2192 52.8159 63.8132V176.728C52.8646 196.628 60.7991 215.697 74.8811 229.759C88.9631 243.82 108.044 251.726 127.945 251.746H136.276C156.192 251.717 175.285 243.792 189.368 229.709C203.451 215.626 211.376 196.533 211.405 176.617V63.7026C211.398 63.112 211.259 62.5304 210.997 62.0008C210.736 61.4713 210.358 61.0072 209.893 60.6429C209.213 60.1649 208.402 59.9075 207.571 59.9056C207.229 59.8518 206.881 59.8518 206.539 59.9056C206.281 59.9056 181.508 66.8729 132.11 66.8729C82.7126 66.8729 57.9031 60.1268 57.9031 60.0531C57.5486 60.0011 57.1885 60.0011 56.834 60.0531L56.6129 60.0162Z" fill="#163F79"/>
<path d="M133.321 177.347C129.896 177.359 126.473 177.162 123.072 176.757C122.366 176.674 121.689 176.424 121.099 176.026C120.509 175.629 120.023 175.096 119.681 174.472C114.409 165.698 128.307 128.318 131.146 120.908C131.326 120.419 131.694 120.023 132.168 119.805C132.641 119.587 133.182 119.566 133.671 119.747C134.16 119.928 134.557 120.296 134.774 120.769C134.992 121.243 135.013 121.783 134.832 122.272C128.491 138.751 119.718 166.951 123.036 172.518C123.087 172.647 123.173 172.759 123.283 172.843C123.393 172.928 123.524 172.981 123.662 172.997C130.378 173.701 137.148 173.701 143.864 172.997C144.367 172.935 144.875 173.074 145.275 173.385C145.676 173.696 145.937 174.153 146.002 174.656C146.033 174.903 146.014 175.154 145.947 175.394C145.88 175.634 145.766 175.858 145.612 176.054C145.457 176.249 145.266 176.412 145.048 176.533C144.83 176.654 144.59 176.73 144.343 176.757C140.683 177.165 137.003 177.362 133.321 177.347Z" fill="#163F79"/>
</g>
<path d="M133.532 264.957C103.756 264.974 74.8567 254.881 51.5646 236.332C28.2726 217.783 11.9677 191.875 5.31912 162.851C-1.32944 133.827 2.07221 103.406 14.9672 76.5673C27.8622 49.7286 49.4866 28.0626 76.3005 15.116C103.114 2.16942 133.529 -1.29075 162.566 5.30195C191.603 11.8946 217.541 28.1496 236.135 51.4059C254.729 74.6623 264.878 103.542 264.918 133.318C264.959 163.094 254.89 192.001 236.36 215.308C224.09 230.821 208.462 243.349 190.651 251.948C172.84 260.548 153.31 264.996 133.532 264.957ZM133.532 3.84125C99.1274 3.88018 66.1431 17.5646 41.8154 41.8922C17.4877 66.2199 3.80336 99.2041 3.76443 133.609C3.76443 168.025 17.4363 201.032 41.7724 225.368C66.1086 249.704 99.1154 263.376 133.532 263.376C167.948 263.376 200.955 249.704 225.291 225.368C249.627 201.032 263.299 168.025 263.299 133.609C263.304 99.1771 249.639 66.1523 225.306 41.7918C200.973 17.4313 167.963 3.72825 133.532 3.69414V3.84125Z" fill="#00C35B" stroke="#00C35B" stroke-width="4"/>
</svg>
