<svg width="268" height="267" viewBox="0 0 268 267" fill="none" xmlns="http://www.w3.org/2000/svg">
<circle cx="134.379" cy="132.562" r="130.562" fill="#F4DCDC"/>
<circle cx="134.5" cy="132.5" r="102.5" fill="white"/>
<path d="M236.607 214.943C225.904 228.407 212.643 239.621 197.588 247.939C182.533 256.257 165.982 261.514 148.887 263.409C139.337 264.463 129.7 264.463 120.149 263.409C103.035 261.536 86.4611 256.291 71.3858 247.975C56.3105 239.66 43.0326 228.439 32.3193 214.962C50.5166 202.125 70.6189 192.229 91.8901 185.636C119.674 176.978 149.435 176.978 177.22 185.636C198.421 192.253 218.458 202.142 236.607 214.943Z" fill="#6DB0E2"/>
<path d="M161.756 194.738L148.886 263.41C147.819 263.539 146.753 263.631 145.686 263.704C142.009 264.035 138.283 264.201 134.508 264.201C130.296 264.206 126.086 263.998 121.895 263.576C121.307 263.576 120.737 263.576 120.056 263.41L105.752 194.738C119.192 190.749 148.279 190.749 161.756 194.738Z" fill="#163F79"/>
<path d="M134.453 156.405C105.881 156.405 82.6963 129.819 82.6963 97.1472C82.6963 62.4712 86.3735 37.9258 134.49 37.9258C182.606 37.9258 186.283 62.4712 186.283 97.1472C186.246 129.819 163.007 156.405 134.453 156.405ZM134.453 39.8379C88.0282 39.8195 84.5349 62.5263 84.5349 97.1472C84.5349 128.826 106.929 154.567 134.453 154.567C161.977 154.567 184.353 128.826 184.353 97.2208C184.353 62.5263 180.878 39.8195 134.453 39.8195V39.8379Z" fill="#163F79"/>
<path d="M166.556 117.187C169.038 101.669 194.797 97.8447 193.528 116.139C193.335 122.495 190.899 128.578 186.652 133.311C182.239 137.798 175.124 139.93 169.387 137.356" fill="#F4DCDC"/>
<path d="M174.755 139.416C172.773 139.432 170.811 139.024 169 138.221C168.887 138.17 168.784 138.098 168.699 138.007C168.613 137.917 168.546 137.811 168.502 137.695C168.458 137.579 168.437 137.455 168.44 137.331C168.443 137.206 168.471 137.084 168.522 136.971C168.573 136.857 168.645 136.755 168.736 136.669C168.826 136.584 168.932 136.517 169.048 136.473C169.164 136.428 169.288 136.407 169.412 136.411C169.536 136.414 169.659 136.442 169.772 136.493C174.847 138.772 181.521 137.191 185.989 132.65C190.824 127.722 192.24 120.901 192.589 116.102C193.031 109.778 189.942 105.622 184.334 105.071C177.439 104.28 168.816 109.171 167.492 117.463C167.447 117.709 167.31 117.928 167.108 118.075C166.906 118.222 166.655 118.286 166.408 118.254C166.282 118.236 166.161 118.193 166.053 118.127C165.944 118.061 165.85 117.974 165.776 117.871C165.702 117.768 165.65 117.651 165.623 117.527C165.595 117.403 165.593 117.275 165.617 117.15C167.106 107.81 176.796 102.294 184.555 103.195C189.739 103.784 195.09 107.553 194.465 116.323C194.115 121.49 192.626 128.77 187.331 134.102C184.003 137.461 179.483 139.371 174.755 139.416Z" fill="#163F79"/>
<path d="M102.35 117.187C99.8679 101.669 74.0906 97.8447 75.3409 116.139C75.5352 122.492 77.9636 128.572 82.1989 133.311C86.6115 137.798 93.7453 139.93 99.4818 137.356" fill="#F4DCDC"/>
<path d="M94.1496 139.417C89.3865 139.319 84.8568 137.336 81.5551 133.901C76.3151 128.569 74.7891 121.288 74.4214 116.122C73.8146 107.352 79.1466 103.583 84.3498 102.994C92.0904 102.093 101.798 107.609 103.287 116.949C103.308 117.074 103.305 117.201 103.276 117.324C103.248 117.447 103.195 117.563 103.122 117.665C103.048 117.768 102.955 117.855 102.848 117.921C102.741 117.988 102.621 118.032 102.497 118.052C102.249 118.085 101.999 118.021 101.797 117.874C101.595 117.727 101.457 117.508 101.412 117.262C100.088 108.97 91.4836 104.079 84.5704 104.87C79.0546 105.513 75.8739 109.668 76.3151 115.901C76.6645 120.737 78.1537 127.558 82.9157 132.449C87.3835 136.99 93.9473 138.571 99.1322 136.291C99.2457 136.241 99.368 136.213 99.4923 136.209C99.6165 136.206 99.7402 136.227 99.8563 136.271C99.9724 136.316 100.079 136.383 100.169 136.468C100.259 136.554 100.332 136.656 100.382 136.769C100.433 136.883 100.461 137.005 100.464 137.129C100.468 137.254 100.447 137.377 100.402 137.494C100.358 137.61 100.291 137.716 100.206 137.806C100.12 137.896 100.018 137.969 99.9044 138.02C98.1086 138.893 96.1459 139.369 94.1496 139.417Z" fill="#163F79"/>
<path d="M105.788 194.74C105.788 194.74 112.756 209.927 133.091 209.927C138.776 210.098 144.407 208.787 149.432 206.125C154.457 203.462 158.704 199.539 161.755 194.74L159.034 135.096H108.436L105.788 194.74Z" fill="#F4DCDC"/>
<path d="M133.091 210.883C112.388 210.883 104.997 195.292 104.923 195.145C104.889 195 104.889 194.849 104.923 194.703L107.644 135.059C107.654 134.817 107.757 134.588 107.932 134.42C108.107 134.252 108.34 134.158 108.582 134.158H159.052C159.296 134.158 159.531 134.251 159.709 134.418C159.887 134.586 159.994 134.815 160.008 135.059L162.711 194.703C162.727 194.876 162.688 195.05 162.6 195.2C159.443 200.129 155.069 204.161 149.901 206.908C144.732 209.655 138.942 211.024 133.091 210.883ZM106.743 194.538C107.663 196.377 114.649 208.971 133.091 208.971C138.536 209.089 143.923 207.824 148.746 205.293C153.57 202.762 157.672 199.049 160.67 194.501L158.077 136.052H109.409L106.743 194.538Z" fill="#163F79"/>
<path d="M108.438 160.632C112.341 166.276 117.585 170.863 123.698 173.981C133.7 179.496 148.648 185.748 160.764 183.891L158.779 158.665C149.893 159.77 140.907 159.826 132.008 158.83C124.176 158.15 116.105 157.396 108.916 154.363C107.739 153.829 106.948 158.242 108.438 160.632Z" fill="#163F79"/>
<path d="M156.24 185.141C144.032 185.141 130.702 178.853 123.347 174.79C117.08 171.617 111.717 166.912 107.756 161.11C107.118 160.034 106.773 158.809 106.753 157.558C106.734 156.307 107.042 155.073 107.646 153.977C107.851 153.699 108.148 153.502 108.485 153.421C108.821 153.341 109.175 153.381 109.484 153.535C116.655 156.551 124.947 157.213 132.264 157.93C141.096 158.921 150.014 158.866 158.832 157.764C158.955 157.747 159.08 157.755 159.2 157.786C159.32 157.818 159.432 157.873 159.531 157.948C159.628 158.026 159.708 158.123 159.765 158.234C159.823 158.345 159.855 158.467 159.862 158.592L161.756 183.817C161.772 184.047 161.702 184.274 161.559 184.455C161.416 184.635 161.211 184.755 160.983 184.792C159.413 185.027 157.828 185.144 156.24 185.141ZM108.933 155.337C108.656 156.118 108.545 156.949 108.609 157.776C108.672 158.602 108.908 159.406 109.3 160.136C113.086 165.679 118.217 170.17 124.211 173.19C132.173 177.584 147.212 184.626 159.862 183.1L158.023 159.695C149.385 160.679 140.664 160.679 132.025 159.695C124.616 159.106 116.287 158.371 108.896 155.337H108.933Z" fill="#163F79"/>
<path d="M132.337 164.604H136.493C141.164 164.604 145.789 163.684 150.104 161.896C154.42 160.108 158.341 157.487 161.643 154.183C164.945 150.879 167.564 146.957 169.35 142.641C171.136 138.324 172.054 133.699 172.051 129.027V72.7109C172.051 72.7109 159.696 76.2594 134.415 76.2594C109.134 76.2594 96.7603 72.7109 96.7603 72.7109V129.027C96.7603 138.463 100.509 147.512 107.181 154.184C113.852 160.856 122.902 164.604 132.337 164.604Z" fill="#F4DCDC"/>
<path d="M172.09 72.7108V129.027C172.092 133.698 171.174 138.324 169.389 142.641C167.603 146.957 164.984 150.879 161.682 154.183C158.379 157.487 154.459 160.108 150.143 161.896C145.828 163.684 141.203 164.604 136.531 164.604H132.339C122.904 164.604 113.855 160.856 107.183 154.184C100.511 147.512 96.7624 138.463 96.7624 129.027V72.7108C96.7624 72.7108 109.136 76.2593 134.417 76.2593C159.698 76.2593 172.053 72.7108 172.053 72.7108M96.7624 70.8722C96.3534 70.8733 95.955 71.0018 95.6224 71.2399C95.3831 71.4147 95.1896 71.6447 95.0583 71.9104C94.9271 72.1762 94.862 72.4697 94.8686 72.7659V129.082C94.8929 139.008 98.8503 148.519 105.874 155.532C112.897 162.545 122.414 166.488 132.339 166.498H136.495C146.428 166.483 155.95 162.531 162.974 155.507C169.998 148.483 173.951 138.961 173.965 129.027V72.7108C173.962 72.4162 173.893 72.1261 173.762 71.862C173.632 71.5979 173.443 71.3664 173.212 71.1847C172.872 70.9463 172.468 70.8179 172.053 70.817C171.883 70.7902 171.709 70.7902 171.538 70.817C171.41 70.817 159.054 74.292 134.417 74.292C109.78 74.292 97.4059 70.9273 97.4059 70.8906C97.2291 70.8647 97.0495 70.8647 96.8727 70.8906L96.7624 70.8722Z" fill="#163F79"/>
<path d="M135.021 129.397C133.313 129.402 131.606 129.304 129.91 129.102C129.557 129.061 129.22 128.936 128.926 128.738C128.631 128.539 128.389 128.274 128.218 127.962C125.589 123.587 132.52 104.943 133.936 101.247C134.026 101.004 134.21 100.806 134.446 100.697C134.682 100.588 134.952 100.578 135.196 100.668C135.439 100.759 135.637 100.942 135.746 101.178C135.855 101.414 135.865 101.684 135.775 101.928C132.612 110.146 128.237 124.212 129.891 126.988C129.917 127.052 129.96 127.108 130.015 127.15C130.07 127.192 130.135 127.219 130.204 127.227C133.553 127.578 136.93 127.578 140.279 127.227C140.53 127.196 140.784 127.265 140.983 127.42C141.183 127.575 141.314 127.803 141.346 128.054C141.361 128.178 141.352 128.303 141.318 128.422C141.285 128.542 141.228 128.654 141.151 128.751C141.074 128.849 140.979 128.93 140.87 128.99C140.761 129.051 140.642 129.089 140.518 129.102C138.693 129.306 136.858 129.404 135.021 129.397Z" fill="#163F79"/>
<path d="M133.736 225.661L124.138 218.27L133.736 210.879L143.315 218.27L133.736 225.661Z" fill="#E30238"/>
<path d="M145.632 263.704C141.955 264.035 138.228 264.201 134.453 264.201C130.241 264.206 126.031 263.998 121.84 263.576L130.5 223.126V222.648H136.77L136.862 223.145L145.632 263.704Z" fill="#E30238"/>
<path d="M196.397 249.27H196.268C196.145 249.255 196.025 249.214 195.917 249.152C195.81 249.089 195.715 249.006 195.64 248.907C195.565 248.808 195.51 248.694 195.479 248.574C195.448 248.453 195.441 248.327 195.459 248.204L199.964 214.245C200 213.996 200.132 213.771 200.331 213.617C200.529 213.462 200.78 213.391 201.03 213.417C201.281 213.45 201.509 213.58 201.664 213.78C201.819 213.98 201.889 214.233 201.858 214.484L197.335 248.461C197.303 248.687 197.191 248.894 197.018 249.043C196.846 249.192 196.625 249.272 196.397 249.27Z" fill="#163F79"/>
<path d="M72.509 249.271C72.2794 249.269 72.0583 249.184 71.8861 249.032C71.714 248.88 71.6022 248.671 71.5713 248.444L67.0667 214.466C67.0352 214.218 67.1022 213.967 67.2535 213.768C67.4047 213.569 67.6281 213.436 67.8757 213.4C68.1259 213.374 68.3766 213.445 68.5753 213.599C68.7741 213.753 68.9055 213.978 68.9421 214.227L73.5018 248.186C73.5331 248.437 73.4635 248.691 73.3084 248.89C73.1534 249.09 72.9254 249.221 72.6745 249.253L72.509 249.271Z" fill="#163F79"/>
<path d="M134.451 264.918C104.676 264.935 75.7761 254.842 52.4841 236.293C29.192 217.744 12.8871 191.836 6.23856 162.812C-0.410005 133.788 2.99165 103.367 15.8866 76.5283C28.7816 49.6896 50.406 28.0236 77.2199 15.077C104.034 2.13035 134.449 -1.32981 163.485 5.26288C192.522 11.8556 218.461 28.1106 237.055 51.3669C255.649 74.6232 265.797 103.503 265.838 133.279C265.879 163.055 255.81 191.962 237.28 215.269C225.01 230.782 209.381 243.31 191.57 251.909C173.759 260.509 154.23 264.957 134.451 264.918ZM134.451 3.80218C100.047 3.84112 67.0625 17.5255 42.7349 41.8531C18.4072 66.1808 4.7228 99.165 4.68386 133.57C4.68386 167.986 18.3558 200.993 42.6919 225.329C67.028 249.665 100.035 263.337 134.451 263.337C168.868 263.337 201.875 249.665 226.211 225.329C250.547 200.993 264.219 167.986 264.219 133.57C264.224 99.138 250.558 66.1132 226.225 41.7527C201.892 17.3922 168.883 3.68919 134.451 3.65507V3.80218Z" fill="#163F79" stroke="#C30000" stroke-width="4"/>
</svg>
