<svg width="494" height="129" viewBox="0 0 494 129" fill="none" xmlns="http://www.w3.org/2000/svg">
<path d="M25.1105 59.0014C21.8658 65.2231 20.2021 72.1391 20.2511 79.3391M54.4537 30.436C44.5419 32.2198 35.4727 36.9848 28.3215 44.2712C27.5341 45.0304 22.8279 49.7214 19.6169 56.2671C15.9157 63.8127 14.0681 71.5929 14.1233 79.3885" stroke="#0087FF" stroke-width="3" stroke-miterlimit="10" stroke-linecap="round"/>
<path d="M8.4209 72.9687C9.21752 66.6328 11.1263 59.6458 14.1259 53.5291" stroke="#0087FF" stroke-width="3" stroke-miterlimit="10" stroke-linecap="round" stroke-linejoin="round"/>
<path d="M35.5185 65.5503C33.5147 69.7382 32.4729 74.3643 32.5067 79.151M93.9935 79.1695C93.9291 78.8917 93.8617 78.4905 93.8219 77.9319L93.586 75.4291C91.8334 60.0786 78.7903 48.0735 63.1459 48.0735H63.1336C54.8028 48.1321 47.0725 51.3973 41.3246 57.2671" stroke="#0087FF" stroke-width="3" stroke-miterlimit="10" stroke-linecap="round"/>
<path d="M72.9287 43.3386C83.6004 46.8661 92.1548 54.0259 95.7764 62.0221C97.7159 66.3026 99.3305 70.8269 99.7687 75.7277" stroke="#0087FF" stroke-width="3" stroke-miterlimit="10" stroke-linecap="round"/>
<path d="M104.576 67.8237C103.776 64.8486 102.652 61.9569 101.206 59.167C95.703 48.5353 85.9935 40.5977 74.5711 37.3943M26.3848 78.3659C26.5196 70.4716 29.0627 63.0185 33.7689 56.7413C34.7371 55.4482 35.8125 54.1953 36.9615 53.0225C43.8614 45.9738 53.1421 42.0544 63.0937 41.9865M27.1416 88.075C27.8371 92.6795 29.1577 98.5617 31.6548 104.975M20.2539 79.3381C20.2784 82.0878 20.6154 89.4514 23.1677 98.7777" stroke="#0087FF" stroke-width="3" stroke-miterlimit="10" stroke-linecap="round"/>
<path d="M90.8286 46.1135C83.3282 39.6974 73.6308 35.8181 63.094 35.8181H63.0726H63.0511C51.4603 35.8984 40.6446 40.4689 32.5957 48.6935" stroke="#0087FF" stroke-width="3" stroke-miterlimit="10" stroke-linecap="round" stroke-linejoin="round"/>
<path d="M14.123 79.3845C14.1414 81.3874 14.3099 85.6432 15.2444 91.2477" stroke="#0087FF" stroke-width="3" stroke-miterlimit="10" stroke-linecap="round"/>
<path d="M94.7867 41.4037C85.9197 33.8211 74.6445 29.6455 63.0414 29.6455H63.0261H63.0107" stroke="#0087FF" stroke-width="3" stroke-miterlimit="10" stroke-linecap="round" stroke-linejoin="round"/>
<path d="M14.123 53.5286C17.6558 46.3256 22.6316 41.2118 24.0747 39.8169C34.2898 29.4073 48.1357 23.5745 62.9743 23.4727C76.0817 23.4727 88.7786 28.1698 98.7548 36.6968" stroke="#0087FF" stroke-width="3" stroke-miterlimit="10" stroke-linecap="round"/>
<path d="M34.4558 24.4484C33.9196 24.7324 33.408 25.0564 32.881 25.3558C31.827 25.9576 30.7883 26.5779 29.7742 27.2414C29.2165 27.6056 28.6711 27.9852 28.1258 28.3709C27.1208 29.0777 26.1403 29.8183 25.1813 30.5868C24.7248 30.951 24.2652 31.3059 23.821 31.6855C22.4636 32.8397 21.1431 34.0371 19.8869 35.3148C19.8685 35.3333 19.8501 35.3456 19.8317 35.3641C19.703 35.4907 19.5069 35.6851 19.3292 35.8641C19.2741 35.9196 19.2465 35.9443 19.1822 36.0091C17.0436 38.1725 12.1964 43.5208 8.63002 50.7949C8.63002 50.7979 8.62695 50.801 8.62695 50.8041M95.3789 26.6057C85.703 20.5599 74.4676 17.2979 62.9319 17.2979C59.3226 17.3225 55.7807 17.7052 52.3093 18.3255L52.3001 18.2823C52.0673 18.3255 51.8436 18.3903 51.6107 18.4336C50.8601 18.5755 50.1247 18.7514 49.3833 18.9212C48.366 19.1557 47.3549 19.4088 46.3561 19.6927" stroke="#0087FF" stroke-width="3" stroke-miterlimit="10" stroke-linecap="round" stroke-linejoin="round"/>
<path d="M14.8438 31.6582L15.576 30.9268C15.5913 30.9113 15.6097 30.8928 15.6281 30.8743C16.8721 29.6152 18.2662 28.3313 19.8655 26.9703C20.2363 26.6555 20.6101 26.3593 20.9839 26.063L21.3607 25.7606C22.427 24.9119 23.5055 24.094 24.6115 23.3163C25.2182 22.8904 25.8157 22.4769 26.4223 22.0757C27.5529 21.335 28.6958 20.6499 29.857 19.9864L30.3748 19.6839C30.7731 19.4494 31.1745 19.2148 31.585 18.9957C33.2457 18.1131 34.937 17.3045 36.6252 16.5824C37.1522 16.3571 37.6976 16.1503 38.2399 15.9466L38.8251 15.7275C39.9128 15.3047 41.0189 14.8912 42.1402 14.5239C42.9859 14.2462 43.8377 13.9993 44.6925 13.7524C45.7955 13.4407 46.9047 13.1598 48.023 12.9037L48.3876 12.8204C49.0831 12.6599 49.7694 12.5025 50.4741 12.3698C50.7652 12.3019 50.9919 12.2494 51.2187 12.2093C51.4791 12.163 51.7395 12.1321 52 12.1198C55.7992 11.4779 59.3718 11.1538 62.8922 11.1292C71.1679 11.1292 79.3057 12.6506 86.9164 15.5516" stroke="#0087FF" stroke-width="3" stroke-miterlimit="10" stroke-linecap="round" stroke-linejoin="round"/>
<path d="M84.6456 108.706C80.4265 107.644 77.0378 105.851 74.3171 103.66M61.8745 97.4227C64.7883 103.206 69.47 108.99 76.9919 112.517M69.3321 78.8441C69.2953 75.4741 66.547 72.7305 63.2042 72.7305H63.192C61.5221 72.7428 59.9871 73.394 58.8381 74.5698C57.6892 75.7426 57.0641 77.298 57.0733 78.946M87.7095 78.3658C88.0098 82.6154 89.6704 84.9238 92.6424 85.2232C95.4245 85.504 98.0012 86.3959 100.25 87.7508M63.2042 66.5613H63.192C59.8554 66.586 56.773 67.8914 54.4751 70.24C52.1772 72.5885 50.924 75.6963 50.9485 78.9923M75.4599 78.7824C75.4323 76.0296 74.4979 73.4897 72.9475 71.4436M45.4488 74.076C45.0229 75.6716 44.8115 77.335 44.8237 79.0324" stroke="#0087FF" stroke-width="3" stroke-miterlimit="10" stroke-linecap="round"/>
<path d="M81.5878 78.7215C81.4806 68.6113 73.2356 60.3898 63.2043 60.3898H63.192C58.1887 60.4237 53.5591 62.3834 50.1121 65.9047M93.8435 91.2481C85.7946 91.2481 81.6706 87.0325 81.5878 78.7215M43.3072 100.831C44.7074 104.336 46.4783 107.895 48.6935 111.317M57.0764 55.0075C52.7931 56.1124 48.8988 58.3529 45.7491 61.5718C41.1532 66.2658 38.6469 72.4844 38.6929 79.0795M75.3007 57.461C71.7251 55.3995 67.5918 54.2175 63.2043 54.2175M87.7157 78.6598C87.6697 74.3083 86.4932 70.2191 84.471 66.6763M76.2015 31.4448C89.266 35.1112 100.354 44.1721 106.638 56.313M32.5068 79.1504C32.5712 86.1467 34.4984 97.6951 40.1544 108.91" stroke="#0087FF" stroke-width="3" stroke-miterlimit="10" stroke-linecap="round"/>
<path d="M27.8797 111.694C20.9644 96.5999 20.2903 83.1906 20.2536 79.262M19.1291 106.343C14.6496 93.449 14.1563 82.7277 14.1226 79.3175M11.8155 103.559C9.64625 96.0845 8.69949 89.5543 8.29199 84.9868M34.6908 111.707C32.1201 106.611 30.34 101.67 29.1114 97.2202" stroke="#0087FF" stroke-width="3" stroke-miterlimit="10" stroke-linecap="round" stroke-linejoin="round"/>
<path d="M38.6934 79.0802C38.7301 83.0058 39.4164 88.5207 41.1598 94.5665M50.9491 78.9938C50.9828 82.5305 51.6905 87.7214 53.5687 93.2919C56.0015 100.507 60.3921 108.352 67.8068 114.034M44.8212 79.037C44.8947 87.061 48.0261 102.569 58.6058 114.049M70.2181 99.5043C63.1864 90.5637 63.1925 79.0247 63.1925 79.0247C63.1925 79.0247 63.2017 79.0247 63.2048 79.0247M57.0769 78.9475C57.0769 79.0925 57.1903 84.589 59.3718 91.3013M90.8168 103.649C70.9657 101.649 69.3571 81.1387 69.3326 78.8457M93.844 97.4212C76.9587 97.4212 75.5033 83.157 75.4605 78.7839M103.587 82.5799C100.741 80.8239 97.4962 79.6295 93.9941 79.1697" stroke="#0087FF" stroke-width="3" stroke-miterlimit="10" stroke-linecap="round"/>
<path d="M130.75 35C130.75 31.5667 131.517 28.5 133.05 25.8C134.617 23.0667 136.733 20.95 139.4 19.45C142.1 17.9167 145.117 17.15 148.45 17.15C152.35 17.15 155.767 18.15 158.7 20.15C161.633 22.15 163.683 24.9167 164.85 28.45H156.8C156 26.7833 154.867 25.5333 153.4 24.7C151.967 23.8667 150.3 23.45 148.4 23.45C146.367 23.45 144.55 23.9333 142.95 24.9C141.383 25.8333 140.15 27.1667 139.25 28.9C138.383 30.6333 137.95 32.6667 137.95 35C137.95 37.3 138.383 39.3333 139.25 41.1C140.15 42.8333 141.383 44.1833 142.95 45.15C144.55 46.0833 146.367 46.55 148.4 46.55C150.3 46.55 151.967 46.1333 153.4 45.3C154.867 44.4333 156 43.1667 156.8 41.5H164.85C163.683 45.0667 161.633 47.85 158.7 49.85C155.8 51.8167 152.383 52.8 148.45 52.8C145.117 52.8 142.1 52.05 139.4 50.55C136.733 49.0167 134.617 46.9 133.05 44.2C131.517 41.5 130.75 38.4333 130.75 35ZM196.979 24.8V52.5H189.929V49C189.029 50.2 187.846 51.15 186.379 51.85C184.946 52.5167 183.379 52.85 181.679 52.85C179.512 52.85 177.596 52.4 175.929 51.5C174.262 50.5667 172.946 49.2167 171.979 47.45C171.046 45.65 170.579 43.5167 170.579 41.05V24.8H177.579V40.05C177.579 42.25 178.129 43.95 179.229 45.15C180.329 46.3167 181.829 46.9 183.729 46.9C185.662 46.9 187.179 46.3167 188.279 45.15C189.379 43.95 189.929 42.25 189.929 40.05V24.8H196.979ZM229.636 38.05C229.636 39.05 229.569 39.95 229.436 40.75H209.186C209.352 42.75 210.052 44.3167 211.286 45.45C212.519 46.5833 214.036 47.15 215.836 47.15C218.436 47.15 220.286 46.0333 221.386 43.8H228.936C228.136 46.4667 226.602 48.6667 224.336 50.4C222.069 52.1 219.286 52.95 215.986 52.95C213.319 52.95 210.919 52.3667 208.786 51.2C206.686 50 205.036 48.3167 203.836 46.15C202.669 43.9833 202.086 41.4833 202.086 38.65C202.086 35.7833 202.669 33.2667 203.836 31.1C205.002 28.9333 206.636 27.2667 208.736 26.1C210.836 24.9333 213.252 24.35 215.986 24.35C218.619 24.35 220.969 24.9167 223.036 26.05C225.136 27.1833 226.752 28.8 227.886 30.9C229.052 32.9667 229.636 35.35 229.636 38.05ZM222.386 36.05C222.352 34.25 221.702 32.8167 220.436 31.75C219.169 30.65 217.619 30.1 215.786 30.1C214.052 30.1 212.586 30.6333 211.386 31.7C210.219 32.7333 209.502 34.1833 209.236 36.05H222.386ZM250.095 24.4C253.395 24.4 256.062 25.45 258.095 27.55C260.128 29.6167 261.145 32.5167 261.145 36.25V52.5H254.145V37.2C254.145 35 253.595 33.3167 252.495 32.15C251.395 30.95 249.895 30.35 247.995 30.35C246.062 30.35 244.528 30.95 243.395 32.15C242.295 33.3167 241.745 35 241.745 37.2V52.5H234.745V24.8H241.745V28.25C242.678 27.05 243.862 26.1167 245.295 25.45C246.762 24.75 248.362 24.4 250.095 24.4ZM275.952 30.55V43.95C275.952 44.8833 276.168 45.5667 276.602 46C277.068 46.4 277.835 46.6 278.902 46.6H282.152V52.5H277.752C271.852 52.5 268.902 49.6333 268.902 43.9V30.55H265.602V24.8H268.902V17.95H275.952V24.8H282.152V30.55H275.952ZM285.386 38.55C285.386 35.75 285.936 33.2667 287.036 31.1C288.17 28.9333 289.686 27.2667 291.586 26.1C293.52 24.9333 295.67 24.35 298.036 24.35C300.103 24.35 301.903 24.7667 303.436 25.6C305.003 26.4333 306.253 27.4833 307.186 28.75V24.8H314.236V52.5H307.186V48.45C306.286 49.75 305.036 50.8333 303.436 51.7C301.87 52.5333 300.053 52.95 297.986 52.95C295.653 52.95 293.52 52.35 291.586 51.15C289.686 49.95 288.17 48.2667 287.036 46.1C285.936 43.9 285.386 41.3833 285.386 38.55ZM307.186 38.65C307.186 36.95 306.853 35.5 306.186 34.3C305.52 33.0667 304.62 32.1333 303.486 31.5C302.353 30.8333 301.136 30.5 299.836 30.5C298.536 30.5 297.336 30.8167 296.236 31.45C295.136 32.0833 294.236 33.0167 293.536 34.25C292.87 35.45 292.536 36.8833 292.536 38.55C292.536 40.2167 292.87 41.6833 293.536 42.95C294.236 44.1833 295.136 45.1333 296.236 45.8C297.37 46.4667 298.57 46.8 299.836 46.8C301.136 46.8 302.353 46.4833 303.486 45.85C304.62 45.1833 305.52 44.25 306.186 43.05C306.853 41.8167 307.186 40.35 307.186 38.65ZM339.887 17.6V39.2C339.887 41.5667 340.504 43.3833 341.737 44.65C342.97 45.8833 344.704 46.5 346.937 46.5C349.204 46.5 350.954 45.8833 352.187 44.65C353.42 43.3833 354.037 41.5667 354.037 39.2V17.6H361.087V39.15C361.087 42.1167 360.437 44.6333 359.137 46.7C357.87 48.7333 356.154 50.2667 353.987 51.3C351.854 52.3333 349.47 52.85 346.837 52.85C344.237 52.85 341.87 52.3333 339.737 51.3C337.637 50.2667 335.97 48.7333 334.737 46.7C333.504 44.6333 332.887 42.1167 332.887 39.15V17.6H339.887ZM352.387 10.35L340.887 15.6V10.6L352.387 4.65V10.35ZM383.2 24.4C386.5 24.4 389.167 25.45 391.2 27.55C393.234 29.6167 394.25 32.5167 394.25 36.25V52.5H387.25V37.2C387.25 35 386.7 33.3167 385.6 32.15C384.5 30.95 383 30.35 381.1 30.35C379.167 30.35 377.634 30.95 376.5 32.15C375.4 33.3167 374.85 35 374.85 37.2V52.5H367.85V24.8H374.85V28.25C375.784 27.05 376.967 26.1167 378.4 25.45C379.867 24.75 381.467 24.4 383.2 24.4ZM404.457 21.5C403.224 21.5 402.19 21.1167 401.357 20.35C400.557 19.55 400.157 18.5667 400.157 17.4C400.157 16.2333 400.557 15.2667 401.357 14.5C402.19 13.7 403.224 13.3 404.457 13.3C405.69 13.3 406.707 13.7 407.507 14.5C408.34 15.2667 408.757 16.2333 408.757 17.4C408.757 18.5667 408.34 19.55 407.507 20.35C406.707 21.1167 405.69 21.5 404.457 21.5ZM407.907 24.8V52.5H400.907V24.8H407.907ZM413.023 38.65C413.023 35.7833 413.606 33.2833 414.773 31.15C415.94 28.9833 417.556 27.3167 419.623 26.15C421.69 24.95 424.056 24.35 426.723 24.35C430.156 24.35 432.99 25.2167 435.223 26.95C437.49 28.65 439.006 31.05 439.773 34.15H432.223C431.823 32.95 431.14 32.0167 430.173 31.35C429.24 30.65 428.073 30.3 426.673 30.3C424.673 30.3 423.09 31.0333 421.923 32.5C420.756 33.9333 420.173 35.9833 420.173 38.65C420.173 41.2833 420.756 43.3333 421.923 44.8C423.09 46.2333 424.673 46.95 426.673 46.95C429.506 46.95 431.356 45.6833 432.223 43.15H439.773C439.006 46.15 437.49 48.5333 435.223 50.3C432.956 52.0667 430.123 52.95 426.723 52.95C424.056 52.95 421.69 52.3667 419.623 51.2C417.556 50 415.94 48.3333 414.773 46.2C413.606 44.0333 413.023 41.5167 413.023 38.65ZM443.101 38.55C443.101 35.75 443.651 33.2667 444.751 31.1C445.885 28.9333 447.401 27.2667 449.301 26.1C451.235 24.9333 453.385 24.35 455.751 24.35C457.818 24.35 459.618 24.7667 461.151 25.6C462.718 26.4333 463.968 27.4833 464.901 28.75V24.8H471.951V52.5H464.901V48.45C464.001 49.75 462.751 50.8333 461.151 51.7C459.585 52.5333 457.768 52.95 455.701 52.95C453.368 52.95 451.235 52.35 449.301 51.15C447.401 49.95 445.885 48.2667 444.751 46.1C443.651 43.9 443.101 41.3833 443.101 38.55ZM464.901 38.65C464.901 36.95 464.568 35.5 463.901 34.3C463.235 33.0667 462.335 32.1333 461.201 31.5C460.068 30.8333 458.851 30.5 457.551 30.5C456.251 30.5 455.051 30.8167 453.951 31.45C452.851 32.0833 451.951 33.0167 451.251 34.25C450.585 35.45 450.251 36.8833 450.251 38.55C450.251 40.2167 450.585 41.6833 451.251 42.95C451.951 44.1833 452.851 45.1333 453.951 45.8C455.085 46.4667 456.285 46.8 457.551 46.8C458.851 46.8 460.068 46.4833 461.201 45.85C462.335 45.1833 463.235 44.25 463.901 43.05C464.568 41.8167 464.901 40.35 464.901 38.65ZM130.75 91C130.75 87.5667 131.517 84.5 133.05 81.8C134.617 79.0667 136.733 76.95 139.4 75.45C142.1 73.9167 145.117 73.15 148.45 73.15C152.35 73.15 155.767 74.15 158.7 76.15C161.633 78.15 163.683 80.9167 164.85 84.45H156.8C156 82.7833 154.867 81.5333 153.4 80.7C151.967 79.8667 150.3 79.45 148.4 79.45C146.367 79.45 144.55 79.9333 142.95 80.9C141.383 81.8333 140.15 83.1667 139.25 84.9C138.383 86.6333 137.95 88.6667 137.95 91C137.95 93.3 138.383 95.3333 139.25 97.1C140.15 98.8333 141.383 100.183 142.95 101.15C144.55 102.083 146.367 102.55 148.4 102.55C150.3 102.55 151.967 102.133 153.4 101.3C154.867 100.433 156 99.1667 156.8 97.5H164.85C163.683 101.067 161.633 103.85 158.7 105.85C155.8 107.817 152.383 108.8 148.45 108.8C145.117 108.8 142.1 108.05 139.4 106.55C136.733 105.017 134.617 102.9 133.05 100.2C131.517 97.5 130.75 94.4333 130.75 91ZM176.879 77.5C175.646 77.5 174.612 77.1167 173.779 76.35C172.979 75.55 172.579 74.5667 172.579 73.4C172.579 72.2333 172.979 71.2667 173.779 70.5C174.612 69.7 175.646 69.3 176.879 69.3C178.112 69.3 179.129 69.7 179.929 70.5C180.762 71.2667 181.179 72.2333 181.179 73.4C181.179 74.5667 180.762 75.55 179.929 76.35C179.129 77.1167 178.112 77.5 176.879 77.5ZM180.329 80.8V108.5H173.329V80.8H180.329ZM215.895 80.8V108.5H208.845V105C207.945 106.2 206.762 107.15 205.295 107.85C203.862 108.517 202.295 108.85 200.595 108.85C198.428 108.85 196.512 108.4 194.845 107.5C193.178 106.567 191.862 105.217 190.895 103.45C189.962 101.65 189.495 99.5167 189.495 97.05V80.8H196.495V96.05C196.495 98.25 197.045 99.95 198.145 101.15C199.245 102.317 200.745 102.9 202.645 102.9C204.578 102.9 206.095 102.317 207.195 101.15C208.295 99.95 208.845 98.25 208.845 96.05V80.8H215.895ZM223.502 94.55C223.502 91.75 224.052 89.2667 225.152 87.1C226.285 84.9333 227.818 83.2667 229.752 82.1C231.685 80.9333 233.835 80.35 236.202 80.35C238.002 80.35 239.718 80.75 241.352 81.55C242.985 82.3167 244.285 83.35 245.252 84.65V71.5H252.352V108.5H245.252V104.4C244.385 105.767 243.168 106.867 241.602 107.7C240.035 108.533 238.218 108.95 236.152 108.95C233.818 108.95 231.685 108.35 229.752 107.15C227.818 105.95 226.285 104.267 225.152 102.1C224.052 99.9 223.502 97.3833 223.502 94.55ZM245.302 94.65C245.302 92.95 244.968 91.5 244.302 90.3C243.635 89.0667 242.735 88.1333 241.602 87.5C240.468 86.8333 239.252 86.5 237.952 86.5C236.652 86.5 235.452 86.8167 234.352 87.45C233.252 88.0833 232.352 89.0167 231.652 90.25C230.985 91.45 230.652 92.8833 230.652 94.55C230.652 96.2167 230.985 97.6833 231.652 98.95C232.352 100.183 233.252 101.133 234.352 101.8C235.485 102.467 236.685 102.8 237.952 102.8C239.252 102.8 240.468 102.483 241.602 101.85C242.735 101.183 243.635 100.25 244.302 99.05C244.968 97.8167 245.302 96.35 245.302 94.65ZM259.888 94.55C259.888 91.75 260.438 89.2667 261.538 87.1C262.672 84.9333 264.188 83.2667 266.088 82.1C268.022 80.9333 270.172 80.35 272.538 80.35C274.605 80.35 276.405 80.7667 277.938 81.6C279.505 82.4333 280.755 83.4833 281.688 84.75V80.8H288.738V108.5H281.688V104.45C280.788 105.75 279.538 106.833 277.938 107.7C276.372 108.533 274.555 108.95 272.488 108.95C270.155 108.95 268.022 108.35 266.088 107.15C264.188 105.95 262.672 104.267 261.538 102.1C260.438 99.9 259.888 97.3833 259.888 94.55ZM281.688 94.65C281.688 92.95 281.355 91.5 280.688 90.3C280.022 89.0667 279.122 88.1333 277.988 87.5C276.855 86.8333 275.638 86.5 274.338 86.5C273.038 86.5 271.838 86.8167 270.738 87.45C269.638 88.0833 268.738 89.0167 268.038 90.25C267.372 91.45 267.038 92.8833 267.038 94.55C267.038 96.2167 267.372 97.6833 268.038 98.95C268.738 100.183 269.638 101.133 270.738 101.8C271.872 102.467 273.072 102.8 274.338 102.8C275.638 102.8 276.855 102.483 277.988 101.85C279.122 101.183 280.022 100.25 280.688 99.05C281.355 97.8167 281.688 96.35 281.688 94.65ZM296.275 94.55C296.275 91.75 296.825 89.2667 297.925 87.1C299.058 84.9333 300.592 83.2667 302.525 82.1C304.458 80.9333 306.608 80.35 308.975 80.35C310.775 80.35 312.492 80.75 314.125 81.55C315.758 82.3167 317.058 83.35 318.025 84.65V71.5H325.125V108.5H318.025V104.4C317.158 105.767 315.942 106.867 314.375 107.7C312.808 108.533 310.992 108.95 308.925 108.95C306.592 108.95 304.458 108.35 302.525 107.15C300.592 105.95 299.058 104.267 297.925 102.1C296.825 99.9 296.275 97.3833 296.275 94.55ZM318.075 94.65C318.075 92.95 317.742 91.5 317.075 90.3C316.408 89.0667 315.508 88.1333 314.375 87.5C313.242 86.8333 312.025 86.5 310.725 86.5C309.425 86.5 308.225 86.8167 307.125 87.45C306.025 88.0833 305.125 89.0167 304.425 90.25C303.758 91.45 303.425 92.8833 303.425 94.55C303.425 96.2167 303.758 97.6833 304.425 98.95C305.125 100.183 306.025 101.133 307.125 101.8C308.258 102.467 309.458 102.8 310.725 102.8C312.025 102.8 313.242 102.483 314.375 101.85C315.508 101.183 316.408 100.25 317.075 99.05C317.742 97.8167 318.075 96.35 318.075 94.65ZM332.662 94.55C332.662 91.75 333.212 89.2667 334.312 87.1C335.445 84.9333 336.962 83.2667 338.862 82.1C340.795 80.9333 342.945 80.35 345.312 80.35C347.378 80.35 349.178 80.7667 350.712 81.6C352.278 82.4333 353.528 83.4833 354.462 84.75V80.8H361.512V108.5H354.462V104.45C353.562 105.75 352.312 106.833 350.712 107.7C349.145 108.533 347.328 108.95 345.262 108.95C342.928 108.95 340.795 108.35 338.862 107.15C336.962 105.95 335.445 104.267 334.312 102.1C333.212 99.9 332.662 97.3833 332.662 94.55ZM354.462 94.65C354.462 92.95 354.128 91.5 353.462 90.3C352.795 89.0667 351.895 88.1333 350.762 87.5C349.628 86.8333 348.412 86.5 347.112 86.5C345.812 86.5 344.612 86.8167 343.512 87.45C342.412 88.0833 341.512 89.0167 340.812 90.25C340.145 91.45 339.812 92.8833 339.812 94.55C339.812 96.2167 340.145 97.6833 340.812 98.95C341.512 100.183 342.412 101.133 343.512 101.8C344.645 102.467 345.845 102.8 347.112 102.8C348.412 102.8 349.628 102.483 350.762 101.85C351.895 101.183 352.795 100.25 353.462 99.05C354.128 97.8167 354.462 96.35 354.462 94.65ZM386.198 80.4C389.498 80.4 392.165 81.45 394.198 83.55C396.232 85.6167 397.248 88.5167 397.248 92.25V108.5H390.248V93.2C390.248 91 389.698 89.3167 388.598 88.15C387.498 86.95 385.998 86.35 384.098 86.35C382.165 86.35 380.632 86.95 379.498 88.15C378.398 89.3167 377.848 91 377.848 93.2V108.5H370.848V80.8H377.848V84.25C378.782 83.05 379.965 82.1167 381.398 81.45C382.865 80.75 384.465 80.4 386.198 80.4ZM404.605 94.55C404.605 91.75 405.155 89.2667 406.255 87.1C407.388 84.9333 408.905 83.2667 410.805 82.1C412.738 80.9333 414.888 80.35 417.255 80.35C419.322 80.35 421.122 80.7667 422.655 81.6C424.222 82.4333 425.472 83.4833 426.405 84.75V80.8H433.455V108.5H426.405V104.45C425.505 105.75 424.255 106.833 422.655 107.7C421.088 108.533 419.272 108.95 417.205 108.95C414.872 108.95 412.738 108.35 410.805 107.15C408.905 105.95 407.388 104.267 406.255 102.1C405.155 99.9 404.605 97.3833 404.605 94.55ZM426.405 94.65C426.405 92.95 426.072 91.5 425.405 90.3C424.738 89.0667 423.838 88.1333 422.705 87.5C421.572 86.8333 420.355 86.5 419.055 86.5C417.755 86.5 416.555 86.8167 415.455 87.45C414.355 88.0833 413.455 89.0167 412.755 90.25C412.088 91.45 411.755 92.8833 411.755 94.55C411.755 96.2167 412.088 97.6833 412.755 98.95C413.455 100.183 414.355 101.133 415.455 101.8C416.588 102.467 417.788 102.8 419.055 102.8C420.355 102.8 421.572 102.483 422.705 101.85C423.838 101.183 424.738 100.25 425.405 99.05C426.072 97.8167 426.405 96.35 426.405 94.65Z" fill="#003670"/>
</svg>
