<svg width="167" height="83" viewBox="0 0 167 83" fill="none" xmlns="http://www.w3.org/2000/svg">
<g clip-path="url(#clip0_3399_10804)">
<path d="M93.9549 42.0508V50.2808C93.9549 51.0408 94.1349 51.6308 94.4849 52.0508C94.8349 52.4708 95.3749 52.6708 96.1049 52.6708C96.8349 52.6708 97.3749 52.4608 97.7449 52.0408C98.1149 51.6208 98.2949 51.0308 98.2949 50.2808V42.0508H102.235V50.2808C102.235 51.5808 101.955 52.6908 101.415 53.6108C100.865 54.5308 100.115 55.2208 99.1749 55.6808C98.2249 56.1408 97.1849 56.3708 96.0249 56.3708C94.8649 56.3708 93.8449 56.1408 92.9349 55.6808C92.0249 55.2208 91.3149 54.5308 90.8049 53.6208C90.2849 52.7108 90.0349 51.6008 90.0349 50.2808V42.0508H93.9549ZM98.0449 41.6508L94.0749 42.2708V40.1608L98.0449 39.3008V41.6508Z" fill="white"/>
<path d="M117.555 56.2308H113.615L108.365 48.3008V56.2308H104.425V42.0508H108.365L113.615 50.0808V42.0508H117.555V56.2308Z" fill="white"/>
<path d="M123.755 42.0508V56.2308H119.815V42.0508H123.755Z" fill="white"/>
<path d="M126.395 45.3802C126.975 44.2902 127.805 43.4402 128.875 42.8302C129.945 42.2202 131.185 41.9102 132.575 41.9102C134.345 41.9102 135.835 42.3802 137.045 43.3302C138.255 44.2802 139.025 45.5602 139.375 47.1802H135.135C134.885 46.6402 134.525 46.2302 134.075 45.9502C133.625 45.6702 133.105 45.5302 132.515 45.5302C131.605 45.5302 130.875 45.8602 130.335 46.5102C129.795 47.1602 129.525 48.0302 129.525 49.1202C129.525 50.2102 129.795 51.0902 130.335 51.7402C130.875 52.3902 131.605 52.7202 132.515 52.7202C133.105 52.7202 133.625 52.5802 134.075 52.3002C134.525 52.0202 134.875 51.6102 135.135 51.0702H139.375C139.025 52.6902 138.245 53.9802 137.045 54.9202C135.835 55.8702 134.345 56.3402 132.575 56.3402C131.175 56.3402 129.945 56.0402 128.875 55.4202C127.805 54.8102 126.975 53.9602 126.395 52.8702C125.815 51.7802 125.515 50.5302 125.515 49.1202C125.515 47.7102 125.805 46.4802 126.395 45.3902V45.3802Z" fill="white"/>
<path d="M150.225 53.9208H145.195L144.435 56.2308H140.295L145.465 42.0508H150.015L155.165 56.2308H151.005L150.245 53.9208H150.225ZM149.235 50.9008L147.705 46.3108L146.195 50.9008H149.235Z" fill="white"/>
<path d="M91.495 31.2991C91.845 30.6891 92.315 30.2191 92.915 29.8791C93.515 29.5391 94.195 29.3691 94.935 29.3691C95.805 29.3691 96.575 29.5891 97.235 30.0391C97.895 30.4891 98.355 31.1091 98.615 31.8991H96.815C96.635 31.5291 96.385 31.2491 96.055 31.0591C95.725 30.8691 95.355 30.7791 94.925 30.7791C94.465 30.7791 94.065 30.8891 93.705 31.0991C93.345 31.3091 93.075 31.6091 92.875 31.9991C92.675 32.3891 92.575 32.8391 92.575 33.3691C92.575 33.8991 92.675 34.3391 92.875 34.7291C93.075 35.1191 93.345 35.4191 93.705 35.6391C94.065 35.8591 94.465 35.9591 94.925 35.9591C95.355 35.9591 95.725 35.8591 96.055 35.6691C96.375 35.4791 96.635 35.1991 96.815 34.8191H98.615C98.355 35.6191 97.895 36.2391 97.245 36.6891C96.595 37.1391 95.825 37.3591 94.945 37.3591C94.195 37.3591 93.525 37.1891 92.925 36.8491C92.325 36.5091 91.845 36.0391 91.505 35.4291C91.155 34.8191 90.985 34.1391 90.985 33.3691C90.985 32.5991 91.155 31.9091 91.505 31.2991H91.495Z" fill="white"/>
<path d="M104.875 29.4688V34.3088C104.875 34.8388 105.015 35.2487 105.295 35.5287C105.575 35.8087 105.955 35.9488 106.455 35.9488C106.955 35.9488 107.355 35.8087 107.635 35.5287C107.915 35.2487 108.045 34.8388 108.045 34.3088V29.4688H109.625V34.2987C109.625 34.9688 109.485 35.5288 109.195 35.9888C108.905 36.4488 108.525 36.7987 108.045 37.0287C107.565 37.2587 107.025 37.3788 106.435 37.3788C105.845 37.3788 105.325 37.2587 104.845 37.0287C104.375 36.7987 103.995 36.4488 103.715 35.9888C103.435 35.5288 103.305 34.9688 103.305 34.2987V29.4688H104.875Z" fill="white"/>
<path d="M116.065 30.739V32.699H118.695V33.939H116.065V36.009H119.035V37.289H114.495V29.459H119.035V30.739H116.065Z" fill="white"/>
<path d="M130.505 37.289H128.935L125.385 31.919V37.289H123.815V29.459H125.385L128.935 34.839V29.459H130.505V37.289Z" fill="white"/>
<path d="M140.735 29.4688V30.7388H138.655V37.2888H137.085V30.7388H135.005V29.4688H140.745H140.735Z" fill="white"/>
<path d="M150.035 35.799H146.925L146.405 37.289H144.755L147.565 29.459H149.395L152.205 37.289H150.545L150.025 35.799H150.035ZM149.605 34.549L148.475 31.279L147.345 34.549H149.605Z" fill="white"/>
<path d="M150.835 0.5H12.165C7.54497 5.11 4.95497 7.7 0.344971 12.32V82.5H150.835C159.395 82.5 166.345 75.55 166.345 66.99V16.01C166.345 7.44 159.395 0.5 150.835 0.5ZM161.345 66.99C161.345 72.78 156.625 77.5 150.835 77.5H82.345V5.5H150.835C156.625 5.5 161.345 10.21 161.345 16.01V66.99Z" fill="white"/>
<path d="M39.935 68.2801C26.805 67.7801 16.605 56.5801 16.605 43.4301V36.8101C16.605 34.4701 18.495 32.5801 20.835 32.5801H60.915C63.255 32.5801 65.145 34.4701 65.145 36.8101V44.0201C65.145 57.7101 53.745 68.7901 39.935 68.2701V68.2801ZM25.055 41.0401V43.5701C25.055 52.0701 31.575 59.4001 40.065 59.8201C49.145 60.2701 56.675 53.0101 56.675 44.0301V41.0401H25.055Z" fill="#012E6C"/>
<path d="M38.245 25.3013H22.805C20.075 25.3013 17.645 23.3113 17.385 20.5913C17.085 17.4813 19.525 14.8613 22.585 14.8613H38.025C40.755 14.8613 43.185 16.8513 43.445 19.5713C43.745 22.6813 41.305 25.3013 38.245 25.3013Z" fill="#012E6C"/>
<path d="M55.865 25.9509C59.1069 25.9509 61.735 23.3228 61.735 20.0809C61.735 16.839 59.1069 14.2109 55.865 14.2109C52.6231 14.2109 49.995 16.839 49.995 20.0809C49.995 23.3228 52.6231 25.9509 55.865 25.9509Z" fill="#73B5E3"/>
</g>
<defs>
<clipPath id="clip0_3399_10804">
<rect width="166" height="82" fill="white" transform="translate(0.344971 0.5)"/>
</clipPath>
</defs>
</svg>
