<svg width="105" height="52" viewBox="0 0 105 52" fill="none" xmlns="http://www.w3.org/2000/svg">
<g clip-path="url(#clip0_3274_44165)">
<path d="M59.2111 26.3494V31.5684C59.2111 32.0503 59.325 32.4245 59.5464 32.6908C59.7678 32.9572 60.1093 33.084 60.5711 33.084C61.0328 33.084 61.3744 32.9508 61.6084 32.6845C61.8425 32.4182 61.9563 32.044 61.9563 31.5684V26.3494H64.4485V31.5684C64.4485 32.3928 64.2714 33.0967 63.9298 33.6801C63.5819 34.2635 63.1075 34.7011 62.513 34.9928C61.912 35.2845 61.2542 35.4303 60.5205 35.4303C59.7867 35.4303 59.1416 35.2845 58.566 34.9928C57.9904 34.7011 57.5413 34.2635 57.2187 33.6864C56.8898 33.1094 56.7316 32.4055 56.7316 31.5684V26.3494H59.2111ZM61.7982 26.0957L59.2871 26.4889V25.1508L61.7982 24.6055V26.0957Z" fill="#E30238"/>
<path d="M74.1389 35.3418H71.6467L68.3259 30.313V35.3418H65.8337V26.3496H68.3259L71.6467 31.4418V26.3496H74.1389V35.3418Z" fill="#E30238"/>
<path d="M78.0605 26.3496V35.3418H75.5684V26.3496H78.0605Z" fill="#E30238"/>
<path d="M79.7305 28.4603C80.0973 27.769 80.6223 27.23 81.2991 26.8432C81.9759 26.4564 82.7603 26.2598 83.6395 26.2598C84.7591 26.2598 85.7015 26.5578 86.4669 27.1603C87.2323 27.7627 87.7193 28.5744 87.9407 29.6017H85.2588C85.1006 29.2593 84.8729 28.9993 84.5883 28.8217C84.3036 28.6442 83.9747 28.5554 83.6015 28.5554C83.0259 28.5554 82.5642 28.7646 82.2226 29.1768C81.8811 29.589 81.7103 30.1407 81.7103 30.832C81.7103 31.5232 81.8811 32.0812 82.2226 32.4934C82.5642 32.9056 83.0259 33.1149 83.6015 33.1149C83.9747 33.1149 84.3036 33.0261 84.5883 32.8485C84.8729 32.671 85.0943 32.411 85.2588 32.0685H87.9407C87.7193 33.0959 87.2259 33.9139 86.4669 34.51C85.7015 35.1124 84.7591 35.4105 83.6395 35.4105C82.7539 35.4105 81.9759 35.2203 81.2991 34.8271C80.6223 34.4403 80.0973 33.9012 79.7305 33.21C79.3636 32.5188 79.1738 31.7261 79.1738 30.832C79.1738 29.9378 79.3573 29.1578 79.7305 28.4666V28.4603Z" fill="#E30238"/>
<path d="M94.8036 33.8769H91.622L91.1413 35.3418H88.5226L91.7928 26.3496H94.6708L97.9283 35.3418H95.297L94.8163 33.8769H94.8036ZM94.1774 31.9618L93.2096 29.0511L92.2545 31.9618H94.1774Z" fill="#E30238"/>
<path d="M57.6551 19.5325C57.8765 19.1457 58.1738 18.8476 58.5533 18.632C58.9328 18.4164 59.3629 18.3086 59.831 18.3086C60.3813 18.3086 60.8684 18.4481 61.2858 18.7335C61.7033 19.0188 61.9943 19.412 62.1587 19.913H61.0202C60.9063 19.6783 60.7482 19.5008 60.5394 19.3803C60.3307 19.2598 60.0967 19.2027 59.8247 19.2027C59.5337 19.2027 59.2807 19.2725 59.053 19.4057C58.8253 19.5388 58.6545 19.7291 58.528 19.9764C58.4015 20.2237 58.3382 20.5091 58.3382 20.8452C58.3382 21.1813 58.4015 21.4603 58.528 21.7076C58.6545 21.9549 58.8253 22.1452 59.053 22.2847C59.2807 22.4242 59.5337 22.4876 59.8247 22.4876C60.0967 22.4876 60.3307 22.4242 60.5394 22.3037C60.7419 22.1832 60.9063 22.0057 61.0202 21.7647H62.1587C61.9943 22.272 61.7033 22.6652 61.2922 22.9505C60.881 23.2359 60.394 23.3754 59.8373 23.3754C59.3629 23.3754 58.9391 23.2676 58.5596 23.052C58.1801 22.8364 57.8765 22.5383 57.6614 22.1515C57.4401 21.7647 57.3325 21.3335 57.3325 20.8452C57.3325 20.3569 57.4401 19.9193 57.6614 19.5325H57.6551Z" fill="#003876"/>
<path d="M66.1184 18.3711V21.4404C66.1184 21.7765 66.2069 22.0365 66.384 22.214C66.5611 22.3916 66.8015 22.4804 67.1178 22.4804C67.434 22.4804 67.6871 22.3916 67.8642 22.214C68.0413 22.0365 68.1235 21.7765 68.1235 21.4404V18.3711H69.1229V21.434C69.1229 21.8589 69.0343 22.214 68.8509 22.5057C68.6675 22.7974 68.4271 23.0194 68.1235 23.1652C67.8199 23.3111 67.4783 23.3872 67.1051 23.3872C66.7319 23.3872 66.403 23.3111 66.0994 23.1652C65.8021 23.0194 65.5618 22.7974 65.3846 22.5057C65.2075 22.214 65.1253 21.8589 65.1253 21.434V18.3711H66.1184Z" fill="#003876"/>
<path d="M73.1964 19.1769V20.4199H74.8599V21.2062H73.1964V22.5189H75.075V23.3306H72.2033V18.3652H75.075V19.1769H73.1964Z" fill="#003876"/>
<path d="M82.3301 23.3306H81.3371L79.0916 19.9252V23.3306H78.0985V18.3652H79.0916L81.3371 21.7769V18.3652H82.3301V23.3306Z" fill="#003876"/>
<path d="M88.8009 18.3711V19.1765H87.4852V23.3301H86.4922V19.1765H85.1765V18.3711H88.8072H88.8009Z" fill="#003876"/>
<path d="M94.6834 22.3857H92.7163L92.3874 23.3306H91.3437L93.1211 18.3652H94.2786L96.056 23.3306H95.006L94.6771 22.3857H94.6834ZM94.4115 21.593L93.6967 19.5194L92.9819 21.593H94.4115Z" fill="#003876"/>
<path d="M95.1895 0H7.47651C4.55422 2.92341 2.91596 4.56585 0 7.49561V52H95.1895C100.604 52 105 47.5927 105 42.1644V9.83561C105 4.40098 100.604 0 95.1895 0ZM101.837 42.1644C101.837 45.8361 98.8518 48.8293 95.1895 48.8293H51.8675V3.17073H95.1895C98.8518 3.17073 101.837 6.15756 101.837 9.83561V42.1644Z" fill="#003876"/>
<path d="M25.0418 42.9808C16.7367 42.6637 10.2849 35.5613 10.2849 27.2223V23.0242C10.2849 21.5403 11.4804 20.3418 12.9605 20.3418H38.3123C39.7924 20.3418 40.9879 21.5403 40.9879 23.0242V27.5964C40.9879 36.2779 33.7771 43.3042 25.0418 42.9745V42.9808ZM15.6298 25.7067V27.3111C15.6298 32.7013 19.7539 37.3496 25.1241 37.6159C30.8674 37.9013 35.6304 33.2974 35.6304 27.6028V25.7067H15.6298Z" fill="white"/>
<path d="M23.9728 15.726H14.2066C12.4798 15.726 10.9427 14.464 10.7783 12.7391C10.5885 10.7669 12.1319 9.10547 14.0674 9.10547H23.8337C25.5605 9.10547 27.0975 10.3674 27.262 12.0923C27.4518 14.0645 25.9084 15.726 23.9728 15.726Z" fill="white"/>
<path d="M35.118 16.1382C37.1686 16.1382 38.831 14.4716 38.831 12.4158C38.831 10.36 37.1686 8.69336 35.118 8.69336C33.0674 8.69336 31.4051 10.36 31.4051 12.4158C31.4051 14.4716 33.0674 16.1382 35.118 16.1382Z" fill="#73B5E3"/>
</g>
<defs>
<clipPath id="clip0_3274_44165">
<rect width="105" height="52" fill="white"/>
</clipPath>
</defs>
</svg>
