<svg width="226" height="58" viewBox="0 0 226 58" fill="none" xmlns="http://www.w3.org/2000/svg">
<path d="M18.7652 15.649V15.313H19.5628V14.875H19.2347V15.152H18.7652V14.427H18.8428V14H18.495V14.427H18.5727V15.153H18.1032V14.875H17.7797V15.314H18.5773V15.649C17.8597 15.6753 17.1825 15.943 16.691 16.3948C16.1994 16.8466 15.9327 17.4466 15.9479 18.066H21.3865C21.4012 17.4479 21.1353 16.8492 20.6457 16.3977C20.156 15.9462 19.4812 15.6776 18.7652 15.649Z" fill="white"/>
<path d="M15.2278 18.8788H22.0855C22.1137 18.8788 22.1409 18.8691 22.1609 18.8518C22.1809 18.8346 22.1921 18.8112 22.1921 18.7868V18.4358C22.1921 18.4114 22.1809 18.388 22.1609 18.3707C22.1409 18.3534 22.1137 18.3438 22.0855 18.3438H15.2278C15.1995 18.3438 15.1723 18.3534 15.1523 18.3707C15.1323 18.388 15.1211 18.4114 15.1211 18.4358V18.7878C15.1211 18.7998 15.1239 18.8117 15.1292 18.8228C15.1346 18.8339 15.1425 18.844 15.1524 18.8525C15.1623 18.8609 15.1741 18.8676 15.187 18.8721C15.2 18.8766 15.2138 18.8789 15.2278 18.8788Z" fill="white"/>
<path d="M15.2278 23.3631H22.0855C22.1137 23.3631 22.1409 23.3534 22.1609 23.3362C22.1809 23.3189 22.1921 23.2955 22.1921 23.2711V22.9191C22.192 22.907 22.1891 22.8951 22.1836 22.884C22.1781 22.8729 22.1701 22.8628 22.1601 22.8544C22.1501 22.8459 22.1382 22.8393 22.1252 22.8347C22.1122 22.8302 22.0983 22.828 22.0843 22.8281H15.2278C15.1995 22.8281 15.1723 22.8378 15.1523 22.8551C15.1323 22.8723 15.1211 22.8957 15.1211 22.9201V23.2721C15.1211 23.2842 15.1239 23.2961 15.1292 23.3072C15.1346 23.3183 15.1425 23.3284 15.1524 23.3368C15.1623 23.3453 15.1741 23.352 15.187 23.3565C15.2 23.361 15.2138 23.3633 15.2278 23.3631Z" fill="white"/>
<path d="M16.4697 19.1407C16.4428 19.1401 16.4161 19.1443 16.3912 19.1529C16.3662 19.1615 16.3435 19.1743 16.3244 19.1907C16.3054 19.207 16.2903 19.2265 16.2802 19.248C16.2701 19.2695 16.2652 19.2925 16.2657 19.3157V22.3917C16.2657 22.4373 16.2867 22.481 16.3241 22.5133C16.3615 22.5455 16.4122 22.5637 16.4651 22.5637H17.2917C17.3446 22.5637 17.3953 22.5455 17.4327 22.5133C17.4701 22.481 17.4911 22.4373 17.4911 22.3917V19.3157C17.4911 19.2701 17.4701 19.2263 17.4327 19.194C17.3953 19.1618 17.3446 19.1437 17.2917 19.1437L16.4697 19.1407Z" fill="white"/>
<path d="M18.2424 19.1406C18.2159 19.1406 18.1897 19.1452 18.1653 19.154C18.1409 19.1628 18.1187 19.1758 18.1002 19.1921C18.0816 19.2083 18.067 19.2277 18.0572 19.2489C18.0474 19.2701 18.0425 19.2928 18.043 19.3156V22.3916C18.043 22.4372 18.064 22.481 18.1014 22.5132C18.1388 22.5455 18.1895 22.5636 18.2424 22.5636H19.0691C19.1219 22.5636 19.1727 22.5455 19.2101 22.5132C19.2475 22.481 19.2685 22.4372 19.2685 22.3916V19.3156C19.2685 19.27 19.2475 19.2263 19.2101 19.194C19.1727 19.1617 19.1219 19.1436 19.0691 19.1436L18.2424 19.1406Z" fill="white"/>
<path d="M19.9905 19.1406C19.964 19.1406 19.9378 19.1452 19.9133 19.154C19.8889 19.1628 19.8668 19.1758 19.8482 19.1921C19.8296 19.2083 19.815 19.2277 19.8052 19.2489C19.7954 19.2701 19.7906 19.2928 19.791 19.3156V22.3916C19.791 22.4372 19.8121 22.481 19.8495 22.5132C19.8868 22.5455 19.9376 22.5636 19.9905 22.5636H20.8171C20.87 22.5636 20.9207 22.5455 20.9581 22.5132C20.9955 22.481 21.0165 22.4372 21.0165 22.3916V19.3156C21.0165 19.27 20.9955 19.2263 20.9581 19.194C20.9207 19.1617 20.87 19.1436 20.8171 19.1436L19.9905 19.1406Z" fill="white"/>
<path d="M4.48457 34.6259C5.09958 32.1771 6.29694 29.8651 8.00096 27.8359C9.39046 26.2357 11.1061 24.867 13.0639 23.7969C9.9696 24.7903 7.24156 26.4827 5.16512 28.6969C2.60867 31.4797 1.19097 34.9137 1.13281 38.4639H3.77851C3.88275 37.1691 4.11901 35.8848 4.48457 34.6259Z" fill="white"/>
<path d="M29.3622 27.8369C31.0663 29.866 32.2637 32.1781 32.8786 34.6269C33.2455 35.8864 33.4829 37.1714 33.5881 38.4669H36.2338C36.1758 34.9157 34.7581 31.4808 32.2015 28.6969C30.1236 26.4818 27.3934 24.7894 24.2969 23.7969C26.2558 24.8669 27.9723 26.236 29.3622 27.8369Z" fill="white"/>
<path d="M15.4941 24.3594C13.9862 24.9973 12.5948 25.8224 11.3644 26.8084C6.21906 30.9394 5.62314 36.6234 5.52344 38.4674H10.1018C9.97671 35.0729 10.7706 31.7 12.4206 28.6164C13.2466 27.0977 14.2782 25.6687 15.4941 24.3594Z" fill="white"/>
<path d="M31.7507 38.4674C31.6487 36.6264 31.0551 30.9404 25.9109 26.8084C24.6805 25.8224 23.2891 24.9973 21.7812 24.3594C22.9937 25.6692 24.0222 27.0981 24.8455 28.6164C26.4954 31.7 27.2893 35.0729 27.1642 38.4674H31.7507Z" fill="white"/>
<path d="M17.8133 38.4674V24.3594C16.1637 25.8945 14.8144 27.6508 13.8181 29.5594C12.3731 32.3543 11.7083 35.4026 11.8773 38.4594L17.8133 38.4674Z" fill="white"/>
<path d="M19.5391 24.3594V38.4674H25.4751C25.6441 35.4106 24.9793 32.3623 23.5343 29.5674C22.5383 27.6562 21.189 25.8973 19.5391 24.3594Z" fill="white"/>
<path d="M33.6219 39.5985V39.1205C33.6219 39.072 33.5995 39.0254 33.5597 38.9911C33.5199 38.9568 33.466 38.9375 33.4097 38.9375H31.9025C31.8463 38.9375 31.7923 38.9568 31.7525 38.9911C31.7127 39.0254 31.6904 39.072 31.6904 39.1205V39.5985H27.2847V39.1205C27.2847 39.0721 27.2625 39.0257 27.223 38.9915C27.1835 38.9572 27.1298 38.9378 27.0737 38.9375H25.5665C25.5103 38.9375 25.4563 38.9568 25.4165 38.9911C25.3767 39.0254 25.3544 39.072 25.3544 39.1205V39.5985H19.5934V39.1205C19.5934 39.072 19.5711 39.0254 19.5313 38.9911C19.4915 38.9568 19.4375 38.9375 19.3813 38.9375H17.8741C17.8178 38.9375 17.7639 38.9568 17.7241 38.9911C17.6843 39.0254 17.6619 39.072 17.6619 39.1205V39.5985H11.9578V39.1205C11.9578 39.072 11.9354 39.0254 11.8957 38.9911C11.8559 38.9568 11.8019 38.9375 11.7456 38.9375H10.2384C10.1822 38.9375 10.1282 38.9568 10.0884 38.9911C10.0486 39.0254 10.0263 39.072 10.0263 39.1205V39.5985H5.61253V39.1205C5.61253 39.072 5.59018 39.0254 5.55039 38.9911C5.5106 38.9568 5.45664 38.9375 5.40037 38.9375H3.8955C3.83923 38.9375 3.78527 38.9568 3.74548 38.9911C3.70569 39.0254 3.68333 39.072 3.68333 39.1205V39.5985H0V40.1735H37.2612V39.6015L33.6219 39.5985Z" fill="white"/>
<path d="M5.37976 42.2611C5.44126 42.2611 5.50023 42.24 5.54372 42.2025C5.5872 42.165 5.61163 42.1141 5.61163 42.0611V40.5391H3.68359V42.0611C3.68359 42.1141 3.70802 42.165 3.75151 42.2025C3.79499 42.24 3.85397 42.2611 3.91547 42.2611H5.37976Z" fill="white"/>
<path d="M11.7274 42.2611C11.7889 42.2611 11.8479 42.24 11.8914 42.2025C11.9349 42.165 11.9593 42.1141 11.9593 42.0611V40.5391H10.0312V42.0611C10.0312 42.1141 10.0557 42.165 10.0992 42.2025C10.1426 42.24 10.2016 42.2611 10.2631 42.2611H11.7274Z" fill="white"/>
<path d="M19.3602 42.2611C19.4217 42.2611 19.4807 42.24 19.5242 42.2025C19.5677 42.165 19.5921 42.1141 19.5921 42.0611V40.5391H17.6641V42.0611C17.6641 42.1141 17.6885 42.165 17.732 42.2025C17.7755 42.24 17.8344 42.2611 17.8959 42.2611H19.3602Z" fill="white"/>
<path d="M27.0567 42.2611C27.1182 42.2611 27.1772 42.24 27.2207 42.2025C27.2641 42.165 27.2886 42.1141 27.2886 42.0611V40.5391H25.3594V42.0611C25.3594 42.1141 25.3838 42.165 25.4273 42.2025C25.4708 42.24 25.5298 42.2611 25.5912 42.2611H27.0567Z" fill="white"/>
<path d="M33.3926 42.2611C33.4541 42.2611 33.5131 42.24 33.5566 42.2025C33.6001 42.165 33.6245 42.1141 33.6245 42.0611V40.5391H31.6953V42.0611C31.6953 42.1141 31.7197 42.165 31.7632 42.2025C31.8067 42.24 31.8657 42.2611 31.9272 42.2611H33.3926Z" fill="white"/>
<path d="M37.0072 42.7422H0.250425C0.184008 42.7422 0.120312 42.7649 0.0733478 42.8055C0.026384 42.846 0 42.9009 0 42.9582L0 43.7822C0 43.8395 0.026384 43.8944 0.0733478 43.9349C0.120312 43.9754 0.184008 43.9982 0.250425 43.9982H37.0026C37.069 43.9982 37.1327 43.9754 37.1797 43.9349C37.2266 43.8944 37.253 43.8395 37.253 43.7822V42.9582C37.2533 42.9015 37.2277 42.847 37.1817 42.8066C37.1356 42.7661 37.073 42.743 37.0072 42.7422Z" fill="white"/>
<path d="M49.2617 4.5V53.5" stroke="#D3D3D3"/>
<path d="M69.6767 16.68C69.6767 17.21 69.5517 17.71 69.3017 18.18C69.0517 18.65 68.6517 19.035 68.1017 19.335C67.5517 19.625 66.8467 19.77 65.9867 19.77H64.0967V24H62.3867V13.575H65.9867C66.7867 13.575 67.4617 13.715 68.0117 13.995C68.5717 14.265 68.9867 14.635 69.2567 15.105C69.5367 15.575 69.6767 16.1 69.6767 16.68ZM65.9867 18.375C66.6367 18.375 67.1217 18.23 67.4417 17.94C67.7617 17.64 67.9217 17.22 67.9217 16.68C67.9217 15.54 67.2767 14.97 65.9867 14.97H64.0967V18.375H65.9867ZM73.0176 12.9V24H71.3076V12.9H73.0176ZM74.6927 19.83C74.6927 19 74.8627 18.265 75.2027 17.625C75.5527 16.985 76.0227 16.49 76.6127 16.14C77.2127 15.78 77.8727 15.6 78.5927 15.6C79.2427 15.6 79.8077 15.73 80.2877 15.99C80.7777 16.24 81.1677 16.555 81.4577 16.935V15.735H83.1827V24H81.4577V22.77C81.1677 23.16 80.7727 23.485 80.2727 23.745C79.7727 24.005 79.2027 24.135 78.5627 24.135C77.8527 24.135 77.2027 23.955 76.6127 23.595C76.0227 23.225 75.5527 22.715 75.2027 22.065C74.8627 21.405 74.6927 20.66 74.6927 19.83ZM81.4577 19.86C81.4577 19.29 81.3377 18.795 81.0977 18.375C80.8677 17.955 80.5627 17.635 80.1827 17.415C79.8027 17.195 79.3927 17.085 78.9527 17.085C78.5127 17.085 78.1027 17.195 77.7227 17.415C77.3427 17.625 77.0327 17.94 76.7927 18.36C76.5627 18.77 76.4477 19.26 76.4477 19.83C76.4477 20.4 76.5627 20.9 76.7927 21.33C77.0327 21.76 77.3427 22.09 77.7227 22.32C78.1127 22.54 78.5227 22.65 78.9527 22.65C79.3927 22.65 79.8027 22.54 80.1827 22.32C80.5627 22.1 80.8677 21.78 81.0977 21.36C81.3377 20.93 81.4577 20.43 81.4577 19.86ZM87.4237 17.13V21.705C87.4237 22.015 87.4937 22.24 87.6337 22.38C87.7837 22.51 88.0337 22.575 88.3837 22.575H89.4337V24H88.0837C87.3137 24 86.7237 23.82 86.3137 23.46C85.9037 23.1 85.6987 22.515 85.6987 21.705V17.13H84.7237V15.735H85.6987V13.68H87.4237V15.735H89.4337V17.13H87.4237ZM90.4398 19.83C90.4398 19 90.6098 18.265 90.9498 17.625C91.2998 16.985 91.7698 16.49 92.3598 16.14C92.9598 15.78 93.6198 15.6 94.3398 15.6C94.9898 15.6 95.5548 15.73 96.0348 15.99C96.5248 16.24 96.9148 16.555 97.2048 16.935V15.735H98.9298V24H97.2048V22.77C96.9148 23.16 96.5198 23.485 96.0198 23.745C95.5198 24.005 94.9498 24.135 94.3098 24.135C93.5998 24.135 92.9498 23.955 92.3598 23.595C91.7698 23.225 91.2998 22.715 90.9498 22.065C90.6098 21.405 90.4398 20.66 90.4398 19.83ZM97.2048 19.86C97.2048 19.29 97.0848 18.795 96.8448 18.375C96.6148 17.955 96.3098 17.635 95.9298 17.415C95.5498 17.195 95.1398 17.085 94.6998 17.085C94.2598 17.085 93.8498 17.195 93.4698 17.415C93.0898 17.625 92.7798 17.94 92.5398 18.36C92.3098 18.77 92.1948 19.26 92.1948 19.83C92.1948 20.4 92.3098 20.9 92.5398 21.33C92.7798 21.76 93.0898 22.09 93.4698 22.32C93.8598 22.54 94.2698 22.65 94.6998 22.65C95.1398 22.65 95.5498 22.54 95.9298 22.32C96.3098 22.1 96.6148 21.78 96.8448 21.36C97.0848 20.93 97.2048 20.43 97.2048 19.86ZM104.641 17.13H103.111V24H101.386V17.13H100.411V15.735H101.386V15.15C101.386 14.2 101.636 13.51 102.136 13.08C102.646 12.64 103.441 12.42 104.521 12.42V13.845C104.001 13.845 103.636 13.945 103.426 14.145C103.216 14.335 103.111 14.67 103.111 15.15V15.735H104.641V17.13ZM109.741 24.135C108.961 24.135 108.256 23.96 107.626 23.61C106.996 23.25 106.501 22.75 106.141 22.11C105.781 21.46 105.601 20.71 105.601 19.86C105.601 19.02 105.786 18.275 106.156 17.625C106.526 16.975 107.031 16.475 107.671 16.125C108.311 15.775 109.026 15.6 109.816 15.6C110.606 15.6 111.321 15.775 111.961 16.125C112.601 16.475 113.106 16.975 113.476 17.625C113.846 18.275 114.031 19.02 114.031 19.86C114.031 20.7 113.841 21.445 113.461 22.095C113.081 22.745 112.561 23.25 111.901 23.61C111.251 23.96 110.531 24.135 109.741 24.135ZM109.741 22.65C110.181 22.65 110.591 22.545 110.971 22.335C111.361 22.125 111.676 21.81 111.916 21.39C112.156 20.97 112.276 20.46 112.276 19.86C112.276 19.26 112.161 18.755 111.931 18.345C111.701 17.925 111.396 17.61 111.016 17.4C110.636 17.19 110.226 17.085 109.786 17.085C109.346 17.085 108.936 17.19 108.556 17.4C108.186 17.61 107.891 17.925 107.671 18.345C107.451 18.755 107.341 19.26 107.341 19.86C107.341 20.75 107.566 21.44 108.016 21.93C108.476 22.41 109.051 22.65 109.741 22.65ZM117.432 16.935C117.682 16.515 118.012 16.19 118.422 15.96C118.842 15.72 119.337 15.6 119.907 15.6V17.37H119.472C118.802 17.37 118.292 17.54 117.942 17.88C117.602 18.22 117.432 18.81 117.432 19.65V24H115.722V15.735H117.432V16.935ZM131.484 15.6C132.134 15.6 132.714 15.735 133.224 16.005C133.744 16.275 134.149 16.675 134.439 17.205C134.739 17.735 134.889 18.375 134.889 19.125V24H133.194V19.38C133.194 18.64 133.009 18.075 132.639 17.685C132.269 17.285 131.764 17.085 131.124 17.085C130.484 17.085 129.974 17.285 129.594 17.685C129.224 18.075 129.039 18.64 129.039 19.38V24H127.344V19.38C127.344 18.64 127.159 18.075 126.789 17.685C126.419 17.285 125.914 17.085 125.274 17.085C124.634 17.085 124.124 17.285 123.744 17.685C123.374 18.075 123.189 18.64 123.189 19.38V24H121.479V15.735H123.189V16.68C123.469 16.34 123.824 16.075 124.254 15.885C124.684 15.695 125.144 15.6 125.634 15.6C126.294 15.6 126.884 15.74 127.404 16.02C127.924 16.3 128.324 16.705 128.604 17.235C128.854 16.735 129.244 16.34 129.774 16.05C130.304 15.75 130.874 15.6 131.484 15.6ZM136.494 19.83C136.494 19 136.664 18.265 137.004 17.625C137.354 16.985 137.824 16.49 138.414 16.14C139.014 15.78 139.674 15.6 140.394 15.6C141.044 15.6 141.609 15.73 142.089 15.99C142.579 16.24 142.969 16.555 143.259 16.935V15.735H144.984V24H143.259V22.77C142.969 23.16 142.574 23.485 142.074 23.745C141.574 24.005 141.004 24.135 140.364 24.135C139.654 24.135 139.004 23.955 138.414 23.595C137.824 23.225 137.354 22.715 137.004 22.065C136.664 21.405 136.494 20.66 136.494 19.83ZM143.259 19.86C143.259 19.29 143.139 18.795 142.899 18.375C142.669 17.955 142.364 17.635 141.984 17.415C141.604 17.195 141.194 17.085 140.754 17.085C140.314 17.085 139.904 17.195 139.524 17.415C139.144 17.625 138.834 17.94 138.594 18.36C138.364 18.77 138.249 19.26 138.249 19.83C138.249 20.4 138.364 20.9 138.594 21.33C138.834 21.76 139.144 22.09 139.524 22.32C139.914 22.54 140.324 22.65 140.754 22.65C141.194 22.65 141.604 22.54 141.984 22.32C142.364 22.1 142.669 21.78 142.899 21.36C143.139 20.93 143.259 20.43 143.259 19.86ZM152.822 13.575V20.22C152.822 21.01 153.027 21.605 153.437 22.005C153.857 22.405 154.437 22.605 155.177 22.605C155.927 22.605 156.507 22.405 156.917 22.005C157.337 21.605 157.547 21.01 157.547 20.22V13.575H159.257V20.19C159.257 21.04 159.072 21.76 158.702 22.35C158.332 22.94 157.837 23.38 157.217 23.67C156.597 23.96 155.912 24.105 155.162 24.105C154.412 24.105 153.727 23.96 153.107 23.67C152.497 23.38 152.012 22.94 151.652 22.35C151.292 21.76 151.112 21.04 151.112 20.19V13.575H152.822ZM156.722 11.34L153.407 12.975V11.715L156.722 9.885V11.34ZM165.653 15.6C166.303 15.6 166.883 15.735 167.393 16.005C167.913 16.275 168.318 16.675 168.608 17.205C168.898 17.735 169.043 18.375 169.043 19.125V24H167.348V19.38C167.348 18.64 167.163 18.075 166.793 17.685C166.423 17.285 165.918 17.085 165.278 17.085C164.638 17.085 164.128 17.285 163.748 17.685C163.378 18.075 163.193 18.64 163.193 19.38V24H161.483V15.735H163.193V16.68C163.473 16.34 163.828 16.075 164.258 15.885C164.698 15.695 165.163 15.6 165.653 15.6ZM172.095 14.64C171.785 14.64 171.525 14.535 171.315 14.325C171.105 14.115 171 13.855 171 13.545C171 13.235 171.105 12.975 171.315 12.765C171.525 12.555 171.785 12.45 172.095 12.45C172.395 12.45 172.65 12.555 172.86 12.765C173.07 12.975 173.175 13.235 173.175 13.545C173.175 13.855 173.07 14.115 172.86 14.325C172.65 14.535 172.395 14.64 172.095 14.64ZM172.935 15.735V24H171.225V15.735H172.935ZM174.61 19.86C174.61 19.01 174.78 18.265 175.12 17.625C175.47 16.975 175.95 16.475 176.56 16.125C177.17 15.775 177.87 15.6 178.66 15.6C179.66 15.6 180.485 15.84 181.135 16.32C181.795 16.79 182.24 17.465 182.47 18.345H180.625C180.475 17.935 180.235 17.615 179.905 17.385C179.575 17.155 179.16 17.04 178.66 17.04C177.96 17.04 177.4 17.29 176.98 17.79C176.57 18.28 176.365 18.97 176.365 19.86C176.365 20.75 176.57 21.445 176.98 21.945C177.4 22.445 177.96 22.695 178.66 22.695C179.65 22.695 180.305 22.26 180.625 21.39H182.47C182.23 22.23 181.78 22.9 181.12 23.4C180.46 23.89 179.64 24.135 178.66 24.135C177.87 24.135 177.17 23.96 176.56 23.61C175.95 23.25 175.47 22.75 175.12 22.11C174.78 21.46 174.61 20.71 174.61 19.86ZM183.604 19.83C183.604 19 183.774 18.265 184.114 17.625C184.464 16.985 184.934 16.49 185.524 16.14C186.124 15.78 186.784 15.6 187.504 15.6C188.154 15.6 188.719 15.73 189.199 15.99C189.689 16.24 190.079 16.555 190.369 16.935V15.735H192.094V24H190.369V22.77C190.079 23.16 189.684 23.485 189.184 23.745C188.684 24.005 188.114 24.135 187.474 24.135C186.764 24.135 186.114 23.955 185.524 23.595C184.934 23.225 184.464 22.715 184.114 22.065C183.774 21.405 183.604 20.66 183.604 19.83ZM190.369 19.86C190.369 19.29 190.249 18.795 190.009 18.375C189.779 17.955 189.474 17.635 189.094 17.415C188.714 17.195 188.304 17.085 187.864 17.085C187.424 17.085 187.014 17.195 186.634 17.415C186.254 17.625 185.944 17.94 185.704 18.36C185.474 18.77 185.359 19.26 185.359 19.83C185.359 20.4 185.474 20.9 185.704 21.33C185.944 21.76 186.254 22.09 186.634 22.32C187.024 22.54 187.434 22.65 187.864 22.65C188.304 22.65 188.714 22.54 189.094 22.32C189.474 22.1 189.779 21.78 190.009 21.36C190.249 20.93 190.369 20.43 190.369 19.86ZM197.666 19.83C197.666 19 197.836 18.265 198.176 17.625C198.526 16.985 198.996 16.49 199.586 16.14C200.186 15.78 200.851 15.6 201.581 15.6C202.121 15.6 202.651 15.72 203.171 15.96C203.701 16.19 204.121 16.5 204.431 16.89V12.9H206.156V24H204.431V22.755C204.151 23.155 203.761 23.485 203.261 23.745C202.771 24.005 202.206 24.135 201.566 24.135C200.846 24.135 200.186 23.955 199.586 23.595C198.996 23.225 198.526 22.715 198.176 22.065C197.836 21.405 197.666 20.66 197.666 19.83ZM204.431 19.86C204.431 19.29 204.311 18.795 204.071 18.375C203.841 17.955 203.536 17.635 203.156 17.415C202.776 17.195 202.366 17.085 201.926 17.085C201.486 17.085 201.076 17.195 200.696 17.415C200.316 17.625 200.006 17.94 199.766 18.36C199.536 18.77 199.421 19.26 199.421 19.83C199.421 20.4 199.536 20.9 199.766 21.33C200.006 21.76 200.316 22.09 200.696 22.32C201.086 22.54 201.496 22.65 201.926 22.65C202.366 22.65 202.776 22.54 203.156 22.32C203.536 22.1 203.841 21.78 204.071 21.36C204.311 20.93 204.431 20.43 204.431 19.86ZM215.977 19.665C215.977 19.975 215.957 20.255 215.917 20.505H209.602C209.652 21.165 209.897 21.695 210.337 22.095C210.777 22.495 211.317 22.695 211.957 22.695C212.877 22.695 213.527 22.31 213.907 21.54H215.752C215.502 22.3 215.047 22.925 214.387 23.415C213.737 23.895 212.927 24.135 211.957 24.135C211.167 24.135 210.457 23.96 209.827 23.61C209.207 23.25 208.717 22.75 208.357 22.11C208.007 21.46 207.832 20.71 207.832 19.86C207.832 19.01 208.002 18.265 208.342 17.625C208.692 16.975 209.177 16.475 209.797 16.125C210.427 15.775 211.147 15.6 211.957 15.6C212.737 15.6 213.432 15.77 214.042 16.11C214.652 16.45 215.127 16.93 215.467 17.55C215.807 18.16 215.977 18.865 215.977 19.665ZM214.192 19.125C214.182 18.495 213.957 17.99 213.517 17.61C213.077 17.23 212.532 17.04 211.882 17.04C211.292 17.04 210.787 17.23 210.367 17.61C209.947 17.98 209.697 18.485 209.617 19.125H214.192ZM68.7467 43.14H64.8167L64.1867 45H61.5017L65.3117 34.47H68.2817L72.0917 45H69.3767L68.7467 43.14ZM68.0867 41.16L66.7817 37.305L65.4917 41.16H68.0867ZM81.5163 36.63V45H78.9513V43.86C78.6913 44.23 78.3363 44.53 77.8863 44.76C77.4463 44.98 76.9563 45.09 76.4163 45.09C75.7763 45.09 75.2113 44.95 74.7213 44.67C74.2313 44.38 73.8513 43.965 73.5813 43.425C73.3113 42.885 73.1763 42.25 73.1763 41.52V36.63H75.7263V41.175C75.7263 41.735 75.8713 42.17 76.1613 42.48C76.4513 42.79 76.8413 42.945 77.3313 42.945C77.8313 42.945 78.2263 42.79 78.5163 42.48C78.8063 42.17 78.9513 41.735 78.9513 41.175V36.63H81.5163ZM88.0237 42.825V45H86.7187C85.7887 45 85.0637 44.775 84.5437 44.325C84.0237 43.865 83.7637 43.12 83.7637 42.09V38.76H82.7437V36.63H83.7637V34.59H86.3287V36.63H88.0087V38.76H86.3287V42.12C86.3287 42.37 86.3887 42.55 86.5087 42.66C86.6287 42.77 86.8287 42.825 87.1087 42.825H88.0237ZM97.3425 40.68C97.3425 40.92 97.3275 41.17 97.2975 41.43H91.4925C91.5325 41.95 91.6975 42.35 91.9875 42.63C92.2875 42.9 92.6525 43.035 93.0825 43.035C93.7225 43.035 94.1675 42.765 94.4175 42.225H97.1475C97.0075 42.775 96.7525 43.27 96.3825 43.71C96.0225 44.15 95.5675 44.495 95.0175 44.745C94.4675 44.995 93.8525 45.12 93.1725 45.12C92.3525 45.12 91.6225 44.945 90.9825 44.595C90.3425 44.245 89.8425 43.745 89.4825 43.095C89.1225 42.445 88.9425 41.685 88.9425 40.815C88.9425 39.945 89.1175 39.185 89.4675 38.535C89.8275 37.885 90.3275 37.385 90.9675 37.035C91.6075 36.685 92.3425 36.51 93.1725 36.51C93.9825 36.51 94.7025 36.68 95.3325 37.02C95.9625 37.36 96.4525 37.845 96.8025 38.475C97.1625 39.105 97.3425 39.84 97.3425 40.68ZM94.7175 40.005C94.7175 39.565 94.5675 39.215 94.2675 38.955C93.9675 38.695 93.5925 38.565 93.1425 38.565C92.7125 38.565 92.3475 38.69 92.0475 38.94C91.7575 39.19 91.5775 39.545 91.5075 40.005H94.7175ZM103.796 36.54C104.776 36.54 105.556 36.86 106.136 37.5C106.726 38.13 107.021 39 107.021 40.11V45H104.471V40.455C104.471 39.895 104.326 39.46 104.036 39.15C103.746 38.84 103.356 38.685 102.866 38.685C102.376 38.685 101.986 38.84 101.696 39.15C101.406 39.46 101.261 39.895 101.261 40.455V45H98.6956V36.63H101.261V37.74C101.521 37.37 101.871 37.08 102.311 36.87C102.751 36.65 103.246 36.54 103.796 36.54ZM113.468 42.825V45H112.163C111.233 45 110.508 44.775 109.988 44.325C109.468 43.865 109.208 43.12 109.208 42.09V38.76H108.188V36.63H109.208V34.59H111.773V36.63H113.453V38.76H111.773V42.12C111.773 42.37 111.833 42.55 111.953 42.66C112.073 42.77 112.273 42.825 112.553 42.825H113.468ZM116.187 35.76C115.737 35.76 115.367 35.63 115.077 35.37C114.797 35.1 114.657 34.77 114.657 34.38C114.657 33.98 114.797 33.65 115.077 33.39C115.367 33.12 115.737 32.985 116.187 32.985C116.627 32.985 116.987 33.12 117.267 33.39C117.557 33.65 117.702 33.98 117.702 34.38C117.702 34.77 117.557 35.1 117.267 35.37C116.987 35.63 116.627 35.76 116.187 35.76ZM117.462 36.63V45H114.897V36.63H117.462ZM118.811 40.815C118.811 39.945 118.986 39.185 119.336 38.535C119.696 37.885 120.191 37.385 120.821 37.035C121.461 36.685 122.191 36.51 123.011 36.51C124.061 36.51 124.936 36.785 125.636 37.335C126.346 37.885 126.811 38.66 127.031 39.66H124.301C124.071 39.02 123.626 38.7 122.966 38.7C122.496 38.7 122.121 38.885 121.841 39.255C121.561 39.615 121.421 40.135 121.421 40.815C121.421 41.495 121.561 42.02 121.841 42.39C122.121 42.75 122.496 42.93 122.966 42.93C123.626 42.93 124.071 42.61 124.301 41.97H127.031C126.811 42.95 126.346 43.72 125.636 44.28C124.926 44.84 124.051 45.12 123.011 45.12C122.191 45.12 121.461 44.945 120.821 44.595C120.191 44.245 119.696 43.745 119.336 43.095C118.986 42.445 118.811 41.685 118.811 40.815ZM127.893 40.8C127.893 39.94 128.053 39.185 128.373 38.535C128.703 37.885 129.148 37.385 129.708 37.035C130.268 36.685 130.893 36.51 131.583 36.51C132.173 36.51 132.688 36.63 133.128 36.87C133.578 37.11 133.923 37.425 134.163 37.815V36.63H136.728V45H134.163V43.815C133.913 44.205 133.563 44.52 133.113 44.76C132.673 45 132.158 45.12 131.568 45.12C130.888 45.12 130.268 44.945 129.708 44.595C129.148 44.235 128.703 43.73 128.373 43.08C128.053 42.42 127.893 41.66 127.893 40.8ZM134.163 40.815C134.163 40.175 133.983 39.67 133.623 39.3C133.273 38.93 132.843 38.745 132.333 38.745C131.823 38.745 131.388 38.93 131.028 39.3C130.678 39.66 130.503 40.16 130.503 40.8C130.503 41.44 130.678 41.95 131.028 42.33C131.388 42.7 131.823 42.885 132.333 42.885C132.843 42.885 133.273 42.7 133.623 42.33C133.983 41.96 134.163 41.455 134.163 40.815ZM138.073 40.815C138.073 39.945 138.248 39.185 138.598 38.535C138.958 37.885 139.453 37.385 140.083 37.035C140.723 36.685 141.453 36.51 142.273 36.51C143.323 36.51 144.198 36.785 144.898 37.335C145.608 37.885 146.073 38.66 146.293 39.66H143.563C143.333 39.02 142.888 38.7 142.228 38.7C141.758 38.7 141.383 38.885 141.103 39.255C140.823 39.615 140.683 40.135 140.683 40.815C140.683 41.495 140.823 42.02 141.103 42.39C141.383 42.75 141.758 42.93 142.228 42.93C142.888 42.93 143.333 42.61 143.563 41.97H146.293C146.073 42.95 145.608 43.72 144.898 44.28C144.188 44.84 143.313 45.12 142.273 45.12C141.453 45.12 140.723 44.945 140.083 44.595C139.453 44.245 138.958 43.745 138.598 43.095C138.248 42.445 138.073 41.685 138.073 40.815ZM148.955 35.76C148.505 35.76 148.135 35.63 147.845 35.37C147.565 35.1 147.425 34.77 147.425 34.38C147.425 33.98 147.565 33.65 147.845 33.39C148.135 33.12 148.505 32.985 148.955 32.985C149.395 32.985 149.755 33.12 150.035 33.39C150.325 33.65 150.47 33.98 150.47 34.38C150.47 34.77 150.325 35.1 150.035 35.37C149.755 35.63 149.395 35.76 148.955 35.76ZM150.23 36.63V45H147.665V36.63H150.23ZM155.899 45.12C155.079 45.12 154.339 44.945 153.679 44.595C153.029 44.245 152.514 43.745 152.134 43.095C151.764 42.445 151.579 41.685 151.579 40.815C151.579 39.955 151.769 39.2 152.149 38.55C152.529 37.89 153.049 37.385 153.709 37.035C154.369 36.685 155.109 36.51 155.929 36.51C156.749 36.51 157.489 36.685 158.149 37.035C158.809 37.385 159.329 37.89 159.709 38.55C160.089 39.2 160.279 39.955 160.279 40.815C160.279 41.675 160.084 42.435 159.694 43.095C159.314 43.745 158.789 44.245 158.119 44.595C157.459 44.945 156.719 45.12 155.899 45.12ZM155.899 42.9C156.389 42.9 156.804 42.72 157.144 42.36C157.494 42 157.669 41.485 157.669 40.815C157.669 40.145 157.499 39.63 157.159 39.27C156.829 38.91 156.419 38.73 155.929 38.73C155.429 38.73 155.014 38.91 154.684 39.27C154.354 39.62 154.189 40.135 154.189 40.815C154.189 41.485 154.349 42 154.669 42.36C154.999 42.72 155.409 42.9 155.899 42.9ZM157.879 34.485L154.264 36V34.23L157.879 32.49V34.485ZM166.74 36.54C167.72 36.54 168.5 36.86 169.08 37.5C169.67 38.13 169.965 39 169.965 40.11V45H167.415V40.455C167.415 39.895 167.27 39.46 166.98 39.15C166.69 38.84 166.3 38.685 165.81 38.685C165.32 38.685 164.93 38.84 164.64 39.15C164.35 39.46 164.205 39.895 164.205 40.455V45H161.64V36.63H164.205V37.74C164.465 37.37 164.815 37.08 165.255 36.87C165.695 36.65 166.19 36.54 166.74 36.54ZM180.296 31.305V33.375H178.196V46.05H180.296V48.135H175.796V31.305H180.296ZM188.948 39.6C189.558 39.73 190.048 40.035 190.418 40.515C190.788 40.985 190.973 41.525 190.973 42.135C190.973 43.015 190.663 43.715 190.043 44.235C189.433 44.745 188.578 45 187.478 45H182.573V34.47H187.313C188.383 34.47 189.218 34.715 189.818 35.205C190.428 35.695 190.733 36.36 190.733 37.2C190.733 37.82 190.568 38.335 190.238 38.745C189.918 39.155 189.488 39.44 188.948 39.6ZM185.138 38.73H186.818C187.238 38.73 187.558 38.64 187.778 38.46C188.008 38.27 188.123 37.995 188.123 37.635C188.123 37.275 188.008 37 187.778 36.81C187.558 36.62 187.238 36.525 186.818 36.525H185.138V38.73ZM187.028 42.93C187.458 42.93 187.788 42.835 188.018 42.645C188.258 42.445 188.378 42.16 188.378 41.79C188.378 41.42 188.253 41.13 188.003 40.92C187.763 40.71 187.428 40.605 186.998 40.605H185.138V42.93H187.028ZM200.35 40.68C200.35 40.92 200.335 41.17 200.305 41.43H194.5C194.54 41.95 194.705 42.35 194.995 42.63C195.295 42.9 195.66 43.035 196.09 43.035C196.73 43.035 197.175 42.765 197.425 42.225H200.155C200.015 42.775 199.76 43.27 199.39 43.71C199.03 44.15 198.575 44.495 198.025 44.745C197.475 44.995 196.86 45.12 196.18 45.12C195.36 45.12 194.63 44.945 193.99 44.595C193.35 44.245 192.85 43.745 192.49 43.095C192.13 42.445 191.95 41.685 191.95 40.815C191.95 39.945 192.125 39.185 192.475 38.535C192.835 37.885 193.335 37.385 193.975 37.035C194.615 36.685 195.35 36.51 196.18 36.51C196.99 36.51 197.71 36.68 198.34 37.02C198.97 37.36 199.46 37.845 199.81 38.475C200.17 39.105 200.35 39.84 200.35 40.68ZM197.725 40.005C197.725 39.565 197.575 39.215 197.275 38.955C196.975 38.695 196.6 38.565 196.15 38.565C195.72 38.565 195.355 38.69 195.055 38.94C194.765 39.19 194.585 39.545 194.515 40.005H197.725ZM206.368 42.825V45H205.063C204.133 45 203.408 44.775 202.888 44.325C202.368 43.865 202.108 43.12 202.108 42.09V38.76H201.088V36.63H202.108V34.59H204.673V36.63H206.353V38.76H204.673V42.12C204.673 42.37 204.733 42.55 204.853 42.66C204.973 42.77 205.173 42.825 205.453 42.825H206.368ZM207.287 40.8C207.287 39.94 207.447 39.185 207.767 38.535C208.097 37.885 208.542 37.385 209.102 37.035C209.662 36.685 210.287 36.51 210.977 36.51C211.567 36.51 212.082 36.63 212.522 36.87C212.972 37.11 213.317 37.425 213.557 37.815V36.63H216.122V45H213.557V43.815C213.307 44.205 212.957 44.52 212.507 44.76C212.067 45 211.552 45.12 210.962 45.12C210.282 45.12 209.662 44.945 209.102 44.595C208.542 44.235 208.097 43.73 207.767 43.08C207.447 42.42 207.287 41.66 207.287 40.8ZM213.557 40.815C213.557 40.175 213.377 39.67 213.017 39.3C212.667 38.93 212.237 38.745 211.727 38.745C211.217 38.745 210.782 38.93 210.422 39.3C210.072 39.66 209.897 40.16 209.897 40.8C209.897 41.44 210.072 41.95 210.422 42.33C210.782 42.7 211.217 42.885 211.727 42.885C212.237 42.885 212.667 42.7 213.017 42.33C213.377 41.96 213.557 41.455 213.557 40.815ZM222.898 48.135H218.398V46.05H220.498V33.375H218.398V31.305H222.898V48.135Z" fill="white"/>
</svg>
