<svg width="241" height="98" viewBox="0 0 241 98" fill="none" xmlns="http://www.w3.org/2000/svg">
<path d="M12.263 85.5503C11.7052 85.761 11.0946 85.7873 10.5208 85.6253C9.94694 85.4633 9.44023 85.1215 9.07502 84.6502L6.737 81.6493C6.44048 81.2865 6.05621 81.0055 5.62061 80.8329C5.185 80.6603 4.7125 80.6019 4.24799 80.6632V83.6112C4.24799 84.6742 4.976 84.8562 5.948 84.9782C6.054 84.9932 5.97802 85.4942 5.85602 85.4942H1.25599C1.13399 85.4942 1.04301 84.9942 1.16401 84.9782C1.93901 84.8712 2.42401 84.5672 2.42401 83.6112V76.8422C2.42401 75.8422 1.89301 75.5512 1.16401 75.3542C1.04301 75.3242 1.11899 74.8232 1.25599 74.8382C1.83528 74.9038 2.41801 74.9342 3.00098 74.9292C4.12398 74.9292 5.171 74.8382 5.901 74.8382C8.193 74.8382 9.72602 75.7792 9.72602 77.6462C9.72312 78.3614 9.43773 79.0465 8.93201 79.5522C8.42629 80.0579 7.7412 80.3433 7.026 80.3462V80.4232C7.633 80.4232 8.07401 80.6813 8.74201 81.5163L11.003 84.3542C11.1409 84.5688 11.3262 84.7488 11.5446 84.8804C11.7631 85.012 12.0089 85.0917 12.263 85.1132C12.384 85.1112 12.354 85.5203 12.263 85.5503ZM7.81598 78.0503C7.84596 77.7277 7.80523 77.4025 7.69666 77.0973C7.58808 76.7921 7.41427 76.5142 7.18732 76.2831C6.96037 76.052 6.68573 75.8731 6.38257 75.7589C6.07941 75.6448 5.75505 75.5981 5.43201 75.6222C4.53201 75.6222 4.24903 75.9862 4.24903 76.8362V79.9622H4.68903C6.95003 79.9642 7.81598 79.5702 7.81598 78.0522V78.0503Z" fill="white"/>
<path d="M14.7105 84.9734C15.5915 84.7454 16.2746 84.6085 16.2746 83.4845V76.7464C16.2746 75.7744 15.6525 75.5165 14.9995 75.3465C14.8775 75.3165 14.9535 74.8154 15.0755 74.8304C16.1835 74.9514 18.0955 74.9214 19.0215 74.9214C20.4025 74.9214 21.4046 74.8604 22.6496 74.8304C23.0136 74.8304 23.0135 75.0734 22.9375 75.4224L22.5735 76.8645C22.5275 77.0775 22.1485 77.0775 22.0875 76.8645C21.8595 76.1215 21.4045 75.6955 19.5075 75.6955C18.4445 75.6955 18.0955 75.9684 18.0955 76.7584V79.2324C18.0955 79.6324 18.2955 79.7024 18.5955 79.7024H18.9295C19.9505 79.8197 20.9806 79.5786 21.8435 79.0204C21.9955 78.8824 22.3295 78.9134 22.1925 79.2204L21.3275 81.1334C21.2065 81.4064 20.9785 81.3765 20.8115 81.1485C20.5501 80.8928 20.2348 80.6988 19.8888 80.5806C19.5428 80.4624 19.1747 80.4231 18.8115 80.4654H18.5985C18.2985 80.4654 18.0985 80.5414 18.0985 80.9354V83.4854C18.0985 84.3514 18.4626 84.6704 19.7226 84.6704C22.0146 84.6704 22.9225 83.6224 23.2895 83.0464C23.3955 82.8784 23.8055 82.9554 23.8055 83.2124C23.8055 83.9864 23.1525 85.5204 22.1965 85.5204C21.3465 85.4744 20.5125 85.4284 19.2375 85.4284C17.8375 85.4284 16.1865 85.3834 14.8055 85.5204C14.6505 85.5344 14.5895 85.0034 14.7105 84.9734Z" fill="white"/>
<path d="M29.8652 81.4212V83.6112C29.8652 84.6742 30.5932 84.8562 31.5652 84.9782C31.6712 84.9932 31.5952 85.4942 31.4742 85.4942H26.8742C26.7532 85.4942 26.6622 84.9942 26.7832 84.9782C27.5582 84.8712 28.0432 84.5672 28.0432 83.6112V76.8422C28.0432 75.8422 27.5122 75.5512 26.7832 75.3542C26.6622 75.3242 26.7382 74.8232 26.8742 74.8382C27.4538 74.9037 28.0369 74.9341 28.6202 74.9292C29.7432 74.9292 30.6842 74.8382 31.4582 74.8382C33.8112 74.8382 35.7582 75.7032 35.7582 78.0862C35.7542 80.7842 33.2192 81.9222 29.8652 81.4212ZM29.8652 76.8382V80.6782C32.4452 81.0422 33.7962 80.4202 33.7962 78.4322C33.8292 78.063 33.7824 77.691 33.6588 77.3415C33.5352 76.9919 33.3378 76.6731 33.0801 76.4067C32.8223 76.1403 32.5102 75.9325 32.1649 75.7975C31.8196 75.6625 31.4493 75.6034 31.0792 75.6242C30.1232 75.6242 29.8652 75.9572 29.8652 76.8382Z" fill="white"/>
<path d="M40.0368 81.5103V76.7443C40.0611 76.5709 40.0472 76.3943 39.996 76.2268C39.9448 76.0594 39.8576 75.9051 39.7405 75.775C39.6234 75.6448 39.4792 75.5419 39.3181 75.4733C39.157 75.4048 38.9828 75.3724 38.8078 75.3783C38.6858 75.3623 38.7768 74.8613 38.8978 74.8613H43.0418C43.1628 74.8613 43.2548 75.3613 43.1328 75.3783C42.959 75.3746 42.7866 75.4086 42.6273 75.4782C42.468 75.5477 42.3257 75.651 42.2102 75.7809C42.0948 75.9108 42.009 76.0642 41.9587 76.2305C41.9083 76.3969 41.8947 76.5722 41.9188 76.7443V81.5863C41.9188 83.7103 43.1478 84.6973 44.7568 84.6973C45.1664 84.7244 45.5769 84.6615 45.9595 84.5129C46.3421 84.3644 46.6876 84.1338 46.9716 83.8375C47.2556 83.5412 47.4713 83.1863 47.6035 82.7977C47.7357 82.4091 47.7812 81.9964 47.7368 81.5883V76.7463C47.7368 75.7593 47.1748 75.4853 46.4368 75.3803C46.3308 75.3643 46.4068 74.8633 46.5278 74.8633H49.9368C50.0438 74.8633 50.1368 75.3633 50.0128 75.3803C49.839 75.3766 49.6666 75.4107 49.5073 75.4802C49.348 75.5497 49.2057 75.6529 49.0902 75.7828C48.9748 75.9127 48.8889 76.0662 48.8386 76.2325C48.7883 76.3989 48.7747 76.5742 48.7988 76.7463V81.4963C48.8456 82.063 48.7688 82.6331 48.5735 83.1672C48.3782 83.7012 48.0691 84.1864 47.6678 84.5892C47.2664 84.992 46.7822 85.3028 46.2489 85.5C45.7155 85.6972 45.1456 85.7761 44.5788 85.7313C42.4368 85.7313 40.0368 84.5923 40.0368 81.5103ZM44.4988 71.0823C44.7728 70.6823 46.0478 71.8563 45.6828 72.1293L43.6948 73.6293C43.4948 73.7803 42.9658 73.2953 43.1178 73.0833L44.4988 71.0823Z" fill="white"/>
<path d="M62.1724 82.4233C62.1724 84.3043 60.4564 85.5233 57.9224 85.5233C57.1934 85.5233 56.3435 85.4313 55.2225 85.4313C54.427 85.4182 53.6315 85.449 52.8395 85.5233C52.7035 85.5383 52.6265 85.0073 52.7485 84.9773C53.6285 84.7493 54.3115 84.6123 54.3115 83.4883V76.7503C54.3115 75.7783 53.6894 75.5203 53.0364 75.3503C52.9154 75.3203 52.9914 74.8193 53.1124 74.8343C53.7225 74.8993 54.3359 74.9297 54.9495 74.9253C56.1635 74.9253 57.0584 74.8343 57.7264 74.8343C59.6844 74.8343 61.2935 75.6543 61.3085 77.3243C61.3177 77.872 61.1296 78.4048 60.7786 78.8254C60.4275 79.246 59.937 79.5264 59.3964 79.6153V79.7063C59.7588 79.6961 60.1195 79.759 60.457 79.8911C60.7946 80.0233 61.102 80.2221 61.3611 80.4757C61.6201 80.7292 61.8255 81.0324 61.9649 81.367C62.1043 81.7016 62.1748 82.0608 62.1724 82.4233V82.4233ZM56.1315 76.7463V79.4463H57.6945C57.9278 79.4779 58.1652 79.4555 58.3885 79.3807C58.6117 79.3059 58.8148 79.1808 58.982 79.015C59.1492 78.8493 59.2761 78.6473 59.3528 78.4247C59.4295 78.2021 59.454 77.9649 59.4244 77.7313C59.4421 77.4405 59.396 77.1495 59.2894 76.8784C59.1828 76.6073 59.0182 76.3628 58.8072 76.1619C58.5963 75.961 58.344 75.8087 58.068 75.7155C57.792 75.6223 57.499 75.5905 57.2095 75.6223C56.4045 75.6233 56.1365 75.8963 56.1365 76.7463H56.1315ZM60.2145 82.7563C60.2404 82.4174 60.1932 82.0769 60.0761 81.7578C59.959 81.4387 59.7749 81.1485 59.5359 80.9067C59.297 80.6649 59.009 80.4773 58.6913 80.3565C58.3736 80.2356 58.0336 80.1844 57.6945 80.2063H56.1365V83.4843C56.1365 84.3193 56.5615 84.7303 57.8815 84.7303C59.2125 84.7303 60.2145 84.3343 60.2145 82.7563Z" fill="white"/>
<path d="M65.0759 84.9733C65.9569 84.7453 66.6399 84.6083 66.6399 83.4843V76.7463C66.6399 75.6833 66.0179 75.4703 65.3649 75.3803C65.2439 75.3643 65.3349 74.8633 65.4409 74.8633H69.6299C69.7359 74.8633 69.8119 75.3633 69.7059 75.3803C69.5296 75.372 69.3536 75.4026 69.1905 75.4701C69.0274 75.5376 68.8812 75.6402 68.7623 75.7706C68.6434 75.9011 68.5547 76.0561 68.5026 76.2248C68.4506 76.3934 68.4363 76.5715 68.4609 76.7463V83.4843C68.4609 84.3503 68.8259 84.6693 70.0859 84.6693C72.3779 84.6693 73.2859 83.6213 73.6519 83.0453C73.7589 82.8773 74.1679 82.9543 74.1679 83.2113C74.1679 83.9853 73.5159 85.5193 72.5589 85.5193C71.7089 85.4733 70.8749 85.4273 69.5999 85.4273C68.1999 85.4273 66.5489 85.3823 65.1679 85.5193C65.0159 85.5343 64.9549 85.0033 65.0759 84.9733Z" fill="white"/>
<path d="M76.8429 84.9733C77.6169 84.8663 78.1029 84.5623 78.1029 83.6063V76.7463C78.1029 75.7893 77.6169 75.4853 76.8429 75.3803C76.7209 75.3643 76.812 74.8633 76.933 74.8633H81.0929C81.2139 74.8633 81.305 75.3633 81.183 75.3803C80.531 75.4703 79.9239 75.6803 79.9239 76.7463V83.6063C79.9239 84.6693 80.531 84.8813 81.183 84.9733C81.305 84.9883 81.2139 85.4893 81.0929 85.4893H76.9359C76.8119 85.4893 76.7209 84.9883 76.8429 84.9733Z" fill="white"/>
<path d="M84.3908 80.3741C84.3544 79.5998 84.4819 78.8266 84.7649 78.105C85.0479 77.3834 85.4801 76.7297 86.0331 76.1866C86.5862 75.6436 87.2477 75.2235 87.9743 74.9537C88.701 74.6839 89.4764 74.5705 90.2499 74.6211C92.0099 74.6211 93.5278 75.1681 93.3498 75.6991L93.1498 76.2911C92.6028 77.9151 92.0109 75.8361 89.3099 75.8361C87.1389 75.8361 86.0758 77.2471 86.0758 79.4361C86.0425 80.0667 86.1394 80.6974 86.3604 81.2889C86.5814 81.8804 86.9219 82.4201 87.3605 82.8743C87.7992 83.3286 88.3266 83.6876 88.9101 83.9291C89.4935 84.1706 90.1205 84.2894 90.7518 84.2781C91.6066 84.2096 92.4383 83.9669 93.1958 83.5651C93.3168 83.4881 93.6358 83.8381 93.5448 83.9741C92.7035 84.878 91.599 85.4942 90.3879 85.7351C87.8379 85.7321 84.3908 84.2451 84.3908 80.3741Z" fill="white"/>
<path d="M107.405 85.4887H103.398C103.198 85.4887 103.185 85.0027 103.353 84.9727C103.914 84.8657 104.521 84.6727 103.96 83.3627L103.793 82.9837C103.641 82.6187 103.383 82.5837 102.928 82.5837H99.8283C99.3733 82.5837 99.1153 82.6137 98.9633 82.9837L98.8112 83.3627C98.2802 84.6687 98.8573 84.8627 99.5853 84.9727C99.7853 85.0027 99.7372 85.4887 99.5402 85.4887H96.2612C96.0792 85.4887 96.0333 85.0027 96.2153 84.9727C96.8383 84.8657 97.2022 84.6537 97.7642 83.3627L100.329 77.4737C100.761 76.6917 101.024 75.8283 101.103 74.9387C101.446 74.7648 101.828 74.6864 102.211 74.7117L105.911 83.3477C106.457 84.6387 106.821 84.8807 107.428 84.9727C107.648 85.0027 107.587 85.4887 107.405 85.4887ZM103.17 81.4957L101.394 77.2457L99.6033 81.4957C99.5123 81.7087 99.7403 81.7387 99.9533 81.7387H102.821C103.037 81.7387 103.261 81.7097 103.17 81.4957Z" fill="white"/>
<path d="M114.76 84.9734C115.64 84.7454 116.323 84.6085 116.323 83.4845V76.7464C116.323 75.7744 115.701 75.5165 115.048 75.3465C114.927 75.3165 115.003 74.8154 115.124 74.8304C115.755 74.8991 116.389 74.9295 117.024 74.9214C118.207 74.9214 119.27 74.8304 120.044 74.8304C123.717 74.8304 125.705 77.0165 125.705 79.9455C125.732 80.6932 125.602 81.4384 125.325 82.1334C125.048 82.8285 124.629 83.4582 124.095 83.9823C123.561 84.5065 122.924 84.9136 122.223 85.1777C121.523 85.4418 120.776 85.5572 120.029 85.5164C119.3 85.5164 118.359 85.4245 117.236 85.4245C116.44 85.4117 115.645 85.4424 114.853 85.5164C114.699 85.5344 114.639 85.0034 114.76 84.9734ZM123.882 80.8134C123.882 77.9134 122.303 75.6385 119.572 75.6385C118.494 75.6385 118.145 75.9714 118.145 76.7464V83.4845C118.145 84.3045 118.706 84.7144 120.179 84.7144C122.653 84.7104 123.882 83.3784 123.882 80.8104V80.8134Z" fill="white"/>
<path d="M129 80.2369C128.972 79.5008 129.095 78.7667 129.36 78.0797C129.626 77.3926 130.029 76.767 130.545 76.2411C131.06 75.7152 131.678 75.3002 132.36 75.0214C133.042 74.7427 133.774 74.6061 134.51 74.6199C135.236 74.5966 135.959 74.7224 136.634 74.9895C137.31 75.2566 137.923 75.6595 138.437 76.1731C138.95 76.6867 139.353 77.3002 139.62 77.9756C139.887 78.651 140.013 79.374 139.989 80.0999C140.02 80.8374 139.899 81.5734 139.635 82.2625C139.371 82.9516 138.968 83.5793 138.452 84.1069C137.935 84.6344 137.317 85.0507 136.633 85.33C135.95 85.6093 135.217 85.7457 134.479 85.7309C133.753 85.7513 133.03 85.623 132.355 85.3539C131.68 85.0849 131.067 84.6806 130.554 84.1661C130.041 83.6516 129.638 83.0377 129.371 82.3621C129.104 81.6864 128.978 80.9632 129 80.2369V80.2369ZM138.183 80.95C138.183 77.884 136.104 75.6499 133.918 75.6499C132.582 75.6499 130.818 76.5299 130.818 79.3839C130.818 82.4839 132.897 84.6959 135.067 84.6959C136.407 84.6989 138.183 83.819 138.183 80.95V80.95Z" fill="white"/>
<path d="M156.51 85.4903H152.548C152.442 85.4903 152.366 84.9902 152.457 84.9742C152.621 84.9674 152.783 84.9248 152.929 84.8494C153.076 84.7739 153.204 84.6674 153.305 84.5373C153.406 84.4072 153.478 84.2565 153.515 84.0959C153.552 83.9353 153.554 83.7685 153.52 83.6072L153.232 78.5072L150.772 83.5172C150.518 84.0166 150.315 84.5399 150.165 85.0792C150.135 85.2622 149.816 85.3532 149.573 85.3532C149.476 85.3609 149.379 85.3388 149.295 85.2898C149.211 85.2408 149.144 85.1674 149.103 85.0792L145.597 78.4322L145.369 83.6072C145.323 84.6702 145.946 84.9122 146.432 84.9742C146.553 84.9892 146.462 85.4903 146.355 85.4903H143.213C143.092 85.4903 143.001 84.9902 143.122 84.9742C143.775 84.8972 144.322 84.6742 144.382 83.6072L144.868 74.8952C144.883 74.6362 145.46 74.6212 145.612 74.8952L150.012 83.1212L154.096 74.8952C154.232 74.6212 154.839 74.6362 154.854 74.8952L155.34 83.6072C155.401 84.6702 155.947 84.8972 156.585 84.9742C156.707 84.9892 156.616 85.4903 156.51 85.4903Z" fill="white"/>
<path d="M159.627 84.9733C160.401 84.8663 160.887 84.5623 160.887 83.6063V76.7463C160.887 75.7893 160.401 75.4853 159.627 75.3803C159.506 75.3643 159.597 74.8633 159.718 74.8633H163.877C163.999 74.8633 164.089 75.3633 163.968 75.3803C163.316 75.4703 162.709 75.6803 162.709 76.7463V83.6063C162.709 84.6693 163.316 84.8813 163.968 84.9733C164.089 84.9883 163.999 85.4893 163.877 85.4893H159.718C159.597 85.4893 159.506 84.9883 159.627 84.9733Z" fill="white"/>
<path d="M176.448 85.3524L169.222 77.7924V83.5613C169.222 84.5923 169.83 84.7613 170.695 84.9733C170.816 85.0033 170.756 85.4894 170.604 85.4894H167.004C166.882 85.4894 166.791 85.0183 166.928 84.9733C167.565 84.7603 168.172 84.6393 168.172 83.5613V77.6713C168.248 76.9185 168.049 76.1636 167.611 75.5463C167.474 75.3643 167.338 75.2463 167.338 75.1973C167.334 75.1134 167.363 75.0312 167.419 74.9686C167.475 74.9061 167.554 74.8682 167.638 74.8633H168.761C168.828 74.8544 168.897 74.8623 168.961 74.8862C169.024 74.9101 169.081 74.9493 169.126 75.0004L176.199 82.4833V76.7764C176.199 75.6984 175.516 75.5763 174.726 75.3763C174.605 75.3453 174.666 74.8594 174.818 74.8594H178.418C178.539 74.8594 178.618 75.3453 178.494 75.3763C177.826 75.5763 177.249 75.6944 177.249 76.7764V82.6763C177.218 83.5706 177.279 84.4656 177.431 85.3474C177.492 85.5754 177.249 85.6354 177.006 85.6354C176.897 85.6357 176.79 85.6102 176.693 85.561C176.596 85.5118 176.512 85.4403 176.448 85.3524Z" fill="white"/>
<path d="M181.538 84.9733C182.313 84.8663 182.798 84.5623 182.798 83.6063V76.7463C182.798 75.7893 182.313 75.4853 181.538 75.3803C181.417 75.3643 181.508 74.8633 181.63 74.8633H185.788C185.91 74.8633 186.001 75.3633 185.88 75.3803C185.227 75.4703 184.62 75.6803 184.62 76.7463V83.6063C184.62 84.6693 185.227 84.8813 185.88 84.9733C186.001 84.9883 185.91 85.4893 185.788 85.4893H181.63C181.507 85.4893 181.416 84.9883 181.538 84.9733Z" fill="white"/>
<path d="M189.083 80.3725C189.045 79.5981 189.172 78.8246 189.455 78.1026C189.737 77.3806 190.169 76.7265 190.722 76.1833C191.276 75.64 191.937 75.2199 192.664 74.9504C193.391 74.6809 194.167 74.5681 194.941 74.6195C196.702 74.6195 198.22 75.1665 198.041 75.6975L197.841 76.2895C197.294 77.9135 196.702 75.8345 194.001 75.8345C191.83 75.8345 190.768 77.2455 190.768 79.4345C190.734 80.0649 190.831 80.6954 191.052 81.2868C191.273 81.8782 191.613 82.4178 192.052 82.872C192.49 83.3262 193.017 83.6852 193.6 83.9269C194.184 84.1685 194.81 84.2875 195.442 84.2765C196.296 84.2083 197.128 83.9656 197.886 83.5635C198.008 83.4865 198.326 83.8365 198.235 83.9725C197.394 84.8768 196.289 85.493 195.078 85.7335C192.528 85.7305 189.083 84.2435 189.083 80.3725Z" fill="white"/>
<path d="M212.098 85.4887H208.09C207.89 85.4887 207.878 85.0027 208.045 84.9727C208.607 84.8657 209.214 84.6727 208.652 83.3627L208.485 82.9837C208.333 82.6187 208.075 82.5837 207.62 82.5837H204.52C204.064 82.5837 203.806 82.6137 203.655 82.9837L203.503 83.3627C202.971 84.6687 203.548 84.8627 204.277 84.9727C204.477 85.0027 204.429 85.4887 204.231 85.4887H200.957C200.775 85.4887 200.729 85.0027 200.911 84.9727C201.533 84.8657 201.898 84.6537 202.46 83.3627L205.025 77.4737C205.456 76.6917 205.72 75.8283 205.799 74.9387C206.141 74.7648 206.524 74.6864 206.907 74.7117L210.607 83.3477C211.154 84.6387 211.518 84.8807 212.125 84.9727C212.337 85.0027 212.28 85.4887 212.098 85.4887ZM207.863 81.4957L206.087 77.2457L204.296 81.4957C204.205 81.7087 204.433 81.7387 204.645 81.7387H207.514C207.726 81.7387 207.954 81.7097 207.863 81.4957Z" fill="white"/>
<path d="M224.459 85.3524L217.234 77.7924V83.5613C217.234 84.5923 217.841 84.7613 218.706 84.9733C218.828 85.0033 218.767 85.4894 218.615 85.4894H215.015C214.894 85.4894 214.803 85.0183 214.939 84.9733C215.576 84.7603 216.184 84.6393 216.184 83.5613V77.6713C216.26 76.9183 216.06 76.1632 215.622 75.5463C215.486 75.3643 215.349 75.2463 215.349 75.1973C215.345 75.1134 215.374 75.0312 215.43 74.9686C215.486 74.9061 215.565 74.8682 215.649 74.8633H216.772C216.839 74.8544 216.908 74.8623 216.971 74.8862C217.035 74.9101 217.091 74.9493 217.136 75.0004L224.209 82.4833V76.7764C224.209 75.6984 223.526 75.5763 222.737 75.3763C222.615 75.3453 222.676 74.8594 222.828 74.8594H226.428C226.55 74.8594 226.628 75.3453 226.504 75.3763C225.836 75.5763 225.26 75.6944 225.26 76.7764V82.6763C225.229 83.5706 225.29 84.4656 225.442 85.3474C225.502 85.5754 225.26 85.6354 225.017 85.6354C224.908 85.6354 224.801 85.6098 224.704 85.5606C224.607 85.5114 224.523 85.4401 224.459 85.3524Z" fill="white"/>
<path d="M240.127 85.4887H236.12C235.92 85.4887 235.907 85.0027 236.074 84.9727C236.636 84.8657 237.243 84.6727 236.681 83.3627L236.514 82.9837C236.362 82.6187 236.104 82.5837 235.649 82.5837H232.549C232.093 82.5837 231.835 82.6137 231.684 82.9837L231.532 83.3627C231.001 84.6687 231.578 84.8627 232.306 84.9727C232.506 85.0027 232.458 85.4887 232.26 85.4887H228.982C228.8 85.4887 228.754 85.0027 228.936 84.9727C229.558 84.8657 229.923 84.6537 230.485 83.3627L233.05 77.4737C233.481 76.6917 233.745 75.8283 233.824 74.9387C234.166 74.7648 234.549 74.6864 234.932 74.7117L238.632 83.3477C239.179 84.6387 239.543 84.8807 240.15 84.9727C240.37 85.0027 240.309 85.4887 240.127 85.4887ZM235.892 81.4957L234.116 77.2457L232.325 81.4957C232.234 81.7087 232.462 81.7387 232.674 81.7387H235.543C235.755 81.7387 235.983 81.7097 235.892 81.4957Z" fill="white"/>
<path d="M1.23922 64.6304V64.6094C1.22369 64.102 1.31021 63.5966 1.49362 63.1232C1.67702 62.6498 1.95356 62.2181 2.30691 61.8535C2.66025 61.489 3.08317 61.1991 3.55062 61.001C4.01807 60.803 4.52054 60.7007 5.02822 60.7005C6.06067 60.6591 7.0687 61.0209 7.8392 61.7094L7.28823 62.3565C6.66591 61.7759 5.83888 61.4655 4.98824 61.4934C4.59467 61.5037 4.2071 61.5927 3.84841 61.755C3.48972 61.9173 3.16714 62.1498 2.89962 62.4386C2.6321 62.7275 2.42504 63.0669 2.29067 63.437C2.15631 63.807 2.09734 64.2003 2.11721 64.5935V64.6154C2.08614 65.0231 2.14101 65.4327 2.27822 65.8178C2.41543 66.2029 2.63195 66.555 2.91378 66.8511C3.19561 67.1473 3.53643 67.381 3.91427 67.5371C4.29211 67.6932 4.69852 67.7683 5.1072 67.7575C5.89812 67.7545 6.66554 67.4881 7.28823 67.0004V65.1224H4.98824V64.3554H8.10824V67.3674C7.27265 68.1108 6.19358 68.522 5.07522 68.5234C4.56157 68.5422 4.04965 68.4538 3.57198 68.264C3.09431 68.0742 2.66132 67.7871 2.30056 67.421C1.9398 67.0549 1.65918 66.6178 1.47646 66.1373C1.29374 65.6569 1.21294 65.1438 1.23922 64.6304V64.6304Z" fill="white"/>
<path d="M10.7305 64.6301V64.6091C10.729 64.103 10.8273 63.6016 11.0196 63.1334C11.212 62.6653 11.4947 62.2397 11.8515 61.8808C12.2084 61.5219 12.6324 61.2367 13.0994 61.0417C13.5665 60.8467 14.0673 60.7456 14.5734 60.7442C15.0796 60.7427 15.581 60.8409 16.0491 61.0333C16.5173 61.2256 16.943 61.5083 17.3019 61.8652C17.6608 62.222 17.9459 62.6461 18.1409 63.1131C18.3359 63.5801 18.437 64.0811 18.4384 64.5872C18.4494 64.5972 18.4494 64.5971 18.4384 64.6091C18.4412 65.6313 18.0379 66.6127 17.3171 67.3374C16.5963 68.0622 15.6171 68.4709 14.595 68.4736C13.5728 68.4764 12.5914 68.073 11.8667 67.3522C11.142 66.6315 10.7333 65.6523 10.7305 64.6301V64.6301ZM17.5535 64.6301V64.6091C17.5696 64.2069 17.5045 63.8055 17.3623 63.4288C17.22 63.0522 17.0034 62.7081 16.7253 62.417C16.4472 62.1259 16.1134 61.8937 15.7437 61.7343C15.374 61.5749 14.976 61.4915 14.5734 61.4892C14.1732 61.4902 13.7773 61.5722 13.4096 61.7302C13.0418 61.8882 12.7099 62.119 12.4335 62.4085C12.1572 62.6981 11.9424 63.0405 11.8018 63.4152C11.6612 63.79 11.5978 64.1893 11.6154 64.5891V64.6112C11.5995 65.0133 11.6646 65.4146 11.807 65.7911C11.9493 66.1676 12.1659 66.5116 12.444 66.8026C12.722 67.0937 13.0558 67.3258 13.4254 67.4851C13.795 67.6445 14.193 67.7278 14.5955 67.7301C14.9957 67.729 15.3916 67.647 15.7594 67.489C16.1271 67.331 16.4591 67.1004 16.7354 66.8108C17.0117 66.5212 17.2266 66.1788 17.3671 65.804C17.5077 65.4293 17.5711 65.03 17.5535 64.6301V64.6301Z" fill="white"/>
<path d="M21.2715 60.8308H24.4885C25.2087 60.7891 25.9169 61.029 26.4635 61.4998C26.6211 61.6589 26.7453 61.8479 26.8287 62.0557C26.9122 62.2635 26.9532 62.4859 26.9495 62.7098V62.7308C26.9567 63.111 26.8448 63.484 26.6297 63.7976C26.4146 64.1111 26.1068 64.3496 25.7495 64.4798C26.6495 64.7498 27.3685 65.2678 27.3685 66.3038V66.3258C27.3685 67.6258 26.2785 68.3878 24.6265 68.3878H21.2695L21.2715 60.8308ZM24.3475 64.1988C25.3735 64.1988 26.0865 63.7348 26.0865 62.8488V62.8288C26.0865 62.0828 25.4925 61.5968 24.4125 61.5968H22.1125V64.1968L24.3475 64.1988ZM24.6475 67.6218C25.7915 67.6218 26.5045 67.1128 26.5045 66.2718V66.2498C26.5045 65.4298 25.8135 64.9498 24.4955 64.9498H22.1105V67.6168L24.6475 67.6218Z" fill="white"/>
<path d="M30.1699 60.8301H31.0229V68.3871H30.1699V60.8301Z" fill="white"/>
<path d="M34.2647 60.8301H39.7267V61.6081H35.1177V64.1871H39.2387V64.9641H35.1147V67.6091H39.7777V68.3871H34.2617L34.2647 60.8301Z" fill="white"/>
<path d="M42.5273 60.8305H45.7773C46.565 60.7882 47.3373 61.0597 47.9254 61.5855C48.1158 61.7834 48.2654 62.017 48.3654 62.2728C48.4655 62.5287 48.514 62.8018 48.5084 63.0764V63.0974C48.5068 63.6552 48.2946 64.1917 47.9143 64.5997C47.534 65.0076 47.0136 65.2568 46.4573 65.2974L48.7783 68.3854H47.7313L45.5394 65.4484H43.3804V68.3854H42.5273V60.8305ZM45.7014 64.6845C46.8354 64.6845 47.6443 64.1015 47.6443 63.1295V63.1094C47.6443 62.1814 46.9323 61.6195 45.7123 61.6195H43.3804V64.6854L45.7014 64.6845Z" fill="white"/>
<path d="M51.3633 60.8301H52.1633L56.9243 66.886V60.8301H57.7552V68.3871H57.0753L52.1953 62.1871V68.3871H51.3643L51.3633 60.8301Z" fill="white"/>
<path d="M60.586 64.6301V64.6091C60.5845 64.103 60.6827 63.6016 60.8751 63.1334C61.0674 62.6653 61.3501 62.2397 61.707 61.8808C62.0638 61.5219 62.4879 61.2367 62.9549 61.0417C63.4219 60.8467 63.9228 60.7456 64.4289 60.7442C64.935 60.7427 65.4365 60.8409 65.9046 61.0333C66.3728 61.2256 66.7985 61.5083 67.1574 61.8652C67.5163 62.222 67.8013 62.6461 67.9964 63.1131C68.1914 63.5801 68.2925 64.0811 68.294 64.5872C68.305 64.5972 68.305 64.5971 68.294 64.6091C68.2953 65.1153 68.197 65.6167 68.0046 66.0848C67.8122 66.5529 67.5295 66.9786 67.1726 67.3374C66.8157 67.6963 66.3916 67.9813 65.9245 68.1763C65.4575 68.3712 64.9566 68.4723 64.4505 68.4736C63.9443 68.475 63.4429 68.3767 62.9747 68.1843C62.5066 67.9919 62.081 67.7092 61.7222 67.3522C61.3633 66.9953 61.0783 66.5713 60.8833 66.1042C60.6884 65.6371 60.5873 65.1363 60.586 64.6301V64.6301ZM67.409 64.6301V64.6091C67.4251 64.207 67.3601 63.8056 67.2179 63.4291C67.0756 63.0525 66.8591 62.7085 66.5811 62.4174C66.3032 62.1263 65.9694 61.894 65.5999 61.7346C65.2303 61.5751 64.8324 61.4916 64.4299 61.4892C64.0297 61.4902 63.6338 61.5722 63.2661 61.7302C62.8983 61.8882 62.5663 62.119 62.29 62.4085C62.0137 62.6981 61.7988 63.0405 61.6582 63.4152C61.5176 63.79 61.4543 64.1893 61.4719 64.5891V64.6112C61.456 65.0133 61.5211 65.4145 61.6633 65.7909C61.8056 66.1673 62.0222 66.5113 62.3001 66.8023C62.5781 67.0933 62.9117 67.3254 63.2812 67.4848C63.6507 67.6442 64.0485 67.7276 64.4509 67.7301C64.8512 67.729 65.2471 67.647 65.6148 67.489C65.9826 67.331 66.3145 67.1004 66.5908 66.8108C66.8671 66.5212 67.082 66.1788 67.2226 65.804C67.3632 65.4293 67.4266 65.03 67.409 64.6301V64.6301Z" fill="white"/>
<path d="M75.3965 60.8305H78.0195C78.5339 60.7964 79.0498 60.8683 79.5353 61.0416C80.0208 61.215 80.4655 61.4862 80.842 61.8384C81.2184 62.1906 81.5186 62.6162 81.7239 63.0891C81.9292 63.562 82.0353 64.072 82.0355 64.5875V64.6095C82.0358 65.1261 81.9303 65.6373 81.7255 66.1116C81.5206 66.5858 81.2209 67.0131 80.8446 67.3671C80.4683 67.721 80.0235 67.9942 79.5377 68.1697C79.0518 68.3452 78.5351 68.4193 78.0195 68.3875H75.3965V60.8305ZM78.0195 67.5995C78.4243 67.628 78.8305 67.572 79.2124 67.435C79.5943 67.298 79.9435 67.0831 80.2379 66.8039C80.5323 66.5247 80.7654 66.1872 80.9223 65.8131C81.0792 65.4389 81.1566 65.0362 81.1495 64.6305V64.6095C81.1572 64.2027 81.0805 63.7986 80.9241 63.423C80.7677 63.0473 80.5351 62.7082 80.2409 62.4271C79.9467 62.146 79.5974 61.929 79.215 61.7898C78.8327 61.6506 78.4256 61.5922 78.0195 61.6185H76.2485V67.5995H78.0195Z" fill="white"/>
<path d="M84.8691 60.8301H90.3321V61.6081H85.7221V64.1871H89.8461V64.9641H85.7221V67.6091H90.3861V68.3871H84.8691V60.8301Z" fill="white"/>
<path d="M97.3965 60.8301H98.2495V67.5991H102.503V68.3871H97.3965V60.8301Z" fill="white"/>
<path d="M107.905 60.7773H108.705L112.149 68.3884H111.231L110.347 66.3884H106.233L105.333 68.3884H104.459L107.905 60.7773ZM110.005 65.6243L108.289 61.7714L106.562 65.6243H110.005Z" fill="white"/>
<path d="M28.7378 9.2168H27.7338C27.5626 9.2168 27.4238 9.35559 27.4238 9.5268V14.8938C27.4238 15.065 27.5626 15.2038 27.7338 15.2038H28.7378C28.909 15.2038 29.0478 15.065 29.0478 14.8938V9.5268C29.0478 9.35559 28.909 9.2168 28.7378 9.2168Z" fill="white"/>
<path d="M31.3492 9.2168H30.3452C30.1739 9.2168 30.0352 9.35559 30.0352 9.5268V14.8938C30.0352 15.065 30.1739 15.2038 30.3452 15.2038H31.3492C31.5204 15.2038 31.6592 15.065 31.6592 14.8938V9.5268C31.6592 9.35559 31.5204 9.2168 31.3492 9.2168Z" fill="white"/>
<path d="M26.1109 9.2168H25.1069C24.9357 9.2168 24.7969 9.35559 24.7969 9.5268V14.8938C24.7969 15.065 24.9357 15.2038 25.1069 15.2038H26.1109C26.2821 15.2038 26.4209 15.065 26.4209 14.8938V9.5268C26.4209 9.35559 26.2821 9.2168 26.1109 9.2168Z" fill="white"/>
<path d="M33.3857 8.03711H23.0607C22.9657 8.03711 22.8887 8.11412 22.8887 8.20911V8.60511C22.8887 8.7001 22.9657 8.77711 23.0607 8.77711H33.3857C33.4807 8.77711 33.5577 8.7001 33.5577 8.60511V8.20911C33.5577 8.11412 33.4807 8.03711 33.3857 8.03711Z" fill="white"/>
<path d="M38.0715 18.3218C38.4085 18.5708 38.7945 18.8678 39.2205 19.2218C40.1256 19.9819 40.9822 20.7978 41.7855 21.6648C43.8841 23.9418 45.6194 26.5284 46.9305 29.3338C47.5699 30.6319 48.1185 31.9728 48.5724 33.3468C49.0624 34.723 49.457 36.1314 49.7535 37.5618C50.2535 40.0518 50.5035 42.8438 50.5035 42.8438H54.3254L54.3185 42.7818L54.4675 42.8378V42.8108C54.2648 37.3071 52.4742 31.9796 49.3118 27.4706C46.1494 22.9616 41.7501 19.4638 36.6445 17.3988L36.6055 17.3828C36.8955 17.5401 37.1773 17.7123 37.4495 17.8988C37.6385 18.0218 37.8505 18.1688 38.0715 18.3218Z" fill="white"/>
<path d="M47.9233 42.7632C47.8983 42.4772 47.8564 42.1982 47.8234 41.9142C47.5601 38.689 46.8239 35.5201 45.6384 32.5092C45.2615 31.5698 44.8273 30.6544 44.3383 29.7682C44.2003 29.5212 44.0553 29.2872 43.9133 29.0492C41.524 24.3198 37.6272 20.5211 32.8383 18.2532V18.2532L32.8203 18.2422L32.8524 18.2842C33.7717 19.2106 34.5908 20.2312 35.2963 21.3292C38.3602 26.1596 40.226 31.652 40.7383 37.3492C40.901 38.7536 40.9815 40.1664 40.9794 41.5802C40.9924 41.9562 41.0064 42.5692 41.0114 42.7802L40.9963 42.8572H41.7913L47.9003 42.8392V42.8342H47.9333L47.9233 42.7632Z" fill="white"/>
<path d="M32.2307 7.4939C32.2432 6.42975 31.8397 5.40277 31.1062 4.63171C30.3727 3.86066 29.3672 3.40649 28.3037 3.36591V2.69089H29.3888V2.57388V2.17389C29.3885 2.16425 29.3844 2.1551 29.3775 2.14838C29.3706 2.14165 29.3614 2.13791 29.3517 2.13791H29.1908C29.1811 2.13791 29.1719 2.14165 29.1649 2.14838C29.158 2.1551 29.154 2.16425 29.1537 2.17389V2.5679H28.3007V1.0239H28.3238C28.336 1.0239 28.3477 1.01903 28.3563 1.01041C28.3649 1.00178 28.3697 0.990105 28.3697 0.977905V0.550903C28.3697 0.538609 28.365 0.526791 28.3564 0.518005C28.3478 0.509219 28.336 0.504168 28.3238 0.503906H28.1388C28.1326 0.503905 28.1265 0.505103 28.1209 0.507477C28.1152 0.509851 28.1101 0.513353 28.1059 0.517731C28.1016 0.522109 28.0982 0.527293 28.096 0.53299C28.0937 0.538686 28.0926 0.544779 28.0927 0.550903V0.977905C28.0926 0.983983 28.0937 0.990024 28.096 0.995667C28.0982 1.00131 28.1016 1.00641 28.1059 1.01071C28.1102 1.01501 28.1154 1.0184 28.121 1.02066C28.1266 1.02292 28.1327 1.02403 28.1388 1.0239H28.1657V2.5679H27.3017V2.17389C27.3015 2.16425 27.2975 2.1551 27.2906 2.14838C27.2836 2.14165 27.2744 2.13791 27.2647 2.13791H27.1037C27.0989 2.13778 27.0941 2.1386 27.0896 2.14035C27.0851 2.1421 27.0811 2.14471 27.0776 2.14807C27.0742 2.15143 27.0714 2.15545 27.0695 2.15988C27.0677 2.16432 27.0667 2.16908 27.0667 2.17389V2.57388V2.69189H28.1667V3.36789C27.1007 3.40852 26.093 3.86463 25.3589 4.63867C24.6249 5.41272 24.2228 6.44325 24.2387 7.50989V7.5289H32.2287L32.2307 7.4939Z" fill="white"/>
<path d="M33.3857 15.834H23.0607C22.9657 15.834 22.8887 15.911 22.8887 16.006V16.402C22.8887 16.497 22.9657 16.574 23.0607 16.574H33.3857C33.4807 16.574 33.5577 16.497 33.5577 16.402V16.006C33.5577 15.911 33.4807 15.834 33.3857 15.834Z" fill="white"/>
<path d="M29.6959 18.8225L29.5859 18.7285V42.8385L38.4299 42.8695C38.4299 42.8695 38.4299 42.6195 38.4299 42.4945C38.4299 32.2105 34.8879 23.2905 29.6959 18.8225Z" fill="white"/>
<path d="M50.313 46.5332H47.976C47.8048 46.5332 47.666 46.672 47.666 46.8432V49.1782C47.666 49.3494 47.8048 49.4882 47.976 49.4882H50.313C50.4842 49.4882 50.623 49.3494 50.623 49.1782V46.8432C50.623 46.672 50.4842 46.5332 50.313 46.5332Z" fill="white"/>
<path d="M17.9566 46.5293H15.6186C15.4474 46.5293 15.3086 46.6681 15.3086 46.8393V49.1773C15.3086 49.3485 15.4474 49.4873 15.6186 49.4873H17.9566C18.1278 49.4873 18.2666 49.3485 18.2666 49.1773V46.8393C18.2666 46.6681 18.1278 46.5293 17.9566 46.5293Z" fill="white"/>
<path d="M40.8658 46.5332H38.5288C38.3575 46.5332 38.2188 46.672 38.2188 46.8432V49.1782C38.2188 49.3494 38.3575 49.4882 38.5288 49.4882H40.8658C41.037 49.4882 41.1758 49.3494 41.1758 49.1782V46.8432C41.1758 46.672 41.037 46.5332 40.8658 46.5332Z" fill="white"/>
<path d="M29.4097 46.5293H27.0717C26.9005 46.5293 26.7617 46.6681 26.7617 46.8393V49.1773C26.7617 49.3485 26.9005 49.4873 27.0717 49.4873H29.4097C29.5809 49.4873 29.7197 49.3485 29.7197 49.1773V46.8393C29.7197 46.6681 29.5809 46.5293 29.4097 46.5293Z" fill="white"/>
<path d="M55.8259 44.81H55.6918H50.6268V43.93C50.6268 43.8613 50.5995 43.7954 50.551 43.7468C50.5024 43.6983 50.4365 43.671 50.3679 43.671H47.9299C47.8612 43.671 47.7953 43.6983 47.7467 43.7468C47.6981 43.7954 47.6708 43.8613 47.6708 43.93V44.81H41.1808V43.93C41.1808 43.8959 41.1742 43.8621 41.1611 43.8306C41.148 43.7991 41.1288 43.7705 41.1046 43.7465C41.0805 43.7224 41.0518 43.7034 41.0203 43.6904C40.9887 43.6775 40.9549 43.6708 40.9208 43.671H38.4828C38.4142 43.671 38.3483 43.6983 38.2997 43.7468C38.2512 43.7954 38.2239 43.8613 38.2239 43.93V44.81H29.7239V43.925C29.7239 43.8563 29.6966 43.7904 29.648 43.7418C29.5994 43.6933 29.5335 43.666 29.4648 43.666H27.0259C26.9572 43.666 26.8913 43.6933 26.8427 43.7418C26.7941 43.7904 26.7668 43.8563 26.7668 43.925V44.81H18.2668V43.925C18.2668 43.8563 18.2396 43.7904 18.191 43.7418C18.1424 43.6933 18.0766 43.666 18.0079 43.666H15.5688C15.5002 43.666 15.4343 43.6933 15.3857 43.7418C15.3372 43.7904 15.3099 43.8563 15.3099 43.925V44.81H8.81787V43.925C8.81787 43.8909 8.81111 43.8571 8.79803 43.8256C8.78496 43.7941 8.76579 43.7656 8.74164 43.7415C8.71748 43.7175 8.68883 43.6984 8.65729 43.6854C8.62575 43.6725 8.59196 43.6659 8.55786 43.666H6.11987C6.05109 43.666 5.98507 43.6932 5.93634 43.7418C5.88761 43.7903 5.86013 43.8562 5.85986 43.925V44.81H0.817871H0.677856C0.655269 44.81 0.632929 44.8144 0.612061 44.8231C0.591193 44.8317 0.572185 44.8444 0.556213 44.8604C0.540242 44.8763 0.527565 44.8953 0.518921 44.9161C0.510277 44.937 0.505859 44.9594 0.505859 44.982V45.446C0.505859 45.4916 0.523957 45.5354 0.556213 45.5676C0.58847 45.5999 0.632239 45.618 0.677856 45.618H55.8318C55.8776 45.618 55.9214 45.5999 55.9539 45.5677C55.9863 45.5355 56.0046 45.4917 56.0049 45.446V44.982C56.0048 44.9588 56 44.9359 55.9908 44.9147C55.9817 44.8934 55.9684 44.8742 55.9517 44.8582C55.935 44.8421 55.9153 44.8296 55.8937 44.8213C55.8721 44.813 55.849 44.8092 55.8259 44.81V44.81Z" fill="white"/>
<path d="M8.50738 46.5293H6.16938C5.99817 46.5293 5.85938 46.6681 5.85938 46.8393V49.1773C5.85938 49.3485 5.99817 49.4873 6.16938 49.4873H8.50738C8.67858 49.4873 8.81737 49.3485 8.81737 49.1773V46.8393C8.81737 46.6681 8.67858 46.5293 8.50738 46.5293Z" fill="white"/>
<path d="M26.9152 42.8514V18.7344L26.8052 18.8274C21.6132 23.2964 18.0723 32.2273 18.0723 42.5063C18.0723 42.6323 18.0723 42.8813 18.0723 42.8813L26.9152 42.8514Z" fill="white"/>
<path d="M2.17413 42.8519H3.60913L4.95612 42.8569V42.8519H5.99512C5.99512 42.8519 6.24712 40.059 6.74512 37.567C7.3662 34.7242 8.31315 31.9626 9.56714 29.3369C10.8782 26.531 12.6139 23.944 14.7131 21.667C15.5157 20.7994 16.372 19.9831 17.2771 19.223C17.7021 18.872 18.0881 18.5759 18.4251 18.3229C18.6471 18.1689 18.8611 18.0229 19.0491 17.8929C19.3213 17.7064 19.603 17.5342 19.8931 17.377L19.8541 17.3929C14.7483 19.4604 10.3495 22.9607 7.18817 27.4717C4.02683 31.9828 2.2379 37.3121 2.03711 42.817V42.8459H2.17914L2.17413 42.8519Z" fill="white"/>
<path d="M21.2034 21.3409C21.9082 20.2424 22.7271 19.2214 23.6464 18.295L23.6783 18.252L23.6613 18.263C18.8713 20.5318 14.9738 24.3319 12.5844 29.063C12.4424 29.301 12.2974 29.535 12.1594 29.782C11.6725 30.6685 11.24 31.5839 10.8643 32.5229C9.67607 35.5351 8.93784 38.7057 8.67334 41.933C8.64134 42.217 8.59936 42.4969 8.57336 42.7829L8.56836 42.849H8.60034L14.5184 42.867H15.5034L15.4883 42.789C15.4933 42.582 15.5073 41.968 15.5203 41.589C15.519 40.1748 15.5995 38.7618 15.7614 37.357C16.2743 31.6612 18.1401 26.1702 21.2034 21.3409V21.3409Z" fill="white"/>
<path d="M55.688 50.1836H0.81C0.638792 50.1836 0.5 50.3224 0.5 50.4936V51.7906C0.5 51.9618 0.638792 52.1006 0.81 52.1006H55.688C55.8592 52.1006 55.998 51.9618 55.998 51.7906V50.4936C55.998 50.3224 55.8592 50.1836 55.688 50.1836Z" fill="white"/>
<path d="M55.7371 97.8203H0.537109V94.8203H55.7371" fill="white"/>
</svg>
