<svg width="231" height="225" viewBox="0 0 231 225" fill="none" xmlns="http://www.w3.org/2000/svg">
<g clip-path="url(#clip0_5_2)">
<path opacity="0.18" d="M70.4025 151.851C85.551 158.543 102.685 158.44 119.232 158.219C127.913 158.109 136.893 157.932 144.797 154.317C155.785 149.288 162.92 138.495 172.56 131.191C183.628 122.79 197.795 119.167 208.526 110.339C213.749 106.046 217.979 100.659 220.92 94.5557C223.862 88.452 225.444 81.7773 225.558 74.9961C225.671 68.215 224.313 61.4905 221.578 55.2906C218.843 49.0908 214.797 43.5645 209.72 39.0966C204.043 34.1046 197.267 30.5779 190.55 27.11L156.818 9.66012C148.914 5.57376 140.805 1.42114 131.985 0.309355C124.543 -0.625721 117.013 0.670133 109.739 2.34149C89.0085 7.05369 68.4393 15.1749 53.2322 30.0404C40.1494 42.8516 31.6082 60.0585 17.2948 71.4635C13.6322 74.3718 9.57406 76.9414 6.90768 80.7848C-2.68832 94.6343 7.03221 112.327 19.4997 119.425C36.7652 129.247 52.3019 143.862 70.4025 151.851Z" fill="#6DA7E2"/>
<path d="M115.504 225C179.295 225 231.007 218.578 231.007 210.657C231.007 202.736 179.295 196.314 115.504 196.314C51.7127 196.314 0 202.736 0 210.657C0 218.578 51.7127 225 115.504 225Z" fill="#6DA7E2"/>
<path d="M115.504 225C179.295 225 231.007 218.578 231.007 210.657C231.007 202.736 179.295 196.314 115.504 196.314C51.7127 196.314 0 202.736 0 210.657C0 218.578 51.7127 225 115.504 225Z" fill="url(#paint0_linear_5_2)"/>
<path d="M51.7784 221.722C43.8293 221.074 37.8645 220.432 33.8575 219.946C31.7877 219.696 30.2402 219.487 29.2115 219.341C28.8696 219.293 28.585 219.251 28.3575 219.217L36.363 113.215L36.3754 113.051L36.3177 112.897C33.4656 105.257 31.5345 97.3013 30.5656 89.1997L30.5635 89.1825L30.5607 89.1655C30.2316 87.19 30.2518 85.1718 30.6202 83.2035C30.9213 81.9776 31.4787 80.8189 32.0773 79.5743C32.0992 79.5288 32.1212 79.4831 32.1432 79.4373C32.7561 78.1621 33.4023 76.7942 33.7056 75.3021C33.8286 74.7011 33.9013 74.0757 33.9676 73.4819C33.9723 73.4404 33.9769 73.3992 33.9814 73.358C34.0437 72.7982 34.1028 72.2677 34.1941 71.76C34.3898 70.6723 34.7111 69.8363 35.3695 69.2706C36.0116 68.779 36.7653 68.4563 37.5624 68.3315L37.581 68.3286L37.5995 68.3248C40.0354 67.8168 42.5479 67.8056 44.9881 68.2918C47.3062 68.7536 49.5143 69.6554 51.4948 70.9477L53.5367 120.935L51.7784 221.722Z" fill="white" stroke="#163F79" stroke-width="1.5"/>
<path d="M43.0648 132.759L53.7376 176.141V113.571L48.9909 99.3906L43.0648 132.759Z" fill="url(#paint1_linear_5_2)"/>
<path d="M197.259 69.2962L197.277 69.3001L197.296 69.3031C198.095 69.431 198.852 69.7537 199.499 70.2433C200.153 70.8091 200.474 71.6451 200.67 72.7328C200.762 73.2467 200.822 73.7845 200.884 74.352C200.888 74.3866 200.892 74.4214 200.896 74.4562C200.962 75.0509 201.033 75.6772 201.154 76.2792L201.155 76.2827C201.462 77.7742 202.11 79.1419 202.724 80.4171C202.744 80.4593 202.764 80.5015 202.785 80.5435C203.386 81.7919 203.946 82.9538 204.248 84.1831C204.617 86.1481 204.635 88.1637 204.3 90.1352L204.297 90.1536L204.295 90.1722C203.333 98.2741 201.404 106.23 198.55 113.868L198.492 114.023L198.505 114.188L206.473 218.708C206.221 218.748 205.899 218.798 205.508 218.857C204.421 219.023 202.802 219.259 200.683 219.544C196.588 220.093 190.622 220.82 183.001 221.555L181.294 121.9L183.365 71.863C185.349 70.5812 187.559 69.6898 189.876 69.2373C192.316 68.7609 194.826 68.7809 197.259 69.2962Z" fill="white" stroke="#163F79" stroke-width="1.5"/>
<path d="M193.165 129.659L189.378 149.207L181.313 166.841L180.603 128.466L193.165 129.659Z" fill="url(#paint2_linear_5_2)"/>
<path d="M187.51 35.636H44.691C41.3048 35.636 38.5598 38.3951 38.5598 41.7987V127.671C38.5598 131.075 41.3048 133.834 44.691 133.834H187.51C190.896 133.834 193.641 131.075 193.641 127.671V41.7987C193.641 38.3951 190.896 35.636 187.51 35.636Z" fill="#6DA7E2"/>
<path d="M187.51 35.636H44.691C41.3048 35.636 38.5598 38.3951 38.5598 41.7987V127.671C38.5598 131.075 41.3048 133.834 44.691 133.834H187.51C190.896 133.834 193.641 131.075 193.641 127.671V41.7987C193.641 38.3951 190.896 35.636 187.51 35.636Z" fill="url(#paint3_linear_5_2)"/>
<path d="M187.51 31.6968H44.691C41.3048 31.6968 38.5598 34.4559 38.5598 37.8594V123.732C38.5598 127.135 41.3048 129.895 44.691 129.895H187.51C190.896 129.895 193.641 127.135 193.641 123.732V37.8594C193.641 34.4559 190.896 31.6968 187.51 31.6968Z" fill="#6DA7E2"/>
<path d="M52.0089 86.4909C54.4774 83.7373 54.4774 83.7373 57.2683 80.4387L69.1571 66.4494C71.027 64.3971 72.741 62.2066 74.2848 59.8965H85.5143C85.1989 62.9316 85.0546 65.9822 85.0821 69.0337V86.9327H86.6717C88.4867 86.9155 90.2982 86.7678 92.0923 86.4909V96.5191C90.3111 96.2969 88.5178 96.1863 86.7229 96.1878H85.0821V98.9415C85.0316 101.208 85.1762 103.474 85.5143 105.715H74.2335C74.5394 103.434 74.6838 101.133 74.6657 98.831V96.173H59.1363C55.5689 96.173 54.0086 96.2246 52.0089 96.3866V86.4909ZM74.717 80.6596C74.717 78.1783 74.8268 75.1522 75.0466 72.7299C73.9478 74.2687 73.1274 75.3731 71.6477 77.2433L63.6266 87.0432H74.695L74.717 80.6596Z" fill="white"/>
<path d="M101.154 101.585C99.4052 99.855 98.0419 97.772 97.1541 95.4734C95.7103 91.428 94.9863 87.1587 95.0151 82.8609C95.0151 77.0737 96.3849 71.0804 98.4726 67.6052C101.813 61.9874 107.512 58.9023 114.412 58.9023C119.73 58.9023 124.389 60.721 127.729 64.0563C129.48 65.784 130.844 67.8675 131.729 70.1674C133.18 74.2287 133.905 78.5163 133.868 82.8315C133.868 88.6186 132.498 94.6782 130.418 98.1461C127.129 103.653 121.371 106.739 114.412 106.739C109.043 106.709 104.501 104.942 101.154 101.585ZM106.281 82.4412C106.281 92.3 109.072 97.3656 114.5 97.3656C119.928 97.3656 122.609 92.4105 122.609 82.64C122.58 73.1641 119.708 68.1942 114.412 68.1942C109.263 68.1942 106.252 73.4439 106.252 82.4191L106.281 82.4412Z" fill="white"/>
<path d="M136.71 86.4909C139.179 83.7373 139.179 83.7373 141.97 80.4387L153.866 66.4494C155.724 64.3963 157.425 62.2058 158.957 59.8965H170.194C169.872 62.9312 169.725 65.982 169.754 69.0337V86.9327H171.344C173.159 86.9155 174.97 86.7678 176.764 86.4909V96.5191C174.983 96.2969 173.19 96.1863 171.395 96.1878H169.754V98.9415C169.702 101.208 169.849 103.475 170.194 105.715H158.905C159.214 103.434 159.361 101.133 159.345 98.831V96.173H143.837C140.277 96.173 138.71 96.2246 136.71 96.3866V86.4909ZM159.418 80.6596C159.418 78.1783 159.528 75.1522 159.748 72.7299C158.649 74.2687 157.829 75.3731 156.349 77.2433L148.328 87.0432H159.396L159.418 80.6596Z" fill="white"/>
</g>
<defs>
<linearGradient id="paint0_linear_5_2" x1="114.8" y1="190.697" x2="116.954" y2="251.468" gradientUnits="userSpaceOnUse">
<stop stop-opacity="0"/>
<stop offset="0.95"/>
</linearGradient>
<linearGradient id="paint1_linear_5_2" x1="49.5916" y1="170.545" x2="47.438" y2="85.8142" gradientUnits="userSpaceOnUse">
<stop stop-opacity="0"/>
<stop offset="0.99"/>
</linearGradient>
<linearGradient id="paint2_linear_5_2" x1="187.525" y1="158.867" x2="186.089" y2="105.716" gradientUnits="userSpaceOnUse">
<stop stop-opacity="0"/>
<stop offset="0.95"/>
</linearGradient>
<linearGradient id="paint3_linear_5_2" x1="113.489" y1="175.566" x2="116.842" y2="60.2067" gradientUnits="userSpaceOnUse">
<stop stop-opacity="0"/>
<stop offset="0.99"/>
</linearGradient>
<clipPath id="clip0_5_2">
<rect width="231" height="225" fill="white"/>
</clipPath>
</defs>
</svg>
