<svg width="49" height="48" viewBox="0 0 49 48" fill="none" xmlns="http://www.w3.org/2000/svg">
<path d="M48.3868 0V47.7677H0.613159V7.3673L7.98028 0H48.3868Z" fill="#1B3F7E"/>
<path d="M24.0034 39.0056C17.0166 38.745 11.5863 32.7793 11.5863 25.7853V22.2636C11.5863 21.024 12.5935 20.0098 13.8401 20.0098H35.1667C36.4063 20.0098 37.4135 21.017 37.4135 22.2636V26.1022C37.4135 33.3921 31.3494 39.2873 24.0034 39.0056ZM16.0869 24.5104V25.8557C16.0869 30.3846 19.5591 34.2795 24.0808 34.5049C28.9124 34.7444 32.92 30.8846 32.92 26.1022V24.5104H16.0939H16.0869Z" fill="white"/>
<path d="M23.5877 15.0517H14.7133C13.1498 15.0517 11.7482 13.9036 11.6003 12.3471C11.4312 10.5581 12.8328 9.05078 14.5866 9.05078H23.4609C25.0245 9.05078 26.4261 10.1988 26.574 11.7554C26.743 13.5444 25.3414 15.0517 23.5877 15.0517Z" fill="white"/>
<path d="M36.4274 14.439C35.1103 15.7561 32.9692 15.7561 31.6521 14.439C30.335 13.1219 30.335 10.9807 31.6521 9.66361C32.9692 8.34651 35.1103 8.34651 36.4274 9.66361C37.7444 10.9807 37.7444 13.1219 36.4274 14.439Z" fill="#6DB0E2"/>
</svg>
