<svg width="112" height="34" viewBox="0 0 112 34" fill="none" xmlns="http://www.w3.org/2000/svg">
    <g clip-path="url(#clip0_3925_25045)">
        <path
            d="M28.8407 0H6.21501C3.0587 0 0.5 2.55132 0.5 5.69853V28.3015C0.5 31.4487 3.0587 34 6.21501 34H28.8407C31.997 34 34.5557 31.4487 34.5557 28.3015V5.69853C34.5557 2.55132 31.997 0 28.8407 0Z"
            fill="#6DADDE" />
        <path opacity="0.5"
            d="M28.6473 2.01367H6.40751C5.2386 2.01367 4.29102 2.95853 4.29102 4.12407V24.7512C4.29102 25.9167 5.2386 26.8616 6.40751 26.8616H28.6473C29.8162 26.8616 30.7638 25.9167 30.7638 24.7512V4.12407C30.7638 2.95853 29.8162 2.01367 28.6473 2.01367Z"
            fill="white" />
        <path
            d="M29.5738 3.35742H5.48032C3.82894 3.35742 2.49023 4.69227 2.49023 6.33888V23.5572C2.49023 25.2039 3.82894 26.5387 5.48032 26.5387H29.5738C31.2252 26.5387 32.5639 25.2039 32.5639 23.5572V6.33888C32.5639 4.69227 31.2252 3.35742 29.5738 3.35742Z"
            fill="#FFFFFA" />
        <path
            d="M18.2227 5.22368C17.4462 5.78079 16.511 6.07823 15.5546 6.07823H6.21501C3.05921 6.07823 0.5 8.63006 0.5 11.7768V28.3011C0.5 31.4478 3.05921 33.9996 6.21501 33.9996H28.8407C31.9965 33.9996 34.5557 31.4478 34.5557 28.3011V10.0677C34.5557 6.92097 31.9965 4.36914 28.8407 4.36914H20.8932C19.9367 4.36914 19.0039 4.66658 18.2251 5.22368H18.2227Z"
            fill="#1A3773" />
        <path
            d="M17.1827 30.5135C12.3105 30.3294 8.52734 26.1818 8.52734 21.3212V18.8756C8.52734 18.0117 9.23048 17.3105 10.097 17.3105H24.9669C25.8334 17.3105 26.5365 18.0117 26.5365 18.8756V21.5455C26.5365 26.6114 22.3082 30.7094 17.1851 30.5159M11.6642 20.436V21.3708C11.6642 24.5152 14.0837 27.2275 17.2348 27.3833C20.6037 27.5486 23.3973 24.8645 23.3973 21.5408V20.436H11.6642Z"
            fill="white" />
        <path
            d="M16.8965 13.8622H10.7103C9.61656 13.8622 8.64354 13.0667 8.53937 11.9832C8.41864 10.7415 9.39876 9.69336 10.6227 9.69336H16.8089C17.9026 9.69336 18.8756 10.4889 18.9798 11.5748C19.1005 12.8165 18.1204 13.8646 16.8965 13.8646"
            fill="white" />
        <path
            d="M25.8444 13.4324C24.9258 14.3483 23.4343 14.3483 22.5181 13.4324C21.6019 12.5165 21.5995 11.0293 22.5181 10.1157C23.4367 9.20218 24.9282 9.19982 25.8444 10.1157C26.7606 11.0317 26.7629 12.5189 25.8444 13.4324Z"
            fill="#DF0238" />
        <path
            d="M44.9431 20.2047C43.9488 19.4894 43.4114 18.4437 43.3262 17.0603H47.5899C47.6491 17.7921 47.9758 18.1604 48.5653 18.1604C48.7831 18.1604 48.9654 18.1085 49.1169 18.0069C49.2685 17.9054 49.3418 17.7449 49.3418 17.5301C49.3418 17.2303 49.1785 16.9872 48.8542 16.8007C48.5298 16.6142 48.0232 16.4017 47.3366 16.1609C46.5175 15.8729 45.8404 15.5897 45.3054 15.3135C44.7703 15.0373 44.3087 14.636 43.9228 14.1072C43.5369 13.5784 43.3498 12.9009 43.3617 12.0723C43.3617 11.2438 43.5748 10.5379 44.0033 9.95487C44.4318 9.3718 45.0142 8.93036 45.7552 8.63057C46.4962 8.33077 47.3295 8.17969 48.2576 8.17969C49.8224 8.17969 51.0677 8.54086 51.9887 9.26085C52.9096 9.98084 53.3949 10.9959 53.4423 12.3061H49.124C49.1122 11.9449 49.0222 11.6876 48.8542 11.5318C48.6861 11.376 48.4801 11.2981 48.241 11.2981C48.0729 11.2981 47.9332 11.3547 47.8243 11.468C47.7154 11.5813 47.661 11.7419 47.661 11.9449C47.661 12.2329 47.8196 12.4713 48.1392 12.6554C48.4588 12.8419 48.9678 13.0662 49.6662 13.3306C50.4735 13.6304 51.1387 13.9184 51.6619 14.1945C52.1852 14.4707 52.6397 14.8555 53.0256 15.3465C53.4115 15.8399 53.6032 16.4584 53.6032 17.202C53.6032 17.9833 53.4115 18.6821 53.0256 19.3006C52.6397 19.919 52.081 20.403 51.3447 20.75C50.6108 21.0994 49.7372 21.2717 48.7263 21.2717C47.1969 21.2717 45.9351 20.9152 44.9408 20.2L44.9431 20.2047Z"
            fill="#1A3773" />
        <path
            d="M57.9332 20.4289C56.927 19.8648 56.1292 19.0834 55.5397 18.0872C54.9502 17.091 54.6543 15.9674 54.6543 14.7186C54.6543 13.4698 54.9502 12.3462 55.5397 11.35C56.1292 10.3538 56.927 9.57481 57.9332 9.01771C58.9394 8.45824 60.045 8.17969 61.2476 8.17969C62.4503 8.17969 63.5535 8.45824 64.5526 9.01771C65.5516 9.57717 66.3447 10.3538 66.9271 11.35C67.5119 12.3462 67.8031 13.4698 67.8031 14.7186C67.8031 15.9674 67.5119 17.091 66.9271 18.0872C66.3424 19.0834 65.5469 19.8648 64.5431 20.4289C63.5369 20.9931 62.4385 21.2764 61.2453 21.2764C60.0521 21.2764 58.9346 20.9955 57.9308 20.4289H57.9332ZM63.0895 16.7818C63.5227 16.2719 63.7406 15.5849 63.7406 14.7186C63.7406 13.8523 63.5227 13.1488 63.0895 12.6389C62.6563 12.129 62.0407 11.8741 61.2476 11.8741C60.4545 11.8741 59.8201 12.129 59.3868 12.6389C58.9536 13.1488 58.7358 13.8428 58.7358 14.7186C58.7358 15.5944 58.9536 16.2719 59.3868 16.7818C59.8201 17.2917 60.4403 17.5466 61.2476 17.5466C62.0549 17.5466 62.6563 17.2917 63.0895 16.7818Z"
            fill="#1A3773" />
        <path
            d="M81.5343 8.39648L76.9462 17.2771V21.1509H72.9358V17.2771L68.3477 8.39648H72.9358L74.9765 12.9171L77.0172 8.39648H81.5343Z"
            fill="#1A3773" />
        <path
            d="M97.7941 8.39648L93.206 17.2771V21.1509H89.1955V17.2771L84.6074 8.39648H89.1955L91.2363 12.9171L93.277 8.39648H97.7941Z"
            fill="#1A3773" />
        <path
            d="M101.613 20.4289C100.607 19.8648 99.8089 19.0834 99.2194 18.0872C98.6299 17.091 98.334 15.9674 98.334 14.7186C98.334 13.4698 98.6299 12.3462 99.2194 11.35C99.8089 10.3538 100.607 9.57481 101.613 9.01771C102.619 8.45824 103.725 8.17969 104.927 8.17969C106.13 8.17969 107.233 8.45824 108.232 9.01771C109.231 9.57717 110.024 10.3538 110.607 11.35C111.192 12.3462 111.483 13.4698 111.483 14.7186C111.483 15.9674 111.192 17.091 110.607 18.0872C110.022 19.0834 109.227 19.8648 108.223 20.4289C107.217 20.9931 106.118 21.2764 104.925 21.2764C103.732 21.2764 102.614 20.9955 101.611 20.4289H101.613ZM106.772 16.7818C107.205 16.2719 107.423 15.5849 107.423 14.7186C107.423 13.8523 107.205 13.1488 106.772 12.6389C106.338 12.129 105.723 11.8741 104.93 11.8741C104.137 11.8741 103.502 12.129 103.069 12.6389C102.636 13.1488 102.418 13.8428 102.418 14.7186C102.418 15.5944 102.636 16.2719 103.069 16.7818C103.502 17.2917 104.122 17.5466 104.93 17.5466C105.737 17.5466 106.338 17.2917 106.772 16.7818Z"
            fill="#1A3773" />
        <path
            d="M47.5876 24.3438V28.2411H46.8039V25.7058L45.7575 28.2411H45.1633L44.1098 25.7058V28.2411H43.3262V24.3438H44.2163L45.4592 27.2402L46.7022 24.3438H47.5876Z"
            fill="#DF0238" />
        <path d="M49.143 24.3438V28.2411H48.3594V24.3438H49.143Z" fill="#DF0238" />
        <path
            d="M51.319 25.2541C51.4918 24.952 51.7286 24.7136 52.0292 24.546C52.3299 24.376 52.6661 24.291 53.0401 24.291C53.4758 24.291 53.8593 24.402 54.1884 24.6262C54.5174 24.8505 54.7471 25.1597 54.8773 25.5539H53.9753C53.8853 25.3675 53.7598 25.2282 53.5965 25.1361C53.4331 25.0441 53.2461 24.9968 53.033 24.9968C52.8058 24.9968 52.6022 25.0488 52.4246 25.155C52.2471 25.2612 52.1097 25.4099 52.0103 25.6035C51.9109 25.7971 51.8612 26.0237 51.8612 26.2834C51.8612 26.543 51.9109 26.7673 52.0103 26.9609C52.1097 27.1568 52.2471 27.3079 52.4246 27.4141C52.6022 27.5203 52.8034 27.5723 53.033 27.5723C53.2461 27.5723 53.4331 27.5251 53.5965 27.4306C53.7598 27.3362 53.8853 27.1946 53.9753 27.0081H54.8773C54.7471 27.407 54.5174 27.7163 54.1907 27.9382C53.864 28.1601 53.4805 28.271 53.0401 28.271C52.6661 28.271 52.3299 28.186 52.0292 28.0161C51.7286 27.8461 51.4918 27.61 51.319 27.3102C51.1462 27.0081 51.0586 26.6658 51.0586 26.2834C51.0586 25.901 51.1462 25.5563 51.319 25.2541Z"
            fill="#DF0238" />
        <path
            d="M57.9459 27.4964H56.3905L56.1325 28.24H55.3086L56.7149 24.3379H57.6263L59.0326 28.24H58.204L57.9459 27.4964ZM57.7329 26.8708L57.167 25.242L56.6012 26.8708H57.7329Z"
            fill="#DF0238" />
        <path
            d="M61.5713 28.2372L60.7096 26.7193H60.3403V28.2372H59.5566V24.3398H61.0245C61.3275 24.3398 61.5832 24.3918 61.7962 24.498C62.0093 24.6042 62.1679 24.7482 62.2745 24.9276C62.381 25.107 62.4331 25.3101 62.4331 25.5343C62.4331 25.7916 62.3573 26.023 62.2082 26.2283C62.059 26.4337 61.8365 26.5777 61.5429 26.6556L62.4781 28.2349H61.5713V28.2372ZM60.3403 26.1339H60.996C61.2091 26.1339 61.3677 26.082 61.4719 25.9805C61.5761 25.879 61.6282 25.735 61.6282 25.5532C61.6282 25.3714 61.5761 25.2369 61.4719 25.1377C61.3677 25.0386 61.2091 24.989 60.996 24.989H60.3403V26.1339Z"
            fill="#DF0238" />
        <path
            d="M65.8458 26.1355C65.7464 26.3172 65.5925 26.4659 65.3818 26.5769C65.1711 26.6878 64.9059 26.7445 64.5839 26.7445H63.9282V28.2411H63.1445V24.3438H64.5839C64.887 24.3438 65.145 24.3957 65.3557 24.4995C65.5688 24.6034 65.7274 24.7474 65.834 24.9292C65.9405 25.111 65.9926 25.3187 65.9926 25.5477C65.9926 25.7554 65.9429 25.9513 65.8434 26.1331L65.8458 26.1355ZM65.0314 25.9631C65.1356 25.864 65.1876 25.7247 65.1876 25.5477C65.1876 25.1676 64.9746 24.9788 64.5484 24.9788H63.9258V26.1119H64.5484C64.7639 26.1119 64.9249 26.0623 65.029 25.9631H65.0314Z"
            fill="#DF0238" />
        <path
            d="M67.3325 24.9733V25.9506H68.6488V26.5691H67.3325V27.6007H68.8168V28.238H66.5488V24.3359H68.8168V24.9733H67.3325Z"
            fill="#DF0238" />
        <path d="M72.1853 24.3438V24.974H71.1437V28.2388H70.36V24.974H69.3184V24.3438H72.1853Z"
            fill="#DF0238" />
        <path
            d="M75.1549 27.4964H73.5995L73.3414 28.24H72.5176L73.9238 24.3379H74.8353L76.2416 28.24H75.413L75.1549 27.4964ZM74.9418 26.8708L74.376 25.242L73.8102 26.8708H74.9418Z"
            fill="#DF0238" />
        <path
            d="M78.1686 25.2541C78.3414 24.952 78.5782 24.7136 78.8789 24.546C79.1795 24.376 79.5157 24.291 79.8898 24.291C80.3254 24.291 80.7089 24.402 81.038 24.6262C81.367 24.8505 81.5967 25.1597 81.7269 25.5539H80.8249C80.7349 25.3675 80.6095 25.2282 80.4461 25.1361C80.2828 25.0441 80.0957 24.9968 79.8827 24.9968C79.6554 24.9968 79.4518 25.0488 79.2742 25.155C79.0967 25.2612 78.9593 25.4099 78.8599 25.6035C78.7605 25.7971 78.7108 26.0237 78.7108 26.2834C78.7108 26.543 78.7605 26.7673 78.8599 26.9609C78.9593 27.1568 79.0967 27.3079 79.2742 27.4141C79.4518 27.5203 79.653 27.5723 79.8827 27.5723C80.0957 27.5723 80.2828 27.5251 80.4461 27.4306C80.6095 27.3362 80.7349 27.1946 80.8249 27.0081H81.7269C81.5967 27.407 81.367 27.7163 81.0403 27.9382C80.7136 28.1601 80.3301 28.271 79.8898 28.271C79.5157 28.271 79.1795 28.186 78.8789 28.0161C78.5782 27.8461 78.3414 27.61 78.1686 27.3102C77.9958 27.0081 77.9082 26.6658 77.9082 26.2834C77.9082 25.901 77.9958 25.5563 78.1686 25.2541Z"
            fill="#DF0238" />
        <path d="M83.1821 24.3438V28.2411H82.3984V24.3438H83.1821Z" fill="#DF0238" />
        <path
            d="M84.7259 24.3438V26.7563C84.7259 27.0207 84.7945 27.2213 84.9318 27.363C85.0691 27.5023 85.2633 27.5731 85.5142 27.5731C85.7652 27.5731 85.964 27.5023 86.1013 27.363C86.2387 27.2237 86.3073 27.0207 86.3073 26.7563V24.3438H87.0957V26.7492C87.0957 27.0797 87.0246 27.3606 86.8802 27.5896C86.7358 27.8186 86.5441 27.9909 86.3026 28.1066C86.0611 28.2222 85.7936 28.2789 85.5 28.2789C85.2065 28.2789 84.9437 28.2222 84.7069 28.1066C84.4702 27.9909 84.2831 27.8186 84.1435 27.5896C84.0062 27.3606 83.9375 27.0797 83.9375 26.7492V24.3438H84.7211H84.7259Z"
            fill="#DF0238" />
        <path
            d="M90.3058 24.5806C90.6183 24.7411 90.8574 24.9678 91.0279 25.2652C91.1983 25.5603 91.2835 25.9049 91.2835 26.2944C91.2835 26.6839 91.1983 27.0262 91.0279 27.3189C90.8574 27.6117 90.6183 27.8383 90.3058 27.9964C89.9933 28.157 89.6334 28.2372 89.2215 28.2372H87.8555V24.3398H89.2215C89.6311 24.3398 89.9933 24.4201 90.3058 24.5806ZM90.1448 27.2387C90.3697 27.0144 90.481 26.7005 90.481 26.2944C90.481 25.8884 90.3697 25.5721 90.1448 25.3431C89.9199 25.1141 89.6026 25.0008 89.1931 25.0008H88.6391V27.5739H89.1931C89.6026 27.5739 89.9199 27.4629 90.1448 27.2387Z"
            fill="#DF0238" />
        <path
            d="M94.2662 27.4964H92.7108L92.4528 28.24H91.6289L93.0352 24.3379H93.9466L95.3529 28.24H94.5243L94.2662 27.4964ZM94.0532 26.8708L93.4874 25.242L92.9215 26.8708H94.0532Z"
            fill="#DF0238" />
        <path
            d="M98.3292 24.5806C98.6417 24.7411 98.8808 24.9678 99.0513 25.2652C99.2217 25.5603 99.307 25.9049 99.307 26.2944C99.307 26.6839 99.2217 27.0262 99.0513 27.3189C98.8808 27.6117 98.6417 27.8383 98.3292 27.9964C98.0167 28.157 97.6569 28.2372 97.2449 28.2372H95.8789V24.3398H97.2449C97.6545 24.3398 98.0167 24.4201 98.3292 24.5806ZM98.1682 27.2387C98.3931 27.0144 98.5044 26.7005 98.5044 26.2944C98.5044 25.8884 98.3931 25.5721 98.1682 25.3431C97.9433 25.1141 97.6261 25.0008 97.2165 25.0008H96.6625V27.5739H97.2165C97.6261 27.5739 97.9433 27.4629 98.1682 27.2387Z"
            fill="#DF0238" />
        <path
            d="M102.29 27.4964H100.734L100.476 28.24H99.6523L101.059 24.3379H101.97L103.376 28.24H102.548L102.29 27.4964ZM102.077 26.8708L101.511 25.242L100.945 26.8708H102.077Z"
            fill="#DF0238" />
        <path
            d="M107.243 28.238H106.46L104.684 25.5635V28.238H103.9V24.3359H104.684L106.46 27.0152V24.3359H107.243V28.238Z"
            fill="#DF0238" />
        <path
            d="M110.413 27.4964H108.857L108.599 28.24H107.775L109.182 24.3379H110.093L111.499 28.24H110.671L110.413 27.4964ZM110.2 26.8708L109.634 25.242L109.068 26.8708H110.2Z"
            fill="#DF0238" />
    </g>
    <defs>
        <clipPath id="clip0_3925_25045">
            <rect width="111" height="34" fill="white" transform="translate(0.5)" />
        </clipPath>
    </defs>
</svg>
    
