<svg width="190" height="164" viewBox="0 0 190 164" fill="none" xmlns="http://www.w3.org/2000/svg">
<path d="M45.0977 28.167C45.0977 28.167 58.2178 2.57608 60.4495 1.66984C62.6813 0.763611 69.1737 3.44174 68.7138 4.72669C68.254 6.01165 65.5082 18.3472 65.5082 18.3472C65.5082 18.3472 72.5687 13.789 73.2991 15.6421C74.0295 17.4951 65.4 26.7062 65.4 26.7062L53.646 46.3323L45.0977 28.167Z" fill="white"/>
<path d="M53.646 47.0087C53.5205 47.0037 53.3987 46.9645 53.2939 46.8953C53.189 46.8262 53.1049 46.7298 53.0509 46.6164L44.5025 28.4647C44.4528 28.371 44.4268 28.2665 44.4268 28.1603C44.4268 28.0542 44.4528 27.9497 44.5025 27.856C47.5999 21.7964 57.9067 1.95399 60.2061 1.02071C62.5055 0.0874221 67.3071 1.92694 68.8491 3.41478C69.0882 3.58702 69.2684 3.82876 69.3652 4.10709C69.462 4.38542 69.4707 4.68681 69.3901 4.97026C69.0655 5.84944 67.483 12.8288 66.5767 16.8865C68.565 15.7233 71.676 14.1814 73.1097 14.5871C73.3035 14.6449 73.4818 14.7454 73.6316 14.8811C73.7814 15.0169 73.8989 15.1845 73.9754 15.3717C74.7599 17.3194 69.336 23.4872 65.9951 27.1121L54.2682 46.6705C54.2059 46.7789 54.1147 46.8678 54.0049 46.9275C53.8951 46.9872 53.7708 47.0153 53.646 47.0087ZM45.8686 28.1806L53.7137 44.831L64.8048 26.3276L64.8995 26.2059C68.7815 22.0534 72.8257 16.9136 72.6499 15.8721C72.0953 15.5881 68.8626 17.0218 65.8869 18.9425C65.7718 19.0159 65.638 19.0549 65.5014 19.0549C65.3649 19.0549 65.2311 19.0159 65.116 18.9425C65.0015 18.8626 64.9133 18.7506 64.8628 18.6205C64.8122 18.4904 64.8015 18.3483 64.8319 18.2121C64.9401 17.7252 67.4559 6.36342 68.0105 4.68622C67.426 4.07238 66.7022 3.60843 65.9004 3.33363C63.8445 2.44092 61.6127 1.98104 60.7065 2.40034C59.2998 3.13074 52.0364 16.1561 45.8686 28.1806Z" fill="#003579"/>
<path d="M46.0447 68.6235L60.328 36.4184L44.354 22.8926C44.354 22.8926 5.12899 73.4252 21.5494 86.383L59.016 123.119L93.3853 98.9621L46.0447 68.6235Z" fill="#6DB0E2"/>
<path d="M44 21.7676L60 36.2676L60.5 36.7676L57.5 43.7676L37.5 27.7676L44 21.7676Z" fill="#6DB0E2" stroke="#003579"/>
<path d="M90.8162 46.4143C92.2375 41.2037 95.6017 36.7359 100.217 33.9299C108.21 28.8036 130.109 32.1986 134.126 41.1527C138.143 50.1069 126.403 73.6148 126.403 73.6148L88.8008 83.7592L90.8162 46.4143Z" fill="white"/>
<path d="M88.7996 84.4223C88.6401 84.4244 88.4856 84.3665 88.3668 84.26C88.2806 84.1936 88.2121 84.1071 88.1673 84.008C88.1225 83.909 88.1027 83.8004 88.1098 83.6919L90.1116 46.4146C90.105 46.3834 90.105 46.3512 90.1116 46.3199C91.5564 40.9094 95.0423 36.2696 99.8367 33.3757C104.544 30.3594 114.174 30.0213 122.736 32.5777C128.89 34.4172 133.164 37.3658 134.747 40.9096C138.805 50.0531 127.497 72.9524 127.024 73.9262C126.977 74.0137 126.914 74.0911 126.837 74.1539C126.761 74.2166 126.672 74.2633 126.577 74.2914L88.9754 84.4358L88.7996 84.4223ZM91.5048 46.5499L89.5571 82.8398L125.915 73.02C127.267 70.3148 137.087 49.512 133.489 41.4777C132.136 38.3667 128.079 35.6075 122.344 33.9167C114.228 31.5091 104.922 31.7796 100.594 34.5524C96.1748 37.2602 92.9315 41.5267 91.5048 46.5093V46.5499Z" fill="#003579"/>
<path d="M124.589 153.268C127.294 133.128 129.053 113.164 126.821 109.363C119.179 96.3511 84.6742 104.304 78.2764 107.226C75.7877 108.362 77.2755 128.746 73.2178 153.214L124.589 153.268Z" fill="#003579"/>
<path d="M156.957 154.215C156.957 154.215 163.923 119.819 153.413 109.58C142.904 99.3405 117.705 100.869 117.705 100.869C117.705 100.869 77.8171 95.3639 65.5626 101.667C60.5716 104.237 54.1333 126.703 48.1143 153.268H82.5782L92.0463 107.497L122.939 108.484L112.795 153.268L156.957 154.215Z" fill="#6DB0E2"/>
<path d="M94.7376 89.5616L92.0324 107.537C92.0324 107.537 93.2633 119.427 105.301 117.925C108.855 117.451 112.259 116.192 115.265 114.238C118.272 112.285 120.805 109.686 122.682 106.631L126.32 73.574C126.32 73.574 118.205 67.9472 122.871 49.3897C112.098 49.948 101.301 48.9458 90.8151 46.4141C90.8151 46.4141 84.3903 69.9761 84.769 79.2143C85.1478 88.4525 94.7376 89.5616 94.7376 89.5616Z" fill="white"/>
<path d="M103.354 118.764C100.732 118.838 98.1655 118.001 96.0907 116.397C93.5137 114.133 91.85 111.007 91.4108 107.605C91.4041 107.546 91.4041 107.487 91.4108 107.429L93.9671 90.1295C91.6407 89.629 84.3909 87.4243 84.0527 79.3088C83.6875 70.0706 89.8553 47.266 90.1258 46.2922C90.1734 46.117 90.2881 45.9676 90.4451 45.8765C90.6021 45.7853 90.7887 45.7597 90.9644 45.8052C101.409 48.3113 112.159 49.3043 122.885 48.7539C122.996 48.7492 123.107 48.7686 123.21 48.8106C123.312 48.8526 123.405 48.9163 123.481 48.9973C123.555 49.0807 123.606 49.1817 123.63 49.2907C123.653 49.3997 123.649 49.5129 123.616 49.6195C119.112 67.4196 126.713 73.0193 126.794 73.0734C126.897 73.1452 126.979 73.2432 127.032 73.3574C127.084 73.4716 127.105 73.5977 127.092 73.7226L123.44 106.78C123.438 106.872 123.41 106.961 123.359 107.037C121.442 110.201 118.836 112.892 115.736 114.911C112.635 116.93 109.12 118.223 105.451 118.696C104.754 118.757 104.054 118.779 103.354 118.764ZM92.8174 107.537C93.2343 110.541 94.7062 113.297 96.9699 115.315C98.1537 116.182 99.5016 116.8 100.932 117.13C102.362 117.46 103.844 117.496 105.288 117.235C108.71 116.771 111.988 115.561 114.89 113.692C117.793 111.822 120.25 109.338 122.087 106.415L125.672 73.8849C124.13 72.5323 118.233 66.3104 122.06 50.1335C111.725 50.5589 101.379 49.5899 91.3025 47.2525C90.2881 51.1209 85.1348 71.0174 85.4729 79.1871C85.811 87.7219 94.4811 88.8175 94.8463 88.8581C94.9393 88.8694 95.029 88.8991 95.1103 88.9456C95.1916 88.992 95.2628 89.0542 95.3197 89.1286C95.38 89.2013 95.4243 89.2857 95.45 89.3766C95.4756 89.4674 95.4819 89.5626 95.4685 89.6561L92.8174 107.537Z" fill="#003579"/>
<path d="M93.3857 98.9617C93.3857 98.9617 97.971 100.423 103.692 96.0402C109.414 91.6578 109.306 88.7227 109.306 88.7227C104.698 90.6392 99.5764 90.9348 94.7789 89.5613L93.3857 98.9617Z" fill="#003579"/>
<path d="M95.3744 99.867C94.6304 99.8827 93.8879 99.7916 93.1697 99.5964C93.02 99.5474 92.8921 99.4475 92.8081 99.3141C92.7241 99.1808 92.6894 99.0223 92.7098 98.866L94.0624 89.3979C94.0786 89.3018 94.1146 89.21 94.1682 89.1285C94.2218 89.047 94.2917 88.9775 94.3735 88.9245C94.5468 88.8286 94.7507 88.8043 94.9416 88.8569C99.5784 90.1749 104.524 89.8938 108.981 88.0589C109.082 88.0085 109.193 87.9844 109.305 87.9888C109.417 87.9932 109.526 88.026 109.622 88.0841C109.718 88.1423 109.798 88.2238 109.854 88.3211C109.91 88.4184 109.94 88.5283 109.942 88.6405C109.942 88.9786 109.942 92.049 104.058 96.5261C101.615 98.574 98.5599 99.7496 95.3744 99.867ZM94.1436 98.4332C95.4961 98.6496 98.9994 98.7849 103.287 95.4981C105.432 94.073 107.17 92.1156 108.332 89.8172C104.152 91.3079 99.6218 91.5198 95.3203 90.4259L94.1436 98.4332Z" fill="#003579"/>
<path d="M105.558 63.375C105.558 63.375 98.9037 73.0325 100.432 74.7503C101.961 76.468 106.316 75.3995 106.316 75.3995" fill="white"/>
<path d="M103.571 76.4277C102.913 76.485 102.251 76.4065 101.625 76.1971C100.999 75.9876 100.423 75.6518 99.9322 75.2104C98.2144 73.2897 102.908 66.0263 105.004 63.0371C105.118 62.9047 105.276 62.819 105.449 62.7968C105.622 62.7745 105.797 62.8172 105.94 62.9166C106.083 63.0159 106.184 63.1649 106.224 63.3346C106.263 63.5043 106.238 63.6827 106.154 63.8351C102.84 68.6368 100.379 73.6414 100.974 74.3312C101.988 75.4674 105.14 75.021 106.168 74.7775C106.256 74.7562 106.349 74.7526 106.439 74.7669C106.529 74.7812 106.615 74.8131 106.693 74.8609C106.771 74.9086 106.839 74.9712 106.893 75.0451C106.946 75.119 106.985 75.2027 107.006 75.2915C107.028 75.3803 107.031 75.4725 107.017 75.5627C107.003 75.6529 106.971 75.7394 106.923 75.8173C106.875 75.8951 106.813 75.9629 106.739 76.0165C106.665 76.0702 106.581 76.1088 106.492 76.1301C105.532 76.3334 104.552 76.4331 103.571 76.4277Z" fill="#003579"/>
<path d="M104.504 83.0693H104.044C98.4713 82.8393 94.4405 78.4164 94.2647 78.227C94.1445 78.0925 94.0827 77.9157 94.0929 77.7356C94.103 77.5555 94.1843 77.3868 94.3188 77.2667C94.4534 77.1465 94.6301 77.0847 94.8102 77.0948C94.9903 77.105 95.159 77.1863 95.2792 77.3208C95.2792 77.3208 99.1205 81.5138 104.112 81.7167C105.574 81.7327 107.025 81.4494 108.374 80.8842C109.723 80.3189 110.942 79.4837 111.957 78.4299C112.019 78.3665 112.094 78.3162 112.177 78.2818C112.259 78.2475 112.347 78.2298 112.437 78.2298C112.526 78.2298 112.614 78.2475 112.697 78.2818C112.779 78.3162 112.854 78.3665 112.917 78.4299C113.042 78.5586 113.111 78.7308 113.111 78.9101C113.111 79.0893 113.042 79.2615 112.917 79.3902C110.7 81.6678 107.681 82.9882 104.504 83.0693Z" fill="#003579"/>
<path d="M114.447 62.1798C114.503 60.7167 114.035 59.5108 113.4 59.4864C112.766 59.4619 112.206 60.6281 112.149 62.0911C112.093 63.5542 112.561 64.7601 113.196 64.7846C113.83 64.8091 114.39 63.6428 114.447 62.1798Z" fill="#003579"/>
<path d="M98.5597 60.2417C98.6183 58.7776 98.151 57.5701 97.5161 57.5447C96.8811 57.5193 96.3189 58.6856 96.2603 60.1497C96.2018 61.6139 96.669 62.8214 97.304 62.8468C97.9389 62.8722 98.5012 61.7058 98.5597 60.2417Z" fill="#003579"/>
<path d="M119.382 67.9324C120.604 66.2649 122.139 64.8501 123.899 63.7664C124.824 63.1183 125.922 62.7647 127.051 62.752C127.965 62.8617 128.831 63.2221 129.553 63.7935C130.631 64.5904 131.531 65.6035 132.195 66.7681C132.858 67.9326 133.272 69.2229 133.408 70.5564C133.54 71.7987 133.359 73.0542 132.881 74.2084C132.044 75.994 130.609 77.4299 128.823 78.2661C127.034 79.0746 125.153 79.6649 123.223 80.0245" fill="white"/>
<path d="M123.143 80.744C122.989 80.7213 122.847 80.6482 122.739 80.5362C122.631 80.4242 122.563 80.2797 122.546 80.1251C122.529 79.9705 122.564 79.8147 122.645 79.682C122.726 79.5492 122.849 79.447 122.994 79.3914C124.856 79.0291 126.671 78.4574 128.404 77.6871C130.056 76.9453 131.396 75.6484 132.191 74.0216C132.624 72.9693 132.787 71.8255 132.665 70.6943C132.542 69.4511 132.16 68.2477 131.542 67.1618C130.925 66.076 130.086 65.132 129.08 64.3912C128.471 63.8875 127.729 63.5725 126.943 63.485C125.973 63.5213 125.034 63.8359 124.238 64.3912C122.56 65.4302 121.096 66.7799 119.923 68.3678C119.87 68.4423 119.802 68.5053 119.724 68.5532C119.645 68.6011 119.558 68.6329 119.468 68.6467C119.377 68.6606 119.284 68.6562 119.195 68.6339C119.106 68.6115 119.023 68.5717 118.949 68.5166C118.8 68.4081 118.699 68.2452 118.669 68.0629C118.638 67.8807 118.681 67.6939 118.787 67.5427C120.071 65.8091 121.673 64.3356 123.508 63.2009C124.552 62.4757 125.794 62.0886 127.065 62.0918C128.112 62.1974 129.108 62.6011 129.932 63.255C131.098 64.1148 132.07 65.211 132.783 66.472C133.496 67.7329 133.935 69.1303 134.071 70.5725C134.225 71.9514 134.03 73.3467 133.503 74.6303C132.57 76.5577 130.998 78.1017 129.053 78.9992C127.215 79.8238 125.285 80.4277 123.305 80.7981L123.143 80.744Z" fill="#003579"/>
<path d="M147.353 133.709C143.823 138.281 139.143 145.314 134.125 153.308H147.353V133.709Z" fill="#6DB0E2"/>
<path d="M134.125 154.014C134.027 154.011 133.93 153.988 133.841 153.946C133.757 153.91 133.681 153.857 133.618 153.79C133.554 153.724 133.505 153.646 133.472 153.56C133.44 153.475 133.424 153.383 133.427 153.292C133.43 153.2 133.451 153.11 133.489 153.027L146.718 122.783C146.792 122.613 146.93 122.479 147.103 122.411C147.275 122.343 147.467 122.345 147.637 122.417C147.722 122.454 147.797 122.507 147.861 122.573C147.924 122.64 147.974 122.718 148.006 122.804C148.039 122.889 148.054 122.981 148.052 123.072C148.049 123.164 148.027 123.254 147.989 123.337L134.761 153.595C134.708 153.719 134.619 153.825 134.506 153.9C134.393 153.974 134.261 154.014 134.125 154.014Z" fill="#003579"/>
<path d="M54.9044 22.9046C54.7534 22.9076 54.6058 22.86 54.4851 22.7694C54.4106 22.7158 54.3476 22.6479 54.2997 22.5696C54.2518 22.4914 54.22 22.4044 54.2061 22.3137C54.1923 22.223 54.1967 22.1305 54.219 22.0415C54.2414 21.9525 54.2812 21.8689 54.3363 21.7955C58.5428 16.0741 65.3869 17.6025 65.671 17.7378C65.8518 17.7797 66.0086 17.8913 66.1074 18.0484C66.2062 18.2055 66.239 18.3953 66.1985 18.5764C66.1778 18.6656 66.1397 18.7497 66.0862 18.824C66.0327 18.8983 65.9649 18.9612 65.8869 19.0091C65.8088 19.0569 65.722 19.0887 65.6316 19.1027C65.5411 19.1166 65.4487 19.1124 65.3599 19.0903C65.1029 19.0903 59.1109 17.7378 55.4589 22.6882C55.3898 22.765 55.3036 22.8246 55.2073 22.8622C55.111 22.8998 55.0073 22.9143 54.9044 22.9046Z" fill="#003579"/>
<path d="M32 153.768L190 153.768" stroke="#003579"/>
<path d="M32 162.768H146" stroke="#003579"/>
<path d="M151 162.768H162" stroke="#003579"/>
<path d="M0 153.768L26 153.768" stroke="#003579"/>
<circle cx="55.5" cy="37.5" r="1.5" fill="white"/>
</svg>
